<svg id="Layer_1" data-name="Layer 1" xmlns="http://www.w3.org/2000/svg" viewBox="0 0 47.08 41.24"><defs><style>.cls-1{fill:#3d98d0;}</style></defs><title>faq_graphic</title><path class="cls-1" d="M47.08,40.9s-.06,0-.07,0a.58.58,0,0,1-.55.29H29.78a8.19,8.19,0,0,1-.86,0,5,5,0,0,1-.94-.08h0a5.16,5.16,0,0,1-.88-.1l-.53,0-.28-.06-1.09-.23c-.36-.08-.71-.17-1.06-.27s-.64-.19-1-.31-.73-.27-1.09-.43-.84-.38-1.26-.58a12.73,12.73,0,0,1-1.63-1c-.43-.29-.85-.61-1.26-.94a11,11,0,0,1-1.37-1.27,12.17,12.17,0,0,1-1.63-2.15A10.54,10.54,0,0,1,14,31.87c-.13-.36-.24-.71-.34-1.07s-.18-.77-.25-1.16a5.85,5.85,0,0,1-.07-.72c0-.44,0-.89,0-1.34s.08-.77.12-1.16c0,0,0-.09,0-.15H.63a1,1,0,0,1-.24,0A.47.47,0,0,1,.06,26L0,25.85v-.18s0,0,0,0a.65.65,0,0,1,.28-.35L2,24.11l2.93-2,.13-.1,0-.06a6.15,6.15,0,0,1-.53-.49c-.35-.36-.7-.72-1-1.11s-.52-.67-.76-1a10.24,10.24,0,0,1-1.08-2A12.9,12.9,0,0,1,1.16,16c-.11-.42-.17-.86-.26-1.29a7.42,7.42,0,0,1-.11-1.24c0-.3,0-.6,0-.9s0-.72.11-1.08a10.16,10.16,0,0,1,.36-1.52A12.11,12.11,0,0,1,2.72,7,11.4,11.4,0,0,1,4.06,5.29c.35-.36.73-.71,1.11-1.06A12.76,12.76,0,0,1,6.66,3.09,18.78,18.78,0,0,1,8.89,1.83,19.64,19.64,0,0,1,11.13,1c.5-.16,1-.28,1.53-.41.36-.09.73-.17,1.09-.23S14.56.2,15,.15s.67-.07,1-.09l.41,0,.06,0h1.69l.07,0c.54.05,1.08.07,1.62.13s.91.14,1.36.23.95.2,1.42.32.71.2,1.07.32a14.63,14.63,0,0,1,1.7.67,11.78,11.78,0,0,1,1.13.55c.55.31,1.09.64,1.61,1a11.46,11.46,0,0,1,1.5,1.18l.88.85a13.08,13.08,0,0,1,1.32,1.65,11.72,11.72,0,0,1,.89,1.53,11.08,11.08,0,0,1,.58,1.48,12.47,12.47,0,0,1,.33,1.34c.07.4.1.81.14,1.22,0,.24,0,.48,0,.72a7.81,7.81,0,0,1-.14,1.6l-.06.37c0,.1,0,.12.11.15l1.33.29c.53.12,1,.3,1.55.47a14.54,14.54,0,0,1,1.87.79c.48.24,1,.52,1.43.79a12.46,12.46,0,0,1,1.69,1.18A14.56,14.56,0,0,1,42.85,20a12.19,12.19,0,0,1,1.23,1.46,12.78,12.78,0,0,1,1.07,1.73,11.45,11.45,0,0,1,.58,1.4c.11.31.18.63.27.94s.11.51.16.76a11,11,0,0,1,.15,2.29,7.53,7.53,0,0,1-.1.83c0,.23-.06.46-.1.68s-.07.38-.12.57c-.11.38-.21.76-.35,1.13s-.36.81-.54,1.21a10.15,10.15,0,0,1-.82,1.39,11.34,11.34,0,0,1-1.06,1.32l-.93,1-.16.14c-.1.08-.09.12,0,.19l.35.24c.62.42,1.24.84,1.85,1.27.45.3.89.61,1.33.92l1.19.81a.34.34,0,0,1,.17.35.41.41,0,0,0,0,.19l0,0Zm-2.42-.75,0,0L44.6,40l-.7-.49-1.62-1.1L41,37.59l-.31-.24a.51.51,0,0,1,0-.79,14.79,14.79,0,0,0,1.19-1.06A12.16,12.16,0,0,0,43,34.23,10.57,10.57,0,0,0,44,32.78a8.7,8.7,0,0,0,.61-1.36c.11-.33.2-.66.3-1,0-.17.1-.34.14-.51s0-.34.07-.51a7.79,7.79,0,0,0,.09-1c0-.31,0-.62,0-.92a4.48,4.48,0,0,0,0-.64c0-.25-.1-.5-.15-.75s-.09-.4-.15-.6a8.57,8.57,0,0,0-.31-1A13.35,13.35,0,0,0,44,23.34a6.9,6.9,0,0,0-.77-1.21c-.29-.36-.57-.73-.88-1.07a10,10,0,0,0-1.42-1.34c-.42-.32-.85-.64-1.28-.94a12.51,12.51,0,0,0-1.79-1c-.49-.23-1-.45-1.49-.65-.34-.13-.69-.23-1-.33s-.54-.16-.8-.23-.46-.12-.69-.16-.44-.1-.66-.13l-.79-.11c-.22,0-.44-.08-.67-.09-.44,0-.89-.07-1.33-.07-.63,0-1.26,0-1.89,0h-.07l-.82.09L27,16.2l-.75.14c-.34.06-.68.12-1,.2s-.79.21-1.18.34-1.05.36-1.57.57a14.21,14.21,0,0,0-1.91,1A14.53,14.53,0,0,0,18.38,20c-.41.37-.81.77-1.2,1.17a7.36,7.36,0,0,0-.62.76,9.47,9.47,0,0,0-.64.92c-.23.39-.45.78-.64,1.18s-.26.67-.39,1c-.07.18-.13.36-.19.54s-.11.47-.16.7,0,.31-.07.46-.06.39-.08.59,0,.45,0,.68a8.69,8.69,0,0,0,.12,1.69c0,.19.06.37.1.56s.13.46.2.69a8.25,8.25,0,0,0,.44,1.17,8.8,8.8,0,0,0,1,1.71,13.43,13.43,0,0,0,3.71,3.57,14.67,14.67,0,0,0,2.31,1.24c.41.18.82.34,1.24.49l.75.25.61.19.78.18q.31.08.63.12c.12,0,.23,0,.34,0a3.76,3.76,0,0,0,.66.1l.46,0c.28,0,.56.08.84.1H44.66Zm-12.14-25c0-.22.07-.44.1-.67s.08-.65.1-1a10.34,10.34,0,0,0-.14-1.92A8.67,8.67,0,0,0,32.2,10a11,11,0,0,0-1.53-2.89,12.79,12.79,0,0,0-1.83-2A13.8,13.8,0,0,0,27,3.76a15.69,15.69,0,0,0-2.77-1.41c-.44-.17-.9-.32-1.36-.47S22,1.64,21.6,1.54s-.75-.16-1.12-.23-.55-.08-.83-.11l-.71-.07c-.32,0-.64-.07-1-.07-.53,0-1.06,0-1.59,0s-.84.06-1.26.1-.67.07-1,.12l-1,.19A16.75,16.75,0,0,0,11.44,2a17.29,17.29,0,0,0-2.1.83A15.56,15.56,0,0,0,6.73,4.32a13.26,13.26,0,0,0-2,1.81,11.51,11.51,0,0,0-.88,1.08,10.73,10.73,0,0,0-.95,1.55,9.76,9.76,0,0,0-.71,1.86A9.61,9.61,0,0,0,1.91,12a10.32,10.32,0,0,0-.06,1.11,11.46,11.46,0,0,0,.06,1.17,12.49,12.49,0,0,0,.28,1.38,9,9,0,0,0,.65,1.75,11.49,11.49,0,0,0,.89,1.51,13.57,13.57,0,0,0,1.19,1.44,14.71,14.71,0,0,0,1.37,1.25.51.51,0,0,1,0,.84l-.57.39L4,24,2.54,25c-.08.06-.2.09-.24.22H13.56c.1,0,.14,0,.17-.13.1-.32.19-.66.32-1s.38-.86.6-1.27a11.09,11.09,0,0,1,1.66-2.35c.26-.3.55-.58.82-.86l.1-.12-.56-.11a2,2,0,0,1-1-.56,2,2,0,0,1-.48-2,2.07,2.07,0,0,1,1.7-1.35,3.22,3.22,0,0,1,.93,0,2.21,2.21,0,0,1,1.27.59,1.78,1.78,0,0,1,.58,1.33v.28l.17-.08A16.27,16.27,0,0,1,22,16.53L23,16.09l1-.31c.34-.1.67-.2,1-.28s.55-.12.82-.17l.6-.1.86-.14.81-.07c.42,0,.85-.07,1.27-.08a10.94,10.94,0,0,1,1.51.05C31.42,15,32,15.06,32.52,15.1Z" transform="translate(0 0)"/><path class="cls-1" d="M39.34,31a.87.87,0,0,0,.81.26,1.28,1.28,0,0,0,.7-.34l.07-.05c0-.05.09,0,.14,0,.17.21.36.42.54.62l.46.55c-.13.12-.25.25-.39.36a2.38,2.38,0,0,1-1.1.49,4.16,4.16,0,0,1-1.17,0,4,4,0,0,1-.75-.16,3.74,3.74,0,0,1-1.19-.69,6,6,0,0,1-.7-.63,1.19,1.19,0,0,0-.6-.33,3.72,3.72,0,0,1-2-1.37,3.56,3.56,0,0,1-.69-1.72,3.7,3.7,0,0,1,.73-2.76,3.74,3.74,0,0,1,1.21-1,4.38,4.38,0,0,1,1.49-.46,2.11,2.11,0,0,1,.25,0,5.78,5.78,0,0,1,.93,0,4.13,4.13,0,0,1,1.38.35,3.72,3.72,0,0,1,1.23.85,3.49,3.49,0,0,1,.89,1.67A3.75,3.75,0,0,1,41.64,28a3.33,3.33,0,0,1-.31,1.18,3.5,3.5,0,0,1-1.4,1.55c-.16.1-.33.18-.5.27A.35.35,0,0,0,39.34,31Zm-1.8-1.66a1.55,1.55,0,0,0,1.47-1,2,2,0,0,0,0-1.6,1.56,1.56,0,0,0-1.92-.93,1.47,1.47,0,0,0-1.05,1A2,2,0,0,0,36,28.06,1.58,1.58,0,0,0,37.54,29.38Z" transform="translate(0 0)"/><path class="cls-1" d="M30.26,24l3.17,7.15-.11,0c-.77,0-1.55,0-2.32,0a.18.18,0,0,1-.18-.14c-.12-.33-.25-.66-.38-1,0-.08-.06-.13-.16-.13H27.64l-.31.79c0,.12-.09.24-.14.35a.12.12,0,0,1-.12.09h-2.4a.42.42,0,0,1,0-.12l.75-1.69,1.07-2.43.8-1.79.45-1a.17.17,0,0,1,.16-.11h2.33Zm-.54,4.17-.34-.88c-.12-.28-.21-.57-.37-.88l-.69,1.76Z" transform="translate(0 0)"/><path class="cls-1" d="M24.48,27.05v1.84h-3c0,.07,0,.13,0,.18V31a.48.48,0,0,1,0,.12.14.14,0,0,1-.08.07H19V24h5.91a.29.29,0,0,1,0,.09V25.7c0,.14,0,.14-.16.14h-3.3c0,.06,0,.1,0,.14v.88c0,.19,0,.19.19.19h2.82Z" transform="translate(0 0)"/><path class="cls-1" d="M19.21,14.77H15.62c0-.18,0-.36.05-.54A2.33,2.33,0,0,1,16.34,13c.35-.38.72-.74,1.08-1.11a1.71,1.71,0,0,0,.37-.51.69.69,0,0,0-.39-1,1.78,1.78,0,0,0-1.73.18,2.16,2.16,0,0,0-.72.78l0,.05L11.83,9.9a1.56,1.56,0,0,0,.06-.15,4.94,4.94,0,0,1,2.22-2,5.87,5.87,0,0,1,1.36-.45,8.55,8.55,0,0,1,1-.13c.44,0,.87,0,1.31,0s.68.08,1,.13a5.11,5.11,0,0,1,1.31.41,3,3,0,0,1,1.61,1.51,2.77,2.77,0,0,1,.24.94,4.23,4.23,0,0,1,0,.87,2.82,2.82,0,0,1-.32.88,4.6,4.6,0,0,1-1.05,1.23c-.35.31-.7.62-1,.94A1,1,0,0,0,19.21,14.77Z" transform="translate(0 0)"/></svg>