<svg xmlns="http://www.w3.org/2000/svg" viewBox="0 0 251.7 138.5"><style type="text/css">  
	.st0{fill:none;stroke:#9D6D02;stroke-width:5;stroke-linejoin:round;stroke-miterlimit:10;}
	.st1{fill:none;stroke:#9D6D02;stroke-width:5;stroke-linecap:round;stroke-linejoin:round;stroke-miterlimit:10;}
	.st2{fill:none;stroke:#9D6D02;stroke-width:5;stroke-miterlimit:10;}
	.st3{fill:none;stroke:#9D6D02;stroke-width:5;stroke-miterlimit:10;stroke-dasharray:12,11;}
	.st4{fill:none;stroke:#9D6D02;stroke-width:5;stroke-linecap:round;stroke-miterlimit:10;}
	.st5{fill:none;stroke:#9D6D02;stroke-width:3;stroke-miterlimit:10;}
</style><rect x="91.7" y="2.5" class="st0" width="64.6" height="133.2"/><polygon class="st0" points="36 47.5 91.7 53.5 91.7 135.7 38.9 135.7 "/><polygon class="st1" points="219.3 72.2 156.3 75.5 156.3 135.7 216.3 135.7 "/><line class="st2" y1="136" x2="251.7" y2="136"/><line class="st3" x1="50.9" y1="63.9" x2="50.9" y2="129.3"/><line class="st3" x1="65" y1="63.9" x2="65" y2="129.3"/><line class="st3" x1="79.2" y1="63.9" x2="79.2" y2="129.3"/><line class="st4" x1="106.1" y1="20.9" x2="141.9" y2="20.9"/><line class="st4" x1="106.1" y1="38.9" x2="141.9" y2="38.9"/><line class="st4" x1="106.1" y1="56.9" x2="141.9" y2="56.9"/><line class="st4" x1="106.1" y1="74.9" x2="141.9" y2="74.9"/><line class="st4" x1="106.1" y1="92.9" x2="141.9" y2="92.9"/><line class="st4" x1="106.1" y1="110.9" x2="141.9" y2="110.9"/><circle class="st5" cx="170.4" cy="97.1" r="4.5"/><circle class="st5" cx="187.8" cy="97.1" r="4.5"/><circle class="st5" cx="205.2" cy="97.1" r="4.5"/><circle class="st5" cx="179" cy="115.3" r="4.5"/></svg>