<svg xmlns="http://www.w3.org/2000/svg" viewBox="0 0 294.8 152.2"><style type="text/css">  
	.st0{fill:#14597F;}
</style><path class="st0" d="M288.6 5h-274C11.4 5 7.4 4.3 4.3 5.3 0.3 6.5 0 10.4 0 13.9V24c0 3.7 0.8 7.4 5.1 8.3 0.5 0.1 1.1 0.2 1.7 0.2 13 0.5 26.2 0 39.3 0h229.6c4.2 0 8.4 0.2 12.6 0 0.8 0 1.6-0.1 2.4-0.3 4-1.3 4.3-5.1 4.3-8.6V13.4c0-3.7-0.8-7.4-5.1-8.3 -5.5-1.1-7.8 7.3-2.3 8.4 -2.9-0.6-1-3.4-1.3-1.6 0 0.5 0 1 0 1.5v9.6c0 0.8-0.3 2.2 0 2.9 0.2 0.7 3.7-1.8 2-2.2 -0.5-0.1-1-0.1-1.5 0H11.2c-1.3 0-3.1-0.3-4.3 0 -0.1 0-0.6-0.1-0.6 0 0.6-0.8 1.9 3.9 2.4 1.7 0-0.5 0-1 0-1.5v-9.9c0-0.4 0.3-2.5 0-2.8 0.8 0.8-3.7 1.7-2 2.3 1 0.4 3 0 4.1 0h277.8C294.2 13.7 294.2 5 288.6 5z"/><path class="st0" d="M268.6 2.5v63.2c0 3.3 7.7 3.3 7.7 0V2.5C276.3-0.8 268.6-0.8 268.6 2.5z"/><path class="st0" d="M212 28.1v86.1l6.5-3.7c-7.6-4.5-16.7-7.1-25.4-8.2 -18.1-2.4-35.5 3.4-48.8 16h6.1c-5.4-6-13.1-10.4-20.6-13.4 -17.3-6.9-35.9-4-52.2 4.3l6.5 3.7V46c0-5.6-8.7-5.6-8.7 0v66.8c0 3.4 3.6 5.2 6.5 3.7 14.3-7.3 30.7-9.5 45.8-3.2 6.5 2.7 12 6.1 16.4 11 1.6 1.8 4.5 1.6 6.1 0 11.6-11 27-15.9 42.8-13.4 5.3 0.9 10.6 2.3 15.6 4.4 0.2 0.1 1 0.4 1.9 0.8 0.6 0.3 1.2 0.6 1.9 0.9 0.5 0.3 1.1 0.5 1.6 0.8 0.6 0.4 1.4 0.6 2.1 0.6 2.4 0 4.4-1.9 4.4-4.3V28.1C220.7 22.6 212 22.6 212 28.1z"/><path class="st0" d="M264 72.9c0.2 4.6 3.7 8.4 8.4 8.4 4.6 0 8.4-3.8 8.4-8.4 0-4.7-3.8-8.4-8.4-8.4C267.7 64.4 264.2 68.3 264 72.9c-0.2 3.3 5 3.3 5.1 0 0.2-4.3 6.7-4.3 6.7 0s-6.5 4.3-6.7 0C268.9 69.6 263.8 69.6 264 72.9z"/><path class="st0" d="M274.9 149.8l0-8.5 -0.1-60.4c0-3.3-5.1-3.3-5.1 0l0 8.5 0.1 60.4C269.8 153 274.9 153 274.9 149.8l0-8.5 -0.1-60.4c0-3.3-5.1-3.3-5.1 0l0 8.5 0.1 60.4C269.8 153 274.9 153 274.9 149.8z"/><path class="st0" d="M277.5 78.4c-2.9-1.5-5.5 2.9-2.6 4.4 2.2 1.1 3.8 3.1 4.5 5.4 0.5 1.7 0.2 3.8 0.2 5.6 -0.1 18.6 0 37.3 0 55.9 0 3.3 5.1 3.3 5.1 0 0-3 0-6 0-9 0-12.2 0-24.4 0-36.6 0-4.2 0-8.5 0-12.7C284.9 86.1 282.4 81 277.5 78.4L277.5 78.4z"/><path class="st0" d="M270 82.4c2.9-1.5 0.3-5.9-2.6-4.4 -2.5 1.3-4.5 3.3-5.8 5.8 -1.4 2.6-1.5 5.3-1.5 8.1 0.1 19.1 0 38.3 0 57.4 0 3.3 5.1 3.3 5.1 0 0-2.9 0-5.8 0-8.7 0-11.7 0-23.5 0-35.2 0-4.5 0-8.9 0-13.4 0-1.9-0.1-3.8 0.7-5.5C266.8 84.8 268.2 83.3 270 82.4L270 82.4z"/></svg>