<svg xmlns="http://www.w3.org/2000/svg" viewBox="0 0 242.8 101.5"><style type="text/css">  
	.st0{fill:#7F1426;}
	.st1{fill:none;stroke:#7F1426;stroke-width:4;stroke-linecap:round;stroke-linejoin:round;stroke-miterlimit:10;}
	.st2{fill:none;stroke:#7F1426;stroke-width:4;stroke-miterlimit:10;}
</style><path class="st0" d="M18.7 47.8c2.4 1.7 5.4 3.1 8.9 3.1 3.7-0.1 5.7-1.8 5.6-4.2 -0.1-5.9-15.2-4.5-15.4-12.8 -0.1-4.5 3.8-7.4 9.2-7.5 4.2-0.1 6.7 1.4 8.9 3.5l-2.1 2.4c-2.2-1.7-3.9-2.6-7.1-2.6 -3.2 0.1-5.2 1.6-5.1 4 0.1 5.2 15.2 3.9 15.4 12.6 0.1 4.6-3.9 7.8-9.9 7.9 -3.8 0-7.4-1.2-10.3-3.5L18.7 47.8zM25.3 20.1l2.9-0.1 0.2 7.7 -2.9 0.1L25.3 20.1zM28.9 52.7l0.2 8.2L26.2 61l-0.2-8.2L28.9 52.7z"/><path class="st0" d="M208.3 48.1c2.4 1.7 5.4 3.1 9 3.1 3.7-0.1 5.7-1.8 5.6-4.2 -0.1-5.9-15.2-4.5-15.4-12.8 -0.1-4.5 3.8-7.4 9.2-7.5 4.2-0.1 6.7 1.4 8.9 3.5l-2 2.4c-2.2-1.7-3.9-2.6-7.1-2.6 -3.2 0.1-5.2 1.6-5.1 4 0.1 5.2 15.2 3.9 15.4 12.6 0.1 4.6-3.9 7.8-9.9 7.9 -3.8 0-7.4-1.2-10.3-3.5L208.3 48.1zM214.9 20.4l2.9-0.1 0.2 7.7 -2.9 0.1L214.9 20.4zM218.5 53l0.2 8.2 -2.9 0.1 -0.2-8.2L218.5 53z"/><path class="st0" d="M129.7 101.3l-2.9-3.3 -2.9 3.3c-0.3 0.4-0.8 0-0.8-0.6V65.6c0-0.4 0.2-0.8 0.5-0.8h6.4c0.3 0 0.5 0.3 0.5 0.8v35.1C130.5 101.3 130 101.7 129.7 101.3z"/><path class="st0" d="M119 101.3l-2.8-3 -2.8 3c-0.4 0.4-0.9 0-0.9-0.6v-35c0-0.4 0.2-0.8 0.6-0.8h6.3c0.3 0 0.6 0.4 0.6 0.8v35C119.9 101.3 119.3 101.7 119 101.3z"/><path class="st1" d="M232.1 79.7C156.6 61 82.8 61 10.7 79.7 6.2 80.9 2 77 2 72.4v-63c0-4.7 4.4-8.3 9-7.3 73.6 15.9 147.2 15.9 220.8 0 4.6-1 9 2.5 9 7.3v63C240.8 77 236.5 80.8 232.1 79.7z"/><path class="st0" d="M121.5 24.3c4 0 7.7 1.4 10.7 3.7V13.5c0-1.8-1.4-3.2-3.2-3.2h-15.1c-1.8 0-3.2 1.4-3.2 3.2v14.6C113.6 25.8 117.4 24.3 121.5 24.3z"/><path class="st0" d="M121.5 59.2c-4.1 0-7.9-1.4-10.9-3.8V70c0 1.8 1.4 3.2 3.2 3.2h15.1c1.8 0 3.2-1.4 3.2-3.2V55.5C129.2 57.8 125.5 59.2 121.5 59.2z"/><circle class="st2" cx="121.5" cy="41.8" r="17.4"/><path class="st2" d="M10.7 79.7l4.1 13.6c1.2 3.9 5.3 6.1 9.2 4.8l84.8-32.4C76.3 66.5 43.6 71.4 10.7 79.7z"/><path class="st2" d="M232.8 79.7l-4 13.6c-1.2 3.9-5.3 6.1-9.2 4.8l-84.8-32.4C167.2 66.5 199.9 71.4 232.8 79.7z"/></svg>