<svg xmlns="http://www.w3.org/2000/svg" viewBox="0 0 441.6 46.4"><style type="text/css">  
	.st0{fill:#FFFFFF;}
</style><path class="st0" d="M36 0L15.8 46H11L0 21.2h5.2L13.5 40 31.2 0H36z"/><path class="st0" d="M251.4 0l-20.3 46h-4.8l-11-24.8h5.2l8.3 18.8 17.7-40H251.4z"/><path class="st0" d="M34.8 12.4h4.8V46h-4.8V12.4z"/><path class="st0" d="M52.1 45.2c-2.4-0.8-4.2-1.8-5.5-3l1.8-3.7c1.3 1.2 2.9 2.1 4.9 2.8 2 0.7 4.1 1.1 6.2 1.1 2.8 0 4.9-0.5 6.2-1.4 1.4-0.9 2.1-2.2 2.1-3.8 0-1.2-0.4-2.1-1.1-2.8 -0.8-0.7-1.7-1.3-2.8-1.7 -1.1-0.4-2.7-0.8-4.7-1.3 -2.5-0.6-4.6-1.2-6.1-1.8 -1.6-0.6-2.9-1.5-4-2.8 -1.1-1.3-1.7-3-1.7-5.1 0-1.8 0.5-3.4 1.4-4.8 0.9-1.4 2.4-2.6 4.3-3.5s4.3-1.3 7.2-1.3c2 0 3.9 0.3 5.9 0.8 1.9 0.5 3.6 1.2 4.9 2.2l-1.6 3.8c-1.4-0.9-2.9-1.6-4.5-2 -1.6-0.5-3.2-0.7-4.7-0.7 -2.7 0-4.8 0.5-6.1 1.5 -1.4 1-2 2.3-2 3.8 0 1.2 0.4 2.1 1.2 2.8C54 25 55 25.6 56.1 26c1.1 0.4 2.7 0.8 4.6 1.3 2.5 0.6 4.6 1.2 6.1 1.8 1.5 0.6 2.9 1.5 4 2.8s1.7 2.9 1.7 5c0 1.8-0.5 3.4-1.4 4.8 -1 1.5-2.4 2.6-4.4 3.5 -2 0.8-4.4 1.3-7.2 1.3C56.9 46.4 54.5 46 52.1 45.2z"/><path class="st0" d="M79.5 12.4h4.8V46h-4.8V12.4z"/><path class="st0" d="M100.3 44.2c-2.7-1.5-4.9-3.5-6.4-6.2 -1.6-2.6-2.3-5.6-2.3-8.8 0-3.2 0.8-6.2 2.3-8.8 1.6-2.6 3.7-4.7 6.4-6.2 2.7-1.5 5.8-2.2 9.2-2.2 3.4 0 6.4 0.7 9.1 2.2 2.7 1.5 4.8 3.5 6.4 6.1 1.5 2.6 2.3 5.5 2.3 8.8 0 3.3-0.8 6.2-2.3 8.8 -1.5 2.6-3.7 4.7-6.4 6.1 -2.7 1.5-5.8 2.2-9.1 2.2C106.1 46.4 103.1 45.7 100.3 44.2zM116.2 40.5c2-1.1 3.5-2.7 4.7-4.6 1.1-2 1.7-4.2 1.7-6.6 0-2.4-0.6-4.6-1.7-6.6 -1.1-2-2.7-3.5-4.7-4.6 -2-1.1-4.2-1.7-6.6-1.7 -2.5 0-4.7 0.6-6.7 1.7 -2 1.1-3.6 2.7-4.7 4.6 -1.1 2-1.7 4.2-1.7 6.6 0 2.4 0.6 4.6 1.7 6.6 1.1 2 2.7 3.5 4.7 4.6 2 1.1 4.2 1.7 6.7 1.7C112 42.2 114.2 41.6 116.2 40.5z"/><path class="st0" d="M163.6 12.4V46h-3.9L139.5 21V46h-4.8V12.4h3.9l20.2 25.1V12.4H163.6z"/><path class="st0" d="M176.1 45.2c-2.4-0.8-4.2-1.8-5.5-3l1.8-3.7c1.3 1.2 2.9 2.1 4.9 2.8 2 0.7 4.1 1.1 6.2 1.1 2.8 0 4.9-0.5 6.2-1.4 1.4-0.9 2.1-2.2 2.1-3.8 0-1.2-0.4-2.1-1.1-2.8 -0.8-0.7-1.7-1.3-2.8-1.7 -1.1-0.4-2.7-0.8-4.7-1.3 -2.5-0.6-4.6-1.2-6.1-1.8 -1.6-0.6-2.9-1.5-4-2.8 -1.1-1.3-1.7-3-1.7-5.1 0-1.8 0.5-3.4 1.4-4.8 0.9-1.4 2.4-2.6 4.3-3.5s4.3-1.3 7.2-1.3c2 0 3.9 0.3 5.9 0.8 1.9 0.5 3.6 1.2 4.9 2.2l-1.6 3.8c-1.4-0.9-2.9-1.6-4.5-2 -1.6-0.5-3.2-0.7-4.7-0.7 -2.7 0-4.8 0.5-6.1 1.5 -1.4 1-2 2.3-2 3.8 0 1.2 0.4 2.1 1.2 2.8 0.8 0.7 1.7 1.3 2.9 1.7 1.1 0.4 2.7 0.8 4.6 1.3 2.5 0.6 4.6 1.2 6.1 1.8 1.5 0.6 2.9 1.5 4 2.8s1.7 2.9 1.7 5c0 1.8-0.5 3.4-1.4 4.8 -1 1.5-2.4 2.6-4.4 3.5 -2 0.8-4.4 1.3-7.2 1.3C180.9 46.4 178.5 46 176.1 45.2z"/><path class="st0" d="M274.2 41.9V46h-24.4V12.4h23.7v4.2h-18.9v10.3h16.8V31h-16.8v10.8H274.2z"/><path class="st0" d="M304.4 46l-7.2-10.3c-0.9 0.1-1.6 0.1-2.1 0.1h-8.3V46H282V12.4h13.1c4.4 0 7.8 1 10.3 3.1 2.5 2.1 3.7 4.9 3.7 8.6 0 2.6-0.6 4.8-1.9 6.6 -1.3 1.8-3.1 3.2-5.5 4l8 11.3H304.4zM301.9 29.8c1.6-1.3 2.4-3.2 2.4-5.6 0-2.4-0.8-4.3-2.4-5.6 -1.6-1.3-3.9-1.9-7-1.9h-8.2v15.1h8.2C298 31.7 300.3 31.1 301.9 29.8z"/><path class="st0" d="M316.9 12.4h4.8V46h-4.8V12.4z"/><path class="st0" d="M336.5 16.6v11.7h16.8v4.1h-16.8V46h-4.8V12.4h23.7v4.2H336.5z"/><path class="st0" d="M362.2 12.4h4.8V46h-4.8V12.4z"/><path class="st0" d="M401.5 41.9V46h-24.4V12.4h23.7v4.2h-18.9v10.3h16.8V31h-16.8v10.8H401.5z"/><path class="st0" d="M409.3 12.4h14.2c3.6 0 6.7 0.7 9.5 2.1 2.8 1.4 4.9 3.4 6.4 5.9 1.5 2.5 2.3 5.5 2.3 8.8s-0.8 6.2-2.3 8.8c-1.5 2.5-3.7 4.5-6.4 5.9 -2.8 1.4-5.9 2.1-9.5 2.1h-14.2V12.4zM423.1 41.9c2.7 0 5.1-0.5 7.2-1.6 2.1-1.1 3.7-2.5 4.8-4.4 1.1-1.9 1.7-4.1 1.7-6.6 0-2.5-0.6-4.7-1.7-6.6 -1.1-1.9-2.7-3.4-4.8-4.4 -2.1-1.1-4.5-1.6-7.2-1.6h-9.1v25.2H423.1z"/></svg>