<svg xmlns="http://www.w3.org/2000/svg" viewBox="0 0 994.3 355.3"><style type="text/css">  
	.st0{fill:#5F8474;}
	.st1{fill:#7EB09B;}
	.st2{fill:#808080;}
	.st3{fill:#CC0B2B;}
	.st4{fill:#DB9800;}
	.st5{fill:#383838;}
</style><title>  cspLogoRedNoCap</title><path class="st0" d="M880.8 175.5c5.8 2 12.4 3.2 19.5 1 7.3-2.3 10.3-6.8 8.8-11.6 -3.6-11.7-32.8-0.4-37.8-16.7 -2.7-8.8 3.3-16.8 14.1-20.1 8.3-2.6 14.1-1 19.6 1.9l-2.8 5.9c-5.3-2.1-9.3-3-15.5-1.1 -6.3 2-9.3 6.2-7.9 10.9 3.2 10.3 32.4-0.9 37.7 16.3 2.8 9-3.4 17.6-15.2 21.3 -7.4 2.1-15.3 1.7-22.5-1.2L880.8 175.5zM878.3 116.9l5.6-1.7 4.7 15.1L883 132 878.3 116.9zM903.9 179.5l5 16.3 -5.6 1.7 -5-16.3L903.9 179.5z"/><path class="st0" d="M788.1 45.9l4.8-3.4 9.1 13 -4.8 3.4L788.1 45.9zM808.5 100.9c6.1 0.1 12.8-0.8 18.8-5.1 6.3-4.4 7.7-9.6 4.8-13.7 -7-10-31.3 9.7-41.1-4.3 -5.3-7.6-2.1-17 7.2-23.5 7.1-5 13.1-5.3 19.2-4.3l-0.8 6.4c-5.7-0.3-9.7 0-15.1 3.7 -5.4 3.8-7 8.7-4.1 12.8 6.2 8.9 30.6-10.8 40.9 3.9 5.4 7.7 2.2 17.8-7.9 25 -6.4 4.3-14.1 6.4-21.8 5.8L808.5 100.9zM831.7 97.6l9.8 13.9 -4.8 3.4 -9.8-13.9L831.7 97.6z"/><path class="st1" d="M964.9 195.9L932.8 95l-4.5-14.2c-1-3.1-4.3-5.4-7.7-4.4l-37.6 12 -89.7 28.7 -108.4 34.8 -94.2 30.2c-15.2 4.9-30.6 9.3-45.7 14.6 -0.2 0.1-0.4 0.1-0.7 0.2 -7.6 2.4-4.4 14.5 3.3 12l37.6-12 89.7-28.7 108.5-34.7 94.2-30.2 31-9.9c4.7-1.5 10.2-2.5 14.6-4.7 0.2-0.1 0.4-0.2 0.7-0.2l-7.7-4.4 32.2 100.8 4.5 14.2C955.3 206.8 967.3 203.5 964.9 195.9L964.9 195.9z"/><path class="st1" d="M884.3 89.3l-55.4-75.5L821 3.1c-1.9-2.6-5.4-4.2-8.5-2.2l-31.3 19.6 -75.1 47.4L615.7 125l-78.5 49.6c-12.7 8-25.8 15.7-38.2 24.1 -0.2 0.1-0.4 0.2-0.5 0.3 -6.8 4.3-0.5 15.1 6.3 10.8l31.3-19.8 75.1-47.4 90.4-57.1 78.5-49.6L806 19.5c3.9-2.5 8.8-4.7 12.3-7.8 0.2-0.1 0.4-0.2 0.5-0.3l-8.5-2.2 55.4 75.5 7.9 10.7C878.2 101.9 889 95.7 884.3 89.3L884.3 89.3z"/><path class="st2" d="M372.9 211.9l61.4-0.8 147.3-1.9 177.5-2.2 153.3-1.9 50.5-0.6c7.8-0.1 16.2 0.7 23.9-0.3 0.3 0 0.7 0 1 0l-5.7-5.7 0.8 65.5c0.1 7.3 11.5 7.3 11.4 0l-0.8-65.5c0-3.1-2.6-5.6-5.7-5.7l-61.4 0.8 -147.2 1.8 -177.5 2.2 -153.3 1.9c-24.8 0.3-49.7-0.1-74.4 0.9 -0.3 0-0.7 0-1 0C365.6 200.6 365.6 212 372.9 211.9L372.9 211.9z"/><path class="st3" d="M10.1 51.3h446.8c1.8 0 4.9 0.6 6.6 0 2.8-1-4.4-2.4-3.1-3.7 -0.5 0.5 0 4 0 4.5V68c-0.1 0.8-0.1 1.6 0 2.4 0.8 3.6 3-4 3.9-2.7 -0.1-0.1-0.8 0-1 0 -2-0.5-4.9 0-7 0H13.2c-0.8-0.1-1.6-0.1-2.4 0 -2.7 0.6 2.8 4.6 3.2 3.5 0.4-1.2 0-3.4 0-4.7V51c0.1-0.8 0.1-1.6 0-2.4 -0.5-3 2.5 1.6-2.1 2.5 8.8-1.8 5.1-15.2-3.7-13.5C1.3 39 0 45 0 51v16.3C0 73 0.5 79 7 81.2c1.2 0.3 2.5 0.5 3.8 0.5 6.7 0.3 13.5 0 20.2 0h369.2c21 0 42.2 0.8 63.1 0 0.9 0 1.8-0.1 2.7-0.2 6.9-1.4 8.2-7.4 8.2-13.4V51.8c0-5.7-0.4-11.8-7-13.9 -4.9-1.5-11.4-0.5-16.4-0.5H10.1C1.1 37.4 1.1 51.3 10.1 51.3z"/><path class="st4" d="M29.8 33.7v111.6c0 5.8 12.4 5.8 12.4 0V33.7C42.2 27.9 29.8 27.9 29.8 33.7z"/><path class="st3" d="M119.3 74.6v138.5c0.1 3.9 3.3 7 7.1 6.9 1.2 0 2.3-0.3 3.3-0.9 0.8-0.5 1.7-0.9 2.5-1.4 1-0.5 2-1 3-1.5 1.4-0.6 2.7-1.2 3-1.3 8-3.3 16.4-5.7 25-7.1 25.5-4.1 50.2 3.8 68.9 21.5 2.6 2.5 7.3 2.9 9.9 0 7.1-7.9 16-13.4 26.5-17.8 24.3-10.1 50.7-6.5 73.7 5.2 4.6 2.4 10.5-0.5 10.5-6V103.4c0-9-13.9-9-13.9 0v107.5l10.5-6c-26.1-13.3-56.1-17.9-83.9-6.9 -12 4.8-24.4 11.9-33.2 21.6h9.9c-21.4-20.2-49.2-29.5-78.4-25.7 -14 1.9-28.7 6-40.9 13.2l10.5 6V74.6C133.3 65.7 119.3 65.7 119.3 74.6z"/><path class="st4" d="M44.4 161.1c-0.5 10.3-16.1 10.5-16.1 0C28.2 150.7 43.9 150.8 44.4 161.1c0.4 7.9 12.7 8 12.4 0 -0.5-11.1-8.9-20.4-20.4-20.4 -11.3 0-20.4 9.2-20.4 20.5s9.1 20.4 20.4 20.4c11.5 0 19.9-9.4 20.4-20.4C57.1 153.2 44.8 153.2 44.4 161.1z"/><path class="st4" d="M42.6 348.1l0.3-147v-20.6c0-8-12.4-8-12.4 0l-0.3 147v20.6C30.3 356 42.6 356.1 42.6 348.1l0.3-147v-20.6c0-8-12.4-8-12.4 0l-0.3 147v20.6C30.3 356 42.6 356.1 42.6 348.1z"/><path class="st4" d="M23.9 174.6C12 180.8 6.1 193.2 6.2 206.2c0.1 10.3 0.1 20.6 0.1 30.9 0 29.7 0 59.4-0.1 89 0 7.3 0 14.6 0 21.8 0 8 12.4 8 12.4 0 0.1-45.3 0.2-90.6 0-135.9 0-4.4-0.6-9.3 0.6-13.5 1.7-5.7 5.7-10.5 11-13.2C37.3 181.7 31 171 23.9 174.6L23.9 174.6z"/><path class="st4" d="M42.1 184.3c4.3 2.3 7.7 5.8 9.9 10.2 2 4.3 1.7 8.9 1.7 13.5 0 10.9 0 21.8 0 32.7 0 28.7 0 57.4 0.1 86.1 0 7.1 0 14.1 0 21.2 0 8 12.4 8 12.4 0 -0.1-46.8-0.2-93.6 0-140.4 0-7-0.3-13.5-3.7-19.8 -3.2-6-8.1-10.9-14-14.2C41.3 169.9 35 180.7 42.1 184.3L42.1 184.3z"/><path class="st5" d="M160.2 248.2c-12.6 0-22.6 4.2-29.9 12.6s-11 19.9-11 34.5c0 15 3.5 26.6 10.6 34.8 7 8.2 17.1 12.3 30.1 12.3 8 0 17.1-1.4 27.4-4.3v11.7c-8 3-17.8 4.5-29.4 4.5 -16.9 0-29.9-5.1-39.1-15.4 -9.2-10.3-13.8-24.8-13.8-43.7 0-11.8 2.2-22.2 6.6-31.1 4.4-8.9 10.8-15.8 19.2-20.6 8.3-4.8 18.2-7.2 29.5-7.2 12 0 22.6 2.2 31.6 6.6l-5.7 11.5C177.5 250.2 168.8 248.2 160.2 248.2z"/><path class="st5" d="M262 352.7l-10-25.6h-32.2l-9.9 25.6h-9.5l31.8-80.7h7.9l31.6 80.7H262zM249.1 318.7l-9.3-24.9c-1.2-3.2-2.5-7-3.7-11.6 -0.8 3.5-2 7.4-3.5 11.6l-9.5 24.9H249.1z"/><path class="st5" d="M274.6 354.7h-14l-10-25.6h-29.4l-9.9 25.6h-13.8l33.3-84.7h10.6L274.6 354.7zM263.4 350.7h5.4l-30-76.7h-5.1l-30.2 76.7h5.1l9.9-25.6h34.9L263.4 350.7zM252 320.7h-31.8l10.5-27.6c1.5-4.1 2.6-7.9 3.4-11.3l1.8-7.7 2.1 7.6c1.3 4.5 2.5 8.3 3.7 11.4L252 320.7zM226 316.7h20.2l-8.3-22.2c-0.6-1.5-1.2-3.2-1.8-5 -0.5 1.6-1.1 3.3-1.7 5L226 316.7z"/><path class="st5" d="M287.9 352.7v-80.3h9.3v71.9h35.4v8.5h-44.7V352.7z"/><path class="st5" d="M334.7 354.7h-48.8v-84.3h13.3v71.9h35.4v12.4H334.7zM289.9 350.7h40.8v-4.5h-35.4v-71.9H290v76.4H289.9z"/><path class="st5" d="M430.7 322.1c0 10.1-3.7 18-11 23.6 -7.3 5.7-17.3 8.5-29.8 8.5 -13.6 0-24.1-1.8-31.4-5.3V336c4.7 2 9.8 3.6 15.4 4.7 5.5 1.2 11 1.7 16.5 1.7 8.9 0 15.6-1.7 20.1-5.1 4.5-3.4 6.8-8.1 6.8-14.1 0-4-0.8-7.2-2.4-9.8 -1.6-2.5-4.3-4.9-8-7s-9.4-4.6-17.1-7.3c-10.7-3.8-18.3-8.3-22.9-13.6 -4.6-5.2-6.9-12.1-6.9-20.5 0-8.8 3.3-15.9 10-21.1 6.6-5.2 15.4-7.9 26.4-7.9 11.4 0 21.9 2.1 31.5 6.3l-4.2 11.6c-9.5-4-18.7-6-27.6-6 -7.1 0-12.6 1.5-16.6 4.6 -4 3-6 7.2-6 12.6 0 4 0.7 7.2 2.2 9.8 1.5 2.5 3.9 4.9 7.4 7s8.8 4.5 16 7c12 4.3 20.3 8.9 24.8 13.8C428.4 307.9 430.7 314.3 430.7 322.1z"/><path class="st5" d="M470.3 352.7H461v-72h-25.4v-8.3h60.2v8.3h-25.4v72H470.3z"/><path class="st5" d="M472.3 354.7H459v-72h-25.4v-12.3h64.2v12.3h-25.4v72H472.3zM462.9 350.7h5.3v-72h25.4v-4.3h-56.2v4.3h25.4v72H462.9z"/><path class="st5" d="M558.3 352.7l-10-25.6h-32.2l-9.9 25.6h-9.5l31.8-80.7h7.9l31.6 80.7H558.3zM545.4 318.7l-9.3-24.9c-1.2-3.2-2.5-7-3.7-11.6 -0.8 3.5-2 7.4-3.5 11.6l-9.5 24.9H545.4z"/><path class="st5" d="M570.9 354.7h-14l-10-25.6h-29.5l-9.9 25.6h-13.8L527 270h10.6L570.9 354.7zM559.7 350.7h5.4l-30-76.7H530l-30.2 76.7h5.1l9.9-25.6h34.9L559.7 350.7zM548.3 320.7h-31.8l10.5-27.6c1.5-4.1 2.6-7.9 3.4-11.3l1.8-7.7 2.1 7.6c1.3 4.5 2.5 8.3 3.7 11.4L548.3 320.7zM522.3 316.7h20.2l-8.3-22.2c-0.6-1.5-1.2-3.2-1.8-5 -0.5 1.6-1.1 3.3-1.7 5L522.3 316.7z"/><path class="st5" d="M602.8 352.7h-9.3v-72h-25.4v-8.3h60.1v8.3h-25.4V352.7z"/><path class="st5" d="M604.8 354.7h-13.3v-72h-25.4v-12.3h64.1v12.3h-25.4V354.7zM595.4 350.7h5.3v-72h25.5v-4.3H570v4.3h25.4V350.7z"/><path class="st5" d="M689.9 352.7h-44.8v-80.3h44.8v8.3h-35.4v25.9h33.3v8.2h-33.3v29.6h35.4V352.7z"/><path class="st5" d="M691.9 354.7h-48.8v-84.3h48.8v12.3h-35.4v21.9h33.3v12.2h-33.3v25.6h35.4V354.7zM647.1 350.7h40.8v-4.4h-35.4v-33.6h33.3v-4.2h-33.3v-29.9h35.4v-4.3h-40.8V350.7z"/><path class="st3" d="M788.4 271.3c0 11.6-4 20.6-11.9 26.8 -7.9 6.3-19.3 9.4-34 9.4H729v45.1h-13.3V237.9h29.8C774.1 237.9 788.4 249 788.4 271.3zM729 296.1h12c11.8 0 20.4-1.9 25.7-5.7 5.3-3.8 7.9-9.9 7.9-18.4 0-7.6-2.5-13.2-7.5-17 -5-3.7-12.7-5.6-23.2-5.6H729V296.1z"/><path class="st3" d="M840.2 352.7l-10-25.6H798l-9.9 25.6h-9.5l31.8-80.7h7.9l31.6 80.7H840.2zM827.3 318.7l-9.3-24.9c-1.2-3.2-2.5-7-3.7-11.6 -0.8 3.5-2 7.4-3.5 11.6l-9.5 24.9H827.3z"/><path class="st3" d="M852.1 354.2h-12.9l-10-25.6H799l-9.9 25.6h-12.7l32.9-83.7h9.9L852.1 354.2zM841.2 351.2h6.4l-30.4-77.7h-5.8l-30.6 77.7h6.2l9.9-25.6h34.3L841.2 351.2zM829.5 320.2h-30.3l10.2-26.9c1.5-4.1 2.6-7.9 3.4-11.4l1.3-5.7 1.6 5.7c1.3 4.5 2.5 8.4 3.7 11.5L829.5 320.2zM803.5 317.2h21.7l-8.6-22.9c-0.7-1.9-1.5-4.1-2.2-6.5 -0.6 2.1-1.3 4.3-2.1 6.5L803.5 317.2z"/><path class="st3" d="M881.4 312.5l21.4-40.2h10.1l-26.8 49.2v31.2h-9.5v-30.8l-26.8-49.6H860L881.4 312.5z"/><path class="st3" d="M887.6 354.2h-12.5v-31.8l-27.8-51.5h13.6l20.4 38.5 20.5-38.5h13.5l-27.7 51V354.2zM878.1 351.2h6.5v-30l0.2-0.3 25.6-47h-6.7l-22.3 41.9 -22.2-42h-6.8l25.7 47.7V351.2z"/><path class="st3" d="M969.3 331.3c0 7.1-2.6 12.6-7.7 16.5s-12.1 5.9-20.9 5.9c-9.5 0-16.9-1.2-22-3.7v-9c3.3 1.4 6.9 2.5 10.8 3.3 3.9 0.8 7.7 1.2 11.5 1.2 6.2 0 10.9-1.2 14.1-3.5 3.2-2.4 4.7-5.7 4.7-9.9 0-2.8-0.6-5.1-1.7-6.8 -1.1-1.8-3-3.4-5.6-4.9s-6.6-3.2-12-5.1c-7.5-2.7-12.8-5.8-16-9.5s-4.8-8.4-4.8-14.3c0-6.2 2.3-11.1 7-14.8 4.7-3.7 10.8-5.5 18.5-5.5 8 0 15.3 1.5 22 4.4l-2.9 8.1c-6.6-2.8-13.1-4.2-19.3-4.2 -4.9 0-8.8 1.1-11.6 3.2s-4.2 5.1-4.2 8.8c0 2.8 0.5 5.1 1.5 6.8 1 1.8 2.8 3.4 5.2 4.9s6.2 3.1 11.2 4.9c8.4 3 14.2 6.2 17.4 9.7C967.7 321.3 969.3 325.8 969.3 331.3z"/><path class="st3" d="M940.7 355.3c-9.7 0-17.3-1.3-22.6-3.8l-0.9-0.4v-12.2l2.1 0.9c3.2 1.3 6.7 2.4 10.5 3.2s7.5 1.2 11.2 1.2c5.9 0 10.3-1.1 13.2-3.2 2.8-2.1 4.1-4.9 4.1-8.7 0-2.5-0.5-4.5-1.4-6 -1-1.6-2.7-3-5.1-4.4 -2.5-1.5-6.5-3.1-11.7-5 -7.7-2.7-13.3-6.1-16.6-9.9 -3.4-3.9-5.2-9.1-5.2-15.3 0-6.6 2.5-12 7.6-16 4.9-3.9 11.4-5.8 19.4-5.8 8.2 0 15.8 1.5 22.6 4.5l1.3 0.6 -3.9 10.9 -1.5-0.6c-6.4-2.7-12.7-4.1-18.8-4.1 -4.6 0-8.2 1-10.7 2.9 -2.4 1.8-3.6 4.3-3.6 7.7 0 2.5 0.5 4.6 1.3 6.1 0.9 1.5 2.5 3 4.7 4.4 2.3 1.4 6 3 10.9 4.8 8.7 3.1 14.6 6.4 18 10.1 3.4 3.7 5.1 8.6 5.1 14.4 0 7.5-2.8 13.5-8.3 17.7C957.1 353.2 949.8 355.3 940.7 355.3zM920.2 349.1c4.9 2.1 11.7 3.1 20.5 3.1 8.4 0 15.1-1.9 20-5.6 4.8-3.7 7.1-8.7 7.1-15.4 0-5.1-1.5-9.2-4.4-12.4 -3-3.2-8.6-6.4-16.8-9.3 -5.1-1.8-8.9-3.5-11.5-5 -2.6-1.6-4.6-3.4-5.7-5.4 -1.2-2-1.7-4.6-1.7-7.6 0-4.2 1.6-7.6 4.8-10 3-2.3 7.2-3.5 12.5-3.5 6 0 12.2 1.2 18.5 3.7l1.9-5.3c-6.1-2.5-12.9-3.7-20.1-3.7 -7.3 0-13.2 1.7-17.5 5.2 -4.3 3.4-6.4 7.8-6.4 13.6 0 5.5 1.5 10 4.4 13.4 3 3.5 8.2 6.5 15.4 9.1 5.4 1.9 9.5 3.7 12.2 5.2 2.8 1.6 4.9 3.4 6.1 5.4 1.3 2 1.9 4.6 1.9 7.6 0 4.7-1.8 8.4-5.3 11.1 -3.4 2.6-8.4 3.8-15 3.8 -3.9 0-7.9-0.4-11.8-1.2 -3.2-0.7-6.2-1.5-9-2.6v5.8H920.2z"/></svg>