<?xml version="1.0" encoding="utf-8"?>
<!-- Generator: Adobe Illustrator 13.0.1, SVG Export Plug-In . SVG Version: 6.00 Build 14948)  -->
<!DOCTYPE svg PUBLIC "-//W3C//DTD SVG 1.1//EN" "http://www.w3.org/Graphics/SVG/1.1/DTD/svg11.dtd">
<svg version="1.1" id="Layer_1" xmlns="http://www.w3.org/2000/svg" xmlns:xlink="http://www.w3.org/1999/xlink" x="0px" y="0px"
	 width="163.49px" height="161.334px" viewBox="0 0 163.49 161.334" enable-background="new 0 0 163.49 161.334"
	 xml:space="preserve">
<rect x="-139.51" y="-345" fill="#FFFFFF" width="513" height="18"/>
<text transform="matrix(1 0 0 1 125.7847 -337.4038)" font-family="'OptimaLTStd-Bold'" font-size="9">O</text>
<text transform="matrix(1 0 0 1 133.2798 -337.4038)" font-family="'OptimaLTStd-Bold'" font-size="9">f</text>
<text transform="matrix(1 0 0 1 136.1138 -337.4038)" font-family="'OptimaLTStd-Bold'" font-size="9">f</text>
<text transform="matrix(1 0 0 1 138.9487 -337.4038)" font-family="'OptimaLTStd-Bold'" font-size="9">i</text>
<text transform="matrix(1 0 0 1 141.4487 -337.4038)" font-family="'OptimaLTStd-Bold'" font-size="9">c</text>
<text transform="matrix(1 0 0 1 145.9487 -337.4038)" font-family="'OptimaLTStd-Bold'" font-size="9">i</text>
<text transform="matrix(1 0 0 1 148.4497 -337.4038)" font-family="'OptimaLTStd-Bold'" font-size="9">a</text>
<text transform="matrix(1 0 0 1 152.9497 -337.4038)" font-family="'OptimaLTStd-Bold'" font-size="9">l</text>
<text transform="matrix(1 0 0 1 155.4497 -337.4038)" font-family="'OptimaLTStd-Bold'" font-size="9"> </text>
<text transform="matrix(1 0 0 1 157.7036 -337.4038)" font-family="'OptimaLTStd-Bold'" font-size="9">W</text>
<text transform="matrix(1 0 0 1 166.0356 -337.4038)" font-family="'OptimaLTStd-Bold'" font-size="9">o</text>
<text transform="matrix(1 0 0 1 171.0396 -337.4038)" font-family="'OptimaLTStd-Bold'" font-size="9">r</text>
<text transform="matrix(1 0 0 1 174.3765 -337.4038)" font-family="'OptimaLTStd-Bold'" font-size="9">d</text>
<text transform="matrix(1 0 0 1 179.3804 -337.4038)" font-family="'OptimaLTStd-Bold'" font-size="9"> </text>
<text transform="matrix(1 0 0 1 182.1304 -337.4038)" font-family="'OptimaLTStd-Bold'" font-size="9">M</text>
<text transform="matrix(1 0 0 1 190.1304 -337.4038)" font-family="'OptimaLTStd-Bold'" font-size="9">a</text>
<text transform="matrix(1 0 0 1 194.6304 -337.4038)" font-family="'OptimaLTStd-Bold'" font-size="9">r</text>
<text transform="matrix(1 0 0 1 198.1313 -337.4038)" font-family="'OptimaLTStd-Bold'" font-size="9">k</text>
<text transform="matrix(1 0 0 1 202.6313 -337.4038)" font-family="'OptimaLTStd-Bold'" font-size="9"> </text>
<text transform="matrix(1 0 0 1 205.3813 -337.4038)" font-family="'OptimaLTStd-Bold'" font-size="9">a</text>
<text transform="matrix(1 0 0 1 209.8813 -337.4038)" font-family="'OptimaLTStd-Bold'" font-size="9">n</text>
<text transform="matrix(1 0 0 1 214.8843 -337.4038)" font-family="'OptimaLTStd-Bold'" font-size="9">d</text>
<text transform="matrix(1 0 0 1 219.8882 -337.4038)" font-family="'OptimaLTStd-Bold'" font-size="9"> </text>
<text transform="matrix(1 0 0 1 222.6382 -337.4038)" font-family="'OptimaLTStd-Bold'" font-size="9">t</text>
<text transform="matrix(1 0 0 1 225.6333 -337.4038)" font-family="'OptimaLTStd-Bold'" font-size="9">h</text>
<text transform="matrix(1 0 0 1 230.6362 -337.4038)" font-family="'OptimaLTStd-Bold'" font-size="9">e</text>
<text transform="matrix(1 0 0 1 235.1362 -337.4038)" font-family="'OptimaLTStd-Bold'" font-size="9"> </text>
<text transform="matrix(1 0 0 1 237.8872 -337.4038)" font-family="'OptimaLTStd-Bold'" font-size="9">O</text>
<text transform="matrix(1 0 0 1 245.3823 -337.4038)" font-family="'OptimaLTStd-Bold'" font-size="9">f</text>
<text transform="matrix(1 0 0 1 248.2163 -337.4038)" font-family="'OptimaLTStd-Bold'" font-size="9">f</text>
<text transform="matrix(1 0 0 1 251.0513 -337.4038)" font-family="'OptimaLTStd-Bold'" font-size="9">i</text>
<text transform="matrix(1 0 0 1 253.5513 -337.4038)" font-family="'OptimaLTStd-Bold'" font-size="9">c</text>
<text transform="matrix(1 0 0 1 258.0513 -337.4038)" font-family="'OptimaLTStd-Bold'" font-size="9">i</text>
<text transform="matrix(1 0 0 1 260.5522 -337.4038)" font-family="'OptimaLTStd-Bold'" font-size="9">a</text>
<text transform="matrix(1 0 0 1 265.0522 -337.4038)" font-family="'OptimaLTStd-Bold'" font-size="9">l</text>
<text transform="matrix(1 0 0 1 267.5522 -337.4038)" font-family="'OptimaLTStd-Bold'" font-size="9"> </text>
<text transform="matrix(1 0 0 1 269.8062 -337.4038)" font-family="'OptimaLTStd-Bold'" font-size="9">W</text>
<text transform="matrix(1 0 0 1 278.1382 -337.4038)" font-family="'OptimaLTStd-Bold'" font-size="9">o</text>
<text transform="matrix(1 0 0 1 283.1411 -337.4038)" font-family="'OptimaLTStd-Bold'" font-size="9">r</text>
<text transform="matrix(1 0 0 1 286.479 -337.4038)" font-family="'OptimaLTStd-Bold'" font-size="9">d</text>
<text transform="matrix(1 0 0 1 291.4819 -337.4038)" font-family="'OptimaLTStd-Bold'" font-size="9"> </text>
<text transform="matrix(1 0 0 1 294.2329 -337.4038)" font-family="'OptimaLTStd-Bold'" font-size="9">M</text>
<text transform="matrix(1 0 0 1 302.2329 -337.4038)" font-family="'OptimaLTStd-Bold'" font-size="9">a</text>
<text transform="matrix(1 0 0 1 306.7329 -337.4038)" font-family="'OptimaLTStd-Bold'" font-size="9">r</text>
<text transform="matrix(1 0 0 1 310.2329 -337.4038)" font-family="'OptimaLTStd-Bold'" font-size="9">k</text>
<text transform="matrix(1 0 0 1 314.7329 -337.4038)" font-family="'OptimaLTStd-Bold'" font-size="9"> </text>
<text transform="matrix(1 0 0 1 317.4839 -337.4038)" font-family="'OptimaLTStd-Bold'" font-size="9">w</text>
<text transform="matrix(1 0 0 1 324.4839 -337.4038)" font-family="'OptimaLTStd-Bold'" font-size="9">i</text>
<text transform="matrix(1 0 0 1 326.9849 -337.4038)" font-family="'OptimaLTStd-Bold'" font-size="9">t</text>
<text transform="matrix(1 0 0 1 329.98 -337.4038)" font-family="'OptimaLTStd-Bold'" font-size="9">h</text>
<text transform="matrix(1 0 0 1 334.9829 -337.4038)" font-family="'OptimaLTStd-Bold'" font-size="9"> </text>
<text transform="matrix(1 0 0 1 337.7329 -337.4038)" font-family="'OptimaLTStd-Bold'" font-size="9">S</text>
<text transform="matrix(1 0 0 1 342.2329 -337.4038)" font-family="'OptimaLTStd-Bold'" font-size="9">e</text>
<text transform="matrix(1 0 0 1 346.7329 -337.4038)" font-family="'OptimaLTStd-Bold'" font-size="9">a</text>
<text transform="matrix(1 0 0 1 351.2329 -337.4038)" font-family="'OptimaLTStd-Bold'" font-size="9">l</text>
<text transform="matrix(1 0 0 1 353.7339 -337.4038)" font-family="'OptimaLTStd-Bold'" font-size="9"> </text>
<text transform="matrix(1 0 0 1 356.4839 -337.4038)" font-family="'OptimaLTStd-Bold'" font-size="9"> </text>
<text transform="matrix(1 0 0 1 359.2349 -337.4038)" font-family="'OptimaLTStd-Bold'" font-size="9"> </text>
<text transform="matrix(1 0 0 1 361.9849 -337.4038)" font-family="'OptimaLTStd-Bold'" font-size="9"> </text>
<text transform="matrix(1 0 0 1 364.7358 -337.4038)" font-family="'OptimaLTStd-Bold'" font-size="9"> </text>
<text transform="matrix(1 0 0 1 367.4868 -337.4038)" font-family="'OptimaLTStd'" font-size="9">1</text>
<path fill="#D00D2D" d="M82.979,154.367c41.159,0,74.531-33.157,74.531-74.063c0-40.9-33.372-74.063-74.531-74.063
	c-41.164,0-74.531,33.162-74.531,74.063C8.449,121.21,41.815,154.367,82.979,154.367"/>
<path fill="#FFFFFF" d="M82.979,150.851c39.205,0,70.987-31.588,70.987-70.546c0-38.959-31.782-70.541-70.987-70.541
	c-39.21,0-70.992,31.582-70.992,70.541C11.988,119.263,43.77,150.851,82.979,150.851"/>
<path fill="#D00D2D" d="M82.979,147.505c37.347,0,67.625-30.088,67.625-67.2s-30.277-67.2-67.625-67.2
	c-37.347,0-67.629,30.087-67.629,67.2S45.633,147.505,82.979,147.505"/>
<path fill="#FFFFFF" d="M82.979,146.452c36.757,0,66.561-29.615,66.561-66.147s-29.804-66.143-66.561-66.143
	c-36.763,0-66.566,29.611-66.566,66.143S46.217,146.452,82.979,146.452"/>
<path fill="#D00D2D" d="M100.417,15.89c-0.905,0.718-1.858,1.398-2.859,2.026c-10.91,6.835-24.531,5.893-34.277-1.351l-0.125,0.004
	c-0.374,1.091-0.819,2.171-1.332,3.231c-5.561,11.564-17.586,17.985-29.717,17.028l-0.412,0.429
	c0.278,1.119,0.489,2.266,0.632,3.437c1.595,12.716-5.048,24.566-15.786,30.263l-0.129,0.724c0.838,0.791,1.643,1.642,2.399,2.547
	c8.267,9.837,9.133,23.377,3.209,33.938l0.215,0.547c1.14,0.22,2.275,0.504,3.41,0.857c12.299,3.859,20.374,14.791,21.116,26.865
	l1.413,0.914c1.068-0.447,2.174-0.833,3.314-1.156c12.395-3.546,25.206,1.128,32.543,10.779l1.02,0.01
	c0.651-0.952,1.37-1.875,2.146-2.766c8.453-9.68,21.763-12.692,33.199-8.571l0.575-0.343c0.033-1.151,0.134-2.313,0.302-3.479
	c1.849-12.683,11.412-22.367,23.28-25.037l0.077-0.091c-0.59-0.995-1.126-2.027-1.609-3.103c-5.244-11.713-2.352-24.968,6.255-33.52
	l-0.034-0.428c-1.034-0.524-2.045-1.109-3.036-1.761c-10.752-7.077-15.479-19.804-12.845-31.606l-0.843-0.984
	c-1.154,0.128-2.323,0.189-3.511,0.185c-12.893-0.062-23.87-8.129-28.175-19.441"/>
<path fill="#FFFFFF" d="M25.556,80.305c0-31.516,25.708-57.063,57.423-57.063c31.709,0,57.423,25.547,57.423,57.063
	s-25.714,57.063-57.423,57.063C51.265,137.367,25.556,111.82,25.556,80.305"/>
<path fill="#D00D2D" d="M82.979,126.222c25.517,0,46.202-20.56,46.202-45.917s-20.685-45.912-46.202-45.912
	c-25.522,0-46.207,20.555-46.207,45.912S57.458,126.222,82.979,126.222"/>
<path fill="#FFFFFF" d="M82.979,35.62c-24.837,0-44.967,20.008-44.967,44.685h44.967"/>
<path fill="#FFFFFF" d="M82.979,124.989c24.833,0,44.966-20.008,44.966-44.685H82.979"/>
<path fill="#FFFFFF" d="M101.38,69.806c4.741,0,8.587-3.821,8.587-8.533c0-4.711-3.846-8.533-8.587-8.533s-8.587,3.822-8.587,8.533
	C92.792,65.984,96.639,69.806,101.38,69.806"/>
<path fill="#FFFFFF" d="M101.37,40.251c0,4.603-0.177,9.514-1.183,11.508c0.872-0.109,1.757-0.095,2.629,0.034
	c-1.25-2.152-1.303-10.109-1.303-11.542"/>
<path fill="#FFFFFF" d="M86.428,46.4c3.276,3.255,6.633,6.867,7.337,8.985c0.541-0.69,1.178-1.309,1.887-1.827
	c-2.418-0.639-8.132-6.217-9.152-7.229"/>
<path fill="#FFFFFF" d="M83.727,61.282c4.636,0,6.073,0.176,8.08,1.176c-0.11-0.866-0.101-1.747,0.034-2.613
	c-2.165,1.242-6.672,1.295-8.113,1.295"/>
<path fill="#FFFFFF" d="M86.414,76.131c3.271-3.255,6.911-6.587,9.037-7.291c-0.694-0.538-1.312-1.171-1.834-1.875
	c-0.647,2.403-6.293,8.047-7.313,9.062"/>
<path fill="#FFFFFF" d="M101.39,79.186c0-4.602,0.177-6.405,1.183-8.398c-0.876,0.108-1.762,0.099-2.634-0.034
	c1.254,2.151,1.307,7.001,1.307,8.433"/>
<path fill="#FFFFFF" d="M116.366,76.112c-3.276-3.256-6.667-6.835-7.371-8.952c-0.541,0.695-1.178,1.309-1.887,1.827
	c2.414,0.643,8.094,6.254,9.114,7.267"/>
<path fill="#FFFFFF" d="M122.534,61.264c-4.631,0-9.573-0.177-11.58-1.176c0.11,0.87,0.096,1.751-0.034,2.617
	c2.165-1.247,10.172-1.299,11.614-1.299"/>
<path fill="#FFFFFF" d="M114.278,48.404c-3.276,3.255-4.842,4.602-6.974,5.307c0.699,0.537,1.317,1.166,1.839,1.869
	c0.647-2.398,4.258-6.024,5.278-7.034"/>
<line fill="none" stroke="#FFFFFF" stroke-width="0.051" stroke-linecap="round" x1="98.607" y1="50.746" x2="97.391" y2="46.238"/>
<line fill="none" stroke="#FFFFFF" stroke-width="0.051" stroke-linecap="round" x1="97.18" y1="45.458" x2="96.615" y2="43.363"/>
<line fill="none" stroke="#FFFFFF" stroke-width="0.051" stroke-linecap="round" x1="98.607" y1="50.746" x2="97.391" y2="46.238"/>
<line fill="none" stroke="#FFFFFF" stroke-width="0.051" stroke-linecap="round" x1="97.18" y1="45.458" x2="96.615" y2="43.363"/>
<line fill="none" stroke="#FFFFFF" stroke-width="0.051" stroke-linecap="round" x1="95.958" y1="51.816" x2="93.607" y2="47.776"/>
<line fill="none" stroke="#FFFFFF" stroke-width="0.051" stroke-linecap="round" x1="93.205" y1="47.076" x2="92.113" y2="45.196"/>
<line fill="none" stroke="#FFFFFF" stroke-width="0.051" stroke-linecap="round" x1="91.926" y1="55.775" x2="87.86" y2="53.443"/>
<line fill="none" stroke="#FFFFFF" stroke-width="0.051" stroke-linecap="round" x1="87.156" y1="53.04" x2="85.264" y2="51.959"/>
<line fill="none" stroke="#FFFFFF" stroke-width="0.051" stroke-linecap="round" x1="91.926" y1="55.775" x2="87.86" y2="53.443"/>
<line fill="none" stroke="#FFFFFF" stroke-width="0.051" stroke-linecap="round" x1="87.156" y1="53.04" x2="85.264" y2="51.959"/>
<line fill="none" stroke="#FFFFFF" stroke-width="0.051" stroke-linecap="round" x1="90.815" y1="58.398" x2="86.279" y2="57.189"/>
<line fill="none" stroke="#FFFFFF" stroke-width="0.051" stroke-linecap="round" x1="85.494" y1="56.979" x2="83.387" y2="56.418"/>
<line fill="none" stroke="#FFFFFF" stroke-width="0.051" stroke-linecap="round" x1="90.781" y1="64.028" x2="86.25" y2="65.237"/>
<line fill="none" stroke="#FFFFFF" stroke-width="0.051" stroke-linecap="round" x1="85.465" y1="65.447" x2="83.358" y2="66.009"/>
<line fill="none" stroke="#FFFFFF" stroke-width="0.051" stroke-linecap="round" x1="90.781" y1="64.028" x2="86.25" y2="65.237"/>
<line fill="none" stroke="#FFFFFF" stroke-width="0.051" stroke-linecap="round" x1="85.465" y1="65.447" x2="83.358" y2="66.009"/>
<line fill="none" stroke="#FFFFFF" stroke-width="0.051" stroke-linecap="round" x1="91.864" y1="66.66" x2="87.797" y2="68.992"/>
<line fill="none" stroke="#FFFFFF" stroke-width="0.051" stroke-linecap="round" x1="87.093" y1="69.396" x2="85.202" y2="70.481"/>
<line fill="none" stroke="#FFFFFF" stroke-width="0.051" stroke-linecap="round" x1="95.848" y1="70.668" x2="93.501" y2="74.708"/>
<line fill="none" stroke="#FFFFFF" stroke-width="0.051" stroke-linecap="round" x1="93.094" y1="75.407" x2="92.002" y2="77.288"/>
<line fill="none" stroke="#FFFFFF" stroke-width="0.051" stroke-linecap="round" x1="95.848" y1="70.668" x2="93.501" y2="74.708"/>
<line fill="none" stroke="#FFFFFF" stroke-width="0.051" stroke-linecap="round" x1="93.094" y1="75.407" x2="92.002" y2="77.288"/>
<line fill="none" stroke="#FFFFFF" stroke-width="0.051" stroke-linecap="round" x1="98.482" y1="71.771" x2="97.271" y2="76.278"/>
<line fill="none" stroke="#FFFFFF" stroke-width="0.051" stroke-linecap="round" x1="97.06" y1="77.059" x2="96.495" y2="79.152"/>
<line fill="none" stroke="#FFFFFF" stroke-width="0.051" stroke-linecap="round" x1="104.153" y1="71.805" x2="105.369" y2="76.307"/>
<line fill="none" stroke="#FFFFFF" stroke-width="0.051" stroke-linecap="round" x1="105.58" y1="77.088" x2="106.145" y2="79.181"/>
<line fill="none" stroke="#FFFFFF" stroke-width="0.051" stroke-linecap="round" x1="104.153" y1="71.805" x2="105.369" y2="76.307"/>
<line fill="none" stroke="#FFFFFF" stroke-width="0.051" stroke-linecap="round" x1="105.58" y1="77.088" x2="106.145" y2="79.181"/>
<line fill="none" stroke="#FFFFFF" stroke-width="0.051" stroke-linecap="round" x1="106.801" y1="70.729" x2="109.148" y2="74.77"/>
<line fill="none" stroke="#FFFFFF" stroke-width="0.051" stroke-linecap="round" x1="109.555" y1="75.47" x2="110.647" y2="77.349"/>
<line fill="none" stroke="#FFFFFF" stroke-width="0.051" stroke-linecap="round" x1="110.834" y1="66.77" x2="114.9" y2="69.102"/>
<line fill="none" stroke="#FFFFFF" stroke-width="0.051" stroke-linecap="round" x1="115.604" y1="69.506" x2="117.491" y2="70.591"/>
<line fill="none" stroke="#FFFFFF" stroke-width="0.051" stroke-linecap="round" x1="110.834" y1="66.77" x2="114.9" y2="69.102"/>
<line fill="none" stroke="#FFFFFF" stroke-width="0.051" stroke-linecap="round" x1="115.604" y1="69.506" x2="117.491" y2="70.591"/>
<line fill="none" stroke="#FFFFFF" stroke-width="0.051" stroke-linecap="round" x1="111.945" y1="64.152" x2="116.476" y2="65.356"/>
<line fill="none" stroke="#FFFFFF" stroke-width="0.051" stroke-linecap="round" x1="117.261" y1="65.565" x2="119.374" y2="66.128"/>
<line fill="none" stroke="#FFFFFF" stroke-width="0.051" stroke-linecap="round" x1="111.974" y1="58.517" x2="116.509" y2="57.308"/>
<line fill="none" stroke="#FFFFFF" stroke-width="0.051" stroke-linecap="round" x1="117.294" y1="57.099" x2="119.402" y2="56.537"/>
<line fill="none" stroke="#FFFFFF" stroke-width="0.051" stroke-linecap="round" x1="111.974" y1="58.517" x2="116.509" y2="57.308"/>
<line fill="none" stroke="#FFFFFF" stroke-width="0.051" stroke-linecap="round" x1="117.294" y1="57.099" x2="119.402" y2="56.537"/>
<line fill="none" stroke="#FFFFFF" stroke-width="0.051" stroke-linecap="round" x1="110.896" y1="55.886" x2="114.962" y2="53.554"/>
<line fill="none" stroke="#FFFFFF" stroke-width="0.051" stroke-linecap="round" x1="115.667" y1="53.148" x2="117.558" y2="52.063"/>
<line fill="none" stroke="#FFFFFF" stroke-width="0.051" stroke-linecap="round" x1="106.912" y1="51.878" x2="109.258" y2="47.838"/>
<line fill="none" stroke="#FFFFFF" stroke-width="0.051" stroke-linecap="round" x1="109.666" y1="47.139" x2="110.757" y2="45.258"/>
<line fill="none" stroke="#FFFFFF" stroke-width="0.051" stroke-linecap="round" x1="106.912" y1="51.878" x2="109.258" y2="47.838"/>
<line fill="none" stroke="#FFFFFF" stroke-width="0.051" stroke-linecap="round" x1="109.666" y1="47.139" x2="110.757" y2="45.258"/>
<line fill="none" stroke="#FFFFFF" stroke-width="0.051" stroke-linecap="round" x1="104.272" y1="50.779" x2="105.489" y2="46.271"/>
<line fill="none" stroke="#FFFFFF" stroke-width="0.051" stroke-linecap="round" x1="105.7" y1="45.487" x2="106.265" y2="43.397"/>
<path fill="#D00D2D" d="M51.184,50.326h29.291v21.521H76.82v-7.9H75.7v-1.556h1.106c0-2.208-1.849-4.313-4.147-4.313
	s-4.167,2.104-4.167,4.313h1.092v1.556h-1.097v7.9h-6.063v-7.9h-1.121v-1.556h1.111c0-2.208-1.854-4.313-4.152-4.313
	c-2.294,0-4.162,2.104-4.162,4.313h1.087v1.556h-1.092v7.9h-6.063l-0.005-7.9h-1.116v-1.556h1.106c0-1.79-1.211-3.503-2.893-4.098
	C46.414,55.767,49.258,52.302,51.184,50.326"/>
<path fill="#FFFFFF" d="M54.78,101.369c-1.48-1.09-2.577-3.203-4.454-2.898c-1.341,0.224-2.582,2.074-1.6,2.96
	c2.457,2.228,5.623,4.593,7.931,7.082c-0.561-1.01-0.546-2.052,0.278-2.989c1.168-1.318,2.26-0.828,2.26-0.828
	C57.941,103.754,56.164,102.388,54.78,101.369"/>
<path fill="#FFFFFF" d="M61.322,91.441c2.749,2.574,4.818,5.406,7.012,8.891c4.631-5.631,5.067-7.463,8.759-6.221
	c-2.902-2.018-5.642-4.227-8.822-5.854c-0.67-0.342-1.686-0.313-2.404-0.019C64.182,88.934,62.543,89.509,61.322,91.441"/>
<path fill="#FFFFFF" d="M73.793,96.338c0.479-0.956,1.609-1.689,2.677-1.266c1.355,0.538,0.934,2.052-0.077,2.604
	c-0.675,0.371-1.619-0.266-1.379-0.913c0.072-0.196,0.301-0.387,0.546-0.319c-0.063,0.328-0.043,0.438,0.125,0.6
	c0.378,0.353,0.781-0.058,1.034-0.515c0.297-0.532-0.172-1.094-0.958-0.894c-1.021,0.261-1.547,1.061-1.37,2.193
	c0.048,0.313,0.412,0.633,0.714,0.7c1.973,0.428,3.731-1.704,2.582-3.309c-1.212-1.689-4.133-0.609-5.221,1.123
	c0,0,0.513,0.543,1.13,1.085C73.597,97.428,73.511,96.895,73.793,96.338"/>
<path fill="#FFFFFF" d="M58.851,105.176c-0.584,0.058-1.346,0.348-1.681,1.166c-0.45,1.113-0.244,2.39,0.929,3.056
	c2.385,1.361,6.236-3.617,7.845-6.41c0,0-1.303-2.655-2.265-4.336c-1.149-2.004-2.261-3.731-3.86-5.535
	c-2.098,2.271-3.391,5.012-5.756,6.968c0.249,0.248,0.493,0.49,0.752,0.747c2.088,2.046,7.275,4.122,6,6.582
	c-0.402,0.775-1.341,1.441-2.255,1.076c-1.341-0.538-1.159-2.242,0.067-2.628c0.57-0.181,1.039,0.258,0.833,0.833
	c-0.168-0.167-0.69-0.281-0.91-0.09c-0.292,0.261-0.374,0.818,0.312,1.289c0.306,0.209,0.881,0.091,1.211-0.357
	c0.369-0.494,0.546-1.403-0.311-2.06C59.397,105.204,59.014,105.186,58.851,105.176"/>
<path fill="#FFFFFF" d="M55.312,88.019l0.187-0.061c9.2,3.354,18.53,23.319,19.967,28.483l-0.374-0.124
	c-1.034-2.518-1.973-4.479-4.947-5.473C68.866,107.608,63.449,93.863,55.312,88.019"/>
<path fill="none" stroke="#D00D2D" stroke-width="0.051" stroke-linecap="round" d="M70.585,110.255
	c0.469,0.028,1.125,0.433,1.595,0.774"/>
<path fill="none" stroke="#D00D2D" stroke-width="0.051" stroke-linecap="round" d="M70.211,109.259
	c0.374,0.029,1.283,0.435,1.595,0.715"/>
<path fill="none" stroke="#D00D2D" stroke-width="0.051" stroke-linecap="round" d="M69.742,108.265
	c0.623,0.187,1.092,0.31,1.375,0.495"/>
<path fill="none" stroke="#D00D2D" stroke-width="0.051" stroke-linecap="round" d="M69.272,107.204
	c0.561,0.19,0.843,0.157,1.125,0.375"/>
<path fill="none" stroke="#D00D2D" stroke-width="0.051" stroke-linecap="round" d="M68.894,106.271
	c0.407,0.129,0.91,0.157,1.317,0.405"/>
<path fill="none" stroke="#D00D2D" stroke-width="0.051" stroke-linecap="round" d="M68.521,105.186c0.345,0,0.718,0.215,0.876,0.31
	"/>
<path fill="none" stroke="#D00D2D" stroke-width="0.051" stroke-linecap="round" d="M68.142,104.315
	c0.283,0.062,0.503,0.09,0.724,0.246"/>
<path fill="none" stroke="#D00D2D" stroke-width="0.051" stroke-linecap="round" d="M67.458,103.287
	c0.311,0.032,0.718,0.156,0.905,0.28"/>
<path fill="none" stroke="#D00D2D" stroke-width="0.051" stroke-linecap="round" d="M66.955,102.325
	c0.249,0.058,0.407,0.091,0.689,0.276"/>
<path fill="none" stroke="#D00D2D" stroke-width="0.051" stroke-linecap="round" d="M66.514,101.298
	c0.412,0.124,0.502,0.186,0.661,0.275"/>
<path fill="none" stroke="#D00D2D" stroke-width="0.051" stroke-linecap="round" d="M66.016,100.365
	c0.283,0.027,0.407,0.185,0.565,0.28"/>
<path fill="none" stroke="#D00D2D" stroke-width="0.051" stroke-linecap="round" d="M65.36,99.337
	c0.282,0.062,0.623,0.219,0.718,0.314"/>
<path fill="none" stroke="#D00D2D" stroke-width="0.051" stroke-linecap="round" d="M64.794,98.466
	c0.316,0.063,0.441,0.124,0.594,0.219"/>
<path fill="none" stroke="#D00D2D" stroke-width="0.051" stroke-linecap="round" d="M64.201,97.656
	c0.22,0.096,0.469,0.157,0.627,0.281"/>
<path fill="#D00D2D" d="M82.697,95.482c1.001-0.686,1.782-1.243,2.285-1.619c0.498-0.371,0.924,0.21,1.939-0.495
	c1.691-1.185,2.443-2.303,3.195-1.37c0.747,0.933,1.125,0.247,1.561-0.186c0.876-0.871,2.754-2.86,3.07-2.86
	c0.312,0,0.561,0.309,1.001,0.309c0.436,0,3.439-2.55,4.004-2.55c0.565,0,2.816,2.612,3.443,2.612c0.627,0,2.38-1.181,2.941-1.181
	c0.565,0,4.257,3.422,4.942,3.422c0.69,0,7.826-2.865,8.329-2.865c0.498,0,6.006,3.67,6.446,4.17
	c0.436,0.499-0.325,0.262-0.627,0.062c-2.443-1.618-4.507-1.742-5.005-2.299c-0.503-0.562-0.69-1.68-2.132,0
	c-1.437,1.676-1.25,3.231,0.752,4.474c2.002,1.247,4.22,2.461,4.507,4.169c0.063,0.377-0.312,0.186-0.44-0.123
	c-0.125-0.31-1.815-2.427-4.19-2.861c-2.381-0.438-2.691-1.927-5.383-1.927s-3.755-1.494-4.382-1.494
	c-0.623,0-1.063-0.434,0.254-0.434c1.313,0,1.25-0.128,0.685-0.562c-0.561-0.433-3.127-2.983-3.63-2.922
	c-0.498,0.063-1.125,2.675-0.939,4.664c-1.25-1.928-4.076-6.249-5.943-6.097c-0.752,0.062-0.752,2.303-0.565,3.483
	c-0.752-0.499-1.628-1.432-1.628,0.624c0,2.051,1.69,0.681,1.379,6.092c-0.814-1.928-1.001-2.299-3.132-2.799
	c-2.126-0.494-2.941-0.618-3.755-1.365c-0.814-0.748-1.628-1.805-3.506,0.623c-1.877,2.423-2.625,3.108-0.56,3.046
	c2.064-0.062-0.312,1.618-1.628,2.798c-0.824,0.738-1.231,2.095,0.752,0.124c0.876-0.871,1.375,0.247,2.567-0.623
	c1.188-0.871,1.437-0.681,2.064-0.743c-0.876,2.052-4.445,4.788-4.133,5.283c0.316,0.499,4.693-1.989,6.384-3.355
	c2.38-0.375,8.951-2.927,11.207-3.982c1.313,0.375,2.629,0.562,3.314,0.87c0.689,0.314,1.939,1.994,6.01,0.499
	c1.69,0.872,1.939,1.366,5.57,2.923c-1.939-0.123-4.258-0.995-5.633-1.989c-1.379,1.365-1.125,2.546,1.753,5.597
	c-2.816-1.057-3.381-2.675-4.444-3.793c-1.063-1.118-2.179-0.618-3.319-1.989c-0.876-1.062-2.629-1.247-3.443-1.247
	c-0.81,0-4.315,2.675-4.942,3.731c2.629-0.248,3.692-0.866,4.88-0.81c-1.939,1.433-4.444,3.422-5.881,3.983
	c-1.442,0.558-3.942,2.923-4.382,4.041c1.877,0.063,3.755,0.376,3.63,1.123c-0.125,0.742-1.815,1.552-3.63,1.737
	c-0.254,0.028-0.594,0.172-0.738-0.005c-0.407-0.49-0.187-1.29-0.694-1.741c-0.167-0.148-0.364,0.095-0.517,0.194
	c-0.297,0.19,0.034,0.557-0.024,0.757c-0.086,0.291-0.474,0.542-0.819,0.604c-0.259,0.043-0.393-0.285-0.546-0.485
	c-0.172-0.225-0.163,0.352-0.445,0.309c-0.225-0.033-0.331-0.28-0.426-0.48c-0.038-0.081,0.144-0.232-0.019-0.28
	c-0.426-0.129-0.46,0.424-0.532,0.718c-0.057,0.233-0.546,0.105-0.551,0.382c-0.004,0.304,0.527,0.057,0.498,0.371
	c-0.009,0.109-0.229,0.119-0.258,0.195c-0.101,0.299-0.235,0.585-0.479,0.79c-0.225,0.194-0.551,0.118-0.814,0.065
	c-0.129-0.028-0.11,0.314-0.206,0.41c-0.273,0.271-0.67,0.438-0.814,0.794c-0.043,0.101-0.053,0.281-0.115,0.334
	c-0.393,0.323-0.57,0.767-0.853,1.146c0.469-2.708,1.595-2.831,2.596-4.45c1.001-1.617,2.639-3.74,1.94-4.849
	c-0.939-1.495-5.508,1.742-5.949,0.495c-0.436-1.242,0.192-0.495,0.565-0.248c0.374,0.248,0.565-0.686-0.374-0.747
	c-0.939-0.062-1.787,0.747-2.036,1.681"/>
<path fill="#D00D2D" d="M89.426,103.135c0.172,0,0.312-0.101,0.312-0.22c0-0.124-0.139-0.223-0.312-0.223s-0.311,0.099-0.311,0.223
	C89.115,103.034,89.253,103.135,89.426,103.135"/>
<path fill="#D00D2D" d="M90.585,101.83c0.167,0,0.306-0.057,0.306-0.128c0-0.077-0.139-0.134-0.306-0.134
	c-0.172,0-0.312,0.057-0.312,0.134C90.273,101.773,90.413,101.83,90.585,101.83"/>
<path fill="#D00D2D" d="M92.021,100.684c0.22,0,0.397-0.063,0.397-0.134s-0.177-0.133-0.397-0.133s-0.397,0.062-0.397,0.133
	S91.801,100.684,92.021,100.684"/>
<path fill="#D00D2D" d="M93.271,99.846c0.077,0,0.134-0.156,0.134-0.352c0-0.196-0.058-0.353-0.134-0.353
	c-0.072,0-0.129,0.156-0.129,0.353C93.142,99.689,93.2,99.846,93.271,99.846"/>
<path fill="#D00D2D" d="M93.085,98.395c0.125,0,0.225-0.081,0.225-0.177c0-0.095-0.101-0.176-0.225-0.176
	c-0.12,0-0.22,0.081-0.22,0.176C92.865,98.313,92.965,98.395,93.085,98.395"/>
<path fill="#D00D2D" d="M91.332,97.729c0.125,0,0.225-0.058,0.225-0.134c0-0.071-0.101-0.134-0.225-0.134
	c-0.12,0-0.22,0.063-0.22,0.134C91.112,97.671,91.212,97.729,91.332,97.729"/>
<path fill="#D00D2D" d="M89.33,98.703c0.125,0,0.22-0.076,0.22-0.175c0-0.096-0.096-0.177-0.22-0.177c-0.12,0-0.22,0.081-0.22,0.177
	C89.11,98.627,89.21,98.703,89.33,98.703"/>
<path fill="#D00D2D" d="M90.489,96.29c0.148,0,0.263-0.094,0.263-0.218c0-0.119-0.115-0.22-0.263-0.22s-0.269,0.101-0.269,0.22
	C90.221,96.196,90.341,96.29,90.489,96.29"/>
<path fill="#D00D2D" d="M94.713,99.108c0.172,0,0.311-0.076,0.311-0.176c0-0.096-0.139-0.177-0.311-0.177s-0.312,0.081-0.312,0.177
	C94.402,99.032,94.541,99.108,94.713,99.108"/>
<path fill="#D00D2D" d="M94.934,100.132c0.144,0,0.263-0.119,0.263-0.268c0-0.142-0.12-0.261-0.263-0.261
	c-0.148,0-0.268,0.119-0.268,0.261C94.666,100.013,94.785,100.132,94.934,100.132"/>
<path fill="#D00D2D" d="M93.679,100.583c0.148,0,0.268-0.1,0.268-0.218c0-0.124-0.12-0.22-0.268-0.22
	c-0.144,0-0.263,0.096-0.263,0.22C93.416,100.483,93.535,100.583,93.679,100.583"/>
<path fill="#D00D2D" d="M92.462,101.611c0.167,0,0.306-0.1,0.306-0.224c0-0.119-0.139-0.219-0.306-0.219
	c-0.172,0-0.312,0.1-0.312,0.219C92.151,101.512,92.29,101.611,92.462,101.611"/>
<path fill="#D00D2D" d="M95.963,99.932c0.125,0,0.225-0.101,0.225-0.219c0-0.124-0.101-0.224-0.225-0.224
	c-0.12,0-0.221,0.1-0.221,0.224C95.743,99.831,95.843,99.932,95.963,99.932"/>
<path fill="#D00D2D" d="M96.969,99.384c0.144,0,0.264-0.119,0.264-0.261c0-0.147-0.12-0.268-0.264-0.268
	c-0.148,0-0.268,0.12-0.268,0.268C96.701,99.265,96.82,99.384,96.969,99.384"/>
<path fill="#D00D2D" d="M96.217,98.409c0.172,0,0.306-0.101,0.306-0.225c0-0.119-0.134-0.218-0.306-0.218
	c-0.173,0-0.312,0.099-0.312,0.218C95.906,98.309,96.044,98.409,96.217,98.409"/>
<path fill="#D00D2D" d="M95.839,96.748c0.072,0,0.134-0.081,0.134-0.177c0-0.1-0.062-0.176-0.134-0.176s-0.134,0.076-0.134,0.176
	C95.705,96.667,95.767,96.748,95.839,96.748"/>
<path fill="#D00D2D" d="M94.34,97.976c0.096,0,0.177-0.057,0.177-0.128c0-0.076-0.082-0.134-0.177-0.134
	c-0.101,0-0.177,0.058-0.177,0.134C94.163,97.919,94.239,97.976,94.34,97.976"/>
<path fill="#D00D2D" d="M97.342,97.367c0.096,0,0.177-0.077,0.177-0.177c0-0.096-0.081-0.177-0.177-0.177
	c-0.096,0-0.177,0.081-0.177,0.177C97.166,97.29,97.247,97.367,97.342,97.367"/>
<path fill="#D00D2D" d="M97.716,98.271c0.101,0,0.177-0.081,0.177-0.177c0-0.099-0.076-0.175-0.177-0.175
	c-0.096,0-0.177,0.076-0.177,0.175C97.539,98.189,97.62,98.271,97.716,98.271"/>
<path fill="#D00D2D" d="M98.061,99.185c0.077,0,0.134-0.1,0.134-0.219c0-0.124-0.057-0.22-0.134-0.22
	c-0.072,0-0.129,0.096-0.129,0.22C97.932,99.085,97.989,99.185,98.061,99.185"/>
<path fill="#D00D2D" d="M101.318,96.558c0.12,0,0.22-0.076,0.22-0.177c0-0.096-0.101-0.176-0.22-0.176
	c-0.125,0-0.221,0.08-0.221,0.176C101.097,96.481,101.193,96.558,101.318,96.558"/>
<path fill="#D00D2D" d="M100.379,97.162c0.12,0,0.22-0.096,0.22-0.22c0-0.118-0.101-0.218-0.22-0.218c-0.125,0-0.22,0.1-0.22,0.218
	C100.159,97.066,100.254,97.162,100.379,97.162"/>
<path fill="#D00D2D" d="M99.972,97.989c0.12,0,0.22-0.08,0.22-0.176c0-0.095-0.101-0.176-0.22-0.176c-0.125,0-0.22,0.081-0.22,0.176
	C99.751,97.909,99.847,97.989,99.972,97.989"/>
<path fill="#D00D2D" d="M99.91,96.205c0.096,0,0.177-0.062,0.177-0.133s-0.082-0.134-0.177-0.134c-0.101,0-0.177,0.063-0.177,0.134
	S99.809,96.205,99.91,96.205"/>
<path fill="#D00D2D" d="M101.816,95.377c0.125,0,0.22-0.076,0.22-0.176c0-0.096-0.096-0.176-0.22-0.176
	c-0.12,0-0.221,0.08-0.221,0.176C101.595,95.301,101.696,95.377,101.816,95.377"/>
<path fill="#D00D2D" d="M102.946,96.914c0.12,0,0.221-0.1,0.221-0.219c0-0.124-0.101-0.219-0.221-0.219
	c-0.125,0-0.225,0.095-0.225,0.219C102.721,96.814,102.821,96.914,102.946,96.914"/>
<path fill="#D00D2D" d="M102.347,97.367c0.101,0,0.177-0.077,0.177-0.177c0-0.096-0.077-0.177-0.177-0.177
	c-0.096,0-0.177,0.081-0.177,0.177C102.17,97.29,102.251,97.367,102.347,97.367"/>
<path fill="#D00D2D" d="M101.346,97.694c0.101,0,0.177-0.057,0.177-0.128c0-0.076-0.077-0.134-0.177-0.134
	c-0.096,0-0.177,0.058-0.177,0.134C101.169,97.638,101.25,97.694,101.346,97.694"/>
<path fill="#D00D2D" d="M100.594,98.237c0.101,0,0.177-0.076,0.177-0.177c0-0.094-0.077-0.175-0.177-0.175
	c-0.096,0-0.172,0.081-0.172,0.175C100.422,98.161,100.499,98.237,100.594,98.237"/>
<path fill="#D00D2D" d="M100.379,94.259c0.096,0,0.177-0.081,0.177-0.177c0-0.1-0.082-0.176-0.177-0.176
	c-0.101,0-0.177,0.076-0.177,0.176C100.202,94.178,100.278,94.259,100.379,94.259"/>
<path fill="#D00D2D" d="M102.85,93.635c0.12,0,0.22-0.076,0.22-0.176c0-0.096-0.101-0.176-0.22-0.176c-0.125,0-0.22,0.08-0.22,0.176
	C102.63,93.559,102.726,93.635,102.85,93.635"/>
<path fill="#D00D2D" d="M103.631,95.639c0.101,0,0.177-0.1,0.177-0.219c0-0.124-0.077-0.219-0.177-0.219
	c-0.096,0-0.177,0.095-0.177,0.219C103.454,95.539,103.535,95.639,103.631,95.639"/>
<path fill="#D00D2D" d="M104.666,96.791c0.125,0,0.22-0.101,0.22-0.22c0-0.124-0.096-0.219-0.22-0.219s-0.221,0.095-0.221,0.219
	C104.445,96.69,104.541,96.791,104.666,96.791"/>
<path fill="#D00D2D" d="M106.011,97.114c0.148,0,0.263-0.119,0.263-0.267c0-0.143-0.115-0.262-0.263-0.262s-0.269,0.119-0.269,0.262
	C105.743,96.995,105.863,97.114,106.011,97.114"/>
<path fill="#D00D2D" d="M106.667,96.201c0.148,0,0.268-0.101,0.268-0.225c0-0.119-0.12-0.219-0.268-0.219
	c-0.144,0-0.264,0.1-0.264,0.219C106.404,96.101,106.523,96.201,106.667,96.201"/>
<path fill="#D00D2D" d="M105.604,95.672c0.096,0,0.177-0.1,0.177-0.219c0-0.124-0.082-0.224-0.177-0.224s-0.177,0.1-0.177,0.224
	C105.427,95.572,105.508,95.672,105.604,95.672"/>
<path fill="#D00D2D" d="M107.357,93.759c0.096,0,0.177-0.076,0.177-0.171c0-0.101-0.082-0.182-0.177-0.182
	c-0.101,0-0.177,0.081-0.177,0.182C107.18,93.683,107.256,93.759,107.357,93.759"/>
<path fill="#D00D2D" d="M108.358,95.534c0.072,0,0.134-0.081,0.134-0.176c0-0.101-0.063-0.177-0.134-0.177s-0.134,0.076-0.134,0.177
	C108.224,95.453,108.286,95.534,108.358,95.534"/>
<path fill="#D00D2D" d="M107.481,96.957c0.148,0,0.268-0.119,0.268-0.262c0-0.147-0.12-0.267-0.268-0.267s-0.268,0.119-0.268,0.267
	C107.213,96.838,107.333,96.957,107.481,96.957"/>
<path fill="#D00D2D" d="M109.986,95.953c0.12,0,0.22-0.101,0.22-0.225c0-0.118-0.101-0.218-0.22-0.218
	c-0.125,0-0.225,0.1-0.225,0.218C109.761,95.853,109.862,95.953,109.986,95.953"/>
<path fill="#D00D2D" d="M109.359,94.849c0.096,0,0.177-0.076,0.177-0.176c0-0.096-0.082-0.177-0.177-0.177s-0.177,0.081-0.177,0.177
	C109.182,94.772,109.263,94.849,109.359,94.849"/>
<path fill="#D00D2D" d="M109.11,96.7c0.12,0,0.22-0.057,0.22-0.129c0-0.076-0.101-0.133-0.22-0.133
	c-0.125,0-0.225,0.057-0.225,0.133C108.885,96.644,108.985,96.7,109.11,96.7"/>
<path fill="#D00D2D" d="M109.455,97.881c0.144,0,0.264-0.101,0.264-0.225c0-0.119-0.12-0.219-0.264-0.219
	c-0.148,0-0.268,0.1-0.268,0.219C109.187,97.78,109.306,97.881,109.455,97.881"/>
<path fill="#D00D2D" d="M110.393,98.813c0.144,0,0.264-0.101,0.264-0.224c0-0.119-0.12-0.219-0.264-0.219
	c-0.148,0-0.268,0.1-0.268,0.219C110.125,98.713,110.245,98.813,110.393,98.813"/>
<path fill="#D00D2D" d="M110.829,98.156c0.101,0,0.177-0.096,0.177-0.219c0-0.119-0.077-0.219-0.177-0.219
	c-0.096,0-0.177,0.1-0.177,0.219C110.652,98.061,110.733,98.156,110.829,98.156"/>
<path fill="#D00D2D" d="M110.36,97.286c0.101,0,0.177-0.096,0.177-0.22c0-0.119-0.077-0.219-0.177-0.219
	c-0.096,0-0.177,0.1-0.177,0.219C110.183,97.19,110.264,97.286,110.36,97.286"/>
<path fill="#D00D2D" d="M111.361,97.119c0.077,0,0.134-0.081,0.134-0.177c0-0.095-0.057-0.175-0.134-0.175
	c-0.072,0-0.129,0.08-0.129,0.175C111.231,97.038,111.289,97.119,111.361,97.119"/>
<path fill="#D00D2D" d="M111.864,96.029c0.096,0,0.177-0.076,0.177-0.177c0-0.095-0.082-0.176-0.177-0.176
	c-0.101,0-0.177,0.081-0.177,0.176C111.687,95.953,111.763,96.029,111.864,96.029"/>
<path fill="#D00D2D" d="M113.645,96.695c0.077,0,0.135-0.1,0.135-0.219s-0.058-0.22-0.135-0.22c-0.071,0-0.129,0.101-0.129,0.22
	S113.574,96.695,113.645,96.695"/>
<path fill="#D00D2D" d="M113.209,97.661c0.096,0,0.177-0.1,0.177-0.219c0-0.123-0.082-0.219-0.177-0.219
	c-0.101,0-0.177,0.096-0.177,0.219C113.032,97.562,113.109,97.661,113.209,97.661"/>
<path fill="#D00D2D" d="M112.237,97.628c0.148,0,0.268-0.096,0.268-0.218c0-0.12-0.12-0.22-0.268-0.22
	c-0.144,0-0.264,0.1-0.264,0.22C111.974,97.532,112.093,97.628,112.237,97.628"/>
<path fill="#D00D2D" d="M111.768,98.698c0.148,0,0.268-0.118,0.268-0.261c0-0.147-0.12-0.267-0.268-0.267
	c-0.144,0-0.264,0.119-0.264,0.267C111.504,98.58,111.624,98.698,111.768,98.698"/>
<path fill="#D00D2D" d="M112.769,98.575c0.124,0,0.22-0.119,0.22-0.262c0-0.147-0.096-0.267-0.22-0.267
	c-0.12,0-0.221,0.119-0.221,0.267C112.548,98.456,112.649,98.575,112.769,98.575"/>
<path fill="#D00D2D" d="M114.618,97.848c0.148,0,0.263-0.101,0.263-0.22c0-0.124-0.114-0.218-0.263-0.218s-0.269,0.094-0.269,0.218
	C114.349,97.747,114.469,97.848,114.618,97.848"/>
<path fill="#D00D2D" d="M115.494,96.276c0.096,0,0.178-0.075,0.178-0.171c0-0.101-0.082-0.177-0.178-0.177
	c-0.101,0-0.177,0.076-0.177,0.177C115.317,96.201,115.393,96.276,115.494,96.276"/>
<path fill="#D00D2D" d="M116.529,97.752c0.119,0,0.22-0.096,0.22-0.22c0-0.119-0.101-0.218-0.22-0.218
	c-0.125,0-0.226,0.099-0.226,0.218C116.303,97.656,116.404,97.752,116.529,97.752"/>
<path fill="#D00D2D" d="M117.337,99.17c0.125,0,0.221-0.075,0.221-0.176c0-0.096-0.096-0.177-0.221-0.177
	c-0.119,0-0.22,0.081-0.22,0.177C117.118,99.095,117.218,99.17,117.337,99.17"/>
<path fill="#D00D2D" d="M115.46,98.918c0.148,0,0.269-0.119,0.269-0.267c0-0.143-0.12-0.262-0.269-0.262
	c-0.144,0-0.264,0.119-0.264,0.262C115.197,98.799,115.317,98.918,115.46,98.918"/>
<path fill="#D00D2D" d="M118.277,94.61c0.172,0,0.311-0.095,0.311-0.218c0-0.119-0.139-0.22-0.311-0.22
	c-0.168,0-0.307,0.101-0.307,0.22C117.97,94.516,118.109,94.61,118.277,94.61"/>
<path fill="#D00D2D" d="M119.623,94.605c0.172,0,0.311-0.138,0.311-0.304c0-0.172-0.139-0.31-0.311-0.31
	c-0.168,0-0.307,0.138-0.307,0.31C119.316,94.468,119.455,94.605,119.623,94.605"/>
<path fill="#D00D2D" d="M120.877,93.383c0.144,0,0.263-0.118,0.263-0.267c0-0.143-0.119-0.262-0.263-0.262
	c-0.148,0-0.269,0.119-0.269,0.262C120.609,93.265,120.729,93.383,120.877,93.383"/>
<path fill="#D00D2D" d="M119.407,92.674c0.168,0,0.307-0.081,0.307-0.176c0-0.101-0.139-0.177-0.307-0.177
	c-0.173,0-0.312,0.076-0.312,0.177C119.095,92.593,119.234,92.674,119.407,92.674"/>
<path fill="#D00D2D" d="M123.066,94.501c0.148,0,0.268-0.118,0.268-0.262c0-0.147-0.119-0.267-0.268-0.267
	c-0.144,0-0.264,0.119-0.264,0.267C122.802,94.383,122.922,94.501,123.066,94.501"/>
<path fill="#D00D2D" d="M121.188,94.987c0.173,0,0.312-0.101,0.312-0.22c0-0.124-0.139-0.224-0.312-0.224
	c-0.172,0-0.311,0.1-0.311,0.224C120.877,94.887,121.016,94.987,121.188,94.987"/>
<path fill="#D00D2D" d="M122.5,95.981c0.148,0,0.269-0.1,0.269-0.219c0-0.124-0.12-0.219-0.269-0.219
	c-0.144,0-0.264,0.095-0.264,0.219C122.237,95.882,122.357,95.981,122.5,95.981"/>
<path fill="#D00D2D" d="M123.315,96.71c0.124,0,0.225-0.119,0.225-0.267c0-0.144-0.101-0.262-0.225-0.262
	c-0.12,0-0.221,0.118-0.221,0.262C123.094,96.591,123.195,96.71,123.315,96.71"/>
<path fill="#D00D2D" d="M122.63,97.413c0.167,0,0.306-0.099,0.306-0.223c0-0.119-0.139-0.22-0.306-0.22
	c-0.173,0-0.312,0.101-0.312,0.22C122.319,97.314,122.458,97.413,122.63,97.413"/>
<path fill="#D00D2D" d="M123.506,98.266c0.12,0,0.221-0.119,0.221-0.267c0-0.143-0.101-0.262-0.221-0.262
	c-0.124,0-0.221,0.119-0.221,0.262C123.286,98.146,123.382,98.266,123.506,98.266"/>
<path fill="#D00D2D" d="M121.567,96.524c0.144,0,0.264-0.119,0.264-0.268c0-0.142-0.12-0.261-0.264-0.261
	c-0.148,0-0.269,0.119-0.269,0.261C121.298,96.405,121.418,96.524,121.567,96.524"/>
<path fill="#D00D2D" d="M120.624,95.981c0.124,0,0.225-0.1,0.225-0.219c0-0.124-0.101-0.219-0.225-0.219
	c-0.12,0-0.221,0.095-0.221,0.219C120.403,95.882,120.503,95.981,120.624,95.981"/>
<path fill="#D00D2D" d="M119.22,99.932c0.119,0,0.22-0.101,0.22-0.219c0-0.124-0.101-0.224-0.22-0.224
	c-0.125,0-0.226,0.1-0.226,0.224C118.995,99.831,119.095,99.932,119.22,99.932"/>
<path fill="#D00D2D" d="M91.49,112.102c0.148,0,0.268-0.115,0.268-0.263s-0.12-0.262-0.268-0.262c-0.149,0-0.264,0.114-0.264,0.262
	S91.341,112.102,91.49,112.102"/>
<path fill="#D00D2D" d="M90.614,112.434c0.12,0,0.22-0.1,0.22-0.224c0-0.118-0.101-0.219-0.22-0.219
	c-0.12,0-0.221,0.101-0.221,0.219C90.393,112.334,90.494,112.434,90.614,112.434"/>
<path fill="#D00D2D" d="M90.551,111.544c0.096,0,0.177-0.119,0.177-0.267c0-0.143-0.082-0.262-0.177-0.262
	c-0.101,0-0.177,0.119-0.177,0.262C90.374,111.425,90.451,111.544,90.551,111.544"/>
<path fill="#D00D2D" d="M91.241,111.425c0.168,0,0.307-0.081,0.307-0.176c0-0.101-0.139-0.177-0.307-0.177
	c-0.172,0-0.311,0.076-0.311,0.177C90.93,111.344,91.068,111.425,91.241,111.425"/>
<path fill="#D00D2D" d="M92.898,110.578c0.196,0,0.354-0.119,0.354-0.262c0-0.147-0.158-0.267-0.354-0.267s-0.354,0.119-0.354,0.267
	C92.543,110.459,92.702,110.578,92.898,110.578"/>
<path fill="#D00D2D" d="M93.271,111.625c0.172,0,0.312-0.1,0.312-0.224c0-0.119-0.139-0.22-0.312-0.22
	c-0.167,0-0.306,0.101-0.306,0.22C92.965,111.525,93.104,111.625,93.271,111.625"/>
<path fill="#D00D2D" d="M92.333,111.187c0.125,0,0.225-0.1,0.225-0.218c0-0.124-0.101-0.22-0.225-0.22c-0.12,0-0.22,0.096-0.22,0.22
	C92.113,111.087,92.213,111.187,92.333,111.187"/>
<path fill="#D00D2D" d="M89.958,111.14c0.144,0,0.263-0.119,0.263-0.262c0-0.147-0.12-0.267-0.263-0.267
	c-0.148,0-0.264,0.119-0.264,0.267C89.694,111.021,89.809,111.14,89.958,111.14"/>
<path fill="#D00D2D" d="M89.675,111.872c0.125,0,0.22-0.1,0.22-0.219c0-0.123-0.096-0.219-0.22-0.219s-0.22,0.096-0.22,0.219
	C89.455,111.772,89.55,111.872,89.675,111.872"/>
<path fill="#D00D2D" d="M89.833,112.914c0.072,0,0.129-0.076,0.129-0.175c0-0.096-0.058-0.172-0.129-0.172
	c-0.077,0-0.134,0.076-0.134,0.172C89.699,112.838,89.756,112.914,89.833,112.914"/>
<path fill="#D00D2D" d="M89.019,113.225c0.12,0,0.221-0.119,0.221-0.268c0-0.143-0.101-0.261-0.221-0.261
	c-0.125,0-0.22,0.118-0.22,0.261C88.798,113.105,88.894,113.225,89.019,113.225"/>
<path fill="#D00D2D" d="M88.233,113.404c0.148,0,0.268-0.156,0.268-0.352s-0.12-0.352-0.268-0.352c-0.144,0-0.264,0.156-0.264,0.352
	S88.09,113.404,88.233,113.404"/>
<path fill="#D00D2D" d="M87.826,113.91c0.125,0,0.225-0.077,0.225-0.172c0-0.101-0.101-0.177-0.225-0.177
	c-0.12,0-0.22,0.076-0.22,0.177C87.606,113.833,87.707,113.91,87.826,113.91"/>
<path fill="#D00D2D" d="M87.079,114.467c0.191,0,0.35-0.119,0.35-0.263c0-0.147-0.158-0.267-0.35-0.267
	c-0.196,0-0.354,0.119-0.354,0.267C86.725,114.348,86.883,114.467,87.079,114.467"/>
<path fill="#D00D2D" d="M87.611,114.732c0.096,0,0.177-0.1,0.177-0.219c0-0.123-0.082-0.219-0.177-0.219
	c-0.101,0-0.177,0.096-0.177,0.219C87.434,114.633,87.51,114.732,87.611,114.732"/>
<path fill="#D00D2D" d="M86.452,115.433c0.12,0,0.22-0.119,0.22-0.268c0-0.146-0.101-0.261-0.22-0.261
	c-0.125,0-0.22,0.114-0.22,0.261C86.231,115.313,86.327,115.433,86.452,115.433"/>
<path fill="#D00D2D" d="M85.7,116.146c0.172,0,0.312-0.119,0.312-0.263c0-0.147-0.139-0.266-0.312-0.266s-0.311,0.118-0.311,0.266
	C85.389,116.027,85.527,116.146,85.7,116.146"/>
<path fill="#D00D2D" d="M89.862,112.357c0.101,0,0.177-0.081,0.177-0.176s-0.077-0.176-0.177-0.176
	c-0.096,0-0.177,0.081-0.177,0.176S89.766,112.357,89.862,112.357"/>
<path fill="#D00D2D" d="M92.367,111.61c0.12,0,0.22-0.075,0.22-0.176c0-0.095-0.101-0.176-0.22-0.176
	c-0.12,0-0.221,0.081-0.221,0.176C92.146,111.535,92.247,111.61,92.367,111.61"/>
<path fill="#D00D2D" d="M91.993,112.248c0.12,0,0.221-0.1,0.221-0.223c0-0.119-0.101-0.22-0.221-0.22
	c-0.125,0-0.225,0.101-0.225,0.22C91.768,112.148,91.868,112.248,91.993,112.248"/>
<path fill="#D00D2D" d="M92.836,110.987c0.096,0,0.177-0.076,0.177-0.176c0-0.096-0.082-0.177-0.177-0.177s-0.177,0.081-0.177,0.177
	C92.659,110.911,92.74,110.987,92.836,110.987"/>
<path d="M50.604,125.513l0.8-1.233c0,0,1.901,1.219,2.371,1.519c1.164,0.747,2.031,0.028,2.548-0.771
	c0.517-0.8,0.436-0.667,0.651-1.005c0.551-0.847,0.757-1.557-0.512-2.37l-2.371-1.518l0.9-1.386c0,0,2.524,1.614,3.094,1.98
	c0.57,0.366,2.203,2.141,0.651,4.535c-0.134,0.205-0.35,0.537-0.651,1c-0.833,1.289-2.812,2.246-4.387,1.231"/>
<path d="M54.402,118.402c0,0-3.487,4.007-3.779,4.345c-0.704,0.809-2.371,1.228-3.664,0.119c-1.006-0.861-0.876-0.752-1.341-1.152
	c-1.015-0.87-1.484-2.66-0.493-3.802c0.9-1.032,3.721-4.279,3.721-4.279l1.466,1.257l-2.189,2.514l2.366,2.031l-0.967,1.113
	l-2.352-2.021c0,0-0.464,0.532-0.584,0.671c-0.364,0.414-0.374,0.804,0.038,1.156c0.383,0.328,1.068,0.918,1.427,1.229
	c0.364,0.309,0.905,0.137,1.183-0.187c0.282-0.324,3.702-4.25,3.702-4.25"/>
<path d="M43.698,109.858c1.221,1.405,1.451,1.672,1.767,2.028c0.422,0.485,0.321,1.385-0.153,1.794
	c-0.326,0.28-4.033,3.47-4.033,3.47l1.264,1.457c0,0,3.903-3.356,4.239-3.646c0.819-0.704,1.235-2.36,0.12-3.646
	c-0.867-0.994-0.8-0.919-2.098-2.408"/>
<path d="M43.468,106.932c-2.514,1.795-6.614,4.707-6.614,4.707l1.13,1.566c0,0,4.085-2.907,6.614-4.707"/>
<path d="M34.047,104.448c0.987,1.58,1.547,2.475,1.801,2.88c0.34,0.547,1.236,0.718,1.767,0.39c0.369-0.225,4.531-2.794,4.531-2.794
	l1.025,1.638c0,0-4.387,2.697-4.765,2.936c-0.915,0.562-2.634,0.467-3.535-0.975c-0.699-1.118-1.02-1.629-2.064-3.309"/>
<path d="M38.008,107.627c-1.298-2.084-1.485-2.38-2.534-4.06l1.245-0.767c0.987,1.581,1.676,2.694,2.534,4.055"/>
<path d="M31.998,99.489c0.503,1.318,0.905,1.694,3.123,0.866c2.275-0.857,2.217-1.528,1.772-2.699
	c-0.45-1.175-0.848-1.723-3.123-0.865C31.547,97.618,31.5,98.171,31.998,99.489 M35.805,102.282
	c-3.156,1.186-4.42,0.182-5.331-2.222c-0.915-2.409-0.632-3.983,2.524-5.169c3.185-1.194,4.55,0.161,5.331,2.223
	C39.11,99.179,38.99,101.088,35.805,102.282z"/>
<path d="M27.86,89c0.397,1.932,0.761,3.716,1.025,5.006c0.44-0.09,7.931-1.604,7.931-1.604l-0.388-1.89c0,0-7.146,1.447-6.499,1.318
	c-0.096-0.466-0.096-0.476-0.469-2.298c-0.096-0.462,0.34-0.962,0.747-1.047c0.407-0.081,1.044,0.156,1.154,0.693l0.402,1.952
	l1.447-0.295c0,0-0.259-1.271-0.335-1.647c-0.077-0.375,0.139-1.065,0.934-1.228l2.03-0.409l-0.388-1.885
	c0,0-1.461,0.296-1.676,0.338c-0.962,0.196-1.901,0.686-1.69,1.719c-0.182-0.9-1.193-1.366-2.399-1.123
	C29.172,86.706,27.529,87.386,27.86,89"/>
<path d="M29.651,83.316l-0.005-0.104l0.455-0.143l5.139-3.275l-0.091-2.17l-8.127,0.333l0.082,1.928l5.331-0.219l0.004,0.104
	l-0.445,0.143l-4.765,2.965l0.101,2.461c0.445-0.019,8.08-0.328,8.08-0.328l-0.082-1.928"/>
<path d="M35.532,74.918c-3.08-0.272-8.099-0.715-8.099-0.715l-0.172,1.919c0,0,5.004,0.438,8.103,0.708"/>
<path d="M35.484,74.67c0,0-5.24-0.98-5.675-1.062c-1.063-0.195-2.266-1.418-1.949-3.089c0.244-1.295,0.215-1.128,0.33-1.728
	c0.245-1.309,1.566-2.613,3.056-2.337c1.355,0.253,5.594,1.047,5.594,1.047l-0.354,1.885L33.2,68.778l-0.58,3.051l-1.451-0.272
	l0.575-3.036c0,0-0.699-0.133-0.881-0.166c-0.541-0.1-0.886,0.086-0.986,0.619c-0.091,0.489-0.259,1.374-0.345,1.842
	c-0.091,0.466,0.326,0.847,0.752,0.923c0.421,0.081,5.56,1.042,5.56,1.042"/>
<path d="M45.93,50.265c0,0-3.879-3.636-4.2-3.94c-0.786-0.733-1.135-2.408,0.038-3.642c0.91-0.961,0.795-0.837,1.217-1.28
	c0.919-0.971,2.739-1.355,3.841-0.323c1.001,0.938,4.143,3.884,4.143,3.884l-1.327,1.395l-2.433-2.279l-2.146,2.26l-1.078-1.008
	l2.136-2.247c0,0-0.512-0.485-0.646-0.613c-0.407-0.377-0.795-0.4-1.168-0.005c-0.345,0.361-0.968,1.019-1.293,1.36
	c-0.331,0.348-0.182,0.891,0.129,1.181c0.316,0.295,4.114,3.859,4.114,3.859"/>
<path d="M34.282,56.366c0.249-0.495,1.753-3.45,1.753-3.45l-1.322-0.662l-2.006,3.945c-0.752,1.476,0.014,2.761,0.924,3.218
	c0.958,0.48,2.543,0.686,3.329-0.857c0,0,0.862-1.694,1.168-2.294c0.244-0.48,0.728-0.547,1.083-0.366
	c0.359,0.182,0.575,0.566,0.321,1.071l-2.06,4.04l1.485,0.747c0,0,1.939-3.813,2.246-4.412c0.498-0.984,0.038-2.313-1.336-3.003
	c-1.513-0.761-2.562-0.123-3.256,1.242l-0.805,1.581c-0.335,0.661-0.767,0.89-1.341,0.6C33.885,57.475,34.042,56.837,34.282,56.366"
	/>
<path d="M44.479,52.297c-2.539-1.766-6.667-4.636-6.667-4.636l-1.111,1.58c0,0,4.119,2.86,6.667,4.631"/>
<polyline points="40.58,46.295 39.368,45.453 35.168,51.421 36.38,52.264 "/>
<path d="M54.464,42.288c-1.901-2.427-5-6.377-5-6.377l-1.527,1.186c0,0,3.089,3.936,5,6.372"/>
<polyline points="52.515,35.412 51.605,34.25 45.824,38.733 46.729,39.89 "/>
<path d="M57.534,30.928l0.747,1.267c0,0-1.949,1.142-2.428,1.418c-1.197,0.699-0.939,1.795-0.455,2.612
	c0.484,0.819,0.402,0.686,0.608,1.028c0.517,0.871,1.058,1.371,2.361,0.609l2.428-1.418l0.843,1.422c0,0-2.586,1.515-3.171,1.852
	c-0.584,0.344-2.917,0.995-4.368-1.455c-0.125-0.215-0.326-0.558-0.608-1.029c-0.78-1.317-0.752-3.503,0.867-4.449"/>
<polyline points="59.962,34.854 59.215,33.589 55.058,36.016 55.81,37.281 "/>
<path d="M133.262,62.263l0.033,0.1l-0.402,0.262l-4.047,4.536l0.681,2.064l7.729-2.512l-0.604-1.832l-5.076,1.646l-0.034-0.101
	l0.397-0.257l3.774-4.146l-0.771-2.337c-0.426,0.139-7.687,2.499-7.687,2.499l0.604,1.832"/>
<path d="M136.839,72.399c-0.206-1.395-0.517-1.847-2.863-1.504c-2.409,0.353-2.491,1.023-2.309,2.266
	c0.187,1.241,0.46,1.855,2.868,1.504C136.882,74.322,137.05,73.795,136.839,72.399 M133.717,68.868
	c3.338-0.489,4.358,0.753,4.736,3.293c0.378,2.547-0.234,4.026-3.568,4.518c-3.371,0.499-4.41-1.113-4.736-3.294
	C129.824,71.205,130.35,69.363,133.717,68.868z"/>
<path d="M138.775,82.86c-0.01-1.971-0.02-3.793-0.029-5.111c-0.445,0.005-8.089,0.048-8.089,0.048l0.01,1.922
	c0,0,7.294-0.037,6.633-0.032c0.005,0.471,0.005,0.485,0.015,2.342c0,0.471-0.522,0.88-0.938,0.88
	c-0.417,0.005-0.996-0.353-0.996-0.904l-0.015-1.989l-1.48,0.009c0,0,0.01,1.3,0.01,1.686c0.005,0.38-0.345,1.018-1.154,1.022
	l-2.073,0.01l0.015,1.923c0,0,1.494-0.01,1.704-0.01c0.987-0.005,2.002-0.304,1.997-1.356c0.005,0.914,0.9,1.571,2.137,1.562
	C137.041,84.859,138.784,84.502,138.775,82.86"/>
<path d="M131.887,107.118c0.867-1.775,1.667-3.412,2.246-4.593c-0.401-0.195-7.274-3.517-7.274-3.517l-0.848,1.732
	c0,0,6.562,3.169,5.963,2.879c-0.206,0.428-0.211,0.438-1.03,2.107c-0.206,0.425-0.857,0.562-1.235,0.382
	c-0.374-0.187-0.732-0.757-0.493-1.252l0.881-1.789l-1.331-0.643c0,0-0.575,1.17-0.742,1.513c-0.168,0.343-0.767,0.762-1.494,0.41
	l-1.863-0.9l-0.843,1.728c0,0,1.341,0.652,1.537,0.743c0.886,0.428,1.925,0.608,2.39-0.343c-0.402,0.828,0.11,1.809,1.222,2.342
	C129.44,108.146,131.165,108.599,131.887,107.118"/>
<path d="M122.266,107.256c2.581,1.704,6.771,4.479,6.771,4.479l1.078-1.604c0,0-4.186-2.765-6.772-4.479"/>
<path d="M129.857,89.304c3.051,0.523,8.018,1.366,8.018,1.366l0.325-1.894c0,0-4.952-0.847-8.017-1.366"/>
<polyline points="135.958,93.083 137.415,93.33 138.655,86.154 137.199,85.901 "/>
<path d="M127.251,98.375c2.955,0.923,7.759,2.423,7.759,2.423l0.513-1.619c0,0-4.785-1.488-7.759-2.421"/>
<polyline points="130.83,98.294 132.242,98.732 133.511,94.721 132.103,94.277 "/>
<path d="M128.732,93.702c2.949,0.923,7.758,2.423,7.758,2.423l0.513-1.614c0,0-4.784-1.494-7.764-2.423"/>
<path d="M109.862,129.034l-0.776-1.252c0,0,1.93-1.176,2.404-1.466c1.178-0.723,0.905-1.813,0.407-2.622
	c-0.503-0.805-0.421-0.676-0.632-1.014c-0.532-0.861-1.087-1.347-2.371-0.562l-2.404,1.466l-0.872-1.408
	c0,0,2.562-1.566,3.137-1.919c0.58-0.353,2.897-1.046,4.396,1.375c0.129,0.21,0.34,0.553,0.628,1.02
	c0.804,1.303,0.818,3.488-0.781,4.469"/>
<polyline points="107.352,125.155 108.128,126.406 112.237,123.899 111.461,122.647 "/>
<path d="M116.831,124.527l-0.949-1.129c0,0,2.189-1.816,2.615-2.17c1.063-0.885,0.633-1.923,0.024-2.65
	c-0.613-0.729-0.518-0.613-0.771-0.919c-0.651-0.775-1.273-1.176-2.428-0.214l-2.165,1.795l-1.078-1.285
	c0,0,2.303-1.909,2.826-2.342c0.522-0.434,2.726-1.442,4.56,0.747c0.158,0.186,0.412,0.49,0.771,0.914
	c0.987,1.175,1.313,3.336-0.129,4.53"/>
<polyline points="114.239,120.672 115.182,121.795 117.917,119.53 116.969,118.402 "/>
<path d="M111.624,118.335c1.988,2.361,3.18,3.784,3.18,3.784l1.504-1.252c0,0-1.183-1.409-3.175-3.783"/>
<path d="M120.365,109.82l1.149,0.886c0,0-0.646,0.829-0.986,1.262c-0.853,1.09-0.206,2.013,0.546,2.593
	c0.757,0.581,0.574,0.443,0.891,0.686c0.805,0.619,1.858,0.891,2.782-0.294l1.896-2.428l1.159,0.89c0,0-1.844,2.36-2.256,2.889
	c-0.416,0.534-2.352,1.985-4.616,0.238c-0.192-0.147-0.508-0.39-0.948-0.729c-1.217-0.941-1.983-2.965-0.834-4.439"/>
<path d="M128.167,112.952c-2.447-1.89-6.394-4.935-6.394-4.935l-1.207,1.542c0,0,3.937,3.036,6.394,4.931"/>
<path d="M74.689,27.867l0.105-0.014l0.187,0.438l3.784,4.759l2.169-0.305l-1.14-8.005l-1.92,0.271l0.747,5.249l-0.11,0.019
	l-0.182-0.433l-3.443-4.417l-2.452,0.344c0.062,0.438,1.13,7.956,1.13,7.956l1.916-0.271"/>
<path d="M107.922,30.643c-1.82-0.79-3.496-1.519-4.712-2.047c-0.177,0.409-3.238,7.373-3.238,7.373l1.777,0.77
	c0,0,2.921-6.643,2.653-6.043c0.436,0.189,0.445,0.194,2.16,0.938c0.436,0.19,0.599,0.833,0.436,1.209
	c-0.167,0.38-0.732,0.762-1.24,0.542l-1.834-0.795l-0.589,1.347c0,0,1.197,0.519,1.552,0.672c0.354,0.152,0.795,0.732,0.474,1.465
	l-0.829,1.89l1.772,0.767c0,0,0.599-1.361,0.685-1.556c0.393-0.9,0.531-1.942-0.446-2.365c0.848,0.37,1.815-0.182,2.304-1.305
	C109.057,33.027,109.44,31.3,107.922,30.643"/>
<path d="M112.582,35.035c0.46,0.3,3.243,2.133,3.243,2.133l0.813-1.229l-3.711-2.441c-1.384-0.914-2.758-0.31-3.324,0.538
	c-0.589,0.89-0.982,2.432,0.469,3.384c0,0,1.595,1.051,2.16,1.423c0.45,0.295,0.46,0.78,0.239,1.108
	c-0.22,0.333-0.632,0.505-1.106,0.191l-3.803-2.499l-0.92,1.375c0,0,3.587,2.36,4.152,2.732c0.92,0.608,2.304,0.304,3.156-0.972
	c0.934-1.403,0.417-2.513-0.867-3.359l-1.48-0.976c-0.623-0.409-0.8-0.857-0.445-1.395C111.519,34.512,112.137,34.74,112.582,35.035
	"/>
<path d="M114.426,44.635c2.016-2.332,5.297-6.135,5.297-6.135l-1.471-1.252c0,0-3.271,3.788-5.297,6.135"/>
<path d="M83.66,32.889c0.009-3.079,0.029-8.085,0.029-8.085l-1.935-0.005c0,0-0.019,4.987-0.034,8.081"/>
<path d="M117.975,48.032c2.231-2.132,5.856-5.61,5.856-5.61l-1.346-1.386c0,0-3.615,3.465-5.853,5.612"/>
<polyline points="124.651,45.387 125.714,44.363 120.628,39.118 119.56,40.143 "/>
<path d="M71.15,32.923c-1.796,0.522-2.131,0.623-2.591,0.756c-0.618,0.176-1.403-0.285-1.581-0.885
	c-0.12-0.409-1.499-5.083-1.499-5.083l-1.858,0.538c0,0,1.451,4.92,1.576,5.35c0.307,1.027,1.647,2.094,3.291,1.613
	c1.269-0.366,1.168-0.339,3.075-0.896"/>
<path d="M72.994,33.907c-0.872-2.95-2.294-7.753-2.294-7.753l-1.681,0.49c0,0,1.413,4.778,2.29,7.758"/>
<path d="M101.562,27.996l-0.407,1.409c0,0-2.174-0.623-2.711-0.776c-1.331-0.38-1.954,0.558-2.217,1.467
	c-0.268,0.913-0.225,0.766-0.335,1.146c-0.282,0.971-0.273,1.709,1.178,2.123l2.711,0.775l-0.464,1.59c0,0-2.883-0.829-3.535-1.014
	c-0.651-0.187-2.73-1.419-1.935-4.155c0.067-0.238,0.177-0.618,0.331-1.146c0.426-1.471,2.045-2.951,3.851-2.437"/>
<polyline points="100.365,32.451 100.776,31.037 96.145,29.71 95.733,31.118 "/>
<polyline points="89.119,33.246 87.199,33.022 84.943,24.632 86.868,24.851 "/>
<path d="M89.977,26.436c1.834,0.214,2.227,0.318,0.987,2.208l-2.629,4.512l1.92,0.219l2.711-4.654
	c1.532-2.503,1.039-3.056-2.85-3.498"/>
<polyline points="123.602,53.111 122.453,51.563 126.384,44.792 127.534,46.338 "/>
<path d="M123.071,52.14l4.062-0.928c2.236-0.391,2.049-0.747,0.952-2.228l0.992-0.728c2.322,3.126,2.255,3.863-0.633,4.459
	l-5.272,1.208c-1.131,0.225-1.705,0.225-2.361-0.661c-0.661-0.885-2.069-2.784-2.069-2.784l1.14-0.833c0,0,1.021,1.376,1.447,1.942
	C121.931,52.401,122.232,52.302,123.071,52.14"/>
<path d="M124.785,57.375l-0.411-0.737l1.465-0.81l0.848,1.508c0,0-0.914,0.511-1.145,0.639c-0.388,0.214-1.149,0.338-1.767-0.038"/>
<path d="M70.135,125.959l2.577,0.662c0,0-1.255,4.85-2.026,7.829l-1.638-0.42c0.513-1.983,1.236-4.777,1.667-6.434l-0.939-0.242"/>
<path d="M73.013,129.034c-0.235,1.675,0.584,2.451,1.317,2.551c0.58,0.08,3.688,0.505,3.688,0.505
	c-0.134,0.937-0.8,1.927-2.174,1.741c-0.546-0.076-2.787-0.381-2.787-0.381l-0.201,1.457l3.645,0.494
	c1.863,0.258,3.247-1.437,3.458-2.955c0.072-0.547,0.129-0.938,0.163-1.181c0.393-2.821-1.844-3.745-2.514-3.835
	c-0.675-0.096-1.968-0.271-1.968-0.271C74.531,127.006,73.2,127.678,73.013,129.034 M75.949,130.338
	c-0.67-0.09-1.102-0.171-0.996-0.899c0.101-0.729,0.642-0.928,1.14-0.856l0.719,0.095c1.494,0.205,1.542,0.972,1.403,1.971
	L75.949,130.338z"/>
<path d="M92.659,131.442c-0.498,0.1-0.819,0.58-0.714,1.07c0.101,0.495,0.584,0.81,1.078,0.71l1.993-0.4
	c0.493-0.104,0.814-0.581,0.713-1.076c-0.101-0.489-0.584-0.809-1.078-0.709 M95.307,129.99c0.986-0.199,1.973,0.538,2.198,1.647
	c0.23,1.108-0.388,2.17-1.375,2.369l-3.97,0.805c-0.987,0.2-1.973-0.538-2.198-1.646c-0.23-1.108,0.388-2.17,1.375-2.37
	L95.307,129.99z"/>
<path d="M94.364,129.639c0.493-0.101,0.814-0.576,0.713-1.07c-0.101-0.49-0.584-0.81-1.083-0.71l-1.987,0.404
	c-0.498,0.101-0.819,0.581-0.718,1.07c0.101,0.491,0.584,0.81,1.082,0.71 M91.409,131.151c-0.987,0.2-1.968-0.537-2.198-1.646
	c-0.23-1.108,0.388-2.17,1.375-2.37l3.97-0.8c0.991-0.204,1.973,0.534,2.203,1.643c0.225,1.109-0.388,2.17-1.379,2.37
	L91.409,131.151z"/>
<path d="M88.061,127.673H81.48v4.835c0,0,3.3,0,4.128,0c0.666,0,0.833,0.457,0.833,0.733c0,0.275-0.033,0.766-0.771,0.766
	c-0.737,0-4.19,0-4.19,0v1.743c0,0,4.435,0,5.024,0c1.537,0,2.064-1.224,2.064-2.57c0-1.009-0.45-2.28-2.294-2.28
	c-1.849,0-2.821,0-2.821,0v-1.547h4.607"/>
</svg>