<?xml version="1.0" encoding="utf-8"?>
<!-- Generator: Adobe Illustrator 22.1.0, SVG Export Plug-In . SVG Version: 6.00 Build 0)  -->
<svg version="1.1" id="Layer_1" xmlns="http://www.w3.org/2000/svg" xmlns:xlink="http://www.w3.org/1999/xlink" x="0px" y="0px"
	 viewBox="0 0 149.1 148.1" style="enable-background:new 0 0 149.1 148.1;" xml:space="preserve">
<style type="text/css">
	.st0{fill:#FFFFFF;}
	.st1{enable-background:new    ;}
	.st2{fill:#D00D2D;}
	.st3{fill:none;stroke:#FFFFFF;stroke-width:5.100000e-02;stroke-linecap:round;}
	.st4{fill:none;stroke:#D00D2D;stroke-width:5.100000e-02;stroke-linecap:round;}
</style>
<rect x="-148" y="-351.2" class="st0" width="513" height="18"/>
<text transform="matrix(1 0 0 1 117.3367 -343.6448)" style="font-family:'Optima-Regular'; font-size:9px;">O</text>
<text transform="matrix(1 0 0 1 124.8318 -343.6448)" style="font-family:'Optima-Regular'; font-size:9px;">f</text>
<text transform="matrix(1 0 0 1 127.6658 -343.6448)" style="font-family:'Optima-Regular'; font-size:9px;">f</text>
<text transform="matrix(1 0 0 1 130.5007 -343.6448)" style="font-family:'Optima-Regular'; font-size:9px;">i</text>
<text transform="matrix(1 0 0 1 133.0007 -343.6448)" style="font-family:'Optima-Regular'; font-size:9px;">c</text>
<text transform="matrix(1 0 0 1 137.5007 -343.6448)" style="font-family:'Optima-Regular'; font-size:9px;">i</text>
<text transform="matrix(1 0 0 1 140.0017 -343.6448)" style="font-family:'Optima-Regular'; font-size:9px;">a</text>
<text transform="matrix(1 0 0 1 144.5017 -343.6448)" style="font-family:'Optima-Regular'; font-size:9px;">l</text>
<text transform="matrix(1 0 0 1 147.0017 -343.6448)" style="font-family:'Optima-Regular'; font-size:9px;"> </text>
<text transform="matrix(1 0 0 1 149.2556 -343.6448)" style="font-family:'Optima-Regular'; font-size:9px;">W</text>
<text transform="matrix(1 0 0 1 157.5876 -343.6448)" style="font-family:'Optima-Regular'; font-size:9px;">o</text>
<text transform="matrix(1 0 0 1 162.5916 -343.6448)" style="font-family:'Optima-Regular'; font-size:9px;">r</text>
<text transform="matrix(1 0 0 1 165.9285 -343.6448)" style="font-family:'Optima-Regular'; font-size:9px;">d</text>
<text transform="matrix(1 0 0 1 170.9324 -343.6448)" style="font-family:'Optima-Regular'; font-size:9px;"> </text>
<text transform="matrix(1 0 0 1 173.6824 -343.6448)" style="font-family:'Optima-Regular'; font-size:9px;">M</text>
<text transform="matrix(1 0 0 1 181.6824 -343.6448)" style="font-family:'Optima-Regular'; font-size:9px;">a</text>
<text transform="matrix(1 0 0 1 186.1824 -343.6448)" style="font-family:'Optima-Regular'; font-size:9px;">r</text>
<text transform="matrix(1 0 0 1 189.6833 -343.6448)" style="font-family:'Optima-Regular'; font-size:9px;">k</text>
<text transform="matrix(1 0 0 1 194.1833 -343.6448)" style="font-family:'Optima-Regular'; font-size:9px;"> </text>
<text transform="matrix(1 0 0 1 196.9333 -343.6448)" style="font-family:'Optima-Regular'; font-size:9px;">a</text>
<text transform="matrix(1 0 0 1 201.4333 -343.6448)" style="font-family:'Optima-Regular'; font-size:9px;">n</text>
<text transform="matrix(1 0 0 1 206.4363 -343.6448)" style="font-family:'Optima-Regular'; font-size:9px;">d</text>
<text transform="matrix(1 0 0 1 211.4402 -343.6448)" style="font-family:'Optima-Regular'; font-size:9px;"> </text>
<text transform="matrix(1 0 0 1 214.1902 -343.6448)" style="font-family:'Optima-Regular'; font-size:9px;">t</text>
<text transform="matrix(1 0 0 1 217.1853 -343.6448)" style="font-family:'Optima-Regular'; font-size:9px;">h</text>
<text transform="matrix(1 0 0 1 222.1882 -343.6448)" style="font-family:'Optima-Regular'; font-size:9px;">e</text>
<text transform="matrix(1 0 0 1 226.6882 -343.6448)" style="font-family:'Optima-Regular'; font-size:9px;"> </text>
<text transform="matrix(1 0 0 1 229.4392 -343.6448)" style="font-family:'Optima-Regular'; font-size:9px;">O</text>
<text transform="matrix(1 0 0 1 236.9343 -343.6448)" style="font-family:'Optima-Regular'; font-size:9px;">f</text>
<text transform="matrix(1 0 0 1 239.7683 -343.6448)" style="font-family:'Optima-Regular'; font-size:9px;">f</text>
<text transform="matrix(1 0 0 1 242.6033 -343.6448)" style="font-family:'Optima-Regular'; font-size:9px;">i</text>
<text transform="matrix(1 0 0 1 245.1033 -343.6448)" style="font-family:'Optima-Regular'; font-size:9px;">c</text>
<text transform="matrix(1 0 0 1 249.6033 -343.6448)" style="font-family:'Optima-Regular'; font-size:9px;">i</text>
<text transform="matrix(1 0 0 1 252.1042 -343.6448)" style="font-family:'Optima-Regular'; font-size:9px;">a</text>
<text transform="matrix(1 0 0 1 256.6042 -343.6448)" style="font-family:'Optima-Regular'; font-size:9px;">l</text>
<text transform="matrix(1 0 0 1 259.1042 -343.6448)" style="font-family:'Optima-Regular'; font-size:9px;"> </text>
<text transform="matrix(1 0 0 1 261.3582 -343.6448)" style="font-family:'Optima-Regular'; font-size:9px;">W</text>
<text transform="matrix(1 0 0 1 269.6902 -343.6448)" style="font-family:'Optima-Regular'; font-size:9px;">o</text>
<text transform="matrix(1 0 0 1 274.6931 -343.6448)" style="font-family:'Optima-Regular'; font-size:9px;">r</text>
<text transform="matrix(1 0 0 1 278.031 -343.6448)" style="font-family:'Optima-Regular'; font-size:9px;">d</text>
<text transform="matrix(1 0 0 1 283.0339 -343.6448)" style="font-family:'Optima-Regular'; font-size:9px;"> </text>
<text transform="matrix(1 0 0 1 285.7849 -343.6448)" style="font-family:'Optima-Regular'; font-size:9px;">M</text>
<text transform="matrix(1 0 0 1 293.7849 -343.6448)" style="font-family:'Optima-Regular'; font-size:9px;">a</text>
<text transform="matrix(1 0 0 1 298.2849 -343.6448)" style="font-family:'Optima-Regular'; font-size:9px;">r</text>
<text transform="matrix(1 0 0 1 301.7849 -343.6448)" style="font-family:'Optima-Regular'; font-size:9px;">k</text>
<text transform="matrix(1 0 0 1 306.2849 -343.6448)" style="font-family:'Optima-Regular'; font-size:9px;"> </text>
<text transform="matrix(1 0 0 1 309.0359 -343.6448)" style="font-family:'Optima-Regular'; font-size:9px;">w</text>
<text transform="matrix(1 0 0 1 316.0359 -343.6448)" style="font-family:'Optima-Regular'; font-size:9px;">i</text>
<text transform="matrix(1 0 0 1 318.5369 -343.6448)" style="font-family:'Optima-Regular'; font-size:9px;">t</text>
<text transform="matrix(1 0 0 1 321.532 -343.6448)" style="font-family:'Optima-Regular'; font-size:9px;">h</text>
<text transform="matrix(1 0 0 1 326.5349 -343.6448)" style="font-family:'Optima-Regular'; font-size:9px;"> </text>
<text transform="matrix(1 0 0 1 329.2849 -343.6448)" style="font-family:'Optima-Regular'; font-size:9px;">S</text>
<text transform="matrix(1 0 0 1 333.7849 -343.6448)" style="font-family:'Optima-Regular'; font-size:9px;">e</text>
<text transform="matrix(1 0 0 1 338.2849 -343.6448)" style="font-family:'Optima-Regular'; font-size:9px;">a</text>
<text transform="matrix(1 0 0 1 342.7849 -343.6448)" style="font-family:'Optima-Regular'; font-size:9px;">l</text>
<text transform="matrix(1 0 0 1 345.2859 -343.6448)" style="font-family:'Optima-Regular'; font-size:9px;"> </text>
<text transform="matrix(1 0 0 1 348.0359 -343.6448)" style="font-family:'Optima-Regular'; font-size:9px;"> </text>
<text transform="matrix(1 0 0 1 350.7869 -343.6448)" style="font-family:'Optima-Regular'; font-size:9px;"> </text>
<text transform="matrix(1 0 0 1 353.5369 -343.6448)" style="font-family:'Optima-Regular'; font-size:9px;"> </text>
<text transform="matrix(1 0 0 1 356.2878 -343.6448)" style="font-family:'Optima-Regular'; font-size:9px;"> </text>
<text transform="matrix(1 0 0 1 359.0388 -343.6448)" style="font-family:'Optima-Regular'; font-size:9px;">1</text>
<path class="st2" d="M74.5,148.1c41.2,0,74.5-33.2,74.5-74.1C149.1,33.2,115.7,0,74.5,0C33.4,0,0,33.2,0,74.1
	C0,115,33.4,148.1,74.5,148.1"/>
<path class="st0" d="M74.5,144.6c39.2,0,71-31.6,71-70.5c0-39-31.8-70.5-71-70.5c-39.2,0-71,31.6-71,70.5
	C3.5,113,35.3,144.6,74.5,144.6"/>
<path class="st2" d="M74.5,141.3c37.3,0,67.6-30.1,67.6-67.2S111.9,6.9,74.5,6.9C37.2,6.9,6.9,37,6.9,74.1S37.2,141.3,74.5,141.3"/>
<path class="st0" d="M74.5,140.2c36.8,0,66.6-29.6,66.6-66.1S111.3,7.9,74.5,7.9C37.8,7.9,8,37.5,8,74.1S37.8,140.2,74.5,140.2"/>
<path class="st2" d="M92,9.6c-0.9,0.7-1.9,1.4-2.9,2c-10.9,6.8-24.5,5.9-34.3-1.4l-0.1,0c-0.4,1.1-0.8,2.2-1.3,3.2
	c-5.6,11.6-17.6,18-29.7,17L23.2,31c0.3,1.1,0.5,2.3,0.6,3.4c1.6,12.7-5,24.6-15.8,30.3L8,65.4c0.8,0.8,1.6,1.6,2.4,2.5
	c8.3,9.8,9.1,23.4,3.2,33.9l0.2,0.5c1.1,0.2,2.3,0.5,3.4,0.9c12.3,3.9,20.4,14.8,21.1,26.9l1.4,0.9c1.1-0.4,2.2-0.8,3.3-1.2
	c12.4-3.5,25.2,1.1,32.5,10.8l1,0c0.7-1,1.4-1.9,2.1-2.8c8.5-9.7,21.8-12.7,33.2-8.6l0.6-0.3c0-1.2,0.1-2.3,0.3-3.5
	c1.8-12.7,11.4-22.4,23.3-25l0.1-0.1c-0.6-1-1.1-2-1.6-3.1c-5.2-11.7-2.4-25,6.3-33.5l0-0.4c-1-0.5-2-1.1-3-1.8
	C127,54.6,122.3,41.8,124.9,30l-0.8-1c-1.2,0.1-2.3,0.2-3.5,0.2c-12.9-0.1-23.9-8.1-28.2-19.4"/>
<path class="st0" d="M17.1,74.1C17.1,42.5,42.8,17,74.5,17c31.7,0,57.4,25.5,57.4,57.1s-25.7,57.1-57.4,57.1
	C42.8,131.1,17.1,105.6,17.1,74.1"/>
<path class="st2" d="M74.5,120c25.5,0,46.2-20.6,46.2-45.9S100,28.2,74.5,28.2c-25.5,0-46.2,20.6-46.2,45.9S49,120,74.5,120"/>
<path class="st0" d="M74.5,29.4c-24.8,0-45,20-45,44.7h45"/>
<path class="st0" d="M74.5,118.7c24.8,0,45-20,45-44.7h-45"/>
<path class="st0" d="M92.9,63.6c4.7,0,8.6-3.8,8.6-8.5c0-4.7-3.8-8.5-8.6-8.5s-8.6,3.8-8.6,8.5C84.3,59.7,88.2,63.6,92.9,63.6"/>
<path class="st0" d="M92.9,34c0,4.6-0.2,9.5-1.2,11.5c0.9-0.1,1.8-0.1,2.6,0c-1.2-2.2-1.3-10.1-1.3-11.5"/>
<path class="st0" d="M78,40.2c3.3,3.3,6.6,6.9,7.3,9c0.5-0.7,1.2-1.3,1.9-1.8C84.8,46.7,79.1,41.1,78,40.2"/>
<path class="st0" d="M75.3,55c4.6,0,6.1,0.2,8.1,1.2c-0.1-0.9-0.1-1.7,0-2.6c-2.2,1.2-6.7,1.3-8.1,1.3"/>
<path class="st0" d="M78,69.9c3.3-3.3,6.9-6.6,9-7.3c-0.7-0.5-1.3-1.2-1.8-1.9c-0.6,2.4-6.3,8-7.3,9.1"/>
<path class="st0" d="M92.9,72.9c0-4.6,0.2-6.4,1.2-8.4c-0.9,0.1-1.8,0.1-2.6,0c1.3,2.2,1.3,7,1.3,8.4"/>
<path class="st0" d="M107.9,69.9c-3.3-3.3-6.7-6.8-7.4-9c-0.5,0.7-1.2,1.3-1.9,1.8c2.4,0.6,8.1,6.3,9.1,7.3"/>
<path class="st0" d="M114.1,55c-4.6,0-9.6-0.2-11.6-1.2c0.1,0.9,0.1,1.8,0,2.6c2.2-1.2,10.2-1.3,11.6-1.3"/>
<path class="st0" d="M105.8,42.2c-3.3,3.3-4.8,4.6-7,5.3c0.7,0.5,1.3,1.2,1.8,1.9c0.6-2.4,4.3-6,5.3-7"/>
<line class="st3" x1="90.2" y1="44.5" x2="88.9" y2="40"/>
<line class="st3" x1="88.7" y1="39.2" x2="88.2" y2="37.1"/>
<line class="st3" x1="90.2" y1="44.5" x2="88.9" y2="40"/>
<line class="st3" x1="88.7" y1="39.2" x2="88.2" y2="37.1"/>
<line class="st3" x1="87.5" y1="45.6" x2="85.2" y2="41.5"/>
<line class="st3" x1="84.8" y1="40.8" x2="83.7" y2="39"/>
<line class="st3" x1="83.5" y1="49.5" x2="79.4" y2="47.2"/>
<line class="st3" x1="78.7" y1="46.8" x2="76.8" y2="45.7"/>
<line class="st3" x1="83.5" y1="49.5" x2="79.4" y2="47.2"/>
<line class="st3" x1="78.7" y1="46.8" x2="76.8" y2="45.7"/>
<line class="st3" x1="82.4" y1="52.2" x2="77.8" y2="50.9"/>
<line class="st3" x1="77" y1="50.7" x2="74.9" y2="50.2"/>
<line class="st3" x1="82.3" y1="57.8" x2="77.8" y2="59"/>
<line class="st3" x1="77" y1="59.2" x2="74.9" y2="59.8"/>
<line class="st3" x1="82.3" y1="57.8" x2="77.8" y2="59"/>
<line class="st3" x1="77" y1="59.2" x2="74.9" y2="59.8"/>
<line class="st3" x1="83.4" y1="60.4" x2="79.3" y2="62.8"/>
<line class="st3" x1="78.6" y1="63.2" x2="76.8" y2="64.2"/>
<line class="st3" x1="87.4" y1="64.4" x2="85.1" y2="68.5"/>
<line class="st3" x1="84.6" y1="69.2" x2="83.6" y2="71"/>
<line class="st3" x1="87.4" y1="64.4" x2="85.1" y2="68.5"/>
<line class="st3" x1="84.6" y1="69.2" x2="83.6" y2="71"/>
<line class="st3" x1="90" y1="65.5" x2="88.8" y2="70"/>
<line class="st3" x1="88.6" y1="70.8" x2="88" y2="72.9"/>
<line class="st3" x1="95.7" y1="65.6" x2="96.9" y2="70.1"/>
<line class="st3" x1="97.1" y1="70.8" x2="97.7" y2="72.9"/>
<line class="st3" x1="95.7" y1="65.6" x2="96.9" y2="70.1"/>
<line class="st3" x1="97.1" y1="70.8" x2="97.7" y2="72.9"/>
<line class="st3" x1="98.4" y1="64.5" x2="100.7" y2="68.5"/>
<line class="st3" x1="101.1" y1="69.2" x2="102.2" y2="71.1"/>
<line class="st3" x1="102.4" y1="60.5" x2="106.5" y2="62.9"/>
<line class="st3" x1="107.2" y1="63.3" x2="109" y2="64.4"/>
<line class="st3" x1="102.4" y1="60.5" x2="106.5" y2="62.9"/>
<line class="st3" x1="107.2" y1="63.3" x2="109" y2="64.4"/>
<line class="st3" x1="103.5" y1="57.9" x2="108" y2="59.1"/>
<line class="st3" x1="108.8" y1="59.3" x2="110.9" y2="59.9"/>
<line class="st3" x1="103.5" y1="52.3" x2="108.1" y2="51.1"/>
<line class="st3" x1="108.8" y1="50.9" x2="111" y2="50.3"/>
<line class="st3" x1="103.5" y1="52.3" x2="108.1" y2="51.1"/>
<line class="st3" x1="108.8" y1="50.9" x2="111" y2="50.3"/>
<line class="st3" x1="102.4" y1="49.6" x2="106.5" y2="47.3"/>
<line class="st3" x1="107.2" y1="46.9" x2="109.1" y2="45.8"/>
<line class="st3" x1="98.5" y1="45.6" x2="100.8" y2="41.6"/>
<line class="st3" x1="101.2" y1="40.9" x2="102.3" y2="39"/>
<line class="st3" x1="98.5" y1="45.6" x2="100.8" y2="41.6"/>
<line class="st3" x1="101.2" y1="40.9" x2="102.3" y2="39"/>
<line class="st3" x1="95.8" y1="44.5" x2="97" y2="40"/>
<line class="st3" x1="97.3" y1="39.2" x2="97.8" y2="37.2"/>
<path class="st2" d="M42.7,44.1H72v21.5h-3.7v-7.9h-1.1v-1.6h1.1c0-2.2-1.8-4.3-4.1-4.3S60,53.9,60,56.2h1.1v1.6H60v7.9H54v-7.9
	h-1.1v-1.6H54c0-2.2-1.9-4.3-4.2-4.3c-2.3,0-4.2,2.1-4.2,4.3h1.1v1.6h-1.1v7.9h-6.1l0-7.9h-1.1v-1.6h1.1c0-1.8-1.2-3.5-2.9-4.1
	C38,49.5,40.8,46.1,42.7,44.1"/>
<path class="st0" d="M46.3,95.1c-1.5-1.1-2.6-3.2-4.5-2.9c-1.3,0.2-2.6,2.1-1.6,3c2.5,2.2,5.6,4.6,7.9,7.1c-0.6-1-0.5-2.1,0.3-3
	c1.2-1.3,2.3-0.8,2.3-0.8C49.5,97.5,47.7,96.1,46.3,95.1"/>
<path class="st0" d="M52.9,85.2c2.7,2.6,4.8,5.4,7,8.9c4.6-5.6,5.1-7.5,8.8-6.2c-2.9-2-5.6-4.2-8.8-5.9c-0.7-0.3-1.7-0.3-2.4,0
	C55.7,82.7,54.1,83.3,52.9,85.2"/>
<path class="st0" d="M65.3,90.1c0.5-1,1.6-1.7,2.7-1.3c1.4,0.5,0.9,2.1-0.1,2.6c-0.7,0.4-1.6-0.3-1.4-0.9c0.1-0.2,0.3-0.4,0.5-0.3
	c-0.1,0.3,0,0.4,0.1,0.6c0.4,0.4,0.8-0.1,1-0.5c0.3-0.5-0.2-1.1-1-0.9c-1,0.3-1.5,1.1-1.4,2.2c0,0.3,0.4,0.6,0.7,0.7
	c2,0.4,3.7-1.7,2.6-3.3c-1.2-1.7-4.1-0.6-5.2,1.1c0,0,0.5,0.5,1.1,1.1C65.1,91.2,65.1,90.7,65.3,90.1"/>
<path class="st0" d="M50.4,98.9c-0.6,0.1-1.3,0.3-1.7,1.2c-0.5,1.1-0.2,2.4,0.9,3.1c2.4,1.4,6.2-3.6,7.8-6.4c0,0-1.3-2.7-2.3-4.3
	c-1.1-2-2.3-3.7-3.9-5.5c-2.1,2.3-3.4,5-5.8,7c0.2,0.2,0.5,0.5,0.8,0.7c2.1,2,7.3,4.1,6,6.6c-0.4,0.8-1.3,1.4-2.3,1.1
	c-1.3-0.5-1.2-2.2,0.1-2.6c0.6-0.2,1,0.3,0.8,0.8c-0.2-0.2-0.7-0.3-0.9-0.1c-0.3,0.3-0.4,0.8,0.3,1.3c0.3,0.2,0.9,0.1,1.2-0.4
	c0.4-0.5,0.5-1.4-0.3-2.1C50.9,99,50.6,98.9,50.4,98.9"/>
<path class="st0" d="M46.9,81.8l0.2-0.1c9.2,3.4,18.5,23.3,20,28.5l-0.4-0.1c-1-2.5-2-4.5-4.9-5.5C60.4,101.4,55,87.6,46.9,81.8"/>
<path class="st4" d="M62.1,104c0.5,0,1.1,0.4,1.6,0.8"/>
<path class="st4" d="M61.8,103c0.4,0,1.3,0.4,1.6,0.7"/>
<path class="st4" d="M61.3,102c0.6,0.2,1.1,0.3,1.4,0.5"/>
<path class="st4" d="M60.8,101c0.6,0.2,0.8,0.2,1.1,0.4"/>
<path class="st4" d="M60.4,100c0.4,0.1,0.9,0.2,1.3,0.4"/>
<path class="st4" d="M60.1,98.9c0.3,0,0.7,0.2,0.9,0.3"/>
<path class="st4" d="M59.7,98.1c0.3,0.1,0.5,0.1,0.7,0.2"/>
<path class="st4" d="M59,97c0.3,0,0.7,0.2,0.9,0.3"/>
<path class="st4" d="M58.5,96.1c0.2,0.1,0.4,0.1,0.7,0.3"/>
<path class="st4" d="M58.1,95.1c0.4,0.1,0.5,0.2,0.7,0.3"/>
<path class="st4" d="M57.6,94.1c0.3,0,0.4,0.2,0.6,0.3"/>
<path class="st4" d="M56.9,93.1c0.3,0.1,0.6,0.2,0.7,0.3"/>
<path class="st4" d="M56.3,92.2c0.3,0.1,0.4,0.1,0.6,0.2"/>
<path class="st4" d="M55.8,91.4c0.2,0.1,0.5,0.2,0.6,0.3"/>
<path class="st2" d="M74.2,89.2c1-0.7,1.8-1.2,2.3-1.6c0.5-0.4,0.9,0.2,1.9-0.5c1.7-1.2,2.4-2.3,3.2-1.4c0.7,0.9,1.1,0.2,1.6-0.2
	c0.9-0.9,2.8-2.9,3.1-2.9c0.3,0,0.6,0.3,1,0.3c0.4,0,3.4-2.6,4-2.6c0.6,0,2.8,2.6,3.4,2.6s2.4-1.2,2.9-1.2c0.6,0,4.3,3.4,4.9,3.4
	c0.7,0,7.8-2.9,8.3-2.9c0.5,0,6,3.7,6.4,4.2c0.4,0.5-0.3,0.3-0.6,0.1c-2.4-1.6-4.5-1.7-5-2.3c-0.5-0.6-0.7-1.7-2.1,0
	c-1.4,1.7-1.2,3.2,0.8,4.5c2,1.2,4.2,2.5,4.5,4.2c0.1,0.4-0.3,0.2-0.4-0.1c-0.1-0.3-1.8-2.4-4.2-2.9c-2.4-0.4-2.7-1.9-5.4-1.9
	s-3.8-1.5-4.4-1.5c-0.6,0-1.1-0.4,0.3-0.4c1.3,0,1.2-0.1,0.7-0.6c-0.6-0.4-3.1-3-3.6-2.9c-0.5,0.1-1.1,2.7-0.9,4.7
	c-1.2-1.9-4.1-6.2-5.9-6.1c-0.8,0.1-0.8,2.3-0.6,3.5c-0.8-0.5-1.6-1.4-1.6,0.6c0,2.1,1.7,0.7,1.4,6.1c-0.8-1.9-1-2.3-3.1-2.8
	c-2.1-0.5-2.9-0.6-3.8-1.4c-0.8-0.7-1.6-1.8-3.5,0.6c-1.9,2.4-2.6,3.1-0.6,3c2.1-0.1-0.3,1.6-1.6,2.8c-0.8,0.7-1.2,2.1,0.8,0.1
	c0.9-0.9,1.4,0.2,2.6-0.6c1.2-0.9,1.4-0.7,2.1-0.7c-0.9,2.1-4.4,4.8-4.1,5.3c0.3,0.5,4.7-2,6.4-3.4c2.4-0.4,9-2.9,11.2-4
	c1.3,0.4,2.6,0.6,3.3,0.9c0.7,0.3,1.9,2,6,0.5c1.7,0.9,1.9,1.4,5.6,2.9c-1.9-0.1-4.3-1-5.6-2c-1.4,1.4-1.1,2.5,1.8,5.6
	c-2.8-1.1-3.4-2.7-4.4-3.8c-1.1-1.1-2.2-0.6-3.3-2c-0.9-1.1-2.6-1.2-3.4-1.2c-0.8,0-4.3,2.7-4.9,3.7c2.6-0.2,3.7-0.9,4.9-0.8
	c-1.9,1.4-4.4,3.4-5.9,4c-1.4,0.6-3.9,2.9-4.4,4c1.9,0.1,3.8,0.4,3.6,1.1c-0.1,0.7-1.8,1.6-3.6,1.7c-0.3,0-0.6,0.2-0.7,0
	c-0.4-0.5-0.2-1.3-0.7-1.7c-0.2-0.1-0.4,0.1-0.5,0.2c-0.3,0.2,0,0.6,0,0.8c-0.1,0.3-0.5,0.5-0.8,0.6c-0.3,0-0.4-0.3-0.5-0.5
	c-0.2-0.2-0.2,0.4-0.4,0.3c-0.2,0-0.3-0.3-0.4-0.5c0-0.1,0.1-0.2,0-0.3c-0.4-0.1-0.5,0.4-0.5,0.7c-0.1,0.2-0.5,0.1-0.6,0.4
	c0,0.3,0.5,0.1,0.5,0.4c0,0.1-0.2,0.1-0.3,0.2c-0.1,0.3-0.2,0.6-0.5,0.8c-0.2,0.2-0.6,0.1-0.8,0.1c-0.1,0-0.1,0.3-0.2,0.4
	c-0.3,0.3-0.7,0.4-0.8,0.8c0,0.1-0.1,0.3-0.1,0.3c-0.4,0.3-0.6,0.8-0.9,1.1c0.5-2.7,1.6-2.8,2.6-4.4c1-1.6,2.6-3.7,1.9-4.8
	c-0.9-1.5-5.5,1.7-5.9,0.5c-0.4-1.2,0.2-0.5,0.6-0.2c0.4,0.2,0.6-0.7-0.4-0.7c-0.9-0.1-1.8,0.7-2,1.7"/>
<path class="st2" d="M81,96.9c0.2,0,0.3-0.1,0.3-0.2c0-0.1-0.1-0.2-0.3-0.2s-0.3,0.1-0.3,0.2C80.7,96.8,80.8,96.9,81,96.9"/>
<path class="st2" d="M82.1,95.6c0.2,0,0.3-0.1,0.3-0.1c0-0.1-0.1-0.1-0.3-0.1c-0.2,0-0.3,0.1-0.3,0.1C81.8,95.5,82,95.6,82.1,95.6"
	/>
<path class="st2" d="M83.6,94.4c0.2,0,0.4-0.1,0.4-0.1s-0.2-0.1-0.4-0.1s-0.4,0.1-0.4,0.1S83.4,94.4,83.6,94.4"/>
<path class="st2" d="M84.8,93.6c0.1,0,0.1-0.2,0.1-0.4s-0.1-0.4-0.1-0.4c-0.1,0-0.1,0.2-0.1,0.4C84.7,93.4,84.8,93.6,84.8,93.6"/>
<path class="st2" d="M84.6,92.2c0.1,0,0.2-0.1,0.2-0.2c0-0.1-0.1-0.2-0.2-0.2c-0.1,0-0.2,0.1-0.2,0.2C84.4,92.1,84.5,92.2,84.6,92.2
	"/>
<path class="st2" d="M82.9,91.5c0.1,0,0.2-0.1,0.2-0.1c0-0.1-0.1-0.1-0.2-0.1c-0.1,0-0.2,0.1-0.2,0.1C82.7,91.4,82.8,91.5,82.9,91.5
	"/>
<path class="st2" d="M80.9,92.5c0.1,0,0.2-0.1,0.2-0.2c0-0.1-0.1-0.2-0.2-0.2c-0.1,0-0.2,0.1-0.2,0.2C80.7,92.4,80.8,92.5,80.9,92.5
	"/>
<path class="st2" d="M82,90c0.1,0,0.3-0.1,0.3-0.2c0-0.1-0.1-0.2-0.3-0.2s-0.3,0.1-0.3,0.2C81.8,90,81.9,90,82,90"/>
<path class="st2" d="M86.3,92.9c0.2,0,0.3-0.1,0.3-0.2c0-0.1-0.1-0.2-0.3-0.2S86,92.6,86,92.7C86,92.8,86.1,92.9,86.3,92.9"/>
<path class="st2" d="M86.5,93.9c0.1,0,0.3-0.1,0.3-0.3c0-0.1-0.1-0.3-0.3-0.3c-0.1,0-0.3,0.1-0.3,0.3C86.2,93.8,86.3,93.9,86.5,93.9
	"/>
<path class="st2" d="M85.2,94.3c0.1,0,0.3-0.1,0.3-0.2c0-0.1-0.1-0.2-0.3-0.2c-0.1,0-0.3,0.1-0.3,0.2C85,94.2,85.1,94.3,85.2,94.3"
	/>
<path class="st2" d="M84,95.4c0.2,0,0.3-0.1,0.3-0.2c0-0.1-0.1-0.2-0.3-0.2c-0.2,0-0.3,0.1-0.3,0.2C83.7,95.3,83.8,95.4,84,95.4"/>
<path class="st2" d="M87.5,93.7c0.1,0,0.2-0.1,0.2-0.2c0-0.1-0.1-0.2-0.2-0.2c-0.1,0-0.2,0.1-0.2,0.2C87.3,93.6,87.4,93.7,87.5,93.7
	"/>
<path class="st2" d="M88.5,93.1c0.1,0,0.3-0.1,0.3-0.3c0-0.1-0.1-0.3-0.3-0.3c-0.1,0-0.3,0.1-0.3,0.3C88.3,93,88.4,93.1,88.5,93.1"
	/>
<path class="st2" d="M87.8,92.2c0.2,0,0.3-0.1,0.3-0.2c0-0.1-0.1-0.2-0.3-0.2c-0.2,0-0.3,0.1-0.3,0.2C87.5,92.1,87.6,92.2,87.8,92.2
	"/>
<path class="st2" d="M87.4,90.5c0.1,0,0.1-0.1,0.1-0.2c0-0.1-0.1-0.2-0.1-0.2s-0.1,0.1-0.1,0.2C87.3,90.4,87.3,90.5,87.4,90.5"/>
<path class="st2" d="M85.9,91.7c0.1,0,0.2-0.1,0.2-0.1c0-0.1-0.1-0.1-0.2-0.1c-0.1,0-0.2,0.1-0.2,0.1C85.7,91.7,85.8,91.7,85.9,91.7
	"/>
<path class="st2" d="M88.9,91.1c0.1,0,0.2-0.1,0.2-0.2c0-0.1-0.1-0.2-0.2-0.2s-0.2,0.1-0.2,0.2C88.7,91,88.8,91.1,88.9,91.1"/>
<path class="st2" d="M89.3,92c0.1,0,0.2-0.1,0.2-0.2c0-0.1-0.1-0.2-0.2-0.2c-0.1,0-0.2,0.1-0.2,0.2C89.1,91.9,89.2,92,89.3,92"/>
<path class="st2" d="M89.6,92.9c0.1,0,0.1-0.1,0.1-0.2c0-0.1-0.1-0.2-0.1-0.2c-0.1,0-0.1,0.1-0.1,0.2C89.5,92.8,89.5,92.9,89.6,92.9
	"/>
<path class="st2" d="M92.9,90.3c0.1,0,0.2-0.1,0.2-0.2c0-0.1-0.1-0.2-0.2-0.2c-0.1,0-0.2,0.1-0.2,0.2C92.6,90.2,92.7,90.3,92.9,90.3
	"/>
<path class="st2" d="M91.9,90.9c0.1,0,0.2-0.1,0.2-0.2c0-0.1-0.1-0.2-0.2-0.2c-0.1,0-0.2,0.1-0.2,0.2C91.7,90.8,91.8,90.9,91.9,90.9
	"/>
<path class="st2" d="M91.5,91.7c0.1,0,0.2-0.1,0.2-0.2c0-0.1-0.1-0.2-0.2-0.2c-0.1,0-0.2,0.1-0.2,0.2C91.3,91.7,91.4,91.7,91.5,91.7
	"/>
<path class="st2" d="M91.5,90c0.1,0,0.2-0.1,0.2-0.1s-0.1-0.1-0.2-0.1c-0.1,0-0.2,0.1-0.2,0.1S91.4,90,91.5,90"/>
<path class="st2" d="M93.4,89.1c0.1,0,0.2-0.1,0.2-0.2c0-0.1-0.1-0.2-0.2-0.2c-0.1,0-0.2,0.1-0.2,0.2C93.1,89.1,93.2,89.1,93.4,89.1
	"/>
<path class="st2" d="M94.5,90.7c0.1,0,0.2-0.1,0.2-0.2c0-0.1-0.1-0.2-0.2-0.2c-0.1,0-0.2,0.1-0.2,0.2C94.3,90.6,94.4,90.7,94.5,90.7
	"/>
<path class="st2" d="M93.9,91.1c0.1,0,0.2-0.1,0.2-0.2c0-0.1-0.1-0.2-0.2-0.2c-0.1,0-0.2,0.1-0.2,0.2C93.7,91,93.8,91.1,93.9,91.1"
	/>
<path class="st2" d="M92.9,91.5c0.1,0,0.2-0.1,0.2-0.1c0-0.1-0.1-0.1-0.2-0.1c-0.1,0-0.2,0.1-0.2,0.1C92.7,91.4,92.8,91.5,92.9,91.5
	"/>
<path class="st2" d="M92.1,92c0.1,0,0.2-0.1,0.2-0.2c0-0.1-0.1-0.2-0.2-0.2c-0.1,0-0.2,0.1-0.2,0.2C92,91.9,92.1,92,92.1,92"/>
<path class="st2" d="M91.9,88c0.1,0,0.2-0.1,0.2-0.2c0-0.1-0.1-0.2-0.2-0.2c-0.1,0-0.2,0.1-0.2,0.2C91.8,87.9,91.8,88,91.9,88"/>
<path class="st2" d="M94.4,87.4c0.1,0,0.2-0.1,0.2-0.2c0-0.1-0.1-0.2-0.2-0.2c-0.1,0-0.2,0.1-0.2,0.2C94.2,87.3,94.3,87.4,94.4,87.4
	"/>
<path class="st2" d="M95.2,89.4c0.1,0,0.2-0.1,0.2-0.2c0-0.1-0.1-0.2-0.2-0.2c-0.1,0-0.2,0.1-0.2,0.2C95,89.3,95.1,89.4,95.2,89.4"
	/>
<path class="st2" d="M96.2,90.6c0.1,0,0.2-0.1,0.2-0.2c0-0.1-0.1-0.2-0.2-0.2S96,90.2,96,90.3C96,90.4,96.1,90.6,96.2,90.6"/>
<path class="st2" d="M97.6,90.9c0.1,0,0.3-0.1,0.3-0.3c0-0.1-0.1-0.3-0.3-0.3s-0.3,0.1-0.3,0.3C97.3,90.8,97.4,90.9,97.6,90.9"/>
<path class="st2" d="M98.2,90c0.1,0,0.3-0.1,0.3-0.2c0-0.1-0.1-0.2-0.3-0.2c-0.1,0-0.3,0.1-0.3,0.2C98,89.9,98.1,90,98.2,90"/>
<path class="st2" d="M97.2,89.4c0.1,0,0.2-0.1,0.2-0.2c0-0.1-0.1-0.2-0.2-0.2S97,89.1,97,89.2C97,89.3,97.1,89.4,97.2,89.4"/>
<path class="st2" d="M98.9,87.5c0.1,0,0.2-0.1,0.2-0.2c0-0.1-0.1-0.2-0.2-0.2c-0.1,0-0.2,0.1-0.2,0.2C98.7,87.4,98.8,87.5,98.9,87.5
	"/>
<path class="st2" d="M99.9,89.3c0.1,0,0.1-0.1,0.1-0.2c0-0.1-0.1-0.2-0.1-0.2s-0.1,0.1-0.1,0.2C99.8,89.2,99.8,89.3,99.9,89.3"/>
<path class="st2" d="M99,90.7c0.1,0,0.3-0.1,0.3-0.3c0-0.1-0.1-0.3-0.3-0.3s-0.3,0.1-0.3,0.3C98.8,90.6,98.9,90.7,99,90.7"/>
<path class="st2" d="M101.5,89.7c0.1,0,0.2-0.1,0.2-0.2c0-0.1-0.1-0.2-0.2-0.2c-0.1,0-0.2,0.1-0.2,0.2
	C101.3,89.6,101.4,89.7,101.5,89.7"/>
<path class="st2" d="M100.9,88.6c0.1,0,0.2-0.1,0.2-0.2c0-0.1-0.1-0.2-0.2-0.2s-0.2,0.1-0.2,0.2C100.7,88.5,100.8,88.6,100.9,88.6"
	/>
<path class="st2" d="M100.7,90.5c0.1,0,0.2-0.1,0.2-0.1c0-0.1-0.1-0.1-0.2-0.1c-0.1,0-0.2,0.1-0.2,0.1
	C100.4,90.4,100.5,90.5,100.7,90.5"/>
<path class="st2" d="M101,91.6c0.1,0,0.3-0.1,0.3-0.2c0-0.1-0.1-0.2-0.3-0.2c-0.1,0-0.3,0.1-0.3,0.2C100.7,91.5,100.9,91.6,101,91.6
	"/>
<path class="st2" d="M101.9,92.6c0.1,0,0.3-0.1,0.3-0.2c0-0.1-0.1-0.2-0.3-0.2c-0.1,0-0.3,0.1-0.3,0.2
	C101.7,92.5,101.8,92.6,101.9,92.6"/>
<path class="st2" d="M102.4,91.9c0.1,0,0.2-0.1,0.2-0.2c0-0.1-0.1-0.2-0.2-0.2c-0.1,0-0.2,0.1-0.2,0.2
	C102.2,91.8,102.3,91.9,102.4,91.9"/>
<path class="st2" d="M101.9,91c0.1,0,0.2-0.1,0.2-0.2c0-0.1-0.1-0.2-0.2-0.2c-0.1,0-0.2,0.1-0.2,0.2C101.7,90.9,101.8,91,101.9,91"
	/>
<path class="st2" d="M102.9,90.9c0.1,0,0.1-0.1,0.1-0.2c0-0.1-0.1-0.2-0.1-0.2c-0.1,0-0.1,0.1-0.1,0.2
	C102.8,90.8,102.8,90.9,102.9,90.9"/>
<path class="st2" d="M103.4,89.8c0.1,0,0.2-0.1,0.2-0.2c0-0.1-0.1-0.2-0.2-0.2c-0.1,0-0.2,0.1-0.2,0.2
	C103.2,89.7,103.3,89.8,103.4,89.8"/>
<path class="st2" d="M105.2,90.5c0.1,0,0.1-0.1,0.1-0.2s-0.1-0.2-0.1-0.2c-0.1,0-0.1,0.1-0.1,0.2S105.1,90.5,105.2,90.5"/>
<path class="st2" d="M104.8,91.4c0.1,0,0.2-0.1,0.2-0.2c0-0.1-0.1-0.2-0.2-0.2c-0.1,0-0.2,0.1-0.2,0.2
	C104.6,91.3,104.7,91.4,104.8,91.4"/>
<path class="st2" d="M103.8,91.4c0.1,0,0.3-0.1,0.3-0.2c0-0.1-0.1-0.2-0.3-0.2c-0.1,0-0.3,0.1-0.3,0.2
	C103.5,91.3,103.6,91.4,103.8,91.4"/>
<path class="st2" d="M103.3,92.5c0.1,0,0.3-0.1,0.3-0.3c0-0.1-0.1-0.3-0.3-0.3c-0.1,0-0.3,0.1-0.3,0.3
	C103.1,92.3,103.2,92.5,103.3,92.5"/>
<path class="st2" d="M104.3,92.3c0.1,0,0.2-0.1,0.2-0.3c0-0.1-0.1-0.3-0.2-0.3c-0.1,0-0.2,0.1-0.2,0.3
	C104.1,92.2,104.2,92.3,104.3,92.3"/>
<path class="st2" d="M106.2,91.6c0.1,0,0.3-0.1,0.3-0.2c0-0.1-0.1-0.2-0.3-0.2s-0.3,0.1-0.3,0.2C105.9,91.5,106,91.6,106.2,91.6"/>
<path class="st2" d="M107,90c0.1,0,0.2-0.1,0.2-0.2c0-0.1-0.1-0.2-0.2-0.2c-0.1,0-0.2,0.1-0.2,0.2C106.9,90,106.9,90,107,90"/>
<path class="st2" d="M108.1,91.5c0.1,0,0.2-0.1,0.2-0.2c0-0.1-0.1-0.2-0.2-0.2c-0.1,0-0.2,0.1-0.2,0.2
	C107.9,91.4,108,91.5,108.1,91.5"/>
<path class="st2" d="M108.9,92.9c0.1,0,0.2-0.1,0.2-0.2c0-0.1-0.1-0.2-0.2-0.2c-0.1,0-0.2,0.1-0.2,0.2
	C108.7,92.9,108.8,92.9,108.9,92.9"/>
<path class="st2" d="M107,92.7c0.1,0,0.3-0.1,0.3-0.3c0-0.1-0.1-0.3-0.3-0.3c-0.1,0-0.3,0.1-0.3,0.3C106.7,92.6,106.9,92.7,107,92.7
	"/>
<path class="st2" d="M109.8,88.4c0.2,0,0.3-0.1,0.3-0.2c0-0.1-0.1-0.2-0.3-0.2c-0.2,0-0.3,0.1-0.3,0.2
	C109.5,88.3,109.7,88.4,109.8,88.4"/>
<path class="st2" d="M111.2,88.4c0.2,0,0.3-0.1,0.3-0.3c0-0.2-0.1-0.3-0.3-0.3c-0.2,0-0.3,0.1-0.3,0.3
	C110.9,88.2,111,88.4,111.2,88.4"/>
<path class="st2" d="M112.4,87.1c0.1,0,0.3-0.1,0.3-0.3c0-0.1-0.1-0.3-0.3-0.3c-0.1,0-0.3,0.1-0.3,0.3
	C112.2,87,112.3,87.1,112.4,87.1"/>
<path class="st2" d="M111,86.4c0.2,0,0.3-0.1,0.3-0.2c0-0.1-0.1-0.2-0.3-0.2c-0.2,0-0.3,0.1-0.3,0.2C110.6,86.4,110.8,86.4,111,86.4
	"/>
<path class="st2" d="M114.6,88.3c0.1,0,0.3-0.1,0.3-0.3c0-0.1-0.1-0.3-0.3-0.3c-0.1,0-0.3,0.1-0.3,0.3
	C114.4,88.1,114.5,88.3,114.6,88.3"/>
<path class="st2" d="M112.7,88.7c0.2,0,0.3-0.1,0.3-0.2c0-0.1-0.1-0.2-0.3-0.2c-0.2,0-0.3,0.1-0.3,0.2
	C112.4,88.6,112.6,88.7,112.7,88.7"/>
<path class="st2" d="M114.1,89.7c0.1,0,0.3-0.1,0.3-0.2c0-0.1-0.1-0.2-0.3-0.2c-0.1,0-0.3,0.1-0.3,0.2
	C113.8,89.6,113.9,89.7,114.1,89.7"/>
<path class="st2" d="M114.9,90.5c0.1,0,0.2-0.1,0.2-0.3c0-0.1-0.1-0.3-0.2-0.3c-0.1,0-0.2,0.1-0.2,0.3
	C114.6,90.4,114.7,90.5,114.9,90.5"/>
<path class="st2" d="M114.2,91.2c0.2,0,0.3-0.1,0.3-0.2c0-0.1-0.1-0.2-0.3-0.2c-0.2,0-0.3,0.1-0.3,0.2
	C113.9,91.1,114,91.2,114.2,91.2"/>
<path class="st2" d="M115.1,92c0.1,0,0.2-0.1,0.2-0.3c0-0.1-0.1-0.3-0.2-0.3c-0.1,0-0.2,0.1-0.2,0.3C114.8,91.9,114.9,92,115.1,92"
	/>
<path class="st2" d="M113.1,90.3c0.1,0,0.3-0.1,0.3-0.3c0-0.1-0.1-0.3-0.3-0.3c-0.1,0-0.3,0.1-0.3,0.3
	C112.8,90.2,113,90.3,113.1,90.3"/>
<path class="st2" d="M112.2,89.7c0.1,0,0.2-0.1,0.2-0.2c0-0.1-0.1-0.2-0.2-0.2c-0.1,0-0.2,0.1-0.2,0.2
	C112,89.6,112.1,89.7,112.2,89.7"/>
<path class="st2" d="M110.8,93.7c0.1,0,0.2-0.1,0.2-0.2c0-0.1-0.1-0.2-0.2-0.2c-0.1,0-0.2,0.1-0.2,0.2
	C110.5,93.6,110.6,93.7,110.8,93.7"/>
<path class="st2" d="M83,105.9c0.1,0,0.3-0.1,0.3-0.3s-0.1-0.3-0.3-0.3c-0.1,0-0.3,0.1-0.3,0.3S82.9,105.9,83,105.9"/>
<path class="st2" d="M82.2,106.2c0.1,0,0.2-0.1,0.2-0.2c0-0.1-0.1-0.2-0.2-0.2c-0.1,0-0.2,0.1-0.2,0.2
	C81.9,106.1,82,106.2,82.2,106.2"/>
<path class="st2" d="M82.1,105.3c0.1,0,0.2-0.1,0.2-0.3c0-0.1-0.1-0.3-0.2-0.3c-0.1,0-0.2,0.1-0.2,0.3
	C81.9,105.2,82,105.3,82.1,105.3"/>
<path class="st2" d="M82.8,105.2c0.2,0,0.3-0.1,0.3-0.2c0-0.1-0.1-0.2-0.3-0.2c-0.2,0-0.3,0.1-0.3,0.2
	C82.5,105.1,82.6,105.2,82.8,105.2"/>
<path class="st2" d="M84.5,104.3c0.2,0,0.4-0.1,0.4-0.3c0-0.1-0.2-0.3-0.4-0.3s-0.4,0.1-0.4,0.3C84.1,104.2,84.3,104.3,84.5,104.3"
	/>
<path class="st2" d="M84.8,105.4c0.2,0,0.3-0.1,0.3-0.2c0-0.1-0.1-0.2-0.3-0.2c-0.2,0-0.3,0.1-0.3,0.2
	C84.5,105.3,84.7,105.4,84.8,105.4"/>
<path class="st2" d="M83.9,104.9c0.1,0,0.2-0.1,0.2-0.2c0-0.1-0.1-0.2-0.2-0.2c-0.1,0-0.2,0.1-0.2,0.2
	C83.7,104.8,83.8,104.9,83.9,104.9"/>
<path class="st2" d="M81.5,104.9c0.1,0,0.3-0.1,0.3-0.3c0-0.1-0.1-0.3-0.3-0.3c-0.1,0-0.3,0.1-0.3,0.3
	C81.2,104.8,81.4,104.9,81.5,104.9"/>
<path class="st2" d="M81.2,105.6c0.1,0,0.2-0.1,0.2-0.2c0-0.1-0.1-0.2-0.2-0.2s-0.2,0.1-0.2,0.2C81,105.5,81.1,105.6,81.2,105.6"/>
<path class="st2" d="M81.4,106.7c0.1,0,0.1-0.1,0.1-0.2c0-0.1-0.1-0.2-0.1-0.2c-0.1,0-0.1,0.1-0.1,0.2
	C81.3,106.6,81.3,106.7,81.4,106.7"/>
<path class="st2" d="M80.6,107c0.1,0,0.2-0.1,0.2-0.3c0-0.1-0.1-0.3-0.2-0.3c-0.1,0-0.2,0.1-0.2,0.3C80.3,106.9,80.4,107,80.6,107"
	/>
<path class="st2" d="M79.8,107.2c0.1,0,0.3-0.2,0.3-0.4s-0.1-0.4-0.3-0.4c-0.1,0-0.3,0.2-0.3,0.4S79.6,107.2,79.8,107.2"/>
<path class="st2" d="M79.4,107.7c0.1,0,0.2-0.1,0.2-0.2c0-0.1-0.1-0.2-0.2-0.2c-0.1,0-0.2,0.1-0.2,0.2
	C79.2,107.6,79.3,107.7,79.4,107.7"/>
<path class="st2" d="M78.6,108.2c0.2,0,0.3-0.1,0.3-0.3c0-0.1-0.2-0.3-0.3-0.3c-0.2,0-0.4,0.1-0.4,0.3
	C78.3,108.1,78.4,108.2,78.6,108.2"/>
<path class="st2" d="M79.2,108.5c0.1,0,0.2-0.1,0.2-0.2c0-0.1-0.1-0.2-0.2-0.2c-0.1,0-0.2,0.1-0.2,0.2
	C79,108.4,79.1,108.5,79.2,108.5"/>
<path class="st2" d="M78,109.2c0.1,0,0.2-0.1,0.2-0.3c0-0.1-0.1-0.3-0.2-0.3c-0.1,0-0.2,0.1-0.2,0.3C77.8,109.1,77.9,109.2,78,109.2
	"/>
<path class="st2" d="M77.3,109.9c0.2,0,0.3-0.1,0.3-0.3c0-0.1-0.1-0.3-0.3-0.3s-0.3,0.1-0.3,0.3C76.9,109.8,77.1,109.9,77.3,109.9"
	/>
<path class="st2" d="M81.4,106.1c0.1,0,0.2-0.1,0.2-0.2s-0.1-0.2-0.2-0.2c-0.1,0-0.2,0.1-0.2,0.2S81.3,106.1,81.4,106.1"/>
<path class="st2" d="M83.9,105.4c0.1,0,0.2-0.1,0.2-0.2c0-0.1-0.1-0.2-0.2-0.2c-0.1,0-0.2,0.1-0.2,0.2
	C83.7,105.3,83.8,105.4,83.9,105.4"/>
<path class="st2" d="M83.5,106c0.1,0,0.2-0.1,0.2-0.2c0-0.1-0.1-0.2-0.2-0.2c-0.1,0-0.2,0.1-0.2,0.2C83.3,105.9,83.4,106,83.5,106"
	/>
<path class="st2" d="M84.4,104.7c0.1,0,0.2-0.1,0.2-0.2c0-0.1-0.1-0.2-0.2-0.2s-0.2,0.1-0.2,0.2C84.2,104.7,84.3,104.7,84.4,104.7"
	/>
<path d="M42.2,119.3L43,118c0,0,1.9,1.2,2.4,1.5c1.2,0.7,2,0,2.5-0.8c0.5-0.8,0.4-0.7,0.7-1c0.6-0.8,0.8-1.6-0.5-2.4l-2.4-1.5
	l0.9-1.4c0,0,2.5,1.6,3.1,2c0.6,0.4,2.2,2.1,0.7,4.5c-0.1,0.2-0.3,0.5-0.7,1c-0.8,1.3-2.8,2.2-4.4,1.2"/>
<path d="M46,112.2c0,0-3.5,4-3.8,4.3c-0.7,0.8-2.4,1.2-3.7,0.1c-1-0.9-0.9-0.8-1.3-1.2c-1-0.9-1.5-2.7-0.5-3.8
	c0.9-1,3.7-4.3,3.7-4.3l1.5,1.3l-2.2,2.5l2.4,2l-1,1.1l-2.4-2c0,0-0.5,0.5-0.6,0.7c-0.4,0.4-0.4,0.8,0,1.2c0.4,0.3,1.1,0.9,1.4,1.2
	c0.4,0.3,0.9,0.1,1.2-0.2c0.3-0.3,3.7-4.2,3.7-4.2"/>
<path d="M35.3,103.6c1.2,1.4,1.5,1.7,1.8,2c0.4,0.5,0.3,1.4-0.2,1.8c-0.3,0.3-4,3.5-4,3.5l1.3,1.5c0,0,3.9-3.4,4.2-3.6
	c0.8-0.7,1.2-2.4,0.1-3.6c-0.9-1-0.8-0.9-2.1-2.4"/>
<path d="M35,100.7c-2.5,1.8-6.6,4.7-6.6,4.7l1.1,1.6c0,0,4.1-2.9,6.6-4.7"/>
<path d="M25.6,98.2c1,1.6,1.5,2.5,1.8,2.9c0.3,0.5,1.2,0.7,1.8,0.4c0.4-0.2,4.5-2.8,4.5-2.8l1,1.6c0,0-4.4,2.7-4.8,2.9
	c-0.9,0.6-2.6,0.5-3.5-1c-0.7-1.1-1-1.6-2.1-3.3"/>
<path d="M29.6,101.4c-1.3-2.1-1.5-2.4-2.5-4.1l1.2-0.8c1,1.6,1.7,2.7,2.5,4.1"/>
<path d="M23.6,93.2c0.5,1.3,0.9,1.7,3.1,0.9c2.3-0.9,2.2-1.5,1.8-2.7c-0.5-1.2-0.8-1.7-3.1-0.9C23.1,91.4,23.1,91.9,23.6,93.2
	 M27.4,96c-3.2,1.2-4.4,0.2-5.3-2.2c-0.9-2.4-0.6-4,2.5-5.2c3.2-1.2,4.5,0.2,5.3,2.2C30.7,92.9,30.5,94.8,27.4,96z"/>
<path d="M19.4,82.8c0.4,1.9,0.8,3.7,1,5c0.4-0.1,7.9-1.6,7.9-1.6L28,84.3c0,0-7.1,1.4-6.5,1.3c-0.1-0.5-0.1-0.5-0.5-2.3
	c-0.1-0.5,0.3-1,0.7-1c0.4-0.1,1,0.2,1.2,0.7l0.4,2l1.4-0.3c0,0-0.3-1.3-0.3-1.6c-0.1-0.4,0.1-1.1,0.9-1.2l2-0.4L27,79.4
	c0,0-1.5,0.3-1.7,0.3c-1,0.2-1.9,0.7-1.7,1.7c-0.2-0.9-1.2-1.4-2.4-1.1C20.7,80.5,19.1,81.1,19.4,82.8"/>
<path d="M21.2,77.1l0-0.1l0.5-0.1l5.1-3.3l-0.1-2.2l-8.1,0.3l0.1,1.9l5.3-0.2l0,0.1l-0.4,0.1l-4.8,3l0.1,2.5c0.4,0,8.1-0.3,8.1-0.3
	l-0.1-1.9"/>
<path d="M27.1,68.7C24,68.4,19,68,19,68l-0.2,1.9c0,0,5,0.4,8.1,0.7"/>
<path d="M27,68.4c0,0-5.2-1-5.7-1.1c-1.1-0.2-2.3-1.4-1.9-3.1c0.2-1.3,0.2-1.1,0.3-1.7c0.2-1.3,1.6-2.6,3.1-2.3c1.4,0.3,5.6,1,5.6,1
	L28,63.1l-3.3-0.6l-0.6,3.1l-1.5-0.3l0.6-3c0,0-0.7-0.1-0.9-0.2c-0.5-0.1-0.9,0.1-1,0.6c-0.1,0.5-0.3,1.4-0.3,1.8
	c-0.1,0.5,0.3,0.8,0.8,0.9c0.4,0.1,5.6,1,5.6,1"/>
<path d="M37.5,44c0,0-3.9-3.6-4.2-3.9c-0.8-0.7-1.1-2.4,0-3.6c0.9-1,0.8-0.8,1.2-1.3c0.9-1,2.7-1.4,3.8-0.3c1,0.9,4.1,3.9,4.1,3.9
	l-1.3,1.4l-2.4-2.3l-2.1,2.3l-1.1-1l2.1-2.2c0,0-0.5-0.5-0.6-0.6c-0.4-0.4-0.8-0.4-1.2,0c-0.3,0.4-1,1-1.3,1.4
	c-0.3,0.3-0.2,0.9,0.1,1.2c0.3,0.3,4.1,3.9,4.1,3.9"/>
<path d="M25.8,50.1c0.2-0.5,1.8-3.5,1.8-3.5L26.3,46l-2,3.9c-0.8,1.5,0,2.8,0.9,3.2c1,0.5,2.5,0.7,3.3-0.9c0,0,0.9-1.7,1.2-2.3
	c0.2-0.5,0.7-0.5,1.1-0.4c0.4,0.2,0.6,0.6,0.3,1.1l-2.1,4l1.5,0.7c0,0,1.9-3.8,2.2-4.4c0.5-1,0-2.3-1.3-3c-1.5-0.8-2.6-0.1-3.3,1.2
	l-0.8,1.6c-0.3,0.7-0.8,0.9-1.3,0.6C25.4,51.2,25.6,50.6,25.8,50.1"/>
<path d="M36,46.1c-2.5-1.8-6.7-4.6-6.7-4.6L28.3,43c0,0,4.1,2.9,6.7,4.6"/>
<polyline points="32.1,40.1 30.9,39.2 26.7,45.2 27.9,46 "/>
<path d="M46,36c-1.9-2.4-5-6.4-5-6.4l-1.5,1.2c0,0,3.1,3.9,5,6.4"/>
<polyline points="44.1,29.2 43.2,28 37.4,32.5 38.3,33.6 "/>
<path d="M49.1,24.7l0.7,1.3c0,0-1.9,1.1-2.4,1.4c-1.2,0.7-0.9,1.8-0.5,2.6c0.5,0.8,0.4,0.7,0.6,1c0.5,0.9,1.1,1.4,2.4,0.6l2.4-1.4
	l0.8,1.4c0,0-2.6,1.5-3.2,1.9c-0.6,0.3-2.9,1-4.4-1.5c-0.1-0.2-0.3-0.6-0.6-1c-0.8-1.3-0.8-3.5,0.9-4.4"/>
<polyline points="51.5,28.6 50.8,27.3 46.6,29.8 47.4,31 "/>
<path d="M124.8,56L124.8,56l-0.4,0.4l-4,4.5l0.7,2.1l7.7-2.5l-0.6-1.8l-5.1,1.6l0-0.1l0.4-0.3l3.8-4.1l-0.8-2.3
	c-0.4,0.1-7.7,2.5-7.7,2.5l0.6,1.8"/>
<path d="M128.4,66.2c-0.2-1.4-0.5-1.8-2.9-1.5c-2.4,0.4-2.5,1-2.3,2.3c0.2,1.2,0.5,1.9,2.9,1.5C128.4,68.1,128.6,67.6,128.4,66.2
	 M125.3,62.6c3.3-0.5,4.4,0.8,4.7,3.3c0.4,2.5-0.2,4-3.6,4.5c-3.4,0.5-4.4-1.1-4.7-3.3C121.4,65,121.9,63.1,125.3,62.6z"/>
<path d="M130.3,76.6c0-2,0-3.8,0-5.1c-0.4,0-8.1,0-8.1,0l0,1.9c0,0,7.3,0,6.6,0c0,0.5,0,0.5,0,2.3c0,0.5-0.5,0.9-0.9,0.9
	c-0.4,0-1-0.4-1-0.9l0-2l-1.5,0c0,0,0,1.3,0,1.7c0,0.4-0.3,1-1.2,1l-2.1,0l0,1.9c0,0,1.5,0,1.7,0c1,0,2-0.3,2-1.4
	c0,0.9,0.9,1.6,2.1,1.6C128.6,78.6,130.3,78.3,130.3,76.6"/>
<path d="M123.4,100.9c0.9-1.8,1.7-3.4,2.2-4.6c-0.4-0.2-7.3-3.5-7.3-3.5l-0.8,1.7c0,0,6.6,3.2,6,2.9c-0.2,0.4-0.2,0.4-1,2.1
	c-0.2,0.4-0.9,0.6-1.2,0.4c-0.4-0.2-0.7-0.8-0.5-1.3l0.9-1.8l-1.3-0.6c0,0-0.6,1.2-0.7,1.5c-0.2,0.3-0.8,0.8-1.5,0.4l-1.9-0.9
	l-0.8,1.7c0,0,1.3,0.7,1.5,0.7c0.9,0.4,1.9,0.6,2.4-0.3c-0.4,0.8,0.1,1.8,1.2,2.3C121,101.9,122.7,102.4,123.4,100.9"/>
<path d="M113.8,101c2.6,1.7,6.8,4.5,6.8,4.5l1.1-1.6c0,0-4.2-2.8-6.8-4.5"/>
<path d="M121.4,83.1c3.1,0.5,8,1.4,8,1.4l0.3-1.9c0,0-5-0.8-8-1.4"/>
<polyline points="127.5,86.8 129,87.1 130.2,79.9 128.8,79.7 "/>
<path d="M118.8,92.1c3,0.9,7.8,2.4,7.8,2.4l0.5-1.6c0,0-4.8-1.5-7.8-2.4"/>
<polyline points="122.4,92.1 123.8,92.5 125.1,88.5 123.7,88 "/>
<path d="M120.3,87.5c2.9,0.9,7.8,2.4,7.8,2.4l0.5-1.6c0,0-4.8-1.5-7.8-2.4"/>
<path d="M101.4,122.8l-0.8-1.3c0,0,1.9-1.2,2.4-1.5c1.2-0.7,0.9-1.8,0.4-2.6c-0.5-0.8-0.4-0.7-0.6-1c-0.5-0.9-1.1-1.3-2.4-0.6
	l-2.4,1.5l-0.9-1.4c0,0,2.6-1.6,3.1-1.9c0.6-0.4,2.9-1,4.4,1.4c0.1,0.2,0.3,0.6,0.6,1c0.8,1.3,0.8,3.5-0.8,4.5"/>
<polyline points="98.9,118.9 99.7,120.2 103.8,117.7 103,116.4 "/>
<path d="M108.4,118.3l-0.9-1.1c0,0,2.2-1.8,2.6-2.2c1.1-0.9,0.6-1.9,0-2.7c-0.6-0.7-0.5-0.6-0.8-0.9c-0.7-0.8-1.3-1.2-2.4-0.2
	l-2.2,1.8l-1.1-1.3c0,0,2.3-1.9,2.8-2.3c0.5-0.4,2.7-1.4,4.6,0.7c0.2,0.2,0.4,0.5,0.8,0.9c1,1.2,1.3,3.3-0.1,4.5"/>
<polyline points="105.8,114.4 106.7,115.6 109.5,113.3 108.5,112.2 "/>
<path d="M103.2,112.1c2,2.4,3.2,3.8,3.2,3.8l1.5-1.3c0,0-1.2-1.4-3.2-3.8"/>
<path d="M111.9,103.6l1.1,0.9c0,0-0.6,0.8-1,1.3c-0.9,1.1-0.2,2,0.5,2.6c0.8,0.6,0.6,0.4,0.9,0.7c0.8,0.6,1.9,0.9,2.8-0.3l1.9-2.4
	l1.2,0.9c0,0-1.8,2.4-2.3,2.9c-0.4,0.5-2.4,2-4.6,0.2c-0.2-0.1-0.5-0.4-0.9-0.7c-1.2-0.9-2-3-0.8-4.4"/>
<path d="M119.7,106.7c-2.4-1.9-6.4-4.9-6.4-4.9l-1.2,1.5c0,0,3.9,3,6.4,4.9"/>
<path d="M66.2,21.6l0.1,0l0.2,0.4l3.8,4.8l2.2-0.3l-1.1-8l-1.9,0.3l0.7,5.2l-0.1,0l-0.2-0.4l-3.4-4.4L64,19.5c0.1,0.4,1.1,8,1.1,8
	l1.9-0.3"/>
<path d="M99.5,24.4c-1.8-0.8-3.5-1.5-4.7-2c-0.2,0.4-3.2,7.4-3.2,7.4l1.8,0.8c0,0,2.9-6.6,2.7-6c0.4,0.2,0.4,0.2,2.2,0.9
	c0.4,0.2,0.6,0.8,0.4,1.2c-0.2,0.4-0.7,0.8-1.2,0.5l-1.8-0.8l-0.6,1.3c0,0,1.2,0.5,1.6,0.7c0.4,0.2,0.8,0.7,0.5,1.5l-0.8,1.9
	l1.8,0.8c0,0,0.6-1.4,0.7-1.6c0.4-0.9,0.5-1.9-0.4-2.4c0.8,0.4,1.8-0.2,2.3-1.3C100.6,26.8,101,25.1,99.5,24.4"/>
<path d="M104.1,28.8c0.5,0.3,3.2,2.1,3.2,2.1l0.8-1.2l-3.7-2.4c-1.4-0.9-2.8-0.3-3.3,0.5c-0.6,0.9-1,2.4,0.5,3.4
	c0,0,1.6,1.1,2.2,1.4c0.4,0.3,0.5,0.8,0.2,1.1c-0.2,0.3-0.6,0.5-1.1,0.2l-3.8-2.5l-0.9,1.4c0,0,3.6,2.4,4.2,2.7
	c0.9,0.6,2.3,0.3,3.2-1c0.9-1.4,0.4-2.5-0.9-3.4l-1.5-1c-0.6-0.4-0.8-0.9-0.4-1.4C103.1,28.3,103.7,28.5,104.1,28.8"/>
<path d="M106,38.4c2-2.3,5.3-6.1,5.3-6.1l-1.5-1.3c0,0-3.3,3.8-5.3,6.1"/>
<path d="M75.2,26.6c0-3.1,0-8.1,0-8.1l-1.9,0c0,0,0,5,0,8.1"/>
<path d="M109.5,41.8c2.2-2.1,5.9-5.6,5.9-5.6l-1.3-1.4c0,0-3.6,3.5-5.9,5.6"/>
<polyline points="116.2,39.1 117.3,38.1 112.2,32.9 111.1,33.9 "/>
<path d="M62.7,26.7c-1.8,0.5-2.1,0.6-2.6,0.8c-0.6,0.2-1.4-0.3-1.6-0.9c-0.1-0.4-1.5-5.1-1.5-5.1L55.2,22c0,0,1.5,4.9,1.6,5.4
	c0.3,1,1.6,2.1,3.3,1.6c1.3-0.4,1.2-0.3,3.1-0.9"/>
<path d="M64.5,27.7c-0.9-3-2.3-7.8-2.3-7.8l-1.7,0.5c0,0,1.4,4.8,2.3,7.8"/>
<path d="M93.1,21.8l-0.4,1.4c0,0-2.2-0.6-2.7-0.8c-1.3-0.4-2,0.6-2.2,1.5c-0.3,0.9-0.2,0.8-0.3,1.1c-0.3,1-0.3,1.7,1.2,2.1l2.7,0.8
	l-0.5,1.6c0,0-2.9-0.8-3.5-1c-0.7-0.2-2.7-1.4-1.9-4.2c0.1-0.2,0.2-0.6,0.3-1.1c0.4-1.5,2-3,3.9-2.4"/>
<polyline points="91.9,26.2 92.3,24.8 87.7,23.5 87.3,24.9 "/>
<polyline points="80.7,27 78.8,26.8 76.5,18.4 78.4,18.6 "/>
<path d="M81.5,20.2c1.8,0.2,2.2,0.3,1,2.2l-2.6,4.5l1.9,0.2l2.7-4.7c1.5-2.5,1-3.1-2.8-3.5"/>
<polyline points="115.2,46.9 114,45.3 117.9,38.6 119.1,40.1 "/>
<path d="M114.6,45.9l4.1-0.9c2.2-0.4,2-0.7,1-2.2l1-0.7c2.3,3.1,2.3,3.9-0.6,4.5l-5.3,1.2c-1.1,0.2-1.7,0.2-2.4-0.7
	c-0.7-0.9-2.1-2.8-2.1-2.8l1.1-0.8c0,0,1,1.4,1.4,1.9C113.5,46.2,113.8,46.1,114.6,45.9"/>
<path d="M116.3,51.1l-0.4-0.7l1.5-0.8l0.8,1.5c0,0-0.9,0.5-1.1,0.6c-0.4,0.2-1.1,0.3-1.8,0"/>
<path d="M61.7,119.7l2.6,0.7c0,0-1.3,4.9-2,7.8l-1.6-0.4c0.5-2,1.2-4.8,1.7-6.4l-0.9-0.2"/>
<path d="M64.6,122.8c-0.2,1.7,0.6,2.5,1.3,2.6c0.6,0.1,3.7,0.5,3.7,0.5c-0.1,0.9-0.8,1.9-2.2,1.7c-0.5-0.1-2.8-0.4-2.8-0.4l-0.2,1.5
	l3.6,0.5c1.9,0.3,3.2-1.4,3.5-3c0.1-0.5,0.1-0.9,0.2-1.2c0.4-2.8-1.8-3.7-2.5-3.8c-0.7-0.1-2-0.3-2-0.3
	C66.1,120.8,64.8,121.4,64.6,122.8 M67.5,124.1c-0.7-0.1-1.1-0.2-1-0.9c0.1-0.7,0.6-0.9,1.1-0.9l0.7,0.1c1.5,0.2,1.5,1,1.4,2
	L67.5,124.1z"/>
<path d="M84.2,125.2c-0.5,0.1-0.8,0.6-0.7,1.1c0.1,0.5,0.6,0.8,1.1,0.7l2-0.4c0.5-0.1,0.8-0.6,0.7-1.1c-0.1-0.5-0.6-0.8-1.1-0.7
	 M86.9,123.7c1-0.2,2,0.5,2.2,1.6c0.2,1.1-0.4,2.2-1.4,2.4l-4,0.8c-1,0.2-2-0.5-2.2-1.6c-0.2-1.1,0.4-2.2,1.4-2.4L86.9,123.7z"/>
<path d="M85.9,123.4c0.5-0.1,0.8-0.6,0.7-1.1c-0.1-0.5-0.6-0.8-1.1-0.7l-2,0.4c-0.5,0.1-0.8,0.6-0.7,1.1c0.1,0.5,0.6,0.8,1.1,0.7
	 M83,124.9c-1,0.2-2-0.5-2.2-1.6c-0.2-1.1,0.4-2.2,1.4-2.4l4-0.8c1-0.2,2,0.5,2.2,1.6c0.2,1.1-0.4,2.2-1.4,2.4L83,124.9z"/>
<path d="M79.6,121.4H73v4.8c0,0,3.3,0,4.1,0c0.7,0,0.8,0.5,0.8,0.7c0,0.3,0,0.8-0.8,0.8c-0.7,0-4.2,0-4.2,0v1.7c0,0,4.4,0,5,0
	c1.5,0,2.1-1.2,2.1-2.6c0-1-0.4-2.3-2.3-2.3c-1.8,0-2.8,0-2.8,0v-1.5h4.6"/>
</svg>
