<svg xmlns="http://www.w3.org/2000/svg" viewBox="0 0 512 512"><style>.a{fill:#FFF;}.b{fill:#ECF0F1;}.c{fill:#FF5B61;}</style><path d="M256 512C397 512 512 397 512 256S397 0 256 0C115 0 0 115 0 256S115 512 256 512z" fill="#FFCA4F"/><path d="M175.2 145.7h223.5l50.7 223.9 -18.6 0.1 -0.4 79 19.1 0.1 -0.1 13.2H147.3c-28.6-2.2-26-53-27.6-66.6l25.5-227.6c0.1-10.1 10.6-22.1 30-22.1L175.2 145.7z" fill="#20D0C2"/><path d="M175.2 145.7h21.4l-19.5 316.3h-29.8c-35-4-36.4-59.7-25-89.6l22.9-204.6c0.1-10.1 10.6-22.1 30-22.1L175.2 145.7z" fill="#1A91A1"/><path d="M151.2 369.5H443.7c-13.3 27.1-12.9 53.8 0 80.2H151.2C119.8 449.7 119.9 369.5 151.2 369.5z" class="a"/><path d="M130 391.6h305.9c-0.2 0.8-0.3 1.6-0.5 2.4H129.4C129.6 393.2 129.7 392.4 130 391.6zM434.4 400L434.4 400c-0.1 0.8-0.2 1.6-0.2 2.4H128c0.1-0.8 0.2-1.6 0.3-2.4H434.4zM433.8 408.5L433.8 408.5c0 0.8 0 1.6 0 2.4H127.7c0-0.8 0-1.6 0-2.4H433.8zM434.2 416.9L434.2 416.9c0.1 0.8 0.2 1.6 0.2 2.4H128.3c-0.1-0.8-0.2-1.6-0.3-2.4H434.2zM435.3 425.3L435.3 425.3c0.2 0.8 0.3 1.6 0.5 2.4H130c-0.2-0.8-0.4-1.6-0.6-2.4h306H435.3zM437.4 433.8L437.4 433.8c0.2 0.8 0.5 1.6 0.7 2.4h-305.1c-0.4-0.8-0.7-1.6-1.1-2.4h305.4H437.4zM440.3 442.2L440.3 442.2c0.3 0.8 0.7 1.6 1 2.4H139c-0.8-0.7-1.5-1.5-2.2-2.4h303.5H440.3z" class="b"/><path d="M240.2 410.6h45.7v101.4l-23-33.1 -22.7 33.1V410.6H240.2z" class="c"/><path d="M99 287.5L408.8 176.7c34.7-2.9 45.1 67.7 22.3 74.4L128.4 364.7c-17.2 6.5-34-21.2-35.5-48.3 -0.8-14.4 3.1-14 19.5-20.4l-13.5-8.5V287.5z" class="a"/><path d="M440.8 240.5c-2 5.3-5.2 9.2-9.7 10.6L128.4 364.7c-5.3 2-10.5 0.8-15.3-2.7 8.6 0.9 13.3-0.3 21.5-8L440.8 240.5z" class="b"/><path d="M302.3 214.8c23 3.3 39.4 57.9 27.9 74.1l-41.8 15.7c7.6-25.6-8.9-68.3-31.9-73.4L302.3 214.8z" fill="#FFBA1B"/><path d="M376.4 325.4l-46.2-36.4 -41.8 15.7 34.9 40.6 16.1-24.1L376.4 325.4z" fill="#F5A209"/><path d="M110.4 296.9l2-0.8c12.7 2.6 34.8 47.9 10.5 58 -17.3 7.2-25.3-30.4-24.7-42.8 7.4-5.3 15.4 17.1 12.9 17.6l-5.1 1c0 0 0.2 9.8 5.1 10.5l19.9-6.4c0 0-1.6-28.9-20.5-37H110.4z" class="b"/><path d="M181.8 386.3h235.5 13.4 6.4c1.6-5.6 3.7-11.2 6.5-16.8 0 0 0 0 0-0.1h-20.9H182.8h-31.6c-29 0-31.2 68.7-6.5 79 -8.4-23.7-1.7-62.1 20-62.1h17.1H181.8z" class="b"/><path d="M279.2 136.2l2.5 43.9c-14.3 24.2-59.9 42.2-104.8 41.7 -42.8-0.4-85-18.2-96.6-40.6l-0.2-43.1 95.6 26.4 103.5-28.5V136.2z" fill="#666"/><path d="M21.1 120.9l154.6-52.2L330.3 120.9l-154.6 52.2L21.1 120.9z" fill="#807D7D"/><path d="M76 227.8l-7.1 45.3c-0.1 0.7 2.4 1.7 3.6 0.3 1.6 1.9 3.6 1.1 4.2-0.2 0.8 1.3 2.6 2 4 0.1 1.2 1.5 3.8 0.4 3.6-0.8l-7-44.7c-0.2-0.7-1.2-0.6-1.3 0L76 227.8z" class="c"/><path d="M176.7 107.7c0.9-0.3 1.9 0.3 2.2 1.2 0.3 0.9-0.3 1.9-1.2 2.2l-99.4 29.9v86.7c0 1-0.8 1.8-1.8 1.8s-1.8-0.8-1.8-1.8v-88l0 0c0-0.8 0.5-1.5 1.3-1.7l100.7-30.3H176.7z" class="a"/><path d="M76.7 233.6c3.9 0 7-3.2 7-7s-3.2-7-7-7c-3.9 0-7 3.2-7 7C69.7 230.4 72.8 233.6 76.7 233.6z" class="a"/><path d="M82.4 224.8c0 2.9-1.9 5.4-4.5 6.4 -0.7 0.3-1.5 0.4-2.3 0.4 0 0-0.1 0-0.1 0 -2.3 0-4.3-1.2-5.5-3 0.7 2.5 2.7 4.4 5.2 4.9 0.5 0.1 1 0.2 1.5 0.2 0.5 0 1.1-0.1 1.6-0.2 3.1-0.7 5.5-3.5 5.5-6.8 0-2-0.8-3.8-2.2-5.1 0.5 1 0.9 2.1 0.9 3.3L82.4 224.8z" class="b"/></svg>