<?xml version="1.0" encoding="utf-8"?>
<!-- Generator: Adobe Illustrator 22.0.1, SVG Export Plug-In . SVG Version: 6.00 Build 0)  -->
<svg version="1.1" id="Layer_1" xmlns="http://www.w3.org/2000/svg" xmlns:xlink="http://www.w3.org/1999/xlink" x="0px" y="0px"
	 viewBox="0 0 250.1 250.1" style="enable-background:new 0 0 250.1 250.1;" xml:space="preserve">
<style type="text/css">
	.st0{fill:#FFFFFF;}
	.st1{fill:none;stroke:#FFFFFF;stroke-width:0.5434;stroke-miterlimit:3.864;}
	.st2{fill:none;stroke:#000000;stroke-width:0.2717;stroke-miterlimit:3.864;}
	.st3{fill:#FFFFFF;stroke:#000000;stroke-miterlimit:10;}
	.st4{fill:none;stroke:#000000;stroke-width:0.8022;stroke-miterlimit:3.864;}
</style>
<g>
	<path d="M124.8,5C58.5,5,4.5,58.9,4.5,125.2s54,120.3,120.3,120.3s120.3-54,120.3-120.3S191.1,5,124.8,5z"/>
	<path class="st0" d="M33.7,125.2c0-50.3,40.8-91.1,91.1-91.1s91.1,40.8,91.1,91.1s-40.8,91.1-91.1,91.1S33.7,175.6,33.7,125.2"/>
	<path class="st0" d="M221.7,159.9c0-2.1,1.7-3.8,3.8-3.8c2.1,0,3.8,1.7,3.8,3.8s-1.7,3.8-3.8,3.8S221.7,162,221.7,159.9
		 M20.2,158.1c0,2.1,1.7,3.8,3.8,3.8s3.8-1.7,3.8-3.8s-1.7-3.8-3.8-3.8C21.9,154.3,20.2,156,20.2,158.1 M17.5,141.4
		c5.4-0.2,8.9-4.1,8.8-9.5c-0.2-5.9-2.2-7.7-2.3-7.7l-2.6-0.5c-0.1,0-0.3,0.1-0.3,0.2c0,0.2,0.2,0.3,0.4,0.3c1.2,0.3,3.9,2.8,4,6.9
		c0.2,5-4.3,7.8-8.8,7.9c-4.9,0.2-8.3-2.2-8.5-7.2c-0.1-3.4,1.5-5.3,4.2-7c0.2-0.1,0.9-0.3,0.8-0.6c0-0.4-0.9-0.2-2.2-0.1
		c-1.7,0.1-2.1,0.2-2.1,0.4c0,0.3,0.3,0.4,0.3,0.6c0,0.8-1.9,2.2-1.8,7.1C7.6,137.8,12.1,141.6,17.5,141.4 M19.1,116.1
		c0.3,0.2,0.4,0.1,0.4-0.2l0.7-4.2c0.1-0.5-0.1-0.5-0.4-0.4l-5.4,1.3c-0.3,0.1-0.3,0.2-0.1,0.3L19.1,116.1z M22.1,110.7
		c-0.5,0.1-0.9,0.2-1,0.8l-0.7,4.7c-0.1,0.4-0.1,0.8,0.3,1.1l2.8,1.8c0.1,0.1,0.4,0.2,0.7,0.3c1.5,0.2,1.1-1.4,1.6-1.3
		c0.4,0.1,0.3,0.3,0.2,0.6c-0.1,0.6-0.3,1.2-0.4,1.8c-0.1,0.6-0.1,1.2-0.2,1.7c0,0.1-0.1,0.2-0.3,0.2c-0.5-0.1,0.1-1-1-1.8l-10-6.8
		c-2.5-1.7-2.8-1.8-2.8-2.1c0-0.2,0.7-0.3,0.9-0.3l11.6-2.7c0.8-0.2,1.8-0.3,2.6-0.7c1.1-0.5,0.8-1.8,1.3-1.7c0.2,0,0.2,0.2,0.1,0.3
		c-0.1,0.9-0.4,1.7-0.5,2.6c-0.1,0.6-0.1,1.2-0.2,1.7c0,0.1-0.1,0.5-0.3,0.4c-0.5-0.1-0.1-1.3-0.9-1.4c-0.5-0.1-1.5,0.2-2.1,0.3
		L22.1,110.7z M16.3,99.4c-1.8-0.4-0.9-1.8-1.4-2c-0.2-0.1-0.3,0.1-0.4,0.3c-0.1,0.3-0.1,0.8-0.4,2c-0.2,1-0.5,1.7-0.6,2.1
		c-0.1,0.3-0.1,0.4,0.2,0.5c0.4,0.1,0.7-1.7,1.8-1.4l10.6,2.6c1,0.2,1.5,0.4,1.7,1c0.2,0.8,0.1,0.9,0.3,1.1c0.2,0,0.2-0.1,0.3-0.3
		c0.2-0.8,0.4-1.7,0.5-2.6c0.4-1.6,0.9-3.2,1.3-4.7c0.2-0.9,0.4-1.4-0.2-2.2c-0.4-0.6-1-1.4-1.8-1.6c0,0-0.3,0-0.3,0.1
		c-0.1,0.3,1.9,1.5,0.7,6.3c-0.4,1.8-0.9,1.5-2.1,1.2L16.3,99.4z M29.9,91.8c2,0.7,0.8,2.1,1.4,2.3c0.2,0.1,0.3,0.1,0.5-0.3
		c0.1-0.3,0.2-0.7,0.6-2c0.3-0.9,0.7-1.7,0.9-2.2c0.1-0.3,0.1-0.4,0-0.5c-0.6-0.2-0.8,1.8-2.2,1.2l-10.9-3.9c-1.5-0.6-0.5-1.8-1-2
		c-0.2-0.1-0.2,0-0.3,0.3c-0.2,0.6-0.4,1.3-0.6,1.9c-0.3,0.8-0.6,1.4-0.9,2.2c0,0.2,0,0.2,0.1,0.3c0.4,0.2,0.6-1.6,2.1-1.1
		L29.9,91.8z M23.7,79.3c-1.3-0.6-1.2-0.6-0.3-2.4c0.4-0.8,1.2-2.8,2.1-3c0.6-0.1,1.4,0.7,1.6,0.2c0.1-0.1,0-0.5-2.1-1.5
		c-0.2-0.1-0.4-0.2-0.5,0c-0.3,0.6-1.1,2.4-1.3,2.8c-0.4,0.8-1,1.8-2.7,5.4c-0.3,0.6-0.3,0.7-0.1,0.8c0.2,0.1,0.5-0.3,0.6-0.4
		c0.7-1,1.6-0.5,2.5-0.1l8.9,4.3c2.1,1,0.9,2.2,1.4,2.4c0,0,0.2,0.1,0.3-0.1c0.2-0.3,0.4-1.1,0.9-2.1c0.9-1.8,1.1-1.9,1.1-2.1
		c0.1-0.1,0.2-0.4-0.1-0.6c-0.4-0.2-0.8,1.8-2.7,0.9l-3.9-1.9c-0.3-0.1-0.7-0.2-0.5-0.7l1.4-2.9c0.8-1.6,2.2-0.1,2.5-0.7
		c0.1-0.1,0-0.2-0.2-0.3c-0.5-0.2-1-0.5-1.5-0.7c-0.6-0.3-1.3-0.7-1.9-1c-0.2-0.1-0.4-0.1-0.5,0c-0.2,0.5,1.6,0.7,0.6,2.7l-1,2.1
		c-0.4,0.8-0.4,0.7-1,0.4L23.7,79.3z M29.6,64.9c-1.9,3.1-0.4,6.4,2.6,8.2c3.4,2.1,8,1.8,10.2-1.8c1.6-2.7,0.8-6.1-2.7-8.2
		C36.4,61,31.8,61.3,29.6,64.9 M42.5,72.3c-2.4,4-6.7,4.8-10.6,2.4c-3.8-2.3-4.8-7-2.6-10.7c2.3-3.8,6.7-5,10.5-2.7
		C44,63.7,45,68.2,42.5,72.3 M54.3,54.2c2.8,0.5,2.9-0.8,3.3-0.5c0.2,0.2-0.6,1.1-0.8,1.2c-1.1,1.2-2.4,1-3.9,0.8l-4.4-0.8
		c-1.4-0.2-1.1-0.5-2.8,1.3c-0.5,0.5-0.1,0.7,0.1,0.8l3.3,3.1c1.3,1.3,2.4-0.8,2.9-0.3c0.2,0.2,0,0.3-0.1,0.4
		c-0.1,0.1-0.5,0.5-1.8,1.8c-0.6,0.6-1,1.2-1.6,1.8c-0.1,0.1-0.2,0.1-0.3,0c-0.4-0.4,0.9-1.3-0.3-2.4l-8-7.5c-1.5-1.4-2.1,0.5-2.7,0
		c-0.1-0.1-0.1-0.3,0.1-0.5c0.3-0.3,0.2-0.2,1-1c0.8-0.9,1.6-1.9,2.4-2.7c0.2-0.2,3.2-4,6.2-1.2c1.2,1.1,1.5,3,0.9,4.5L54.3,54.2z
		 M44.7,55.8c0.3,0.3,1.1-0.8,1.8-1.5c0.6-0.7,1.8-2.5-0.2-4.3c-1.9-1.8-3.9-0.9-5.4,0.6c-0.5,0.6-0.9,0.9-0.3,1.4L44.7,55.8z
		 M58.2,49.2c1.8,2.4-0.3,2.8,0.1,3.4c0.1,0.1,0.2,0.2,0.4,0c0.1-0.1,1-0.8,1.6-1.3c0.8-0.6,1.4-0.9,1.8-1.2c0.2-0.1,0.1-0.3,0-0.4
		c-0.3-0.5-1.4,1.2-2.6-0.3l-5.2-7.1c-0.2-0.3-0.2-0.4-0.2-0.5c0.1-0.1,0.5,0.1,0.6,0.1l13.6,3c0.7,0.1,0.9,0.1,1,0
		c0.1-0.1,0-0.4-0.4-0.9l-7.3-10.1c-0.9-1.3,0.3-1.7,0-2.1c-0.1-0.1-0.2-0.1-0.3,0c-0.4,0.3-1.1,0.9-1.7,1.3
		c-0.6,0.4-1.1,0.7-1.6,1.1c-0.1,0.1-0.2,0.2-0.1,0.3c0.4,0.6,1.9-1.5,3.5,0.8l5.3,7.3c0.1,0.1,0.1,0.2,0.1,0.2c0,0-0.2,0-0.3,0
		l-15-3.2c-0.2,0-0.5-0.2-0.7-0.1c-0.3,0.2-0.5,0.5-0.8,0.7c-0.3,0.2-0.6,0.3-0.9,0.5c-0.1,0.1-0.2,0.3-0.1,0.4
		c0.5,0.6,1.8-1.9,4.5,1.7L58.2,49.2z M72.6,40c1.1,1.8-0.7,2.1-0.4,2.6c0.1,0.2,0.2,0.2,0.6,0c0.3-0.2,0.6-0.5,1.7-1.1
		c0.8-0.5,1.6-0.8,2.1-1.1c0.3-0.2,0.3-0.3,0.3-0.4c-0.3-0.6-1.7,0.8-2.5-0.4l-5.8-10c-0.8-1.4,0.8-1.7,0.5-2.2
		c-0.1-0.1-0.2-0.1-0.5,0c-0.6,0.3-1.1,0.7-1.7,1.1c-0.7,0.4-1.4,0.7-2.1,1.1c-0.2,0.1-0.2,0.1-0.1,0.3c0.2,0.4,1.5-0.8,2.3,0.5
		L72.6,40z M79.2,30.9c0,0.3,0.2,0.4,0.4,0.2l3.9-1.7c0.4-0.2,0.3-0.3,0.1-0.5l-4-3.9c-0.2-0.2-0.3-0.1-0.3,0.1L79.2,30.9z
		 M85.4,30.5c-0.4-0.4-0.7-0.6-1.2-0.4L79.9,32c-0.4,0.2-0.7,0.3-0.7,0.8l0,3.3c0,0.2,0.1,0.5,0.2,0.8c0.6,1.4,1.7,0.2,2,0.7
		c0.2,0.4-0.1,0.4-0.4,0.5c-0.6,0.2-1.1,0.4-1.7,0.7c-0.5,0.2-1,0.5-1.5,0.8c-0.1,0-0.2,0-0.3-0.1c-0.2-0.4,0.9-0.5,0.9-1.8
		l0.2-12.1c0.1-3,0-3.3,0.2-3.4c0.2-0.1,0.6,0.4,0.7,0.5l8.6,8.3c0.6,0.6,1.2,1.3,2,1.8c1,0.6,1.9-0.3,2.2,0.2
		c0.1,0.2-0.1,0.2-0.2,0.3c-0.8,0.4-1.7,0.6-2.4,1c-0.5,0.2-1,0.5-1.6,0.8c-0.1,0-0.4,0.2-0.5,0c-0.2-0.5,1.1-0.8,0.7-1.5
		c-0.2-0.4-1-1.2-1.4-1.6L85.4,30.5z M102.3,28.6c0.2,0.5,2.7,1.1,4.6,0.8c5.9-0.8,6.9-4.3,6.6-6.5c-1-7.1-11.1-2.8-11.8-7.7
		c-0.3-2.4,1.7-3.7,3.7-3.9c2.3-0.3,4.3,0.6,5.4,2.7c0.1,0.2,0.4,0.7,0.7,0.7c0.3,0,0.3-0.2,0.2-0.4l-0.9-3.5
		c-0.1-0.3-0.2-0.3-0.4-0.3c-0.3,0-0.3,0.3-0.5,0.4c-0.4,0.1-1.3-0.8-4.5-0.3c-3,0.4-5.5,2.4-5.1,5.7c0.9,6.8,11.1,2.5,11.8,7.5
		c0.4,2.7-1.8,4.4-4.3,4.8c-3.6,0.5-5.5-2-6-3.1c-0.2-0.5-0.2-0.8-0.6-0.8c-0.3,0-0.3,0.3-0.2,0.8L102.3,28.6z M119.5,25.9
		c0.1,1.3-1.7,1.1-1.6,1.6c0,0.2,0.1,0.3,0.3,0.3c0.1,0,0.5-0.1,2.9-0.2c0.6,0,1.2,0,1.7,0c0.2,0,0.2-0.2,0.2-0.3
		c0-0.7-1.7,0.1-1.8-1.7l-0.4-11c0-1.1-0.2-1.1,0.8-1.1l3.1-0.1c2.2-0.1,1.1,1.6,1.9,1.6c0.3,0,0.2-0.3,0.2-0.5l-0.2-1.7
		c0-0.5-0.2-0.6-0.6-0.6c-0.4,0-2.4,0.2-6.3,0.3c-2.8,0.1-4.4,0.1-6.1,0.1c-0.4,0-0.3,0.6-0.4,0.9l-0.2,2.1c0,0.1,0.1,0.3,0.2,0.2
		c0.3,0,0.3-0.3,0.3-0.5c0.3-1.2,0.4-1.5,1.7-1.6l3.5-0.1c0.3,0,0.2,0.8,0.2,1L119.5,25.9z M131.1,20.4c-0.2,0.3,0,0.4,0.3,0.4
		l4.2,0.2c0.5,0,0.5-0.1,0.4-0.4l-1.8-5.3c-0.1-0.3-0.2-0.3-0.3,0L131.1,20.4z M136.8,22.9c-0.2-0.5-0.3-0.8-0.9-0.9l-4.7-0.2
		c-0.4,0-0.8,0-1,0.4l-1.5,2.9c-0.1,0.1-0.2,0.5-0.2,0.7c-0.1,1.5,1.5,0.9,1.4,1.5c0,0.4-0.3,0.3-0.6,0.3c-0.6,0-1.2-0.1-1.8-0.2
		c-0.6,0-1.2,0-1.7,0c-0.1,0-0.2-0.1-0.2-0.2c0-0.5,1,0,1.6-1.2l5.7-10.7c1.4-2.6,1.5-3,1.8-3c0.2,0,0.4,0.6,0.4,0.8l3.9,11.3
		c0.3,0.8,0.5,1.7,0.9,2.5c0.6,1,1.9,0.6,1.8,1.1c0,0.2-0.2,0.2-0.3,0.2c-0.9,0-1.8-0.2-2.6-0.2c-0.6,0-1.2,0-1.7,0
		c-0.1,0-0.5,0-0.5-0.2c0-0.5,1.3-0.2,1.4-1c0-0.5-0.4-1.5-0.6-2.1L136.8,22.9z M146.8,27.7c-0.3,1.2-1.9,0.6-2,1.1
		c-0.1,0.2,0,0.3,0.2,0.3c0.1,0,0.5,0,2.9,0.6c0.6,0.1,1.2,0.4,1.7,0.5c0.2,0,0.2-0.1,0.2-0.2c0.2-0.6-1.7-0.4-1.3-2.1l2.6-10.6
		c0.3-1.1,0.1-1,1.1-0.8l3,0.7c2.1,0.5,0.6,1.8,1.4,2c0.3,0.1,0.3-0.2,0.3-0.4l0.3-1.7c0.1-0.5,0-0.6-0.4-0.8
		c-0.4-0.1-2.4-0.5-6.1-1.4c-2.7-0.7-4.3-1.1-5.9-1.6c-0.4-0.1-0.5,0.5-0.6,0.7l-0.7,2c0,0.1,0,0.3,0.1,0.3c0.3,0.1,0.4-0.2,0.5-0.4
		c0.7-1.1,0.8-1.4,2.1-1l3.4,0.9c0.3,0.1,0,0.9,0,1L146.8,27.7z M161.3,20.3c0.5-1.4,0.4-1.3,2.4-0.6c0.8,0.3,2.9,0.9,3.2,1.8
		c0.1,0.6-0.5,1.4,0,1.6c0.1,0,0.5,0,1.3-2.3c0.1-0.2,0.1-0.5,0-0.5c-0.6-0.2-2.5-0.8-2.9-1c-0.9-0.3-1.9-0.8-5.7-2.2
		c-0.6-0.2-0.7-0.2-0.8,0c-0.1,0.2,0.3,0.5,0.5,0.5c1,0.6,0.7,1.5,0.4,2.4l-3.4,9.2c-0.3,1-0.6,1.5-1.2,1.5c-0.8,0.1-0.9,0-1.1,0.2
		c-0.1,0.2,0.1,0.2,0.2,0.3c0.8,0.3,1.7,0.5,2.5,0.8c1.6,0.5,3,1.2,4.6,1.8c0.9,0.3,1.3,0.5,2.2,0c0.7-0.3,1.5-0.9,1.7-1.6
		c0,0,0.1-0.2-0.1-0.3c-0.3-0.1-1.7,1.7-6.4,0c-1.7-0.6-1.4-1-0.9-2.2l1.4-3.7c0.1-0.3,0.2-0.7,0.6-0.5l3,1.1c1.7,0.6,0.4,2.1,1,2.4
		c0.1,0,0.2,0,0.3-0.2c0.2-0.5,0.4-1.1,0.5-1.6c0.2-0.6,0.5-1.3,0.8-2c0.1-0.2,0.1-0.4-0.1-0.5c-0.5-0.2-0.5,1.6-2.6,0.9l-2.2-0.8
		c-0.8-0.3-0.8-0.3-0.5-1L161.3,20.3z M182.8,26.2c1-1.6,2.1-0.1,2.5-0.7c0.2-0.3-0.5-0.6-0.6-0.6c-0.7-0.4-1.5-0.8-2.2-1.2
		c-0.6-0.4-1.1-0.8-1.7-1.1c-0.1-0.1-0.5-0.2-0.6-0.1c-0.4,0.7,1.7,1.3,0.9,2.6l-4.5,7.5c-2.1,3.4-2.9,7.4,3,11
		c6.5,3.9,9.6-1.8,10.2-2.9l4.2-6.9c1.2-2.1,2.3-0.8,2.6-1.4c0.1-0.1,0-0.4-0.1-0.4c-0.4-0.2-0.9-0.4-1.3-0.6
		c-0.9-0.5-1.7-1.1-2.6-1.7c-0.1,0-0.3,0-0.4,0.1c-0.5,0.9,2.1,1.2,0.8,3.4l-4.4,7.2c-1.6,2.6-4.2,4.8-8.4,2.3
		c-3-1.8-4.4-4.8-2.2-8.4L182.8,26.2z M191.1,47.9c-2.1,2.2-2.8,0.2-3.3,0.8c-0.1,0.1-0.1,0.2,0.1,0.4c0.1,0.1,1,0.8,1.5,1.3
		c0.8,0.7,1.1,1.2,1.5,1.5c0.2,0.2,0.3,0,0.4,0c0.4-0.4-1.5-1.2-0.2-2.6l6-6.4c0.3-0.3,0.4-0.3,0.4-0.3c0.1,0.1,0.1,0.5,0.1,0.6
		l-0.3,13.9c0,0.7,0.1,0.9,0.2,1c0.1,0.1,0.4-0.1,0.8-0.5l8.5-9.1c1.1-1.2,1.7,0,2.1-0.4c0.1-0.1,0.1-0.2,0-0.3
		c-0.4-0.3-1.1-0.9-1.6-1.4c-0.5-0.5-0.9-1-1.4-1.4c-0.1-0.1-0.2-0.1-0.3,0c-0.5,0.5,1.8,1.5-0.1,3.6l-6.1,6.6
		c-0.1,0.1-0.2,0.2-0.2,0.1c0,0,0-0.2,0-0.3l0.3-15.3c0-0.2,0.1-0.6-0.1-0.7c-0.2-0.2-0.5-0.4-0.8-0.6c-0.2-0.2-0.4-0.5-0.7-0.8
		c-0.1-0.1-0.3-0.2-0.4-0.1c-0.5,0.6,2.2,1.4-0.8,4.7L191.1,47.9z M202.7,60.3c-1.6,1.4-2.2-0.3-2.6,0.1c-0.2,0.1-0.2,0.3,0.1,0.5
		c0.2,0.2,0.6,0.5,1.4,1.5c0.6,0.7,1.1,1.5,1.5,1.8c0.2,0.3,0.3,0.3,0.4,0.2c0.5-0.4-1.1-1.5,0-2.5l8.7-7.6c1.2-1.1,1.9,0.4,2.2,0.1
		c0.1-0.1,0.1-0.2-0.1-0.5c-0.4-0.5-0.9-1-1.4-1.5c-0.5-0.6-1-1.2-1.5-1.8c-0.1-0.1-0.2-0.1-0.3,0c-0.4,0.3,1.1,1.3-0.1,2.4
		L202.7,60.3z M208.7,70.2c-0.2,0.4-0.8,1.2-0.6,1.4c0.2,0.3,0.9,0,1.4-0.2l13.4-3.1c1.5-0.4,1.4,0.4,1.8,0.2c0.2-0.1,0.1-0.3,0-0.5
		c-0.2-0.2-0.4-0.4-1-1.3c-0.3-0.4-0.5-0.8-0.8-1.2c-0.1-0.2-0.2-0.2-0.4-0.1c-0.4,0.3,0.7,1.2-0.1,1.7c-0.3,0.3-1,0.5-1.4,0.6
		l-9.7,2.4c-0.3,0.1-0.6,0.2-0.7,0c-0.1-0.2,0.2-0.6,0.8-1.7l4.9-8.2c0.1-0.2,0.3-0.5,0.6-0.7c0.6-0.5,1.2,0.3,1.4,0.1
		c0.1-0.1,0.1-0.3,0-0.4c-0.2-0.2-0.7-0.8-1.1-1.3c-0.4-0.5-0.7-1.1-1.1-1.7c-0.1-0.2-0.3-0.2-0.4-0.1c-0.4,0.3,0.6,0.9-0.1,2.1
		L208.7,70.2z M226,75.9c1.3-0.6,1.2-0.6,2.1,1.3c0.4,0.8,1.4,2.8,0.9,3.6c-0.3,0.5-1.4,0.6-1.2,1.1c0.1,0.1,0.3,0.3,2.5-0.7
		c0.2-0.1,0.4-0.2,0.3-0.4c-0.3-0.6-1.1-2.4-1.3-2.8c-0.4-0.8-0.7-1.9-2.4-5.6c-0.3-0.6-0.4-0.7-0.5-0.6c-0.2,0.1-0.1,0.6-0.1,0.7
		c0.3,1.1-0.6,1.6-1.5,1.9l-9,4c-0.9,0.4-1.5,0.6-1.9,0.2c-0.6-0.5-0.6-0.7-0.9-0.6c-0.2,0.1-0.1,0.2-0.1,0.4
		c0.4,0.8,0.8,1.6,1.1,2.4c0.7,1.5,1.2,3,1.9,4.5c0.4,0.9,0.5,1.3,1.5,1.6c0.7,0.2,1.6,0.4,2.3,0.1c0,0,0.2-0.1,0.2-0.3
		c-0.1-0.3-2.4,0-4.4-4.6c-0.7-1.7-0.2-1.7,1-2.2l3.6-1.6c0.3-0.1,0.6-0.3,0.8,0.1l1.3,2.9c0.7,1.7-1.3,1.8-1,2.4
		c0.1,0.1,0.2,0.2,0.4,0.1c0.5-0.2,1-0.5,1.5-0.7c0.6-0.3,1.3-0.5,2-0.8c0.2-0.1,0.4-0.2,0.3-0.4c-0.2-0.5-1.6,0.8-2.5-1.3l-0.9-2.1
		c-0.4-0.8-0.3-0.8,0.3-1L226,75.9z M223.7,98.7c-1.7,2.2-0.6,3-1.1,3.1c-0.2,0.1-0.6-1.1-0.7-1.2c-0.5-1.5,0.2-2.6,1.1-3.8l2.8-3.5
		c0.9-1.1,0.9-0.8,0.1-3.1c-0.2-0.7-0.6-0.4-0.8-0.3l-4.3,1.5c-1.8,0.6-0.4,2.5-1.1,2.7c-0.2,0.1-0.2-0.1-0.3-0.3
		c-0.1-0.2-0.1-0.7-0.7-2.4c-0.3-0.8-0.6-1.5-0.9-2.3c0-0.1,0-0.2,0.1-0.3c0.5-0.2,0.7,1.4,2.3,0.9l10.4-3.6
		c1.9-0.7,0.5-2.1,1.2-2.4c0.1,0,0.3,0.1,0.4,0.3c0.1,0.4,0,0.3,0.4,1.3c0.4,1.2,0.9,2.3,1.2,3.4c0.1,0.3,2.1,4.7-1.9,6
		c-1.6,0.6-3.3-0.1-4.4-1.3L223.7,98.7z M226.7,89.4c-0.4,0.1,0.1,1.4,0.5,2.3c0.3,0.9,1.3,2.7,3.9,1.8c2.5-0.8,2.7-3,2-5
		c-0.2-0.7-0.4-1.2-1.1-0.9L226.7,89.4z M223.3,103c-0.4,0.2-0.7,2.3-0.3,3.8c1.1,4.8,4,5.4,5.8,5c5.8-1.3,1.5-9.3,5.4-10.2
		c1.9-0.4,3.1,1.1,3.5,2.8c0.4,1.8-0.1,3.6-1.8,4.6c-0.2,0.1-0.6,0.4-0.5,0.6c0.1,0.2,0.2,0.2,0.4,0.2l2.8-1
		c0.2-0.1,0.3-0.2,0.2-0.3c-0.1-0.2-0.3-0.2-0.3-0.4c-0.1-0.3,0.5-1.2-0.1-3.7c-0.6-2.4-2.4-4.3-5-3.7c-5.5,1.3-1.2,9.2-5.3,10.2
		c-2.2,0.5-3.8-1.2-4.2-3.2c-0.7-2.9,1.2-4.7,2.1-5.1c0.4-0.2,0.7-0.3,0.6-0.6c-0.1-0.2-0.3-0.3-0.7-0.1L223.3,103z M226.9,115.6
		c-2.1,0.3-1.6-1.5-2.2-1.4c-0.2,0-0.3,0.1-0.3,0.5c0,0.3,0.2,0.7,0.4,2c0.1,0.9,0.2,1.8,0.2,2.3c0.1,0.4,0.1,0.4,0.3,0.4
		c0.6-0.1-0.1-1.9,1.3-2.1l11.4-1.6c1.6-0.2,1.3,1.4,1.8,1.3c0.2,0,0.2-0.1,0.2-0.4c-0.1-0.7-0.3-1.3-0.4-2
		c-0.1-0.8-0.1-1.6-0.2-2.3c0-0.2-0.1-0.2-0.3-0.2c-0.5,0.1,0.2,1.7-1.4,1.9L226.9,115.6z M227.1,126.5c-1.3,0-1.1-1.7-1.6-1.6
		c-0.2,0-0.3,0.1-0.3,0.3c0,0.1,0.1,0.5,0.2,2.9c0,0.6-0.1,1.2,0,1.7c0,0.2,0.2,0.2,0.3,0.2c0.7,0-0.1-1.7,1.7-1.8l11-0.4
		c1.1,0,1.1-0.2,1.1,0.8l0.1,3.1c0.1,2.2-1.6,1.1-1.6,1.9c0,0.3,0.3,0.2,0.5,0.2l1.7-0.2c0.5,0,0.6-0.1,0.6-0.6
		c0-0.4-0.2-2.4-0.3-6.3c-0.1-2.8-0.1-4.4-0.1-6.1c0-0.4-0.6-0.3-0.9-0.4l-2.1-0.2c-0.1,0-0.3,0.1-0.2,0.2c0,0.3,0.3,0.3,0.5,0.3
		c1.2,0.3,1.5,0.4,1.6,1.7l0.1,3.5c0,0.3-0.8,0.2-1,0.2L227.1,126.5z M232.6,140.5c-0.3,0.1-0.8,0.4-1.2,0.3l-5.1-0.8
		c-1.5-0.2-0.7-1.8-1.3-1.9c-0.2,0-0.3,0.1-0.3,0.3s-0.1,1-0.2,1.9c-0.1,0.8-0.4,2-0.4,2.3c-0.1,0.3-0.1,0.5,0.1,0.5
		c0.7,0.1,0.3-1.7,2.2-1.4l5.2,0.8c0.3,0.1,0.4,0.2,0.9,0.7l4.2,3.7c0.5,0.4,1,0.8,1.3,1.4c0.1,0.2,0.1,0.5,0.3,0.6
		c0.1,0,0.3-0.1,0.3-0.2c0.1-0.6,0.1-1.2,0.2-1.9c0.1-0.5,0.2-1,0.3-1.5c0-0.2,0-0.4-0.2-0.5c-0.5-0.1-0.3,1.6-1.4,1.4
		c-0.6-0.1-0.9-0.4-1.1-0.6l-3.2-2.8c-0.2-0.2-0.4-0.4-0.4-0.5c0-0.1,0.2-0.2,0.4-0.4l4.5-1.9c0.2-0.1,0.6-0.3,0.9-0.2
		c0.6,0.1,0.5,1.1,0.8,1.1c0.2,0,0.2-0.2,0.3-0.4c0-0.2,0-0.8,0.1-1.5c0.2-1.4,0.4-1.8,0.5-2.4c0-0.1-0.1-0.3-0.3-0.3
		c-0.4-0.1-0.3,1-1.3,1.4L232.6,140.5z M31.3,170.4c-4.7,2.7-5.9,7.9-3.3,12.5c2.9,5.1,5.6,5.7,5.7,5.7l2.6-0.8
		c0.1,0,0.2-0.2,0.1-0.4c-0.1-0.1-0.3-0.2-0.5-0.1c-1.2,0.3-4.8-0.6-6.8-4.2c-2.5-4.3,0.1-8.9,4-11.1c4.2-2.4,8.4-2,10.9,2.4
		c1.7,2.9,1.1,5.4-0.5,8.2c-0.1,0.2-0.6,0.7-0.4,0.9c0.2,0.4,0.8-0.2,2-1c1.4-0.9,1.8-1.1,1.7-1.4c-0.1-0.2-0.4-0.2-0.5-0.4
		c-0.4-0.7,0.7-2.8-1.8-7.1C41.8,168.8,36,167.7,31.3,170.4 M38.3,194.2c-1.6,1.4-2.2-0.3-2.6,0.1c-0.2,0.1-0.2,0.3-0.1,0.4
		c0,0.1,0.3,0.2,1.3,1.3c0.8,0.9,1.7,2.1,1.9,2.3c0.1,0.1,0.3,0.2,0.4,0.1c0.5-0.4-1.2-1.7-0.1-2.6l4-3.5c0.2-0.1,0.3-0.2,0.4-0.1
		l5.2,6c0.2,0.2,0,0.3-0.3,0.5l-3.9,3.4c-1,0.9-1.8-0.4-2.2-0.1c-0.3,0.2,0,0.4,0.1,0.6c0.3,0.3,0.7,0.7,1.6,1.7
		c0.5,0.6,0.9,1.1,1.3,1.6c0.1,0.1,0.3,0.1,0.3,0c0.4-0.4-1.2-1.6,0-2.6l8.6-7.5c1.1-1,1.8,0.4,2.1,0.1c0.1-0.1,0.2-0.3-0.1-0.7
		c-0.3-0.3-0.6-0.5-1.1-1.1c-0.3-0.3-0.9-1.2-1.4-1.7c-0.2-0.2-0.3-0.2-0.4-0.1c-0.4,0.3,1,1.3-0.2,2.3l-3.3,2.9
		c-0.1,0.1-0.4,0.4-0.6,0.3l-5.2-5.9c-0.2-0.2-0.2-0.3,0.1-0.5l3.5-3.1c1.2-1.1,1.9,0.4,2.2,0.1c0.1-0.1,0.1-0.2-0.1-0.4
		c-0.4-0.5-0.9-0.9-1.4-1.5c-0.5-0.6-1-1.2-1.5-1.8c-0.1-0.1-0.3-0.2-0.4-0.1c-0.4,0.3,1.2,1.4,0,2.5L38.3,194.2z M57.6,207.2
		c-0.3,0.1-0.2,0.3,0,0.5l3.4,2.6c0.4,0.3,0.5,0.1,0.5-0.1l1.4-5.4c0.1-0.3,0-0.3-0.3-0.2L57.6,207.2z M61,212.4
		c0.1-0.5,0.2-0.9-0.3-1.2l-3.8-2.9c-0.3-0.2-0.6-0.5-1.1-0.2l-2.9,1.6c-0.1,0.1-0.4,0.3-0.6,0.5c-0.9,1.2,0.7,1.6,0.4,2.1
		c-0.2,0.3-0.4,0.1-0.7-0.1c-0.5-0.4-0.9-0.8-1.4-1.2c-0.5-0.4-1-0.6-1.4-1c-0.1-0.1-0.1-0.2,0-0.3c0.3-0.4,0.9,0.5,2-0.1L62,204
		c2.6-1.4,2.9-1.6,3.1-1.5c0.2,0.1-0.1,0.7-0.1,0.9L61.9,215c-0.2,0.8-0.6,1.7-0.6,2.6c-0.1,1.2,1.2,1.6,0.9,2
		c-0.1,0.2-0.2,0.1-0.4,0c-0.7-0.5-1.4-1.1-2.1-1.7c-0.5-0.4-1-0.6-1.4-1c-0.1-0.1-0.4-0.3-0.2-0.5c0.3-0.4,1.2,0.5,1.7-0.1
		c0.3-0.4,0.5-1.4,0.7-2L61,212.4z M67.8,219.8c-1.6,2.6-2.7,0.8-3.1,1.4c-0.1,0.1-0.1,0.2,0.1,0.4c0.1,0.1,1.1,0.6,1.8,1
		c0.9,0.5,1.4,0.9,1.8,1.2c0.2,0.1,0.3,0,0.3-0.1c0.3-0.5-1.7-0.8-0.7-2.5l4.5-7.5c0.2-0.4,0.3-0.4,0.4-0.3c0.1,0.1,0.2,0.5,0.2,0.6
		l2.6,13.7c0.1,0.7,0.3,0.9,0.4,0.9c0.2,0.1,0.3-0.2,0.6-0.7l6.4-10.7c0.8-1.4,1.7-0.4,2-0.8c0.1-0.1,0-0.2-0.1-0.3
		c-0.4-0.3-1.3-0.7-1.9-1c-0.6-0.4-1.1-0.8-1.6-1.1c-0.1-0.1-0.2-0.1-0.3,0.1c-0.4,0.6,2.1,1.1,0.7,3.6l-4.6,7.7
		c-0.1,0.1-0.1,0.2-0.2,0.2c0,0-0.1-0.1-0.1-0.3l-2.9-15.1c0-0.2,0-0.6-0.2-0.7c-0.3-0.2-0.6-0.3-0.9-0.4c-0.3-0.2-0.5-0.4-0.8-0.6
		c-0.1-0.1-0.3-0.1-0.4,0c-0.4,0.7,2.5,0.9,0.2,4.8L67.8,219.8z M85.8,228.8c-1,2.8-2.5,1.3-2.7,2c0,0.1-0.1,0.2,0.2,0.3
		c0.1,0.1,1.2,0.4,1.9,0.6c1,0.4,1.5,0.6,2,0.8c0.2,0.1,0.3-0.1,0.3-0.2c0.2-0.5-1.8-0.5-1.2-2.3l3-8.3c0.2-0.4,0.2-0.4,0.3-0.4
		c0.1,0.1,0.3,0.5,0.3,0.5l5.1,12.9c0.3,0.6,0.4,0.8,0.6,0.8c0.2,0.1,0.3-0.2,0.5-0.8l4.3-11.7c0.5-1.5,1.6-0.7,1.8-1.2
		c0.1-0.1,0-0.2-0.1-0.2c-0.5-0.2-1.4-0.4-2.1-0.7c-0.7-0.2-1.2-0.5-1.8-0.8c-0.1-0.1-0.2,0-0.3,0.1c-0.2,0.7,2.3,0.7,1.3,3.4
		l-3.1,8.4c-0.1,0.2-0.1,0.2-0.1,0.2s-0.1-0.1-0.2-0.3L90,217.9c-0.1-0.2-0.1-0.6-0.4-0.7c-0.3-0.1-0.7-0.1-1-0.2
		c-0.3-0.1-0.6-0.3-0.9-0.4c-0.1,0-0.3,0-0.4,0.1c-0.3,0.8,2.6,0.5,1.1,4.7L85.8,228.8z M108.1,224.8c0.2-1.4,0.2-1.4,2.2-1
		c0.8,0.1,3.1,0.4,3.5,1.2c0.3,0.5-0.2,1.5,0.3,1.6c0.1,0,0.4-0.1,0.8-2.5c0-0.2,0-0.5-0.1-0.5c-0.7-0.1-2.6-0.3-3.1-0.4
		c-0.9-0.1-2-0.4-6-1c-0.6-0.1-0.8,0-0.8,0.1c0,0.2,0.4,0.4,0.6,0.4c1.1,0.4,1,1.4,0.8,2.3l-1.5,9.7c-0.2,1-0.3,1.6-0.9,1.8
		c-0.7,0.2-0.9,0.2-1,0.4c0,0.2,0.1,0.2,0.3,0.3c0.8,0.1,1.8,0.2,2.6,0.3c1.6,0.2,3.2,0.6,4.8,0.9c0.9,0.1,1.4,0.3,2.2-0.4
		c0.6-0.5,1.3-1.1,1.4-1.9c0,0,0-0.3-0.1-0.3c-0.3-0.1-1.3,2-6.2,1.2c-1.8-0.3-1.5-0.8-1.3-2l0.6-3.9c0.1-0.3,0.1-0.7,0.5-0.6
		l3.1,0.5c1.8,0.3,0.8,2,1.4,2.1c0.2,0,0.2-0.1,0.3-0.2c0.1-0.6,0.1-1.1,0.2-1.7c0.1-0.7,0.3-1.4,0.4-2.1c0-0.2,0-0.4-0.2-0.4
		c-0.5-0.1-0.2,1.7-2.4,1.4l-2.3-0.4c-0.8-0.1-0.8-0.1-0.7-0.9L108.1,224.8z M120.8,226.1c0.1-1.9,1.6-1.2,1.7-1.7
		c0-0.3-0.1-0.3-0.4-0.3c-0.3,0-0.8,0-2.1,0c-1.1-0.1-1.7-0.2-2.2-0.2c-0.3,0-0.4,0-0.4,0.2c0,0.4,1.8,0.4,1.7,1.5l-0.6,10.9
		c-0.1,1-0.1,1.6-0.7,1.8c-0.7,0.3-0.9,0.3-1,0.5c0,0.2,0.1,0.2,0.3,0.2c0.9,0.1,1.8,0,2.6,0.1c1.6,0,3.3,0.3,4.9,0.3
		c0.9,0.1,1.4,0.1,2.1-0.6c0.5-0.5,1.1-1.2,1.2-2c0,0,0-0.3-0.2-0.3c-0.3,0-1.1,2.2-6.1,1.9c-1.8-0.1-1.6-0.6-1.5-1.9L120.8,226.1z
		 M141.4,235.3c0.4,2.6-1.8,2-1.7,2.7c0,0.3,0.1,0.4,0.6,0.3c0.4-0.1,0.9-0.2,2.5-0.4c1.1-0.2,2.2-0.2,2.8-0.3
		c0.4-0.1,0.5-0.1,0.5-0.3c-0.1-0.8-2.3,0.1-2.6-1.6l-1.9-13.9c-0.3-1.9,1.7-1.6,1.6-2.2c0-0.2-0.1-0.2-0.5-0.2
		c-0.8,0.1-1.6,0.3-2.4,0.4c-1,0.1-1.9,0.2-2.9,0.3c-0.2,0-0.2,0.1-0.2,0.3c0.1,0.6,2.1-0.2,2.4,1.6L141.4,235.3z M150,235.5
		c0.2,0.4,2.2,0.7,3.8,0.3c4.8-1.1,5.4-4,5-5.8c-1.3-5.8-9.3-1.5-10.2-5.4c-0.4-1.9,1.1-3.1,2.8-3.5c1.8-0.4,3.6,0.1,4.6,1.8
		c0.1,0.2,0.4,0.6,0.6,0.5c0.2-0.1,0.2-0.2,0.2-0.4l-1-2.8c-0.1-0.2-0.2-0.3-0.3-0.2c-0.2,0.1-0.2,0.3-0.4,0.3
		c-0.3,0.1-1.2-0.5-3.7,0.1c-2.4,0.6-4.4,2.4-3.7,5c1.3,5.5,9.2,1.2,10.2,5.3c0.5,2.2-1.2,3.8-3.2,4.2c-2.9,0.7-4.6-1.2-5.1-2.1
		c-0.2-0.4-0.3-0.7-0.6-0.6c-0.2,0.1-0.3,0.3-0.1,0.7L150,235.5z M162.6,219.1c-0.8-1.7,0.9-1.9,0.7-2.3c-0.1-0.2-0.2-0.2-0.5-0.1
		c-0.3,0.1-0.7,0.4-1.9,0.9c-1,0.4-1.6,0.6-2,0.8c-0.3,0.1-0.4,0.2-0.3,0.4c0.2,0.4,1.8-0.5,2.2,0.5l4.4,10c0.4,0.9,0.6,1.5,0.2,1.9
		c-0.5,0.6-0.7,0.6-0.6,0.9c0.1,0.2,0.2,0.1,0.4,0.1c0.8-0.4,1.6-0.8,2.4-1.1c1.5-0.7,3-1.2,4.5-1.9c0.9-0.4,1.3-0.5,1.6-1.5
		c0.2-0.7,0.4-1.6,0.1-2.3c0,0-0.1-0.2-0.3-0.2c-0.3,0.1,0,2.4-4.6,4.4c-1.6,0.7-1.7,0.2-2.2-1L162.6,219.1z M178.3,217.6
		c0,0.3,0.2,0.3,0.4,0.2l3.7-2.1c0.4-0.2,0.3-0.4,0.1-0.5l-4.4-3.4c-0.2-0.2-0.3-0.1-0.3,0.2L178.3,217.6z M184.4,216.6
		c-0.4-0.3-0.7-0.5-1.2-0.2l-4.1,2.4c-0.4,0.2-0.7,0.4-0.6,0.9l0.3,3.3c0,0.2,0.1,0.5,0.2,0.7c0.8,1.3,1.8,0,2,0.5
		c0.2,0.3-0.1,0.4-0.3,0.6c-0.5,0.3-1.1,0.5-1.6,0.8c-0.5,0.3-1,0.7-1.4,0.9c-0.1,0.1-0.2,0-0.3-0.1c-0.2-0.4,0.8-0.6,0.7-1.9
		l-1-12.1c-0.3-3-0.4-3.3-0.1-3.4c0.2-0.1,0.6,0.4,0.8,0.5l9.4,7.4c0.7,0.5,1.4,1.2,2.1,1.6c1.1,0.5,1.9-0.5,2.2,0
		c0.1,0.2,0,0.2-0.2,0.3c-0.8,0.4-1.6,0.8-2.3,1.2c-0.5,0.3-1,0.7-1.5,0.9c-0.1,0.1-0.4,0.2-0.5,0.1c-0.3-0.4,1-0.9,0.6-1.6
		c-0.2-0.4-1.1-1-1.6-1.4L184.4,216.6z M194.6,211.6c2,2.3-0.1,2.8,0.4,3.4c0.1,0.1,0.2,0.2,0.4,0c0.1-0.1,0.9-0.9,1.5-1.4
		c0.8-0.7,1.3-1,1.7-1.4c0.2-0.1,0.1-0.3,0-0.4c-0.4-0.4-1.3,1.4-2.6-0.1l-5.8-6.6c-0.3-0.3-0.3-0.4-0.2-0.5c0.1-0.1,0.6,0,0.6,0
		l13.8,1.8c0.7,0.1,0.9,0,1-0.1c0.1-0.1-0.1-0.4-0.5-0.8l-8.2-9.4c-1-1.2,0.2-1.7-0.2-2.1c-0.1-0.1-0.2-0.1-0.3,0
		c-0.4,0.3-1,1-1.6,1.5c-0.5,0.4-1,0.8-1.5,1.2c-0.1,0.1-0.1,0.2,0,0.3c0.5,0.5,1.7-1.6,3.6,0.5l5.9,6.8c0.1,0.1,0.1,0.2,0.1,0.2
		c0,0-0.2,0-0.4,0l-15.2-1.9c-0.2,0-0.6-0.2-0.7,0c-0.2,0.2-0.4,0.5-0.7,0.7c-0.3,0.2-0.6,0.4-0.8,0.6c-0.1,0.1-0.2,0.3-0.1,0.4
		c0.5,0.6,1.7-2.1,4.6,1.3L194.6,211.6z M210.1,195.9c0.3,0.2,1.1,0.9,1.3,0.8c1-0.1,2.2-1.3,2.8-2.1c1.8-2.4,2.3-5.7-1.7-8.7
		c-3.8-2.9-7.9-2-10.4,1.3c-1.2,1.6-1,1.9-0.2,2.5L210.1,195.9z M201.3,191.3c-1.8-1.3-2.3,0.5-2.7,0.1c-0.1-0.1-0.1-0.3,0-0.4
		c0.4-0.5,0.9-1,1.2-1.5c0.9-1.1,1.6-2.3,2.7-3.8c2.3-3,6.8-4.3,10-1.9c3.9,3,5.3,6.9,1.7,11.7c-0.7,0.9-1.4,1.7-2.1,2.6
		c-0.1,0.2-1.3,1.9-1.4,2c-0.1,0.1-0.2,0.1-0.3,0c-0.4-0.3,0.9-1.2-0.7-2.4L201.3,191.3z M220.2,185.1c0.4,0.1,2.1-1.1,2.9-2.5
		c2.5-4.2,0.8-6.7-0.7-7.6c-5.1-3.1-7.6,5.6-11,3.6c-1.7-1-1.5-3-0.6-4.4c1-1.6,2.6-2.5,4.5-2.1c0.2,0.1,0.7,0.1,0.8-0.1
		c0.1-0.2,0-0.3-0.2-0.4l-2.7-1.2c-0.2-0.1-0.3,0-0.4,0.1c-0.1,0.2,0.1,0.4,0,0.5c-0.2,0.3-1.2,0.5-2.5,2.7c-1.3,2.1-1.3,4.8,1,6.2
		c4.8,2.9,7.3-5.8,10.9-3.6c1.9,1.2,1.9,3.5,0.8,5.2c-1.5,2.5-4.1,2.5-5.1,2.2c-0.4-0.1-0.7-0.3-0.8,0c-0.1,0.2,0,0.4,0.4,0.5
		L220.2,185.1z"/>
	<path d="M185.8,127.6c0-7.4-1.5-14.5-4-21l29.6-13L205.2,80L178.2,99c-4-7.1-9.4-13.2-15.9-18.2l19.8-27.1l0.2-0.3l-12.6-8
		l-14.4,30.6l0,0c-7.3-4.1-15.5-6.7-24.2-7.5l4.1-35.3l-14.9-0.6l-0.3,0l2.9,35.8c-8.7,0.4-17,2.7-24.3,6.4L84.9,42.6l-0.1-0.3
		L71,50.6l20.3,28.8C84.6,83.9,79,89.9,74.8,96.7L46.1,76.8l-7,14.1l31.7,13.3c-3,6.8-4.7,14.2-4.9,21.9l-33.1,0.3l1.8,13.4
		l31.7-4.8c1,8.1,3.6,15.9,7.8,23H35.6v0.9h178.9v-0.9h-37c3.9-6.5,6.4-13.7,7.6-21.2l32,5.6l0.3,0.1l1.6-11.8l0-0.3L185.8,127.6z
		 M176.7,157.1H74.8c-5.2-8.9-8-19-8-29.3c0-32.2,26.4-58.3,58.9-58.3s58.9,26.2,58.9,58.3C184.7,138.2,181.9,148.3,176.7,157.1z"/>
</g>
<g>
	<path class="st0" d="M157.5,153l3.3-5l-3.4-2.6c0,0,0.2-1.7-0.4-3.8c-0.6-2.1-1.4-3.7-1.6-4.7c-0.1-1,0-4.7-2.4-4.3
		c-1.2,0.2-0.8-3.7-0.8-3.7l2.2-3.9l-2.9-3.2c0,0,0.5-2.9-1-5.9c-1.1-2.2-0.5-2.9-0.5-2.9s-1.3-4.3-3.2-4.2
		c-3.7,0.2-2.2,4.5-2.2,4.5s-2.4-7.6-7.1-10.6c-3-1.9-4.9-2.8-4.9-4c0-2.7-0.2-5.8-0.2-5.8l1.2-3c0,0-4.1-5.3-4.1-6.1
		c0-3.9-0.8-5.3-1-5.7c-0.2-0.6-2.3-0.6-3.2-0.2c-0.7,0.3-1.2,4.5-1.5,4.9s-4.6,5.4-4.6,5.4s1.4,9.2,1,9.6c-2.8,2.3-3.2,2.9-3.2,2.9
		c-6.4,3.2-9.1,9.8-9.1,9.6s-1.2-0.7-1.2-0.7s1.5-2.8,1-3.9s-4-2.7-5.2-0.7c-0.5,0.8-0.7,4.6-0.7,4.6s-1.5,6.4-1.5,6.9
		s-0.5,1.9-0.5,1.9l-2.4,1.2l2.4,4.7c0,0,1.2,2.6-0.9,3c-4.4,0.7-3.1,4.3-2.9,3.3c0.1-0.6-0.4,3.1-0.9,4c-2.9,5.4-1.4,6.6-1.4,6.6
		l-3.3,0.9l2.2,5.4l-0.3,26.6l-6.4,1.4l3.4,5.5l-0.8,28.5c11,4.8,23.2,7.4,36,7.4c13.1,0,25.6-2.8,36.8-7.8l0.1-23.9l2.6-5.4l-6.1-4
		L157.5,153z"/>
	<path d="M100.1,203.2c1.9-0.1,2.1-1.7,2.6-1.7c0.2,0,0.3,0.1,0.3,0.3c0,0.4-0.6,1.6-0.8,2.2c-0.2,0.4-0.4,1.3-1.1,1.3
		c-0.5,0-2,0.1-4.1,0.2c-1.2,0.1-2,0.2-2.5,0.2c-0.2,0-0.5,0-0.5-0.2c0-0.4,0.3-0.6,2.6-3.9c1-1.5,2.9-4.4,2.9-6.2
		c0-1.4-0.9-2.2-2.4-2.2c-1.6,0.1-2.3,1.5-2.7,1.5c-0.2,0-0.3-0.1-0.3-0.2c0-0.5,1.5-2.8,4.1-2.9c1.8-0.1,3.2,0.9,3.3,2.8
		c0.1,3-5,8.3-5,8.8c0,0.1,0.1,0.2,0.7,0.2L100.1,203.2z M107.9,192c-2.1,0.1-2.3,2.9-2.2,4.5c0.1,4.2,1.8,7.2,3.9,7.1
		c2.1-0.1,2.3-2.9,2.2-4.5C111.7,194.9,110,191.8,107.9,192 M108.7,190.9c1.9-0.1,4.6,1.2,4.7,6c0.2,7.3-4.4,8-4.8,8.1
		c-1.9,0.1-4.6-1.2-4.7-6C103.7,191.6,108.3,190.9,108.7,190.9 M117.9,191.4c-2.1,0.1-2.3,2.9-2.2,4.5c0.1,4.2,1.8,7.2,3.9,7.1
		c2.1-0.1,2.3-2.9,2.2-4.5C121.7,194.2,120,191.2,117.9,191.4 M118.8,190.2c1.9-0.1,4.6,1.2,4.7,6c0.2,7.3-4.4,8-4.8,8.1
		c-1.9,0.1-4.6-1.2-4.7-6C113.8,191,118.4,190.3,118.8,190.2 M127.5,201.5c-0.5,0-0.7-0.1-0.7-0.2c0-0.5,5-5.9,5-8.8
		c0-1.9-1.5-2.9-3.3-2.8c-2.6,0.2-4.2,2.4-4.1,2.9c0,0.1,0.1,0.3,0.3,0.2c0.3,0,1.1-1.4,2.7-1.5c1.4-0.1,2.3,0.7,2.4,2.2
		c0,1.8-1.8,4.8-2.9,6.2c-2.3,3.3-2.6,3.6-2.6,3.9c0,0.2,0.3,0.2,0.5,0.2c0.4,0,1.2-0.2,2.5-0.2c2.1-0.1,3.6-0.1,4.1-0.2
		c0.6,0,0.9-0.9,1-1.3c0.3-0.6,0.9-1.8,0.9-2.2c0-0.1-0.1-0.3-0.3-0.3c-0.5,0-0.7,1.6-2.6,1.7L127.5,201.5z"/>
	<path d="M156.4,152.5l2.8-4l-3.2-2.6c0.1-0.4,0.6-2,0.1-3.9c-0.3-1.1-0.6-2-0.9-2.8c-0.3-0.8-0.5-1.5-0.6-1.9c0-0.1,0-0.2-0.1-0.4
		c-0.1-1.1-0.4-2.8-1.3-3c-0.5-0.1-1,0-1.3,0.3c-0.3,0.3-0.4,0.6-0.3,1.1c0.1,0.7,0,1.7-0.4,3c-0.2,0.6-0.4,2.2-0.6,3.5l0.1-13.2
		l1.9-3.1l-2.4-2.8c0.1-0.5,0.5-3.7-1-6.3c-1.1-1.8-1.1-2.6-1.1-2.7c0.1-0.3,1.2-2.2-0.1-3.1c-0.5-0.3-1.2-0.4-1.8-0.2
		c-0.5,0.2-0.8,0.5-0.9,0.8c-0.3,0.9-0.1,2.4,1,2.8c0.2,0.3-0.9,3.1-2.1,5.8c-0.1-1.3-0.5-5.4-2.3-9.4c-1.5-3.2-4.1-6.8-8.7-8.7
		c0,0-2.1-0.9-2.1-2.8c0-1.8,0.1-6.3,0.1-6.8l1.2-1.9l-0.1-0.1c-1.2-1.7-3.5-5.2-3.6-5.8c-0.1-0.4-0.2-1.5-0.3-2.6
		c-0.1-1.2-0.2-1.9-0.3-2.1c-0.2-0.4-0.7-1.1-1.8-0.6c-0.5,0.2-0.7,1.5-0.9,3.4c-0.1,0.7-0.2,1.4-0.3,1.6c-0.2,0.4-3,3.6-4.4,5.3
		l0,0.1l0,0.1c0.3,2,1.1,7.2,1.1,7.7c-0.3,2-2.3,4.1-2.8,4.6c-4.4,1.7-7.2,5-8.8,7.9c-1.3,2.3-2.1,4.5-2.5,6.3
		c-0.5-1.9-1.2-4.6-1.2-4.8c0-0.2-0.3-1-0.4-1.3c0.2-0.3,1.1-1.5,0.6-2.5c-0.3-0.7-1-1.4-1.8-1.4c0,0-0.1,0-0.1,0
		c-0.4,0-1,0.2-1.6,1.1c-0.5,0.8,0,2.6,0.1,2.9c-0.1,0.2-0.4,1.8-0.7,2.7c-0.3,0.8-1.6,5.2-1.6,5.7c0,0.4,0.5,1.3,0.8,1.7l-2.7,0.6
		l2,3.6l0.2,12.3c-0.2-0.9-0.5-2.1-0.7-2.5l-0.1-0.3c-0.2-0.5-0.3-0.8-0.2-1.3c0.1-0.6,0.3-2.6-0.3-3.3c-0.6-0.7-1.2-0.8-1.6-0.7
		c-0.8,0.1-1.5,1-1.7,1.4c-0.1,0.3,0,0.7,0.1,1.1c0.1,0.6,0.3,1.2,0,1.7c-0.5,0.9-2.3,6.9-2.4,7.7c-0.1,0.7,0.2,1.9,0.3,2.4
		l-2.9,0.5l2.2,4.3L93.3,175l-5.7,0.9l2.9,4.8l-0.2,5.6l-1.1,23.3c0.2,0.1,0.3,0.1,0.5,0.2l0.9-23.5l0.3-5.5l-0.1-0.1l0-0.3
		l-2.7-4.1l49-6.5l0.4,1.9l-1.2,3.2l0,0l0.5,41c8.2-1.1,16.1-3.3,23.4-6.4l0.1-25.2l2.1-4.3l-5.4-2.5L156.4,152.5z M155.8,146.1
		l1.9,1.6l-2.1-1.2C155.6,146.5,155.7,146.3,155.8,146.1z M158.6,148.5l-0.9,1.5l-21.6-12.6l0-1.2L158.6,148.5z M151.4,138.4
		c0.4-1.4,0.5-2.4,0.4-3.1c0-0.2,0-0.4,0.1-0.6c0.2,0.6,1,2.7,1.2,3.3c0.1,0.2-1.8,6.1-1.8,6.2l-0.7-0.4
		C150.6,143.2,151.2,139.3,151.4,138.4z M150.3,128.2l-15.9-10.2v-2.1l16.6,11.2L150.3,128.2z M145.4,111.3c0.1-0.3,0.4-0.6,0.8-0.7
		c0.5-0.2,1.1-0.1,1.6,0.2c1.1,0.8-0.1,2.8-0.1,2.8c0,0.1,0,0.4,0.4,1.3c-0.1-0.2-0.2-0.3-0.3-0.5c-0.4-0.8-1.1-0.5-1.3-0.3
		c0-0.1,0-0.2,0-0.3c0-0.1-0.1-0.1-0.1-0.1C145.3,113.4,145.2,112.1,145.4,111.3z M151.8,125.7l-0.7,1.2l-16.7-11.4v-1.6
		L151.8,125.7z M121.2,91.5c-0.2-1-0.3-1.8-0.3-2.2c0,0,0.1-0.1,0.1-0.1l6.3-1.1l-1,12.1c0,0-0.3,0-0.4,0c-0.2,0-0.4,0-0.7,0.1
		c0-0.3,0-5.5-0.7-6.9C123.8,92.1,121.8,91.6,121.2,91.5z M119,101.8L119,101.8c2-0.8,4.2-1.2,6.9-1.2c0.1,0,0.2,0,0.3,0
		c6.3,0.1,10.2,2.7,12.8,5.7l-1.6,1.8l-1.5-2.7l-1,2.2l-2.1-3.5l-1.8,4l-2.7-3.7l-2.3,3.4l-2.1-3.2l-2.3,3.7l-1.5-3.4l-2.7,3.9
		l-0.7-3.7l-5.7,3.4C112.6,106,115.1,103.3,119,101.8z M103.3,106.8c0.3-0.5,0.8-0.9,1.4-0.9c0.7,0,1.3,0.7,1.6,1.3
		c0.4,1-0.7,2.3-0.7,2.4c0,0,0,0.1,0.1,0.1l-2.3,0.1c0-0.1,0-0.2,0-0.2C103.4,109.6,102.8,107.6,103.3,106.8z M101.1,118
		c0-0.3,0.5-1.9,0.9-3.4c0.3,1.7,3.1,2.8,3.1,2.8l-1.4,1.9l-1.8,0.3C101.7,119.3,101.1,118.3,101.1,118z M99.5,120.5l34.4-6.8l0,2.5
		l-33.2,6.5L99.5,120.5z M100.7,122.9l33.4-6.5v18l16.1,8.9v0.2l-14.3-7.8l0-0.1l-2.2,0.4l-0.2-17.9l-32.4,5.8v-0.2L100.7,122.9z
		 M96.8,129.6c0.1-0.4,0.7-1.1,1.4-1.2c0.5-0.1,0.9,0.1,1.3,0.6c0.5,0.6,0.4,2.4,0.2,3c-0.1,0.3,0,0.6,0,0.9c-0.4-0.4-1-0.6-1.9-0.7
		c-0.5-0.1-0.8,0.1-1.1,0.4c0,0,0-0.1,0-0.1c0.3-0.6,0.1-1.3,0-1.9C96.8,130.2,96.8,129.8,96.8,129.6z M94.6,140
		c0-0.2,0.2-1.1,0.5-2.1c0.2,0.3,0.9,1.6,1.1,2.1c0.2,0.4,3,1.1,4.3,1.4l-5.7,0.9C94.8,142.2,94.5,140.7,94.6,140z M135.6,139.6
		l-41.3,7.2l-1.9-3.7l43.4-7.1L135.6,139.6z M135.9,139.9l0.1-2l21.4,12.4l-1.1,1.8h0v0L135.9,139.9z M160.1,184.1l-23-10.6l0.6-1.6
		l23.3,10.3L160.1,184.1z M161.2,181.9l-23.4-10.4l-0.4-1.7l24.7,10.2L161.2,181.9z"/>
	<polygon class="st1" points="95.8,173.6 96,148.6 134,141.7 134.5,168 	"/>
	<path class="st0" d="M148.6,157c0-1-0.4-5.2-2.4-5.8c-0.5-0.1-0.8-0.1-1.1,0.1c-0.7,0.5-0.7,1.8-0.7,2c0.1,0.2,0.6,1.4,1,2
		c0.1,0.1,0.1,0.3,0.1,0.4c-0.1,0.6-1.2,1.2-1.5,1.4v13.7l4.6,2.3L148.6,157L148.6,157z"/>
	<g>
		<path class="st0" d="M120.7,131.5c0.4-0.6,0.6-2.6,0.4-4c-0.2-1.2-0.6-2.3-3.7-2.3c-2.9,0-3.7,1.7-4.1,4.6
			c-0.4,2.6,2.7,4.2,2.9,4.3c0.2,0,1.2,0.2,2,0C118.9,133.9,120.3,132.1,120.7,131.5z"/>
		<path class="st0" d="M111.4,130.6c-0.7,1.9,0.2,3.6,2.6,4.9c0.6,0.3,1.7,0.3,3-0.2c1-0.3,1.7-0.7,1.9-0.9c-0.1,0-0.2,0-0.5,0.1
			c-1.3,0.3-2.5,0.1-3.4-0.6c-1.7-1.2-2-3.5-2.1-3.8c-0.1-0.2-0.4-0.7-0.8-0.7c0,0,0,0,0,0C111.9,129.5,111.6,129.9,111.4,130.6z"/>
		<path class="st0" d="M122,133.3c0.1,0,0.1,0,0.2,0c0.5-0.3,1.4-2.7,1.2-4.8c-0.1-1.3-0.5-3-2.2-3.6c-0.9-0.3-1.1-0.2-1.1-0.1
			c-0.1,0.1,0,0.2,0.1,0.3c0.2,0.2,1.9,1.9,1.7,3.4c-0.2,1.3-0.9,2.9-1,3.2C121,132.2,121.6,133.2,122,133.3z"/>
		<path class="st2" d="M117.8,127.1c0,0-1,0.2-2.2,3.1c-0.6,1.3-0.2,4.1,1,4.1c1.2,0,3.2-1.2,3.9-2.9c0.6-1.6,0.2-2.8-0.4-3.4
			C119.4,127.3,117.8,127.1,117.8,127.1z"/>
	</g>
	<path class="st0" d="M142.6,128.8c-0.9,0-1.4,1-1.5,1.1c-0.2,1-0.5,3.6,0.1,4.3c0.1,0.1,0.2,0.2,0.3,0.2c1.4,0,2.3-0.9,2.3-2.3
		C143.9,130.8,143.5,128.8,142.6,128.8z"/>
	<g>
		<path class="st3" d="M120.4,156.4c0,0-0.8-1-1.2-2.4c-0.4-1.4-0.3-2.4,0.9-2.8c0,0-0.8-4.3-5.2-4c-3.8,0.3-4.8,3.6-5,4.3
			c-0.7,2.4,1.7,1.5-0.2,5.7c-0.3,0.7-0.3,2.5-0.3,2.5l-0.2,12.1l11.3-1.6L120.4,156.4z"/>
		<path class="st2" d="M113.7,170.2l-0.1-12.8c0,0-1.8-3.6,0-5.9c1.4-1.8,2.7-2.4,3.8-2c1.1,0.4,1.8,2.2,1.8,2.2l1-0.7
			c0,0-1.1-4.8-5.7-3.9c-4.6,0.8-4.8,5.5-4.8,5.5s0.8,1.1,0.8,2c0,0.8-1,2.9-1,2.9l-0.2,13.2L113.7,170.2z"/>
	</g>
</g>
<path class="st4" d="M0.4,125.1C0.4,56.2,56.2,0.5,125,0.5s124.6,55.8,124.6,124.6S193.9,249.6,125,249.6S0.4,193.9,0.4,125.1z"/>
</svg>
