<?xml version="1.0" encoding="utf-8"?>
<!-- Generator: Adobe Illustrator 22.0.1, SVG Export Plug-In . SVG Version: 6.00 Build 0)  -->
<svg version="1.1" id="Layer_1" xmlns="http://www.w3.org/2000/svg" xmlns:xlink="http://www.w3.org/1999/xlink" x="0px" y="0px"
	 width="250.12px" height="250.12px" viewBox="0 0 250.12 250.12" style="enable-background:new 0 0 250.12 250.12;"
	 xml:space="preserve">
<path style="fill:none;stroke:#000000;stroke-width:3.7124;" d="M248.2,125.06c0,68.01-55.13,123.14-123.14,123.14
	S1.92,193.07,1.92,125.06C1.92,57.05,57.05,1.92,125.06,1.92S248.2,57.05,248.2,125.06z"/>
<path style="fill:none;stroke:#000000;stroke-width:1.285;" d="M153.27,135.68c-4.7-0.1-7.95,2.31-10.81,2.62
	c-2.87,0.32-6.33-0.39-7.35-0.6c-1.02-0.21-0.8,47.94-0.72,48.77c0.08,0.82,2.95,0.62,3.67,0.6c1.56-0.04,6.35-1.9,13.74-2.47
	c7.29-0.56,9.81,1.97,10.35,2.84c1.05,1.71,1.46,1.15,1.46,1.15l0.84-46.15C164.44,142.44,160.8,135.84,153.27,135.68z
	 M165.41,142.17l-0.97,45.98c0,0,0.04,1.27,0.23,1.02c2.91-3.69,9.32-4.72,10.94-4.7c5.96,0.11,9.73,0.91,11.93,1.5
	c0.73,0.2,8.8-10.05,8.8-10.05c0.39-15.45,0.88-41,0.1-40.81c-1.11,0.28-5.12,1.53-8.21,1.37c-3.08-0.16-5.58-1.22-10.66-0.82
	C169.43,136.31,165.41,142.17,165.41,142.17z"/>
<path d="M140.27,160.44v-3.66h0.31c0.07,0.25,0.14,0.41,0.2,0.48c0.07,0.07,0.17,0.11,0.3,0.11c0.06,0,0.16-0.02,0.27-0.04
	l0.83-0.22v-0.6c0-0.2-0.04-0.35-0.13-0.46c-0.09-0.11-0.25-0.2-0.48-0.26v-0.32h4.03v0.32c-0.23,0.07-0.39,0.15-0.48,0.26
	c-0.09,0.1-0.13,0.26-0.13,0.47v11.66c0,0.21,0.05,0.37,0.13,0.48c0.09,0.11,0.25,0.2,0.48,0.26v0.32h-4.03v-0.32
	c0.23-0.07,0.39-0.16,0.48-0.26c0.09-0.11,0.13-0.26,0.13-0.48v-8.71l-0.91,0.23c-0.21,0.06-0.36,0.13-0.46,0.23
	c-0.09,0.1-0.17,0.27-0.24,0.51H140.27z M147.94,168.6c0.04-0.03,0.1-0.08,0.19-0.15c0.11-0.09,0.22-0.13,0.33-0.13
	c0.15,0,0.36,0.06,0.63,0.19c0.79,0.36,1.48,0.62,2.07,0.75c0.59,0.14,1.25,0.21,1.98,0.21c2.09,0,3.8-0.68,5.11-2.06
	c1.27-1.32,1.9-3.06,1.9-5.2c0-1.06-0.17-2.07-0.49-3.04c-0.34-1.01-0.86-1.84-1.56-2.48c-1.06-0.98-2.52-1.47-4.38-1.47
	c-1.71,0-3.13,0.42-4.25,1.27c-1.15,0.87-1.73,2.03-1.73,3.48c0,0.73,0.15,1.39,0.46,2.01c0.32,0.63,0.77,1.15,1.33,1.54
	c1,0.69,2.2,1.04,3.6,1.04c0.88,0,1.65-0.13,2.32-0.4c0.67-0.26,1.32-0.7,1.97-1.31c-0.06,0.88-0.21,1.58-0.45,2.12
	c-0.24,0.53-0.61,1-1.1,1.39c-0.76,0.59-1.68,0.88-2.76,0.88c-0.49,0-1.01-0.07-1.54-0.21c-0.54-0.15-0.98-0.33-1.32-0.55
	c-0.41-0.27-0.62-0.54-0.62-0.81c0-0.09,0.02-0.23,0.06-0.39l-0.27-0.14l-1.71,3.3L147.94,168.6z M153.62,157.49
	c1.01,0.01,1.82,0.26,2.41,0.76c0.52,0.42,0.77,0.97,0.77,1.65c0,0.64-0.26,1.18-0.77,1.6c-0.61,0.51-1.41,0.76-2.41,0.76
	c-0.99,0-1.79-0.25-2.41-0.76c-0.51-0.42-0.77-0.96-0.77-1.62c0-0.67,0.26-1.22,0.77-1.63
	C151.84,157.74,152.64,157.49,153.62,157.49 M179.74,156.09c-0.04,0.03-0.1,0.08-0.18,0.15c-0.1,0.09-0.21,0.13-0.32,0.13
	c-0.16,0-0.37-0.06-0.64-0.19c-0.77-0.36-1.46-0.61-2.05-0.75c-0.6-0.14-1.26-0.21-1.99-0.21c-2.09,0-3.8,0.69-5.11,2.06
	c-1.27,1.32-1.9,3.06-1.9,5.2c0,1.06,0.16,2.07,0.49,3.04c0.35,1.01,0.87,1.84,1.56,2.48c1.05,0.98,2.51,1.47,4.38,1.47
	c1.73,0,3.16-0.42,4.27-1.27c1.15-0.88,1.73-2.03,1.73-3.47c0-0.73-0.16-1.4-0.46-2.02c-0.33-0.63-0.77-1.15-1.33-1.53
	c-1.01-0.7-2.21-1.05-3.61-1.05c-0.87,0-1.64,0.13-2.31,0.4c-0.67,0.26-1.33,0.7-1.97,1.31c0.06-0.87,0.22-1.58,0.46-2.12
	c0.24-0.54,0.6-1,1.1-1.39c0.76-0.59,1.68-0.88,2.75-0.88c0.5,0,1.02,0.07,1.55,0.21c0.53,0.14,0.98,0.33,1.32,0.56
	c0.41,0.27,0.62,0.54,0.62,0.8c0,0.09-0.02,0.22-0.05,0.39l0.27,0.14l1.7-3.3L179.74,156.09z M174.04,162.43
	c1.02,0.01,1.83,0.26,2.43,0.76c0.52,0.42,0.77,0.97,0.77,1.65c0,0.65-0.26,1.18-0.77,1.6c-0.61,0.5-1.41,0.76-2.41,0.76
	c-1,0-1.8-0.25-2.41-0.76c-0.51-0.42-0.77-0.97-0.77-1.63c0-0.66,0.26-1.21,0.77-1.62C172.26,162.69,173.06,162.43,174.04,162.43
	 M187.08,155.22c-1.08,0.02-2.02,0.23-2.83,0.67c-0.98,0.52-1.75,1.25-2.32,2.2c-0.72,1.2-1.08,2.62-1.08,4.25
	c0,1.22,0.22,2.36,0.66,3.42c0.3,0.72,0.73,1.36,1.28,1.94c1.14,1.18,2.58,1.77,4.31,1.77c1.05,0,1.99-0.22,2.84-0.66
	c0.96-0.51,1.73-1.24,2.32-2.21c0.33-0.55,0.6-1.2,0.79-1.95c0.19-0.75,0.29-1.48,0.29-2.21c0-2.31-0.64-4.13-1.94-5.46
	C190.26,155.81,188.82,155.22,187.08,155.22 M187.08,157.56c1.04,0.01,1.87,0.49,2.47,1.42c0.56,0.86,0.84,1.97,0.84,3.34
	c0,1.26-0.28,2.34-0.84,3.22c-0.6,0.95-1.42,1.42-2.46,1.42c-1.03,0-1.85-0.47-2.46-1.42c-0.56-0.88-0.84-1.97-0.84-3.27
	c0-1.31,0.28-2.4,0.84-3.28C185.24,158.04,186.06,157.56,187.08,157.56 M134.79,139.65h-3.28v51.31h52.04l15.92-19.38v-31.93h-2.66
	l0.03,2.89c0,0-0.57,20.27-1.22,33.59l-8.09,9.85c-1.76-0.5-2.54-0.66-2.97-0.77c-2.18-0.56-7.6-0.7-11.87-0.35
	c-4.27,0.35-7.77,4.02-8.02,4.31c-0.24,0.29-0.23-0.49-0.23-0.49l0.97-46.51c0,0,0.68-0.84,1.24-1.44c0.56-0.6,1.18-1.08,1.18-1.08
	h-5.6c0,0,0.45,0.47,1.02,1.11c0.56,0.64,1.2,1.68,1.2,1.68s0.04,46.28-0.84,46.15c-0.87-0.13-1.46-1.14-2.63-2.3
	c-1.17-1.16-3.96-1.5-7.06-1.77c-3.11-0.26-12.68,1.87-15.86,2.54c-3.18,0.67-3.67-0.6-3.67-0.6s-0.07-11.93-0.04-25.94
	L134.79,139.65z M56.09,102.36c1.85-1.81,7.36-2.06,11.7-0.66c5.83,1.88,9.15,2.7,18.3,3.64c9.17,0.94,17.19-3.55,24.25-4.06
	c7.06-0.51,10.37,2.16,8.6,4.08c-1.92,2.08-3.98-0.18-6.45,0c-3.97,0.29-8.32,3.92-9.54,5.27c-1.23,1.35-9.21,7.49-15.9,7.9
	c-8.65,0.53-14.8-5.31-18.52-9.31c-2.46-2.65-3.59-3.65-7.31-3.6c-2.82,0.04-1.49,0.34-3.48,0.11
	C56.05,105.51,54.97,103.44,56.09,102.36 M78.73,102.36C78.6,99,76.8,91.47,79.14,83.92c1.36-4.38,10.68-10.23,10.68-19.09
	c0-4.05-9.02-9.4-9.02-9.4s0.18,8.98-3.24,15.25c-2.61,4.79-5.46,4.16-10.41,12.25C61.42,92.31,78.73,102.36,78.73,102.36
	 M94.37,69.71c0,0-1.09,6.53-5.24,9.18c-4.15,2.65-7.17,5.11-8.01,10.96c-1.08,7.54,4.71,12.91,4.71,12.91s1.3-9.41,3.51-12.91
	c2.21-3.5,7.65-7.43,8.88-11.2C99.45,74.89,94.37,69.71,94.37,69.71 M101.44,77.35c0,0-0.2,5.62-4.81,8.44
	c-4.6,2.82-6.17,5.16-6.17,8.23c0,3.49,5.46,8.74,5.46,8.74c0.44-3.33-0.13-3.62,1.49-7.52c1.4-3.36,6.78-3.64,8.64-6.86
	C108.83,83.55,101.44,77.35,101.44,77.35 M125.14,37.5v86.64h87.47C212.12,76.23,173.16,37.54,125.14,37.5z M156.52,70.82
	c0,10.14-13.36,18.29-25.57,18.29v-8.09c9.33,0,18.17-5.58,18.17-13.02c0-7.45-8.82-13.74-18.17-13.74l-0.14-2
	C143.72,52.26,156.52,60.67,156.52,70.82z M130.8,47.99c18.8-0.04,37.64,10.98,37.64,26.87c0,14.63-18.81,26.84-37.51,26.84V91.66
	c14.22,0,29.42-9.27,29.42-20.85c0-11.58-15.05-20.63-29.42-20.63L130.8,47.99z M130.91,119.83v-15.28
	c20.48,0,41.76-13.11,41.76-29.64c0-16.53-21.29-29.21-41.79-29.21v-2.1c26.18,0,53.13,16.83,53.13,37.95
	C184.01,102.67,157.03,119.83,130.91,119.83z M103.1,164.09l1.32-0.51v2.94c-0.53,0.51-1.11,0.77-1.74,0.77
	c-0.42,0-0.76-0.13-1.02-0.39c-0.26-0.26-0.39-0.6-0.39-1c0-0.4,0.14-0.74,0.41-1.01C101.95,164.63,102.43,164.36,103.1,164.09z
	 M87.03,148.23c0.96,0,1.75-0.3,2.37-0.91c0.62-0.61,0.92-1.38,0.92-2.33c0-0.94-0.32-1.72-0.96-2.34
	c-0.64-0.62-1.45-0.93-2.41-0.93c-0.94,0-1.71,0.31-2.32,0.93c-0.6,0.62-0.91,1.41-0.91,2.36c0,0.95,0.31,1.73,0.93,2.33
	C85.26,147.94,86.05,148.23,87.03,148.23z M37.51,124.14h87.63v88.48c-0.03,0-0.05,0-0.08,0c-48.36,0-87.57-39.2-87.57-87.56
	C37.49,124.75,37.5,124.44,37.51,124.14z M69.59,166.14c0.41,0.77,0.95,1.38,1.62,1.83c0.68,0.45,1.56,0.68,2.65,0.68
	c0.8,0,1.49-0.09,2.09-0.26c0.59-0.17,1.19-0.46,1.8-0.86v-1.92c-1.09,0.8-2.29,1.21-3.58,1.21c-0.93,0-1.68-0.28-2.27-0.84
	c-0.59-0.56-0.9-1.32-0.95-2.27h6.98v-0.25c0-1.54-0.39-2.78-1.18-3.7c-0.78-0.92-1.83-1.38-3.15-1.38c-1.37,0-2.48,0.47-3.33,1.42
	c-0.85,0.95-1.28,2.17-1.28,3.68C68.98,164.49,69.19,165.37,69.59,166.14z M82.99,172.03h-2.15l-4.5,10.58l-4.53-10.58h-2.17
	l6.49,15.13h0.49L82.99,172.03z M86.16,177.17H84.2v9.92h1.96V177.17z M86.34,174.15c0-0.32-0.12-0.6-0.35-0.82
	c-0.23-0.22-0.51-0.34-0.83-0.34c-0.3,0-0.57,0.12-0.8,0.35c-0.23,0.24-0.35,0.5-0.35,0.8c0,0.31,0.11,0.58,0.35,0.81
	c0.23,0.23,0.5,0.35,0.8,0.35c0.32,0,0.6-0.11,0.83-0.34C86.23,174.74,86.34,174.47,86.34,174.15z M87.2,159.5
	c-0.8-0.75-1.58-1.12-2.32-1.12c-0.95,0-1.9,0.77-2.85,2.3l-0.11,0.17v-2.28h-1.97v9.92h1.97v-5.19c0-0.83,0.23-1.54,0.69-2.15
	c0.46-0.6,1.01-0.91,1.64-0.91c0.58,0,1.22,0.32,1.9,0.97L87.2,159.5z M94.72,184.8c-0.78,0.47-1.53,0.7-2.23,0.7
	c-0.94,0-1.41-0.57-1.41-1.7v-4.86h3.14v-1.77h-3.14v-2.05l-3.69,3.63v0.19h1.73v4.4c0,0.9,0.04,1.51,0.12,1.83
	c0.08,0.32,0.18,0.58,0.31,0.78c0.12,0.2,0.28,0.37,0.46,0.53c0.6,0.52,1.35,0.79,2.24,0.79c0.89,0,1.71-0.21,2.47-0.64V184.8z
	 M90.54,155.55c0-0.32-0.11-0.6-0.34-0.82c-0.23-0.22-0.51-0.33-0.83-0.33c-0.3,0-0.57,0.12-0.8,0.35c-0.23,0.23-0.35,0.5-0.35,0.8
	c0,0.31,0.11,0.58,0.35,0.81c0.23,0.24,0.5,0.35,0.8,0.35c0.33,0,0.6-0.11,0.83-0.35C90.43,156.14,90.54,155.87,90.54,155.55z
	 M88.4,158.57v9.92h1.96v-9.92H88.4z M95.27,158.57v-2.05l-3.69,3.62v0.2h1.73v4.4c0,0.9,0.04,1.51,0.12,1.83
	c0.08,0.32,0.19,0.58,0.31,0.78c0.12,0.2,0.28,0.38,0.46,0.53c0.6,0.52,1.35,0.79,2.24,0.79c0.89,0,1.71-0.21,2.47-0.64v-1.83
	c-0.78,0.47-1.53,0.7-2.23,0.7c-0.94,0-1.41-0.56-1.41-1.7v-4.85h3.14v-1.77H95.27z M103.6,185.32c-0.5,0.35-0.87,0.53-1.11,0.53
	c-0.23,0-0.35-0.17-0.35-0.51v-4.22c0-0.83-0.02-1.4-0.07-1.7c-0.05-0.3-0.16-0.6-0.33-0.9c-0.17-0.3-0.37-0.54-0.58-0.72
	c-0.65-0.56-1.51-0.84-2.58-0.84c-1.43,0-2.53,0.45-3.29,1.35v2.15c1.01-1.11,2.06-1.66,3.13-1.66c1.19,0,1.79,0.6,1.79,1.79v0.53
	l-2.51,0.87c-0.83,0.29-1.47,0.68-1.92,1.17c-0.45,0.49-0.67,1.05-0.67,1.67c0,0.69,0.23,1.26,0.69,1.72
	c0.46,0.46,1.04,0.69,1.73,0.69c0.94,0,1.83-0.33,2.66-0.97c0.15,0.66,0.65,0.99,1.49,0.99c0.3,0,0.58-0.05,0.84-0.16
	c0.27-0.11,0.63-0.3,1.07-0.59V185.32z M108.83,167.78c0.7,0.34,1.28,0.57,1.74,0.69c0.46,0.12,0.98,0.19,1.57,0.19
	c1,0,1.82-0.26,2.45-0.78c0.64-0.52,0.95-1.19,0.95-2c0-1.13-0.83-2.17-2.48-3.1l-0.7-0.4c-0.53-0.3-0.9-0.54-1.11-0.76
	c-0.21-0.21-0.32-0.43-0.32-0.66c0-0.26,0.12-0.48,0.35-0.64c0.23-0.16,0.54-0.24,0.92-0.24c0.74,0,1.69,0.35,2.86,1.06v-1.94
	c-1.02-0.54-2.02-0.82-2.99-0.82c-0.93,0-1.7,0.24-2.29,0.72c-0.6,0.48-0.89,1.1-0.89,1.87c0,0.59,0.2,1.13,0.59,1.63
	c0.39,0.5,1.22,1.1,2.49,1.81c0.63,0.36,1.04,0.63,1.23,0.83c0.19,0.19,0.28,0.43,0.28,0.72c0,0.28-0.15,0.52-0.44,0.72
	s-0.65,0.3-1.06,0.3c-0.39,0-0.88-0.12-1.46-0.36c-0.58-0.24-1.14-0.56-1.7-0.94V167.78z M105.36,159.22
	c-0.65-0.56-1.51-0.84-2.58-0.84c-1.43,0-2.53,0.45-3.29,1.35v2.15c1.02-1.11,2.06-1.66,3.13-1.66c1.19,0,1.79,0.6,1.79,1.79v0.53
	l-2.51,0.87c-0.82,0.29-1.46,0.68-1.91,1.17c-0.45,0.49-0.67,1.05-0.67,1.68c0,0.69,0.23,1.26,0.69,1.72
	c0.46,0.46,1.04,0.68,1.73,0.68c0.94,0,1.83-0.32,2.66-0.97c0.15,0.66,0.65,0.99,1.49,0.99c0.3,0,0.58-0.05,0.85-0.16
	c0.27-0.1,0.63-0.3,1.07-0.59v-1.2c-0.5,0.35-0.87,0.53-1.11,0.53c-0.23,0-0.35-0.17-0.35-0.51v-4.22c0-0.83-0.02-1.4-0.07-1.7
	c-0.05-0.3-0.16-0.6-0.33-0.9C105.77,159.64,105.58,159.4,105.36,159.22z M96.72,144.87l-4.18,5.03h2.47l2.94-3.56l3.11,3.56h2.52
	l-4.38-5.03l4.08-4.89h-2.51l-2.83,3.4l-2.94-3.4h-2.48L96.72,144.87z M87.05,139.95c-1.52,0-2.79,0.48-3.8,1.45
	c-1.01,0.97-1.51,2.18-1.51,3.63c0,1.44,0.5,2.64,1.5,3.6c1,0.96,2.24,1.44,3.73,1.44c1.54,0,2.82-0.47,3.83-1.42
	c1.01-0.95,1.52-2.13,1.52-3.56c0-1.47-0.5-2.7-1.5-3.67C89.81,140.44,88.56,139.95,87.05,139.95z M70,134.83l6.49,15.13h0.49
	l6.37-15.13H81.2l-4.5,10.58l-4.53-10.58H70z M59.34,153.43h-2.17l6.49,15.13h0.49l6.37-15.13h-2.15l-4.5,10.58L59.34,153.43z
	 M75.28,160.72c-0.42-0.42-0.98-0.63-1.68-0.63c-0.7,0-1.28,0.21-1.73,0.63c-0.45,0.43-0.74,1.03-0.88,1.81h4.99
	C75.93,161.75,75.7,161.14,75.28,160.72z M97.48,183.5c-0.28,0.27-0.41,0.6-0.41,1.01c0,0.41,0.13,0.75,0.39,1
	c0.26,0.26,0.6,0.39,1.02,0.39c0.63,0,1.2-0.25,1.74-0.77v-2.94l-1.32,0.51C98.23,182.96,97.76,183.23,97.48,183.5z"/>
<path d="M31.05,161.37c-0.94,1.43-2.76,1.85-4.1,0.96c-1.35-0.9-1.69-2.71-0.74-4.15c0.93-1.41,2.73-1.84,4.1-0.94
	C31.66,158.13,31.99,159.96,31.05,161.37"/>
<path d="M223.73,157.84c0.96,1.42,0.65,3.25-0.68,4.15c-1.35,0.91-3.16,0.53-4.12-0.9c-0.95-1.4-0.66-3.23,0.7-4.15
	C220.96,156.04,222.78,156.43,223.73,157.84"/>
<path d="M30.29,183.03l13.89-9.74l2.79,3.98c1.13,1.61,1.74,3.08,1.83,4.41c0.09,1.33-0.22,2.66-0.94,3.99
	c-0.71,1.32-1.72,2.44-3.02,3.36c-0.93,0.65-1.92,1.12-2.99,1.41c-1.06,0.29-2.11,0.38-3.16,0.27c-1.07-0.11-2.04-0.43-2.91-0.95
	c-0.52-0.3-0.94-0.61-1.27-0.94c-0.33-0.32-0.86-1.01-1.6-2.06L30.29,183.03z M45.07,178.34l-1.48-2.11l-10.34,7.25l1.52,2.17
	c0.59,0.84,1.12,1.46,1.59,1.83c0.47,0.37,0.91,0.64,1.34,0.81c0.43,0.17,0.89,0.27,1.37,0.32c1.58,0.14,3.13-0.33,4.65-1.39
	c1.49-1.05,2.41-2.33,2.75-3.85c0.13-0.56,0.16-1.13,0.1-1.69c-0.06-0.57-0.18-1.06-0.37-1.48
	C46.02,179.77,45.64,179.15,45.07,178.34 M58.07,190.39c1.57,1.59,2.28,3.49,2.15,5.71c-0.14,2.22-1.1,4.22-2.88,5.98
	c-1.78,1.76-3.78,2.69-6,2.78c-2.22,0.09-4.13-0.68-5.74-2.3c-1.53-1.55-2.22-3.41-2.07-5.6c0.15-2.18,1.1-4.15,2.86-5.88
	c1.8-1.79,3.81-2.74,6.02-2.88C54.62,188.07,56.5,188.8,58.07,190.39 M56.49,192.07c-1.16-1.18-2.55-1.71-4.16-1.61
	c-1.61,0.1-3.09,0.81-4.43,2.14c-1.3,1.29-2.01,2.74-2.12,4.35c-0.11,1.62,0.39,2.99,1.52,4.13c1.13,1.15,2.52,1.66,4.16,1.56
	c1.64-0.11,3.11-0.81,4.43-2.11c1.28-1.27,1.98-2.71,2.09-4.34C58.09,194.56,57.59,193.18,56.49,192.07 M66.14,206.7l0.14-8.47
	l-1.59-1.13l-9.86,13.83l1.68,1.2l7.67-10.76l-0.16,7.95l0.31,0.22l7.42-2.77l-7.67,10.76l1.69,1.21l9.86-13.83l-1.57-1.12
	L66.14,206.7z M71.81,222.01l1.82,0.97l7.95-15.01L79.76,207L71.81,222.01z M91.92,226.58l-4.56-15.75l-1.57-0.58l-5.88,15.93
	l1.82,0.67l4.53-12.27l4.52,15.62l1.67,0.61l5.88-15.93l-1.84-0.68L91.92,226.58z M106.73,227.61l2.73,0.51l-0.65,3.48l-0.21,0.04
	c-1.21,0.23-2.23,0.27-3.04,0.11c-1.67-0.31-2.93-1.17-3.77-2.57c-0.84-1.4-1.08-3.05-0.73-4.95c0.34-1.81,1.15-3.23,2.45-4.28
	c1.29-1.05,2.72-1.42,4.27-1.14c1.67,0.31,3.24,1.2,4.72,2.67l0.45-2.44c-0.99-0.74-1.83-1.28-2.51-1.62
	c-0.68-0.33-1.42-0.58-2.22-0.73c-2.19-0.41-4.17,0.08-5.94,1.47c-1.77,1.39-2.88,3.33-3.34,5.82c-0.44,2.37-0.11,4.49,1,6.36
	c1.1,1.87,2.83,3.03,5.18,3.47c1.72,0.32,3.54,0.2,5.45-0.37l1.32-7.08l-4.77-0.89L106.73,227.61z M127.11,227.99
	c-0.02,1.34-0.12,2.28-0.31,2.83c-0.19,0.55-0.49,1.02-0.9,1.42c-0.78,0.74-1.79,1.1-3.02,1.09c-0.86-0.01-1.61-0.21-2.23-0.6
	c-0.63-0.39-1.09-0.9-1.39-1.52c-0.3-0.63-0.44-1.74-0.42-3.34l0.14-9.64l-2.08-0.03l-0.14,9.62c-0.02,1.37,0.04,2.38,0.19,3.02
	c0.15,0.64,0.33,1.19,0.56,1.63c0.23,0.45,0.52,0.85,0.85,1.21c1.12,1.17,2.62,1.76,4.5,1.79c1.85,0.03,3.35-0.53,4.51-1.68
	c0.35-0.34,0.65-0.73,0.89-1.17c0.24-0.44,0.45-0.99,0.62-1.65c0.17-0.66,0.27-1.65,0.29-2.95l0.14-9.64l-2.08-0.03L127.11,227.99z
	 M135.89,234.72l8.3-1.15l-0.3-2.15l-6.26,0.87l-0.72-5.23l5.86-0.81l-0.3-2.16l-5.85,0.81l-0.71-5.13l6.06-0.84l-0.3-2.15
	l-8.11,1.12L135.89,234.72z M145.29,218.32l8.3-2.41l-4.72,16.83l12.51-3.64l-0.61-2.08l-8.85,2.58l4.71-16.83l-11.95,3.48
	L145.29,218.32z M179.16,209.52l-6.97,4.14l-3.75-6.31l-1.78,1.05l8.67,14.61l1.78-1.05l-3.77-6.36l6.98-4.14l3.77,6.36l1.78-1.06
	l-8.67-14.61l-1.78,1.05L179.16,209.52z M191.33,212.63l1.63-1.27l-10.44-13.39l-1.63,1.27L191.33,212.63z M198.03,207.14l6.19-5.92
	l-1.53-1.6l-4.7,4.49l-10.21-10.67l-1.49,1.43L198.03,207.14z M207.48,197.57l5.43-6.63l-1.71-1.4l-4.12,5.03l-11.43-9.36l-1.31,1.6
	L207.48,197.57z M211.9,179.63c1.46-0.57,2.63-0.59,3.5-0.04c0.54,0.34,0.88,0.81,1,1.4c0.13,0.59,0.02,1.16-0.32,1.71
	c-0.78,1.24-2.18,1.89-4.18,1.95l2.61,1.65c1.5-0.44,2.62-1.26,3.39-2.47c0.66-1.05,0.84-2.13,0.53-3.24
	c-0.31-1.11-1.04-2.03-2.19-2.75c-1.62-1.02-3.42-1.12-5.4-0.29l-1.77,0.75c-0.79,0.34-1.46,0.52-2.01,0.56
	c-0.54,0.03-1.03-0.08-1.47-0.36c-0.49-0.31-0.77-0.74-0.84-1.3c-0.08-0.56,0.06-1.13,0.42-1.7c0.64-1.01,1.74-1.65,3.28-1.9
	l-2.33-1.47c-1.21,0.43-2.13,1.15-2.78,2.17c-0.67,1.07-0.87,2.16-0.58,3.27c0.28,1.11,0.99,2.03,2.12,2.74
	c0.76,0.48,1.53,0.72,2.33,0.73c0.8,0.01,1.76-0.21,2.89-0.66L211.9,179.63"/>
<path d="M27.48,127.57l2.66-0.26c1.12,1.41,1.77,3.11,1.96,5.08c0.16,1.61-0.09,3-0.74,4.2c-0.65,1.19-1.61,2.18-2.87,2.96
	s-2.68,1.25-4.22,1.4c-2.46,0.24-4.6-0.31-6.43-1.63c-1.82-1.33-2.84-3.08-3.06-5.27c-0.15-1.51,0.15-3.23,0.9-5.17l2.6-0.25
	c-0.96,1.79-1.37,3.49-1.21,5.09c0.16,1.65,0.91,2.95,2.23,3.92c1.33,0.97,2.91,1.36,4.75,1.18c1.85-0.18,3.33-0.87,4.41-2.05
	c1.09-1.19,1.55-2.61,1.39-4.28C29.7,130.75,28.9,129.11,27.48,127.57 M31.33,125.3l0.14-2.12l-4.9-2.13l0.4-6.15l5.15-1.59
	l0.14-2.11l-17.47,5.34l-0.1,1.45L31.33,125.3z M24.46,120.09l-6-2.56l6.29-1.92L24.46,120.09z M33.03,107.64l1.86-8.36l-2.16-0.48
	l-1.41,6.34l-14.42-3.2l-0.45,2.02L33.03,107.64z M36.19,95.43l0.66-1.96l-16.08-5.46l-0.66,1.96L36.19,95.43z M38.37,89.33
	l0.84-1.89l-7.22-3.24l2.31-5.14l-1.97-0.89l-2.31,5.14l-4.33-1.94L28,76.23l-1.97-0.89l-3.15,7.02L38.37,89.33z M31.02,66.07
	c-1.18,1.89-1.45,3.9-0.81,6.01c0.64,2.12,2.03,3.85,4.19,5.19c2.1,1.31,4.23,1.78,6.38,1.42c2.16-0.36,3.82-1.47,4.97-3.31
	c1.2-1.93,1.51-3.97,0.91-6.11c-0.6-2.14-1.96-3.87-4.09-5.19c-2.13-1.33-4.29-1.8-6.48-1.42C33.89,63.04,32.2,64.17,31.02,66.07
	 M33.03,67.22c0.83-1.33,2.05-2.13,3.66-2.39c1.61-0.26,3.18,0.08,4.71,1.03c1.57,0.98,2.6,2.25,3.08,3.82
	c0.48,1.57,0.3,3.04-0.55,4.4c-0.85,1.36-2.07,2.18-3.67,2.44c-1.6,0.26-3.17-0.09-4.73-1.06c-1.6-1-2.64-2.27-3.11-3.82
	C31.95,70.09,32.16,68.62,33.03,67.22 M52.82,65.13l-5.57-4.86l0.35-0.41c0.44-0.51,0.83-0.81,1.16-0.91
	c0.32-0.1,0.76-0.15,1.3-0.14c0.54,0,1.22,0.07,2.03,0.21l1.45,0.35l1.36,0.33l0.77,0.14c0.11,0.02,0.19,0.03,0.24,0.04l1.26,0.26
	l1.62-1.85l-1.42-0.22c-0.57-0.09-1.38-0.26-2.44-0.52c-1.68-0.4-2.9-0.64-3.65-0.72c-0.75-0.07-1.42-0.05-1.99,0.06
	c0.25-0.83,0.24-1.64-0.03-2.43c-0.27-0.79-0.77-1.51-1.52-2.16c-1.09-0.95-2.24-1.39-3.45-1.3c-1.2,0.09-2.29,0.68-3.25,1.78
	l-2.38,2.73l12.8,11.16L52.82,65.13z M41.98,54.86c0.67-0.76,1.21-1.25,1.63-1.47c0.42-0.21,0.88-0.26,1.36-0.16
	c0.49,0.1,0.93,0.33,1.33,0.68c0.41,0.36,0.7,0.76,0.88,1.2c0.18,0.44,0.22,0.88,0.12,1.31c-0.09,0.43-0.49,1.04-1.18,1.83
	l-0.52,0.59l-4.04-3.52L41.98,54.86 M67.87,45.69l-15.85-4.18l-1.31,1.05l10.64,13.23l1.51-1.22l-8.2-10.19l15.72,4.14l1.38-1.11
	L61.13,34.18l-1.53,1.23L67.87,45.69z M75.41,45.3l1.76-1.08L68.3,29.74l-1.76,1.08L75.41,45.3z M79.88,42.37l1.93-0.88l-0.45-5.33
	l5.61-2.55l3.84,3.78l1.92-0.88L79.75,23.66l-1.32,0.6L79.88,42.37z M81.21,33.85l-0.59-6.49l4.67,4.63L81.21,33.85z M104.14,26.13
	c1.44,0.64,2.26,1.47,2.48,2.48c0.13,0.62,0.04,1.19-0.3,1.69c-0.33,0.51-0.81,0.83-1.45,0.96c-1.44,0.31-2.87-0.23-4.31-1.63
	l0.65,3.02c1.36,0.76,2.74,0.99,4.13,0.7c1.21-0.26,2.11-0.89,2.69-1.88c0.58-0.99,0.73-2.16,0.44-3.49
	c-0.4-1.87-1.59-3.23-3.57-4.07l-1.77-0.74c-0.8-0.33-1.4-0.68-1.8-1.05c-0.41-0.37-0.66-0.8-0.77-1.3
	c-0.12-0.56-0.01-1.07,0.34-1.52c0.35-0.45,0.85-0.75,1.51-0.89c1.17-0.25,2.39,0.09,3.65,1.02l-0.58-2.7
	c-1.15-0.57-2.32-0.73-3.49-0.47c-1.23,0.27-2.15,0.89-2.74,1.87c-0.6,0.98-0.76,2.13-0.47,3.43c0.19,0.87,0.55,1.6,1.11,2.18
	c0.55,0.58,1.38,1.11,2.49,1.6L104.14,26.13 M109.14,17.22l4.93-0.45l1.34,14.78l2.07-0.19l-1.34-14.79l5.01-0.45l-0.19-2.16
	l-12.01,1.09L109.14,17.22z M122.79,30.84l2.12,0.11l2.06-4.93l6.15,0.31l1.67,5.13l2.11,0.11l-5.6-17.39l-1.45-0.07L122.79,30.84z
	 M127.9,23.89l2.47-6.03l2.01,6.26L127.9,23.89z M140.09,17.11l4.86,0.96l-2.87,14.56l2.04,0.4l2.87-14.56l4.94,0.97l0.42-2.12
	l-11.83-2.33L140.09,17.11z M150.94,34.62l7.95,2.64l0.68-2.05l-5.99-1.99l1.66-5.01l5.61,1.86l0.68-2.07l-5.61-1.86l1.63-4.92
	l5.81,1.93l0.68-2.05l-7.77-2.58L150.94,34.62z M180.75,40.45c-0.69,1.14-1.26,1.9-1.7,2.28c-0.44,0.38-0.94,0.63-1.5,0.77
	c-1.05,0.24-2.1,0.05-3.15-0.59c-0.74-0.45-1.28-0.99-1.62-1.65c-0.35-0.65-0.49-1.32-0.43-2.02c0.06-0.69,0.5-1.73,1.33-3.09
	l5-8.24l-1.78-1.08l-4.99,8.22c-0.71,1.17-1.17,2.07-1.37,2.7c-0.2,0.63-0.31,1.19-0.34,1.69c-0.03,0.5,0.02,0.99,0.12,1.48
	c0.37,1.58,1.37,2.85,2.97,3.82c1.58,0.96,3.16,1.24,4.74,0.84c0.48-0.12,0.93-0.31,1.36-0.56c0.43-0.25,0.89-0.62,1.37-1.11
	c0.48-0.49,1.06-1.28,1.74-2.4l5-8.24l-1.77-1.08L180.75,40.45z M192.13,54.03l1.25-16.35l-1.26-1.1l-11.1,12.85l1.47,1.27l8.55-9.9
	l-1.24,16.21l1.35,1.16l11.1-12.85l-1.49-1.28L192.13,54.03z M193.87,61.38l1.38,1.54l12.65-11.34l-1.38-1.54L193.87,61.38z
	 M204.75,66.72l7.1-10.52l-1.22-1.68l-10.15,15.06l0.27,0.38l17.39-5.08l-1.21-1.67L204.75,66.72z M205.39,76.7l4,7.36l1.9-1.03
	l-3.02-5.55l4.64-2.52l2.82,5.19l1.91-1.04l-2.82-5.2l4.55-2.47l2.92,5.37l1.9-1.03l-3.91-7.19L205.39,76.7z M211.48,89.03
	l6.92-2.61l0.19,0.51c0.24,0.63,0.32,1.11,0.25,1.45c-0.07,0.33-0.23,0.74-0.5,1.22c-0.26,0.48-0.64,1.04-1.14,1.68l-1,1.11
	l-0.93,1.04l-0.49,0.61c-0.07,0.09-0.12,0.16-0.15,0.19l-0.83,0.98l0.87,2.3l0.87-1.14c0.35-0.46,0.88-1.09,1.61-1.9
	c1.15-1.29,1.94-2.25,2.36-2.88c0.42-0.63,0.72-1.22,0.89-1.78c0.61,0.61,1.33,0.98,2.15,1.12c0.82,0.14,1.7,0.03,2.62-0.32
	c1.36-0.51,2.28-1.32,2.78-2.42c0.49-1.1,0.48-2.34-0.03-3.7l-1.27-3.38l-15.89,5.99L211.48,89.03z M225.66,84.35
	c0.36,0.95,0.53,1.66,0.52,2.13c-0.01,0.47-0.18,0.9-0.5,1.28c-0.32,0.38-0.73,0.66-1.23,0.85c-0.51,0.19-1,0.26-1.47,0.21
	c-0.48-0.05-0.88-0.22-1.21-0.51c-0.34-0.29-0.69-0.92-1.06-1.91l-0.27-0.74l5.02-1.89L225.66,84.35 M223.11,102.52
	c-0.63,1.44-1.44,2.27-2.45,2.5c-0.62,0.14-1.19,0.05-1.7-0.28c-0.51-0.33-0.83-0.81-0.98-1.44c-0.32-1.43,0.2-2.88,1.58-4.33
	l-3.01,0.68c-0.75,1.37-0.96,2.75-0.65,4.14c0.27,1.21,0.91,2.1,1.91,2.66c1,0.57,2.17,0.7,3.5,0.4c1.87-0.42,3.21-1.63,4.03-3.62
	l0.72-1.78c0.32-0.8,0.66-1.4,1.03-1.81c0.36-0.41,0.79-0.67,1.28-0.78c0.56-0.13,1.07-0.02,1.52,0.32c0.46,0.34,0.76,0.84,0.9,1.5
	c0.27,1.17-0.06,2.39-0.98,3.67l2.69-0.61c0.55-1.16,0.7-2.32,0.43-3.5c-0.28-1.23-0.91-2.14-1.9-2.72
	c-0.99-0.59-2.13-0.73-3.44-0.43c-0.87,0.2-1.59,0.57-2.17,1.13c-0.58,0.56-1.1,1.4-1.58,2.51L223.11,102.52 M217.49,111.3
	l0.26,2.05l16.84-2.19l-0.26-2.05L217.49,111.3z M233.1,116.15l0.1,4.95l-14.84,0.31l0.04,2.08l14.84-0.31l0.1,5.03l2.17-0.05
	l-0.25-12.06L233.1,116.15z M228.75,137.34l6.28-3.12l0.31-2.48l-8.59,4.32l-8.92-1.1l-0.26,2.1l8.92,1.1l7.29,6.27l0.31-2.49
	L228.75,137.34z"/>
<path style="fill:none;stroke:#000000;stroke-width:2.9007;" d="M212.62,125.06c0,48.36-39.2,87.56-87.56,87.56
	s-87.56-39.2-87.56-87.56s39.2-87.56,87.56-87.56S212.62,76.7,212.62,125.06z M125.06,9.47C61.22,9.47,9.48,61.22,9.48,125.06
	c0,63.83,51.75,115.58,115.58,115.58s115.58-51.75,115.58-115.58C240.64,61.22,188.9,9.47,125.06,9.47z"/>
</svg>
