<?xml version="1.0" encoding="utf-8"?>
<!-- Generator: Adobe Illustrator 22.1.0, SVG Export Plug-In . SVG Version: 6.00 Build 0)  -->
<svg version="1.1" id="Layer_1" xmlns="http://www.w3.org/2000/svg" xmlns:xlink="http://www.w3.org/1999/xlink" x="0px" y="0px"
	 viewBox="0 0 250.1 250.1" style="enable-background:new 0 0 250.1 250.1;" xml:space="preserve">
<style type="text/css">
	.st0{fill:#FFFFFF;}
	.st1{fill:none;stroke:#000000;stroke-width:3.7124;}
	.st2{fill:none;stroke:#000000;stroke-width:1.285;}
	.st3{fill:none;stroke:#000000;stroke-width:2.9007;}
</style>
<circle class="st0" cx="125.1" cy="124.1" r="123.1"/>
<path class="st1" d="M248.2,125.1c0,68-55.1,123.1-123.1,123.1S1.9,193.1,1.9,125.1S57,1.9,125.1,1.9S248.2,57,248.2,125.1z"/>
<path class="st2" d="M153.3,135.7c-4.7-0.1-7.9,2.3-10.8,2.6c-2.9,0.3-6.3-0.4-7.4-0.6s-0.8,47.9-0.7,48.8c0.1,0.8,2.9,0.6,3.7,0.6
	c1.6,0,6.4-1.9,13.7-2.5c7.3-0.6,9.8,2,10.4,2.8c1.1,1.7,1.5,1.1,1.5,1.1l0.8-46.2C164.4,142.4,160.8,135.8,153.3,135.7z
	 M165.4,142.2l-1,46c0,0,0,1.3,0.2,1c2.9-3.7,9.3-4.7,10.9-4.7c6,0.1,9.7,0.9,11.9,1.5c0.7,0.2,8.8-10.1,8.8-10.1
	c0.4-15.4,0.9-41,0.1-40.8c-1.1,0.3-5.1,1.5-8.2,1.4c-3.1-0.2-5.6-1.2-10.7-0.8C169.4,136.3,165.4,142.2,165.4,142.2z"/>
<path d="M140.3,160.4v-3.7h0.3c0.1,0.2,0.1,0.4,0.2,0.5c0.1,0.1,0.2,0.1,0.3,0.1c0.1,0,0.2,0,0.3,0l0.8-0.2v-0.6
	c0-0.2,0-0.4-0.1-0.5c-0.1-0.1-0.2-0.2-0.5-0.3v-0.3h4v0.3c-0.2,0.1-0.4,0.1-0.5,0.3c-0.1,0.1-0.1,0.3-0.1,0.5v11.7
	c0,0.2,0.1,0.4,0.1,0.5c0.1,0.1,0.2,0.2,0.5,0.3v0.3h-4v-0.3c0.2-0.1,0.4-0.2,0.5-0.3c0.1-0.1,0.1-0.3,0.1-0.5v-8.7l-0.9,0.2
	c-0.2,0.1-0.4,0.1-0.5,0.2c-0.1,0.1-0.2,0.3-0.2,0.5L140.3,160.4L140.3,160.4z M147.9,168.6c0,0,0.1-0.1,0.2-0.1
	c0.1-0.1,0.2-0.1,0.3-0.1c0.1,0,0.4,0.1,0.6,0.2c0.8,0.4,1.5,0.6,2.1,0.8c0.6,0.1,1.2,0.2,2,0.2c2.1,0,3.8-0.7,5.1-2.1
	c1.3-1.3,1.9-3.1,1.9-5.2c0-1.1-0.2-2.1-0.5-3c-0.3-1-0.9-1.8-1.6-2.5c-1.1-1-2.5-1.5-4.4-1.5c-1.7,0-3.1,0.4-4.2,1.3
	c-1.1,0.9-1.7,2-1.7,3.5c0,0.7,0.1,1.4,0.5,2c0.3,0.6,0.8,1.1,1.3,1.5c1,0.7,2.2,1,3.6,1c0.9,0,1.6-0.1,2.3-0.4
	c0.7-0.3,1.3-0.7,2-1.3c-0.1,0.9-0.2,1.6-0.4,2.1c-0.2,0.5-0.6,1-1.1,1.4c-0.8,0.6-1.7,0.9-2.8,0.9c-0.5,0-1-0.1-1.5-0.2
	c-0.5-0.1-1-0.3-1.3-0.6c-0.4-0.3-0.6-0.5-0.6-0.8c0-0.1,0-0.2,0.1-0.4l-0.3-0.1l-1.7,3.3L147.9,168.6z M153.6,157.5
	c1,0,1.8,0.3,2.4,0.8c0.5,0.4,0.8,1,0.8,1.6c0,0.6-0.3,1.2-0.8,1.6c-0.6,0.5-1.4,0.8-2.4,0.8c-1,0-1.8-0.2-2.4-0.8
	c-0.5-0.4-0.8-1-0.8-1.6c0-0.7,0.3-1.2,0.8-1.6C151.8,157.7,152.6,157.5,153.6,157.5 M179.7,156.1c0,0-0.1,0.1-0.2,0.1
	c-0.1,0.1-0.2,0.1-0.3,0.1c-0.2,0-0.4-0.1-0.6-0.2c-0.8-0.4-1.5-0.6-2.1-0.8c-0.6-0.1-1.3-0.2-2-0.2c-2.1,0-3.8,0.7-5.1,2.1
	c-1.3,1.3-1.9,3.1-1.9,5.2c0,1.1,0.2,2.1,0.5,3c0.4,1,0.9,1.8,1.6,2.5c1.1,1,2.5,1.5,4.4,1.5c1.7,0,3.2-0.4,4.3-1.3
	c1.1-0.9,1.7-2,1.7-3.5c0-0.7-0.2-1.4-0.5-2c-0.3-0.6-0.8-1.1-1.3-1.5c-1-0.7-2.2-1.1-3.6-1.1c-0.9,0-1.6,0.1-2.3,0.4
	c-0.7,0.3-1.3,0.7-2,1.3c0.1-0.9,0.2-1.6,0.5-2.1s0.6-1,1.1-1.4c0.8-0.6,1.7-0.9,2.8-0.9c0.5,0,1,0.1,1.6,0.2s1,0.3,1.3,0.6
	c0.4,0.3,0.6,0.5,0.6,0.8c0,0.1,0,0.2-0.1,0.4l0.3,0.1l1.7-3.3L179.7,156.1z M174,162.4c1,0,1.8,0.3,2.4,0.8c0.5,0.4,0.8,1,0.8,1.6
	c0,0.6-0.3,1.2-0.8,1.6c-0.6,0.5-1.4,0.8-2.4,0.8s-1.8-0.2-2.4-0.8c-0.5-0.4-0.8-1-0.8-1.6s0.3-1.2,0.8-1.6
	C172.3,162.7,173.1,162.4,174,162.4 M187.1,155.2c-1.1,0-2,0.2-2.8,0.7c-1,0.5-1.8,1.2-2.3,2.2c-0.7,1.2-1.1,2.6-1.1,4.2
	c0,1.2,0.2,2.4,0.7,3.4c0.3,0.7,0.7,1.4,1.3,1.9c1.1,1.2,2.6,1.8,4.3,1.8c1.1,0,2-0.2,2.8-0.7c1-0.5,1.7-1.2,2.3-2.2
	c0.3-0.6,0.6-1.2,0.8-1.9c0.2-0.8,0.3-1.5,0.3-2.2c0-2.3-0.6-4.1-1.9-5.5C190.3,155.8,188.8,155.2,187.1,155.2 M187.1,157.6
	c1,0,1.9,0.5,2.5,1.4c0.6,0.9,0.8,2,0.8,3.3c0,1.3-0.3,2.3-0.8,3.2c-0.6,0.9-1.4,1.4-2.5,1.4c-1,0-1.9-0.5-2.5-1.4
	c-0.6-0.9-0.8-2-0.8-3.3c0-1.3,0.3-2.4,0.8-3.3C185.2,158,186.1,157.6,187.1,157.6 M134.8,139.6h-3.3V191h52l15.9-19.4v-31.9h-2.7
	l0,2.9c0,0-0.6,20.3-1.2,33.6l-8.1,9.9c-1.8-0.5-2.5-0.7-3-0.8c-2.2-0.6-7.6-0.7-11.9-0.4c-4.3,0.4-7.8,4-8,4.3
	c-0.2,0.3-0.2-0.5-0.2-0.5l1-46.5c0,0,0.7-0.8,1.2-1.4c0.6-0.6,1.2-1.1,1.2-1.1h-5.6c0,0,0.4,0.5,1,1.1c0.6,0.6,1.2,1.7,1.2,1.7
	s0,46.3-0.8,46.1c-0.9-0.1-1.5-1.1-2.6-2.3s-4-1.5-7.1-1.8c-3.1-0.3-12.7,1.9-15.9,2.5c-3.2,0.7-3.7-0.6-3.7-0.6s-0.1-11.9,0-25.9
	L134.8,139.6z M56.1,102.4c1.8-1.8,7.4-2.1,11.7-0.7c5.8,1.9,9.2,2.7,18.3,3.6c9.2,0.9,17.2-3.6,24.2-4.1c7.1-0.5,10.4,2.2,8.6,4.1
	c-1.9,2.1-4-0.2-6.4,0c-4,0.3-8.3,3.9-9.5,5.3c-1.2,1.3-9.2,7.5-15.9,7.9c-8.7,0.5-14.8-5.3-18.5-9.3c-2.5-2.7-3.6-3.7-7.3-3.6
	c-2.8,0-1.5,0.3-3.5,0.1C56,105.5,55,103.4,56.1,102.4 M78.7,102.4c-0.1-3.4-1.9-10.9,0.4-18.4c1.4-4.4,10.7-10.2,10.7-19.1
	c0-4-9-9.4-9-9.4s0.2,9-3.2,15.2c-2.6,4.8-5.5,4.2-10.4,12.2C61.4,92.3,78.7,102.4,78.7,102.4 M94.4,69.7c0,0-1.1,6.5-5.2,9.2
	s-7.2,5.1-8,11c-1.1,7.5,4.7,12.9,4.7,12.9s1.3-9.4,3.5-12.9s7.7-7.4,8.9-11.2C99.4,74.9,94.4,69.7,94.4,69.7 M101.4,77.3
	c0,0-0.2,5.6-4.8,8.4c-4.6,2.8-6.2,5.2-6.2,8.2c0,3.5,5.5,8.7,5.5,8.7c0.4-3.3-0.1-3.6,1.5-7.5c1.4-3.4,6.8-3.6,8.6-6.9
	C108.8,83.6,101.4,77.3,101.4,77.3 M125.1,37.5v86.6h87.5C212.1,76.2,173.2,37.5,125.1,37.5z M156.5,70.8
	c0,10.1-13.4,18.3-25.6,18.3V81c9.3,0,18.2-5.6,18.2-13c0-7.5-8.8-13.7-18.2-13.7l-0.1-2C143.7,52.3,156.5,60.7,156.5,70.8z
	 M130.8,48c18.8,0,37.6,11,37.6,26.9c0,14.6-18.8,26.8-37.5,26.8v-10c14.2,0,29.4-9.3,29.4-20.8s-15.1-20.6-29.4-20.6L130.8,48z
	 M130.9,119.8v-15.3c20.5,0,41.8-13.1,41.8-29.6s-21.3-29.2-41.8-29.2v-2.1c26.2,0,53.1,16.8,53.1,37.9
	C184,102.7,157,119.8,130.9,119.8z M103.1,164.1l1.3-0.5v2.9c-0.5,0.5-1.1,0.8-1.7,0.8c-0.4,0-0.8-0.1-1-0.4c-0.3-0.3-0.4-0.6-0.4-1
	s0.1-0.7,0.4-1C101.9,164.6,102.4,164.4,103.1,164.1z M87,148.2c1,0,1.8-0.3,2.4-0.9s0.9-1.4,0.9-2.3c0-0.9-0.3-1.7-1-2.3
	s-1.4-0.9-2.4-0.9c-0.9,0-1.7,0.3-2.3,0.9c-0.6,0.6-0.9,1.4-0.9,2.4s0.3,1.7,0.9,2.3C85.3,147.9,86.1,148.2,87,148.2z M37.5,124.1
	h87.6v88.5c0,0-0.1,0-0.1,0c-48.4,0-87.6-39.2-87.6-87.6C37.5,124.8,37.5,124.4,37.5,124.1z M69.6,166.1c0.4,0.8,0.9,1.4,1.6,1.8
	c0.7,0.4,1.6,0.7,2.7,0.7c0.8,0,1.5-0.1,2.1-0.3c0.6-0.2,1.2-0.5,1.8-0.9v-1.9c-1.1,0.8-2.3,1.2-3.6,1.2c-0.9,0-1.7-0.3-2.3-0.8
	s-0.9-1.3-0.9-2.3h7v-0.2c0-1.5-0.4-2.8-1.2-3.7c-0.8-0.9-1.8-1.4-3.2-1.4c-1.4,0-2.5,0.5-3.3,1.4S69,162,69,163.5
	C69,164.5,69.2,165.4,69.6,166.1z M83,172h-2.2l-4.5,10.6L71.8,172h-2.2l6.5,15.1h0.5L83,172z M86.2,177.2h-2v9.9h2
	C86.2,187.1,86.2,177.2,86.2,177.2z M86.3,174.1c0-0.3-0.1-0.6-0.3-0.8c-0.2-0.2-0.5-0.3-0.8-0.3c-0.3,0-0.6,0.1-0.8,0.4
	c-0.2,0.2-0.3,0.5-0.3,0.8c0,0.3,0.1,0.6,0.3,0.8c0.2,0.2,0.5,0.4,0.8,0.4c0.3,0,0.6-0.1,0.8-0.3C86.2,174.7,86.3,174.5,86.3,174.1z
	 M87.2,159.5c-0.8-0.8-1.6-1.1-2.3-1.1c-0.9,0-1.9,0.8-2.8,2.3l-0.1,0.2v-2.3h-2v9.9h2v-5.2c0-0.8,0.2-1.5,0.7-2.1
	c0.5-0.6,1-0.9,1.6-0.9c0.6,0,1.2,0.3,1.9,1L87.2,159.5z M94.7,184.8c-0.8,0.5-1.5,0.7-2.2,0.7c-0.9,0-1.4-0.6-1.4-1.7v-4.9h3.1
	v-1.8h-3.1v-2.1l-3.7,3.6v0.2h1.7v4.4c0,0.9,0,1.5,0.1,1.8s0.2,0.6,0.3,0.8c0.1,0.2,0.3,0.4,0.5,0.5c0.6,0.5,1.3,0.8,2.2,0.8
	s1.7-0.2,2.5-0.6C94.7,186.6,94.7,184.8,94.7,184.8z M90.5,155.6c0-0.3-0.1-0.6-0.3-0.8c-0.2-0.2-0.5-0.3-0.8-0.3
	c-0.3,0-0.6,0.1-0.8,0.4c-0.2,0.2-0.3,0.5-0.3,0.8c0,0.3,0.1,0.6,0.3,0.8c0.2,0.2,0.5,0.4,0.8,0.4c0.3,0,0.6-0.1,0.8-0.4
	C90.4,156.1,90.5,155.9,90.5,155.6z M88.4,158.6v9.9h2v-9.9H88.4z M95.3,158.6v-2.1l-3.7,3.6v0.2h1.7v4.4c0,0.9,0,1.5,0.1,1.8
	s0.2,0.6,0.3,0.8c0.1,0.2,0.3,0.4,0.5,0.5c0.6,0.5,1.3,0.8,2.2,0.8s1.7-0.2,2.5-0.6v-1.8c-0.8,0.5-1.5,0.7-2.2,0.7
	c-0.9,0-1.4-0.6-1.4-1.7v-4.9h3.1v-1.8L95.3,158.6L95.3,158.6z M103.6,185.3c-0.5,0.4-0.9,0.5-1.1,0.5c-0.2,0-0.3-0.2-0.3-0.5v-4.2
	c0-0.8,0-1.4-0.1-1.7s-0.2-0.6-0.3-0.9c-0.2-0.3-0.4-0.5-0.6-0.7c-0.7-0.6-1.5-0.8-2.6-0.8c-1.4,0-2.5,0.4-3.3,1.4v2.1
	c1-1.1,2.1-1.7,3.1-1.7c1.2,0,1.8,0.6,1.8,1.8v0.5l-2.5,0.9c-0.8,0.3-1.5,0.7-1.9,1.2s-0.7,1.1-0.7,1.7c0,0.7,0.2,1.3,0.7,1.7
	s1,0.7,1.7,0.7c0.9,0,1.8-0.3,2.7-1c0.2,0.7,0.7,1,1.5,1c0.3,0,0.6-0.1,0.8-0.2c0.3-0.1,0.6-0.3,1.1-0.6L103.6,185.3L103.6,185.3z
	 M108.8,167.8c0.7,0.3,1.3,0.6,1.7,0.7s1,0.2,1.6,0.2c1,0,1.8-0.3,2.4-0.8c0.6-0.5,0.9-1.2,0.9-2c0-1.1-0.8-2.2-2.5-3.1l-0.7-0.4
	c-0.5-0.3-0.9-0.5-1.1-0.8c-0.2-0.2-0.3-0.4-0.3-0.7c0-0.3,0.1-0.5,0.3-0.6c0.2-0.2,0.5-0.2,0.9-0.2c0.7,0,1.7,0.4,2.9,1.1v-1.9
	c-1-0.5-2-0.8-3-0.8c-0.9,0-1.7,0.2-2.3,0.7c-0.6,0.5-0.9,1.1-0.9,1.9c0,0.6,0.2,1.1,0.6,1.6s1.2,1.1,2.5,1.8c0.6,0.4,1,0.6,1.2,0.8
	c0.2,0.2,0.3,0.4,0.3,0.7c0,0.3-0.2,0.5-0.4,0.7s-0.7,0.3-1.1,0.3c-0.4,0-0.9-0.1-1.5-0.4s-1.1-0.6-1.7-0.9L108.8,167.8L108.8,167.8
	z M105.4,159.2c-0.7-0.6-1.5-0.8-2.6-0.8c-1.4,0-2.5,0.4-3.3,1.4v2.1c1-1.1,2.1-1.7,3.1-1.7c1.2,0,1.8,0.6,1.8,1.8v0.5l-2.5,0.9
	c-0.8,0.3-1.5,0.7-1.9,1.2c-0.4,0.5-0.7,1.1-0.7,1.7c0,0.7,0.2,1.3,0.7,1.7s1,0.7,1.7,0.7c0.9,0,1.8-0.3,2.7-1c0.2,0.7,0.7,1,1.5,1
	c0.3,0,0.6-0.1,0.8-0.2c0.3-0.1,0.6-0.3,1.1-0.6v-1.2c-0.5,0.4-0.9,0.5-1.1,0.5c-0.2,0-0.3-0.2-0.3-0.5v-4.2c0-0.8,0-1.4-0.1-1.7
	s-0.2-0.6-0.3-0.9C105.8,159.6,105.6,159.4,105.4,159.2z M96.7,144.9l-4.2,5H95l2.9-3.6l3.1,3.6h2.5l-4.4-5l4.1-4.9h-2.5l-2.8,3.4
	L95,140h-2.5L96.7,144.9z M87.1,139.9c-1.5,0-2.8,0.5-3.8,1.4s-1.5,2.2-1.5,3.6c0,1.4,0.5,2.6,1.5,3.6s2.2,1.4,3.7,1.4
	c1.5,0,2.8-0.5,3.8-1.4s1.5-2.1,1.5-3.6c0-1.5-0.5-2.7-1.5-3.7C89.8,140.4,88.6,139.9,87.1,139.9z M70,134.8l6.5,15.1H77l6.4-15.1
	h-2.2l-4.5,10.6l-4.5-10.6H70z M59.3,153.4h-2.2l6.5,15.1h0.5l6.4-15.1h-2.2L63.9,164L59.3,153.4z M75.3,160.7
	c-0.4-0.4-1-0.6-1.7-0.6s-1.3,0.2-1.7,0.6c-0.4,0.4-0.7,1-0.9,1.8h5C75.9,161.8,75.7,161.1,75.3,160.7z M97.5,183.5
	c-0.3,0.3-0.4,0.6-0.4,1c0,0.4,0.1,0.8,0.4,1c0.3,0.3,0.6,0.4,1,0.4c0.6,0,1.2-0.2,1.7-0.8v-2.9l-1.3,0.5
	C98.2,183,97.8,183.2,97.5,183.5z"/>
<path d="M31,161.4c-0.9,1.4-2.8,1.9-4.1,1c-1.4-0.9-1.7-2.7-0.7-4.1c0.9-1.4,2.7-1.8,4.1-0.9C31.7,158.1,32,160,31,161.4"/>
<path d="M223.7,157.8c1,1.4,0.6,3.2-0.7,4.1c-1.4,0.9-3.2,0.5-4.1-0.9c-0.9-1.4-0.7-3.2,0.7-4.1C221,156,222.8,156.4,223.7,157.8"/>
<path d="M30.3,183l13.9-9.7l2.8,4c1.1,1.6,1.7,3.1,1.8,4.4s-0.2,2.7-0.9,4c-0.7,1.3-1.7,2.4-3,3.4c-0.9,0.6-1.9,1.1-3,1.4
	c-1.1,0.3-2.1,0.4-3.2,0.3c-1.1-0.1-2-0.4-2.9-0.9c-0.5-0.3-0.9-0.6-1.3-0.9c-0.3-0.3-0.9-1-1.6-2.1L30.3,183z M45.1,178.3l-1.5-2.1
	l-10.3,7.2l1.5,2.2c0.6,0.8,1.1,1.5,1.6,1.8s0.9,0.6,1.3,0.8s0.9,0.3,1.4,0.3c1.6,0.1,3.1-0.3,4.7-1.4c1.5-1.1,2.4-2.3,2.8-3.9
	c0.1-0.6,0.2-1.1,0.1-1.7c-0.1-0.6-0.2-1.1-0.4-1.5C46,179.8,45.6,179.1,45.1,178.3 M58.1,190.4c1.6,1.6,2.3,3.5,2.2,5.7
	c-0.1,2.2-1.1,4.2-2.9,6c-1.8,1.8-3.8,2.7-6,2.8s-4.1-0.7-5.7-2.3c-1.5-1.6-2.2-3.4-2.1-5.6c0.2-2.2,1.1-4.1,2.9-5.9
	c1.8-1.8,3.8-2.7,6-2.9C54.6,188.1,56.5,188.8,58.1,190.4 M56.5,192.1c-1.2-1.2-2.5-1.7-4.2-1.6s-3.1,0.8-4.4,2.1
	c-1.3,1.3-2,2.7-2.1,4.4c-0.1,1.6,0.4,3,1.5,4.1c1.1,1.1,2.5,1.7,4.2,1.6c1.6-0.1,3.1-0.8,4.4-2.1c1.3-1.3,2-2.7,2.1-4.3
	C58.1,194.6,57.6,193.2,56.5,192.1 M66.1,206.7l0.1-8.5l-1.6-1.1l-9.9,13.8l1.7,1.2l7.7-10.8l-0.2,7.9l0.3,0.2l7.4-2.8l-7.7,10.8
	l1.7,1.2l9.9-13.8l-1.6-1.1L66.1,206.7z M71.8,222l1.8,1l7.9-15l-1.8-1L71.8,222z M91.9,226.6l-4.6-15.8l-1.6-0.6l-5.9,15.9l1.8,0.7
	l4.5-12.3l4.5,15.6l1.7,0.6l5.9-15.9l-1.8-0.7L91.9,226.6z M106.7,227.6l2.7,0.5l-0.7,3.5l-0.2,0c-1.2,0.2-2.2,0.3-3,0.1
	c-1.7-0.3-2.9-1.2-3.8-2.6c-0.8-1.4-1.1-3.1-0.7-4.9c0.3-1.8,1.2-3.2,2.4-4.3c1.3-1.1,2.7-1.4,4.3-1.1c1.7,0.3,3.2,1.2,4.7,2.7
	l0.4-2.4c-1-0.7-1.8-1.3-2.5-1.6c-0.7-0.3-1.4-0.6-2.2-0.7c-2.2-0.4-4.2,0.1-5.9,1.5c-1.8,1.4-2.9,3.3-3.3,5.8
	c-0.4,2.4-0.1,4.5,1,6.4c1.1,1.9,2.8,3,5.2,3.5c1.7,0.3,3.5,0.2,5.4-0.4l1.3-7.1l-4.8-0.9L106.7,227.6z M127.1,228
	c0,1.3-0.1,2.3-0.3,2.8c-0.2,0.6-0.5,1-0.9,1.4c-0.8,0.7-1.8,1.1-3,1.1c-0.9,0-1.6-0.2-2.2-0.6c-0.6-0.4-1.1-0.9-1.4-1.5
	c-0.3-0.6-0.4-1.7-0.4-3.3l0.1-9.6l-2.1,0l-0.1,9.6c0,1.4,0,2.4,0.2,3s0.3,1.2,0.6,1.6c0.2,0.4,0.5,0.9,0.8,1.2
	c1.1,1.2,2.6,1.8,4.5,1.8c1.8,0,3.3-0.5,4.5-1.7c0.3-0.3,0.7-0.7,0.9-1.2s0.4-1,0.6-1.6c0.2-0.7,0.3-1.6,0.3-2.9l0.1-9.6l-2.1,0
	L127.1,228z M135.9,234.7l8.3-1.1l-0.3-2.1l-6.3,0.9l-0.7-5.2l5.9-0.8l-0.3-2.2l-5.9,0.8l-0.7-5.1l6.1-0.8l-0.3-2.1l-8.1,1.1
	L135.9,234.7z M145.3,218.3l8.3-2.4l-4.7,16.8l12.5-3.6l-0.6-2.1l-8.9,2.6l4.7-16.8l-11.9,3.5L145.3,218.3z M179.2,209.5l-7,4.1
	l-3.8-6.3l-1.8,1.1l8.7,14.6l1.8-1.1l-3.8-6.4l7-4.1l3.8,6.4l1.8-1.1l-8.7-14.6l-1.8,1.1L179.2,209.5z M191.3,212.6l1.6-1.3
	L182.5,198l-1.6,1.3L191.3,212.6z M198,207.1l6.2-5.9l-1.5-1.6l-4.7,4.5l-10.2-10.7l-1.5,1.4L198,207.1z M207.5,197.6l5.4-6.6
	l-1.7-1.4l-4.1,5l-11.4-9.4l-1.3,1.6L207.5,197.6z M211.9,179.6c1.5-0.6,2.6-0.6,3.5,0c0.5,0.3,0.9,0.8,1,1.4c0.1,0.6,0,1.2-0.3,1.7
	c-0.8,1.2-2.2,1.9-4.2,1.9l2.6,1.6c1.5-0.4,2.6-1.3,3.4-2.5c0.7-1.1,0.8-2.1,0.5-3.2s-1-2-2.2-2.8c-1.6-1-3.4-1.1-5.4-0.3l-1.8,0.8
	c-0.8,0.3-1.5,0.5-2,0.6c-0.5,0-1-0.1-1.5-0.4c-0.5-0.3-0.8-0.7-0.8-1.3c-0.1-0.6,0.1-1.1,0.4-1.7c0.6-1,1.7-1.6,3.3-1.9l-2.3-1.5
	c-1.2,0.4-2.1,1.1-2.8,2.2c-0.7,1.1-0.9,2.2-0.6,3.3c0.3,1.1,1,2,2.1,2.7c0.8,0.5,1.5,0.7,2.3,0.7s1.8-0.2,2.9-0.7L211.9,179.6"/>
<path d="M27.5,127.6l2.7-0.3c1.1,1.4,1.8,3.1,2,5.1c0.2,1.6-0.1,3-0.7,4.2c-0.6,1.2-1.6,2.2-2.9,3s-2.7,1.2-4.2,1.4
	c-2.5,0.2-4.6-0.3-6.4-1.6c-1.8-1.3-2.8-3.1-3.1-5.3c-0.1-1.5,0.1-3.2,0.9-5.2l2.6-0.2c-1,1.8-1.4,3.5-1.2,5.1
	c0.2,1.6,0.9,2.9,2.2,3.9c1.3,1,2.9,1.4,4.8,1.2c1.9-0.2,3.3-0.9,4.4-2.1c1.1-1.2,1.5-2.6,1.4-4.3C29.7,130.8,28.9,129.1,27.5,127.6
	 M31.3,125.3l0.1-2.1l-4.9-2.1l0.4-6.2l5.1-1.6l0.1-2.1l-17.5,5.3l-0.1,1.4L31.3,125.3z M24.5,120.1l-6-2.6l6.3-1.9L24.5,120.1z
	 M33,107.6l1.9-8.4l-2.2-0.5l-1.4,6.3l-14.4-3.2l-0.5,2L33,107.6z M36.2,95.4l0.7-2L20.8,88l-0.7,2L36.2,95.4z M38.4,89.3l0.8-1.9
	L32,84.2l2.3-5.1l-2-0.9L30,83.3l-4.3-1.9l2.3-5.1l-2-0.9l-3.1,7L38.4,89.3z M31,66.1c-1.2,1.9-1.5,3.9-0.8,6c0.6,2.1,2,3.8,4.2,5.2
	c2.1,1.3,4.2,1.8,6.4,1.4c2.2-0.4,3.8-1.5,5-3.3c1.2-1.9,1.5-4,0.9-6.1s-2-3.9-4.1-5.2c-2.1-1.3-4.3-1.8-6.5-1.4
	C33.9,63,32.2,64.2,31,66.1 M33,67.2c0.8-1.3,2-2.1,3.7-2.4s3.2,0.1,4.7,1c1.6,1,2.6,2.2,3.1,3.8s0.3,3-0.5,4.4s-2.1,2.2-3.7,2.4
	c-1.6,0.3-3.2-0.1-4.7-1.1c-1.6-1-2.6-2.3-3.1-3.8C32,70.1,32.2,68.6,33,67.2 M52.8,65.1l-5.6-4.9l0.3-0.4c0.4-0.5,0.8-0.8,1.2-0.9
	c0.3-0.1,0.8-0.2,1.3-0.1c0.5,0,1.2,0.1,2,0.2l1.5,0.3l1.4,0.3l0.8,0.1c0.1,0,0.2,0,0.2,0l1.3,0.3l1.6-1.8l-1.4-0.2
	c-0.6-0.1-1.4-0.3-2.4-0.5c-1.7-0.4-2.9-0.6-3.7-0.7c-0.8-0.1-1.4,0-2,0.1c0.2-0.8,0.2-1.6,0-2.4s-0.8-1.5-1.5-2.2
	c-1.1-1-2.2-1.4-3.5-1.3c-1.2,0.1-2.3,0.7-3.2,1.8l-2.4,2.7l12.8,11.2L52.8,65.1z M42,54.9c0.7-0.8,1.2-1.2,1.6-1.5
	c0.4-0.2,0.9-0.3,1.4-0.2c0.5,0.1,0.9,0.3,1.3,0.7c0.4,0.4,0.7,0.8,0.9,1.2c0.2,0.4,0.2,0.9,0.1,1.3c-0.1,0.4-0.5,1-1.2,1.8
	l-0.5,0.6l-4-3.5L42,54.9 M67.9,45.7L52,41.5l-1.3,1l10.6,13.2l1.5-1.2l-8.2-10.2l15.7,4.1l1.4-1.1L61.1,34.2l-1.5,1.2L67.9,45.7z
	 M75.4,45.3l1.8-1.1l-8.9-14.5l-1.8,1.1L75.4,45.3z M79.9,42.4l1.9-0.9l-0.4-5.3l5.6-2.5l3.8,3.8l1.9-0.9l-13-12.8l-1.3,0.6
	L79.9,42.4z M81.2,33.8l-0.6-6.5l4.7,4.6L81.2,33.8z M104.1,26.1c1.4,0.6,2.3,1.5,2.5,2.5c0.1,0.6,0,1.2-0.3,1.7
	c-0.3,0.5-0.8,0.8-1.4,1c-1.4,0.3-2.9-0.2-4.3-1.6l0.7,3c1.4,0.8,2.7,1,4.1,0.7c1.2-0.3,2.1-0.9,2.7-1.9s0.7-2.2,0.4-3.5
	c-0.4-1.9-1.6-3.2-3.6-4.1l-1.8-0.7c-0.8-0.3-1.4-0.7-1.8-1c-0.4-0.4-0.7-0.8-0.8-1.3c-0.1-0.6,0-1.1,0.3-1.5s0.8-0.8,1.5-0.9
	c1.2-0.2,2.4,0.1,3.7,1l-0.6-2.7c-1.2-0.6-2.3-0.7-3.5-0.5c-1.2,0.3-2.2,0.9-2.7,1.9c-0.6,1-0.8,2.1-0.5,3.4
	c0.2,0.9,0.6,1.6,1.1,2.2c0.6,0.6,1.4,1.1,2.5,1.6L104.1,26.1 M109.1,17.2l4.9-0.5l1.3,14.8l2.1-0.2l-1.3-14.8l5-0.5L121,14l-12,1.1
	L109.1,17.2z M122.8,30.8l2.1,0.1L127,26l6.1,0.3l1.7,5.1l2.1,0.1l-5.6-17.4l-1.4-0.1L122.8,30.8z M127.9,23.9l2.5-6l2,6.3
	L127.9,23.9z M140.1,17.1l4.9,1l-2.9,14.6l2,0.4l2.9-14.6l4.9,1l0.4-2.1L140.5,15L140.1,17.1z M150.9,34.6l7.9,2.6l0.7-2l-6-2l1.7-5
	l5.6,1.9l0.7-2.1l-5.6-1.9l1.6-4.9l5.8,1.9l0.7-2l-7.8-2.6L150.9,34.6z M180.8,40.5c-0.7,1.1-1.3,1.9-1.7,2.3
	c-0.4,0.4-0.9,0.6-1.5,0.8c-1.1,0.2-2.1,0-3.1-0.6c-0.7-0.5-1.3-1-1.6-1.7c-0.4-0.7-0.5-1.3-0.4-2c0.1-0.7,0.5-1.7,1.3-3.1l5-8.2
	l-1.8-1.1l-5,8.2c-0.7,1.2-1.2,2.1-1.4,2.7s-0.3,1.2-0.3,1.7s0,1,0.1,1.5c0.4,1.6,1.4,2.8,3,3.8c1.6,1,3.2,1.2,4.7,0.8
	c0.5-0.1,0.9-0.3,1.4-0.6c0.4-0.2,0.9-0.6,1.4-1.1s1.1-1.3,1.7-2.4l5-8.2l-1.8-1.1L180.8,40.5z M192.1,54l1.2-16.3l-1.3-1.1
	L181,49.4l1.5,1.3l8.6-9.9L189.8,57l1.4,1.2l11.1-12.9l-1.5-1.3L192.1,54z M193.9,61.4l1.4,1.5l12.6-11.3l-1.4-1.5L193.9,61.4z
	 M204.8,66.7l7.1-10.5l-1.2-1.7l-10.1,15.1l0.3,0.4l17.4-5.1l-1.2-1.7L204.8,66.7z M205.4,76.7l4,7.4l1.9-1l-3-5.6l4.6-2.5l2.8,5.2
	l1.9-1l-2.8-5.2l4.6-2.5l2.9,5.4l1.9-1l-3.9-7.2L205.4,76.7z M211.5,89l6.9-2.6l0.2,0.5c0.2,0.6,0.3,1.1,0.2,1.4
	c-0.1,0.3-0.2,0.7-0.5,1.2c-0.3,0.5-0.6,1-1.1,1.7l-1,1.1l-0.9,1l-0.5,0.6c-0.1,0.1-0.1,0.2-0.1,0.2l-0.8,1l0.9,2.3l0.9-1.1
	c0.4-0.5,0.9-1.1,1.6-1.9c1.1-1.3,1.9-2.2,2.4-2.9s0.7-1.2,0.9-1.8c0.6,0.6,1.3,1,2.1,1.1c0.8,0.1,1.7,0,2.6-0.3
	c1.4-0.5,2.3-1.3,2.8-2.4c0.5-1.1,0.5-2.3,0-3.7l-1.3-3.4l-15.9,6L211.5,89z M225.7,84.3c0.4,0.9,0.5,1.7,0.5,2.1
	c0,0.5-0.2,0.9-0.5,1.3s-0.7,0.7-1.2,0.8c-0.5,0.2-1,0.3-1.5,0.2c-0.5-0.1-0.9-0.2-1.2-0.5c-0.3-0.3-0.7-0.9-1.1-1.9l-0.3-0.7l5-1.9
	L225.7,84.3 M223.1,102.5c-0.6,1.4-1.4,2.3-2.4,2.5c-0.6,0.1-1.2,0.1-1.7-0.3s-0.8-0.8-1-1.4c-0.3-1.4,0.2-2.9,1.6-4.3l-3,0.7
	c-0.8,1.4-1,2.8-0.6,4.1c0.3,1.2,0.9,2.1,1.9,2.7c1,0.6,2.2,0.7,3.5,0.4c1.9-0.4,3.2-1.6,4-3.6l0.7-1.8c0.3-0.8,0.7-1.4,1-1.8
	c0.4-0.4,0.8-0.7,1.3-0.8c0.6-0.1,1.1,0,1.5,0.3c0.5,0.3,0.8,0.8,0.9,1.5c0.3,1.2-0.1,2.4-1,3.7l2.7-0.6c0.6-1.2,0.7-2.3,0.4-3.5
	c-0.3-1.2-0.9-2.1-1.9-2.7c-1-0.6-2.1-0.7-3.4-0.4c-0.9,0.2-1.6,0.6-2.2,1.1s-1.1,1.4-1.6,2.5L223.1,102.5 M217.5,111.3l0.3,2.1
	l16.8-2.2l-0.3-2.1L217.5,111.3z M233.1,116.2l0.1,4.9l-14.8,0.3l0,2.1l14.8-0.3l0.1,5l2.2-0.1l-0.2-12.1L233.1,116.2z M228.8,137.3
	l6.3-3.1l0.3-2.5l-8.6,4.3l-8.9-1.1l-0.3,2.1l8.9,1.1l7.3,6.3l0.3-2.5L228.8,137.3z"/>
<path class="st3" d="M212.6,125.1c0,48.4-39.2,87.6-87.6,87.6s-87.6-39.2-87.6-87.6s39.2-87.6,87.6-87.6S212.6,76.7,212.6,125.1z
	 M125.1,9.5C61.2,9.5,9.5,61.2,9.5,125.1c0,63.8,51.8,115.6,115.6,115.6s115.6-51.8,115.6-115.6C240.6,61.2,188.9,9.5,125.1,9.5z"/>
</svg>
