<?xml version="1.0" encoding="UTF-8" standalone="no"?>
<svg xmlns:rdf="http://www.w3.org/1999/02/22-rdf-syntax-ns#" xmlns="http://www.w3.org/2000/svg" enable-background="new 0 0 250 250" xml:space="preserve" viewBox="0 0 250 250" height="250" width="250" version="1.1" xmlns:cc="http://creativecommons.org/ns#" xmlns:dc="http://purl.org/dc/elements/1.1/"><g transform="matrix(.80848 0 0 .80848 .90909 1.0909)"><g><path fill="#00274c" d="m0 153.38c0-84.712 68.667-153.38 153.38-153.38 84.7 0 153.37 68.668 153.37 153.38 0 84.7-68.67 153.37-153.37 153.37-84.713 0-153.38-68.67-153.38-153.37"/><path d="m1.2191 153.38c0 42.019 17.029 80.055 44.566 107.59 27.535 27.537 65.57 44.566 107.59 44.566 42.017 0 80.055-17.029 107.59-44.566 27.532-27.536 44.563-65.573 44.563-107.59 0-42.019-17.032-80.053-44.563-107.59-27.54-27.541-65.58-44.572-107.59-44.572-42.019 0-80.054 17.031-107.59 44.566-27.541 27.538-44.571 65.576-44.571 107.6" fill="#fff"/><path fill="#e17000" d="m3.522 153.38c0-82.76 67.091-149.85 149.85-149.85 82.763 0 149.85 67.092 149.85 149.85 0 82.763-67.088 149.85-149.85 149.85-82.757 0-149.85-67.09-149.85-149.85"/><path d="m5.9261 153.38c0 40.721 16.503 77.579 43.188 104.26 26.682 26.685 63.542 43.185 104.26 43.185s77.576-16.5 104.26-43.185c26.682-26.682 43.183-63.542 43.183-104.26 0-40.72-16.501-77.574-43.183-104.26-26.685-26.682-63.545-43.187-104.26-43.187-40.72 0-77.578 16.505-104.26 43.187-26.687 26.68-43.19 63.54-43.19 104.26" fill="#00274c"/></g><path fill="#fff" d="m43.718 153.38c0-60.562 49.093-109.66 109.66-109.66 60.562 0 109.66 49.096 109.66 109.66 0 60.561-49.096 109.66-109.66 109.66-60.562 0-109.66-49.099-109.66-109.66"/><path fill="#e17000" d="m45.914 153.38c0-59.349 48.112-107.46 107.46-107.46 59.349 0 107.46 48.111 107.46 107.46 0 59.35-48.115 107.46-107.46 107.46-59.344 0-107.46-48.12-107.46-107.46"/><path fill="#fff" d="m232.2 97.095-8.308-0.293v-7.656h-10.339l17.451-3.653-37.519 3.653h-5.953l37.132-13.944 1.721-0.949-42.644 11.07 33.151-18.791-0.71-0.961-34.83 15.147 25.059-21.121-1.517-1.062-26.953 17.745 19.009-21.342-2.027-0.911-20.735 19.012 14.055-21.491-2.278-0.862-15.872 19.792 9.543-21.412s-1.472-0.53-2.633-0.757c-0.037-0.008-12.027 20.804-12.027 20.804l6.106-21.918-2.731-0.456-7.983 20.669 2.464-21.174-2.936-0.354-4.817 21.355-0.847-21.418-1.45-0.07v-0.002h-0.021-0.021v0.002l-1.45 0.07-0.845 21.418-4.769-21.137-2.89 0.034 2.372 21.276-7.945-20.456-2.699 0.497 6.031 21.664s-11.792-20.508-11.83-20.503c-1.161 0.231-2.662 0.761-2.662 0.761l9.376 21.106-15.561-19.4-2.345 0.853 13.811 21.11-20.209-18.551-2.062 0.925 18.515 20.867-26.12-17.101-1.75 0.922 24.458 20.615-33.656-14.642-1.177 0.71 32.444 18.537-42.641-11.07 1.721 0.949 37.129 13.944h-3.908v0.201l-39.563-3.854 39.563 8.284v1.883l-16.526 0.582c0.911-0.401 1.769-0.781 2.552-1.142-1.171-0.257-1.826-0.496-1.826-0.496s-1.622 0.694-4.058 1.756l-20.898 0.736 19.233-0.008c-6.586 2.884-16.869 7.48-19.81 9.301 0 0 13.387-5.23 22.86-9.301l18.472-0.008v14.668h109.81v-14.65l8.309-0.002z"/><path fill="#00274c" d="m257.25 129.11 0.029 0.005c-3.08-14.791-11.692-30.245-13.231-31.938-10.939-4.93-26.515-15.668-26.515-15.668-3.082 1.39-16.748 7.294-18.439 7.909 4.157 2.772 22.413 13.741 22.413 13.741-28.14-11.303-57.13-35.507-57.13-35.507-13.6 9.917-25.1 13.337-25.1 13.337 2.77 6.459 23.949 12.954 26.943 13.879 3.005 0.919 5.543 5.304 5.543 5.304-15.687-2.309-43.134-20.527-43.134-20.527-15.909 11.3-51.8 24.721-55.119 26.06-0.279 0.113-0.563 0.231-0.86 0.358 9.878-5.19 25.608-11.797 25.608-11.797-9.246-5.158-16.872-11.853-16.872-11.853-4.747 2.805-11.738 5.792-13.58 7.252-3.059 3.418-3.238 4.057-3.251 4.079-1.858 2.789-4.002 6.742-5.702 10.044v-0.031c-1.882 3.764-12.191 21.38-12.191 50-0.134 36.541 20.85 72.799 53.092 91.204 5.78-1.074 34.711-6.318 59.028-6.318 24.315 0 50.506 4.85 50.506 4.85 12.033-5.621 50.417-37.717 50.686-89.738-0.001-12.145-1.449-19.801-2.727-24.645"/><path fill="#fff" d="m163.87 14.688c-0.0564 0.01088-0.10367 0.03567-0.13867 0.07617-0.338 0.98-1.0061 2.7015-1.7031 4.1895 0.076 0.301 0.66958 0.46922 0.89258 0.32422 1.377-2.185 2.1978-2.397 4.8438-2.043l1.6094 0.2168c0.746 0.102 0.76647 0.16309 0.60547 1.3711l-1.6719 12.422c-0.41 3.051-0.67387 3.0442-2.0469 3.0332l-1.2305-0.01563c-0.22 0.116-0.26674 0.69384-0.0527 0.83984 1.848 0.189 3.2038 0.34272 4.4688 0.51172 1.266 0.172 2.5578 0.3743 4.2168 0.6543 0.247-0.083 0.34287-0.59617 0.17187-0.82617l-1.0215-0.25195c-1.332-0.327-1.578-0.44814-1.168-3.4941l1.668-12.426c0.163-1.207 0.19931-1.2601 0.94531-1.1621l1.6406 0.22266c3.078 0.413 3.5521 1.0322 3.6211 3.3262 0.235 0.238 0.7303 0.24616 0.9043 0.03516 0.04-0.933 0.60287-3.3736 1.0469-4.5156-0.044-0.093-0.18047-0.17131-0.35547-0.19531-0.115-0.015-0.23837 0.02636-0.35937 0.06836-0.433 0.616-0.87516 0.64603-2.2852 0.45703l-11.734-1.5801c-1.957-0.26-2.3554-0.34598-2.4004-1.084-0.048-0.093-0.15844-0.13634-0.27344-0.15234-0.0725-0.01-0.13698-0.01283-0.19336-0.002zm-24.557 0.22461c-0.113 0.02-0.21827 0.09592-0.32227 0.16992-0.234 0.717-0.64878 0.87833-2.0508 1.1113l-11.676 1.959c-1.946 0.327-2.3542 0.36288-2.6172-0.32812-0.073-0.074-0.18968-0.08345-0.30468-0.06445-0.142 0.026-0.25188 0.07097-0.29688 0.16797-0.03 1.035-0.16262 2.8818-0.39062 4.5098 0.164 0.267 0.77822 0.24988 0.94922 0.04687 0.67-2.498 1.3923-2.9428 4.0273-3.3848l1.5996-0.26953c0.746-0.123 0.78337-0.06919 0.98437 1.1328l2.0742 12.363c0.512 3.036 0.26041 3.1059-1.0586 3.5039l-1.1777 0.34375c-0.176 0.178-0.0528 0.74427 0.19922 0.82227 1.817-0.366 3.161-0.61808 4.418-0.83008 1.26-0.212 2.5507-0.40109 4.2207-0.62109 0.211-0.153 0.15293-0.67284-0.0801-0.83984l-1.0508 0.05859c-1.367 0.084-1.6384 0.04081-2.1504-2.9922l-2.07-12.366c-0.201-1.203-0.17854-1.2627 0.56446-1.3887l1.6289-0.27539c3.063-0.513 3.7003-0.05967 4.4453 2.1113 0.29199 0.156 0.76804 0.01567 0.87304-0.23633-0.239-0.901-0.42303-3.402-0.33203-4.623-0.072-0.078-0.22639-0.11103-0.40039-0.08203zm12.295 0.01563c-0.06 0-0.99772 1.2058-2.0117 1.4258 0.096 0.492-0.17972 1.194-0.51172 2.127l-3.8008 10.398c-0.582 1.579-1.0263 2.8045-1.3613 3.5645-0.42101 0.964-0.73822 1.2043-1.5742 1.3633l-0.8711 0.16016c-0.196 0.267-0.16108 0.6988 0.0449 0.8418 1.016-0.078 1.9141-0.11972 2.8711-0.13672 1.191 0.008 2.1501-0.0068 3.0781 0.03516 0.23-0.12 0.24802-0.64275 0.041-0.84375l-0.83984-0.13086c-1.078-0.154-1.1965-0.21064-0.64454-1.9316l1.1309-3.502c0.247-0.788 0.21757-0.78973 0.97657-0.80273l3.8594-0.0625c0.812-0.016 0.92713-0.01728 1.2031 0.76172l1.4297 3.9238c0.455 1.211 0.31344 1.3888-0.72656 1.5508l-0.63867 0.09766c-0.17 0.176-0.13444 0.69784 0.10156 0.83984 1.013-0.046 2.2901-0.12548 3.5391-0.14648 1.509-0.026 2.5834-0.01452 3.7734 0.02148 0.201-0.149 0.19303-0.63884-0.043-0.83984l-0.4375-0.08008c-1.485-0.265-1.633-0.43714-2.332-2.3691l-4.3887-12.088c-0.485-1.299-0.88709-2.658-1.3711-3.957-0.118-0.143-0.2631-0.2237-0.4961-0.2207zm36.012 4.4668c-0.254 0.044-0.43673 0.53306-0.30273 0.78906l0.42578 0.18945c1.252 0.571 1.4676 0.76122 0.55664 3.6992l-3.1973 10.311c-0.911 2.938-1.1842 2.9467-2.5332 2.6797l-1.0586-0.20508c-0.255 0.131-0.38336 0.63931-0.19336 0.82031 1.263 0.33 2.9625 0.82608 4.1855 1.2051l3.1562 0.98047c3.247 1.005 5.6193 1.7711 6.8223 2.2051 0.619-0.628 1.8822-2.5462 2.4102-3.6602-0.08-0.326-0.52498-0.5555-0.83398-0.4375-1.667 1.944-2.5153 2.5311-6.0273 1.4121-2.321-0.751-2.7323-1.091-2.9473-1.582-0.267-0.597-0.0132-1.6133 0.42578-3.0273l1.0938-3.5215c0.212-0.692 0.25658-0.74002 0.89258-0.54102l1.332 0.41016c2.413 0.746 2.8672 0.95178 2.7012 2.1758l-0.15039 1.1699c0.171 0.234 0.69553 0.39709 0.89453 0.24609 0.246-0.898 0.49332-1.8865 0.82032-2.9375 0.318-1.027 0.67945-2.01 0.93945-2.748-0.067-0.263-0.59495-0.42874-0.87695-0.30274l-0.48242 0.88477c-0.622 1.114-1.047 1.0127-3.459 0.26367l-1.3301-0.41211c-0.638-0.197-0.65754-0.23208-0.43554-0.95508l1.457-4.6836c0.487-1.582 0.50331-1.6365 1.6953-1.2695l1.8574 0.57812c0.748 0.234 1.5536 0.57355 2.1406 0.93555 0.813 0.526 1.0188 1.3214 0.96484 3.0664 0.169 0.235 0.74187 0.35211 0.92188 0.16211 0.20299-1.243 0.7169-3.4842 0.7539-3.9922-0.381-0.054-1.9985-0.52322-3.7695-1.0742l-5.2969-1.6426c-1.219-0.376-2.5147-0.80941-3.5527-1.1914zm-37.531 0.23242h0.0606c0.15 0.201 0.30256 0.74834 0.85156 2.2773l1.2754 3.4609c0.244 0.692 0.12941 0.75358-0.68359 0.76758l-3.0195 0.05078c-0.696 0.011-0.75152 0.01202-0.47852-0.83398l1.1602-3.416c0.475-1.37 0.72198-2.0996 0.83398-2.3066zm-35.84 1.4395c-1.375 0.186-2.5299 0.21045-3.9609 0.68945-4.016 1.351-5.2734 4.3454-4.3594 7.0684 0.833 2.476 3.2141 3.5429 5.6641 4.0039l1.4043 0.26562c2.452 0.461 3.6204 1.4739 4.1504 3.0449 0.563 1.676-0.19715 3.341-2.2852 4.043-2.699 0.907-5.1726-1.5384-6.1406-2.7754-0.284-0.118-0.73945 0.06644-0.81445 0.39844 0.547 1.715 1.5415 3.4903 2.2305 3.9023 0.662 0.146 2.3694 0.48962 4.9004-0.35938 3.989-1.34 5.6311-4.3718 4.5781-7.5098-0.933-2.777-3.4878-3.8174-5.5918-4.1504l-2.0078-0.33594c-2.142-0.351-3.3562-1.3235-3.7422-2.4785-0.491-1.458-0.0663-3.1926 2.1367-3.9336 2.337-0.786 3.9214 0.73339 4.8144 2.0254 0.314 0.11 0.79756-0.08395 0.85156-0.37695-0.434-1.294-1.3191-3.0195-1.8281-3.5215zm102.76 9.3691c-0.257-0.023-0.53865 0.38016-0.47265 0.66016l0.375 0.33398c1.045 0.908 1.2407 1.0917-0.36328 3.7188l-3.8359 6.2891c-1.528 2.503-2.0656 4.5538-1.5996 6.2988 0.475 1.786 1.8097 3.2772 4.1367 4.6992 1.71 1.04 3.8543 1.7056 5.9883 1.1016 2.134-0.602 3.75-2.4716 5.125-4.7246l1.7988-2.9492c1.193-1.957 2.5233-4.136 3.3223-4.668 0.419-0.291 0.92208-0.11864 1.4551 0.06836l0.61914 0.20703c0.306-0.051 0.49705-0.4767 0.37305-0.7207-0.946-0.51-1.6299-0.8953-2.6699-1.5293-0.968-0.586-1.894-1.187-2.707-1.75-0.289-0.076-0.59065 0.35406-0.47265 0.66406l0.44922 0.37695c0.561 0.477 0.8537 0.89044 0.8457 1.3984 0.011 0.991-1.3729 3.3109-2.5039 5.1699l-1.8867 3.0977c-2.298 3.766-5.131 5.4009-8.377 3.4219-3.442-2.1-2.7325-5.6073-0.64648-9.0273l3.459-5.6758c1.601-2.623 1.8856-2.5884 3.1406-2.0254l0.58984 0.25976c0.278-0.07 0.51005-0.50461 0.37305-0.72461-1.118-0.616-2.2493-1.2712-3.3633-1.9492-1.091-0.667-2.1894-1.3695-3.1524-2.0215zm-134.85 4.25c-0.08875 0.0079-0.18075 0.03911-0.28125 0.09961-0.048 0.031-0.24681 1.5421-1.0078 2.2461 0.333 0.375 0.44481 1.1227 0.63281 2.0977l1.9863 10.889c0.298 1.655 0.53581 2.9397 0.63281 3.7637 0.126 1.045-0.02697 1.4097-0.66797 1.9727l-0.66602 0.57617c-0.038 0.33 0.21389 0.68412 0.46289 0.70312 0.836-0.579 1.5892-1.0723 2.4062-1.5703 1.029-0.596 1.8469-1.0943 2.6699-1.5293 0.139-0.22-0.10967-0.68005-0.38867-0.74805l-0.79297 0.31641c-1.008 0.409-1.1372 0.42125-1.5332-1.3438l-0.791-3.594c-0.185-0.804-0.20941-0.79064 0.43359-1.1816l3.293-2.0117c0.694-0.425 0.79474-0.48317 1.4277 0.04883l3.2188 2.6582c1.008 0.815 0.97325 1.039 0.15625 1.709l-0.5 0.40625c-0.059 0.238 0.23872 0.66792 0.51172 0.66992 0.856-0.553 1.9115-1.268 2.9785-1.918 1.289-0.785 2.2206-1.3196 3.2656-1.8906 0.1-0.227-0.15494-0.65017-0.46094-0.70117l-0.41797 0.15234c-1.415 0.521-1.6289 0.45067-3.2109-0.86133l-9.9004-8.2051c-1.08-0.874-2.1105-1.8408-3.1855-2.7148-0.0885-0.032-0.17492-0.04694-0.26367-0.03906zm0.84375 4.8906c0.227 0.096 0.63581 0.49125 1.8828 1.5312l2.8555 2.3398c0.563 0.474 0.49583 0.58386-0.20117 1.0059l-2.5762 1.5742c-0.592 0.362-0.64203 0.39344-0.83203-0.47656l-0.73047-3.5332c-0.287-1.422-0.44617-2.1772-0.45117-2.4102l0.05273-0.03125zm-13.32 3.8906c-0.954 0.849-1.9533 1.6921-2.9453 2.4961-1.04 0.837-2.0745 1.6365-3.1035 2.3945-0.108 0.236 0.19738 0.66041 0.48438 0.69141l0.54883-0.33398c1.174-0.722 1.4303-0.81978 3.3633 1.5742l6.7852 8.4004c1.932 2.393 1.786 2.6242 0.83398 3.6172l-0.43945 0.4707c-0.034 0.285 0.31722 0.67023 0.57422 0.61523 0.954-0.846 1.9972-1.7253 2.9922-2.5293 0.992-0.802 2.0296-1.6004 3.0586-2.3574 0.105-0.235-0.19738-0.66241-0.48438-0.69141l-0.55273 0.33398c-1.171 0.721-1.4263 0.81783-3.3613-1.5762l-6.779-8.402c-1.933-2.393-1.786-2.6242-0.83398-3.6172l0.44141-0.46875c0.032-0.286-0.32217-0.67414-0.57617-0.61914zm169.23 1.1465c-0.22969 0.07017-0.4573 0.34858-0.43555 0.54883l0.25976 0.35938c0.238 0.341 0.67829 1.0588 0.73829 1.4688 0.155 1.287-0.1838 1.6075-1.7168 3.2715l-4.666 5.0566c-1.557 1.686-3.2712 3.5404-4.1562 3.9434-0.464 0.204-0.90862-0.084-1.3906-0.375l-0.54-0.327c-0.308-0.009-0.59935 0.39225-0.52735 0.65625 0.785 0.648 1.3794 1.1564 2.2754 1.9844 0.812 0.747 1.624 1.5346 2.375 2.3066 0.27 0.131 0.66532-0.25308 0.61132-0.58008l-0.41015-0.49609c-0.474-0.555-0.69971-1.0391-0.59571-1.5371 0.227-0.974 2.0171-2.9567 3.4941-4.5547l3.8379-4.1621c1.045-1.128 1.2602-1.3637 1.3262-1.3027 0.064 0.653 0.0402 2.0907-0.0508 4.9297l-0.26563 10.299c-0.08 3.164-0.12812 4.4597-0.20312 5.2227 0.238 0.259 0.61595 0.44905 1.002 0.37305 0.388-0.549 2.8123-3.1725 3.4023-3.8125l4.7031-5.1016c1.558-1.686 3.2677-3.5408 4.1797-3.9258 0.463-0.202 0.88318 0.06647 1.3672 0.35547l0.58985 0.3457c0.308 0.008 0.59934-0.39225 0.52734-0.65625-0.807-0.665-1.3829-1.156-2.2969-2.002-0.833-0.767-1.6035-1.5171-2.3965-2.3281-0.271-0.134-0.66833 0.25408-0.61133 0.58008l0.43164 0.51758c0.474 0.554 0.67822 1.0176 0.57422 1.5156-0.206 0.997-1.9976 2.9752-3.4746 4.5762l-3.8379 4.1582c-0.313 0.343-0.41411 0.44812-0.53711 0.45312-0.096-0.324 0.009-4.4127 0.0195-6.2227l-0.008-4.2715c0.003-1.499 0.15953-6.3301 0.64453-7.5801-0.553-0.429-1.0862-0.87897-1.5332-1.293-0.531-0.491-1.725-1.5547-2.457-2.3867-0.0683-0.0335-0.14414-0.03316-0.2207-0.0098zm-180.37 7.868c-0.662 0.807-1.1502 1.3837-1.9922 2.3027-0.767 0.837-1.5144 1.6083-2.3184 2.4043-0.134 0.275 0.25503 0.66828 0.58203 0.61328l0.51562-0.43359c0.555-0.476 1.0147-0.68203 1.5137-0.58203 0.995 0.204 2.9849 1.9861 4.5879 3.4551l4.1758 3.8242c0.34 0.312 0.44812 0.41116 0.45312 0.53516-0.325 0.096-4.4166 0.0059-6.2266 0.0039l-4.2695 0.02539c-1.498 0.003-6.3309-0.13523-7.5859-0.61523-0.429 0.555-0.87711 1.0871-1.2871 1.5371-0.493 0.535-1.549 1.7318-2.377 2.4648-0.131 0.274 0.27497 0.68725 0.54297 0.65625l0.35742-0.26367c0.338-0.242 1.0568-0.68223 1.4648-0.74023 1.289-0.159 1.6142 0.17608 3.2812 1.7051l5.0723 4.6445c1.689 1.548 3.5539 3.2566 3.9609 4.1426 0.204 0.461-0.08514 0.90563-0.36914 1.3906l-0.32422 0.56836c-0.008 0.308 0.3932 0.59834 0.6582 0.52734 0.64-0.791 1.1516-1.3881 1.9746-2.2871 0.748-0.813 1.5288-1.6269 2.2988-2.3789 0.131-0.272-0.25503-0.66828-0.58203-0.61328l-0.49219 0.41406c-0.558 0.478-1.0381 0.70356-1.5391 0.60156-0.972-0.223-2.9634-2.0076-4.5684-3.4766l-4.1699-3.8242c-1.136-1.037-1.3685-1.2534-1.3125-1.3164 0.654-0.068 2.0946-0.05175 4.9336 0.03125l10.303 0.22461c3.163 0.069 4.4617 0.11259 5.2227 0.18359 0.257-0.238 0.44414-0.61786 0.36914-1.0059-0.552-0.385-3.1841-2.7958-3.8281-3.3828l-5.1172-4.6875c-1.688-1.548-3.553-3.251-3.939-4.159-0.206-0.465 0.06256-0.88909 0.35156-1.3711l0.3418-0.58984c0.005-0.31-0.39411-0.60134-0.66211-0.52734zm200 11.547c-0.22017 0.0525-0.46398 0.27573-0.49023 0.49023l0.33203 0.55274c0.716 1.174 0.81111 1.4325-1.5879 3.3555l-8.4219 6.752c-2.399 1.923-2.6321 1.7744-3.6211 0.81641l-0.4668-0.44141c-0.287-0.032-0.67514 0.31831-0.61914 0.57031 0.845 0.961 1.7226 2.0069 2.5156 3.0039 0.799 0.996 1.5947 2.0325 2.3476 3.0645 0.23501 0.107 0.66241-0.19447 0.69141-0.48047l-0.33008-0.55469c-0.718-1.171-0.81011-1.4305 1.5879-3.3555l8.4238-6.748c2.399-1.923 2.6312-1.7763 3.6172-0.82031l0.46875 0.44531c0.287 0.029 0.67509-0.31831 0.62109-0.57031-0.846-0.961-1.6834-1.959-2.4824-2.957-0.834-1.042-1.6298-2.0793-2.3828-3.1113-0.059-0.0275-0.12974-0.02922-0.20313-0.01172zm8.0488 9.8848c-0.22406 0.002-0.48881 0.20406-0.53906 0.41406l0.23242 0.67383c0.4 1.111 0.18455 1.5441-1.0644 3.2441l-7.8516 10.646c-0.774 1.076-1.7563 2.2056-2.5703 3.1016 0 0.171 0.0562 0.37288 0.16016 0.54688 0.105 0.176 0.27491 0.34461 0.37891 0.34961 1.522-0.338 5.1191-0.94711 7.9961-1.2871l3.918-0.46094c3.2-0.365 5.2844-0.67436 6.9004-0.69336 0.973-0.01 1.4733 0.43269 1.9453 0.92969l0.49609 0.54688c0.273 0.005 0.68641-0.20938 0.69141-0.48438-0.468-0.666-0.98744-1.4751-1.5234-2.3691-0.482-0.796-0.96434-1.6541-1.5273-2.7051-0.243-0.122-0.656 0.09372-0.75 0.38672l0.25977 0.82617c0.274 0.851 0.12076 1.0422-1.1152 1.2422-4.171 0.718-8.4984 1.2871-12.441 1.8281 0.424-0.593 1.4849-2.1446 2.3379-3.2656l3.3476-4.4512c1.925-2.546 2.3532-3.074 2.5762-3.209 0.199-0.12 0.44454 0.0065 0.89453 0.47852l0.52344 0.5293c0.311 0.12 0.69003-0.14208 0.70703-0.45508-0.842-1.29-1.3739-2.1202-2.0469-3.2402-0.585-0.968-1.2014-2.0518-1.7344-3.0508-0.0562-0.05125-0.12648-0.07294-0.20117-0.07227zm-225.36 3.238c-0.83412 0.01675-1.6271 0.27722-2.3496 0.69922-1.263 0.72-2.5502 2.2469-3.7402 4.1699-1.255 2.024-2.4799 4.1675-3.2949 5.8125 0 0.275 0.39678 0.51812 0.67578 0.45312l0.4707-0.59766c0.841-1.081 1.1534-0.92408 3.5234 0.54492l9.0273 5.5918c2.614 1.619 2.5515 1.8897 1.9805 3.1387l-0.25977 0.58984c0.035 0.33 0.52414 0.52958 0.74414 0.39258 0.654-1.163 1.3153-2.288 1.9883-3.375s1.3864-2.1813 2.1074-3.2363c0.022-0.257-0.40455-0.55724-0.68555-0.49024l-0.408 0.496c-0.868 1.068-1.0793 1.244-3.6953-0.375l-3.1562-1.957c-0.52-0.322-0.52831-0.36252-0.07031-1.1035 0.507-0.812 0.77306-1.0228 1.7891-1.0078 1.328 0.005 3.1125 0.15186 4.5625 0.13086 3.225-0.086 4.9852-0.77162 6.4512-3.1406 0.536-0.865 0.75133-1.3777 0.86133-1.7207-0.08-0.152-0.34944-0.32081-0.52344-0.25781-0.209 0.28-0.79931 0.90452-1.8203 1.2285-1.68 0.566-4.5447 0.50116-9.0957 0.41016-0.209 0.009-0.43697-0.06581-0.41797-0.25781 0.255-1.515 0.20355-3.972-2.0645-5.377-0.89-0.551-1.7655-0.77847-2.5996-0.76172zm-1.4883 3.3066c0.79201 0.02761 1.5964 0.2825 2.3262 0.73437 2.346 1.451 2.8398 3.2958 1.3438 5.7148-0.731 1.184-0.78322 1.1531-1.5742 0.66406l-5.1309-3.1777c-1.133-0.703-1.1914-0.77464-0.39844-2.0566 0.83125-1.3419 2.1136-1.9249 3.4336-1.8789zm-5.7148 15.283c-3.8048-0.12492-7.5022 1.8526-9.3555 6.5273-2.246 5.666 0.247 11.273 5.75 13.455 4.803 1.902 10.48 0.097 12.898-6 2.16-5.451-0.20062-11.07-5.5156-13.178-1.2278-0.4865-2.5091-0.76305-3.7773-0.80469zm244.94 0.08789c-0.22603-0.01341-0.52899 0.12892-0.61524 0.32617l0.11914 0.45312c0.343 1.331 0.33071 1.617-2.5293 2.752l-10.031 3.9883c-2.86 1.136-3.0367 0.92394-3.6777-0.28906l-0.5-0.95703c-0.266-0.113-0.74067 0.10819-0.76367 0.36719 0.538 1.19 1.2185 2.8257 1.6875 4.0117l1.2227 3.0762c1.253 3.156 2.1484 5.4873 2.5644 6.6953 0.879 0.087 3.1663-0.13588 4.3613-0.42188 0.203-0.27 0.10431-0.76073-0.17969-0.92773-2.563-0.077-3.5518-0.36964-4.8848-3.8066-0.87301-2.276-0.86515-2.8072-0.61915-3.2832 0.298-0.587 1.25-1.0273 2.625-1.5723l3.4258-1.3613c0.67-0.267 0.73642-0.26358 0.98242 0.35742l0.51562 1.293c0.934 2.347 1.0629 2.8278 0.004 3.4668l-1.0059 0.61719c-0.075 0.281 0.12814 0.79551 0.36914 0.85351 0.856-0.368 1.7768-0.79607 2.8008-1.2051 0.998-0.396 1.9915-0.72918 2.7305-0.99218 0.162-0.22-0.0434-0.73205-0.31641-0.87305l-0.99023 0.17383c-1.258 0.218-1.4429-0.17449-2.3789-2.5215l-0.51172-1.293c-0.247-0.621-0.22934-0.6605 0.47266-0.9375l4.5566-1.8106c1.536-0.61 1.5917-0.63261 2.0527 0.52539l0.71679 1.8086c0.292 0.728 0.53028 1.5699 0.61328 2.2539 0.103 0.961-0.38534 1.6218-1.7773 2.6738-0.077 0.28 0.19017 0.79931 0.45117 0.82031 1.094-0.623 3.1592-1.6309 3.5742-1.9219-0.192-0.32801-0.83744-1.8834-1.5234-3.6094l-2.0488-5.1484c-0.469-1.187-0.94873-2.4657-1.3027-3.5137-0.0478-0.04275-0.11411-0.06389-0.18945-0.06836zm-247.03 3.572c1.6444 0.01682 3.3664 0.40061 4.8945 1.0059 5.423 2.153 6.7337 5.5411 5.5117 8.6191-1.828 4.612-7.5329 4.1958-11.254 2.7188-5.75-2.279-6.5514-6.0012-5.4824-8.6992 1.0625-2.6819 3.5894-3.6726 6.3301-3.6445zm100.82 5.276c-1.6731-0.0332-3.7391 0.22727-5.3223 1.6348-2.531 2.253-2.4062 4.4551-2.4062 4.4551-1.415 0.606-3.8427 2.9602-3.8457 4.9102 0 1.4131 0.2819 2.792 0.72852 4.125-0.87931-0.0568-1.7055-0.17724-2.4688-0.36133-0.116-0.17535-0.24024-0.40918-0.24024-0.67578v-1.7715s1.8154-1.5195 2.0274-3.1895c0.306-2.379-1.5706-5.0609-1.2656-6.6309-0.659 0.762-5.6691 5.9735-1.6191 9.7695 0 0.49375 0.31157 1.5426-0.25195 2.0918-1.3802-0.49133-2.5426-1.1596-3.4941-1.8828 0.0986-0.28086 0.15429-0.57047 0.15429-0.86719 0-2.328-0.60606-5.1598-1.1641-6.4258-0.29573 0.6219-1.4459 1.8608-2.4824 2.9375-0.00015-0.001-0.002-0.005-0.002-0.006 1.775-3.744-0.75799-4.9604-0.95899-5.3144-0.204-0.354-0.76253-1.3136-0.81055-1.5176-4.455 4.709 0.30221 7.0881 0.65821 7.2891 0.0334 0.19554 0.0776 0.38625 0.1289 0.57422-0.0345 0.0347-0.0966 0.10244-0.1289 0.13477-1.013 1.013-1.7709 3.4933-0.25391 6.5293-0.504 1.367-0.91203 3.6473-0.45703 6.2793 0.44205 2.5486 0.0733 7.2293-1.1484 8.0215-2.5565-2.0565-4.5111-3.8716-5.6777-5.3848-0.0525-0.48965-0.13335-1.3597-0.0566-1.9316 0.102-0.757 2.7836-4.4025 2.6816-6.0215-0.099-1.619-2.8316-6.3279-2.6816-7.7949-0.402 1.062-5.265 7.1355-0.95899 12.604 0.0732 0.40038 0.21571 1.189 0.16407 1.9023-2.39-4.1036-2.75-9.9004-2.75-9.9004s0.35363-0.40475 1.2656-1.4688c0.911-1.062 0.001-3.491-0.29883-4.252-0.305-0.757-0.76172-3.7969-0.76172-3.7969s-0.91203 0.45718-2.582 3.9512c-1.671 3.491 0.60911 5.163 0.91211 6.377 0 2.145 0.35115 4.1491 0.8457 5.9004-0.10822 0.017-0.21244 0.0148-0.29883-0.043-0.303-0.202-2.1738-1.3184-2.1738-1.3184s-1.0649-5.5158-8.5039-3.5918c0.354 0.406 0.85831 5.3668 7.9453 4.7578 0.70137 0.2208 2.535 0.59561 3.6074 1.9726 0.7608 2.0686 1.6463 3.6179 2.1719 4.3691 0.2075 0.26947 0.4464 0.55181 0.68164 0.83203-0.29452 0.0521-1.2805 0.17729-1.7969-0.42773-0.204-0.555-2.6805-6.9356-11.895-4.0996 0.657 0.252 2.6804 1.8737 3.4414 3.1387 0.758 1.266 1.6202 3.8468 7.9492 2.1758 0.68342-0.0922 2.3879 0.32307 3.7598 0.84961 0.69656 0.73231 1.4762 1.4942 2.3047 2.2695-0.0195 0.14706-0.11396 0.39263-0.54883 0.62695-0.66 0.354-2.5801 1.166-2.5801 1.166s-6.381-0.96148-7.748 6.7285c0.608-0.199 3.6534-0.051 6.0254-0.95898 1.943-0.743 2.4297-3.7484 2.4297-4.6074 0.456-0.558 2.4797-2.1761 2.4297-1.1621-0.0333 0.65844-0.74183 3.7485-0.70508 6.6367-1.6162-0.83604-3.8563-1.211-6.4316 0.59961-0.50138 0.15229-3.6244 1.2018-5.0156 7.6387-1.1552-1.9121-2.3989-4.1072-3.625-6.5508-0.1263-0.78904 0.06566-1.6269 0.26953-1.8027 3.57-2.57 3.3823-6.0286 2.9863-7.3516-0.394-1.325-0.92916-4.0218-0.91016-4.5098-7.243 4.241-3.3225 10.901-3.0625 11.766 0.06687 0.21797 0.10965 0.46264 0.13672 0.70704-1.7195-3.5542-3.3587-7.5237-4.5859-11.707 1.2049-0.61504 2.0391-1.8521 2.0391-3.2988 0-2.056-1.6667-3.7207-3.7207-3.7207-2.056 0-3.7227 1.6647-3.7227 3.7207s1.6667 3.7188 3.7227 3.7188c0.05833 0 0.11224-0.0149 0.16992-0.0176 0.2857 1.0249 0.68263 2.3805 1.2637 4.1602-0.20884-0.0613-0.41895-0.13344-0.59766-0.23046-0.571-0.313-4.6726-4.0539-8.7266 0.41211 0.346 0.06 2.1631 0.83159 3.0371 1.3086 0.871 0.475 3.2763 1.1144 5.6113-1.0156 0.10526-0.0811 0.44094-0.10536 0.8125-0.0527 1.209 3.6518 3.0042 8.4548 5.416 13.264-0.07241 0.40829-0.2978 1.0192-1.1152 1.0527-0.45592 0.0195-2.0558 0.15932-4.2051 0.13281l-1.8184-1.2949s-0.86033-9.4649-9.1113-9.9199c0.306 0.50498 0.76098 3.087 0.95898 3.998 0.204 0.911-0.15033 4.758 7.1387 5.873 0.45627 0.22723 0.81883 0.76912 1.1543 1.2754-2.7956-0.14565-6.117-0.61246-9.0723-1.875-0.11847-0.29529-0.73828-1.8624-0.73828-2.6934 0-0.911 1.9732-6.2252-4.7578-9.6172 0.099 0.406 0.15165 1.9237 0.09766 2.4297-0.048 0.506-1.1081 5.5183 3.5449 7.2383 0.29749 0.34415 0.78352 0.99012 1.1348 2.3262-0.38627-0.18681-0.76604-0.38583-1.1328-0.60351l-1.3184 0.40429s1.4221 0.93815 3.9824 1.8418c-0.13983 0.1966-0.3413 0.44126-0.61914 0.66211-0.504 0.406-1.2637 0.81055-1.2637 0.81055s-5.0104-2.1739-7.4414 3.0391c1.013 0.253 5.6681 1.2663 7.7461-2.1777 0 0 1.4719-0.9575 2.1934-2.1289 2.633 0.8594 6.3087 1.6031 10.793 1.3906-0.56811 0.30737-1.1384 0.58986-1.4727 0.64258-0.858 0.131-8.2295-0.50028-8.8945 7.5117 0.413-0.218 2.9635-0.87603 4.2715-1.082 1.311-0.205 4.3713-1.4761 5.1113-5.6211 0.081-0.286 1.7934-1.3934 2.6484-1.5234 0.09892-0.0154 0.17068-0.0425 0.23047-0.0742 0.33-0.0348 0.65073-0.0577 0.98828-0.10352 0.36554-0.081 1.5366 0.13372 2.252 0.53321 1.3359 2.4336 2.8303 4.8142 4.4863 6.9844 0.0035 0.005 0.0063 0.009 0.0098 0.0137-0.76391 0.50424-2.1809 1.5182-3.1484 2.7363-0.306-0.052-4.9631-0.70797-5.1641 6.832 0.07748-0.11896 3.0117-0.64294 4.5957-2.2969-0.04218 0.21112-0.06445 0.42883-0.06445 0.65234 0 1.831 1.4845 3.3145 3.3125 3.3145 1.833 0 3.3184-1.4835 3.3184-3.3145 0-1.7149-1.3073-3.1118-2.9785-3.2832-0.05208-0.19968-0.79649-3.1506 0.57422-4.0312l-0.61523 0.36523c0.20671-0.14465 0.41769-0.26928 0.63281-0.38086 1.7821 2.3233 3.5248 4.524 5.2422 6.6192-0.12379-0.0396-0.22955-0.0884-0.35937-0.125 0.124 0.40398 0.26565 2.7728 0.22265 3.9687-0.04 1.195 0.55752 4.128 4.1035 5.498 0.20571 0.10286 0.54918 0.75625 0.61719 1.4394-0.27789 0.0714-0.49033 0.13733-0.8086 0.21485-3.115 0.762-4.7106-1.1363-5.8496-1.8203-7.4858-5.7021-15.47-2.7605-19.201-0.9043-0.02067-0.2626-0.03918-0.66092 0.06641-0.94531 0.153-0.405 2.2305-2.0711 2.2305-3.9961s-0.71148-4.4068-1.5215-5.4688c-0.153 0.354-0.93689 1.5867-1.2129 1.9727-0.507 0.714-3.4416 3.2445-0.10156 7.3945 0.04073 0.23959 0.0726 0.83203-0.04102 1.3477-0.29249 0.15481-0.63652 0.32889-0.84766 0.44726-0.12407-0.10821-0.97976-0.861-1.3887-1.6406-0.442-0.834-2.3958-8.647-10.883-6.498 0.373 0.344 1.949 2.7407 2.625 4.0117 0.675 1.275 3.0667 3.9823 7.5977 3.2773 0.27888-0.0166 1.0337 0.46508 1.5156 1.1387-0.03882 0.0196-0.1512 0.0849-0.17188 0.0918-0.684 0.227-2.5827 0.45541-5.8457 1.4414-3.268 0.986-4.4065 5.6191-4.4785 7.2891 0.93164-0.54858 2.7031-0.70108 4.5859-0.88672-1.1269 7.4544 4.75 8.7793 4.75 8.7793s1.4452 2.0538 2.2012 2.9648c0.762 0.911-1.5164 0.00071-2.2754-0.15429-4.934-5.008-9.5674-1.6669-10.857-0.75586 1.214 0 2.9599 2.8068 5.0859 3.3398 2.128 0.531 4.7833-0.61211 5.6953-0.91211 0.911-0.306 2.735-0.229 3.418 0 4.1702 2.52 8.7537 2.9013 11.812 2.791-1.095 1.6246-2.8958 1.8042-3.5684 1.8144-0.56931-0.38376-1.2572-0.60742-1.9961-0.60742-1.97 0-3.5684 1.5974-3.5684 3.5684 0 1.972 1.5974 3.5703 3.5684 3.5703 1.972 0 3.5703-1.5973 3.5703-3.5703 0-0.33997-0.06163-0.66318-0.15039-0.97461 1.8621-3.2636 4.4357-3.9574 4.7266-4.0274 0.363-0.054 0.64366-0.10396 0.78711-0.13476 1.064-0.228-2.9616 5.9985-3.6426 7.0606-7.594 1.065-5.9207 8.3529-5.8477 9.7949 0.839-1.519 4.5562-1.9713 6.0762-3.9473 1.518-1.975 1.0613-4.2553 0.98633-5.2383 2.428-3.268 4.4799-9.5678 5.0879-11.01 0.04301 0.71356 0.13714 1.3793 0.25195 2.0234 0 0-0.96102 2.1783-1.166 3.6973-0.708 0.759-3.1874 4.4031 1.2656 9.1621-0.099-0.354 0.50711-2.3817 0.91211-2.8887s2.1251-2.986-0.96289-6.377c0.04674-0.32442-0.40639 0.0281 0.25195-2.2266 1.6981 6.31 6.6029 8.9089 7.6445 9.3652 1.595 5.922 8.9624 4.0252 10.482 3.4922-1.594-1.29-0.98987-2.1258-3.7969-3.7188-2.812-1.598-5.0902-0.68555-6.0742-0.68555-12.792-7.2855-5.4269-20.142-4.5039-21.65 0.71859 3.5291 2.3137 6.1804 4.2207 8.1895 0.18792 0.6981-0.0471 1.1611-0.2539 1.4199-0.55269-0.384-1.2212-0.61328-1.9453-0.61328-1.887 0-3.4141 1.528-3.4141 3.416 0 1.887 1.5271 3.416 3.4141 3.416s3.418-1.529 3.418-3.416c-0.00002-1.0095-0.44704-1.9061-1.1426-2.5312l0.55468-1.0312c0.28255 0.2678 0.57588 0.5077 0.86719 0.75 0.096 0.16981 1.4778 2.6143 1.8711 3.4453-0.204 0.759-0.91183 8.2507 8.4512 9.7207-0.201-0.507-0.70703-2.6331-0.70703-3.0371 0-0.405-0.3036-6.5303-6.6836-6.9863-0.30869-0.23323-1.0236-1.2812-1.416-1.9941 3.5664 2.4057 7.2366 3.1927 8.2012 3.3848 2.4879 3.036 5.3379 3.2811 7.6309 2.7266-0.0174 5.7855 0.13189 12.161-0.0332 16.557-0.22271 5.9333 0.70786 16.791-8.9434 21.398-9.6598 1.4171-16.617 2.707-16.617 2.707s21.535 14.772 54.41 14.545c33.331-0.23 55.125-16.02 55.125-16.02s-27.413-4.9375-51.48-4.9375c-3.9904 0.00016-8.2607 0.18835-12.596 0.48242-1.0206-0.23326-3.0692-0.76682-3.7793-1.4414-0.96-0.911-1.9253-1.7949-2.2793-4.9609-0.024-0.555-0.22864-4.833-0.30664-6.125-0.072-1.292-0.55103-7.7959-0.83203-10.504-0.276-2.707-1.1465-10.854-1.3125-12.502-0.22317-2.1903 0.0527-4.3446 0.71484-6.4434 3.9543-0.93054 4.5526-3.7489 4.7988-3.707 0.52202-0.24705 1.2412-0.68189 2.0176-1.1875-0.71152 1.2221-1.0334 2.0994-1.209 2.4531-7.237 1.973-3.693 10.024-3.543 10.48 0-0.74957 2.8577-2.981 4.3438-4.7422 2.253-0.0667 6.5143-0.82958 6.7422-4.8262 0.35356-0.35356 2.728-1.9994 3.543-1.7969 0.33591 4.4148-3.6702 10.325-5.5664 12.096-6.53 0-6.9094 6.6821-7.0644 7.7441 8.202-1.896 7.9751-6.3777 8.2031-7.1367 1.2094-1.7924 2.1763-3.162 2.9766-4.3359 0.65258 0.23326 0.80287 1.2721 0.92969 1.4473-0.295 1.032-1.0589 3.3409-0.91993 5.3379 0.137 2.002 3.1946 5.1755 3.6856 5.4785-0.325-1.67 1.1842-4.7173 1.1152-6.5703-0.074-1.855-2.3596-3.9188-3.0566-4.3418-0.455-1.424-1.4199-1.8418-1.4199-1.8418l-0.004 0.002c0.0246-0.0368 0.05-0.0769 0.0742-0.11328 0.41293-0.01 0.85959 0.22462 0.98829 0.22852 0.509 0.697 1.5918 2.3226 2.9238 3.2226 0.82193 0.55494 2.423 0.61068 3.6699 0.54688-0.035 0.81223-0.0641 1.5371-0.20508 1.877 0.456-0.989 3.0728-1.6002 4.0488-2.0762 2.074-1.011 1.9726-4.8834 1.9726-5.5664 0.7179-0.77233 2.9307-3.2295 4.5703-5.4043 0.41211 3.9938 2.894 6.0898 5.3027 7.1875-1.3278 2.957-3.0507 4.6299-3.6309 5.4394-2.986 0.713-4.1901 1.71-5.1211 2.873-1.397 2.404-1.3858 5.3052-1.0078 6.8262 6.005-1.244 7.3856-5.209 7.0586-8.377-0.081-0.79101 1.358-2.3169 1.707-2.7949 0.82873-0.96697 1.591-1.8148 2.252-2.8301 0.0364 0.0494 0.1673 0.2502 0.082 0.76953-0.1 0.596-2.1156 5.3239 3.0274 7.5039-0.054-0.319 0.0668-2.1457 0.21484-3.0547 0.148-0.90898-0.0255-3.2086-2.6055-4.5976-0.13544-0.0898-0.33332-0.63285-0.35937-1.1524 1.122 0.34093 2.0672 0.48316 2.6465 0.54493-0.0131 0.11823-0.0371 0.23378-0.0371 0.35547 0 1.79 1.4473 3.2383 3.2383 3.2383 1.79 0 3.2383-1.4483 3.2383-3.2383 0-1.786-1.4483-3.2383-3.2383-3.2383-1.3691 0-2.5315 0.85121-3.0059 2.0488-0.43125-0.0973-0.98583-0.22006-1.4238-0.32812-0.34361-0.10665-0.64158-0.22964-0.95313-0.34766 0.81713-1.8352 1.3465-4.3648 1.4102-8.6113 0.0446-3.0215-1.3626-6.2075-3.3789-9.1992 1.8296 0.54332 6.8813 2.1925 7.752 2.6602 0.06 0.351 0.12572 0.9367-0.0293 1.2207-0.228 0.424-3.9402 3.4269 0.88476 8.3379 0.08-0.354 1.3752-2.7507 1.5332-4.4297 0.153-0.354 0.16712-1.8934-1.6719-3.7734 0 0-0.14198-0.61113-0.20898-1.0781 3.23 1.908 4.0604 3.4318 4.5254 5.0078-5.666 3.726-2.9859 8.3578-2.8359 9.2598 0.974-1.332 2.8476-2.1656 3.9336-3.5976 1.271-1.678 0.0597-4.8714-0.27734-5.5274-0.218-2.731-2.6905-4.856-4.9785-6.25 0.528-0.02 1.2088 0.18722 1.5898 0.19922 4.243 4 7.2148-0.52734 7.2148-0.52734-4.189-3.496-6.6307-0.99516-7.4726-0.41016-0.726 0.501-2.2152 0.12664-2.6172 0.0137-0.54377-0.28361-2.0958-0.95482-3.7695-1.666 0.0374 0.00078 0.19531 0.008 0.19531 0.008s0.21726-0.37505 1.0723-0.49805c0.857-0.124 8.2198 0.57822 8.9648-7.4258-0.415 0.215-2.9732 0.84606-4.2832 1.0391-1.309 0.193-4.3821 1.4323-5.1621 5.5703-0.0683 0.23355-0.75904 0.75815-1.4805 1.0117-2.4957-1.0542-4.7401-1.9782-5.1543-2.1484-0.23498-0.28164-0.46218-0.57085-0.70312-0.84571-0.47585-0.71181-0.96995-1.2103-1.4453-1.5762-3.0591-3.2008-6.261-5.7455-8.0664-6.9551-0.0732-0.8823 0.79565-1.1648 0.98437-1.3535 1.217 0.154 3.9497 0.61052 6.1777 0.10352 1.545-0.35136 3.4633-2.3729 4.5879-3.7871 0.4283 0.85626 0.63053 1.4218 0.70117 1.7695-0.79513 0.63597-1.3145 1.6024-1.3144 2.6992 0 1.917 1.5498 3.4688 3.4668 3.4688s3.4668-1.5518 3.4668-3.4688c0-1.914-1.5498-3.4688-3.4668-3.4688-0.23896 0-0.47203 0.0243-0.69726 0.0703-0.31297-0.30755-0.88031-0.87485-1.377-1.4844-0.069-0.0848-0.14451-0.20153-0.2207-0.32422 0.18408-0.26244 0.3266-0.48381 0.36914-0.58593-0.18645 0.0674-0.40314 0.10386-0.625 0.13672-0.5289-0.99902-1.0103-2.2298-1.1348-2.5508 2.4466 0.36116 5.4363 0.92967 8.9531 1.8477 0.16081 0.0919 0.45524 0.19907 0.78906 0.3125 0.0908 0.31305 0.0919 0.63379 0.11328 0.73438-1.319 2.997-0.57551 3.8071-0.35351 4.2461 1.545 1.874 2.2046 3.2851 2.5605 3.9551-0.094-0.332 1.0858-4.2565 0.67579-5.5625-0.414-1.31-2.0136-2.2145-2.3516-2.9395-0.0394-0.0842-0.0516-0.16468-0.0781-0.24804 1.1038 0.34747 2.4697 0.73796 2.9434 1.0664 1.624 1.123 2.2573 2.9888 4.1953 3.6328 2.56 0.855 4.4379-0.15247 7.1309-0.23047-0.37-1.276-2.8834-4.6978-4.8984-5.1348-2.847-0.614-5.1345 0.23199-6.1445 0.33399-0.34748 0-1.956-0.88394-4.8027-1.7305-0.10444-0.18894-0.13678-0.41627 0.0488-0.65625 0.27099-0.349 1.784-1.8139 3.127-3.0059 0.312-0.111 1.0595-0.33274 1.7285-0.17774 0.874 0.201 1.8115 2.3466 3.8555 2.6816 2.046 0.336 4.2555-0.53667 4.8945-1.1387-1.407-0.57-1.5443-2.0784-3.9883-2.8164-1.107-0.102-2.3796-0.0669-4.5566 0.70312-0.14-0.052-0.63301 0.0003-0.79101-0.2207 0.475-0.379 0.84618-0.63344 0.99218-0.64844 0.604-0.066 4.4737-0.97091 5.2617-1.8789 1.303-1.504 0.8708-4.0546 1.8418-5.0586 0 0-4.2058 0.43009-5.8848 1.625-0.41998-1.1854-1.0245-2.6796-2.1621-3.9844-2.074-2.377-3.8466-2.7316-5.9746-2.9336-0.69775-0.51408-4.924-2.8814-4.498-4.5547 1.2274-1.0184 2.4422-1.8871 3.5996-2.6074 1.7705-0.0332 3.0015 0.96451 3.4023 1.125 1.212 2.026 1.871 2.4819 4 2.8359 2.124 0.353 5.5175-0.76255 6.0215-0.81055-1.82-2.584-5.164-3.5957-5.668-3.5957-2.584-0.05-3.9492 0.70898-3.9492 0.70898s-1.4166-0.5075-2.2266-0.8125c-0.17154-0.0638-0.26167-0.12814-0.33594-0.18945 1.6045-0.90227 2.9829-1.4951 4.1035-1.9199 0.60262 0.87174 1.6078 1.4473 2.748 1.4473 1.847-0.00002 3.3418-1.4978 3.3418-3.3418 0-1.846-1.4948-3.3398-3.3418-3.3398-1.845 0-3.3418 1.4938-3.3418 3.3398 0 0.37057 0.076 0.72154 0.1875 1.0547-7.6048 2.5896-12.912 8.6366-13.859 9.4941-0.48196 0.43579-0.77046 0.53255-0.94922 0.51562-0.0617-0.75443-0.14846-1.5097-0.29102-2.2637-0.18187-0.96084-0.45593-1.9926-0.7871-3.0586 0 0-0.0489-1.6738 0.45507-1.9258 0.504-0.252 1.7694-1.2129 2.2774-1.2129 0.504 0 8.0496 1.1112 10.227-6.1758-0.66 0-8.9602-1.7201-10.783 5.2129-0.5862 0.29552-1.7963 1.5221-3.2988 0.95508-0.95145-2.4015-2.1393-4.9063-3.4512-7.3457 0.68101-0.62609 1.4361-1.2961 2.2363-1.9824 0.37196-0.17423 0.86612-0.36328 1.4121-0.36328 0.904 0 2.2812 0.17187 2.2812 0.17187s2.0212 1.552 4.9922 1.334c2.967-0.214 4.1722-2.1931 5.0352-2.4941-0.304-0.044-2.886-1.7219-6.459-1.3359-0.644 0.044-2.4963 0.21472-3.5273 1.6367-0.29567 0-1.7915 0.0604-2.3457-0.11329 1.6361-1.3687 3.1477-2.595 3.5527-2.8984 2.023-0.215 3.787-0.68863 5.334-1.7656 1.553-1.073 1.9795-5.5481 1.8965-6.4961-0.603 0.343-4.4304 1.8079-6.0664 2.7539-1.638 0.945-1.5087 4.0024-1.6777 4.6484-0.0746 0.27498-1.7152 1.694-3.5469 3.2188-0.38184-0.56396-0.24218-1.8076-0.24218-2.4023 1.807-2.063 2.0245-3.8725 1.9785-4.6875-0.301-1.81-1.8036-5.5113-1.8926-6.0703-4.777 6.367-1.2474 10.156-0.81836 10.672-0.1115 1.6761-0.002 2.9686 0.0274 3.2852-0.91852 0.75292-1.8011 1.4593-2.6035 2.0957-0.13547-0.24568-0.26691-0.49472-0.40429-0.73828-2.885-5.112-4.1277-8.073-3.4707-11.793 0.174-0.982 1.2143-3.9211-0.17773-5.7441-1.391-1.823-3.8719-4.0765-3.9199-4.2285 0.048 0.835 0.22692 2.3285-0.20508 4.2285-0.432 1.896-0.83388 3.6416 2.4531 6.9316-0.96-0.683-2.3506-2.2249-2.9316-3.2129-0.582-0.985-1.3966-1.9991-3.0156-2.3281s-2.3013-0.45703-4.0723-0.45703c0.558 0.659 1.9466 2.5314 2.2266 3.1914 0.278 0.657 1.1117 2.7059 3.9727 2.5059 0.785 0 2.0483-0.00088 2.4023 0.20312 0.354 0.2 1.2755 1.0908 1.3945 1.8438 0.28394 1.8028 0.86869 3.7354 1.5976 5.668-0.17874-0.0761-0.42657-0.23325-0.71679-0.57226-0.563-0.655-3.9084-7.2537-11.068-3.5977 0.402 0.233 2.306 2.0556 3.166 3.0586 0.865 1.004 3.5576 2.9388 7.4746 1.3828 0.21031-0.0614 0.91341 0.17849 1.4922 0.57812 0.61027 1.5328 1.2812 3.05 1.9688 4.4961-0.10807 0.0794-0.39568 0.30906-0.44922 0.34376-0.10244 0.0666-0.20132 0.11117-0.29688 0.14257-3.194-2.395-6.2097-1.3837-7.3047-0.69726-0.70901 0.44629-1.8766 1.0614-2.7793 1.4961-0.75633-1.4635-2.1562-2.8342-4.6953-3.7188 0.11 0.453 0.10644 3.0882-0.0195 4.4062-0.129 1.317 0.33411 4.5986 4.1621 6.3496 0.13913 0.0793 0.33491 0.45968 0.47851 0.92188-3.5549-1.8726-6.2913-3.5093-8.1953-4.7676-0.0404-0.18621-0.22363-1.0476-0.17774-1.5938 0.051-0.607 4.7078-5.2122-1.1152-10.781-0.048 0.406-0.81106 2.3784-1.1641 2.7324-0.354 0.355-2.1262 5.0117 1.4688 7.8477 0.11061 0.26103 0.24845 0.85226 0.27343 1.3281-1.541-1.0531-2.4-1.7764-2.5508-2.0391-0.402-0.708-0.60546-2.6309-0.60546-2.6309-0.20401-3.141-3.2385-4.4564-4.3535-4.8594-1.115-0.406-3.2392-1.1137-3.9492-1.7207 0.71 9.212 4.6581 8.9065 6.0781 9.3125 1.415 0.404 1.918 0.81055 1.918 0.81055 2.264 2.1648 5.864 4.3938 9.2129 6.2832-0.18629 0.0268-0.42538 0.0333-0.76953-0.043-0.72036-0.15829-5.5835-2.4914-9.1973 1.1719-0.46018-1.9986-1.123-3.6341-1.8262-4.8066-1.0354-1.729-3.3157-3.8624-5.7695-6.1973-0.20089-0.99788-0.55063-2.1474-1.1953-3.2012-0.7951-1.3002-2.8074-2.2293-4.5898-2.832-0.33446-0.41634-0.64622-0.83385-0.93945-1.252-0.00021-0.17697 0.0192-0.573 0.3457-0.81445 0.405-0.306 2.8851-1.924 3.2891-2.127 0.405-0.203 1.519-0.45731 3.543 0.30469 0.255 0.556 2.0726 2.178 4.0996 2.377 2.027 0.204 5.2172-0.65617 6.3262-2.0762-1.01-0.453-2.0742-1.8186-5.6172-2.4766-0.552-0.052-2.6809-0.25311-4.5039 1.2129-0.504-0.151-2.4298-0.30199-1.9258-0.70899 0.4406-0.34884 2.318-1.3417 3.5039-1.6367 0.57147 0.50766 1.3165 0.82617 2.1426 0.82617 1.791 0 3.2383-1.4483 3.2383-3.2383s-1.4473-3.2402-3.2383-3.2402-3.2383 1.4492-3.2383 3.2402c0 0.28681 0.0473 0.55946 0.11719 0.82422-0.56636 0.63925-1.7683 1.8934-3.2324 2.7695-0.252 0.102-0.65864-0.40372-0.55664-1.0117 0.102-0.607 0.40821-0.75781 0.40821-0.75781s2.8332-1.469 3.0352-2.584c0.204-1.111 0.1543-2.8848 0.1543-2.8848-0.408 0.558-1.9255 1.8717-4.8125 2.1777-0.15 0.508 0.001 2.1264 0.45703 3.4414 0 0.558 0.15202 2.2788-0.70898 2.8848-0.82112 0.58242-2.6058 1.9731-3.8672 1.834-0.73659-1.3724-1.172-2.7363-1.1172-4.0644 0.083-1.992 1.2402-3.5928 2.6582-4.1758 0.506 0.127 5.3658 0.078 6.6309-1.668 1.265-1.748 2.0001-4.5827 3.0371-5.0137-0.531-0.0473-1.3926-0.17148-2.3965-0.19141zm153.38 11.23c-0.21497-0.044-0.49898 0.056-0.61523 0.23828l0.0742 0.75391c0.148 1.365-0.18811 1.4675-2.9121 2.0605l-10.375 2.252c-3.007 0.655-3.1494 0.41814-3.6074-0.88086l-0.22266-0.60352c-0.252-0.21-0.74355-0.0157-0.81055 0.23633 0.341 1.291 0.64892 2.5616 0.91992 3.8106 0.27 1.247 0.51938 2.5271 0.73438 3.7871 0.16 0.206 0.67503 0.1199 0.83203-0.1211l-0.0508-0.64062c-0.12-1.37-0.087-1.6449 2.918-2.2969l3.6309-0.78906c0.595-0.129 0.6284-0.10686 0.8164 0.74414 0.203 0.936 0.15497 1.2748-0.58203 1.9688-0.96 0.919-2.35 2.0522-3.373 3.0762-2.263 2.305-3.0441 4.0182-2.4551 6.7422 0.218 0.994 0.41812 1.5129 0.57812 1.8359 0.159 0.051 0.47364-0.0146 0.55664-0.18164-0.049-0.345-0.0569-1.2035 0.45313-2.1445 0.815-1.576 2.9159-3.5171 6.2539-6.6192 0.146-0.151 0.36143-0.25451 0.48243-0.10351 0.868 1.265 2.6108 2.9977 5.2188 2.4297 2.043-0.441 3.1486-1.7825 3.5996-3.3965 0.407-1.394 0.27296-3.3827-0.20704-5.5957-0.507-2.328-1.1138-4.7178-1.6738-6.4668-0.0473-0.049-0.11194-0.081-0.1836-0.0957zm-266.29 1.5195c-0.072 0.608-0.38639 2.2055-0.77539 4.0195l-1.1543 5.3594c-0.268 1.25-0.5708 2.52-0.8418 3.5 0.064 0.253 0.5685 0.38932 0.8125 0.23633l0.13281-0.35743c0.485-1.292 0.62477-1.5279 3.6348-0.88086l10.555 2.2676c3.004 0.644 3.0349 0.91906 2.9199 2.2891l-0.04883 0.64258c0.155 0.241 0.67103 0.3251 0.83203 0.1211 0.225-1.317 0.46924-2.5997 0.74024-3.8477 0.269-1.249 0.57253-2.5202 1.0195-4.3242-0.067-0.249-0.56759-0.38942-0.80859-0.23242l-0.39844 1.1602c-0.458 1.299-0.54278 1.5474-3.5508 0.90039l-3.9727-0.85352c-0.708-0.154-0.75619-0.1917-0.61719-0.8457l0.35938-1.6738c0.531-2.468 0.68269-2.9102 1.9297-2.9102l1.1562 0.01c0.236-0.126 0.3503-0.66547 0.1543-0.85547-0.885-0.161-1.9197-0.32578-2.9707-0.55078-1.047-0.225-2.0844-0.50831-2.8164-0.69531-0.259 0.095-0.37194 0.6357-0.21094 0.8457l0.91797 0.4375c1.131 0.537 1.0925 0.97636 0.56445 3.4434l-0.35742 1.6738c-0.145 0.654-0.20406 0.67058-0.91406 0.51757l-5.0801-1.0937c-1.589-0.34001-1.6437-0.35093-1.3887-1.5449l0.31055-1.4473c0.196-0.905 0.37523-1.609 0.74023-2.332 0.515-1.017 1.4376-1.2956 3.1426-1.2246 0.233-0.247 0.28303-0.77064 0.08203-0.93164-1.346-0.231-3.4727-0.68727-4.0977-0.82227zm93.932 1.0488c3.1727 2.2364 7.2809 3.3286 8.2051 3.6797 0.66792 0.2537 1.039 0.51252 1.2715 0.72461 0.66593 1.6694 1.3891 4.6586 2.3691 5.8808 0.66394 0.83127 2.3888 1.4687 3.8848 1.8984 1.2624 1.2242 2.2896 2.1273 2.6524 2.5312 0.69208 0.77229 1.2586 1.5674 1.748 2.373-0.20987 0.13109-0.50037 0.26172-0.83984 0.26172-0.66 0-2.6309-0.35742-2.6309-0.35742s-3.7427-4.2766-9.3535-1.0918c-0.23086-0.42502-0.48081-0.82918-0.77148-1.1836-0.909-1.115-1.418-1.468-1.418-2.127-0.504 1.013-5.0614 7.0864 0.10156 10.984 0.16047 0.19979 0.31449 0.3541 0.34961 0.91992-3.625-2.4971-6.9362-4.8531-9.6855-6.9785-0.0697-0.20482-0.11884-0.55801 0.0234-1.1797 0.17164-0.75943 0.63952-2.6677 0.70313-5.457 0.22432-1.1585-0.0401-2.342 0.91406-2.3887 0.93791-0.0431 2.3929 0.62156 2.7715 0.79883-0.001 0.0385-0.0117 0.0745-0.0117 0.11328 0 1.844 1.4958 3.3398 3.3398 3.3398s3.3438-1.4958 3.3438-3.3398c0-1.845-1.4998-3.3438-3.3438-3.3438-1.4868 0-2.7315 0.97982-3.1641 2.3242-0.59322-0.13769-2.1513-0.50199-3.0332-0.75195-0.58142-0.16566-0.87811-0.60596-1.0391-0.98242-0.0103-0.0813-0.0124-0.15418-0.0234-0.23633-0.153-1.163-0.35653-2.9327 0.60547-4.0957 0.36636-0.1684 1.9687-1.0648 3.0312-2.3164zm172.21 3.2402c0.59133-0.0477 0.70486 0.23314 0.94336 1.3379 0.536 2.47-1.1047 4.3411-3.3477 4.8301-2.692 0.584-4.3325-0.39673-4.9375-3.1777-0.293-1.361-0.23908-1.3714 0.66992-1.5684l5.9004-1.2832c0.32575-0.0705 0.57438-0.12279 0.77149-0.13868zm-122.15 8.998c0.0707-0.008 0.0618 0.003 0.10742 0.006 1.5605 3.1959 3.0268 5.968 3.3945 7.3828 0.75911 2.9165 1.5596 6.5733 0.43164 12.246-1.0871-1.5126-3.8746-4.4097-6.7031-6.6758 0.001-0.002 0.0254-0.0332 0.0254-0.0332s-0.17911-0.39006 0.21289-1.1641c0.36128-0.71059 4.4513-5.5447 0.30078-10.375 0.26831-0.18731 0.47637-0.34843 0.67578-0.50586l0.76758 1.5957s-0.0434-0.90242 0.43164-2.1074c0.0334-0.0853 0.11316-0.20124 0.21484-0.33398 0.045-0.009 0.10265-0.0309 0.14063-0.0352zm-10.688 1.9199c2.4285 1.509 4.6586 1.2878 6.3906 0.59571-0.26329 0.64377-0.53932 1.286-0.76758 1.7402-0.595 1.184-1.3492 4.4146 1.5898 7.4316 0.0844 0.10233 0.12725 0.42413 0.12305 0.80273-1.1294-0.86572-2.2396-1.6052-3.2188-2.0684-1.546-0.74258-2.9499-1.4524-4.2793-2.1445 0.0272-0.0994 0.0937-0.32812 0.0937-0.32812s-0.30761-0.29916-0.22461-1.1602c0.0465-0.45011 0.72434-2.5708 0.29297-4.8691zm-20.826 3.7754c0.75409 0.0149 1.5837 0.0973 2.2539 0.38282 2.8413 5.8539 1.1478 12.162-0.54101 16.439-0.67244-0.612-1.3863-1.2163-2.1797-1.8164-1.8309-1.2231-3.5303-2.373-5.2969-3.5586 0.003-0.003 0.043-0.0547 0.043-0.0547s7.0937-1.4833 5.2207-10.363c-0.439 0.161-5.7948 2.7895-6.1328 6.6035-0.0981 0.82516 0.26973 2.3663 0.0352 3.2558-1.8524-1.2453-3.7224-2.5039-5.4551-3.6914-0.0973-0.39179-0.23087-0.94995-0.1582-1.4551 0.0985-0.68352 1.9217-2.6866 1.9141-4.4199 1.7123 0.69429 3.821 1.1574 5.5742 0.36914 0.861-0.354 2.2277-1.668 3.1387-1.668 0.22775 0 0.52641-0.0136 0.86328-0.0215 0.22564-0.005 0.46934-0.007 0.72071-0.002zm-115.69 0.22266c-0.17025-0.005-0.3358 0.0463-0.4043 0.15625-0.058 1.28-0.14867 2.5806-0.26367 3.8516-0.124 1.332-0.26831 2.6285-0.44531 3.8945 0.093 0.242 0.61294 0.32072 0.83594 0.13672l0.14062-0.6289c0.3-1.342 0.41066-1.5945 3.4727-1.3145l10.75 0.98242c3.064 0.279 3.1278 0.54888 3.1758 1.9219l0.0293 0.64453c0.184 0.22 0.70675 0.23953 0.84375 0.0195 0.056-1.275 0.15258-2.6372 0.26758-3.9082 0.117-1.274 0.26245-2.5699 0.43945-3.8379-0.096-0.241-0.60903-0.31877-0.83203-0.13477l-0.14648 0.62891c-0.297 1.342-0.4067 1.5925-3.4707 1.3125l-10.75-0.98242c-3.062-0.28-3.1228-0.54888-3.1738-1.9219l-0.03125-0.64453c-0.0925-0.1095-0.26725-0.17066-0.4375-0.17578zm90.301 0.59766c4.4678 3.9646 10.235 8.2416 15.822 11.949-1.0963-0.0646-1.5687-0.34043-1.8887-0.5-2.177-3.544-5.3146-2.8861-6.2266-2.5801-0.912 0.302-3.5448 0.95971-4.0488 1.0117 0.65169 0.82575 1.2889 1.4916 1.9062 2.0293-0.35041 0.57064-5.8618 9.5331-8.2559 13.26-0.40227-0.86629-0.69663-2.3289-0.57617-2.5469 2.407-3.457 1.1365-6.5208 0.35351-7.5918-0.777-1.07-2.1188-3.3353-2.2559-3.7812-5.189 6.143 0.47633 10.904 0.98633 11.602 0.44234 0.6024 0.87634 2.4821 1.0078 3.0684-0.14981 0.22806-0.4685 0.74077-0.5586 0.86914-0.17038 0.0338-0.48898 0.14995-0.89062 0.13476-1.8922-1.9104-3.6449-3.76-4.623-5.0312-0.6909-0.89913-1.8697-2.5769-3.2422-4.7305-0.11024-0.23999-0.39266-1.0112-0.09961-2.2695 0.354-1.519 1.5159-5.6695 4.0469-6.4785 0.356 0.204 1.6219 2.4299 4.2539 2.3809 1.0294-0.0207 1.9055-0.18232 2.625-0.40235 0.0895 0.21555 0.19259 0.41858 0.3086 0.60743-0.92028 0.55311-1.543 1.5505-1.543 2.7031 0 1.745 1.418 3.1621 3.166 3.1621 1.745 0 3.1641-1.4171 3.1641-3.1621 0-1.749-1.419-3.1641-3.1641-3.1641-0.29537 0-0.57441 0.0533-0.8457 0.1289-0.0267-0.0464-0.11489-0.20537-0.2539-0.58789 0.6491-0.28985 1.0981-0.61222 1.2988-0.85742-0.0789-0.0595-0.73154-0.88162-1.8008-1.6309-0.14759-1.5915-0.0746-3.7725 0.6875-6.668 0 0 0.27624-0.6071 0.64649-0.92382zm43.168 1.8496c3.1901 1.7684 6.0573 3.214 7.0586 3.8809 2.1513 1.5721 3.7488 3.1188 4.9688 4.584-0.98865 0.56632-1.9354 0.98677-2.8281 1.2891-0.132 0.058-0.42868 0.12378-0.55468 0.17578-3.6 1.051-6.214 0.21995-6.75-0.12305 1.034-5.9384-2.8166-7.5007-4.2559-8.1445 0.31858-0.35751 0.62507-0.76487 0.91211-1.2363 0.12786-0.16787 0.77957-0.38134 1.4492-0.42579zm126.67 0.49805c-1.799 0.079-3.7756 0.57677-4.3516 1.1348-0.313 0.601-1.0877 2.1572-0.92774 4.8242 0.252 4.199 2.7497 6.5799 6.0527 6.3809 2.925-0.17701 4.5948-2.3725 5.4688-4.3125l0.84375-1.8516c0.901-1.974 2.1531-2.8938 3.3711-2.9648 1.535-0.094 3.0983 0.77084 3.2383 3.0898 0.147 2.46-1.7339 3.5921-3.2129 4.1191-0.187 0.272-0.12642 0.78897 0.14258 0.91797 1.361-0.079 3.255-0.48675 3.877-0.84375 0.174-1.378 0.45819-2.4959 0.36719-4.0039-0.255-4.231-2.8195-6.2257-5.6875-6.0527-2.604 0.156-4.2558 2.1739-5.3418 4.4199l-0.62304 1.2871c-1.083 2.245-2.3685 3.107-4.0195 3.207-1.764 0.104-3.1746-1.0578-3.3066-3.2598-0.171-2.837 2.8342-4.5892 4.2812-5.2012 0.187-0.242 0.12912-0.73463-0.17188-0.89063zm-129.48 1.627c0.21268 1.5573 0.29467 3.5185 0.55664 5.0488 0.354 2.076 2.7822 2.9347 3.4902 3.1367 2.142 1.713 5.3848 1.3585 7.9688 0.64453-0.352 0.401-0.96832 0.76039-1.2363 1.0254-5.822 0.355-4.5566 5.6191-4.5566 5.6191 5.42-0.657 5.265-4.1511 5.418-5.1641 0.131-0.87 1.4233-1.701 1.7793-1.918 1.1705-0.40963 1.8978-0.74674 2.2891-0.93554 2.6082 3.6156 2.832 6.5007 2.7969 7.623-2.5883 5.4406-7.0561 10.661-11.213 14.721-0.44342-0.0565-0.48921-0.33154-0.78906-0.38086-0.32133-0.80364-0.66733-1.5773-1.0254-2.3242 0.0789-0.73356 0.39282-1.4814 0.59375-1.5996 3.796-1.823 4.2027-5.1147 4.0527-6.4297-0.156-1.314-0.20652-3.9473-0.10352-4.4023-7.544 2.783-4.9614 9.7181-4.8594 10.578 0.0688 0.59276-0.0341 0.8563-0.11719 1.0039-2.2686-4.4562-4.9416-7.7352-6.0566-8.9727-1.3746-5.4998-4.8588-6.193-7.2227-6.1191 0.50618-2.197 0.75859-4.0695 0.82422-5.2559 0.0911-1.6328 0.0282-3.1458-0.125-4.5508 0.76045 0.10033 1.5473 0.22153 2.0977 0.3418 1.046 0.22796 3.4122 0.2206 5.4375-1.6895zm28.906 1.2852c0.41065-0.0281 0.87637 0.0615 1.3125 0.42188 1.163 0.963 3.7949 3.2383 3.7949 3.2383 0.0601 0.59697 0.31115 3.175 2.3281 5.248-1.5702 0.36776-3.6642 1.0505-5.5156 2.3965-3.34 2.43-2.7828 4.7067-2.8848 5.2637-0.39018 0.4321-0.89508 1.5299-1.8887 1.9023-2.6976-0.40056-4.9269-0.88079-5.2441-1.7441 1.7586-3.5104 2.9635-7.4095 3.1875-11.406 0.44601-0.84515 0.98164-1.7209 1.3106-2.0137 0.87237-1.1216 1.7784-2.1345 2.6953-3.0508 0.22156-0.10677 0.53124-0.23028 0.9043-0.25586zm-145.98 6.5117c-0.228 0.15-0.29948 0.61634-0.14648 0.90234 3.029 1.239 3.1901 1.7 3.2891 4.918 0.069 2.321-0.14702 2.7914-0.54102 3.1524-0.48 0.452-1.5227 0.54093-2.9727 0.58593l-10.184 0.31836c-3.019 0.093-3.0825-0.16653-3.3555-1.5195l-0.13672-0.63476c-0.152-0.229-0.73284-0.18097-0.83984 0.082 0.097 1.275 0.16703 2.5765 0.20703 3.8535 0.04 1.333 0.05006 2.6418 0.03906 4.0938 0.124 0.259 0.70475 0.23635 0.84375 0.0273l0.08984-0.8125c0.161-1.367 0.23981-1.6336 3.2578-1.7246l10.801-0.37c3.016-0.092 3.0571 0.16548 3.3281 1.5215l0.17383 0.86719c0.152 0.256 0.72789 0.15102 0.83789-0.084-0.096-1.217-0.1688-2.6675-0.2168-4.1465l-0.09375-3.0156c-0.096-3.248-0.14595-5.7449-0.12695-6.9629-0.794-0.324-3.0161-0.89494-4.2441-1.0859zm83.014 0.71289c4.0529 2.9442 7.1049 0.40739 7.4824 0.2832 0.456-0.155 0.96129-0.20376 2.5293-0.0527 0.36805 0.0363 0.64464 0.0894 0.87305 0.14453 1.2848 0.83524 2.5536 1.6367 3.7852 2.3887 1.6471 1.0052 3.1446 2.5859 4.5059 4.457-2.6697 6.1011-3.683 10.168-4.5801 15.738-0.10818 0.67399-0.18704 1.0814-0.2832 1.6465-0.10597-0.11352-0.27718-0.34783-0.33008-0.98047-0.072-0.866 1.0758-8.1754-6.8672-9.4004 0.188 0.426 0.66044 3.0179 0.77344 4.3359 0.112 1.319 1.169 4.4672 5.25 5.4902 0.25289 0.0918 0.80533 0.94922 0.96875 1.748-0.68357 3.8172-1.0744 4.9449-1.4473 5.627-0.456 0.839-1.1016 0.91072-2.8086-0.11328-1.708-1.023-10.213-6.8332-13.553-9.9102-1.1873-1.092-2.7553-2.5831-4.3652-4.1406-0.50946-0.62261-1.1173-1.5853-0.70117-2.4512 0.17651-0.36561 0.84069-1.5561 1.7012-3.0684 0.30675-0.1957 1.4634-0.89419 2.6035-0.98242 0.31229-0.024 0.95698-0.0361 1.7578-0.0606 0.63424 0.31145 1.5082 1.0275 1.5293 1.2207 0.085 3.145 2.2025 4.4257 3.1465 4.7207 0.941 0.3 2.7533 1.0683 3.0293 1.2773 0.40999-5.989-5.1027-6.348-5.7227-6.541-0.32746-0.10296-0.67951-0.4271-0.95703-0.72656 2.6274-0.10261 6.3684-0.35297 8.959-1.3086 0.356 0.101 3.4955 0.60762 5.0625-0.85938 1.568-1.469 1.7699-3.137 3.0879-3.543-1.316-0.403-6.9859-1.8219-8.5059 3.4941-0.402 0.403-4.1483 1.4648-11.488 1.4648-0.24124-0.0791-0.79405-0.38244-0.99023-0.7793 2.1592-3.7288 4.6545-7.9197 5.5547-9.1191zm71.945 2.9082c0.97815 0.59911 2.2092 1.0703 3.7539 1.3223-0.56211 1.209-0.80273 2.3957-0.80273 2.8379-0.269 0.602-1.6086 1.6411-2.5156 2.4121-0.903 0.771-1.8764 1.4068-3.4824 2.8848-0.0993 0.0363-0.31325 0.12031-0.51367 0.19727-0.3356-0.0782-0.65931-0.1578-1.0195-0.23047-1.6476-0.33278-3.6011-0.58595-5.5098-0.8418-0.0923-0.30011-0.14345-0.66145 0.0449-0.92968 0.354-0.508 0.60546-0.81055 0.60546-0.81055s3.8973-0.55744 5.5703-1.7734c1.2921-0.9385 2.8187-3.0885 3.8691-5.0684zm-47.057 3.1328c2.418 3.8842 6.7347 3.507 7.168 3.6308 2.5733 2.6103 4.1894 5.2946 5.2129 7.5313-0.55407-0.0262-0.85401-0.29957-0.98633-0.49805-2.016-3.696-5.322-3.9329-6.627-3.7129-0.58403 0.0982-1.4288 0.18628-2.2285 0.25-0.88865-2.133-1.8593-3.9987-3.0547-5.7031 0.18445-0.50543 0.35708-1.004 0.51563-1.498zm134.43 0.1914c-0.17025 0.001-0.33394 0.0574-0.39844 0.16992-0.016 1.279-0.0589 2.645-0.13086 3.918-0.069 1.275-0.16787 2.5776-0.29687 3.8496 0.105 0.239 0.62094 0.29652 0.83594 0.10352l0.12109-0.63477c0.249-1.349 0.35183-1.6045 3.4238-1.4375l10.777 0.59375c3.069 0.171 3.1451 0.43269 3.2441 1.8047l0.0508 0.64258c0.191 0.215 0.71275 0.21428 0.84375-0.0117 0.011-1.277 0.055-2.5814 0.125-3.8574 0.072-1.332 0.17283-2.6342 0.29883-3.9062-0.102-0.239-0.62198-0.29652-0.83398-0.10352l-0.12305 0.63086c-0.247 1.352-0.34792 1.6084-3.4199 1.4414l-10.777-0.59375c-3.072-0.172-3.1452-0.43664-3.2442-1.8066l-0.0508-0.64258c-0.0965-0.107-0.27506-0.16153-0.44531-0.16016zm-104.61 5.9961c0.43914-0.015 1.2975-0.00067 2.459 0.0762 4.2345 0.34292 3.9283 1.8084 4.2754 2.3555 0.17072 0.28234 0.29502 0.5094 0.43555 0.75586-1.922-0.005-4.4623-0.61277-6.0547-0.30274-2.075 0.405-3.9995 3.3412-4.3535 4.2012-1.0912 0.54669-1.5422 1.2882-1.7168 1.6699-0.11111-0.057-0.2374-0.12664-0.30859-0.15039-0.84876-0.284-1.5481-0.56189-2.0723-0.7832 1.492-1.7834 2.7778-3.3525 3.5449-4.3281 0.49973-0.6358 0.98272-1.3057 1.4531-1.9941 0.65843-0.70448 1.5376-1.4727 2.3379-1.5zm-73.535 0.61328c0.01235 0.29422 0.0798 1.7312 0.1582 2.873-0.68513 0.11285-1.3019 0.42705-1.7773 0.89258 0.38259-1.8042 0.24024-2.2617 0.24024-2.2617s0.57068-0.74589 1.3789-1.5039zm41.732 0.82812c2.8571 6.057 4.608 12.478 5.1289 14.299 0.60704 2.1256-0.13042 3.7824-0.69336 4.6641-0.73751 0.46123-1.46 0.79957-2.3984 1.0566-0.405 0.075-2.6991-0.0599-2.8281-3.9199-0.11792-3.4406 0.0402-10.631 0.79101-16.1zm-101.34 2.98c-0.22036-0.0348-0.52197 0.0688-0.63672 0.26758l-0.0039 0.44336c-0.011 1.51-0.15745 1.6822-1.9395 2.7012l-11.168 6.375c-1.198 0.7-2.4691 1.3255-3.6641 2.0215-0.118 0.142-0.17781 0.30125-0.13281 0.53125 0.011 0.056 1.359 0.77333 1.748 1.7363 0.467-0.179 1.2056-0.0215 2.1816 0.14453l10.893 1.9785c1.654 0.307 2.9371 0.53723 3.7441 0.74023 1.021 0.247 1.3074 0.51741 1.6074 1.3164l0.30664 0.82617c0.292 0.15 0.71631 0.0425 0.82031-0.1875-0.247-0.984-0.44405-1.8597-0.62305-2.8027-0.193-1.174-0.37133-2.119-0.48633-3.041-0.155-0.204-0.67494-0.13344-0.83594 0.10156l0.01172 0.85547c0.029 1.086-0.0039 1.2099-1.7949 0.96289l-3.6445-0.52148c-0.821-0.112-0.81312-0.0832-0.95312-0.82617l-0.7207-3.7871c-0.155-0.798-0.17412-0.91141 0.54688-1.3164l3.6211-2.0742c1.118-0.657 1.3173-0.54687 1.6543 0.45313l0.20508 0.60937c0.204 0.14 0.71155 0.0148 0.81055-0.24023-0.22-0.991-0.51505-2.2349-0.74805-3.4629-0.281-1.48-0.45123-2.5427-0.61523-3.7227-0.0455-0.044-0.11014-0.0704-0.18359-0.082zm115.19 0.95508c0.31597 0.027 0.53096 0.0784 0.76172 0.14062 0.82332 1.922 1.2221 3.4702 1.3926 4.2246 0.17959 0.78574-0.17001 1.5483-0.58398 2.1426-1.9198 1.7012-3.5587 3.0018-4.7578 3.8848-1.1941-0.30163-1.463-1.0145-1.7207-1.4024-1.0404-3.4407-1.9156-6.3699-2.7812-8.959 3.081 1.4875 6.4425 0.0849 7.0274-0.0156 0.21325-0.0348 0.44109-0.0345 0.66211-0.0156zm137.07 2.7422c-0.308 0.057-0.5129 0.642-0.3789 0.875 2.099 1.504 2.26 2.3321 1.748 4.9531l-0.3125 1.5918c-0.144 0.742-0.20734 0.75943-1.4023 0.52343l-12.303-2.4082c-3.016-0.595-2.9963-0.85356-2.9023-2.2266l0.0918-1.2207c-0.105-0.23-0.67885-0.31643-0.83985-0.10743-0.298 1.834-0.53134 3.1777-0.77734 4.4297-0.247 1.255-0.52525 2.5269-0.90625 4.1699 0.069 0.25 0.57645 0.37871 0.81445 0.22071l0.31446-1.0059c0.405-1.311 0.54154-1.55 3.5605-0.95703l12.299 2.4082c1.198 0.237 1.2485 0.27753 1.1035 1.0195l-0.31836 1.6172c-0.598 3.048-1.2451 3.4839-3.5391 3.4219-0.249 0.214-0.28485 0.71253-0.0899 0.89453 0.927 0.094 3.3333 0.80246 4.4453 1.3145 0.097-0.037 0.18285-0.16889 0.21485-0.33789 0.021-0.115-0.0119-0.24124-0.0469-0.36524-0.587-0.472-0.58945-0.91554-0.31445-2.3105l2.2754-11.619c0.381-1.935 0.48652-2.326 1.2285-2.332 0.094-0.04 0.14696-0.14776 0.16796-0.25976 0.026-0.142 0.0214-0.26289-0.0566-0.33789-0.954-0.393-2.6372-1.1662-4.0762-1.9512zm-129.45 3.2266c2.5826 0.0717 5.0715 0.86205 7.3711 2.1113 0.19581 0.42571 0.26786 0.8961 0.34571 1.0195-0.396 1.158-1.4051 3.7375-1.3711 6.0215 0.038 2.281 3.3213 6.0811 3.8633 6.4531-0.266-1.919 1.634-5.2952 1.668-7.4102 0.032-2.115-2.4448-4.6-3.2168-5.125-0.0242-0.0931-0.0579-0.16976-0.0859-0.25586 2.1546 1.3554 4.108 3.0947 5.7871 4.9727 0.84299 1.941 1.4617 4.4508 0.86328 7.0996-0.54636 0.8795-3.9068 5.5822-11.365 1.7246-0.38715-0.22699-0.86417-0.52686-1.2402-0.76172-0.001-0.005-0.011-0.0149-0.0117-0.0195-0.187-3.469-2.5671-4.8181-3.6191-5.1211-1.048-0.299-3.0727-1.0925-3.3887-1.3125-0.25498 6.4239 5.3876 6.8182 6.3633 7.0176 1.125 0.94183 6.5818 5.0798 11.934 1.625-0.16465 0.25964-0.33966 0.51872-0.53515 0.77734-1.3363 1.7696-2.3404 3.1179-3.1055 4.1562-0.0195-0.0111-0.11914-0.0703-0.11914-0.0703s-0.31286 0.1875-1.0059-0.0644c-0.694-0.257-5.9291-3.7849-9.7441 1.9141 0.399 0.011 2.5738 0.57584 3.6328 0.96484 1.059 0.38902 3.8707 0.71279 6.1387-2.0742 0.0867-0.0872 0.38741-0.16346 0.75-0.19141-1.8857 2.5773-2.0371 2.9082-2.0371 2.9082s-2.8083 0.27944-3.9473 2.0234c-0.43467 0.66535-0.63688 1.5671-0.74219 2.4785-0.70143-0.91111-1.3989-1.9461-2.1055-2.457-1.209-0.871-3.6448-0.44007-4.2578-0.20507-0.38815-0.14512-0.70953-0.17361-0.99219-0.17188 1.4913-2.2985 2.1341-3.8294 2.2774-6.4766 0.29285-5.5055-6.5924-10.273-7.9766-11.18 0.0529-0.0438 0.10314-0.0892 0.15625-0.13281 1.3867-1.1404 3.3166-3.1126 5.3652-5.3359 0.30838 0.11932 0.61613 0.26254 0.78515 0.43945 0.432 0.44702 3.0991 5.036 8.0801 2.125-0.301-0.15-1.7325-1.3784-2.3945-2.0644-0.66-0.681-2.6692-1.9557-5.4082-0.67969-0.10957 0.0376-0.41209-0.0341-0.73438-0.17382 1.3555-1.4806 2.683-2.9972 4.0234-4.5488zm-51.354 0.5c0.97456 1.0953 1.945 2.1561 2.9082 3.1777-0.31052 0.8167-1.2232 1.2293-2.8262 1.666-0.0905-0.28159-0.29989-0.97414-0.27539-1.6133 0.0113-0.32691 0.33471-1.6569 0.19335-3.2305zm-16.018 0.91015c4.0808 0.11025 6.4004 2.1254 8.6797 3.7402 2.4797 1.7555 2.9789 4.3009 3.0762 5.9766-0.26156 0.41904-0.51554 0.84385-0.75977 1.2793-0.47379 0.12227-2.3593 0.63739-4.4102 1.6719-0.564-0.42977-0.85257-1.0118-0.82422-1.2617 0.83-3.984-1.4557-6.2258-2.5547-6.8828-1.097-0.654-3.1455-2.1608-3.4375-2.5098-2.295 7.419 4.5408 9.5104 5.2598 9.9394 0.57607 0.34356 0.80756 0.84511 0.90039 1.0723-0.11542 0.0643-0.23126 0.12198-0.3457 0.18945-0.522 0.311-1.6113 0.98437-1.6113 0.98437s-5.6517-2.7976-8.9707 4.1504c-0.168 0.123-0.27016 1.0943 1.2148 0.98633 1.485-0.107 5.9503 0.55477 8.1133-4.2402 0.41953-0.2758 2.1584-2.1289 6.168-3.1738-1.7012 3.2704-2.9432 6.9401-3.7168 10.803-0.70512 3.5234-7.2136 3.167-11.793 1.9883-1.1-1.1932-0.96207-2.4883-1.1953-3.002 1.421-4.455-2.9324-6.4288-3.6934-6.8848-0.557 6.831 2.9355 7.1855 2.9355 7.1855s0.50694 1.3188 0.71094 1.9238c0.06528 0.19779 0.05722 0.32736 0.0293 0.43164-1.2753-0.40102-2.3155-0.84994-2.8652-1.2656-1.895-2.05-2.3499-3.2673-2.9609-4.4043 1.295-4.558-1.0616-6.6816-2.3516-7.5156-0.41242-0.26716-0.89972-0.61883-1.375-0.95312 2.4718-0.58681 3.5062-6.4928 3.8789-6.793 0.37346-0.18776 0.71559-0.33763 1.0742-0.50781l0.52344 0.98437s-3.5684 5.8503 4.1016 8.9863c0-0.378 0.32264-2.6045 0.30664-4.4785-0.011-1.032-1.469-4.4799-4-4.6309l-0.35742-1.1328c3.9291-1.8032 6.9767-2.5657 9.4102-2.6523 0.28822-0.0103 0.56779-0.0113 0.83984-0.004zm-62.299 1.375c0.19312 0.0132 0.25977 0.23891 0.35352 0.73829l0.56641 2.9629c0.129 0.686 0.13877 0.74318-0.74023 0.61718l-3.5645-0.56445c-1.432-0.231-2.196-0.35373-2.416-0.42773l-0.0098-0.0586c0.174-0.177 0.68556-0.42561 2.1016-1.2246l3.1914-1.8496c0.24038-0.1335 0.40171-0.20127 0.51758-0.19336zm81.854 3.4199c1.0688 0.0455 1.9036 0.34078 2.3516 0.53125 2.7386 2.714 5.454 5.1573 8.1855 7.2969 1.445 1.441 5.4701 4.2529 5.1641 11.086-0.0225 0.50661-0.0334 1.0585-0.0488 1.5957-3.7994-1.6602-6.4083 0.13474-7.3184 0.67969-3.267-0.225-6.9928-0.88213-11.465-6.4531-0.58862-0.73288-1.0551-1.468-1.4355-2.1973-0.0544-0.41248-0.0805-0.94174 0.21875-1.1426 0.456-0.303 1.3155-0.201 1.7715 0 0.456 0.204 1.3155 1.0146 1.7715 1.9766 0 0.657-0.45572 6.4297 7.2383 7.3887-0.15-0.354-0.65603-1.2115-0.70703-1.7695s-0.5068-5.7212-5.4668-6.0742c-0.204-0.20402-1.672-1.5209-1.166-1.6699 0.507-0.153 0.86002 0.00062 1.166 0.0996 0.303 0.102 5.415 5.57 12.248 0-0.204-0.099-1.6737-0.50833-2.1777-0.86133s-4.5017-3.7447-9.9707-0.30273c-0.42962 0.17066-4.1235 0.44797-5.8242 0.125-1.0903-3.7219-0.0882-6.873 0.13086-7.6406 1.7465-2.2415 3.7581-2.7351 5.334-2.668zm65.363 5.8144c1.7709 2.835 2.8271 5.5997 2.877 7.5586 0.082 3.2371-0.45762 5.8224-1.2246 7.8828-5.7762-3.0969-4.2402-8.3379-4.2402-8.3379 0.84211-1.5768 2.5153-4.0272 2.5879-7.1035zm-28.916 1.207c1.0922 0.0492 2.0415 0.31716 3.0938 1.0234-1.5397 2.4216-6.9072 5.1331-7.5449 5.377-0.60025-0.14243-1.4095-0.14792-2.2578-0.0937 1.3095-2.1802 3.0115-4.2703 4.9902-6.2441 0.61678-0.0517 1.1958-0.086 1.7188-0.0625zm-109.24 1.2969c-0.83638 0.0259-1.8269 0.13526-2.7734 0.38476-0.191 0.228-0.13383 0.70452 0.20117 0.85352 2.053 0.092 4.8983 0.72362 6.1953 4.1406 1.327 3.499-0.13025 8.18-5.9062 10.373-5.565 2.109-9.3259-0.43772-10.631-3.8867-1.357-3.582 0.4308-5.6576 1.9668-6.7676 0.118-0.26-0.09477-0.74065-0.38476-0.84765-1.903 1.032-3.4849 1.6944-4.0879 1.9844 0.037 0.268 0.08095 0.46717 0.12695 0.82617 0.155 1.396 0.59464 3.372 1.1816 4.916 1.037 2.745 2.8635 5.1862 5.1445 6.6152 2.308 1.424 5.3143 1.8983 8.4883 0.69727 3.555-1.351 5.397-3.9406 6.002-6.6856 0.536-2.437 0.20455-4.9497-0.81445-7.6367-0.668-1.763-1.8398-3.4613-2.2578-3.9863-0.196-0.268-0.42652-0.55246-0.60352-0.85546-0.33-0.092-1.0113-0.15088-1.8477-0.125zm113.16 0.375c0.83866 0.70468 1.7614 1.6569 2.8926 3.0098 0.29431 0.35169 0.51906 0.7367 0.69141 1.1445 0.0547 0.37474 0.0648 0.78058-0.10938 0.92969-0.354 0.303-2.7308 1.6209-3.3398 1.6699-0.47081 0.0372-3.2467-0.66189-5.7461 2.1836-0.14191-0.973-0.40816-1.7687-0.43164-1.9316 0.13786-1.5507 1.6484-3.5456 1.959-3.9434 1.5492-1.0998 2.9866-2.2127 3.4102-2.6367 0.28596-0.28632 0.50535-0.39626 0.67383-0.42578zm115.83 3.709c-0.0752 0.006-0.14245 0.03-0.18945 0.0742-0.507 1.485-0.94583 2.7129-1.4238 3.9629-0.455 1.193-0.94858 2.4016-1.6426 4.0606 0.024 0.258 0.49977 0.46951 0.75977 0.35351l0.5039-0.98828c0.64-1.277 0.81741-1.4906 3.6914-0.39062l1.625 0.62109c1.841 0.707 2.3405 1.1119 3.4375 2.4629 1.198 1.423 2.3773 2.8064 3.5703 4.3184 1.846 2.32 2.2093 2.8315 1.9863 4.1445l-0.13867 0.84766c0.145 0.273 0.58059 0.43909 0.80859 0.24609 0.276-0.884 0.58134-1.7615 0.90234-2.6035 0.309-0.81 0.65597-1.6415 1.168-2.8125-0.032-0.325-0.48986-0.50276-0.75586-0.38476l-0.49804 0.74023c-0.201 0.359-0.37549 0.5708-0.64649 0.4668-0.298-0.112-0.79015-0.61183-1.5352-1.4238-1.627-1.834-3.1414-3.5619-4.7774-5.4629 2.394-0.326 4.9721-0.49025 7.7031-0.65625 1.054-0.061 1.3806-0.0303 1.5976 0.0527 0.218 0.08 0.22268 0.23912 0.13868 0.70312l-0.17774 0.86328c0.108 0.292 0.6156 0.4241 0.80859 0.2461 0.184-0.641 0.78719-2.305 1.2422-3.498 0.427-1.113 0.89067-2.2397 1.3887-3.3867 0-0.246-0.49214-0.49725-0.74414-0.40625l-0.43164 0.64258c-0.741 1.115-1.1197 1.2172-2.5137 1.3672l-7.666 0.79882c-1.714 0.182-2.1725 0.16004-3.6895-0.41796l-1.5996-0.61133c-2.874-1.099-2.8348-1.3622-2.5098-2.6992l0.22461-0.91016c-0.0892-0.19725-0.39167-0.33737-0.61719-0.32031zm-41.791 2.0137c-0.212 0.14-0.35112 0.19206-1.0781 0.28906l-1.377 0.20313c-0.63 0.096-1.0213 0.15347-1.2793 0.23047-0.257 0.081-0.60633 0.67129-0.86133 1.2793-0.257 0.592-0.43555 1.2403-0.43555 1.5723 0 0.686 0.70969 1.0795 1.5547 1.6875 0.841 0.614 1.5898 1.4964 1.5898 2.7344 0 2.163-2.042 3.6162-3.123 3.9512-0.158 0.137-0.0768 0.45287 0.15625 0.54687 1.436-0.432 4.3466-2.2383 4.3476-4.9453 0-1.552-0.90664-2.6786-2.1816-3.5606-0.258-0.177-0.61278-0.41295-0.92578-0.62695-0.553-0.376-0.65173-0.59436-0.55273-0.94336 0.097-0.314 0.19853-0.47273 0.76953-0.55273l2.4941-0.35352c0.63-0.094 0.97914-0.82477 1.1191-1.2598 0.021-0.112-0.0368-0.23496-0.2168-0.25196zm-10.99 0.0371c-2.045 0-3.8496 1.5544-3.8496 3.8144 0 1.611 1.0798 2.9082 2.5918 2.9082 0.785 0 1.3992-0.2775 1.9082-0.6875 0.038-0.134 0.0179-0.29452-0.11914-0.35352-0.295 0.14-0.54941 0.17578-0.94141 0.17578-1.318 0-2.0449-1.6346-2.0449-2.8516 0-1.356 0.78795-2.3594 2.002-2.3594 1.909 0 2.3438 2.0442 2.3438 3.3652 0 3.557-2.1049 5.7354-3.1289 6.5234-0.764 0.59-1.6856 1.1012-2.8086 1.4902-0.118 0.121-0.0393 0.35764 0.0977 0.43164 1.413-0.257 3.1886-0.98033 4.5606-2.2363 2.046-1.889 2.8887-4.1104 2.8887-6.1094 0-2.402-1.141-4.1113-3.5-4.1113zm-10.873 0.21485c-0.177 0.035-0.20168 0.37275-0.0566 0.46874l0.33399 0.0625c1.337 0.236 1.3926 0.31197 1.3926 1.668v4.0117c0 1.36-0.0386 1.5169-1.3926 1.6719l-0.53125 0.0566c-0.134 0.102-0.11924 0.43556 0.0527 0.47656 0.378-0.042 1.735-0.0644 2.582-0.0644 0.884 0 1.9433 0.0234 2.6113 0.0644 0.177-0.041 0.1945-0.37456 0.0606-0.47656l-0.62891-0.0566c-1.255-0.118-1.2949-0.31288-1.2949-1.6719v-4.0117c0-1.356 0.0595-1.432 1.3945-1.668l0.33203-0.0625c0.136-0.096 0.11842-0.43376-0.0586-0.46874-0.473 0.036-1.531 0.0605-2.416 0.0605-0.847 0-2.0089-0.0255-2.3809-0.0605zm24.129 0c-0.118 0.64599-0.41255 1.6101-0.68555 2.1621 0.058 0.135 0.27327 0.21477 0.44727 0.13477 0.4-0.882 0.9437-1.0215 1.9297-1.0215h3.7774c0.507 0 0.58668 0.13818 0.0566 1.1172l-5.1094 9.4805c0.034 0.254 0.31177 0.3711 0.50977 0.3711 0.115 0 0.13831-0.00058 0.19531-0.0195l4.0293-7.6094c1.003-1.906 1.967-3.6329 2.498-4.4219 0-0.095-0.0617-0.17435-0.17774-0.19335-0.314 0.062-1.4366 0.0605-2.4766 0.0605h-3.0664c-0.864 0-1.4527-0.0255-1.9277-0.0605zm30.99 32.711c-1.957 0-3.5488 1.5899-3.5488 3.5469 0 1.959 1.5918 3.5469 3.5488 3.5469 1.959 0 3.5488-1.5879 3.5488-3.5469 0-1.957-1.5898-3.5469-3.5488-3.5469zm-209.26 1.5391c-1.96 0-3.5469 1.5918-3.5469 3.5488s1.5869 3.5469 3.5469 3.5469c1.959 0 3.5469-1.5899 3.5469-3.5469s-1.5879-3.5488-3.5469-3.5488zm187.64 12.469c-0.799 0.708-1.3867 1.2062-2.3867 1.9942-0.907 0.719-1.7836 1.374-2.7266 2.041-0.177 0.255 0.14937 0.71289 0.48437 0.71289l0.58985-0.35547c0.635-0.389 1.1371-0.51698 1.6211-0.33398 0.968 0.365 2.6797 2.4885 4.0547 4.2285l3.5781 4.5332c0.293 0.369 0.38314 0.48637 0.36914 0.60937-0.343 0.043-4.4476-0.70976-6.2676-1.0098l-4.3086-0.67383c-1.509-0.244-6.3482-1.1714-7.5332-1.8594-0.523 0.487-1.0638 0.94699-1.5508 1.334-0.582 0.461-1.8388 1.4908-2.7988 2.0938-0.175 0.255 0.16845 0.73705 0.43945 0.74804l0.40625-0.20312c0.38-0.189 1.1766-0.51491 1.5996-0.50391 1.319 0.048 1.5905 0.43505 3.0195 2.248l4.3457 5.5078c1.45 1.836 3.0465 3.8575 3.3125 4.8145 0.128 0.499-0.23261 0.90175-0.59961 1.3438l-0.42188 0.51757c-0.056 0.312 0.30508 0.67068 0.58008 0.63868 0.777-0.69 1.3843-1.2065 2.3613-1.9785 0.884-0.694 1.8071-1.3885 2.7031-2.0215 0.177-0.252-0.14637-0.71199-0.48437-0.70899l-0.56641 0.33399c-0.633 0.392-1.1595 0.53846-1.6445 0.35547-0.943-0.386-2.6543-2.5031-4.0293-4.2461l-3.5762-4.5332c-0.975-1.23-1.1755-1.487-1.1035-1.541 0.668 0.038 2.112 0.28894 4.957 0.83594l10.336 1.9141c3.176 0.584 4.4775 0.84111 5.2305 1.0371 0.3-0.198 0.54916-0.54617 0.53516-0.95117-0.493-0.476-2.7468-3.3352-3.2988-4.0352l-4.3789-5.5527c-1.45-1.839-3.0451-3.8569-3.2891-4.8359-0.132-0.501 0.20722-0.88231 0.57422-1.3203l0.44531-0.53906c0.059-0.311-0.30312-0.67068-0.57812-0.63868zm-157.94 5.6973c-0.26-0.046-0.59774 0.3712-0.55274 0.6582l0.27539 0.27344c1.003 0.986 1.1673 1.213-0.67969 3.752l-6.4746 8.9062c-1.844 2.538-2.1118 2.4504-3.3398 1.7754l-0.58008-0.31054c-0.289 0.045-0.57803 0.49551-0.45703 0.72851 1.137 0.756 2.2292 1.5104 3.2832 2.2774 1.056 0.766 2.1153 1.5743 3.6113 2.7383 0.26 0.045 0.59774-0.37311 0.55274-0.66211l-0.91797-0.84766c-1.021-0.965-1.219-1.1486 0.625-3.6836l2.4375-3.3516c0.434-0.598 0.49492-0.62752 1.0449-0.22852l1.4141 1.0254c2.084 1.513 2.431 1.8399 1.916 3.0039l-0.49023 1.0723c0.024 0.273 0.48128 0.60205 0.73828 0.49805 0.515-0.761 1.0923-1.656 1.7363-2.541 0.646-0.887 1.3365-1.7388 1.8145-2.3438 0.018-0.27599-0.43622-0.60887-0.69922-0.54687l-0.78711 0.67578c-0.968 0.833-1.3643 0.61852-3.4473-0.89648l-1.4121-1.0254c-0.549-0.399-0.53856-0.46946-0.10156-1.0645l3.1152-4.2852c0.972-1.338 1.0087-1.3892 2.0117-0.65821l1.2227 0.88868c0.767 0.557 1.345 1.0143 1.873 1.6523 0.735 0.902 0.61184 1.8745-0.16016 3.4375 0.136 0.316 0.60294 0.58589 0.83594 0.46289 0.772-1.158 2.0779-2.9544 2.4609-3.4824-0.539-0.32-1.8987-1.2688-3.4297-2.3828l-4.5254-3.2891c-1.051-0.765-2.1101-1.5706-2.9141-2.2266zm12.87 9.35c-0.262 0-0.51978 0.43684-0.42578 0.71485l0.41016 0.30468c1.137 0.838 1.3447 1.0135-0.07031 3.8145l-3.3906 6.7109c-1.348 2.67-1.7253 4.7982-1.1113 6.5352 0.627 1.777 2.1048 3.1884 4.5898 4.4434 1.823 0.922 4.0567 1.4178 6.1777 0.63281 2.123-0.785 3.6141-2.8197 4.8281-5.2207l1.5879-3.1465c1.054-2.087 2.23-4.4135 3-5.0195 0.399-0.329 0.92847-0.19383 1.4805-0.0488l0.64844 0.16407c0.306-0.078 0.46726-0.52963 0.32227-0.76563-1.005-0.444-1.7298-0.78184-2.8418-1.3398-1.03-0.521-2.0216-1.0566-2.8926-1.5606-0.305-0.054-0.57078 0.40689-0.42578 0.71289l0.48828 0.34961c0.609 0.44 0.93656 0.83652 0.97656 1.3535 0.089 1.008-1.1289 3.4779-2.1289 5.4609l-1.666 3.3027c-2.029 4.016-4.7772 5.9141-8.2402 4.1641-3.675-1.856-3.2365-5.4829-1.3945-9.1289l3.0586-6.0527c1.415-2.801 1.7053-2.7854 3.0293-2.3164l0.61914 0.21485c0.276-0.094 0.48027-0.55363 0.32227-0.76563-1.19-0.536-2.391-1.1099-3.584-1.7109-1.161-0.589-2.3352-1.2157-3.3672-1.8027zm122.78 2.2207c-1.6956-0.0527-3.526 0.35235-5.4238 1.332-5.522 2.852-7.3666 8.8332-4.5996 14.199 2.415 4.68 7.9915 7.0982 13.938 4.0312 5.31-2.739 7.2628-8.6412 4.5898-13.826-1.6974-3.2904-4.7736-5.6205-8.5039-5.7363zm-2.8867 1.9277c3.333-0.133 6.3946 2.9008 8.0586 6.1289 2.727 5.286 1.4579 8.7724-1.5391 10.318-4.498 2.319-8.6017-1.8251-10.473-5.4551-2.893-5.602-1.0148-9.0014 1.6152-10.357 0.78413-0.40462 1.5688-0.60407 2.3379-0.63476zm-12.785 4.1191c-0.0715-0.005-0.15378 0.006-0.23828 0.0332-0.114 0.038-0.20769 0.1278-0.30469 0.2168-0.137 0.753-0.53388 0.97334-1.9219 1.4023l-11.531 3.5742c-1.923 0.597-2.3285 0.6913-2.6875 0.0293-0.086-0.069-0.20636-0.0613-0.31835-0.0293-0.14201 0.046-0.2464 0.10699-0.2754 0.20899 0.11 1.056 0.23066 2.9392 0.22266 4.6172 0.201 0.246 0.81984 0.14602 0.96484-0.084 0.334-2.616 1.0025-3.1588 3.6055-3.9688l1.5801-0.49219c0.735-0.227 0.78339-0.18019 1.1504 1.0078l3.7871 12.211c0.927 2.997 0.6842 3.1055-0.5918 3.6875l-1.1426 0.50977c-0.158 0.201 0.0486 0.75869 0.30859 0.80468 1.791-0.62199 3.1125-1.0603 4.3535-1.4473 1.245-0.386 2.5295-0.75013 4.1855-1.2031 0.194-0.185 0.0608-0.70193-0.19922-0.83593l-1.0527 0.19922c-1.372 0.272-1.651 0.26653-2.584-2.7305l-3.7852-12.211c-0.37-1.19-0.36005-1.2544 0.37695-1.4824l1.6113-0.5c3.023-0.939 3.7242-0.56861 4.7812 1.5254 0.311 0.118 0.77566-0.0894 0.84766-0.35742-0.364-0.88-0.89375-3.378-0.96875-4.627-0.0415-0.0335-0.10233-0.0535-0.17383-0.0586zm-87.105 1.3555c-0.292 0.038-0.46745 0.60564-0.31445 0.80664l0.75586 0.35937c1.268 0.611 1.4971 0.77685 0.57812 3.7148l-3.2852 10.51c-0.917 2.938-1.1791 2.8863-2.5781 2.6973l-0.89063-0.125c-0.3 0.064-0.39117 0.65189-0.20117 0.83789 1.203 0.317 2.6274 0.72773 4.0664 1.1777l2.9375 0.91602c3.166 0.988 5.5869 1.7761 6.7559 2.2031 0.576-0.658 1.8668-2.6086 2.4668-3.7266-0.072-0.267-0.49918-0.4924-0.82618-0.4414-2.206 2.504-2.7008 2.5024-5.8398 1.5234-2.257-0.707-2.6415-1.0742-2.8555-1.5762-0.273-0.612-0.0143-1.6456 0.42773-3.0586l3.0957-9.916c0.92-2.936 1.1908-2.9116 2.5898-2.7266l0.65821 0.082c0.26999-0.072 0.41726-0.64594 0.19726-0.83594-1.263-0.332-2.5412-0.70579-3.7852-1.0918-1.297-0.407-2.5591-0.83108-3.9531-1.3301zm16.568 4.9551c-0.282 0.075-0.37531 0.65893-0.19531 0.83593l0.80078 0.2461c1.343 0.424 1.5894 0.5527 1.1094 3.5957l-1.7285 10.873c-0.483 3.042-0.75016 3.027-2.1602 3.043l-0.90039 0.01c-0.287 0.101-0.29122 0.70242-0.0742 0.85742 1.233 0.135 2.7014 0.33822 4.1914 0.57422l3.0391 0.48242c3.273 0.519 5.782 0.94913 7.002 1.2031 0.477-0.736 1.4753-2.8549 1.9043-4.0449-0.11-0.256-0.56291-0.41836-0.87891-0.31836-1.823 2.795-2.3145 2.8685-5.5605 2.3535-2.338-0.375-2.7687-0.67853-3.0527-1.1445-0.359-0.568-0.25448-1.6288-0.0215-3.0898l1.6328-10.26c0.482-3.043 0.75302-3.0583 2.166-3.0723l0.66211-0.0176c0.257-0.106 0.31821-0.69642 0.0742-0.85742-1.295-0.141-2.6153-0.32139-3.9023-0.52539-1.345-0.215-2.6544-0.45514-4.1074-0.74414zm45.008 1.377c-0.96775-0.0249-2.0474 0.0557-3.1894 0.2207-2.401 0.345-4.8782 0.79328-6.7012 1.2383-0.212 0.177-0.14516 0.64527 0.0898 0.82227l0.77344-0.0234c1.4-0.051 1.4768 0.29538 1.8848 3.1094l1.5449 10.723c0.449 3.104 0.19575 3.2335-1.1563 3.6055l-0.6289 0.17969c-0.233 0.247-0.0723 0.7588 0.17969 0.8418 1.34-0.252 2.6564-0.47021 3.9434-0.65821 1.289-0.183 2.6132-0.34665 3.9082-0.47265 0.219-0.15 0.1735-0.68242-0.0625-0.85743l-0.65625 0.006c-1.402 0.021-1.6819-0.0288-2.1289-3.1348l-0.54101-3.75c-0.089-0.617-0.0636-0.64935 0.8164-0.77734 0.965-0.14001 1.303-0.0676 1.959 0.73437 0.867 1.042 1.9227 2.5354 2.8887 3.6504 2.182 2.466 3.8697 3.3874 6.6797 2.9824 1.026-0.144 1.5721-0.31217 1.9121-0.45117 0.067-0.161 0.0165-0.48308-0.14649-0.58008-0.353 0.022-1.2284-0.0292-2.1504-0.61719-1.539-0.94299-3.3642-3.2219-6.2812-6.8379-0.141-0.158-0.23331-0.388-0.0703-0.5 1.349-0.788 3.2367-2.4397 2.8477-5.1367-0.30201-2.106-1.5863-3.3294-3.1973-3.9024-0.694-0.2585-1.5498-0.38919-2.5176-0.41406zm-27.461 1.1172c-0.239 0.112-0.27536 0.64451-0.0684 0.85351l0.47071 0.0664c1.387 0.204 1.6526 0.32094 1.6016 3.4609l-0.17969 11.01c-0.051 3.137-0.31689 3.2227-1.7129 3.3457l-1.0957 0.10157c-0.21 0.204-0.19108 0.73533 0.0449 0.86133 1.332-0.041 3.1375-0.0405 4.4375-0.0195l3.373 0.0566c3.466 0.057 6.0105 0.12704 7.3105 0.20704 0.429-0.79 1.1145-3.0294 1.3125-4.2734-0.171-0.294-0.67236-0.39345-0.94335-0.18945-1.075 2.377-1.7382 3.1975-5.4942 3.1055-2.487-0.069-2.9889-0.28407-3.3379-0.70507-0.431-0.512-0.47712-1.575-0.45312-3.084l0.0625-3.7578c0.011-0.74 0.0417-0.80006 0.72266-0.78906l1.4219 0.0215c2.577 0.045 3.0757 0.11247 3.2637 1.3555l0.18946 1.1914c0.233 0.179 0.79531 0.18542 0.94531-0.0176-0.014-0.946-0.0561-1.9824-0.0371-3.1074 0.019-1.094 0.0967-2.1619 0.13672-2.9609-0.142-0.235-0.70432-0.24597-0.94532-0.043l-0.22265 1.0039c-0.29 1.268-0.7356 1.288-3.3086 1.248l-1.4219-0.0215c-0.678-0.016-0.71127-0.0416-0.69727-0.8086l0.0801-5.002c0.03-1.689 0.0317-1.7495 1.3027-1.7285l1.9844 0.0332c0.798 0.011 1.6853 0.11469 2.3613 0.30469 0.943 0.28 1.3783 0.99761 1.8203 2.7246 0.233 0.18 0.82817 0.12857 0.95117-0.10743-0.158-1.275-0.29625-3.6132-0.40625-4.1172-0.386 0.05-2.102 0.0535-3.998 0.0215l-5.6524-0.0898c-1.303-0.021-2.6954-0.0754-3.8184-0.15039zm25.711 0.18359c2.0541 0.13271 3.4569 1.7673 3.75 3.793 0.399 2.783-0.71398 4.381-3.584 4.793-1.41 0.204-1.4177 0.14503-1.5527-0.79297l-0.8789-6.0938c-0.193-1.348-0.1763-1.4402 1.3457-1.6602 0.31862-0.0455 0.62648-0.058 0.91992-0.0391z"/></g></svg>
