<?xml version="1.0" encoding="utf-8"?>
<!-- Generator: Adobe Illustrator 22.0.1, SVG Export Plug-In . SVG Version: 6.00 Build 0)  -->
<svg version="1.1" id="Layer_1" xmlns="http://www.w3.org/2000/svg" xmlns:xlink="http://www.w3.org/1999/xlink" x="0px" y="0px"
	 viewBox="0 0 71.8 70.2" style="enable-background:new 0 0 71.8 70.2;" xml:space="preserve">
<style type="text/css">
	.st0{fill:#231F20;}
	.st1{clip-path:url(#SVGID_2_);fill:#231F20;}
	.st2{clip-path:url(#SVGID_4_);fill:#231F20;}
</style>
<path class="st0" d="M63.5,26C63.5,26.1,63.5,26.1,63.5,26"/>
<path class="st0" d="M59.4,12.5c0.2,0.7,0.1,1-0.1,1.6s-0.1,0.8-0.1,1.2c0,0.7,0.2,1.4,0.2,1.5h2.2c0-0.1,0-0.3,0-0.5
	c0-0.5-0.1-1.3-0.1-1.7c-0.1-0.8-0.3-1.5-0.5-2c-0.3-0.8-1.2-1.6-1.6-2c-0.5-0.4-0.6-0.4-0.8-0.6c-0.1-0.1-0.3-0.1-0.2,0.1
	C58.5,10.8,59.1,11.3,59.4,12.5"/>
<path class="st0" d="M62.8,24.1c-0.1-0.1,0-0.1,0-0.2c-0.1-0.1-0.1-0.2-0.2-0.3c-0.1-0.1-0.8-1.6-0.8-1.6c0-0.1-1.2-2.7-1.2-3.1
	c0.2-0.1,0.5-0.3,0.7-0.6c0.3-0.7,0.3-1.1,0.4-1.5h-2.2c0,0.1,0.5,1.2,0.8,1.3c0,0.1,0,0.1,0,0.2c0,0,0,0.1-0.1,0.1
	c-0.1,0.1-0.2-0.1-0.1,0c0-0.1-0.5-0.7-1.1-1.6c-0.7-1-1.4-2.2-1.5-2.6c-0.2-0.4-0.2-0.7-0.2-0.7c0.8-0.5,0.4-3.5,0.5-3
	c0-2.8-1.5-4.8-1.5-4.9c-0.2-0.2-0.4-0.7-0.7-0.8C55.6,5,55.5,5,55.5,5c0.7,1.6-0.1,4.7-0.2,5.4c-0.1,1.6,1.4,3.5,1.5,3.7
	c-0.4-0.1-0.6-0.3-0.8-0.6c-0.2-0.2-0.3-0.3-0.5-0.5c-0.3-0.6-1.3-3.5-1.5-3.9c-0.6-1-1.7-1.9-3.3-2.5c-0.8-0.3-2.7-1.1-3.1-1.5
	c-0.1-0.1-0.1,0-0.1,0c-0.1,0.1,0,0-0.1,0.1c0.1,0.2,0.4,1.1,2,3c0.9,1.1,1.1,1.8,4.4,3.6c0.3,0.1,0.9,0.5,0.9,0.9
	c-0.1,0-1.8-1.2-3.3-1.7c-1.5-0.4-3.7-2.8-3.9-3C47.7,6.1,45,5.3,45,5.3c-0.2,0-4.3-1.5-7-0.6c-0.1,0.1,0,0.1,0.1,0.2
	c0.7,0.1,2,0.3,2.3,0.7c2.2,2.7,5.4,2.8,5.4,2.8c0.4,0.1,0.9-0.1,1.2,0.1c0.1,0.1,3.5,2.7,3.5,2.7c-0.3,0-0.7,0-0.9-0.1
	c-0.2-0.2-0.7-1.3-3.9-1.5c0,0-2.1-0.1-2.4-0.1c-2.1-0.1-3-1.3-3-1.3c-0.1,0.1,0,0-0.1,0.1c0,0.2,0.2,0.4,0.2,0.4
	c0.2,0.3,1.1,1.9,3.7,2.9c0,0,1.5,0.6,2.7,0.6c1.9,0,2.1-0.7,2.5-0.5c0.3,0.1,1.8,0.1,2.2,0.2c2.1,0.7,3.8,2.2,3.9,2.2
	c0,0.1-0.1,0.1-0.1,0.1c-0.1,0-2.4-1.2-3.6-1.2c-3.9,0.2-4,0.1-4.1,0c-0.2-0.1-0.2-0.2-0.4-0.2c0.2,0.7,2.9,1.7,3.9,2.1
	c0,0,2,0.9,2.8,0.4c0.2-0.1,1.7-0.6,1.7-0.6c0.2-0.1,1-0.3,1.5,0.5c0,0,0.6,0.8,1.1,1.7l0,0c0.7,1.1,1.5,2.4,1.6,2.7
	c-0.2,0-0.2-0.1-0.3-0.1c0-0.4-0.3-0.7-0.7-0.9c-0.4-0.3-1.7-1-3.2-1.6l0,0c-1.4-0.6-2.8-1-3.5-0.7c0.1,0.2,0.6,0.3,0.9,0.5
	c0.2,0.1,0.3,0.2,0.4,0.2l0,0c0.1,0.1,0.3,0.2,0.9,0.7s0.4,0.4,0.7,0.7s0.6,0.7,0.9,1c0.6,0.6,1.2,0.8,1.8,0.9
	c0.6,0.2,0.7,0.1,0.9,0.1c0.1,0,0.3-0.1,0.3-0.2c0.1-0.1,0.2-0.1,0.5-0.1c0.3-0.1,0.8,0.8,0.8,0.8c0,0,0.5,0.9,0.6,1.2
	s0.6,1.2,0.7,1.5c0.1,0.3,0.7,1.5,0.7,1.5h0.6C63.1,24.9,62.8,24.2,62.8,24.1"/>
<path class="st0" d="M47.6,60.8L47.6,60.8L47.6,60.8"/>
<path class="st0" d="M32,58.4c0.3,0.1,0.8,0.2,1,0.2c0.1,0.1,0.2,0.1,0.3,0c0.1,0,0.2-0.1,0-0.2c-0.6-0.5-1.6-0.8-1.7-0.9
	c-0.3-0.1-1.1-0.2-1.4-0.3c-0.6-0.1-1.4-0.1-1.6-0.1c-0.4,0-1.5,0.2-1.9,0.6c-0.4,0.4-0.7,0.9-0.7,0.9h4.3c0,0,0.7-0.3,0.9-0.3
	C31.3,58.4,31.7,58.4,32,58.4"/>
<path class="st0" d="M13.1,50.8C13,50.8,13,50.8,13.1,50.8L13.1,50.8"/>
<path class="st0" d="M21.5,53.6c-0.1-0.1-0.6-0.6-0.7-0.8s-0.5-0.4-0.8-0.7c-0.3-0.2-1.4-0.7-1.8-1.1c-0.5-0.4-0.9-0.9-0.9-1.1h-0.3
	c0.1,0.3,0.3,1.4,0.2,0.8c-0.1-0.4,0.2,0.8,0.8,2.2c0.2,0.3,0.3,0.6,0.3,0.6l0,0L21.5,53.6"/>
<path class="st0" d="M68.6,36.6c-0.1-0.6-0.3-1.1-0.3-1.9s0.2-1.3,0.3-1.5h-1.1c-0.6,0.6-1,1.8-1.2,2.3c-0.2,0.6-0.4,1.5-0.5,2.1
	c-0.1,0.6-0.2,2.6-0.2,2.6c0,0.1-0.1,0.8-0.2,1.2c-0.1,0.6-0.5,1.2-0.6,1.4c-0.2,0.6-0.1,0.3-0.2,0.4c-0.1,0.1-0.8,0.8-1,0.9
	c-0.2,0.1-0.3,0.2-0.4,0.2c0.1-0.4,0.4-1.6,0.4-1.7c0-0.1,0.1-0.2,0.1-0.2s0.2-1,0.2-1.1h-0.6c0,0.1-0.3,1.1-0.3,1.2
	c-0.1,0.4-0.5,2-0.5,2.1c-0.1,0.1-0.1,0.2-0.2,0.4c-0.1,0-0.1,0.1-0.2,0.1c0-0.2-0.2-0.4-0.2-0.7c0,0,0.4-0.9,0.6-1.3
	c0.2-0.6,0.2-1.5,0.3-1.7h-0.7h-1c-0.1,0.2-0.3,0.5-0.3,1.1c-0.1,0.6-0.1,1.8,0.4,2.3c0.1,0.1,0.4,0.2,0.4,0.2
	c0.1,0.1,0.2,0.8,0.2,0.9v0.2c0,0.3,0,0.3,0,0.4c0,0.2-0.1,1.1-0.1,1.2c0,0.2,0,0.4-0.1,0.5c-0.1,0.2-0.2,0.4-0.2,0.5
	c-0.1,0.2-0.2,0.4-0.3,0.6c-0.1,0.2-0.4,0.6-0.4,0.6c0.1-0.3,0.2-0.6,0.2-0.8c0.1-0.3,0-0.9,0-1.1c0-0.3-0.1-0.7-0.2-0.8
	c-0.1-0.3-0.2-0.6-0.2-0.7s-0.2-0.4-0.3-0.6c-0.1-0.1-0.2-0.3-0.2-0.4c-0.1-0.1-0.2-0.2-0.2-0.4c-0.1-0.4-0.1-0.6-0.1-0.7
	s0.1-0.7,0-0.7c-0.1-0.1-0.1-0.1-0.2,0c-0.4,0.8-0.7,1.5-0.7,1.7c-0.1,0.2-0.2,0.9-0.2,1.1c0,0.2-0.1,0.5-0.1,0.7
	c0,0.1-0.1,0.6,0,1.2c0.1,0.7,0.2,1.3,0.4,1.7l0,0c0.1,0.1,0.1,0.1,0.1,0.2c-0.1-0.1-1.2,0.1-1.7,0.3c-0.2,0.1-0.8,0.3-1.2,0.6
	c-0.2,0.1-0.4,0.3-0.6,0.4c-0.2,0.1-1,1-1.2,1.3c-0.1,0.1-0.3,0.6-0.4,0.7h2.3c0.1-0.3,0.2-0.6,0.2-0.7c0.2-0.5,0.7-1.1,1-1.5
	c0.4-0.4,0.9-0.7,1.1-0.7c0.3-0.1,0.5-0.3,0.6-0.3c0.1,0.2,0.3,0.4,0.3,0.5c0,0.4,0,0.8,0,1.2c-0.4,0.4-0.7,0.8-1.1,1.2
	c-0.1-0.1-0.1-0.1-0.3-0.1c0-0.2,0.1-0.3-0.1-0.4c-0.1-0.1-0.1-0.1-0.2-0.1c0-0.1-0.1-0.1-0.1-0.2c-0.1-0.1-0.3-0.1-0.4,0.1
	c-0.3,0.1-0.2,0.3-0.2,0.3c0,0.1-0.1,0.1-0.2,0.1c-0.1,0-0.2,0.1-0.2,0.1c0,0.1,0,0.1,0,0.2c0,0-0.1,0.1-0.2,0.1
	c-0.1,0.1-0.2,0.2-0.2,0.3h-0.1l0,0h0.1l0,0c0,0.1,0,0.2,0.1,0.3c-0.1,0.3-0.1,0.6,0.3,0.8c-0.1,0.2-0.3,0.3-0.4,0.4
	c-0.2,0.1-0.4,0.4-0.6,0.6c-0.2,0.1-1,0.8-1.2,0.9c-0.2,0.1-0.6,0.3-0.6,0.3c0-0.1,0.1-0.6,0.1-0.6c0.1-0.3,0.4-0.1,0.7-0.2
	c0.2-0.1,0.3-0.1,0.6-0.2c0.2-0.1,0.4-0.4,0.5-0.6c0.2-0.2,0.4-1.1,0.6-1.7h-2.3c0,0-0.2,0.5-0.3,0.8c-0.1,0.2-0.2,0.8-0.2,0.8
	c0,0.3-0.3,1.1-0.3,1.3c0,0-0.1,0.4-0.1,0.6c-0.2,0.1-0.5,0.1-0.6,0.1c-0.1,0.1-0.6,0.1-0.7,0.2c0,0-0.9,0.2-1.3,0.3L50.1,58
	c-0.1,0-0.6,0.2-0.7,0.3c-0.1,0.1-0.3,0.2-0.6,0.2c0,0-0.1,0-0.1-0.1c0-0.1,0-0.3,0.1-0.5c0.1-0.2,0.6,0,1.1-0.1
	c0.5-0.1,0.9-0.4,1.2-0.6c0.2-0.1,0.7-0.7,0.9-0.9c0.2-0.3,0.6-0.9,0.7-1.2c0.1-0.2,0.3-0.6,0.4-0.8c0.3-0.4,0.9-0.7,0.9-0.8
	c0,0,0.1-0.1,0.2-0.1c0-0.1,0.1-0.1,0.1-0.1s0-0.1-0.1-0.1c-0.1-0.1-0.5,0.1-0.6,0.1c-0.3,0.1-0.4,0.1-0.6,0.2c0,0,0,0,0.1,0h-0.1
	c-0.1,0.1-0.8,0.3-1.2,0.5c-0.4,0.2-1.2,0.8-1.3,0.9c-0.2,0.2-0.7,0.6-1.1,0.9c-0.3,0.3-0.6,0.8-0.8,1s-0.4,0.6-0.4,1
	c-0.1,0.4-0.1,0.6-0.1,0.6c0,0.1,0,0.1,0,0.1s0,0.1,0,0.1c0,0-0.1,0.2-0.3,0.3c0,0-0.4,0.3-0.5,0.4c-0.1,0-0.6,0.8-0.7,0.7
	c-0.1,0-0.2,0-0.3,0.1c-0.1,0.1-0.1,0.2-0.2,0.2c-0.4,0.1-0.7,0.2-0.7,0.3c-0.1,0.1-0.1,0.1-0.2,0.1c-0.1,0.1-0.3,0.2-0.3,0.2
	c-0.2-0.2-0.5-0.2-0.6,0h-0.1c0-0.1,0-0.3-0.1-0.3l0,0c0.2-0.1,0.6-0.2,0.8-0.3c0.2-0.1,0.7-0.6,0.8-0.6c0.1-0.1,0.4-0.3,0.5-0.4
	c0.2-0.1,0.3-0.2,0.4-0.3c0.1-0.1,0.2-0.3,0.3-0.3c0.1-0.1,0.3-0.3,0.4-0.5c0.1-0.1,0.3-0.5,0.4-0.8c0.1-0.3,0.2-0.7,0.2-0.8
	c0.1-0.1,0.1-0.4,0-0.6c-0.1-0.1-0.1-0.2-0.2-0.1c-0.1,0.1-0.2,0.3-0.3,0.4c-0.1,0.2-0.4,0.6-0.9,0.9c-0.3,0.2-0.5,0.3-0.8,0.4
	c-0.3,0.2-0.7,0.4-0.8,0.4c-0.1,0.1-0.7,0.4-0.7,0.5l0,0c-0.1,0.1-0.6,0.4-0.7,0.6c-0.1,0.2-0.2,0.3-0.2,0.5
	c-0.1,0.3,0.1,0.4-0.1,0.6C43,60.8,43,60.9,43,60.9l0,0c0,0,0,0.2-0.1,0.2c-0.1,0.1-0.1,0.3-0.1,0.3c-0.2,0-0.4,0.2-0.4,0.2
	c-0.2,0.1-0.2,0.2-0.4,0.2c-0.1,0-0.1,0-0.1,0c0.1-0.1,0.1-0.1,0.1-0.1c0.1-0.1,0.1-0.1,0.1-0.1c0-0.1,0-0.1,0-0.1
	c0.1-0.1,0.2-0.1,0.3-0.2c0.1-0.1,0.1-0.2,0-0.3l-0.1-0.1l0,0c-0.1-0.1-0.2-0.1-0.2-0.1c0-0.1,0-0.1,0-0.2c0-0.1,0-0.2-0.1-0.2
	c-0.1-0.1-0.2-0.2-0.3-0.2c-0.1-0.1-0.1,0-0.2,0c-0.1,0-0.1,0-0.1-0.1c0-0.1-0.1-0.1-0.1-0.2c-0.1-0.1-0.1-0.1-0.2-0.1
	c-0.1,0-0.2,0-0.3,0.1c-0.1,0.1-0.1,0.1-0.1,0.2c-0.2-0.1-0.5-0.1-0.6-0.1c-0.1,0.1-0.2,0.1-0.3,0.2c0.1,0.1,0.1,0.2,0.1,0.3
	c-0.2,0.1-0.2,0.1-0.4,0.2c-0.1-0.1-0.3-0.3-0.4-0.4c-0.2-0.1-0.9-0.7-1.2-0.8c-0.6-0.3-1.9-0.6-2.5-0.7c-0.6-0.1-1.8,0-2.5,0.1
	c-0.6,0.1-1.3,0.4-1.4,0.5c-0.1,0.1-0.1,0.2,0.1,0.2c0.2,0,0.7,0,1.1,0.1c0.2,0,1,0.2,1.4,0.4c0.3,0.2,0.9,0.4,0.9,0.5
	c0.1,0,0.4,0.2,0.5,0.2l0,0l0,0l0,0l0,0c0.1,0.1,0.6,0.2,0.9,0.3c-0.1,0-0.2,0.1-0.5,0.1c-0.4,0-0.7-0.1-1.2-0.1
	c-0.6-0.1-1.9-0.2-2-0.2c0,0-0.3,0-0.3-0.1l-0.1-0.1l0,0l0,0l0,0h-0.2c-0.6,0-1.2-0.1-1.8-0.1c0-0.2,0.1-0.3,0.1-0.4
	s-0.2-0.3-0.2-0.3c0-0.1,0.1-0.2,0-0.3s-0.1-0.2-0.2-0.2c-0.1,0-0.2,0.1-0.2,0.1c-0.1-0.1,0-0.1-0.1-0.2c-0.1-0.1-0.3-0.1-0.5-0.1
	c-0.1,0.1-0.3,0.1-0.2,0.2c-0.2-0.2-0.4-0.2-0.4-0.2c0.2-0.1,0.3-0.2,0.5-0.2c0.1-0.1,0.8-0.3,0.8-0.3H26c-0.1,0.1-0.2,0.3-0.2,0.4
	c0,0.1-0.1,0.1-0.1,0.1c-0.1,0-0.1,0.1-0.2,0.1l-0.3,0.2c0.1-0.1,0.1-0.1,0.1-0.2c0.2,0,0.4-0.2,0.5-0.3c0,0,0.1-0.1,0.1-0.2
	c0,0.1,0.1-0.1,0-0.2c-0.1-0.2-0.1-0.1,0-0.4c0.1-0.3,0-0.4-0.2-0.4c-0.2-0.1-0.2,0.1-0.3,0c0-0.1,0-0.2-0.1-0.2
	c-0.1-0.1-0.2-0.2-0.3-0.2c-0.3-0.1-0.4,0.1-0.5,0c-0.2-0.1-0.3,0-0.4,0.1l-0.1,0.2c-0.1-0.1-0.1,0-0.2,0c-0.2,0.1-0.2,0.2-0.2,0.2
	c-0.1-0.1-0.1-0.2-0.2-0.3c0.1-0.1,0.2-0.7,0.1-1.1c-0.1-0.2-0.4-0.9-0.5-1.1c-0.1-0.2-0.6-0.9-0.7-1.1c-0.1-0.2-0.6-0.7-0.6-0.7
	h-3.3c0,0.1,0.3,0.6,0.6,0.9c0.2,0.3,0.6,0.7,0.8,0.9c0.2,0.2,1.2,1.1,1.5,1.3c0.3,0.3,1.5,0.9,1.6,0.9c0.1,0.1,0.3,0.4,0.3,0.4
	c0.1,0.1,0,0.1,0.1,0.2c0,0-0.3-0.1-0.4-0.1c-0.1-0.1,0-0.1-0.1-0.2c-0.2,0-0.3-0.1-0.3-0.1s-0.1,0-0.2,0c0,0-0.9-0.6-1-0.6
	c0,0-0.7-0.3-0.8-0.5c-0.2-0.2-0.3-0.3-0.5-0.5c-0.2-0.2-0.6-0.5-0.8-0.8c0-0.1-0.2-0.1-0.3-0.1c-0.1-0.1-0.4-0.6-0.6-0.6
	c-0.1-0.1-0.4-0.6-0.5-0.6c-0.1-0.1-0.4-0.6-0.5-0.6h-0.9l0,0c0.2,0.2,0.4,0.6,0.4,0.6c-0.1-0.1,0.4,0.5,0.6,0.7
	c0.2,0.2,0.7,0.8,0.8,0.9c0.1,0,0.3,0.2,0.4,0.3l0.1,0.1c-0.1,0-0.2,0-0.3,0c0,0-0.5-0.8-0.7-0.9c-0.2-0.2-0.6-0.6-0.7-0.6
	c-0.1-0.1-0.8-0.6-1.2-0.8c-0.2-0.1-0.4-0.2-0.6-0.3h-4.8c0.1,0.1,0.9,0.9,1.2,1.2c0.4,0.3,1,0.7,1.3,0.9c0.3,0.2,1.4,0.7,2.3,0.9
	c0.9,0.2,1.5,0.3,1.6,0.3c0.2,0.1,1.1,0.1,1.3,0.1c0,0,0.8-0.1,0.9,0c0.1,0,0.2,0,0.2,0c0,0.1,0.3,0.3,0.1,0.2c-0.1-0.1-0.3,0-0.3,0
	c-0.3,0.1-0.3,0.4-0.3,0.4c-0.1,0-0.2,0-0.3,0c0,0-0.2,0-0.3,0.2c-0.1,0.3-0.1,0.4,0.2,0.6c0.1,0.1,0.1,0.1,0.2,0.1
	c0,0.1,0.1,0.1,0.1,0.1c-0.1,0.3,0.3,0.3,0.4,0.4c0.1,0.1,0.2,0.3,0.3,0.3c0.2,0.1,0.4,0,0.5-0.2c0.1,0,0.1-0.2,0.2-0.2
	s0.2,0.1,0.4-0.1c0,0,0.2-0.1,0.2-0.3c0-0.1,0.1-0.1,0.1-0.2c0,0,0-0.2-0.1-0.2c0,0,0.1-0.1,0.1-0.1c0.1-0.1,0.1-0.2,0.1-0.3
	c0.2,0.1,0.3,0.2,0.5,0.3c0.2,0.1,0.4,0.1,0.5,0.2c0.1,0.1,0.1,0.2,0.1,0.3h2.1c0.1-0.1,0.1-0.1,0.2-0.1c0.1-0.1,0.2,0,0.3,0
	c0,0.1,0,0.1,0.1,0.1l0,0c0,0.1,0.1,0.1,0.2,0.1c0,0.2,0,0.2-0.2,0.3c0,0-0.4,0-0.5-0.2c-0.1-0.1-0.1-0.2,0-0.3h-2.1l0,0
	c0.1,0,0.9,0.1,1.3,0.2c0.4,0.1,0.7,0.3,0.8,0.3c0,0,0.3,0.2,0.4,0.2c0,0.1,1.1,0.6,1.1,0.7c-0.2,0.2-0.4,0.2-0.7,0.2
	c-0.1,0-0.6,0.1-0.7,0.1c0,0-0.4,0-0.6-0.2c-0.1-0.1-1.1-0.6-1.5-0.7c-0.4-0.1-1.5,0.1-1.7,0.1c-0.4,0.1-1.1,0.1-1.6,0
	c-0.6-0.1-1.4-0.4-1.7-0.6c-0.3-0.1-0.7-0.4-0.7-0.4l-1.6-1c-0.1,0-1.3-0.8-1.3-0.8c-0.1,0-0.8-0.6-0.9-0.8c-0.1,0-0.2,0-0.2,0.1
	c0,0.1,0.6,1.1,0.6,1.1c0,0,1.2,1.4,1.3,1.6c0.1,0.1,0.8,0.9,1.1,1.1c0.3,0.2,0.8,0.7,1,0.9l0,0c0.2,0.1,0.8,0.7,1.5,1.1
	c0.7,0.3,1.2,0.4,1.7,0.5c0.7,0.1,1.9-0.1,2.5-0.3c0.5-0.2,1.2-0.6,1.3-0.7c0.2-0.1,0.2-0.2,0.2-0.2c0.5-0.1,1-0.2,1.5-0.2
	c-0.1,0.1,0,0.1-0.1,0.1c0,0-0.2,0.2-0.2,0.2c-0.1,0.1,0.1,0.4,0.1,0.4c0,0.1-0.1,0.2-0.1,0.3c0,0.1,0.1,0.3,0.2,0.3
	c0.1,0.1,0.3,0.1,0.4,0.1c0.1,0,0,0.1,0.1,0.1c0.1,0.1,0.3,0.1,0.4,0.1c0,0,0.1,0,0.1-0.1c0.1-0.1,0.1-0.2,0.3-0.1
	c-0.1-0.1,0,0.1-0.1,0.1c0,0-0.5,0.2-0.6,0.3l0,0c0,0-1,0.6-2.4,0.7c-0.3,0-1.8-0.1-2.3-0.2c-0.6-0.1-0.8-0.2-1.4-0.4
	c-0.1-0.1-0.3-0.1-0.3,0c-0.1,0.1-0.1,0.1,0,0.2c0,0.1,0.7,0.6,1.1,0.8c0.3,0.2,0.9,0.6,1.2,0.7c0.3,0.1,1,0.4,1.2,0.5
	c0.2,0.1,0.7,0.2,1.3,0.3c0.6,0.1,0.9,0.1,1.5,0.1c0.6-0.1,1.2-0.2,1.6-0.3c0.5-0.2,1-0.6,1.3-0.7c0.2-0.2,0.6-0.6,0.8-0.8
	c0.2-0.2,0.3-0.5,0.4-0.7l0,0c0.1-0.2,0.1-0.5,0.2-0.6c0.1-0.1,0.5-0.5,0.6-0.6c0.1-0.2,0.3-0.1,0.4-0.2c0.1,0,0.5,0,0.4,0
	c-0.1,0-0.1,0.2-0.2,0.1c0,0-0.1-0.1-0.2-0.1c-0.1,0-0.2,0.1-0.3,0.2c0,0.1,0,0.1,0,0.2c-0.2,0.1-0.3,0.1-0.3,0.2
	c-0.1,0.1-0.1,0.4,0,0.4c0,0-0.1,0.2,0,0.4l0,0l0,0c0,0,0,0.1,0.1,0.2c0.2,0.1,0.2-0.1,0.3,0c0,0,0.1,0.3,0.2,0.3
	c0.2,0.1,0.4-0.1,0.6-0.2c0.2-0.1,0.2-0.2,0.2-0.2c0,0,0.2,0.1,0.4,0.1c0.2,0,0.3-0.1,0.3-0.2l0,0c0.1-0.1,0.1-0.2,0.1-0.3
	c0-0.2-0.1-0.3-0.1-0.3c0,0,0-0.1,0.1-0.1c0-0.2-0.1-0.2-0.1-0.3c-0.1-0.1-0.2,0-0.2-0.1c0-0.2-0.1-0.4-0.1-0.4
	c-0.1-0.1,1.1,0.2,1.2,0.2c0,0.1,0.9,0.2,1.1,0.2c0.3,0.1,0.7,0,1.1,0.1c0.2,0,1.4,0.1,1.5,0.1c0.1,0,0.1,0.1,0,0.1
	c-0.2,0.1-0.3,0.3-0.4,0.4c0,0.1-0.6,0.5-0.7,0.6l0,0c-0.2,0.1-0.3,0.1-0.5,0.2c-0.8,0.3-1.2,0.6-1.7,0.8c-0.3,0.1-1.3,0.4-1.6,0.4
	c-0.2,0.1-2,0.4-2.6,0.4c-0.6,0.1-2,0.5-2.3,0.7c-0.3,0.2-1.1,0.5-1.1,0.7c-0.1,0.2,0,0.2,0.1,0.2s0.7-0.1,0.9-0.1
	c0.6,0,1.1,0.2,1.5,0.2c0.4,0.1,1.6,0.2,2,0.2c0.4,0,1.8-0.1,2.6-0.3c0.7-0.2,1.4-0.6,1.8-0.8c0.4-0.3,1.2-1,1.6-1.4
	c0.3-0.4,0.4-0.7,0.6-1.2l0,0c0-0.1,0.1-0.3,0.1-0.4C36.7,62.3,37,62,37,62c0,0.1,0.1,0.2,0.1,0.2s-0.1,0.2-0.2,0.3c0,0,0,0.2,0,0.2
	l0,0c-0.1,0.1-0.1,0.1-0.1,0.2c0,0-0.1,0.3,0.1,0.4c0.1,0.1,0.1,0.1,0.2,0.1c0.1,0.1,0.1,0.1,0.1,0.2c0.2,0.2,0.3,0.1,0.5,0.1
	c0.1,0,0.2-0.1,0.2-0.1c0.1-0.1,0.1-0.2,0.1-0.2c0.1,0,0.1,0.1,0.1,0.1c0.3,0.1,0.3-0.1,0.4-0.2c0-0.1,0.2,0.1,0.3,0
	c0.1,0-0.1,0.4,0,0.8c0.1,0.4,0.4,1.1,0.7,1.5s1.1,0.8,1.6,0.9c0.4,0.1,1.1,0.2,1.7,0.3c0.6,0.1,1.3,0.2,1.7,0.2
	c0.4,0.1,1.5,0.2,2,0.2c0.4,0.1,1,0.3,1.4,0.6c0.1,0,0.1,0.1,0.1,0.1s0,0,0.1,0c0.1-0.1,0,0,0.1-0.1c-0.1-0.3-0.2-0.5-0.3-0.6
	c-0.1-0.1-0.5-0.6-0.8-0.8c-0.2-0.2-1.3-0.7-1.8-0.8c-0.4-0.2-1.1-0.4-1.8-0.6c-0.6-0.2-1.7-0.7-2-0.9c-0.3-0.2-0.8-0.6-1-0.8
	c-0.2-0.2-0.4-0.3-0.4-0.4l0,0c-0.2-0.2-0.4-0.4-0.4-0.7c0.4,0.1,0.8,0.1,1.2,0.1c0,0,0.6,0.2,0.6,0.2c0,0.1,0.7,0.4,0.8,0.4l0,0
	l0,0c0.1,0,1.1,0.6,1.2,0.7c0.1,0,0.7,0.4,1.2,0.7c0.5,0.3,0.9,0.4,1.4,0.6c0.4,0.2,1.5,0.4,1.9,0.4c0.5,0.1,1.7,0.1,2.6-0.1
	c0.8-0.2,1.2-0.3,1.6-0.5c0.4-0.1,1.4-0.7,1.7-0.9c0.4-0.3,1.3-1,1.3-1l0,0c0.1-0.1,0.3-0.2,0.4-0.3s0.1-0.2-0.1-0.2
	c0,0-0.2,0.2-0.4,0.3c-0.2,0.1-0.6,0.2-0.6,0.2l0,0c0,0-0.3,0.1-0.6,0.1c-0.3,0.1-0.6,0.1-0.8,0.1c-0.6,0-1.1-0.1-1.3-0.2
	c-0.2,0-0.2-0.1-0.3-0.1l0,0l0,0l0,0l0,0c-0.1,0-1.6-0.3-1.7-0.3c-0.1,0-1-0.2-1.2-0.2c-0.2,0-0.4-0.1-0.4-0.1
	c0-0.1,0.1-0.1,0.1-0.2c0.1,0,0.2,0.1,0.3,0c0.2-0.1,0.2-0.2,0.2-0.2c0.1-0.1,0.1-0.1,0.1-0.2s-0.1-0.3-0.1-0.3
	c-0.1-0.1-0.2-0.1-0.3-0.1c0-0.1,0-0.1-0.1-0.2c-0.1-0.1-0.2-0.1-0.2-0.2c0,0,0,0,0-0.1v-0.1l0,0c0-0.2-0.2-0.3-0.2-0.3
	c-0.1-0.1-0.1,0-0.2,0v-0.1c0.2-0.1,0.3-0.2,0.4-0.2c0,0.1,0.1,0.2,0.1,0.2c0.1,0.1,0.2,0.3,0.3,0.3l0,0c0.9,0.5,1.6,0.6,2,0.7
	c0.4,0.1,2.1,0.1,2.5,0.1c0.5-0.1,1.2-0.1,1.8,0c0.7,0.1,1.7,0.9,1.8,1.1c0.1,0.1,0.1,0.1,0.2,0.1s0.1-0.2,0-0.2
	c0-0.1-0.1-0.2-0.1-0.3c-0.1-0.2-0.3-0.6-0.6-0.8c-0.2-0.2-0.4-0.4-0.4-0.5l0,0c-0.1-0.1-0.8-0.6-1-0.8c-0.2-0.1-0.6-0.3-0.7-0.4
	c0.1,0.1,0.3,0,0.4,0c0.2,0.1,0.4,0.1,0.5,0.1c0,0,0.1-0.1,0.1-0.1c0.1,0,0.3,0.1,0.5-0.1c0.2-0.1,0.2-0.2,0.2-0.2
	c0.1-0.1,0-0.3-0.1-0.4c-0.1,0-0.1-0.1-0.1-0.1v-0.1c0-0.1,0-0.2-0.1-0.2c-0.1-0.1-0.1,0-0.1-0.1c0-0.1,0.1-0.3,0-0.4
	c-0.1-0.1-0.1-0.1-0.1-0.1c0.3,0.1,0.6,0.2,0.9,0.2c0.1,0,0.7,0.1,0.8,0.1c0.2,0,1.7,0,2.3-0.1c0.6-0.1,1.4-0.5,1.8-0.7
	c0.7-0.3,1.7-1.3,2-1.6s0.7-0.8,0.8-1.1c0.2-0.2,0.5-0.9,0.6-1.2l0,0c0.2-0.2,0.2-0.4,0.3-0.7c0.1-0.3,0.2-0.9,0.2-1.1
	s0-0.2-0.1-0.2c-0.1,0-0.2,0.1-0.2,0.2c-0.1,0.1-0.5,0.8-0.7,1.1c-0.2,0.3-0.8,0.7-0.9,0.8l0,0c-0.3,0.2-1.2,0.7-1.9,0.8
	c-0.4,0.1-1.2,0.3-1.8,0.6c-0.6,0.2-1.6,0.8-2.2,1.2c-0.3,0.3-0.8,1.2-1.2,1.3c-0.6,0.2-0.9-0.2-0.9-0.2c0-0.1,0.1-0.1,0.1-0.2
	c0.1,0,0.2-0.1,0.3-0.2c0.1-0.1,0.5-0.3,0.8-0.5s0.9-0.6,1.1-0.7c0.2-0.1,0.6-0.6,0.7-0.7c0.1-0.1,0.3-0.2,0.3-0.2
	c0.1,0.1,0.2,0.1,0.3,0.1c0.2,0.1,0.4-0.1,0.5-0.2c0.1-0.1,0.2-0.3,0.1-0.6c0,0,0.2-0.1,0.3-0.3c0-0.1,0-0.1,0-0.2
	c0,0,0.1-0.1,0.2-0.1l0,0c0.1-0.1,0.6-0.6,0.6-0.6c0,0.1-0.1,0.1,0.1,0.3c0.1,0.1,0.1,0.1,0.2,0.1c-0.1,0.2,0.1,0.2,0.1,0.2l0,0l0,0
	c0.1,0.4,0.6,0.3,0.8,0.2c0,0,0.1-0.1,0.2-0.1c0,0,0.1,0.1,0.2,0.1c0.1,0,0.2-0.1,0.3-0.2c0,0,0.1-0.1,0.1-0.1
	c0.1,0,0.2-0.1,0.3-0.1l0,0c0,0,0.3-0.2,0.2-0.4c-0.1-0.1,0.1-0.1,0.2-0.3c0.1-0.3-0.3-0.4-0.3-0.4c0-0.1,0-0.2-0.1-0.3
	c-0.1-0.1-0.1-0.2-0.3-0.2c-0.2-0.1-0.2,0.1-0.3,0c0,0-0.1-0.2-0.2-0.2c-0.1-0.1-0.3,0.1-0.4,0.1c-0.1,0.1,0,0.1-0.2,0.2
	c0.1-0.2,0.1-0.2,0.2-0.4c0.2-0.3,0.1-0.2,0.2-0.2c0.2,0,0.4,0.1,0.7,0c0.2-0.1,0.7-0.1,0.9-0.2c0.3-0.1,0.9-0.3,1.2-0.5
	c0.4-0.2,0.9-0.6,0.9-0.7c0,0,0.6-0.6,0.6-0.7c0.1-0.1,0.7-0.8,0.9-1.3c0.2-0.3,0.7-1.6,0.7-1.6h-2.8c-0.1,0.2-0.7,0.9-0.9,1.3
	c-0.2,0.4-0.4,0.9-0.5,1.1C62.7,49,62.5,50,62.5,50c0,0.1-0.1,0.6-0.1,0.6c-0.3,0.1-0.7,0.3-0.9,0.2c-0.1-0.1,0.2-0.5,0.3-0.7l0,0
	c0.1-0.1,0.5-1.2,0.6-1.3c0.1-0.2,0.2-0.4,0.2-0.4c0-0.1,0-0.7,0-0.8c0-0.1,0.1-0.4,0.1-0.8c0-0.1,0-0.2,0-0.2
	c0-0.2,0.1-1.1,0.2-1.2c0,0,0.2-0.2,0.2-0.2c0.1,0,0.3-0.1,0.5-0.2c0,0,0.4-0.3,0.5-0.3c0.1-0.1,0.9-0.8,0.9-0.8
	c0.2-0.1,0.2-0.1,0.5-0.2c0.3-0.1,1.2-0.6,1.6-0.9c0.4-0.3,0.9-1.2,0.9-1.2c0.1-0.4,0.5-1.5,0.6-2.5C68.8,37.9,68.7,37.2,68.6,36.6
	 M42.1,60.9c0-0.1,0.1-0.1,0.2,0s0.1,0.1,0.1,0.2c-0.1,0.1-0.1,0.1-0.2,0C42.1,61,42.1,61,42.1,60.9z M19.5,57.4c0,0,0.2-0.1,0.3,0
	s0,0.2-0.1,0.2c-0.1,0.1-0.2,0-0.2-0.1C19.5,57.5,19.4,57.5,19.5,57.4z M19,58.7L19,58.7l-0.1,0.1c-0.1,0-0.1-0.1-0.2-0.1
	c0-0.1,0-0.1,0-0.1C18.8,58.6,18.9,58.6,19,58.7C19,58.7,19,58.7,19,58.7z M18.9,58.4c-0.4,0.1-0.4-0.1-0.5-0.2
	c-0.1-0.2,0-0.3,0.1-0.3c0.2,0,0.3,0,0.4,0.1c0.1,0.1,0.2,0.2,0.2,0.2C19.1,58.4,19,58.4,18.9,58.4z M18.9,57.6
	c0-0.1-0.1-0.2,0.1-0.2c0.1-0.1,0.1-0.1,0.3,0c0.1,0.1,0.1,0.2,0.1,0.3c0,0.1,0,0.2-0.1,0.1C19,57.7,18.9,57.7,18.9,57.6z
	 M19.6,59.1c-0.1,0.1-0.2,0.1-0.2,0.1c0,0-0.1,0-0.2-0.1c-0.1-0.2,0.1-0.3,0.1-0.3c0.1,0,0-0.1,0.1-0.1c0.2,0,0.2,0.1,0.3,0.2
	C19.8,59,19.7,59.1,19.6,59.1z M20.3,58.7C20.3,58.7,20.3,58.7,20.3,58.7c0,0.1-0.2,0.2-0.4,0l0,0c-0.1-0.1-0.1-0.2,0-0.3
	c0-0.1,0.1-0.1,0.2-0.1c0.1,0,0.1,0.1,0.1,0.1c0.1,0,0.1,0,0.2,0.1C20.3,58.6,20.3,58.7,20.3,58.7z M20.4,58.2
	c-0.1,0-0.1,0.1-0.2,0.1h-0.1c-0.1,0-0.2-0.1-0.2-0.1c-0.1-0.1-0.1-0.1-0.1-0.2c0.1-0.4,0.5-0.2,0.6-0.1
	C20.5,58,20.4,58.1,20.4,58.2z M24.1,58.4c-0.1,0.1-0.2,0.1-0.3,0.1c-0.1-0.1-0.2-0.1-0.2-0.2c-0.1-0.2,0.1-0.4,0.2-0.4
	C24.3,57.9,24.2,58,24.1,58.4z M24.5,57.9c-0.1-0.2,0-0.3,0.1-0.3c0.2-0.1,0.4,0,0.5,0c0.1,0.1,0.1,0.2-0.1,0.4
	C25,58,24.5,58.1,24.5,57.9z M25,58.7L25,58.7c0-0.1,0-0.2,0.1-0.2c0.2-0.1,0.3-0.2,0.4,0c0.1,0.1,0.1,0.2,0.1,0.2l0,0l0,0
	c0,0.2,0,0.2-0.2,0.3C25.2,59,25.1,58.9,25,58.7C25,58.7,25,58.7,25,58.7z M30.3,59.5c0.1,0,0.2,0.1,0.2,0.2c0,0.1-0.1,0.2-0.1,0.2
	c-0.1,0-0.1,0-0.2-0.1C30.1,59.6,30.3,59.5,30.3,59.5z M29,59.5c0.2-0.1,0.3,0,0.3,0.2c0.1,0.1,0.1,0.2,0,0.2
	C29.2,60,29,60,28.9,59.9C28.8,59.6,28.8,59.6,29,59.5z M29.1,60.5c-0.1,0-0.2,0.1-0.3,0c-0.2-0.1-0.2-0.2-0.1-0.4
	c0.1-0.1,0.3-0.1,0.4,0.1C29.2,60.2,29.2,60.4,29.1,60.5z M26,59.6c0.1,0,0.6,0.2,0.6,0.2s0.5,0.2,0.8,0.1l1.4-0.5
	c0,0.1-0.1,0.1-0.1,0.2c0,0.1,0.1,0.2,0.1,0.3c0,0-0.2,0.1-0.2,0.2c-0.1,0.1-0.1,0.2-0.1,0.3c-0.5,0-2-0.3-2-0.3
	c-0.2-0.1-0.7-0.4-0.8-0.4C25.7,59.6,25.8,59.6,26,59.6z M26,60.6c-0.1,0.1-0.1,0.1-0.1,0.1l0,0c0,0,0,0.1-0.1,0.1
	c0,0-0.1,0-0.1-0.1l0,0l0,0v-0.1C26,60.6,26,60.6,26,60.6C26,60.6,26.1,60.6,26,60.6z M25.3,60.8c0.2,0,0.2,0,0.3-0.1l0,0
	c0.1,0.1,0.1,0.1,0.1,0.2c-0.1,0.2-0.1,0.2-0.2,0.2c-0.1,0-0.3,0-0.3-0.2C25.1,60.9,25.2,60.9,25.3,60.8z M25.1,61.1
	c0.1,0,0.2,0.1,0.1,0.3c-0.1,0.2-0.3,0.1-0.3,0S25,61.1,25.1,61.1z M25.2,62.2c-0.1,0.1-0.3-0.1-0.3-0.2c-0.1-0.1-0.1-0.2,0-0.3
	c0.2,0,0.3-0.1,0.3-0.2c0.1,0,0.3,0.1,0.3,0.2c0.1,0.1,0,0.2-0.1,0.3C25.4,62.2,25.3,62.2,25.2,62.2z M25.8,62.4
	c0,0-0.1,0.1-0.2,0.1c-0.1-0.1-0.1-0.1-0.1-0.2c0.1-0.1,0.1-0.1,0.2-0.1C25.7,62.1,25.8,62.3,25.8,62.4z M26.2,62.3
	c-0.1,0.1-0.3,0.1-0.3-0.1c0-0.2-0.1-0.2-0.2-0.3c0,0,0.2-0.2,0.3-0.2C26.4,61.8,26.4,62.2,26.2,62.3z M26.3,61.4
	c-0.1,0-0.1-0.2-0.3-0.3c0-0.2,0.2-0.3,0.4-0.3c0,0,0,0,0.1,0c0.1,0.1,0.2,0.1,0.2,0.1c0.1,0.2,0,0.4-0.2,0.4
	C26.3,61.4,26.4,61.4,26.3,61.4z M26.4,61.6c0,0-0.2-0.3,0.2-0.2c0.2,0.1,0.1,0.2,0.1,0.2C26.6,61.8,26.5,61.8,26.4,61.6z
	 M29.4,61.6c-0.1,0.1-0.3,0.3-0.4,0.4c-0.3,0-0.6-0.1-1,0c-0.4,0.1-1.1,0.2-1.4,0.3c0.1-0.1,0.1-0.2,0.2-0.4c0-0.1,0.3-0.2,0.3-0.2
	c0-0.1,0-0.2-0.1-0.2s-0.1-0.1-0.1-0.1c0-0.2,0.1-0.4,0-0.6c0-0.1,0-0.1-0.1-0.1l0,0c0,0,0-0.1-0.1-0.1c0.2,0,0.3,0,0.4,0.1
	c0,0,0,0,0.1,0c0.2,0.1,0.4,0.1,0.5,0.1c0.2,0,0.5,0.1,0.8,0.1c0,0,0.5,0.1,0.6,0.1c0,0,0.3,0.1,0.5,0.1c0,0,0.1,0.1,0.2,0.1
	C29.6,61.5,29.4,61.5,29.4,61.6z M29.8,61c-0.2,0.2-0.5,0-0.5-0.1c0-0.1,0-0.1,0-0.1l0,0c0-0.1,0.1-0.2,0.2-0.2
	c0.2-0.1,0.3,0.1,0.4,0.2l0,0v0.1C29.9,60.9,29.8,60.9,29.8,61z M29.9,59.9C29.8,60,29.6,60,29.6,60c-0.1,0-0.1-0.1-0.1-0.2
	c-0.1-0.1,0-0.3,0.1-0.3c0.1-0.1,0.3-0.1,0.4,0C30,59.5,30,59.8,29.9,59.9z M30.6,60.6c-0.1,0-0.1,0.1-0.2,0.1
	c-0.2,0-0.3-0.1-0.4-0.2c-0.1-0.2-0.1-0.2,0-0.3s0.4-0.1,0.5-0.1c0,0,0.1,0.1,0.2,0.2C30.7,60.4,30.6,60.6,30.6,60.6z M30.5,61.6
	c0.1,0,0.2-0.1,0.2,0.1c0.1,0.1,0,0.2-0.1,0.2c-0.1,0.1-0.2-0.1-0.2-0.2C30.4,61.7,30.5,61.6,30.5,61.6z M30.3,62.8
	C30.3,62.8,30.3,62.8,30.3,62.8C30.3,62.8,30.3,62.8,30.3,62.8c-0.1,0.1-0.1,0.1-0.1,0l0,0l0,0c0-0.1-0.1-0.1-0.1-0.1
	c0-0.1,0.1,0,0.1,0C30.3,62.7,30.3,62.7,30.3,62.8C30.3,62.7,30.3,62.8,30.3,62.8z M30.4,62.5c-0.2,0-0.3-0.3-0.3-0.3
	c0-0.1,0-0.1,0.1-0.2c0.1,0,0.2,0,0.2,0c0.1,0,0.1,0.1,0.2,0.2c0.1,0.1,0.1,0.2,0,0.2C30.5,62.5,30.6,62.5,30.4,62.5z M30.8,63
	c-0.2,0.1-0.2,0-0.3-0.1c0-0.1,0-0.1,0-0.2l0,0c0.1-0.1,0.1-0.2,0.2-0.2c0.1,0,0.2,0,0.2,0.1c0,0.1,0.1,0,0.1,0.2l0,0l0,0
	C31,62.9,31,63,30.8,63z M31,61.8c-0.1-0.1-0.1-0.2,0-0.3c0.1-0.1,0.2-0.2,0.3-0.1c0.1,0.1,0.1,0.1,0.1,0.2
	c-0.1,0.2-0.2,0.2-0.3,0.2C31.1,61.9,31.1,61.9,31,61.8z M31.8,62.5c0,0.1,0,0.1,0,0.1c-0.1,0.1-0.2,0.2-0.4,0.1
	c-0.1-0.1-0.2-0.1-0.2-0.2c-0.1-0.2,0-0.2,0.2-0.3C31.4,62.2,31.8,62.2,31.8,62.5z M31.6,61.9c-0.1,0,0.1,0,0.1,0.1
	c0,0.1-0.1,0.1-0.1,0.1c-0.1,0-0.1,0-0.1-0.1C31.4,62,31.5,61.9,31.6,61.9z M41.7,60.3c0.1,0,0.2-0.1,0.3,0.1
	c0.1,0.1-0.1,0.3-0.1,0.3c-0.1,0-0.3-0.1-0.3-0.2C41.5,60.5,41.6,60.4,41.7,60.3z M40.5,60c0.3,0,0.4,0.1,0.5,0.2
	c0.1,0.1,0,0.5-0.1,0.5c-0.1,0.1-0.4,0.1-0.5-0.1c0,0-0.1-0.1-0.1-0.2C40.2,60.3,40.3,60,40.5,60z M38.5,61.9L38.5,61.9
	c0.1,0,0.1,0,0.1,0.1s0.1,0.2,0.1,0.3c-0.1,0.1-0.2,0-0.2-0.1C38.5,62.1,38.5,62,38.5,61.9z M37.2,61.9c0.1-0.1,0.1-0.1,0.2-0.1
	c0.1,0.1,0.2,0.2,0.1,0.3c-0.1,0.1-0.2,0.1-0.3,0C37,62,37.1,62,37.2,61.9z M37.1,62.4c0.2-0.1,0.2-0.1,0.3,0.1
	c0.1,0.1,0.1,0.2,0,0.2s-0.1-0.1-0.2-0.1c-0.1,0-0.1,0.1-0.2-0.1C37,62.6,37,62.4,37.1,62.4z M37.7,63.4c-0.1,0.1-0.2,0.2-0.3,0.2
	c-0.2,0.1-0.3,0-0.3-0.1c-0.1-0.2-0.2-0.2-0.2-0.3c0-0.1,0.1-0.3,0.2-0.3h0.1c0.1,0,0.2,0,0.4,0.1c0,0,0.2,0.1,0.2,0.2
	C37.7,63.2,37.7,63.4,37.7,63.4z M38.2,62.3c-0.1,0.1-0.2,0.1-0.4-0.1c-0.1-0.1-0.2,0-0.2-0.2c-0.1-0.2,0.1-0.4,0.3-0.4
	c0.1,0,0.3-0.1,0.3,0.1C38.2,61.9,38.3,62.3,38.2,62.3z M38.7,63c-0.1,0.1-0.1,0.1-0.2,0.1c-0.2-0.1-0.2-0.1-0.3-0.2
	c0-0.1,0-0.1,0-0.1l0,0c0-0.1,0.1-0.2,0.1-0.3c0.1,0,0.1-0.1,0.2-0.1s0.1,0.1,0.2,0.1c0,0,0.1,0.1,0.1,0.2l0,0
	C38.7,62.9,38.7,63,38.7,63z M40,61.5c-0.4,0.1-0.5,0.1-0.6,0.1S39,61.4,39,61.4c0.2-0.1,0.3-0.2,0.4-0.3c0.1,0,0.1,0,0.2,0
	C39.7,61.2,39.9,61.3,40,61.5C40,61.5,40,61.5,40,61.5z M40.1,60.9c0,0-0.1-0.1-0.1-0.1c0,0,0-0.1-0.1-0.1l0,0c0-0.1,0-0.1,0.1-0.1
	c0,0,0.1-0.1,0.2,0c0.1,0.1,0.1,0.1,0.1,0.1l0,0l0,0c0,0.1,0,0.1,0,0.1C40.2,60.9,40.1,61,40.1,60.9z M40.7,61.4
	c-0.1,0.1-0.3-0.1-0.3-0.1s-0.2-0.1-0.1-0.2c0.1-0.1,0.2-0.1,0.2-0.2c0-0.1,0.3-0.1,0.3,0C40.9,61,40.8,61.4,40.7,61.4z M41.2,61.6
	c-0.1,0.1-0.3,0-0.4-0.1c-0.1-0.1,0.1-0.3,0.3-0.2C41.3,61.4,41.3,61.6,41.2,61.6z M41.2,60.3c-0.1-0.1-0.1-0.2-0.1-0.2
	c0.1-0.1,0.1-0.1,0.1-0.2c0.1,0,0.2,0.1,0.2,0.2s0,0.2-0.1,0.2C41.4,60.3,41.3,60.3,41.2,60.3z M41.8,61.5c-0.2,0-0.3-0.1-0.4-0.2
	c0-0.1,0-0.2,0.1-0.3c0.1-0.1,0.1,0,0.1-0.1c0.1-0.1,0.4,0.2,0.4,0.2C42,61.4,41.9,61.5,41.8,61.5z M44.3,61.2
	c0.1-0.1,0.2-0.1,0.2-0.1l0.1,0.1c0.2,0.1,0.1,0.4,0,0.4c-0.3,0.1-0.4-0.1-0.4-0.2C44.3,61.3,44.3,61.3,44.3,61.2z M44.8,62
	l-0.1,0.1c-0.2,0.2-0.2,0-0.2-0.1s0-0.1,0-0.1c0.1,0,0.1-0.1,0.2-0.1C44.8,61.9,44.8,61.9,44.8,62z M44.4,62.1
	c0.1,0.2,0.1,0.3-0.1,0.3C44,62.5,44,62.3,44,62.2C44.1,62.2,44.3,61.9,44.4,62.1z M43.4,60.9c0.1-0.1,0.4-0.1,0.4,0L44,61
	c0.1,0.4-0.2,0.4-0.3,0.5c-0.2,0-0.3-0.1-0.4-0.2C43.1,61,43.4,60.9,43.4,60.9z M43.6,62.8c-0.1,0-0.1,0-0.1,0h-0.1
	c-0.1,0-0.1-0.1-0.1-0.1c-0.1-0.1-0.1-0.2-0.1-0.3c0.1-0.1,0.1-0.1,0.1-0.1c0.1,0,0.1-0.1,0.1-0.1c0.2,0,0.2,0.1,0.3,0.2
	C43.9,62.6,43.8,62.7,43.6,62.8z M42.9,61.6c0.1-0.1,0.2-0.1,0.3-0.1c0.2,0,0.2,0.2,0.3,0.3c0,0.3-0.2,0.3-0.2,0.3
	c-0.1,0-0.1,0.1-0.2,0.1C43,62.1,42.9,62,42.9,62C42.9,61.9,42.9,61.7,42.9,61.6z M46,61.9c0,0.1,0,0.2,0,0.2v0.1
	c-0.3,0.1-0.4,0.1-0.8,0.2c-0.4,0.2-0.5,0.2-0.7,0.3c0,0-0.1,0.1-0.1,0.1l0,0c-0.2,0.1-0.5,0.3-0.6,0.4c-0.2,0-0.3-0.1-0.4-0.2
	c0-0.1-0.4-0.2-0.4-0.2l0,0l0,0c-0.1-0.1-0.6-0.3-0.7-0.5c-0.1-0.1,0,0-0.1-0.1c0.1,0,0.4-0.2,0.5-0.2c0.1-0.1,0.1,0.4,0.4,0.4
	c0.1,0-0.1,0.2,0.1,0.4l0,0l0.1,0.1c0.1,0.1,0.3,0.1,0.3,0.1c0.2,0,0.3-0.1,0.4-0.2l0,0l0,0c0.1-0.1,0.1-0.1,0.1-0.1
	c0.1,0,0.2,0.1,0.4-0.1c0.2-0.2,0.1-0.3,0.2-0.3c0.1,0,0.3-0.1,0.3-0.1c0.1-0.1,0.1-0.3,0.1-0.3c0-0.1-0.1-0.2-0.1-0.2
	c0.1-0.3,0.6-0.4,0.6-0.4S45.9,61,46,61c0.1,0,0.3,0,0.2,0.1c-0.1,0.1-0.1,0.1-0.1,0.1c-0.1,0.1,0.1,0.3,0,0.3
	C46.2,61.6,46,61.7,46,61.9z M46.6,62.3c-0.3,0.1-0.4,0.1-0.4-0.1c-0.1-0.3,0.1-0.4,0.2-0.4c0.2-0.1,0.2,0.1,0.4,0.2
	C46.8,62.1,46.6,62.2,46.6,62.3z M46.3,61.3C46.4,61.3,46.4,61.3,46.3,61.3c0.1-0.1,0.2-0.1,0.2,0c0,0.1,0,0.1-0.1,0.2h-0.2
	C46.3,61.4,46.3,61.4,46.3,61.3z M46.7,61.1c-0.1,0-0.4,0-0.4-0.2c0-0.1,0-0.1,0.1-0.2l0,0l0,0c0,0,0.1-0.1,0.1-0.2
	c0-0.1,0.1-0.1,0.1-0.1c0.1,0,0.1,0,0.2,0c0.1,0.1,0.1,0.1,0.2,0.2l0,0v0.1C46.9,61,46.9,61.1,46.7,61.1z M47.6,61.5
	c0.1-0.1,0.4-0.1,0.5,0v0.1l0,0c0,0.1,0,0.1,0,0.2c-0.1,0.1,0,0-0.1,0.1c-0.1,0.1,0,0.1-0.1,0.1c-0.1,0.1-0.3,0-0.4-0.1
	C47.5,61.7,47.6,61.6,47.6,61.5z M47.4,62.2c-0.1,0-0.1,0.1-0.1,0.1c-0.1,0-0.2,0-0.2-0.1c-0.1-0.1-0.1-0.1-0.1-0.2
	c0.1-0.1,0.1-0.1,0.1-0.1c0.1-0.1,0.2,0,0.2,0.1C47.4,62,47.4,62.1,47.4,62.2z M47.2,60.6c0.1,0,0.2,0,0.2,0.1v0.1l0,0
	c0,0.1,0,0.1-0.1,0.2c-0.1,0-0.1,0.1-0.2,0.1c-0.1,0,0,0-0.1-0.1c-0.1,0-0.1-0.1,0-0.2l0,0C47.2,60.7,47.2,60.6,47.2,60.6z
	 M53.4,59.5c-0.4-0.2-0.9-0.4-1.2-0.5c-0.3-0.1-1-0.1-1.3-0.1s-0.9,0.2-1.2,0.2c-0.1,0.1-1.1,0.4-1.3,0.7c-0.1,0.1-0.2,0-0.3-0.1
	c-0.1,0-0.1-0.1,0-0.2c0.1,0,0.7-0.5,0.7-0.6c0.1,0,0.7-0.4,0.9-0.5h0.1c0.3-0.2,1.2-0.3,1.2-0.3c0.1,0,0.9-0.3,1.3-0.3
	c0.3-0.1,1.1-0.2,1.2-0.2c0,0.1-0.1,0.1-0.1,0.1c0,0-0.1,0.3,0,0.4c0.1,0.1-0.2,0-0.2,0.1c-0.1,0.1-0.1,0.1-0.2,0.2c0,0,0,0.1,0,0.1
	l0,0c-0.1,0.2,0,0.5,0.4,0.6C53.4,59.3,53.4,59.4,53.4,59.5z M53.1,58.9c0-0.1,0-0.1,0-0.2l0,0c0-0.1,0.1-0.2,0.1-0.2
	c0.1,0,0.3,0.1,0.4,0.2l0,0l0,0c0,0.1-0.1,0.3-0.1,0.3S53.5,59,53.5,59C53.4,59.1,53.2,59.1,53.1,58.9z M53.6,59.4
	c0-0.1-0.1-0.1,0-0.2c0.1-0.1,0.1-0.1,0.2,0C53.7,59.4,53.6,59.4,53.6,59.4z M53.9,58.5c-0.2,0-0.3-0.1-0.3-0.2
	c-0.1-0.1-0.1-0.3,0-0.4c0.1-0.1,0.2-0.1,0.2-0.1c0.3,0,0.4,0.1,0.4,0.2C54.1,58.2,54,58.5,53.9,58.5z M54.3,59.5
	c-0.1,0.1-0.2,0.1-0.3,0c-0.1-0.1-0.1-0.3-0.1-0.4C54,59,54,59,54.1,59c0.1,0.1,0.2,0.2,0.2,0.3C54.4,59.4,54.4,59.4,54.3,59.5z
	 M54.3,58.4c0-0.1-0.1-0.1-0.1-0.2s0-0.2,0.1-0.3c0.1-0.1,0.3,0.1,0.3,0.2c0.1,0.1,0,0.3-0.1,0.3C54.6,58.4,54.4,58.5,54.3,58.4z
	 M55,59c0.1,0.1-0.3,0.4-0.3,0.3s-0.1-0.2-0.2-0.2c-0.1-0.1-0.1-0.1-0.1-0.2C54.5,58.9,54.9,58.9,55,59z M54.9,58.6
	c0,0.1,0,0.1-0.1,0.1l0,0c-0.1,0.1-0.2,0.1-0.2,0.1l-0.1-0.1l0,0l0,0c0-0.1,0.1-0.1,0.1-0.1C54.7,58.6,54.8,58.5,54.9,58.6z
	 M58.4,53.3c0.1-0.1,0.2,0,0.2,0.1c0.1,0.1,0,0.2-0.1,0.2l0,0l0,0c-0.1,0-0.1,0-0.1,0l0,0c-0.1,0-0.1-0.1-0.1-0.2
	C58.3,53.3,58.3,53.3,58.4,53.3z M57.3,53.2c0-0.1,0.1-0.1,0.2-0.1c0.2,0.1,0.2,0.2,0.1,0.3c-0.1,0.1-0.2,0-0.3-0.1
	C57.2,53.3,57.3,53.2,57.3,53.2z M56.9,53.6L56.9,53.6c0-0.1,0-0.1,0.1-0.1c0.1-0.1,0.1-0.1,0.2,0c0.1,0,0.1,0.1,0.1,0.1v0.1
	c0,0.3-0.2,0.2-0.3,0.2C56.9,53.8,56.9,53.7,56.9,53.6z M57.6,54.5c-0.1,0.1-0.4,0.2-0.5,0C57,54.4,57,54.4,57,54.3
	c0-0.1,0-0.3,0-0.3c0.2,0,0.3-0.1,0.3-0.2c0.2,0.1,0.2,0.2,0.3,0.2C57.7,54.3,57.7,54.4,57.6,54.5z M57.7,53.1
	c-0.1-0.2,0-0.3,0.1-0.3c0.1-0.1,0.1-0.1,0.2-0.1l0,0c0,0,0,0,0.1,0c0.1,0,0.1,0.1,0.2,0.2c0.1,0.1,0.1,0.1,0.1,0.2
	c0,0.1,0,0.2-0.2,0.3C58,53.3,57.7,53.2,57.7,53.1z M58.6,54.6c0,0.1-0.1,0.1-0.2,0.2c-0.1,0.1-0.2,0.1-0.3,0
	c-0.1-0.1-0.2-0.2-0.2-0.2c0-0.1-0.1-0.1,0-0.3c0.1-0.2,0.1-0.2,0.1-0.2c0.1-0.1,0.1,0.1,0.3,0.1c0.2,0.1,0.1,0,0.2,0.1
	C58.6,54.3,58.7,54.5,58.6,54.6z M58.8,54c0,0.1-0.1,0.1-0.2,0.1c-0.1-0.1-0.2-0.1-0.2-0.2c0.1-0.1,0.1-0.1,0.1-0.1s0.1,0,0.2,0.1
	C58.9,53.9,58.9,53.9,58.8,54z M60.1,53.2c-0.1-0.1-0.1-0.1-0.1-0.2c0.1-0.1,0.1,0,0.1,0.1c0.1,0,0.1,0,0.1,0.1
	C60.2,53.1,60.1,53.2,60.1,53.2z M61.4,53.4c-0.1-0.1-0.1-0.1-0.1-0.1c0-0.1,0-0.1-0.1-0.2c0-0.1,0.1-0.2,0.2-0.2
	c0.1,0,0.3-0.1,0.3,0.2C61.9,53.3,61.7,53.7,61.4,53.4z M61.8,52.7c0.1-0.1,0.1-0.1,0.2,0c0.1,0.1,0.1,0.1,0,0.2
	c-0.1,0-0.1,0.1-0.2,0S61.7,52.7,61.8,52.7z M61.2,52.4c0-0.1,0-0.2,0.2-0.2c0.1-0.1,0.2,0,0.3,0.1c0,0.1,0.1,0.1,0.1,0.2
	c0,0.1-0.1,0.1-0.1,0.2 M61.3,53.6C61.3,53.6,61.4,53.6,61.3,53.6C61.4,53.6,61.4,53.6,61.3,53.6c0.1,0.1,0,0.1,0,0.2
	c-0.1,0.1-0.1,0.1-0.2,0c-0.1-0.1-0.1-0.1-0.1-0.1l0,0c0-0.1,0-0.1,0.1-0.1C61.3,53.4,61.3,53.5,61.3,53.6z M60.9,52
	c0.1,0.1,0.2,0,0.2,0.1c0.1,0.1,0,0.2-0.1,0.2c-0.1,0.1-0.2,0-0.2-0.1S60.8,52,60.9,52z M60.8,53.1c0.2,0.1,0.3,0.3,0.1,0.5l0,0
	c0,0,0,0.1-0.1,0.1c-0.1,0.1-0.4,0.1-0.5,0c-0.1,0-0.1,0-0.1-0.1l0,0c-0.1-0.1-0.1-0.2,0-0.3c0,0,0-0.2,0.2-0.2
	C60.7,53,60.7,53,60.8,53.1z M60.7,52.7c-0.1,0.2-0.1,0.2-0.2,0.2c-0.2,0.1-0.4-0.1-0.4-0.1c0-0.1,0-0.1,0-0.2s-0.1-0.2,0.1-0.3
	c0.1-0.1,0.3-0.1,0.3,0C60.7,52.3,60.8,52.5,60.7,52.7z M60.7,50.8c-0.1,0.1-0.1,0.2-0.1,0.3h-0.1c0,0.1,0,0.1,0,0.1h-0.1
	c0,0.1-0.1,0.1-0.1,0.2c-0.1,0-0.1,0-0.2,0c0-0.1,0-0.2,0-0.2c0.1-0.1,0.2-0.2,0.2-0.3C60.6,50.8,60.7,50.8,60.7,50.8
	c-0.1-0.1-0.1-0.1-0.1-0.2c0.1,0,0.1-0.1,0.1-0.1c0.1-0.2,0.1-0.3,0.2-0.4c0-0.1,0-0.1,0-0.1h0.1C61,50.4,60.8,50.6,60.7,50.8z"/>
<path class="st0" d="M60.2,53.1c0-0.1-0.1-0.1-0.1-0.1c-0.1-0.1-0.1-0.1-0.1-0.1c-0.1,0.1,0,0.2,0.1,0.2"/>
<path class="st0" d="M61,50.3c-0.2,0.1-0.1,0.2-0.2,0.4c-0.1,0-0.1,0.1-0.1,0.1c0,0.1,0,0.1,0,0.1c-0.1,0-0.1,0.1-0.1,0.1
	c-0.1,0.1-0.2,0.2-0.2,0.3c0,0.1,0,0.2,0,0.2c0.1,0,0.1,0,0.2,0c0-0.1,0.1-0.1,0.1-0.2h0.1c0-0.1,0-0.1,0-0.1h0.1
	c0.1-0.1,0.1-0.2,0.1-0.3c0.1-0.2,0.3-0.4,0.3-0.7h-0.1C61,50.2,61,50.2,61,50.3"/>
<path class="st0" d="M16.8,49.7c-0.1,0.1,0,0.3,0,0.4h0.3c-0.1-0.1-0.1-0.1-0.2-0.3C16.9,49.5,16.9,49.5,16.8,49.7"/>
<g>
	<g>
		<g>
			<defs>
				<rect id="SVGID_1_" x="2" y="3.1" width="68.6" height="64.8"/>
			</defs>
			<clipPath id="SVGID_2_">
				<use xlink:href="#SVGID_1_"  style="overflow:visible;"/>
			</clipPath>
			<path class="st1" d="M70.6,42.2c-0.1-0.1-1.5,0.2-1.9,0.4c-0.6,0.2-1.5,0.8-1.8,1.1s-1.2,1.1-1.6,1.5c-0.4,0.6-0.9,1.2-1.1,1.4
				H67c0-0.1,0.2-0.6,0.3-0.9c0.2-0.4,0.7-1.2,0.8-1.3c0.2-0.2,0.6-0.7,0.9-1s1.4-0.9,1.5-0.9C70.6,42.2,70.6,42.2,70.6,42.2"/>
		</g>
	</g>
</g>
<path class="st0" d="M12.5,49.9c-0.1-0.2-0.7-1-0.9-1.2c-0.3-0.2-0.7-0.5-1.2-0.7c-0.3-0.1-0.6-0.2-0.8-0.3
	c-0.3-0.2-0.6-0.4-0.8-0.6C8.5,47,8,46.5,8,46.5c-0.1-0.2-0.7-0.8-0.9-1.4c-0.2-0.3-0.5-1.1-0.6-1.2c-0.1-0.1-0.2-0.1-0.2-0.1
	s-0.2,0.4,0,1.5c0.1,0.6,0.2,0.7,0.3,1.2c0.2,0.4,0.2,0.8,0.8,2c0.2,0.5,0.8,1.2,1.1,1.6h4.8C13.1,50,12.8,50,12.5,49.9"/>
<path class="st0" d="M16.1,47.2c-0.1-0.2-0.2-0.6-0.2-0.7h-1.5c0,0.3,0,0.5,0,0.8c0,0.3-0.1,1.2,0.1,1.9c0.1,0.4,0.2,0.7,0.2,0.9
	h1.8c0-0.9-0.1-1.6-0.1-1.8C16.4,48,16.2,47.4,16.1,47.2"/>
<g>
	<g>
		<g>
			<defs>
				<rect id="SVGID_3_" x="2" y="3.1" width="68.6" height="64.8"/>
			</defs>
			<clipPath id="SVGID_4_">
				<use xlink:href="#SVGID_3_"  style="overflow:visible;"/>
			</clipPath>
			<path class="st2" d="M17.1,53.6c-0.1-0.1-0.2-0.2-0.3-0.3c0-0.1-0.4-0.6-0.4-0.6c-0.1-0.1,0.1-0.2,0.1-0.2c0-0.2,0-0.4,0-0.7
				v-0.2c-0.1-0.3,0-0.9,0-0.9c0-0.2,0-0.7,0-0.7h-1.8c0.1,0.2,0.1,0.3,0.2,0.5c0.1,0.2,0.3,0.5,0.4,0.7c0.1,0.2,0.3,0.4,0.6,0.6
				c0,0.1,0,0.3,0,0.4l-0.1,0.1c-0.2-0.1-0.5-0.5-0.5-0.5c0-0.1-0.2-0.3-0.2-0.3c0-0.1-0.4-0.6-0.4-0.6c0-0.1-0.4-0.6-0.4-0.7l0,0
				c0,0-0.2-0.3-0.2-0.3c0-0.1-0.5-0.9-0.7-1.2s-0.6-0.9-0.7-1s-0.4-0.6-0.5-0.9c0.1,0,0,0,0.1,0.1c0.2,0.1,0.3,0.1,0.4,0
				c0.1,0,0.1-0.1,0.1-0.1c0.1,0,0.1-0.1,0.1-0.1c0-0.1,0-0.1,0.1-0.1v-0.1c0.2,0.1,0.3-0.1,0.4-0.1c0.1-0.1,0.2-0.2,0.2-0.3
				c0,0,0.1-0.1,0-0.2c0-0.1-0.1-0.1-0.1-0.2c0,0-0.2-0.1-0.2-0.2c0-0.1,0.1-0.2-0.1-0.3c-0.1-0.1-0.2-0.1-0.2-0.1
				c-0.1-0.3-0.2-0.4-0.2-0.4c0,0-0.3-0.1-0.3-0.2c-0.3,0-0.4,0.4-0.5,0.4c-0.1-0.1-0.2-0.1-0.3,0.1c-0.1,0.1,0,0.1-0.1,0.2
				c-0.1,0-0.1,0-0.2-0.1c0-0.1,0-0.1,0.1-0.2c0.1-0.1,0.4-0.1,0.6-0.2c0.2-0.1,0.4-0.3,0.7-0.7c0.2-0.3,0.4-0.9,0.4-1.2
				c0.1-0.4,0.1-1.1,0.1-1.3c0-0.2,0-0.1,0-0.1c0-1.1-0.2-2.2-0.5-2.9c-0.1-0.2-0.2-0.2-0.2,0.1c0,0.6,0,1.1-0.2,1.7
				c-0.1,0.4-0.4,1.2-0.4,1.2l-0.5,1.2c0,0.1-0.6,0.8-0.4,1.8c0,0.1,0.1,0.2,0.1,0.2c0.1,0.1,0.1,0.1,0.1,0.1l-0.1,0.2
				c-0.1,0.1-0.4-0.8-0.4-0.9c-0.2-0.5-0.4-1.1-0.4-1.1c-0.1-0.2-0.3-0.8-0.2-0.9c0,0,0.1-0.2,0.1-0.3c0,0,0-0.1,0.1-0.1h-0.2h0.2
				c0,0,0.2-0.7,0.3-0.9c0.1-0.3,0.3-0.9,0.6-1.4c0-0.1,0.2-0.2,0.2-0.2c0.6-0.4,0.8-0.8,0.9-1.1c0.4-0.7,0.4-1.2,0.6-1.5
				c0.1-0.4,0.1-1.9,0.1-2.1c0-0.1-0.1-0.7-0.1-0.9c0,0,0,0,0-0.1c0-0.5,0-0.7,0.1-1.2c0.1-0.4,0.2-1.5,0.2-1.6s0.2-1,0.2-1.1
				c0,0.1,0.1-0.2,0.1-0.2c0-0.1,0.1-0.3,0.1-0.4c0-0.1-0.1,0.1-0.2,0.1c-0.1,0.1-0.3,0.3-0.3,0.4h0.3h-0.3
				c-0.1,0.1-0.3,0.4-0.4,0.6c-0.4,0.6-0.7,1.2-0.9,1.5c-0.2,0.2-0.3,0.4-0.3,0.5c-0.1,0.1-0.2,0.6-0.3,0.8
				c-0.1,0.2-0.2,0.7-0.2,0.7c-0.1,0.2-0.2,0.7-0.3,0.8c-0.1,0.3-0.3,0.9-0.3,1c-0.1,0.4-0.2,1.3-0.1,2.2c0.1,0.8,0.3,1.5,0.3,1.5
				c0,0,0,0.5,0.1,0.4c-0.1,0.1-0.1,0.3-0.2,0.6c-0.1,0.2-0.3,0.8-0.4,1.1c-0.1,0.3-0.2,0.5-0.2,0.7c0,0,0,0.1-0.1,0.1l-0.1-0.1H9.1
				v0.1c0.1,0.3,0.4,1.1,0.4,1.1c0.1,0.1,0.3,0.5,0.3,0.6c0,0,0.2,0.5,0.2,0.5c0.1,0.2,0.2,0.4,0.2,0.6c0,0,0.4,0.8,0.4,0.9l0.1,0.3
				c0.1,0.2,0.3,0.6,0.3,0.6c-0.1,0-0.5-0.1-0.9-0.4c-0.1-0.1-0.1-0.1-0.1-0.2c0-0.1-0.1-0.4-0.1-0.7c-0.1-0.3-0.3-1.1-0.3-1.2
				c-0.2-0.6-0.4-1.2-0.8-2.2c0,0-0.4-1.1-0.6-1.3C8,40,7.6,39.3,7.3,38.8c-0.3-0.4-0.9-1-1.3-1.2c-0.4-0.3-1.4-0.9-1.7-1.1
				c-0.4-0.2-1-0.4-1.6-0.5C2.5,35.9,2.2,36,2,36c-0.1,0.1-0.1,0.1,0,0.2s0.9,0.6,1.2,0.9c0.4,0.4,0.7,0.7,0.9,1.2s0.6,1.7,0.8,2
				c0.2,0.3,0.5,1.2,0.5,1.3c0,0,0.4,1,0.6,1.2c0.1,0.2,0.4,0.9,1,1.6c0.6,0.7,1,1.1,1.3,1.3c0.3,0.2,0.8,0.4,0.9,0.5
				c0.3,0.2,0.4,0.1,0.6,0.1c0,0,0.1,0.1,0.1,0.1c0,0.1,0.2,0.2,0.2,0.2l0.2,0.1h1.1h-1.1c0.6,0.3,0.8,0.3,1.1,0.3
				c0,0,0.2,0.1,0.3,0.3c0.1,0.2,0.6,0.9,0.7,1.2c0.1,0.2,0.3,0.6,0.5,0.8c0.2,0.3,0.4,0.7,0.4,0.8c0.1,0.1,0,0.1,0.1,0.1l0,0
				c-0.1,0-0.1,0-0.2,0H8.5c0.1,0.1,0.4,0.4,0.8,0.6c0.4,0.2,0.8,0.2,0.9,0.2c0.2,0.1,0.8,0,1.2-0.1c0.3-0.1,0.5-0.2,0.7-0.3
				c0.1-0.1,0.1-0.1,0.2-0.1c0.1-0.1,0.9,0.2,1.2,0.2c0,0-0.2,0-0.3,0.1c-0.1,0.1-0.1,0.1-0.2,0.1c0,0-0.1,0.1-0.1,0.2
				c-0.1,0-0.2-0.1-0.3,0c-0.1,0.1-0.2,0.1-0.2,0.2c-0.1,0.1-0.1,0.4,0.1,0.5c0.1,0.1,0.1,0.1,0.2,0.1c0,0.1-0.1,0.2-0.1,0.3
				c0,0-0.1,0.2,0.2,0.3c0,0-0.2,0.2-0.1,0.4c0,0,0,0,0,0.1c-0.2-0.1-0.4-0.2-1.5-0.4c-0.4-0.1-1.1-0.2-1.6-0.5
				c-0.4-0.2-0.9-0.6-1-0.7c-0.1-0.1-0.1,0-0.2,0.1c-0.1,0.1,0,0.3,0.1,0.4c0.1,0.2,0.4,0.6,0.6,0.9c0.3,0.3,1,1.1,1.1,1.1l0,0H15
				c-0.3-0.2-0.7-0.3-0.7-0.4c-0.1-0.1-1-0.4-1-0.4c0.1,0,0.1,0,0.1,0c0.1,0,0.2-0.1,0.2-0.1c0.2,0.1,0.3,0.1,0.5-0.1
				c0.2-0.1,0.2-0.2,0.2-0.4c0.3-0.1,0.4-0.2,0.4-0.6c0.2,0.1,0.4,0.4,0.5,0.5c0.1,0.1,0.5,0.6,0.6,0.7c0.1,0.1,0.2,0.3,0.3,0.4
				c0,0,0.1,0.1,0.2,0.2L17.1,53.6L17.1,53.6 M12.8,46.5L12.8,46.5c-0.1,0.1-0.1,0.1-0.2,0.2c-0.1,0.1-0.3-0.1-0.4-0.2l0,0l0,0
				c-0.1-0.1,0.1-0.3,0.1-0.3c0.1-0.1,0.2-0.1,0.4,0c0,0,0,0.1,0.1,0.2C12.8,46.4,12.8,46.4,12.8,46.5z M13.5,45.8v0.1
				c0,0.1-0.1,0.2-0.1,0.2s-0.2,0.1-0.3,0.1L13,46.2c-0.1-0.1-0.1-0.1-0.1-0.2c0-0.2,0.2-0.1,0.3-0.2C13.3,45.7,13.3,45.7,13.5,45.8
				z M13,45.3c0.1-0.1,0.1-0.1,0.2,0c0.1,0.1,0.1,0.2,0.1,0.2c0,0.1-0.3,0.2-0.3,0.1C12.8,45.4,12.9,45.4,13,45.3z M11.4,45.7
				c-0.1-0.1-0.1-0.2-0.1-0.3c0.1-0.1,0.1-0.1,0.2-0.1c0.2,0,0.4,0,0.4,0.2c0.1,0.2-0.1,0.4-0.2,0.4C11.7,45.9,11.5,45.9,11.4,45.7z
				 M12,46.5L12,46.5h-0.2l-0.1-0.1c-0.1-0.1-0.1-0.2,0-0.2c0.1-0.1,0,0,0.1-0.1c0.2-0.1,0.2,0.1,0.2,0.1C12.1,46.4,12,46.5,12,46.5
				z M12.1,45.2c-0.1,0.1-0.2,0-0.2-0.1c-0.1-0.1,0.1-0.1,0.1-0.1h0.1C12,45.1,12.1,45.1,12.1,45.2z M12.2,45
				c0.1-0.1,0.1-0.1,0.2-0.2h0.1c0.3,0,0.3,0.1,0.3,0.2l-0.2,0.4c-0.2,0.2-0.3-0.1-0.3-0.2C12.2,45,12.2,45,12.2,45z M14.1,50.9
				c0,0.1-0.1,0.1-0.1,0.1c-0.1,0-0.1,0-0.2,0c0-0.1-0.1-0.2-0.1-0.2l-0.1-0.1C13.9,50.7,14,50.8,14.1,50.9z M12.8,51.4
				c-0.1,0-0.2,0-0.2-0.1c-0.1-0.2,0.1-0.3,0.2-0.3c0.1,0,0.1,0,0.1,0.1c0.1,0.1,0,0.2,0,0.2C12.9,51.4,12.8,51.4,12.8,51.4z
				 M12.8,52c0-0.2,0.1-0.2,0.1-0.2c0.1-0.1,0.2,0,0.2,0.1c0.1,0.1,0,0.2,0,0.2c-0.1,0.1-0.1,0.1-0.2,0.1C12.8,52.1,12.8,52,12.8,52
				z M13.4,52.3c0.1,0.1,0.1,0.2,0.1,0.3c0,0.1-0.1,0.1-0.2,0.2c-0.2,0.1-0.3,0-0.3-0.2c0-0.1,0.1-0.3,0.2-0.3 M13.5,51.4
				c-0.1,0-0.2,0-0.3-0.1c-0.1-0.1-0.1-0.2-0.1-0.2s0-0.1,0.1-0.2c0.1-0.1,0.2-0.2,0.4,0c0.2,0.1,0.1,0.1,0.1,0.1
				C13.7,51.1,13.6,51.3,13.5,51.4z M13.9,52.6c-0.1,0-0.2,0.1-0.3,0c-0.1-0.1-0.1-0.1-0.1-0.2c0-0.1,0.1-0.2,0.2-0.2
				c0.3-0.1,0.4,0.3,0.4,0.2C14.1,52.6,14,52.6,13.9,52.6z M13.8,51.5c0-0.1,0.1-0.3,0.1-0.3c0.2-0.1,0.3-0.1,0.4,0.1
				c0.2,0.2,0,0.4-0.2,0.4C14.1,51.7,13.8,51.7,13.8,51.5z M14.4,52.1c-0.2,0.1-0.2,0-0.2-0.1c0-0.1,0-0.1,0-0.1
				c0.1-0.1,0.1-0.1,0.2-0.1c0.1,0,0.1,0,0.2,0.1C14.5,52,14.5,52.1,14.4,52.1z"/>
		</g>
	</g>
</g>
<path class="st0" d="M13.7,46L13.7,46L13.7,46"/>
<path class="st0" d="M15.6,45.7c-0.1-0.2-0.4-0.7-0.6-0.9c-0.2-0.2-0.5-0.6-0.7-0.7c-0.2-0.2-0.6-0.4-0.7-0.4
	c-0.1-0.1-0.1-0.1-0.1-0.1c-0.1,0-0.1-0.1-0.1,0.1c0,0.1,0.1,0.2,0.2,0.3c0.1,0.2,0.2,0.3,0.3,0.5c0.1,0.2,0.3,0.7,0.3,1.1
	c0.1,0.4,0.1,0.6,0.1,0.7h1.5l0,0C15.9,46.3,15.7,45.9,15.6,45.7"/>
<path class="st0" d="M63.1,41.4c0-0.1-0.1-1-0.1-1.5c-0.1-0.4-0.2-0.9-0.2-1.2c-0.1-0.2-0.4-0.9-0.4-1c-0.1-0.1-0.2-0.3-0.3,0
	c-0.1,0.3,0.2,1.1,0.1,1.8c-0.1,0.7-0.8,1.8-0.8,1.8h1L63.1,41.4"/>
<path class="st0" d="M63.2,26c0.1,0.2-0.2,0.4,0,0.6c0.1,0.2,0.2,0.3,0.4,0.3c0,0.5,0.1,0.4,0.5,0.5c0,0.1,0,0.1-0.1,0.2
	c0,0,0,0.2,0,0.2c-0.1-0.1-0.6-0.4-0.8-0.6c-0.2-0.1-0.6-0.6-0.8-0.7c-0.1-0.1-0.1-0.7-0.1-0.9c-0.1-0.3-0.2-0.4-0.2-0.6l0,0
	c-0.6-1.5-1.6-2.2-1.8-2.5c-0.4-0.4-1.1-0.9-1.2-1c-0.3-0.3-1-0.7-1.2-0.8c-0.2-0.1-0.4-0.3-0.5-0.3c-0.1-0.1-0.2,0-0.2,0.1
	c0,0.1,0.1,0.3,0.2,0.3c0.1,0.1,0.2,0.3,0.3,0.4c0.1,0.2,0.5,0.6,0.7,1.1c0.3,0.6,0.3,0.8,0.4,1.3c0.2,0.6,0.5,1.2,0.6,1.5l0,0
	c0,0.1,0.5,0.8,0.9,1.2c0.1,0.1,0.7,0.7,1.5,0.8c0.1,0,0.2,0,0.3,0c0,0.1,0.4,0.3,0.6,0.4c0.1,0.1,0.8,0.6,0.9,0.7
	c0.1,0.1,0.2,0.2,0.2,0.2c0.1,0.1,0.4,0.3,0.5,0.4c0.2,0.1,0.3,0.3,0.3,0.3c0.1,0.2,0.1,0.3,0.2,0.7c0.2,0.3,0.2,0.9,0.2,1.1
	c0,0.2-0.1,0.4-0.1,0.4c-0.1,0.4-0.1,0.9-0.1,1.4c0,0.1,0,0.3,0,0.4h1.8c0,0,0.6-0.2,0.8-0.4c0.3-0.2,0.7-0.5,0.9-0.7
	c0.2-0.3,0.4-0.5,0.8-1c0.4-0.6,0.7-1.6,0.7-2c0-0.2,0.2-1.1,0.2-1.6c-0.1-0.3-0.1-0.7,0-0.8c0-0.1,0-0.1-0.1-0.2c0,0-0.1-0.1-0.2,0
	c0,0-0.1,0.4-0.1,0.6s-0.7,1.1-0.9,1.2c-0.3,0.2-0.7,0.5-0.8,0.6l0,0c-0.2,0.2-0.7,0.6-1.1,1c-0.3,0.4-0.7,1-0.8,1.3
	c-0.1,0.3-0.5,1.2-0.5,1.2h-0.1c0-0.5,0.1-1.5,0.2-1.7s0.1-0.6,0.1-0.8c0.1,0,0.2-0.2,0.3-0.3c0.1-0.1,0.2-0.2,0.3-0.4
	c0,0,0.3-0.3,0.3-0.3c0.2-0.3,0.4-0.7,0.5-0.8c0.1-0.1,0.4-0.1,0.9-0.3c0.1-0.1,0.5-0.4,0.7-0.7c0.2-0.4,0.4-1.1,0.4-2.3l0,0l0,0
	c0-0.8-0.2-1.3-0.2-1.5c0-0.2-0.3-1-0.5-1.1c-0.1-0.1-0.1-0.1-0.2,0.1c-0.1,0.2,0,0.8-0.2,1.2c-0.2,0.3-0.3,0.6-0.5,0.8
	S67.3,25,67.3,25l0,0c-0.2,0.3-0.7,0.9-0.7,1.6c-0.1,0.7,0.1,1.3,0.1,1.3c0,0.1,0,0.4-0.1,0.5c-0.1,0-0.5,0.7-0.5,0.7l0,0
	c-0.1,0.1-0.2,0.2-0.2,0.3c-0.1,0.1-0.1,0-0.1,0c0-0.1-0.1-0.2-0.1-0.3c0-0.1,0.1-1.5,0.2-1.6c0.1-0.2,0.3-1.1,0.3-1.2
	c0.1-0.1,0.1-0.2,0.2-0.3s0.2-0.9,0.2-1c0-0.1,0.1-0.9,0.1-1.7c0-0.8-0.1-1.3-0.3-1.7c-0.1-0.4-0.3-0.8-0.5-1.1
	c-0.2-0.3-0.6-0.8-0.8-1.1c-0.2-0.3-0.4-0.4-0.7-0.9c-0.2-0.4-0.3-1.4-0.4-1.7c-0.1-1.4,0.2-2.2,0.2-2.4c0.1-0.2,0.1-0.3-0.1-0.3
	c-0.3-0.1-0.6,0.4-0.7,0.6c-0.1,0.2-0.2,0.4-0.3,0.7c-0.2,0.4-0.4,1.3-0.4,1.3c0,0-0.4,1.4-0.2,3.2s1.1,3.3,1.3,3.8s0.6,0.9,0.8,1.2
	l0,0c0.1,0.1,0.5,0.7,0.5,0.7c-0.1,0-0.3,0-0.4,0c0-0.1,0-0.1,0-0.2c0,0-0.1-0.3-0.1-0.3c-0.2-0.2-0.2-0.3-0.4-0.2
	c-0.1,0-0.2,0-0.2,0.1c-0.1,0.1-0.1,0.2-0.2,0.2c-0.1,0-0.1,0-0.1,0c-0.1,0.1-0.1,0.2-0.1,0.2c-0.1-0.2-0.2-0.3-0.3-0.5h-0.6
	c0,0,0.2,0.3,0.2,0.3C62.8,25.4,63.1,25.9,63.2,26 M64.1,27.1c0,0.1-0.2,0.2-0.3,0.1c-0.1-0.1-0.1,0-0.1,0c-0.1-0.1-0.1-0.2,0-0.2
	c0.1-0.1,0-0.1,0.1-0.1c0.1,0,0.2-0.1,0.2,0C64.1,27,64.1,27,64.1,27.1z M64.2,27.3c0-0.1-0.1-0.1-0.1-0.2s0.1-0.2,0.1-0.2
	c0.1,0,0.1-0.1,0.2,0.1c0.1,0.1,0.1,0.2,0,0.3C64.4,27.4,64.3,27.4,64.2,27.3z M65.1,26.8l-0.1-0.1c0-0.1,0.1-0.3,0.1-0.3
	c0-0.1,0-0.2,0-0.3c0.2,0.1,0.3,0.1,0.3,0.2c0.1,0.2,0,0.4-0.1,0.7c0,0.1-0.2,1.1-0.2,1c0,0.2,0,0.3-0.1,0.3c0,0-0.1,0.1-0.2,0.1
	c-0.1-0.1-0.3-0.2-0.3-0.3c-0.1-0.1-0.2-0.3-0.2-0.5c0.2-0.2,0.2-0.2,0.2-0.3c0.1,0.1,0.3,0,0.3-0.1C65.1,27.1,65.2,27,65.1,26.8z
	 M64.6,26.7c0.2,0,0.3-0.1,0.3,0.1c0.1,0.1,0.1,0.2-0.1,0.3c-0.1,0.1-0.2,0-0.2-0.1c0-0.1-0.1-0.1-0.1-0.1
	C64.5,26.8,64.5,26.8,64.6,26.7z M64.7,25.9c0.1,0,0.2,0,0.2,0.1c0.1,0.1,0,0.4-0.2,0.5c-0.2,0.1-0.2,0.1-0.3,0
	c0-0.1-0.1-0.2-0.2-0.3c0-0.1-0.1-0.1,0.1-0.2C64.5,26,64.6,25.9,64.7,25.9z M64,25.3c0.1,0,0.2,0,0.3,0.1c0.1,0.1,0.1,0.1,0.1,0.2
	c0,0.1,0.1,0.3,0,0.4c-0.1,0-0.1,0.2-0.3,0.1c-0.1,0-0.1,0.1-0.2-0.1c-0.1-0.1,0.1-0.3-0.1-0.4C63.9,25.3,64,25.3,64,25.3z
	 M63.6,25.7c0.1,0.1,0.1,0,0.2,0.1c0.1,0.1,0,0.2-0.1,0.2s-0.2,0-0.2-0.1C63.6,25.8,63.6,25.7,63.6,25.7z M63.5,26
	c0.2,0,0.1-0.1,0.2,0c0,0,0.1,0.3,0.1,0.3c0,0.2,0.1,0.3-0.1,0.3c-0.1,0.1-0.3-0.1-0.3-0.1c-0.1,0-0.1-0.1-0.1-0.2
	C63.1,26.3,63.6,26,63.5,26z"/>
<path class="st0" d="M66,33.4c0.1,0,0.7-0.2,0.7-0.2h-1.8c0,0.4,0.1,0.8,0.2,1.1c0,0.1,0.1,0.8,0.1,1s-0.3,1.2-0.4,1.5
	s-0.2,0.7-0.3,0.7c-0.1-0.2-0.2-0.4-0.2-0.6c0.1-0.4,0.3-1.4,0.2-1.9c-0.1-0.5-0.1-0.9-0.2-1.8h-1.9c0,0.2-0.1,1.2-0.1,1.7
	c0.1,0.5,0.3,1.1,0.5,1.3c0.2,0.3,0.9,1.1,0.9,1.1c0.1,0.3,0.2,0.6,0.3,0.9c0.1,0.1-0.1,0.2-0.1,0.2c-0.1-0.1-0.3-0.1-0.5,0.1
	c-0.1,0.1-0.2,0.4-0.1,0.4c-0.1,0-0.2,0.2-0.2,0.2s0,0.3,0.1,0.4s0.1,0.2,0.2,0.2c0,0.1-0.2,0.4,0.2,0.5c0.2,0.1-0.2,0.8-0.3,1.1H64
	c0,0,0.2-0.6,0.2-0.7c0.1-0.2,0.3-0.1,0.3-0.1c0.2,0.1,0.4-0.1,0.4-0.1s0.2-0.3,0.1-0.4c0-0.2,0.2-0.3,0.2-0.3
	c0.2-0.5-0.1-0.6-0.1-0.6c-0.1-0.2,0.1-0.6-0.1-0.7c-0.2-0.1-0.2,0-0.3,0c0.1-0.2,0.1-0.5,0.1-0.5c0-0.2,0.1-0.3,0.1-0.5
	c0,0,0.1,0,0.1-0.1c0.2-0.2,0.2-0.9,0.4-1.5c0.1-0.2,0.2-0.6,0.1-0.7c-0.1-0.1-0.1-0.4,0-0.4c0-0.1,0-0.3,0.1-0.5
	C65.8,34.1,66,33.6,66,33.4 M63.7,38.7c0.1,0,0.1-0.1,0.2,0c0.1,0.1,0.1,0.1,0.1,0.2c-0.1,0.1,0,0.1-0.1,0.1
	C63.7,38.9,63.7,38.7,63.7,38.7z M63.5,39.6c0-0.1-0.1-0.3,0-0.4c0.1-0.1,0.2-0.2,0.3,0c0.1,0.1,0.2,0.1,0.2,0.2
	c0,0.1,0,0.3-0.1,0.4C63.9,39.7,63.5,39.6,63.5,39.6z M63.9,39.9c0,0.1-0.1,0.1-0.1,0.1c0,0.1-0.1,0.2-0.1,0.1
	c-0.1-0.1-0.1-0.2-0.1-0.2C63.7,39.9,63.7,39.8,63.9,39.9C63.9,39.8,63.9,39.8,63.9,39.9z M64.3,40.3c-0.1,0-0.3,0.1-0.3,0.1
	c-0.1,0-0.1-0.1-0.1-0.1s-0.1-0.2,0.1-0.3c0.1-0.1,0.3,0,0.3,0.1S64.4,40.3,64.3,40.3z M64.6,38.9c-0.1,0.1-0.4,0.2-0.5,0
	c-0.1-0.2,0-0.3,0-0.3c0.1-0.2,0.2-0.2,0.2-0.2c0.1,0,0.1,0,0.2,0s0.2,0.1,0.2,0.2C64.7,38.7,64.7,38.9,64.6,38.9z M65,40.2
	c0,0.1-0.1,0.1-0.1,0.2c-0.1,0-0.2,0-0.2-0.1c-0.1-0.1,0.1-0.2,0.1-0.2c0.1,0,0.1-0.1,0.2-0.1C65.1,40.1,65,40.2,65,40.2z
	 M65.2,39.8c-0.1,0.1-0.2,0.1-0.2,0.1s-0.1-0.4-0.1-0.5c0.2,0,0.3,0.1,0.4,0.1C65.3,39.5,65.2,39.7,65.2,39.8z M65.1,38.7
	c0.1,0.1,0.1,0.1,0.1,0.1c0,0.1-0.1,0.3-0.1,0.3c-0.1,0.1-0.3,0.1-0.4,0.1c-0.1-0.1,0.1-0.1,0.1-0.2c0.1-0.2,0.1-0.2,0.1-0.2
	C65,38.7,65.1,38.6,65.1,38.7z"/>
<path class="st0" d="M63.6,30.3c0-0.1-0.6-1.2-0.6-1.2c0-0.1-0.2-0.4-0.4-0.6c-0.1-0.1-0.2-0.3-0.3-0.4c-0.1-0.1-0.2-0.1-0.2-0.1
	c0,0-0.1,0-0.1,0.1c0,0.4,0.2,0.9,0.2,0.9s0.2,1.2,0.2,1.2c0,0.2,0.1,0.7,0.1,0.8c0,0-0.1,1.8-0.1,2.1h1.9c0-0.1-0.4-1.7-0.4-1.7
	C63.9,31.3,63.6,30.3,63.6,30.3"/>
<path class="st0" d="M69.1,32.1c-0.1-0.1-0.2,0-0.3,0c-0.3,0.1-0.6,0.4-0.7,0.4c-0.1,0.1-0.7,0.6-0.7,0.7h1.1
	c0.1-0.1,0.2-0.5,0.3-0.6c0.1-0.2,0.2-0.2,0.3-0.3C69.3,32.2,69.1,32.1,69.1,32.1"/>
<path class="st0" d="M8.6,23.3c-0.1-0.4,0-1.7-0.1-2c0-0.1-0.1-0.1-0.2,0L8,22.3c-0.2,0.4-0.4,1.2-0.4,1.2C7.4,23.9,7.3,24.4,7,25
	h1.8c0-0.1-0.1-0.6-0.1-0.6C8.7,24.1,8.7,24,8.6,23.3"/>
<polyline class="st0" points="10.1,16.9 10.1,16.9 10.1,16.9 10.1,16.9 "/>
<path class="st0" d="M29.9,9.1c-1.5-0.2-4.1,1.5-4.1,1.5c-0.1,0-0.1,0-0.2,0c0,0-0.5,0-0.7-0.1c-0.2-0.1-0.9-0.3-0.9-0.3
	c0.2-0.1,1.5-0.7,1.5-0.8c0.2,0,1.6-0.1,2.2-0.3c0.1,0,1.4-0.3,2.9-1.3c2.4-2,3.3-3.7,3.3-3.8c0,0-1.7,1-3,1.3
	c-1.3,0.1-3.1,0.7-3.6,0.9s-1.1,1.1-1.2,1.2c-0.6,0.6-0.8,1.4-0.8,1.4C25.2,9,24.1,9.6,20.7,12c-0.1,0.1-0.2,0.2-0.4,0.2
	c0.1-0.3,0.3-1.1,0.5-1.2c0.2-0.1,0.3-0.1,0.5-0.2c0,0,2.3-1.2,2.9-4.2c0.7-3.3,0-3.6-0.1-3.6C23.8,5.5,22,6.7,21.9,7
	c-0.1,0-1.9,1.8-2,3.2c0.3,0.7,0.1,1.1,0.2,1.1c-0.1,0.2-0.1,0.3-0.3,1.3c-0.1,0.6-3.1,3.9-3.6,4.4C16.1,17,16.1,17,16.1,17V17h-0.2
	h0.2c-0.1-0.3-0.1-1.2,0.6-1.4c1.4-1.3,1.5-2.2,1.5-2.2c0.1-0.2,0.3-1.1,0.5-2.2c0.5-2.3,1.3-3.5,1.2-3.9c-0.1,0-0.1,0-0.2,0
	c0,0-2.8,3.5-2.8,3.6c-2.3,3.3-1.3,4.9-1.3,5l0.1,0.2c0,0.1,0,0.2,0,0.2c0,0,0,0.3,0,0.7c0,0.5,0,1,0,1.1c-0.1,0.1-2,2.1-2,2.1
	c0.8-1.1,1.2-2.1,1.3-3.1c0.4-2.4-0.6-4.2-0.6-4.4c-1.1-2.1-2.5-2.5-2.5-2.5c-0.1,0-0.3-0.1-0.2,0c1.3,1.6,1.7,4.4,1.1,5.8
	c-0.2,0.3-0.3,0.7-0.5,1.1c-0.4,1.1-0.7,2.2-0.1,3.3c0,0-0.1,0-0.1,0c-0.1,0-0.1,0-0.1,0.1c-0.1,0.1-0.1,0.1-0.1,0.2
	c0,0-0.1-0.2-0.2-0.2c-0.1,0-0.2-0.1-0.3,0L11,20.5c-0.1-0.2-0.1-0.6-0.2-0.8l-0.3-1.1c-0.2-1-0.2-1.4-0.2-1.6l0,0h-0.1h0.1
	c0.1-0.3,0.2-1.8,0.5-2.6c0.1-0.2-0.2-0.1-0.2,0c-0.4,0.3-1.2,1.3-1.5,2.5V17C9.2,17.1,9,17.5,9,18c-0.1,0.6-0.2,1.1-0.2,1.7
	s0.1,1.2,0.3,1.8c0,0,0.2,0.9,0.8,2c0.1,0.1,0.1,0.2,0.2,0.2c0.1,0.1,0.1,0.2,0.2,0.2c0,0.1,0.3,0.6,0.3,0.8c0.1,0.1,0,0.2,0.1,0.3
	c0,0.2,0,0.3,0,0.4c0,0.1,0,0.5,0,0.5c0,0.4-0.1,1.4-0.1,1.6c0,0,0,0.1-0.2,0.7c0,0-0.1,0.1-0.1,0.1c-0.1,0.1-0.1,0.2-0.1,0.2
	c0,0.1,0.1,0.2,0.1,0.2c0,0.3,0,0.6,0,0.8c0,0.4-0.1,1.5-0.2,2c-0.1,0.4-0.1,0.9-0.1,1.2c0,0.2,0,0.5-0.1,0.6
	C9.7,33.3,9.6,33,9.6,33c-0.5-0.9-0.8-1.7-0.8-1.8c0-0.2,0-0.3,0.1-0.4c0.1-0.1,0.1-0.1,0.1-0.2c0.1-0.2,0.2-0.4,0.2-0.5
	c0,0,0.2-0.5,0.2-0.7c0.1-0.3,0.1-0.3,0.1-1c0-0.8-0.3-2.9-0.3-3.1H7.4c-0.4,0.1-0.7,0.8-0.8,1.6C6.5,28,6.8,29,6.9,29.1
	c0.1,0.1,0.1,0.4,0.3,0.8c0.1,0.2,0.3,0.5,0.3,0.6c0.1,0.2,0.3,0.2,0.4,0.4c0.2,0.1,0.4,0.8,0.6,1.4c0,0,0.1,0.3,0.3,0.7
	c0,0,0.1,0.2,0.1,0.2l0,0c0.1,0.2,0.2,0.3,0.3,0.7c0.1,0.1,0.1,0.9,0,1.1L9.2,35c0-0.1,0-0.1,0-0.1s-0.1-0.1-0.1-0.1
	c-0.2,0-0.3,0.1-0.3,0s-0.1-0.2-0.1-0.2c-0.2-0.2-0.3-0.3-0.5-0.2C8,34.4,8,34.5,8,34.5c-0.2,0.1-0.3-0.1-0.4,0.1
	c-0.2,0.2-0.1,0.3-0.2,0.3c-0.2,0.1-0.2,0.3-0.2,0.4c-0.1,0-0.3-0.3-0.5-0.7c-0.2-0.3-0.4-1.2-0.4-1.5c-0.2-0.7,0.1-2.1,0.1-2.1
	c0-0.1,0.3-1.1,0.3-1.1c0-0.2-0.2,0-0.3,0.2c0,0-0.2,0.3-0.2,0.4C6,30.8,6,31,5.9,31.1c-0.1,0.2-0.1,0.3-0.2,0.6
	c-0.3,0.7-0.4,1.3-0.5,1.6c-0.2,1-0.1,2,0,2.3c0.1,0.3,0.4,0.9,0.7,1.3c0.2,0.3,0.8,0.7,0.8,0.7s1,0.5,1.6,0.6
	c0.1,0,0.3,0.2,0.4,0.4c0,0,0.1,0.1,0.2,0.2c0,0.1,0.1,0.6,0.1,0.7c0.2,0.5,0.1,1.2,0.3,1.7c0,0.1,0,0.2,0,0.2h0.7
	c-0.1-0.1-0.3-0.6-0.3-0.7c-0.1-0.4-0.1-1.3-0.1-1.8c0-0.2,0-0.6,0-0.6c0-0.1-0.1-0.1-0.1-0.2c0-0.3,0-0.5,0-0.8
	c0-0.6,0.2-0.9,0.3-1.3c0.1-0.2,0.1-0.4,0.1-0.6c0,0,0.1-0.5,0.1-0.8c0,0,0.1-0.5,0.2-0.7c0,0,0.2-0.6,0.2-0.7s0.1-0.3,0.1-0.3
	c0-0.1,0-0.6,0.1-0.7c0.1-0.1,0.1-0.2,0.1-0.3c0-0.1-0.1-0.2-0.1-0.2c0-0.2,0-1.1,0-1.5c0-0.4,0-0.7,0-1.1l0,0c0-0.2,0-0.3,0-0.5
	c0,0,0.1-0.2,0.1-0.2c0.1-0.1,0.1-0.1,0.2-0.2c0.1,0,0.1-0.1,0.1-0.2c0.1,0,0.4-0.4,0.5-0.5c1.1,0,1.9-0.3,2.6-0.8
	c0.2-0.2,0.5-0.5,0.7-0.8c0.3-0.4,0.6-0.7,0.7-0.9l0,0c0.2-0.3,0.3-0.6,0.4-0.7c0.1-0.1,0.5-0.8,0.5-0.8c0-0.1,0.5-0.7,0.5-0.8
	c0.1-0.2,0.1-0.1,0.2-0.3c0.2-0.2,0.2-0.3,0.2-0.3c0.1-0.1,0-0.1,0-0.1c-0.1,0-0.2,0.1-0.3,0.2c-0.1,0-0.2,0.1-0.3,0.2
	c-0.1,0.1-0.3,0.2-0.4,0.2c-0.2,0.1-0.4,0.2-0.5,0.3c0,0-0.4,0.2-1,0.6c-0.2,0.1-0.7,0.5-0.8,0.6c-0.1,0.1-0.8,0.7-0.9,0.8l0,0
	c-0.1,0.1-0.2,0.2-0.3,0.3c0,0-0.3,0.3-0.3,0.4c-0.4,0.1-0.6,0.3-1.1,1.1c-0.1,0.1-0.1,0.2-0.2,0.3c0,0-0.1,0-0.1,0
	c0-0.3,0.1-0.6,0.2-0.8c0-0.2,0.1-1.1,0.1-1.3l0,0l0,0c0-0.1,0-0.2,0-0.2c0-0.2,0.1-0.4,0.2-0.4c0.1-0.1,0.2-0.4,0.3-0.7
	c0-0.1,0.2-0.1,0.2-0.1c0.1-0.1,4.5-2.6,4.6-2.6c0.1,0,3.5-1.1,4.4-4l0,0c0.1-0.2,0.1-0.4,0.1-0.7c-0.2-0.8,1.3-3.2,1.4-3.3
	c-0.1-0.1,0,0-0.1-0.1c-0.1,0-2,1.4-3.9,3.2c0,0-0.3,0.3-0.7,0.8l0,0c-0.6,0.9-1.6,2.3-1.7,3.5c-0.1,0-2.3,1.8-3.2,1.9
	c-0.1-0.6,2.6-3.3,2.6-3.4c0.1-0.1,0.8-1.1,1.5-2c0.7-0.9,1.4-1.8,1.5-1.8c1.7-2.1,4.1-3.7,5-4.2c1.2,0.3,1.5,0.3,1.5,0.3
	c0.6,0.1,1,0.1,1.4,0.1c0.4,0.1,0.9,0.2,1.4,0.3c2.8,0.6,4.1-0.3,4.1-0.3c0.1,0,4.2-2.8,4.2-3C35.8,8.2,33.9,9.2,29.9,9.1 M8.8,35.1
	c0.1,0,0.1-0.1,0.2,0.1c0.1,0.1,0,0.1-0.1,0.2c-0.1,0-0.1,0.1-0.2,0C8.7,35.2,8.8,35.1,8.8,35.1z M8.2,34.6L8.2,34.6
	c0.1-0.1,0.3-0.1,0.3,0c0.1,0.1,0,0.1,0,0.1c0.1,0.1,0.1,0.3-0.1,0.4C8.3,35.1,8,35.1,8,35C8,34.7,8.1,34.7,8.2,34.6z M7.7,34.8
	c0.1-0.1,0.1,0,0.2,0c0,0,0.1,0,0.1,0.1c0-0.1,0.1,0.1-0.1,0.2c-0.1,0-0.1,0-0.2-0.1c0-0.1,0,0-0.1-0.1C7.5,34.8,7.6,34.8,7.7,34.8z
	 M7.3,35.6c-0.1-0.1-0.1-0.1-0.1-0.2c0-0.2,0.1-0.2,0.1-0.3c0.1-0.1,0.2-0.1,0.3,0l0.1,0.1c0.1,0.1,0.1,0.1,0.1,0.2
	c0,0.2,0,0.2-0.1,0.2C7.5,35.8,7.4,35.6,7.3,35.6z M8,36.3c-0.2-0.1-0.3-0.2-0.3-0.2c0-0.1,0.1-0.2,0.1-0.2C8,35.9,8,35.9,8.2,36
	c0.1,0.1,0.1,0.2,0,0.3C8.1,36.3,8,36.3,8,36.3z M9,36.9c-0.1,0.1-0.1,0.2-0.1,0.4c0,0-0.1,0.2-0.1,0.3c-0.1,0.1-0.1,0.2-0.1,0.3
	c-0.1-0.1-0.1-0.1-0.2-0.1c0-0.5-0.1-0.7-0.1-0.8s-0.3-0.5-0.2-0.4c0.1,0,0.1,0,0.2-0.1c0,0,0.1,0.1,0.2,0.1c0,0,0.1-0.1,0.1-0.1
	c0.1,0,0.1,0,0.1-0.1c0.1-0.2,0-0.3,0-0.2c0.1,0.1,0.1,0,0.3,0C9.1,36.5,9,36.6,9,36.9z M9,35.9C9,36,8.9,36,8.9,36
	c-0.1,0-0.1-0.1-0.2-0.2c-0.1-0.1,0-0.2,0.1-0.2c0.1-0.1,0.1,0,0.2,0C9,35.6,9,35.6,9,35.8C9.2,35.8,9.1,35.9,9,35.9z M11.8,20.5
	c0.3,0,0.2,0.2,0.2,0.2c-0.1,0.2,0,0.1-0.2,0.2c-0.2,0.1-0.2-0.1-0.2-0.2C11.7,20.6,11.7,20.5,11.8,20.5z M11.4,20.5
	C11.4,20.5,11.4,20.5,11.4,20.5z M10.9,20.6c0.1-0.2,0.2-0.3,0.3-0.3c0.1,0,0.2,0.1,0.3,0.2l0,0c0,0.1,0,0.1,0,0.1
	c0.1,0.3-0.2,0.3-0.3,0.3C11.1,20.9,10.8,20.9,10.9,20.6z M11.3,21.3C11.3,21.3,11.3,21.3,11.3,21.3c0,0.1-0.1,0.1-0.2,0.2
	s-0.1,0.1-0.2-0.1c-0.1-0.2,0-0.3,0.1-0.3C11.1,21.1,11.3,21.2,11.3,21.3z M11.3,21.3L11.3,21.3z M11.4,22.7L11,23.2
	c-0.1,0.3-0.2,0.6-0.3,0.8c-0.1,0.1-0.3-0.5-0.3-0.5c0-0.1,0-0.2,0.1-0.3c0.1,0,0.1,0,0.1-0.1c0.1-0.1,0.1-0.2,0.1-0.3
	c-0.1,0.1,0.2-1,0.3-1.1c0.2-0.1,0.3,0.5,0.6,0.5C11.6,22.4,11.5,22.6,11.4,22.7z M11.8,22.2c-0.2,0-0.5-0.3-0.4-0.5
	c0.1-0.2,0.3-0.3,0.4-0.4c0.1-0.1,0.3,0.1,0.3,0.2v-0.1c0-0.1,0,0,0,0v0.1c0,0.1,0.1,0.1,0.1,0.1C12.1,22.1,12,22.2,11.8,22.2z
	 M12.2,21.4C12,21.3,12,21.2,12,21.1c0-0.1,0.1-0.2,0.2-0.3c0.3-0.3,0.3,0.2,0.3,0.2C12.5,21.2,12.3,21.5,12.2,21.4z"/>
<path class="st0" d="M11.4,20.5C11.4,20.5,11.4,20.5,11.4,20.5"/>
<path class="st0" d="M11.3,21.3L11.3,21.3"/>
<path class="st0" d="M12,21.6L12,21.6C12,21.5,12,21.6,12,21.6"/>
<path class="st0" d="M12,21.7L12,21.7L12,21.7"/>
<path class="st0" d="M12,21.5C12,21.5,12,21.5,12,21.5"/>
<polyline class="st0" points="16.6,54.2 16.6,54.2 16.6,54.2 "/>
<path class="st0" d="M16,53.4L16,53.4C16,53.4,16,53.4,16,53.4"/>
<path class="st0" d="M38.2,62.3L38.2,62.3C38.1,62.4,38.1,62.3,38.2,62.3"/>
<path class="st0" d="M33.3,50.5v-0.2c0.4,0,0.5-0.1,0.5-0.3v-1.5c0-0.2-0.1-0.2-0.4-0.2v-0.2c0.4,0,0.5-0.1,0.7-0.2h0.2V50
	c0,0.2,0.1,0.3,0.5,0.3v0.2H33.3"/>
<path class="st0" d="M36,48c0.6,0,0.9,0.6,0.9,1.2c0,0.7-0.3,1.4-1.2,1.4c-0.3,0-0.6-0.2-0.6-0.4c0-0.2,0.1-0.3,0.3-0.3
	c0.1,0,0.3,0.1,0.3,0.2c0,0.2-0.1,0.3-0.3,0.3l0,0c0.1,0.1,0.2,0.1,0.3,0.1c0.4,0,0.6-0.3,0.6-0.7v-0.3l0,0c0,0.1-0.2,0.2-0.3,0.2
	c-0.4,0-0.7-0.3-0.7-0.8S35.5,48,36,48 M36,49.4c0.2,0,0.3-0.2,0.3-0.6c0-0.6-0.1-0.8-0.3-0.8c-0.2,0-0.3,0.2-0.3,0.6
	C35.8,49.3,35.9,49.4,36,49.4z"/>
<path class="st0" d="M37.7,50.5v-0.2c0.3,0,0.4-0.1,0.4-0.3v-0.2h-0.9v-0.2l1.2-1.7h0.3v1.7H39v0.2h-0.4v0.2c0,0.2,0.1,0.3,0.3,0.3
	v0.2L37.7,50.5 M38.1,49.7v-1l0,0l-0.7,1H38.1z"/>
<path class="st0" d="M40.1,48c0.6,0,0.9,0.6,0.9,1.2c0,0.7-0.3,1.4-1.2,1.4c-0.3,0-0.6-0.2-0.6-0.4c0-0.2,0.1-0.3,0.3-0.3
	c0.1,0,0.3,0.1,0.3,0.2c0,0.2-0.1,0.3-0.3,0.3l0,0c0.1,0.1,0.2,0.1,0.3,0.1c0.4,0,0.6-0.3,0.6-0.7v-0.3l0,0
	c-0.1,0.1-0.3,0.2-0.4,0.2c-0.4,0-0.7-0.3-0.7-0.8C39.3,48.4,39.6,48,40.1,48 M40.1,49.4c0.2,0,0.3-0.2,0.3-0.6
	c0-0.6-0.1-0.8-0.3-0.8c-0.2,0-0.3,0.2-0.3,0.6C39.9,49.3,40,49.4,40.1,49.4z"/>
<path class="st0" d="M48.3,35.6c-3.6,0-7.1,0-10.7,0h-0.1c0,2.5,0,10.5,0,10.5c0,0.5,0.2,0.7,0.9,0.7c0.8,0,2.2,0,3.1,0
	c0.2,0,0.8,0,0.9,0.1c0.1,0.1,0.3,0.3,0.4,0.8l0.1,0.1c0,0,0.1,0,0.1-0.1c0.1-0.5,0.2-0.7,0.3-0.8c0.2-0.1,0.2-0.1,1.2-0.1
	s3,0,3.1,0c0.4,0,0.7-0.3,0.7-0.7c0-0.3,0-0.6,0-0.9C48.3,44.5,48.3,38.1,48.3,35.6 M47.7,46.1c0,0.1-0.1,0.2-0.2,0.2
	c-1.3,0-2.8,0-4.2,0c-0.3,0.1-0.4,0.3-0.4,0.3s-0.2-0.3-0.6-0.3h-0.7c-0.7,0-3.3,0-3.3,0c-0.3,0-0.2-0.2-0.2-0.2c0-3.3,0-6.6,0-10
	c3.2,0,6.5,0,9.7,0C47.7,39.5,47.7,42.8,47.7,46.1z"/>
<path class="st0" d="M41.6,43.7c0.3,0,0.9,0.3,1.1,0.6c0.2,0.2,0.2,0.2,0.2,0.2s0,0.1,0.2-0.2c0.2-0.3,0.8-0.6,1.1-0.6
	s0.9,0.1,1.5,0.2c0.5,0.1,1,0.2,1,0.2v-5.9c-0.6,0.3-1.7-0.6-2.5-0.7c-0.7-0.2-1.3,0.4-1.3,0.4l0,0c0,0-0.6-0.6-1.3-0.4
	c-0.7,0.2-1.8,1-2.5,0.7v5.9c0,0,0.6,0,1-0.2C40.6,43.8,41.3,43.7,41.6,43.7"/>
<path class="st0" d="M36.7,35.6c-3.6,0-7.1,0-10.7,0H26c0,2.5,0,10.5,0,10.5c0,0.5,0.2,0.7,0.9,0.7c0.8,0,2.2,0,3.1,0
	c0.2,0,0.8,0,0.9,0.1c0.1,0.1,0.3,0.3,0.4,0.8l0.1,0.1c0,0,0.1,0,0.1-0.1c0.1-0.5,0.2-0.7,0.3-0.8c0.2-0.1,0.2-0.1,1.2-0.1
	s3,0,3.1,0c0.4,0,0.7-0.3,0.7-0.7c0-0.3,0-0.6,0-0.9C36.7,44.5,36.7,38.1,36.7,35.6 M36.2,46.1c0,0.1-0.1,0.2-0.2,0.2
	c-1.3,0-2.8,0-4.2,0c-0.3,0.1-0.4,0.3-0.4,0.3s-0.2-0.3-0.6-0.3H30c-0.8,0-3.3,0-3.3,0c-0.3,0-0.2-0.2-0.2-0.2c0-0.1,0-0.1,0-0.2
	c0-3.3,0-6.5,0-9.8c3.2,0,6.4,0,9.6,0c0.1,0,0.1,0,0.1,0C36.2,39.5,36.2,42.8,36.2,46.1z"/>
<path class="st0" d="M34.4,42.6l-0.7,0.7l-0.2-0.1l-0.2,0.2l0.2,0.2l-0.7,0.8c0,0,0.4,0.6,0.9,0.7c0.6,0.2,1.2,0.1,1.4-0.1
	s0.2-0.9,0.1-1.3C34.9,43.2,34.4,42.6,34.4,42.6 M34,44l-0.6-0.4l0.1-0.1l0,0c0,0,0,0.1,0.1,0.1C33.7,43.6,33.9,43.8,34,44
	c0.1,0.1,0.2,0.1,0.2,0.1L34,44z"/>
<path class="st0" d="M31.3,40.9l-3.9-3.9l-0.2,0.2l3.9,3.9l-2.5,2.5c0,0-0.8-0.7-1.3-1.6h-0.1c0.2,1.3,0.9,1.9,0.9,1.9
	c0.1,0.1,0,0.2,0,0.3l0.1,0.1l0.1,0.1c0.1,0,0.2,0,0.3,0c0,0,0.6,0.7,1.9,0.9v-0.1c-0.9-0.5-1.7-1.4-1.7-1.4l2.5-2.5l2,1.9l0.2-0.2
	l-2-1.9l3.9-3.9l-0.2-0.2L31.3,40.9"/>
<path class="st0" d="M45.7,30.6L45.7,30.6"/>
<path class="st0" d="M48.2,23.2c-3.6,0-7.1,0-10.7,0h-0.1c0,2.5,0,10.5,0,10.5c0,0.5,0.2,0.7,0.9,0.7c0.8,0,2.2,0,3.1,0
	c0.2,0,0.8,0,0.9,0.1c0.1,0.1,0.3,0.3,0.4,0.8l0.1,0.1c0,0,0.1,0,0.1-0.1c0.1-0.5,0.2-0.7,0.3-0.8c0.2-0.1,0.2-0.1,1.2-0.1
	s3,0,3.1,0c0.4,0,0.7-0.3,0.7-0.7c0-0.3,0-0.6,0-0.9C48.2,32.1,48.2,25.7,48.2,23.2 M47.7,33.7c0,0.1-0.1,0.2-0.2,0.2
	c-1.3,0-2.8,0-4.2,0c-0.3,0.1-0.4,0.3-0.4,0.3S42.6,34,42.3,34h-0.7c-0.8,0-3.3,0-3.3,0c-0.3,0-0.2-0.2-0.2-0.2c0-3.3,0-6.6,0-10
	c3.2,0,6.5,0,9.7,0C47.7,27.1,47.7,30.4,47.7,33.7z"/>
<path class="st0" d="M38.3,27.8c0,0,0.1,0.2,0.2,0.2c0.1,0,0.6,0,0.4,0.1c-0.1,0-0.2,0.1-0.2,0.1c-0.1,0.1,0.1,0.2,0.1,0.2
	s0.1,0.1,0.4,0.1c0.1,0,0.4-0.1,0.6,0.1c0.1,0.1,0.2,0.1,0.2,0.3c0.1,0.2,0.2,0.4,0.2,0.6s-0.3,0.8-0.4,0.9
	c-0.1,0.2-0.6,0.4-0.9,0.5c-0.3,0.1-0.2,0.3-0.2,0.3s1.2,0,1.5,0c0.3,0,0.4-0.2,0.4-0.2c0.4-0.2,0.7-0.6,0.7-0.6s0.3,0,0.3,0.1
	c0.1,0.3,0.1,0.3-0.2,0.4c-0.3,0.1-0.1,0.3-0.1,0.3s1.5,0,1.6,0c0.1,0,0.3-0.1,0.1-0.3c-0.1-0.2-0.1-0.4-0.1-0.4
	c0.6,0.1,1.5-0.1,1.5-0.1c0.2,0.2-0.5,0.5-0.7,0.6c-0.3,0.1-0.1,0.3-0.1,0.3s1.2,0,1.5,0s0.3,0,0.3-0.2s0.1-0.1,0.3-0.3
	c0.1-0.1,0.1-0.1,0.1-0.1l0,0l0,0l0,0c0.2,0.2,0.2,0.3,0,0.3c-0.2,0.1-0.2,0.3-0.2,0.3s1.4,0.1,1.6,0c0.2,0,0.3-0.2,0.3-0.2
	c0.1-0.1-0.1-0.4-0.3-0.7c-0.1-0.2-0.2-0.4-0.2-0.4c-0.1-0.1-0.3-0.3-0.2-0.4c0.1-0.1,0.2-0.2,0.2-0.3c0,0,0.2-0.4,0.2-0.9
	c0-0.3-0.4-0.7-0.7-0.8c-0.2-0.1-1-0.4-1.8-0.2c-0.8,0.2-2,0.1-2.3-0.1c-0.3-0.1-0.6-0.3-0.9-0.3c-0.3,0-0.4,0-0.7-0.1
	c-0.3-0.1-0.6-0.2-0.7-0.2s-0.3-0.3-0.4-0.3s0,0.2,0,0.3c0,0.1-0.2,0.3-0.4,0.3c-0.2,0.1-0.4,0.3-0.4,0.4c-0.1,0.1-0.1,0.2-0.3,0.3
	c-0.2,0.1-0.4,0.2-0.4,0.2C38.2,27.8,38.3,27.8,38.3,27.8"/>
<path class="st0" d="M36.7,23.2c-3.6,0-7.1,0-10.7,0H26c0,2.5,0,10.5,0,10.5c0,0.5,0.2,0.7,0.9,0.7c0.8,0,2.2,0,3.1,0
	c0.2,0,0.8,0,0.9,0.1c0.2,0.1,0.3,0.3,0.4,0.8l0.1,0.1c0,0,0.1,0,0.1-0.1c0.1-0.5,0.2-0.7,0.3-0.8c0.2-0.1,0.2,0,1.2,0s3,0,3.1,0
	c0.4,0,0.7-0.3,0.7-0.7c0-0.3,0-0.6,0-0.9C36.7,32.1,36.7,25.7,36.7,23.2 M36.2,33.7c0,0.2-0.1,0.2-0.2,0.2c-1.3,0-2.8,0-4.2,0
	c-0.3,0.1-0.5,0.3-0.5,0.3S31.1,34,30.8,34H30c-0.7,0-3.3,0-3.3,0c-0.3,0-0.2-0.2-0.2-0.2c0-3.3,0-6.6,0-10c3.2,0,6.5,0,9.7,0
	C36.2,27.1,36.2,30.4,36.2,33.7z"/>
<path class="st0" d="M28.6,28.6c-0.2,0.2-0.5,0.3-0.5,0.3s0,0.2,0.7,0.4c-0.2,0.2-0.4,0.4-0.4,0.4s0.1,0.2,0.8,0.2
	c-0.1,0.4-0.3,0.6-0.3,0.6s0.2,0.2,0.8,0c0,0.3-0.2,0.6-0.2,0.6s0.2,0.2,0.8-0.2c0.1,0.3,0,0.6,0,0.6s0.2,0.1,0.7-0.4
	c0.2,0.3,0.2,0.6,0.2,0.6s0.2,0.1,0.6-0.6c0.3,0.2,0.3,0.5,0.3,0.5s0.3,0,0.4-0.7c0.3,0.1,0.4,0.4,0.4,0.4s0.2-0.1,0.2-0.8
	c0.4,0.1,0.5,0.3,0.5,0.3s0.2-0.1-0.1-0.8c0.4-0.1,0.6,0.2,0.6,0.2s0.2-0.4-0.2-0.8c0.3-0.1,0.6,0,0.6,0s0.1-0.4-0.4-0.7
	c0.3-0.2,0.6-0.2,0.6-0.2s-0.1-0.4-0.6-0.6c0.3-0.2,0.6-0.2,0.6-0.2s-0.1-0.3-0.7-0.4c0.2-0.4,0.4-0.4,0.4-0.4s-0.2-0.3-0.8-0.2
	c0.1-0.4,0.3-0.5,0.3-0.5s-0.3-0.3-0.8,0.1c0-0.4,0.2-0.6,0.2-0.6s-0.4-0.2-0.8,0.3c-0.1-0.3,0-0.6,0-0.6s-0.4-0.2-0.7,0.4
	c-0.2-0.3-0.2-0.6-0.2-0.6c-0.4,0.1-0.6,0.6-0.6,0.6c-0.3-0.3-0.3-0.6-0.3-0.6s-0.4,0.1-0.4,0.8c-0.3-0.2-0.4-0.4-0.4-0.4
	s-0.2,0.1-0.2,0.9c-0.3-0.1-0.5-0.3-0.5-0.3s-0.2,0.1,0.1,0.8c-0.3,0-0.6-0.2-0.6-0.2s-0.2,0.2,0.3,0.8c-0.3,0.1-0.6,0-0.6,0
	s-0.1,0.2,0.4,0.7c-0.3,0.2-0.6,0.1-0.6,0.1S28,28.2,28.6,28.6"/>
<path class="st0" d="M29.2,32.4c0.3,0,0.6-0.2,0.6-0.2s0.2,0.3,0.6,0.3c0.3,0,0.6-0.3,0.6-0.3s0.2,0.3,0.6,0.3
	c0.3,0,0.6-0.3,0.6-0.3s0.2,0.3,0.5,0.3s0.6-0.3,0.6-0.3s0.2,0.3,0.6,0.3c0.3,0,0.6-0.3,0.6-0.3v-0.3c0,0-0.2,0.3-0.6,0.3
	c-0.3,0-0.6-0.3-0.6-0.3s-0.2,0.3-0.6,0.3c-0.3,0-0.5-0.3-0.5-0.3s-0.2,0.3-0.6,0.3c-0.3,0-0.6-0.3-0.6-0.3s-0.2,0.3-0.6,0.3
	c-0.3,0-0.6-0.3-0.6-0.3s-0.2,0.3-0.6,0.3c-0.3,0-0.5-0.3-0.5-0.3v0.3C28.7,32.1,29,32.4,29.2,32.4"/>
<path class="st0" d="M33.5,32.7c-0.3,0-0.6-0.3-0.6-0.3s-0.2,0.3-0.6,0.3c-0.3,0-0.5-0.3-0.5-0.3s-0.2,0.3-0.6,0.3
	c-0.3,0-0.6-0.3-0.6-0.3s-0.2,0.3-0.6,0.3s-0.6-0.3-0.6-0.3s-0.2,0.3-0.6,0.3c-0.3,0-0.5-0.3-0.5-0.3v0.3c0,0,0.2,0.2,0.5,0.2
	s0.6-0.2,0.6-0.2s0.2,0.3,0.6,0.3c0.3,0,0.6-0.3,0.6-0.3S31,33,31.3,33c0.3,0,0.6-0.3,0.6-0.3s0.2,0.2,0.5,0.2s0.6-0.3,0.6-0.3
	s0.2,0.3,0.6,0.3c0.3,0,0.6-0.3,0.6-0.3v-0.3C34,32.4,33.8,32.7,33.5,32.7"/>
<path class="st0" d="M17.4,42.5l0.1,0.2c-0.6,0.6-0.8,1.1-0.6,1.6c0.3,0.6,1,0.6,2,0.2c1-0.5,1.4-1.1,1.1-1.7
	c-0.3-0.7-0.9-0.8-1.7-0.5l-0.1-0.2c0.9-0.4,1.6-0.2,2.1,0.7c0.6,1.2,0.1,2.2-0.9,2.6c-0.9,0.4-2.1,0-2.6-0.9
	c-0.2-0.4-0.2-0.8-0.2-1.1l-0.3-0.1l-0.1-0.2L17.4,42.5"/>
<path class="st0" d="M19.7,41.8l-0.2,0.1c-0.2-0.4-0.4-0.4-0.8-0.6l-3.1-0.4l-0.1-0.3l2.8-2.2c0.2-0.2,0.3-0.3,0.2-0.6l0.2-0.1
	l0.5,1.9l-0.2,0.1l-0.1-0.2c-0.1-0.3-0.2-0.3-0.3-0.3c-0.1,0-0.1,0.1-0.2,0.1l-0.6,0.4l0.3,1.2l0.4,0.1c0.1,0,0.2,0,0.3,0
	s0.2-0.2,0.2-0.4L19,40.3l0.2-0.1L19.7,41.8 M16.6,40.8l1.2,0.2l-0.2-0.9L16.6,40.8z"/>
<path class="st0" d="M18.7,38.3h-0.2c-0.1-0.4-0.1-0.5-0.4-0.5L15.5,38c-0.3,0-0.3,0.2-0.3,0.6h-0.2l-0.2-2H15
	c0.1,0.4,0.1,0.5,0.4,0.5l2.6-0.2c0.3,0,0.3-0.1,0.3-0.4c-0.1-0.6-0.7-0.9-1.3-1v-0.2l1.5-0.1L18.7,38.3"/>
<path class="st0" d="M18.4,35.2h-0.2c0-0.4-0.1-0.6-0.3-0.6l-2.6-0.1c-0.2-0.1-0.3,0.1-0.3,0.5h-0.2l0.1-2H15c0,0.4,0.1,0.6,0.3,0.6
	l2.6,0.1c0.3,0,0.4-0.1,0.4-0.5h0.2L18.4,35.2"/>
<path class="st0" d="M18.5,33.4l-0.2-0.1c0.1-0.4,0-0.6-0.3-0.6l-2.6-0.4c-0.3-0.1-0.4,0.1-0.4,0.5l-0.2-0.1l0.6-3.3l1.3,0.2
	l-0.1,0.2c-0.7,0.1-1.2,0.4-1.3,1.1c-0.1,0.3,0,0.4,0.3,0.5l1.1,0.2c0.1-0.5,0-0.7-0.4-0.9l0.1-0.2l1.5,0.3l-0.1,0.2
	c-0.6,0.1-0.7,0.2-0.8,0.7l1.2,0.2c0.3,0.1,0.4-0.1,0.4-0.5l0.2,0.1L18.5,33.4"/>
<path class="st0" d="M16,27.2c0.3-0.9,1.5-1.5,2.5-1.1c1,0.4,1.5,1.5,1.2,2.5c-0.3,0.9-1.5,1.5-2.5,1.1C16.2,29.3,15.7,28.2,16,27.2
	 M19.5,28.5c0.2-0.6-0.3-1.1-1.3-1.5c-1-0.4-1.7-0.3-1.9,0.2c-0.2,0.6,0.3,1.1,1.3,1.5C18.5,29.1,19.3,29.1,19.5,28.5z"/>
<path class="st0" d="M21.4,23.4c0.4,0.3,0.7,0.7,0.3,1.2c-0.3,0.5-0.7,0.5-1.2,0.2c-0.6-0.3-0.8-0.4-1.1,0.1l1,0.6
	c0.3,0.2,0.4,0.2,0.7-0.2l0.2,0.1l-1,1.7L20,26.9c0.2-0.3,0.2-0.5-0.1-0.7l-2.2-1.3c-0.2-0.2-0.4-0.1-0.6,0.3L17,25.1l1-1.6
	c0.5-0.8,1.1-1,1.6-0.7c0.6,0.4,0.4,1.1,0.1,1.6l0,0c0.4-0.5,0.8-0.5,1.2-0.4c0.6,0.1,0.6,0.1,0.7,0c0.1-0.1-0.1-0.3-0.3-0.4
	L21.4,23.4 M19.2,24.8c0.3-0.5,0.4-0.9-0.2-1.2c-0.4-0.2-0.8-0.2-0.9,0.1C18,23.8,18,24,18.2,24.1L19.2,24.8z"/>
<path class="st0" d="M19.1,21.6l0.9-1l3.1,0.3l0,0l0,0l-1.5-1.3c-0.2-0.2-0.3-0.2-0.7,0.2l-0.2-0.2l0.9-1.1l0.2,0.2
	c-0.2,0.3-0.2,0.4,0,0.7l2.3,2.1L23.9,22l-3.6-0.4l0,0l1.7,1.6c0.2,0.2,0.3,0.2,0.7-0.2l0.2,0.2l-1,1.1L21.8,24
	c0.3-0.3,0.3-0.4,0.1-0.7l-2-1.7c-0.2-0.2-0.3-0.2-0.7,0.2L19.1,21.6"/>
<path class="st0" d="M24.5,21.4l-0.2-0.2c0.3-0.3,0.3-0.4,0.2-0.6l-1.7-2c-0.2-0.2-0.3-0.2-0.7,0.1l-0.2-0.2l1.6-1.3l0.2,0.2
	c-0.3,0.3-0.3,0.4-0.2,0.6l1.7,2c0.2,0.2,0.3,0.2,0.7-0.1l0.2,0.2L24.5,21.4"/>
<path class="st0" d="M25.6,20.3l-0.1-0.2c0.3-0.3,0.3-0.5,0.3-1L25.2,16l0.2-0.2l2.9,2c0.2,0.2,0.4,0.2,0.6,0.1l0.1,0.2l-1.7,1.1
	L27.3,19l0.2-0.1c0.2-0.2,0.2-0.2,0.2-0.3c-0.1-0.1-0.1-0.1-0.2-0.2L26.9,18l-1,0.6L26,19c0,0.1,0.1,0.2,0.1,0.3
	c0.1,0.1,0.2,0.2,0.4,0.1l0.2-0.2l0.1,0.2L25.6,20.3 M25.7,17.1l0.2,1.2l0.8-0.5L25.7,17.1z"/>
<path class="st0" d="M30.5,16.1l0.2-0.1c0.3,0.6,0.8,1.1,1.5,0.9c0.3-0.1,0.6-0.4,0.5-0.8c-0.2-0.8-2.2,0.1-2.5-1.2
	c-0.2-0.7,0.3-1.3,0.9-1.5c0.6-0.2,0.8,0.1,1,0.1c0.1,0,0.1-0.2,0.2-0.3l0.2-0.1l0.3,1.2l-0.2,0.1c-0.3-0.6-0.8-0.9-1.3-0.8
	c-0.3,0.1-0.6,0.3-0.4,0.7c0.2,0.8,2.2-0.1,2.6,1.2c0.2,0.8-0.4,1.4-1,1.6c-0.7,0.2-0.9-0.1-1.2,0c-0.1,0-0.2,0.2-0.2,0.3l-0.2,0.1
	L30.5,16.1"/>
<path class="st0" d="M36.6,12.6l0.2,1.3h-0.3c-0.2-0.6-0.6-1.1-1.2-0.9l0.3,2.9c0,0.3,0.2,0.3,0.6,0.3v0.2L34,16.6v-0.2
	c0.5-0.1,0.6-0.2,0.6-0.4L34.3,13c-0.6,0.1-0.9,0.6-0.9,1.2h-0.3L33,12.9L36.6,12.6"/>
<path class="st0" d="M36,16.3v-0.2c0.4-0.1,0.6-0.2,0.8-0.7l1.3-2.8h0.3l1.2,3.3c0.1,0.3,0.2,0.3,0.5,0.4v0.2l-2-0.1v-0.2h0.2
	c0.3,0,0.3-0.1,0.3-0.2c0-0.1,0-0.2-0.1-0.2l-0.2-0.6l-1.2-0.1L37,15.6C37,15.7,37,15.8,37,15.9c0,0.2,0.1,0.3,0.3,0.3h0.3v0.2
	L36,16.3 M37.9,13.8l-0.5,1.1l0.9,0.1L37.9,13.8z"/>
<path class="st0" d="M43.4,13.5l-0.3,1.3l-0.2-0.1c0-0.7-0.2-1.2-0.8-1.3l-0.6,2.9c-0.1,0.3,0.1,0.4,0.5,0.5l-0.1,0.2l-2.1-0.5
	l0.1-0.2c0.4,0.1,0.6,0.1,0.7-0.2l0.6-2.9c-0.6-0.1-1,0.2-1.3,0.8L39.7,14l0.3-1.3L43.4,13.5"/>
<path class="st0" d="M46.3,16.1L46,15.9c0.1-0.7-0.2-1.3-0.8-1.5c-0.3-0.1-0.4-0.1-0.6,0.2l-0.4,1c0.5,0.2,0.7,0.2,1-0.3l0.2,0.1
	L45,16.8l-0.2-0.1c0.1-0.6-0.1-0.7-0.6-0.9L43.8,17c-0.1,0.2,0,0.4,0.3,0.5c0.7,0.3,1.3,0,1.7-0.6L46,17l-0.6,1.3l-3.2-1.3l0.1-0.2
	c0.4,0.2,0.6,0.1,0.6-0.1l0.9-2.5c0.1-0.3,0-0.4-0.4-0.6l0.1-0.2l3.2,1.2L46.3,16.1"/>
<path class="st0" d="M51,17.5l-0.1,0.2c-0.3-0.3-0.5-0.3-0.7-0.1l-1.4,1.8c-0.3,0.4-0.1,0.8,0.2,1.1c0.5,0.4,0.9,0.3,1.3-0.2
	l1.2-1.6c0.2-0.2,0.1-0.4-0.2-0.7l0.1-0.2l1.1,0.9l-0.1,0.1c-0.3-0.2-0.5-0.2-0.7,0l-1.2,1.5c-0.6,0.7-1.2,0.7-1.9,0.1
	c-0.5-0.4-0.9-1.1-0.4-1.7l1.3-1.7c0.2-0.2,0.1-0.4-0.2-0.6l0.1-0.2L51,17.5"/>
<path class="st0" d="M52.6,18.8l0.9,1l-0.7,3.1l0,0l0,0l1.5-1.3c0.2-0.2,0.2-0.3-0.1-0.7l0.2-0.2l0.9,1.1l-0.2,0.2
	c-0.3-0.2-0.4-0.3-0.7-0.1l-2.3,2.1l-0.3-0.4l0.8-3.5l0,0l-1.7,1.5c-0.2,0.2-0.2,0.3,0.2,0.7l-0.2,0.2l-1-1.1l0.2-0.2
	c0.3,0.3,0.4,0.3,0.6,0.2l2-1.7c0.2-0.2,0.2-0.3-0.1-0.7L52.6,18.8"/>
<path class="st0" d="M52.1,24.1l0.2-0.1c0.2,0.3,0.4,0.4,0.6,0.3l2.2-1.5c0.2-0.2,0.2-0.3,0-0.7l0.2-0.1l1.1,1.7l-0.2,0.1
	c-0.2-0.3-0.4-0.4-0.6-0.3L53.4,25c-0.2,0.2-0.2,0.3,0,0.7l-0.2,0.1L52.1,24.1"/>
<path class="st0" d="M56.4,23.5l0.8,1.7L57,25.3c-0.2-0.4-0.3-0.4-0.4-0.3c-0.1,0-0.2,0.1-1.7,1.7l0,0c2.1-0.2,2.2-0.2,2.3-0.3
	c0.2-0.1,0.2-0.3,0.1-0.5l0.2-0.2l0.6,1.1l-0.2,0.1c-0.1-0.2-0.3-0.3-0.6-0.3L53.8,27l-0.2-0.4l2.4-2.3c0.2-0.2,0.2-0.4,0.1-0.6
	L56.4,23.5"/>
<path class="st0" d="M57.7,30.2L57.5,30c0.6-0.4,0.8-0.9,0.7-1.6c-0.1-0.3-0.2-0.4-0.4-0.3l-1,0.3c0.2,0.5,0.3,0.6,0.8,0.6l0.1,0.2
	l-1.5,0.4l-0.1-0.2c0.4-0.3,0.5-0.5,0.3-1l-1.2,0.4c-0.3,0.1-0.3,0.2-0.2,0.6c0.2,0.7,0.8,1,1.6,0.9l0.1,0.2L55.3,31l-1.1-3.3
	l0.2-0.1c0.1,0.4,0.2,0.5,0.5,0.4l2.5-0.8c0.3-0.1,0.3-0.2,0.2-0.6l0.2-0.1l1,3.2L57.7,30.2"/>
<path class="st0" d="M56.6,34.6c-0.6,0.1-0.9-0.1-1-0.7c-0.1-0.6,0.2-0.8,0.8-0.9c0.7-0.1,0.8-0.2,0.8-0.8l-1.2,0.1
	c-0.3,0.1-0.4,0.1-0.4,0.6h-0.2l-0.2-2h0.2c0.1,0.4,0.2,0.5,0.4,0.5l2.6-0.3c0.3-0.1,0.3-0.2,0.3-0.6H59l0.2,1.9
	c0.1,0.9-0.2,1.5-0.8,1.5c-0.7,0.1-0.9-0.6-1.1-1.2l0,0c0,0.7-0.3,0.9-0.7,1.1c-0.5,0.2-0.6,0.3-0.6,0.4c0,0.1,0.2,0.2,0.4,0.2
	L56.6,34.6 M57.5,32.3c0.1,0.6,0.2,0.9,0.8,0.9c0.4-0.1,0.7-0.3,0.7-0.7c0-0.2-0.1-0.3-0.4-0.3L57.5,32.3z"/>
<path class="st0" d="M57.2,34.5v0.2c-0.6,0.1-1.3,0.4-1.3,1.2c0,0.4,0.2,0.7,0.6,0.7c0.8,0.1,0.6-2.1,1.9-2.1
	c0.8,0.1,1.2,0.6,1.2,1.3c0,0.6-0.3,0.8-0.3,0.9c0,0.1,0.1,0.2,0.2,0.2v0.2l-1.3-0.1V37c0.6-0.1,1.1-0.4,1.2-1.1
	c0-0.3-0.2-0.7-0.5-0.7c-0.8-0.1-0.5,2.1-2,2.1c-0.8-0.1-1.2-0.8-1.2-1.4c0.1-0.7,0.3-0.9,0.3-1.1c0-0.1-0.2-0.2-0.2-0.2v-0.2
	L57.2,34.5"/>
<path class="st0" d="M55.6,37.1l0.2,0.1c-0.1,0.4,0,0.6,0.3,0.6l2.6,0.4c0.3,0.1,0.4-0.1,0.4-0.4l0.2,0.1l-0.3,2l-0.2-0.1
	c0.1-0.4,0-0.6-0.3-0.6l-2.6-0.4c-0.3-0.1-0.4,0.1-0.4,0.4L55.3,39L55.6,37.1"/>
<path class="st0" d="M58,43.3l-1.3-0.4l0.1-0.2c0.7,0.1,1.2-0.1,1.3-0.7l-2.8-0.8c-0.3-0.1-0.4,0-0.5,0.4l-0.2-0.1l0.6-2l0.2,0.1
	c-0.2,0.4-0.1,0.6,0.2,0.7l2.8,0.8c0.2-0.6-0.2-1-0.7-1.3l0.1-0.2l1.3,0.4L58,43.3"/>
<path class="st0" d="M58,43.3L57.2,45L57,44.9c0.1-0.2,0.2-0.4,0.1-0.4c-0.1,0-0.2-0.1-0.3,0l-1.2,0.1l0.7,0.9
	c0.1,0.1,0.2,0.2,0.2,0.2c0.1,0.1,0.3-0.1,0.4-0.3l0.2,0.1l-0.6,1.2l-0.2-0.1c0.1-0.4,0.1-0.5-0.1-0.7L55,44.4l-0.9-0.4
	c-0.2-0.1-0.4-0.1-0.6,0.4l-0.2-0.1l0.9-1.9l0.2,0.1c-0.2,0.4-0.2,0.6,0.1,0.7l0.9,0.4h1.5c0.4,0,0.7,0,0.8-0.3L58,43.3"/>
<path class="st0" d="M20.9,50l0.2-0.2c0.3,0.3,0.4,0.3,0.6,0.1l1.8-1.9c0.2-0.2,0.2-0.3-0.2-0.6l0.2-0.2l1.5,1.3l-0.2,0.2
	c-0.3-0.3-0.4-0.3-0.6-0.1l-1.8,1.9c-0.2,0.2-0.2,0.3,0.1,0.5c0.4,0.4,1.1,0.3,1.6-0.1l0.2,0.2l-1,1.1L20.9,50"/>
<path class="st0" d="M27.2,50.3c0.9,0.6,1.1,1.8,0.6,2.7c-0.6,0.9-1.8,1.2-2.7,0.6s-1.1-1.8-0.6-2.7C25.2,50,26.4,49.8,27.2,50.3
	 M25.3,53.4c0.6,0.3,1.1-0.1,1.7-0.9c0.6-0.9,0.7-1.6,0.2-1.9c-0.6-0.3-1.1,0.1-1.7,0.9C24.9,52.3,24.7,53.1,25.3,53.4z"/>
<path class="st0" d="M28.4,51.2l1.2,0.5l0.8,3.1l0,0l0,0l0.7-1.8c0.1-0.3,0-0.4-0.4-0.6l0.1-0.2l1.3,0.5L32,52.9
	c-0.4-0.1-0.5-0.1-0.6,0.2L30.3,56l-0.5-0.2l-0.8-3.5l0,0L28,54.5c-0.1,0.3,0,0.4,0.4,0.6l-0.1,0.2L27,54.7l0.1-0.2
	c0.4,0.2,0.6,0.1,0.6-0.1l0.9-2.4c0.1-0.3,0-0.4-0.4-0.6L28.4,51.2"/>
<path class="st0" d="M33.1,54.8l2.1,0.4l-0.1,0.2c-0.5-0.1-0.6,0-0.6,0.3l-0.2,1.1L34,56.8l-0.2-0.3c-0.4,0.2-0.7,0.2-1.1,0.1
	c-0.9-0.2-1.6-1.2-1.5-2.2c0.2-1.1,1.3-1.8,2.3-1.7c0.5,0.1,0.8,0.4,0.9,0.4c0.1,0,0.2-0.1,0.2-0.1l0.2,0.1l-0.2,1.3l-0.2-0.1
	c-0.1-0.6-0.2-1.2-0.9-1.3c-0.6-0.1-1.1,0.3-1.3,1.5c-0.2,1.1,0.1,1.7,0.5,1.8c0.5,0.1,0.7-0.2,0.7-0.7c0.1-0.5-0.1-0.6-0.6-0.7
	L33.1,54.8"/>
<path class="st0" d="M36.8,53.9c0-0.3-0.2-0.3-0.6-0.3v-0.2l2-0.1c0.8-0.1,1.4,0.3,1.5,0.9c0,0.5-0.3,0.8-0.8,0.8l0,0
	c0.6,0.1,1.1,0.3,1.1,0.9c0,0.4-0.3,1.1-1.3,1.1l-2.2,0.1v-0.2c0.4,0,0.5-0.1,0.5-0.4L36.8,53.9 M37.7,55h0.2
	c0.6-0.1,0.8-0.3,0.8-0.7c0-0.4-0.3-0.7-0.7-0.7c-0.2,0-0.3,0.1-0.3,0.4L37.7,55z M37.8,56.4c0,0.3,0.1,0.4,0.4,0.4
	c0.6,0,0.8-0.3,0.8-0.8c0-0.4-0.2-0.9-0.8-0.8h-0.4L37.8,56.4z"/>
<path class="st0" d="M43.3,53.7L43,53.8c-0.3-0.7-0.9-0.9-1.5-0.8c-0.3,0.1-0.4,0.2-0.3,0.4l0.2,1.1c0.5-0.1,0.7-0.3,0.7-0.8
	l0.2-0.1l0.3,1.5h-0.2c-0.3-0.4-0.4-0.6-1-0.4l0.3,1.2c0.1,0.3,0.2,0.3,0.5,0.2c0.7-0.2,1.1-0.7,1.1-1.5l0.2-0.1l0.3,1.4l-3.4,0.8
	l-0.1-0.2c0.4-0.1,0.5-0.2,0.4-0.5l-0.6-2.5c-0.1-0.3-0.2-0.3-0.6-0.2l0.1-0.2l3.3-0.8L43.3,53.7"/>
<path class="st0" d="M44,56.1l-0.1-0.2c0.3-0.2,0.4-0.4,0.4-0.9v-3.1l0.3-0.1l2.6,2.4c0.2,0.2,0.3,0.2,0.6,0.1l0.1,0.2L46,55.2
	L45.9,55l0.2-0.1c0.3-0.1,0.3-0.2,0.2-0.3c-0.1-0.1-0.1-0.1-0.2-0.2l-0.4-0.4l-1.1,0.5v0.4c0,0.1,0,0.2,0.1,0.3
	c0.1,0.2,0.2,0.2,0.4,0.1l0.2-0.1l0.1,0.2L44,56.1 M44.6,52.9l0.1,1.2l0.9-0.4L44.6,52.9z"/>
<path class="st0" d="M49.2,50.6L49,50.7c-0.7-0.5-1.1-0.7-1.7-0.3c-0.6,0.4-0.5,1.1,0.1,2c0.6,0.9,1.2,1.2,1.8,0.8
	c0.6-0.4,0.7-1,0.3-1.7l0.2-0.1c0.5,0.8,0.4,1.6-0.4,2.1c-1.1,0.7-2.2,0.3-2.7-0.6c-0.6-0.9-0.3-2.1,0.6-2.7
	c0.3-0.2,0.7-0.3,1.1-0.3l0.1-0.3l0.2-0.1L49.2,50.6"/>
<path class="st0" d="M51.6,48.8L50.8,48c-0.2-0.2-0.3-0.2-0.6,0.1L50,47.9l1.4-1.3l0.2,0.2c-0.3,0.3-0.3,0.4-0.1,0.6l1.8,1.8
	c0.2,0.2,0.3,0.2,0.6-0.1l0.2,0.2l-1.4,1.3l-0.2-0.2c0.2-0.2,0.3-0.4,0.1-0.6l-0.9-0.9l-0.9,0.8l0.9,0.9c0.2,0.2,0.3,0.2,0.6-0.1
	l0.2,0.2l-1.4,1.3L51,51.9c0.3-0.3,0.3-0.4,0.1-0.6l-1.8-1.8c-0.2-0.2-0.3-0.2-0.6,0.1l-0.1-0.1l1.4-1.3l0.2,0.2
	c-0.2,0.2-0.3,0.4-0.1,0.6l0.8,0.8L51.6,48.8"/>
</svg>
