<?xml version="1.0" encoding="utf-8"?>
<!-- Generator: Adobe Illustrator 22.1.0, SVG Export Plug-In . SVG Version: 6.00 Build 0)  -->
<svg version="1.1" id="Layer_1" xmlns="http://www.w3.org/2000/svg" xmlns:xlink="http://www.w3.org/1999/xlink" x="0px" y="0px"
	 viewBox="0 0 250.1 250.1" style="enable-background:new 0 0 250.1 250.1;" xml:space="preserve">
<style type="text/css">
	.st0{fill:#FFFFFF;stroke:#231F20;stroke-width:6.0961;}
	.st1{fill:#FFCE00;stroke:#231F20;stroke-width:3.0716;stroke-miterlimit:3.864;}
	.st2{fill:#231F20;}
	.st3{fill:none;stroke:#231F20;stroke-width:0.2628;stroke-miterlimit:3.864;}
	.st4{fill:none;stroke:#231F20;stroke-width:2.0987;stroke-linecap:round;stroke-linejoin:round;}
	.st5{fill:none;stroke:#231F20;stroke-width:0.7885;}
	.st6{fill:none;stroke:#231F20;stroke-width:0.9572;}
	.st7{fill:none;stroke:#231F20;stroke-width:0.8277;stroke-linecap:round;stroke-linejoin:round;}
	.st8{fill:#FFFFFF;stroke:#231F20;stroke-width:1.6554;stroke-linecap:round;stroke-linejoin:round;}
	.st9{fill:none;stroke:#231F20;stroke-width:1.6554;stroke-linecap:round;stroke-linejoin:round;}
	.st10{fill:none;stroke:#231F20;stroke-width:0.6198;stroke-miterlimit:3.864;}
	.st11{fill:none;stroke:#231F20;stroke-width:0.6041;stroke-miterlimit:3.864;}
</style>
<path class="st0" d="M3.1,124.9C3.2,57.8,57.8,3,125.2,3.1C192.3,3,247,57.8,247,124.9c0,67.4-54.7,122-121.8,122.1
	C57.8,247,3.2,192.3,3.1,124.9z"/>
<path class="st1" d="M36.3,124.7c0-48.9,39.8-88.8,88.8-88.8c48.9,0,88.8,40,88.8,88.8c-0.1,49.1-40,88.9-88.8,88.8
	C76.1,213.6,36.3,173.8,36.3,124.7z"/>
<g>
	<path class="st2" d="M33.7,156.7c1.6,1.1,2.6,2.8,3.4,4.6c2.1,5.1,0.9,10-4.4,12.2c-5.1,2.2-9.4-0.9-11.4-5.6
		c-0.8-1.8-1.2-3.4-1.3-5.9l0.2-0.2c0.9-0.1,2.6-0.6,3.6-0.9l0.4,0.9l-1.9,0.9c-0.7,1.6-0.5,3.1,0.2,4.6c1.6,3.7,5,4.5,8.5,3
		c4.1-1.7,6-5.3,4.2-9.5c-0.6-1.3-1.8-2.9-2.9-3.8l0.2-0.4L33.7,156.7"/>
	<path class="st3" d="M33.7,156.7c1.6,1.1,2.6,2.8,3.4,4.6c2.1,5.1,0.9,10-4.4,12.2c-5.1,2.2-9.4-0.9-11.4-5.6
		c-0.8-1.8-1.2-3.4-1.3-5.9l0.2-0.2c0.9-0.1,2.6-0.6,3.6-0.9l0.4,0.9l-1.9,0.9c-0.7,1.6-0.5,3.1,0.2,4.6c1.6,3.7,5,4.5,8.5,3
		c4.1-1.7,6-5.3,4.2-9.5c-0.6-1.3-1.8-2.9-2.9-3.8l0.2-0.4L33.7,156.7z"/>
	<path class="st2" d="M26.7,145.9l2.4-1.7c0.7-0.5,1.3-0.3,1.4,0l0.4,1.2l0.9-0.2c-0.4-1.6-0.7-2.7-0.9-3.6
		c-0.2-0.9-0.4-2.1-0.8-3.6l-0.9,0.2l0.1,0.6c0.1,0.8-0.2,1.1-0.7,1.5l-12.8,9.3l0.4,1.7l1,0.1l1,0.1l1.8,0.2l11.2,1.9
		c0.8,0.1,1.5,0.4,1.7,1l0.2,0.7l0.9-0.2c-0.3-1.1-0.5-1.9-0.7-2.6c-0.2-0.7-0.3-1.5-0.5-2.7l-0.9,0.2l0.2,1.2
		c0.1,0.4-0.2,1-1.2,0.9l-2.9-0.4L26.7,145.9 M20.2,150.6l5.4-3.8l1.1,4.8L20.2,150.6z"/>
	<path class="st3" d="M26.7,145.9l2.4-1.7c0.7-0.5,1.3-0.3,1.4,0l0.4,1.2l0.9-0.2c-0.4-1.6-0.7-2.7-0.9-3.6
		c-0.2-0.9-0.4-2.1-0.8-3.6l-0.9,0.2l0.1,0.6c0.1,0.8-0.2,1.1-0.7,1.5l-12.8,9.3l0.4,1.7l1,0.1l1,0.1l1.8,0.2l11.2,1.9
		c0.8,0.1,1.5,0.4,1.7,1l0.2,0.7l0.9-0.2c-0.3-1.1-0.5-1.9-0.7-2.6c-0.2-0.7-0.3-1.5-0.5-2.7l-0.9,0.2l0.2,1.2
		c0.1,0.4-0.2,1-1.2,0.9l-2.9-0.4L26.7,145.9z M20.2,150.6l5.4-3.8l1.1,4.8L20.2,150.6z"/>
	<path class="st2" d="M28.3,131.8c0-1,0-2.1-0.1-3.1c-0.1-1.1-0.4-2.9-0.6-2.9l-2.5-0.4l0-0.9l4,0.1l0.2,0.1
		c0.2,1.6,0.4,4.3,0.4,5.9c0,1,0,2,0.1,3c0,1,0.1,2,0.2,2.9l-0.5,0l-0.5-0.8c-0.2-0.4-0.6-0.4-1.4-0.4l-10.8,0.6
		c-1,0.1-1.7,0.1-1.9,0.3c-0.2,0.1-0.3,0.4-0.3,1l0,0.9l-1,0.1c0-1-0.1-2.3-0.1-3.8c-0.1-1.4-0.2-2.7-0.3-3.7l1-0.1l0.1,0.9
		c0.1,0.6,0.2,0.9,0.4,1c0.3,0.1,0.9,0.1,2,0.1L28.3,131.8"/>
	<path class="st3" d="M28.3,131.8c0-1,0-2.1-0.1-3.1c-0.1-1.1-0.4-2.9-0.6-2.9l-2.5-0.4l0-0.9l4,0.1l0.2,0.1
		c0.2,1.6,0.4,4.3,0.4,5.9c0,1,0,2,0.1,3c0,1,0.1,2,0.2,2.9l-0.5,0l-0.5-0.8c-0.2-0.4-0.6-0.4-1.4-0.4l-10.8,0.6
		c-1,0.1-1.7,0.1-1.9,0.3c-0.2,0.1-0.3,0.4-0.3,1l0,0.9l-1,0.1c0-1-0.1-2.3-0.1-3.8c-0.1-1.4-0.2-2.7-0.3-3.7l1-0.1l0.1,0.9
		c0.1,0.6,0.2,0.9,0.4,1c0.3,0.1,0.9,0.1,2,0.1L28.3,131.8z"/>
	<path class="st2" d="M26.5,117.3c1,0.1,1.7,0.1,2,0c0.2-0.1,0.3-0.3,0.4-1l0.1-0.9l1,0.1c-0.1,1-0.2,2.3-0.3,3.7
		c-0.1,1.4-0.1,2.8-0.2,3.8l-1-0.1l0-0.9c0-0.6-0.1-0.9-0.3-1c-0.3-0.2-0.9-0.2-1.9-0.3l-9.8-0.7c-1-0.1-1.7-0.1-2,0
		c-0.2,0.1-0.3,0.3-0.4,1l-0.1,0.9l-1-0.1c0.1-1,0.2-2.3,0.3-3.7c0.1-1.4,0.1-2.7,0.2-3.7l1,0.1l0,0.9c0,0.6,0.1,0.9,0.3,1
		c0.3,0.2,0.9,0.2,1.9,0.3L26.5,117.3"/>
	<path class="st3" d="M26.5,117.3c1,0.1,1.7,0.1,2,0c0.2-0.1,0.3-0.3,0.4-1l0.1-0.9l1,0.1c-0.1,1-0.2,2.3-0.3,3.7
		c-0.1,1.4-0.1,2.8-0.2,3.8l-1-0.1l0-0.9c0-0.6-0.1-0.9-0.3-1c-0.3-0.2-0.9-0.2-1.9-0.3l-9.8-0.7c-1-0.1-1.7-0.1-2,0
		c-0.2,0.1-0.3,0.3-0.4,1l-0.1,0.9l-1-0.1c0.1-1,0.2-2.3,0.3-3.7c0.1-1.4,0.1-2.7,0.2-3.7l1,0.1l0,0.9c0,0.6,0.1,0.9,0.3,1
		c0.3,0.2,0.9,0.2,1.9,0.3L26.5,117.3z"/>
	<path class="st2" d="M21.8,106.7c0.1-0.5,0.2-1.1,0.3-1.6l0.2-1.2c0.1-0.8,0.2-1.3-0.3-1.4l-1.2-0.4l0.2-0.9
		c0.8,0.2,1.6,0.3,2.4,0.5c0.9,0.2,1.7,0.2,2.6,0.4l-0.2,0.9l-1.2-0.1c-0.7,0-1,0.4-1.1,1.2l-0.2,1.2c-0.1,0.5-0.2,1.1-0.2,1.6
		l4.4,0.8c1,0.2,1.6,0.3,2,0.2c0.2-0.1,0.4-0.3,0.5-0.9l0.3-1.1l1,0.2c-0.2,1.2-0.5,2.5-0.8,3.9c-0.2,1.4-0.4,2.7-0.6,3.7l-1-0.2
		l0.1-0.9c0.1-0.6,0-0.9-0.2-1c-0.3-0.2-0.9-0.3-1.9-0.5l-9.7-1.7c-1-0.2-1.6-0.3-1.9-0.2c-0.3,0.1-0.4,0.3-0.6,0.9l-0.2,0.9
		l-0.9-0.2c0.3-1.6,0.6-2.8,0.7-3.7c0.3-1.8,0.6-3.5,0.8-4.8c0.2-1.3,0.4-2.4,0.7-3.4l0.2-0.1l3.3,0.9l-0.1,0.8l-1.8-0.1
		c-0.4,0-0.7,1.6-0.9,2.7c-0.1,0.6-0.3,1.7-0.4,2.7L21.8,106.7"/>
	<path class="st3" d="M21.8,106.7c0.1-0.5,0.2-1.1,0.3-1.6l0.2-1.2c0.1-0.8,0.2-1.3-0.3-1.4l-1.2-0.4l0.2-0.9
		c0.8,0.2,1.6,0.3,2.4,0.5c0.9,0.2,1.7,0.2,2.6,0.4l-0.2,0.9l-1.2-0.1c-0.7,0-1,0.4-1.1,1.2l-0.2,1.2c-0.1,0.5-0.2,1.1-0.2,1.6
		l4.4,0.8c1,0.2,1.6,0.3,2,0.2c0.2-0.1,0.4-0.3,0.5-0.9l0.3-1.1l1,0.2c-0.2,1.2-0.5,2.5-0.8,3.9c-0.2,1.4-0.4,2.7-0.6,3.7l-1-0.2
		l0.1-0.9c0.1-0.6,0-0.9-0.2-1c-0.3-0.2-0.9-0.3-1.9-0.5l-9.7-1.7c-1-0.2-1.6-0.3-1.9-0.2c-0.3,0.1-0.4,0.3-0.6,0.9l-0.2,0.9
		l-0.9-0.2c0.3-1.6,0.6-2.8,0.7-3.7c0.3-1.8,0.6-3.5,0.8-4.8c0.2-1.3,0.4-2.4,0.7-3.4l0.2-0.1l3.3,0.9l-0.1,0.8l-1.8-0.1
		c-0.4,0-0.7,1.6-0.9,2.7c-0.1,0.6-0.3,1.7-0.4,2.7L21.8,106.7z"/>
	<path class="st2" d="M19,86.8c-1.8,5.2-0.1,9.6,5.3,11.5c5.2,1.8,9-0.3,10.8-5.4c1.8-5.2,0.1-9.6-5.2-11.5
		C24.6,79.6,20.8,81.8,19,86.8 M20.3,87.3c1.1-3.2,5-3.6,8.7-2.3c3.4,1.2,6.2,3.2,4.8,7.5c-1.1,3.2-5,3.6-8.7,2.3
		C21.6,93.6,18.8,91.5,20.3,87.3z"/>
	<path class="st3" d="M19,86.8c-1.8,5.2-0.1,9.6,5.3,11.5c5.2,1.8,9-0.3,10.8-5.4c1.8-5.2,0.1-9.6-5.2-11.5
		C24.6,79.6,20.8,81.8,19,86.8z M20.3,87.3c1.1-3.2,5-3.6,8.7-2.3c3.4,1.2,6.2,3.2,4.8,7.5c-1.1,3.2-5,3.6-8.7,2.3
		C21.6,93.6,18.8,91.5,20.3,87.3z"/>
	<path class="st2" d="M28.1,75.1c-0.9-0.5-1.5-0.8-1.8-0.8c-0.3,0-0.5,0.1-0.9,0.7L25,75.6l-0.8-0.4c0.8-1.4,1.5-2.4,2.1-3.5
		c0.8-1.4,1.6-2.8,2.4-4.3c1.2-2.2,3-3.7,5.4-2.3c1.8,1.1,2.3,3.1,1.9,5.2l7.9-0.5c0.3,0,0.7-0.1,1-0.2c0.2-0.1,0.5-0.3,0.8-0.7
		l0.8,0.5c-0.4,0.7-0.8,1.3-1.2,2c-0.4,0.6-0.7,1.3-1,1.9l-9.9,0.5l-0.3-0.4c1.3-1.8,0.9-3.9-1.1-5.1c-1.7-1-3.3-0.3-4.2,1.3
		c-0.2,0.4-0.5,1-0.6,1.4l10.1,5.9c0.9,0.5,1.5,0.8,1.8,0.8c0.2,0,0.4-0.2,0.8-0.7l0.5-0.7l0.8,0.5c-0.5,0.8-1.2,2-1.9,3.2
		c-0.7,1.2-1.3,2.4-1.8,3.3l-0.8-0.5l0.4-0.8c0.3-0.6,0.3-0.8,0.2-1c-0.2-0.3-0.7-0.6-1.6-1.1L28.1,75.1"/>
	<path class="st3" d="M28.1,75.1c-0.9-0.5-1.5-0.8-1.8-0.8c-0.3,0-0.5,0.1-0.9,0.7L25,75.6l-0.8-0.4c0.8-1.4,1.5-2.4,2.1-3.5
		c0.8-1.4,1.6-2.8,2.4-4.3c1.2-2.2,3-3.7,5.4-2.3c1.8,1.1,2.3,3.1,1.9,5.2l7.9-0.5c0.3,0,0.7-0.1,1-0.2c0.2-0.1,0.5-0.3,0.8-0.7
		l0.8,0.5c-0.4,0.7-0.8,1.3-1.2,2c-0.4,0.6-0.7,1.3-1,1.9l-9.9,0.5l-0.3-0.4c1.3-1.8,0.9-3.9-1.1-5.1c-1.7-1-3.3-0.3-4.2,1.3
		c-0.2,0.4-0.5,1-0.6,1.4l10.1,5.9c0.9,0.5,1.5,0.8,1.8,0.8c0.2,0,0.4-0.2,0.8-0.7l0.5-0.7l0.8,0.5c-0.5,0.8-1.2,2-1.9,3.2
		c-0.7,1.2-1.3,2.4-1.8,3.3l-0.8-0.5l0.4-0.8c0.3-0.6,0.3-0.8,0.2-1c-0.2-0.3-0.7-0.6-1.6-1.1L28.1,75.1z"/>
	<path class="st2" d="M38.3,58.6c-0.8-0.7-1.3-1.1-1.6-1.2c-0.3-0.1-0.5,0-1,0.5l-0.6,0.6L34.5,58c0.7-0.7,1.3-1.4,2-2.1
		c0.4-0.5,0.8-1,1.3-1.6c1.3,0.1,2.7,0.2,4,0.2l11.5,0.1l-6.5-5.7c-0.8-0.7-1.3-1.1-1.6-1.2c-0.3-0.1-0.5,0-1,0.5l-0.6,0.6l-0.7-0.6
		c0.6-0.7,1.3-1.3,1.9-2c0.6-0.7,1.2-1.4,1.7-2.1l0.7,0.6l-0.5,0.7c-0.4,0.5-0.4,0.8-0.3,1c0.1,0.3,0.6,0.7,1.4,1.4l8.2,7.2
		c0.6,0.5,1.3,1.1,1.9,1.5l0,0.2L56.2,58c-1.5,0-3,0-4.5,0l-12.2-0.2l0,0l7.1,6.2c0.8,0.7,1.3,1.1,1.6,1.2c0.3,0.1,0.5,0,1-0.5
		l0.6-0.6l0.7,0.6c-0.6,0.7-1.2,1.3-1.8,2c-0.6,0.7-1.2,1.4-1.8,2.1l-0.7-0.6l0.5-0.7c0.4-0.5,0.4-0.8,0.3-1
		c-0.1-0.3-0.6-0.8-1.4-1.4L38.3,58.6"/>
	<path class="st3" d="M38.3,58.6c-0.8-0.7-1.3-1.1-1.6-1.2c-0.3-0.1-0.5,0-1,0.5l-0.6,0.6L34.5,58c0.7-0.7,1.3-1.4,2-2.1
		c0.4-0.5,0.8-1,1.3-1.6c1.3,0.1,2.7,0.2,4,0.2l11.5,0.1l-6.5-5.7c-0.8-0.7-1.3-1.1-1.6-1.2c-0.3-0.1-0.5,0-1,0.5l-0.6,0.6l-0.7-0.6
		c0.6-0.7,1.3-1.3,1.9-2c0.6-0.7,1.2-1.4,1.7-2.1l0.7,0.6l-0.5,0.7c-0.4,0.5-0.4,0.8-0.3,1c0.1,0.3,0.6,0.7,1.4,1.4l8.2,7.2
		c0.6,0.5,1.3,1.1,1.9,1.5l0,0.2L56.2,58c-1.5,0-3,0-4.5,0l-12.2-0.2l0,0l7.1,6.2c0.8,0.7,1.3,1.1,1.6,1.2c0.3,0.1,0.5,0,1-0.5
		l0.6-0.6l0.7,0.6c-0.6,0.7-1.2,1.3-1.8,2c-0.6,0.7-1.2,1.4-1.8,2.1l-0.7-0.6l0.5-0.7c0.4-0.5,0.4-0.8,0.3-1
		c-0.1-0.3-0.6-0.8-1.4-1.4L38.3,58.6z"/>
	<path class="st2" d="M61.9,48.4c0.7,0.8,1.1,1.2,1.4,1.4c0.2,0.1,0.5,0,1-0.4l0.7-0.5l0.6,0.7c-0.8,0.6-1.8,1.5-2.9,2.4
		c-1.1,1-2,1.8-2.8,2.5l-0.6-0.7l0.6-0.6c0.4-0.5,0.6-0.7,0.5-0.9c-0.1-0.3-0.5-0.8-1.2-1.6l-6.4-7.4c-0.7-0.8-1.1-1.2-1.4-1.4
		c-0.2-0.1-0.5,0-1,0.4l-0.7,0.5L49.2,42c0.8-0.6,1.8-1.5,2.9-2.4c1.1-0.9,2-1.8,2.8-2.5l0.6,0.7l-0.6,0.6c-0.4,0.5-0.6,0.7-0.5,0.9
		c0.1,0.3,0.5,0.8,1.2,1.6L61.9,48.4"/>
	<path class="st3" d="M61.9,48.4c0.7,0.8,1.1,1.2,1.4,1.4c0.2,0.1,0.5,0,1-0.4l0.7-0.5l0.6,0.7c-0.8,0.6-1.8,1.5-2.9,2.4
		c-1.1,1-2,1.8-2.8,2.5l-0.6-0.7l0.6-0.6c0.4-0.5,0.6-0.7,0.5-0.9c-0.1-0.3-0.5-0.8-1.2-1.6l-6.4-7.4c-0.7-0.8-1.1-1.2-1.4-1.4
		c-0.2-0.1-0.5,0-1,0.4l-0.7,0.5L49.2,42c0.8-0.6,1.8-1.5,2.9-2.4c1.1-0.9,2-1.8,2.8-2.5l0.6,0.7l-0.6,0.6c-0.4,0.5-0.6,0.7-0.5,0.9
		c0.1,0.3,0.5,0.8,1.2,1.6L61.9,48.4z"/>
	<path class="st2" d="M72.3,38.6l2.4,1.7c0.7,0.5,0.8,1.1,0.4,1.3l-1,0.8l0.5,0.8c1.3-0.9,2.3-1.6,3.1-2.1c0.8-0.5,1.8-1.1,3.2-2
		l-0.5-0.8l-0.5,0.2c-0.7,0.3-1.1,0.2-1.7-0.2L65,29.6l-1.4,0.9l0.2,1l0.2,1l0.4,1.7l2.1,11.2c0.1,0.7,0.1,1.5-0.3,1.9l-0.6,0.5
		l0.5,0.8c0.9-0.7,1.7-1.2,2.2-1.5c0.6-0.4,1.3-0.8,2.3-1.4l-0.5-0.8l-1.1,0.6c-0.4,0.2-1,0.1-1.2-0.8l-0.6-2.8L72.3,38.6 M65.7,34
		l5.4,3.8L67,40.4L65.7,34z"/>
	<path class="st3" d="M72.3,38.6l2.4,1.7c0.7,0.5,0.8,1.1,0.4,1.3l-1,0.8l0.5,0.8c1.3-0.9,2.3-1.6,3.1-2.1c0.8-0.5,1.8-1.1,3.2-2
		l-0.5-0.8l-0.5,0.2c-0.7,0.3-1.1,0.2-1.7-0.2L65,29.6l-1.4,0.9l0.2,1l0.2,1l0.4,1.7l2.1,11.2c0.1,0.7,0.1,1.5-0.3,1.9l-0.6,0.5
		l0.5,0.8c0.9-0.7,1.7-1.2,2.2-1.5c0.6-0.4,1.3-0.8,2.3-1.4l-0.5-0.8l-1.1,0.6c-0.4,0.2-1,0.1-1.2-0.8l-0.6-2.8L72.3,38.6z M65.7,34
		l5.4,3.8L67,40.4L65.7,34z"/>
	<path class="st2" d="M92.5,29.1l0.8,2c0.9,0.9,2.9,1.1,4.1,0.7c2-0.6,3.3-2.1,2.8-4.1c-0.3-1-1.1-1.6-2.5-1.6l-3.5,0
		c-2.1,0-3.9-1-4.5-3c-1.1-3.7,1.3-5.9,4.6-6.9c1.4-0.4,3-0.6,4.5-0.4l0.2,0.2c0,0.8,0.3,2.2,0.6,3.4l-0.9,0.3L98,17.9
		c-0.9-0.6-2.3-0.7-3.4-0.4c-2.2,0.6-2.8,2.2-2.4,3.7c0.3,1,1.3,1.6,3.1,1.5l2.8-0.1c2.3,0,4,0.9,4.6,3c1.1,3.9-1.7,6.5-5.2,7.5
		c-1.7,0.5-3.4,0.6-5.1,0.3c-0.1-1.4-0.4-2.8-0.8-4.1L92.5,29.1"/>
	<path class="st3" d="M92.5,29.1l0.8,2c0.9,0.9,2.9,1.1,4.1,0.7c2-0.6,3.3-2.1,2.8-4.1c-0.3-1-1.1-1.6-2.5-1.6l-3.5,0
		c-2.1,0-3.9-1-4.5-3c-1.1-3.7,1.3-5.9,4.6-6.9c1.4-0.4,3-0.6,4.5-0.4l0.2,0.2c0,0.8,0.3,2.2,0.6,3.4l-0.9,0.3L98,17.9
		c-0.9-0.6-2.3-0.7-3.4-0.4c-2.2,0.6-2.8,2.2-2.4,3.7c0.3,1,1.3,1.6,3.1,1.5l2.8-0.1c2.3,0,4,0.9,4.6,3c1.1,3.9-1.7,6.5-5.2,7.5
		c-1.7,0.5-3.4,0.6-5.1,0.3c-0.1-1.4-0.4-2.8-0.8-4.1L92.5,29.1z"/>
	<path class="st2" d="M114.1,26c0.1,1,0.2,1.6,0.4,1.9c0.1,0.2,0.4,0.2,1,0.2l0.9,0l0.1,1c-1,0.1-2.3,0.2-3.7,0.4
		c-1.4,0.2-2.7,0.4-3.7,0.5l-0.1-1l0.9-0.2c0.6-0.1,0.9-0.2,0.9-0.5c0.1-0.3,0.1-1-0.1-2l-1.4-11.6l-2.8,0.3
		c-0.6,0.1-1.3,0.2-1.4,0.4c-0.1,0.1-0.2,0.3-0.2,0.6l0.1,1.7l-0.9,0.1c-0.2-1.5-0.4-2.6-0.8-3.8l0.1-0.1c2.5-0.3,5-0.5,7.4-0.8
		c2.4-0.3,4.9-0.6,7.4-1l0.2,0.1c-0.1,1.2,0,2.3,0.2,3.8l-0.9,0.1l-0.3-1.6c-0.1-0.3-0.2-0.4-0.3-0.6c-0.2-0.2-0.9-0.1-1.5,0
		l-2.8,0.3L114.1,26"/>
	<path class="st3" d="M114.1,26c0.1,1,0.2,1.6,0.4,1.9c0.1,0.2,0.4,0.2,1,0.2l0.9,0l0.1,1c-1,0.1-2.3,0.2-3.7,0.4
		c-1.4,0.2-2.7,0.4-3.7,0.5l-0.1-1l0.9-0.2c0.6-0.1,0.9-0.2,0.9-0.5c0.1-0.3,0.1-1-0.1-2l-1.4-11.6l-2.8,0.3
		c-0.6,0.1-1.3,0.2-1.4,0.4c-0.1,0.1-0.2,0.3-0.2,0.6l0.1,1.7l-0.9,0.1c-0.2-1.5-0.4-2.6-0.8-3.8l0.1-0.1c2.5-0.3,5-0.5,7.4-0.8
		c2.4-0.3,4.9-0.6,7.4-1l0.2,0.1c-0.1,1.2,0,2.3,0.2,3.8l-0.9,0.1l-0.3-1.6c-0.1-0.3-0.2-0.4-0.3-0.6c-0.2-0.2-0.9-0.1-1.5,0
		l-2.8,0.3L114.1,26z"/>
	<path class="st2" d="M129.5,23.8l1.1,2.8c0.3,0.8,0,1.3-0.4,1.3l-1.3,0.1v0.9c1.6,0,2.8,0,3.7,0s2.1,0.1,3.7,0.1l0-0.9l-0.6-0.1
		c-0.8-0.1-1.1-0.5-1.3-1.1l-6.1-14.6l-1.7,0l-0.4,1l-0.4,1l-0.6,1.7l-4.4,10.5c-0.3,0.7-0.7,1.4-1.3,1.4l-0.7,0.1l0,0.9
		c1.2,0,2-0.1,2.7,0c0.7,0,1.6,0,2.7,0.1l0-0.9l-1.2-0.1c-0.4,0-0.9-0.5-0.6-1.4l1-2.7L129.5,23.8 M126.4,16.3l2.5,6.1l-4.9,0
		L126.4,16.3z"/>
	<path class="st3" d="M129.5,23.8l1.1,2.8c0.3,0.8,0,1.3-0.4,1.3l-1.3,0.1v0.9c1.6,0,2.8,0,3.7,0s2.1,0.1,3.7,0.1l0-0.9l-0.6-0.1
		c-0.8-0.1-1.1-0.5-1.3-1.1l-6.1-14.6l-1.7,0l-0.4,1l-0.4,1l-0.6,1.7l-4.4,10.5c-0.3,0.7-0.7,1.4-1.3,1.4l-0.7,0.1l0,0.9
		c1.2,0,2-0.1,2.7,0c0.7,0,1.6,0,2.7,0.1l0-0.9l-1.2-0.1c-0.4,0-0.9-0.5-0.6-1.4l1-2.7L129.5,23.8z M126.4,16.3l2.5,6.1l-4.9,0
		L126.4,16.3z"/>
	<path class="st2" d="M144,27.1c-0.2,1-0.3,1.6-0.2,2c0.1,0.2,0.3,0.4,0.9,0.5l0.9,0.2l-0.2,1c-1-0.2-2.3-0.5-3.7-0.7
		c-1.4-0.2-2.7-0.4-3.7-0.6l0.2-1l0.9,0.1c0.6,0.1,0.9,0,1-0.2c0.2-0.3,0.3-0.9,0.5-1.9l2-11.5l-2.8-0.5c-0.6-0.1-1.3-0.2-1.5,0
		c-0.1,0.1-0.2,0.3-0.3,0.5l-0.4,1.6l-0.9-0.2c0.2-1.6,0.4-2.6,0.4-3.8l0.2-0.1c2.5,0.5,4.9,0.9,7.3,1.4c2.4,0.4,4.9,0.8,7.4,1.2
		l0.1,0.1c-0.4,1.1-0.6,2.2-1,3.7l-0.9-0.2l0.2-1.6c0-0.3,0-0.5-0.1-0.6c-0.1-0.2-0.8-0.4-1.4-0.5l-2.8-0.5L144,27.1"/>
	<path class="st3" d="M144,27.1c-0.2,1-0.3,1.6-0.2,2c0.1,0.2,0.3,0.4,0.9,0.5l0.9,0.2l-0.2,1c-1-0.2-2.3-0.5-3.7-0.7
		c-1.4-0.2-2.7-0.4-3.7-0.6l0.2-1l0.9,0.1c0.6,0.1,0.9,0,1-0.2c0.2-0.3,0.3-0.9,0.5-1.9l2-11.5l-2.8-0.5c-0.6-0.1-1.3-0.2-1.5,0
		c-0.1,0.1-0.2,0.3-0.3,0.5l-0.4,1.6l-0.9-0.2c0.2-1.6,0.4-2.6,0.4-3.8l0.2-0.1c2.5,0.5,4.9,0.9,7.3,1.4c2.4,0.4,4.9,0.8,7.4,1.2
		l0.1,0.1c-0.4,1.1-0.6,2.2-1,3.7l-0.9-0.2l0.2-1.6c0-0.3,0-0.5-0.1-0.6c-0.1-0.2-0.8-0.4-1.4-0.5l-2.8-0.5L144,27.1z"/>
	<path class="st2" d="M158,24.5c0.5,0.2,1,0.4,1.5,0.5l1.5,0.5c0.8,0.3,1.3,0.4,1.5-0.1l0.6-1.3l0.9,0.3c-0.3,0.8-0.6,1.6-0.9,2.4
		c-0.3,0.8-0.5,1.7-0.7,2.5l-0.9-0.3l0.2-1.2c0.1-0.7-0.2-1-1-1.3l-1.5-0.5c-0.5-0.2-1-0.3-1.6-0.4l-2,6.1c0.9,0.4,1.9,0.7,2.9,1
		c1.1,0.3,2.8,0.7,2.9,0.5l1.2-2l0.9,0.3l-1.4,3.5l-0.2,0.2c-1.5-0.4-4.2-1.2-5.6-1.8c-0.9-0.3-1.9-0.7-2.8-1
		c-1-0.3-1.9-0.6-2.8-0.8l0.2-0.5l0.9-0.2c0.4-0.1,0.6-0.5,0.9-1.2l3.3-10.2c0.3-1,0.5-1.6,0.4-1.9c0-0.3-0.2-0.5-0.8-0.7l-0.8-0.4
		L155,16c1.5,0.5,2.7,0.9,3.6,1.2c2.1,0.7,3.7,1.2,5,1.6c1.3,0.4,2.3,0.7,3.3,1.1l0.1,0.2l-1.4,3.1l-0.8-0.3l0.4-1.8
		c0.1-0.4-1.4-1-2.5-1.3c-1-0.3-2-0.6-2.9-0.9L158,24.5"/>
	<path class="st3" d="M158,24.5c0.5,0.2,1,0.4,1.5,0.5l1.5,0.5c0.8,0.3,1.3,0.4,1.5-0.1l0.6-1.3l0.9,0.3c-0.3,0.8-0.6,1.6-0.9,2.4
		c-0.3,0.8-0.5,1.7-0.7,2.5l-0.9-0.3l0.2-1.2c0.1-0.7-0.2-1-1-1.3l-1.5-0.5c-0.5-0.2-1-0.3-1.6-0.4l-2,6.1c0.9,0.4,1.9,0.7,2.9,1
		c1.1,0.3,2.8,0.7,2.9,0.5l1.2-2l0.9,0.3l-1.4,3.5l-0.2,0.2c-1.5-0.4-4.2-1.2-5.6-1.8c-0.9-0.3-1.9-0.7-2.8-1
		c-1-0.3-1.9-0.6-2.8-0.8l0.2-0.5l0.9-0.2c0.4-0.1,0.6-0.5,0.9-1.2l3.3-10.2c0.3-1,0.5-1.6,0.4-1.9c0-0.3-0.2-0.5-0.8-0.7l-0.8-0.4
		L155,16c1.5,0.5,2.7,0.9,3.6,1.2c2.1,0.7,3.7,1.2,5,1.6c1.3,0.4,2.3,0.7,3.3,1.1l0.1,0.2l-1.4,3.1l-0.8-0.3l0.4-1.8
		c0.1-0.4-1.4-1-2.5-1.3c-1-0.3-2-0.6-2.9-0.9L158,24.5z"/>
	<path class="st2" d="M182.9,31.6c0.6-0.8,0.9-1.4,1-1.7c0-0.3-0.1-0.5-0.6-0.9l-0.7-0.6l0.5-0.7c0.8,0.6,1.9,1.4,3,2.2
		c1.2,0.8,2.3,1.5,3.1,2.1l-0.5,0.7l-0.8-0.5c-0.5-0.3-0.8-0.4-1-0.2c-0.3,0.2-0.7,0.7-1.3,1.5l-3.4,4.9c-1.9,2.8-3,4.7,0.3,7
		c3.3,2.3,4.9,0.8,6.9-2.1l3.3-4.8c0.6-0.8,0.9-1.4,1-1.7c0-0.3-0.1-0.5-0.6-0.9l-0.7-0.6l0.5-0.7c0.7,0.5,1.5,1.1,2.2,1.7
		c0.8,0.5,1.5,1,2.3,1.5l-0.5,0.7l-0.8-0.5c-0.5-0.3-0.8-0.4-1-0.2c-0.3,0.2-0.7,0.7-1.3,1.5l-4,5.8c-2.5,3.6-5.6,3.9-9.2,1.5
		c-3.7-2.6-4.5-5.5-3-7.8L182.9,31.6"/>
	<path class="st3" d="M182.9,31.6c0.6-0.8,0.9-1.4,1-1.7c0-0.3-0.1-0.5-0.6-0.9l-0.7-0.6l0.5-0.7c0.8,0.6,1.9,1.4,3,2.2
		c1.2,0.8,2.3,1.5,3.1,2.1l-0.5,0.7l-0.8-0.5c-0.5-0.3-0.8-0.4-1-0.2c-0.3,0.2-0.7,0.7-1.3,1.5l-3.4,4.9c-1.9,2.8-3,4.7,0.3,7
		c3.3,2.3,4.9,0.8,6.9-2.1l3.3-4.8c0.6-0.8,0.9-1.4,1-1.7c0-0.3-0.1-0.5-0.6-0.9l-0.7-0.6l0.5-0.7c0.7,0.5,1.5,1.1,2.2,1.7
		c0.8,0.5,1.5,1,2.3,1.5l-0.5,0.7l-0.8-0.5c-0.5-0.3-0.8-0.4-1-0.2c-0.3,0.2-0.7,0.7-1.3,1.5l-4,5.8c-2.5,3.6-5.6,3.9-9.2,1.5
		c-3.7-2.6-4.5-5.5-3-7.8L182.9,31.6z"/>
	<path class="st2" d="M199.7,44.2c0.7-0.7,1.2-1.2,1.3-1.5c0.1-0.2,0-0.5-0.4-1l-0.6-0.7l0.6-0.6c0.6,0.7,1.3,1.5,1.9,2.2
		c0.5,0.5,0.9,1,1.4,1.4c-0.2,1.3-0.5,2.7-0.6,4l-1.3,11.5l6.3-5.9c0.7-0.7,1.2-1.2,1.3-1.5c0.1-0.2,0-0.5-0.4-1l-0.6-0.7l0.6-0.6
		c0.6,0.7,1.2,1.4,1.8,2.1s1.3,1.3,1.9,2l-0.6,0.6l-0.7-0.6c-0.5-0.4-0.7-0.5-1-0.4c-0.3,0.1-0.8,0.5-1.5,1.2l-8,7.5
		c-0.6,0.6-1.2,1.2-1.7,1.7l-0.2-0.1l-1.1-1.7c0.1-1.5,0.3-3,0.4-4.4l1.6-12.1l0,0l-6.9,6.4c-0.7,0.7-1.2,1.2-1.3,1.5
		c-0.1,0.2,0,0.5,0.4,1l0.6,0.7l-0.6,0.6c-0.6-0.7-1.2-1.4-1.8-2c-0.6-0.7-1.3-1.3-1.9-2l0.6-0.6l0.7,0.6c0.5,0.4,0.7,0.5,1,0.4
		c0.3-0.1,0.8-0.5,1.5-1.2L199.7,44.2"/>
	<path class="st3" d="M199.7,44.2c0.7-0.7,1.2-1.2,1.3-1.5c0.1-0.2,0-0.5-0.4-1l-0.6-0.7l0.6-0.6c0.6,0.7,1.3,1.5,1.9,2.2
		c0.5,0.5,0.9,1,1.4,1.4c-0.2,1.3-0.5,2.7-0.6,4l-1.3,11.5l6.3-5.9c0.7-0.7,1.2-1.2,1.3-1.5c0.1-0.2,0-0.5-0.4-1l-0.6-0.7l0.6-0.6
		c0.6,0.7,1.2,1.4,1.8,2.1s1.3,1.3,1.9,2l-0.6,0.6l-0.7-0.6c-0.5-0.4-0.7-0.5-1-0.4c-0.3,0.1-0.8,0.5-1.5,1.2l-8,7.5
		c-0.6,0.6-1.2,1.2-1.7,1.7l-0.2-0.1l-1.1-1.7c0.1-1.5,0.3-3,0.4-4.4l1.6-12.1l0,0l-6.9,6.4c-0.7,0.7-1.2,1.2-1.3,1.5
		c-0.1,0.2,0,0.5,0.4,1l0.6,0.7l-0.6,0.6c-0.6-0.7-1.2-1.4-1.8-2c-0.6-0.7-1.3-1.3-1.9-2l0.6-0.6l0.7,0.6c0.5,0.4,0.7,0.5,1,0.4
		c0.3-0.1,0.8-0.5,1.5-1.2L199.7,44.2z"/>
	<path class="st2" d="M207.5,68.7c-0.8,0.6-1.4,1-1.5,1.3c-0.1,0.2,0,0.5,0.3,1l0.4,0.8l-0.8,0.6c-0.6-0.8-1.3-1.9-2.1-3.1
		c-0.8-1.2-1.6-2.2-2.2-3l0.8-0.6l0.6,0.7c0.4,0.5,0.6,0.7,0.8,0.6c0.3-0.1,0.9-0.4,1.7-1l8-5.6c0.8-0.6,1.4-1,1.5-1.2
		c0.1-0.2,0-0.5-0.3-1l-0.5-0.8l0.8-0.5c0.6,0.8,1.3,1.9,2.1,3.1c0.8,1.2,1.6,2.2,2.2,3l-0.8,0.5l-0.6-0.7c-0.4-0.5-0.6-0.6-0.8-0.6
		c-0.3,0-0.9,0.4-1.7,1L207.5,68.7"/>
	<path class="st3" d="M207.5,68.7c-0.8,0.6-1.4,1-1.5,1.3c-0.1,0.2,0,0.5,0.3,1l0.4,0.8l-0.8,0.6c-0.6-0.8-1.3-1.9-2.1-3.1
		c-0.8-1.2-1.6-2.2-2.2-3l0.8-0.6l0.6,0.7c0.4,0.5,0.6,0.7,0.8,0.6c0.3-0.1,0.9-0.4,1.7-1l8-5.6c0.8-0.6,1.4-1,1.5-1.2
		c0.1-0.2,0-0.5-0.3-1l-0.5-0.8l0.8-0.5c0.6,0.8,1.3,1.9,2.1,3.1c0.8,1.2,1.6,2.2,2.2,3l-0.8,0.5l-0.6-0.7c-0.4-0.5-0.6-0.6-0.8-0.6
		c-0.3,0-0.9,0.4-1.7,1L207.5,68.7z"/>
	<path class="st2" d="M215,80.1l9.1-0.8c1.1-0.1,2.1-0.2,2.4-0.4c0.4-0.2,0.4-0.7,0.2-1.1l-0.4-1l0.8-0.4c0.5,1.1,0.9,1.9,1.2,2.5
		c0.3,0.6,0.8,1.4,1.3,2.4l-0.8,0.4l-0.4-0.7c-0.3-0.4-0.8-0.6-1.5-0.5l-12.9,1c-0.9,0.1-1.7,0.2-2.5,0.3l-0.8-1.6l9.6-11.4
		c0.5-0.6,1.2-1.3,0.9-2.1l-0.4-0.9l0.8-0.4c0.7,1.4,1.2,2.5,1.6,3.4c0.4,0.8,1,1.9,1.9,3.5l-0.8,0.4l-0.6-1
		c-0.2-0.3-0.5-0.4-0.7-0.3c-0.4,0.2-0.9,0.8-1.3,1.2L215,80.1"/>
	<path class="st3" d="M215,80.1l9.1-0.8c1.1-0.1,2.1-0.2,2.4-0.4c0.4-0.2,0.4-0.7,0.2-1.1l-0.4-1l0.8-0.4c0.5,1.1,0.9,1.9,1.2,2.5
		c0.3,0.6,0.8,1.4,1.3,2.4l-0.8,0.4l-0.4-0.7c-0.3-0.4-0.8-0.6-1.5-0.5l-12.9,1c-0.9,0.1-1.7,0.2-2.5,0.3l-0.8-1.6l9.6-11.4
		c0.5-0.6,1.2-1.3,0.9-2.1l-0.4-0.9l0.8-0.4c0.7,1.4,1.2,2.5,1.6,3.4c0.4,0.8,1,1.9,1.9,3.5l-0.8,0.4l-0.6-1
		c-0.2-0.3-0.5-0.4-0.7-0.3c-0.4,0.2-0.9,0.8-1.3,1.2L215,80.1z"/>
	<path class="st2" d="M225.4,91.9c0.1,0.5,0.3,1,0.5,1.6l0.5,1.5c0.3,0.8,0.5,1.2,0.9,1.2l1.4-0.3l0.3,0.9c-0.8,0.2-1.6,0.5-2.5,0.7
		c-0.8,0.3-1.6,0.6-2.4,0.9l-0.3-0.9l1.1-0.5c0.6-0.3,0.7-0.8,0.4-1.6l-0.5-1.5c-0.2-0.5-0.4-1-0.6-1.5l-6.1,2c0.3,1,0.6,2,0.9,2.9
		c0.3,1.1,1.1,2.7,1.3,2.7l2.3-0.2l0.3,0.9l-3.7,0.9l-0.2-0.1c-0.6-1.4-1.5-4.1-1.9-5.6c-0.3-0.9-0.5-1.9-0.8-2.8
		c-0.3-1-0.7-1.9-1-2.7l0.5-0.2l0.6,0.6c0.3,0.3,0.8,0.3,1.5,0l10.2-3.3c1-0.3,1.6-0.5,1.8-0.8c0.2-0.2,0.2-0.4,0.1-1.1l-0.2-0.9
		l0.8-0.3c0.5,1.5,0.8,2.7,1.1,3.6c0.7,2.2,1.2,3.7,1.7,5c0.4,1.3,0.8,2.3,1,3.4l-0.1,0.2l-3.4,0.7l-0.3-0.8l1.7-0.7
		c0.3-0.2-0.1-1.7-0.4-2.8c-0.3-1-0.7-2-1-2.9L225.4,91.9"/>
	<path class="st3" d="M225.4,91.9c0.1,0.5,0.3,1,0.5,1.6l0.5,1.5c0.3,0.8,0.5,1.2,0.9,1.2l1.4-0.3l0.3,0.9c-0.8,0.2-1.6,0.5-2.5,0.7
		c-0.8,0.3-1.6,0.6-2.4,0.9l-0.3-0.9l1.1-0.5c0.6-0.3,0.7-0.8,0.4-1.6l-0.5-1.5c-0.2-0.5-0.4-1-0.6-1.5l-6.1,2c0.3,1,0.6,2,0.9,2.9
		c0.3,1.1,1.1,2.7,1.3,2.7l2.3-0.2l0.3,0.9l-3.7,0.9l-0.2-0.1c-0.6-1.4-1.5-4.1-1.9-5.6c-0.3-0.9-0.5-1.9-0.8-2.8
		c-0.3-1-0.7-1.9-1-2.7l0.5-0.2l0.6,0.6c0.3,0.3,0.8,0.3,1.5,0l10.2-3.3c1-0.3,1.6-0.5,1.8-0.8c0.2-0.2,0.2-0.4,0.1-1.1l-0.2-0.9
		l0.8-0.3c0.5,1.5,0.8,2.7,1.1,3.6c0.7,2.2,1.2,3.7,1.7,5c0.4,1.3,0.8,2.3,1,3.4l-0.1,0.2l-3.4,0.7l-0.3-0.8l1.7-0.7
		c0.3-0.2-0.1-1.7-0.4-2.8c-0.3-1-0.7-2-1-2.9L225.4,91.9z"/>
	<path class="st2" d="M232.8,103.4c1-0.1,1.6-0.2,1.9-0.4c0.2-0.2,0.3-0.4,0.3-1l0-0.9l0.9-0.1c0.2,1.6,0.3,2.8,0.4,4
		c0.2,1.6,0.4,3.2,0.7,4.8c0.4,2.4-0.1,4.8-3,5.1c-2.1,0.2-3.7-1.2-4.7-3l-6,5.1c-0.2,0.2-0.5,0.5-0.7,0.8c-0.1,0.2-0.2,0.6-0.2,1
		l-1,0.1c-0.1-0.8-0.1-1.6-0.2-2.3c-0.1-0.7-0.2-1.4-0.3-2.1l7.6-6.4l0.4,0.1c0.1,2.2,1.6,3.7,3.9,3.4c2-0.2,2.8-1.7,2.6-3.6
		c-0.1-0.5-0.2-1.1-0.4-1.5l-11.6,1.4c-1,0.1-1.6,0.2-1.9,0.4c-0.2,0.1-0.2,0.4-0.2,1l0,0.9l-0.9,0.1c-0.1-1-0.2-2.3-0.4-3.7
		c-0.2-1.4-0.4-2.7-0.5-3.7l0.9-0.1l0.2,0.9c0.1,0.6,0.2,0.9,0.5,0.9c0.3,0.1,0.9,0.1,1.9-0.1L232.8,103.4"/>
	<path class="st3" d="M232.8,103.4c1-0.1,1.6-0.2,1.9-0.4c0.2-0.2,0.3-0.4,0.3-1l0-0.9l0.9-0.1c0.2,1.6,0.3,2.8,0.4,4
		c0.2,1.6,0.4,3.2,0.7,4.8c0.4,2.4-0.1,4.8-3,5.1c-2.1,0.2-3.7-1.2-4.7-3l-6,5.1c-0.2,0.2-0.5,0.5-0.7,0.8c-0.1,0.2-0.2,0.6-0.2,1
		l-1,0.1c-0.1-0.8-0.1-1.6-0.2-2.3c-0.1-0.7-0.2-1.4-0.3-2.1l7.6-6.4l0.4,0.1c0.1,2.2,1.6,3.7,3.9,3.4c2-0.2,2.8-1.7,2.6-3.6
		c-0.1-0.5-0.2-1.1-0.4-1.5l-11.6,1.4c-1,0.1-1.6,0.2-1.9,0.4c-0.2,0.1-0.2,0.4-0.2,1l0,0.9l-0.9,0.1c-0.1-1-0.2-2.3-0.4-3.7
		c-0.2-1.4-0.4-2.7-0.5-3.7l0.9-0.1l0.2,0.9c0.1,0.6,0.2,0.9,0.5,0.9c0.3,0.1,0.9,0.1,1.9-0.1L232.8,103.4z"/>
	<path class="st2" d="M226.3,121.4l-2.1,0.2c-1.1,0.7-1.9,2.5-1.9,3.8c0,2,1.1,3.8,3.2,3.8c1,0,1.8-0.6,2.2-2l1-3.4
		c0.6-2,2-3.5,4.1-3.5c3.9,0,5.3,2.9,5.3,6.3c0,1.5-0.3,3.1-0.8,4.5l-0.3,0.1c-0.8-0.2-2.2-0.3-3.4-0.3v-1l2-0.1
		c0.8-0.7,1.3-2.1,1.3-3.2c0-2.2-1.3-3.3-2.9-3.3c-1.1,0-1.9,0.8-2.3,2.6l-0.7,2.7c-0.6,2.2-2,3.6-4.1,3.6c-4.1,0-5.8-3.4-5.8-7.1
		c0-1.7,0.4-3.5,1.1-5c1.4,0.3,2.8,0.4,4.2,0.4L226.3,121.4"/>
	<path class="st3" d="M226.3,121.4l-2.1,0.2c-1.1,0.7-1.9,2.5-1.9,3.8c0,2,1.1,3.8,3.2,3.8c1,0,1.8-0.6,2.2-2l1-3.4
		c0.6-2,2-3.5,4.1-3.5c3.9,0,5.3,2.9,5.3,6.3c0,1.5-0.3,3.1-0.8,4.5l-0.3,0.1c-0.8-0.2-2.2-0.3-3.4-0.3v-1l2-0.1
		c0.8-0.7,1.3-2.1,1.3-3.2c0-2.2-1.3-3.3-2.9-3.3c-1.1,0-1.9,0.8-2.3,2.6l-0.7,2.7c-0.6,2.2-2,3.6-4.1,3.6c-4.1,0-5.8-3.4-5.8-7.1
		c0-1.7,0.4-3.5,1.1-5c1.4,0.3,2.8,0.4,4.2,0.4L226.3,121.4L226.3,121.4z"/>
	<path class="st2" d="M223.7,139.4c-1-0.1-1.6-0.2-1.9-0.1c-0.2,0.1-0.3,0.3-0.5,0.9l-0.2,0.9l-0.9-0.1c0.1-1,0.4-2.3,0.5-3.7
		c0.2-1.4,0.3-2.8,0.4-3.7l0.9,0.1l0,0.9c0,0.6,0,0.9,0.2,1c0.3,0.2,0.9,0.3,1.9,0.4l9.7,1.2c1,0.1,1.6,0.2,1.9,0.1
		c0.2-0.1,0.3-0.3,0.5-0.9l0.2-0.9l0.9,0.1c-0.1,1-0.4,2.3-0.5,3.7c-0.2,1.4-0.3,2.7-0.4,3.7l-1-0.1l0-0.9c0-0.6,0-0.9-0.2-1
		c-0.3-0.2-0.9-0.3-1.9-0.4L223.7,139.4"/>
	<path class="st3" d="M223.7,139.4c-1-0.1-1.6-0.2-1.9-0.1c-0.2,0.1-0.3,0.3-0.5,0.9l-0.2,0.9l-0.9-0.1c0.1-1,0.4-2.3,0.5-3.7
		c0.2-1.4,0.3-2.8,0.4-3.7l0.9,0.1l0,0.9c0,0.6,0,0.9,0.2,1c0.3,0.2,0.9,0.3,1.9,0.4l9.7,1.2c1,0.1,1.6,0.2,1.9,0.1
		c0.2-0.1,0.3-0.3,0.5-0.9l0.2-0.9l0.9,0.1c-0.1,1-0.4,2.3-0.5,3.7c-0.2,1.4-0.3,2.7-0.4,3.7l-1-0.1l0-0.9c0-0.6,0-0.9-0.2-1
		c-0.3-0.2-0.9-0.3-1.9-0.4L223.7,139.4z"/>
	<path class="st2" d="M221.1,151.6c-1-0.3-1.6-0.4-1.9-0.3c-0.2,0-0.4,0.3-0.6,0.9l-0.3,0.8l-0.9-0.2c0.3-0.9,0.7-2.2,1-3.6
		c0.4-1.4,0.7-2.7,0.9-3.6l0.9,0.2l-0.2,0.9c-0.1,0.6-0.1,0.9,0.1,1c0.2,0.2,0.9,0.4,1.8,0.7l11.2,3l0.7-2.7
		c0.2-0.6,0.4-1.3,0.2-1.5c-0.1-0.1-0.3-0.3-0.5-0.4l-1.6-0.5l0.2-0.9c1.5,0.4,2.6,0.6,3.8,0.7l0.1,0.2c-0.7,2.4-1.4,4.8-2,7.2
		c-0.6,2.4-1.2,4.8-1.9,7.2l-0.1,0.1c-1.1-0.5-2.1-0.8-3.6-1.3l0.2-0.9l1.6,0.3c0.3,0.1,0.5,0,0.6-0.1c0.2-0.1,0.4-0.8,0.6-1.4
		l0.7-2.7L221.1,151.6"/>
	<path class="st3" d="M221.1,151.6c-1-0.3-1.6-0.4-1.9-0.3c-0.2,0-0.4,0.3-0.6,0.9l-0.3,0.8l-0.9-0.2c0.3-0.9,0.7-2.2,1-3.6
		c0.4-1.4,0.7-2.7,0.9-3.6l0.9,0.2l-0.2,0.9c-0.1,0.6-0.1,0.9,0.1,1c0.2,0.2,0.9,0.4,1.8,0.7l11.2,3l0.7-2.7
		c0.2-0.6,0.4-1.3,0.2-1.5c-0.1-0.1-0.3-0.3-0.5-0.4l-1.6-0.5l0.2-0.9c1.5,0.4,2.6,0.6,3.8,0.7l0.1,0.2c-0.7,2.4-1.4,4.8-2,7.2
		c-0.6,2.4-1.2,4.8-1.9,7.2l-0.1,0.1c-1.1-0.5-2.1-0.8-3.6-1.3l0.2-0.9l1.6,0.3c0.3,0.1,0.5,0,0.6-0.1c0.2-0.1,0.4-0.8,0.6-1.4
		l0.7-2.7L221.1,151.6z"/>
	<path class="st2" d="M225.9,175.6l-0.7,1.7l-0.4-0.2l-4.1-6.4c-0.5-0.8-1.1-1.5-1.7-2.1l-3.6-1.5c-0.9-0.4-1.5-0.6-1.9-0.6
		c-0.2,0-0.4,0.2-0.7,0.8l-0.4,0.8l-0.9-0.4c0.4-0.9,1-2.1,1.5-3.4c0.6-1.3,1-2.6,1.4-3.5l0.9,0.4l-0.3,0.9c-0.2,0.6-0.2,0.9-0.1,1
		c0.2,0.2,0.8,0.5,1.7,0.9l3.1,1.3c1.1,0,1.7-0.1,2.3-0.2l4.6-0.7c0.6-0.1,1.4-0.3,2-0.5c0.8-0.3,1.1-0.7,1.5-1.4l0.8,0.4l-0.7,3.9
		c-1.2,0.9-2.6,1.1-4.1,1.2l-5.5,0.5L225.9,175.6"/>
	<path class="st3" d="M225.9,175.6l-0.7,1.7l-0.4-0.2l-4.1-6.4c-0.5-0.8-1.1-1.5-1.7-2.1l-3.6-1.5c-0.9-0.4-1.5-0.6-1.9-0.6
		c-0.2,0-0.4,0.2-0.7,0.8l-0.4,0.8l-0.9-0.4c0.4-0.9,1-2.1,1.5-3.4c0.6-1.3,1-2.6,1.4-3.5l0.9,0.4l-0.3,0.9c-0.2,0.6-0.2,0.9-0.1,1
		c0.2,0.2,0.8,0.5,1.7,0.9l3.1,1.3c1.1,0,1.7-0.1,2.3-0.2l4.6-0.7c0.6-0.1,1.4-0.3,2-0.5c0.8-0.3,1.1-0.7,1.5-1.4l0.8,0.4l-0.7,3.9
		c-1.2,0.9-2.6,1.1-4.1,1.2l-5.5,0.5L225.9,175.6z"/>
</g>
<g>
	<path class="st2" d="M49.9,206.4c0.7,0.7,1.5,1.4,2.2,2.1c0.8,0.7,2.3,1.8,2.5,1.7l2-1.4l0.7,0.6l-2.9,2.8l-0.2,0.1
		c-1.2-1-3.3-2.8-4.5-3.9c-0.7-0.7-1.4-1.4-2.2-2c-0.8-0.7-1.5-1.3-2.2-1.9l0.4-0.4l0.9,0.2c0.4,0.1,0.8-0.1,1.3-0.7l7.2-8
		c0.7-0.8,1.1-1.2,1.2-1.6c0.1-0.2-0.1-0.5-0.5-0.9l-0.6-0.6l0.6-0.7c0.7,0.7,1.7,1.6,2.7,2.6c1,0.9,2.1,1.8,2.8,2.4l-0.6,0.7
		l-0.7-0.5c-0.5-0.4-0.8-0.5-1-0.4c-0.3,0.1-0.8,0.6-1.4,1.3L49.9,206.4"/>
	<path class="st3" d="M49.9,206.4c0.7,0.7,1.5,1.4,2.2,2.1c0.8,0.7,2.3,1.8,2.5,1.7l2-1.4l0.7,0.6l-2.9,2.8l-0.2,0.1
		c-1.2-1-3.3-2.8-4.5-3.9c-0.7-0.7-1.4-1.4-2.2-2c-0.8-0.7-1.5-1.3-2.2-1.9l0.4-0.4l0.9,0.2c0.4,0.1,0.8-0.1,1.3-0.7l7.2-8
		c0.7-0.8,1.1-1.2,1.2-1.6c0.1-0.2-0.1-0.5-0.5-0.9l-0.6-0.6l0.6-0.7c0.7,0.7,1.7,1.6,2.7,2.6c1,0.9,2.1,1.8,2.8,2.4l-0.6,0.7
		l-0.7-0.5c-0.5-0.4-0.8-0.5-1-0.4c-0.3,0.1-0.8,0.6-1.4,1.3L49.9,206.4z"/>
	<path class="st2" d="M73.7,205.4c-4.6-3.1-9.3-2.6-12.5,2.1c-3.1,4.6-2,8.8,2.5,11.8c4.6,3.1,9.3,2.6,12.5-2.1
		C79.2,212.7,78.1,208.5,73.7,205.4 M72.9,206.6c2.8,1.9,2.2,5.8,0,9.1c-2,3-4.8,5.1-8.5,2.6c-2.8-1.9-2.2-5.7,0-9
		C66.5,206.2,69.2,204.1,72.9,206.6z"/>
	<path class="st3" d="M73.7,205.4c-4.6-3.1-9.3-2.6-12.5,2.1c-3.1,4.6-2,8.8,2.5,11.8c4.6,3.1,9.3,2.6,12.5-2.1
		C79.2,212.7,78.1,208.5,73.7,205.4z M72.9,206.6c2.8,1.9,2.2,5.8,0,9.1c-2,3-4.8,5.1-8.5,2.6c-2.8-1.9-2.2-5.7,0-9
		C66.5,206.2,69.2,204.1,72.9,206.6z"/>
	<path class="st2" d="M77.9,221.6l-0.7,2c0.2,1.3,1.6,2.7,2.7,3.2c1.9,0.8,3.9,0.6,4.7-1.4c0.4-0.9,0.2-1.9-0.9-2.9l-2.7-2.3
		c-1.6-1.4-2.4-3.3-1.5-5.2c1.6-3.5,4.8-3.7,8-2.3c1.4,0.6,2.7,1.5,3.8,2.6l0,0.3c-0.5,0.6-1.2,1.8-1.7,3l-0.9-0.4l0.7-1.9
		c-0.3-1-1.3-2.1-2.4-2.5c-2-0.9-3.5-0.1-4.2,1.3c-0.4,1-0.1,2,1.4,3.2l2.2,1.8c1.8,1.4,2.5,3.3,1.6,5.3c-1.7,3.7-5.4,3.9-8.8,2.4
		c-1.6-0.7-3-1.7-4.1-3.1c0.8-1.2,1.5-2.4,2-3.6L77.9,221.6"/>
	<path class="st3" d="M77.9,221.6l-0.7,2c0.2,1.3,1.6,2.7,2.7,3.2c1.9,0.8,3.9,0.6,4.7-1.4c0.4-0.9,0.2-1.9-0.9-2.9l-2.7-2.3
		c-1.6-1.4-2.4-3.3-1.5-5.2c1.6-3.5,4.8-3.7,8-2.3c1.4,0.6,2.7,1.5,3.8,2.6l0,0.3c-0.5,0.6-1.2,1.8-1.7,3l-0.9-0.4l0.7-1.9
		c-0.3-1-1.3-2.1-2.4-2.5c-2-0.9-3.5-0.1-4.2,1.3c-0.4,1-0.1,2,1.4,3.2l2.2,1.8c1.8,1.4,2.5,3.3,1.6,5.3c-1.7,3.7-5.4,3.9-8.8,2.4
		c-1.6-0.7-3-1.7-4.1-3.1c0.8-1.2,1.5-2.4,2-3.6L77.9,221.6z"/>
	<path class="st2" d="M105.9,230.7l0.5,2.9c0.2,0.8-0.2,1.3-0.6,1.2l-1.3-0.2l-0.2,0.9c1.6,0.3,2.8,0.5,3.7,0.6s2.1,0.4,3.7,0.8
		l0.2-0.9l-0.6-0.2c-0.7-0.2-0.9-0.6-1.1-1.3l-3.3-15.5l-1.7-0.3l-0.6,0.9l-0.6,0.9l-0.9,1.5l-6.3,9.5c-0.4,0.6-1,1.2-1.6,1.2
		l-0.7-0.1l-0.2,0.9c1.1,0.2,2,0.3,2.7,0.4c0.7,0.1,1.5,0.4,2.7,0.6l0.2-0.9l-1.2-0.3c-0.4-0.1-0.8-0.6-0.3-1.4l1.5-2.4L105.9,230.7
		 M104.4,222.8l1.3,6.5l-4.8-0.9L104.4,222.8z"/>
	<path class="st3" d="M105.9,230.7l0.5,2.9c0.2,0.8-0.2,1.3-0.6,1.2l-1.3-0.2l-0.2,0.9c1.6,0.3,2.8,0.5,3.7,0.6s2.1,0.4,3.7,0.8
		l0.2-0.9l-0.6-0.2c-0.7-0.2-0.9-0.6-1.1-1.3l-3.3-15.5l-1.7-0.3l-0.6,0.9l-0.6,0.9l-0.9,1.5l-6.3,9.5c-0.4,0.6-1,1.2-1.6,1.2
		l-0.7-0.1l-0.2,0.9c1.1,0.2,2,0.3,2.7,0.4c0.7,0.1,1.5,0.4,2.7,0.6l0.2-0.9l-1.2-0.3c-0.4-0.1-0.8-0.6-0.3-1.4l1.5-2.4L105.9,230.7
		z M104.4,222.8l1.3,6.5l-4.8-0.9L104.4,222.8z"/>
	<path class="st2" d="M116.3,224.3c0-1,0-1.7-0.1-1.9c-0.1-0.2-0.3-0.4-1-0.4l-0.9-0.1l0-0.9c1,0,1.9,0.1,2.9,0.1c0.7,0,1.3,0,2,0
		c0.8,1.1,1.6,2.2,2.4,3.2l7.3,8.9l0.1-8.6c0-1,0-1.7-0.1-1.9c-0.1-0.2-0.4-0.4-1-0.4l-0.9-0.1l0-0.9c0.9,0,1.8,0.1,2.8,0.1
		c0.9,0,1.8,0,2.7,0l0,0.9l-0.9,0.1c-0.6,0-0.9,0.1-1,0.4c-0.1,0.3-0.2,0.9-0.2,1.9l-0.2,10.9c0,0.8,0,1.7,0,2.4l-0.2,0.1l-2-0.4
		c-1-1.1-2-2.3-2.9-3.4l-7.6-9.5h-0.1l-0.2,9.4c0,1,0,1.7,0.1,1.9c0.1,0.2,0.3,0.4,1,0.4l0.9,0.1l0,0.9c-0.9,0-1.8-0.1-2.7-0.1
		c-0.9,0-1.8,0-2.8,0l0-0.9l0.9-0.1c0.6,0,0.9-0.1,1-0.4c0.2-0.3,0.2-0.9,0.2-1.9L116.3,224.3"/>
	<path class="st3" d="M116.3,224.3c0-1,0-1.7-0.1-1.9c-0.1-0.2-0.3-0.4-1-0.4l-0.9-0.1l0-0.9c1,0,1.9,0.1,2.9,0.1c0.7,0,1.3,0,2,0
		c0.8,1.1,1.6,2.2,2.4,3.2l7.3,8.9l0.1-8.6c0-1,0-1.7-0.1-1.9c-0.1-0.2-0.4-0.4-1-0.4l-0.9-0.1l0-0.9c0.9,0,1.8,0.1,2.8,0.1
		c0.9,0,1.8,0,2.7,0l0,0.9l-0.9,0.1c-0.6,0-0.9,0.1-1,0.4c-0.1,0.3-0.2,0.9-0.2,1.9l-0.2,10.9c0,0.8,0,1.7,0,2.4l-0.2,0.1l-2-0.4
		c-1-1.1-2-2.3-2.9-3.4l-7.6-9.5h-0.1l-0.2,9.4c0,1,0,1.7,0.1,1.9c0.1,0.2,0.3,0.4,1,0.4l0.9,0.1l0,0.9c-0.9,0-1.8-0.1-2.7-0.1
		c-0.9,0-1.8,0-2.8,0l0-0.9l0.9-0.1c0.6,0,0.9-0.1,1-0.4c0.2-0.3,0.2-0.9,0.2-1.9L116.3,224.3z"/>
	<path class="st2" d="M151.4,233.7c-2.1,1.2-4.3,2.1-6.7,2.5c-5.4,0.9-9.9-1.6-10.8-7.2c-0.9-5.5,3.1-8.9,8.2-9.7
		c2.2-0.3,4.3-0.5,6.7,0.1l0.2,0.2c-0.1,0.9,0,2.7,0,3.7l-0.9,0.1l-0.4-2c-1.1-0.9-3.3-1.2-5.2-0.9c-3.9,0.6-5.6,3.8-5,7.5
		c0.6,4.1,3.3,7.4,7.6,6.7c1.1-0.2,2-0.5,2.9-1.1l-0.5-3.1c-0.1-0.7-0.7-0.8-1.5-0.7l-1.3,0.1l-0.1-1c1.2-0.2,2.3-0.3,3.5-0.5
		c1.2-0.2,2.3-0.4,3.5-0.6l0.1,0.8c-0.8,0.3-0.9,0.4-0.8,1L151.4,233.7"/>
	<path class="st3" d="M151.4,233.7c-2.1,1.2-4.3,2.1-6.7,2.5c-5.4,0.9-9.9-1.6-10.8-7.2c-0.9-5.5,3.1-8.9,8.2-9.7
		c2.2-0.3,4.3-0.5,6.7,0.1l0.2,0.2c-0.1,0.9,0,2.7,0,3.7l-0.9,0.1l-0.4-2c-1.1-0.9-3.3-1.2-5.2-0.9c-3.9,0.6-5.6,3.8-5,7.5
		c0.6,4.1,3.3,7.4,7.6,6.7c1.1-0.2,2-0.5,2.9-1.1l-0.5-3.1c-0.1-0.7-0.7-0.8-1.5-0.7l-1.3,0.1l-0.1-1c1.2-0.2,2.3-0.3,3.5-0.5
		c1.2-0.2,2.3-0.4,3.5-0.6l0.1,0.8c-0.8,0.3-0.9,0.4-0.8,1L151.4,233.7z"/>
	<path class="st2" d="M157.8,223.2c0.5-0.1,1-0.3,1.6-0.4l1.5-0.5c0.8-0.3,1.2-0.4,1.1-0.9l-0.3-1.4l0.9-0.3
		c0.2,0.8,0.5,1.6,0.7,2.5c0.3,0.8,0.6,1.6,0.9,2.4l-0.9,0.3l-0.5-1.1c-0.3-0.6-0.8-0.7-1.6-0.4l-1.5,0.5c-0.5,0.2-1,0.4-1.5,0.6
		l2,6.1c1-0.3,2-0.6,2.9-0.9c1.1-0.3,2.7-1.1,2.7-1.3l-0.2-2.3l0.9-0.3l0.9,3.7l-0.1,0.2c-1.4,0.6-4.1,1.5-5.6,1.9
		c-0.9,0.3-1.9,0.5-2.8,0.9c-1,0.3-1.9,0.7-2.7,1l-0.2-0.5l0.6-0.6c0.3-0.3,0.3-0.7,0-1.4l-3.3-10.2c-0.3-1-0.5-1.6-0.8-1.8
		c-0.2-0.2-0.5-0.2-1.1-0.1l-0.9,0.2l-0.3-0.9c1.5-0.5,2.7-0.8,3.6-1.1c2.1-0.7,3.7-1.2,5-1.7c1.3-0.4,2.3-0.8,3.4-1l0.2,0.1
		l0.7,3.4l-0.8,0.3l-0.7-1.7c-0.2-0.3-1.7,0.1-2.8,0.4c-1,0.3-2,0.7-2.9,1L157.8,223.2"/>
	<path class="st3" d="M157.8,223.2c0.5-0.1,1-0.3,1.6-0.4l1.5-0.5c0.8-0.3,1.2-0.4,1.1-0.9l-0.3-1.4l0.9-0.3
		c0.2,0.8,0.5,1.6,0.7,2.5c0.3,0.8,0.6,1.6,0.9,2.4l-0.9,0.3l-0.5-1.1c-0.3-0.6-0.8-0.7-1.6-0.4l-1.5,0.5c-0.5,0.2-1,0.4-1.5,0.6
		l2,6.1c1-0.3,2-0.6,2.9-0.9c1.1-0.3,2.7-1.1,2.7-1.3l-0.2-2.3l0.9-0.3l0.9,3.7l-0.1,0.2c-1.4,0.6-4.1,1.5-5.6,1.9
		c-0.9,0.3-1.9,0.5-2.8,0.9c-1,0.3-1.9,0.7-2.7,1l-0.2-0.5l0.6-0.6c0.3-0.3,0.3-0.7,0-1.4l-3.3-10.2c-0.3-1-0.5-1.6-0.8-1.8
		c-0.2-0.2-0.5-0.2-1.1-0.1l-0.9,0.2l-0.3-0.9c1.5-0.5,2.7-0.8,3.6-1.1c2.1-0.7,3.7-1.2,5-1.7c1.3-0.4,2.3-0.8,3.4-1l0.2,0.1
		l0.7,3.4l-0.8,0.3l-0.7-1.7c-0.2-0.3-1.7,0.1-2.8,0.4c-1,0.3-2,0.7-2.9,1L157.8,223.2z"/>
	<path class="st2" d="M175.5,224.4c0.9-0.4,1.9-0.9,2.8-1.3c1-0.5,2.5-1.5,2.4-1.7l-0.6-2.4l0.8-0.4l1.6,3.7l0,0.2
		c-1.3,0.8-3.8,2.1-5.2,2.8c-0.9,0.4-1.8,0.8-2.7,1.3c-0.9,0.5-1.8,0.9-2.5,1.4l-0.2-0.5l0.5-0.7c0.2-0.4,0.1-0.8-0.2-1.4l-4.9-9.6
		c-0.5-0.9-0.8-1.5-1-1.7c-0.2-0.1-0.4-0.1-1,0.1l-0.8,0.3l-0.4-0.9c0.9-0.4,2.1-1,3.4-1.6c1.3-0.6,2.4-1.3,3.3-1.8l0.4,0.9
		l-0.8,0.5c-0.5,0.3-0.7,0.5-0.7,0.8c0,0.3,0.3,0.9,0.7,1.8L175.5,224.4"/>
	<path class="st3" d="M175.5,224.4c0.9-0.4,1.9-0.9,2.8-1.3c1-0.5,2.5-1.5,2.4-1.7l-0.6-2.4l0.8-0.4l1.6,3.7l0,0.2
		c-1.3,0.8-3.8,2.1-5.2,2.8c-0.9,0.4-1.8,0.8-2.7,1.3c-0.9,0.5-1.8,0.9-2.5,1.4l-0.2-0.5l0.5-0.7c0.2-0.4,0.1-0.8-0.2-1.4l-4.9-9.6
		c-0.5-0.9-0.8-1.5-1-1.7c-0.2-0.1-0.4-0.1-1,0.1l-0.8,0.3l-0.4-0.9c0.9-0.4,2.1-1,3.4-1.6c1.3-0.6,2.4-1.3,3.3-1.8l0.4,0.9
		l-0.8,0.5c-0.5,0.3-0.7,0.5-0.7,0.8c0,0.3,0.3,0.9,0.7,1.8L175.5,224.4z"/>
	<path class="st2" d="M183.1,210.9c0.5-0.3,0.9-0.6,1.4-0.9l1.3-0.9c0.7-0.5,1.1-0.8,0.8-1.2l-0.7-1.2l0.8-0.6
		c0.5,0.7,0.9,1.4,1.4,2.1c0.5,0.7,1,1.4,1.6,2.1l-0.8,0.6l-0.8-0.9c-0.4-0.5-0.9-0.4-1.6,0.1l-1.3,0.9c-0.4,0.3-0.9,0.6-1.3,1
		l3.7,5.3c0.9-0.5,1.7-1.1,2.6-1.7c0.9-0.6,2.2-1.8,2.2-2l-0.8-2.2l0.8-0.5l2,3.3l0,0.2c-1.2,1-3.5,2.6-4.8,3.4
		c-0.8,0.6-1.7,1.1-2.5,1.6c-0.8,0.6-1.6,1.2-2.3,1.7l-0.3-0.4l0.4-0.8c0.2-0.4,0-0.8-0.4-1.4l-6.2-8.8c-0.6-0.8-1-1.4-1.3-1.5
		c-0.2-0.1-0.5-0.1-1,0.2l-0.8,0.4l-0.5-0.7c1.3-0.9,2.4-1.6,3.1-2.1c1.9-1.3,3.2-2.3,4.3-3.1c1.1-0.8,2-1.4,2.9-2l0.2,0.1l1.7,3
		l-0.7,0.5l-1.2-1.4c-0.2-0.3-1.6,0.6-2.5,1.2c-0.8,0.6-1.7,1.2-2.5,1.8L183.1,210.9"/>
	<path class="st3" d="M183.1,210.9c0.5-0.3,0.9-0.6,1.4-0.9l1.3-0.9c0.7-0.5,1.1-0.8,0.8-1.2l-0.7-1.2l0.8-0.6
		c0.5,0.7,0.9,1.4,1.4,2.1c0.5,0.7,1,1.4,1.6,2.1l-0.8,0.6l-0.8-0.9c-0.4-0.5-0.9-0.4-1.6,0.1l-1.3,0.9c-0.4,0.3-0.9,0.6-1.3,1
		l3.7,5.3c0.9-0.5,1.7-1.1,2.6-1.7c0.9-0.6,2.2-1.8,2.2-2l-0.8-2.2l0.8-0.5l2,3.3l0,0.2c-1.2,1-3.5,2.6-4.8,3.4
		c-0.8,0.6-1.7,1.1-2.5,1.6c-0.8,0.6-1.6,1.2-2.3,1.7l-0.3-0.4l0.4-0.8c0.2-0.4,0-0.8-0.4-1.4l-6.2-8.8c-0.6-0.8-1-1.4-1.3-1.5
		c-0.2-0.1-0.5-0.1-1,0.2l-0.8,0.4l-0.5-0.7c1.3-0.9,2.4-1.6,3.1-2.1c1.9-1.3,3.2-2.3,4.3-3.1c1.1-0.8,2-1.4,2.9-2l0.2,0.1l1.7,3
		l-0.7,0.5l-1.2-1.4c-0.2-0.3-1.6,0.6-2.5,1.2c-0.8,0.6-1.7,1.2-2.5,1.8L183.1,210.9z"/>
	<path class="st2" d="M194.5,207.7l1.5,1.5c1.2,0.4,3.1-0.3,4.1-1.1c1.5-1.4,2.1-3.3,0.7-4.9c-0.7-0.8-1.7-0.9-3-0.3l-3.2,1.5
		c-1.9,0.9-4,0.9-5.4-0.7c-2.6-2.9-1.4-5.9,1.2-8.2c1.1-1,2.5-1.9,3.9-2.4l0.3,0.1c0.3,0.7,1.2,1.8,2,2.8l-0.7,0.7l-1.4-1.4
		c-1.1-0.1-2.4,0.4-3.3,1.2c-1.7,1.5-1.6,3.2-0.5,4.4c0.7,0.8,1.8,0.9,3.5,0l2.5-1.3c2-1.1,4-1,5.5,0.6c2.7,3,1.4,6.6-1.4,9
		c-1.3,1.2-2.8,2.1-4.5,2.5c-0.7-1.2-1.6-2.3-2.5-3.3L194.5,207.7"/>
	<path class="st3" d="M194.5,207.7l1.5,1.5c1.2,0.4,3.1-0.3,4.1-1.1c1.5-1.4,2.1-3.3,0.7-4.9c-0.7-0.8-1.7-0.9-3-0.3l-3.2,1.5
		c-1.9,0.9-4,0.9-5.4-0.7c-2.6-2.9-1.4-5.9,1.2-8.2c1.1-1,2.5-1.9,3.9-2.4l0.3,0.1c0.3,0.7,1.2,1.8,2,2.8l-0.7,0.7l-1.4-1.4
		c-1.1-0.1-2.4,0.4-3.3,1.2c-1.7,1.5-1.6,3.2-0.5,4.4c0.7,0.8,1.8,0.9,3.5,0l2.5-1.3c2-1.1,4-1,5.5,0.6c2.7,3,1.4,6.6-1.4,9
		c-1.3,1.2-2.8,2.1-4.5,2.5c-0.7-1.2-1.6-2.3-2.5-3.3L194.5,207.7z"/>
</g>
<polyline class="st4" points="114.5,165.9 112.1,163.8 95.8,148.8 96,140.7 93.3,137.7 93.8,133.8 92.1,132.3 90.4,133.4 
	86.8,130.8 85.3,127.8 85.1,126 84.6,125.2 85,124.4 89.1,127.7 90.6,125.9 89.5,123.6 89.6,121.2 88.3,121.2 88.1,117 86,117.7 
	85.2,119.6 84.2,121.6 81.9,119.4 80,118.9 79.3,117 78.1,113.5 76.8,110.8 74.9,107.1 74.7,98.7 73.3,96.8 72.8,93.6 71.1,90.9 
	71.1,86.4 72,82.1 73,79 71.4,76.8 71.4,73.8 70.7,70.2 98.7,70.1 98.7,102.5 99.1,109.2 120.1,109.1 174.8,157.6 175,160.8 
	178.2,164.1 177.3,171.6 177.4,175.6 175.9,178.3 175.5,181.8 162.5,185 152.7,187.3 133,175 "/>
<g>
	<path class="st2" d="M115.8,166.7l-21.4-11.6l19.9,13.5 M113.9,169.5l-24.7-2.6l24.4,4.9 M113.5,173.8l-23.7,5l24.4-2.6
		 M114.5,176.6l-18.8,13.9l19.9-11.9 M116.7,179.8l-13.2,20l15.1-18.6 M119.4,181.5l-2.8,23.4l5-22.8 M123.6,182.3l5.6,23.3
		l-3.3-23.8 M127.7,181.1l15.9,19.3l-13.9-20.5 M130.7,178.6l21.4,11.9L132,176.7 M132.4,175.3l24.9,2.7l-24.4-4.9 M132.8,172.3
		l23.8-6.1l-24.2,3.9 M131.8,168.5l19.6-14.6l-20.9,12.7 M129.4,165.4l12.2-20.8l-14.1,19.5 M126.2,163.6l4.3-23.6l-6.6,23.1
		 M122.2,163.1l-6.2-23.8l3.9,24.1 M118.3,164.6l-14.8-19.3l12.9,20.7 M116.4,166c-0.2,0.2-0.4,0.4-0.6,0.7"/>
	<path class="st5" d="M115.8,166.7l-21.4-11.6l19.9,13.5 M113.9,169.5l-24.7-2.6l24.4,4.9 M113.5,173.8l-23.7,5l24.4-2.6
		 M114.5,176.6l-18.8,13.9l19.9-11.9 M116.7,179.8l-13.2,20l15.1-18.6 M119.4,181.5l-2.8,23.4l5-22.8 M123.6,182.3l5.6,23.3
		l-3.3-23.8 M127.7,181.1l15.9,19.3l-13.9-20.5 M130.7,178.6l21.4,11.9L132,176.7 M132.4,175.3l24.9,2.7l-24.4-4.9 M132.8,172.3
		l23.8-6.1l-24.2,3.9 M131.8,168.5l19.6-14.6l-20.9,12.7 M129.4,165.4l12.2-20.8l-14.1,19.5 M126.2,163.6l4.3-23.6l-6.6,23.1
		 M122.2,163.1l-6.2-23.8l3.9,24.1 M118.3,164.6l-14.8-19.3l12.9,20.7 M116.4,166c-0.2,0.2-0.4,0.4-0.6,0.7"/>
	<path class="st2" d="M125.1,58l0.3-14.4h-5.6l0.8,15l4.6-0.2 M167.6,78.1l8.7-16.8l-4.5-3.6l-4.2,10.2V78.1z M127.4,163.8l27-55.5
		l-2.6-1.5l-25.2,56.8 M124,163.1l1-57.1l-3.4,1.8l1,55.2 M119.2,163.7L79,58.7l-4.3,3.2l43.8,102 M116,166L49.8,96.8l-1.3,5.1
		l67.2,64.6 M114.2,169l-67.6-32.2l0.8,5.8l66.5,27 M113.5,172.7l-54.1-2.8l3.8,5.1l50.3-1.7 M114.3,176l-37.3,11.9l5.3,4.1
		l32.1-15.1 M116.1,178.9l-23.1,19.2l4.9,2.1l18.8-20.5 M118.6,181L106.4,203l5.8,1.1l7.3-22.5 M122.2,182.2l-1.5,23.2h3.8
		l-1.2-23.1 M126.5,181.7l8.4,23.1l4.7-0.9L128,181 M129.8,179.7l20.3,21.9l5.4-1.9l-24.9-20.7 M132,176.6l36,16.8l4.5-3.2
		c0,0-25.6-9.1-40.1-14.3 M132.9,173.4l56,2.1l3.9-5.4l-59.9,2.5 M132.4,169.6l72.5-27.9l0.8-6.1c0,0-51.8,23.3-73.6,33.1
		 M130.3,165.9L202,98.2l-2-5.5l-70.4,72.9"/>
	<path class="st6" d="M132.6,172.5c0,5.2-4.2,9.4-9.4,9.4c-5.2,0-9.4-4.2-9.4-9.4s4.2-9.4,9.4-9.4
		C128.4,163.1,132.6,167.3,132.6,172.5z"/>
	<path class="st2" d="M130.5,172.6c0,4-3.2,7.2-7.2,7.2c-4,0-7.2-3.2-7.2-7.2c0-4,3.2-7.2,7.2-7.2
		C127.2,165.3,130.5,168.6,130.5,172.6"/>
</g>
<g>
	<path class="st2" d="M167.1,105.9c0,0-6.5,1.9-11.9-0.6c-4-1.9-7.4-2.8-13.2-2.2c-2.9,0.3-5.3,2.2-6.2,2.7
		c-0.1,0.1-2.6-1.4-5.8-2.3c-3-0.8-7.2-0.7-9.3,0c-2.8,0.9-4.6,2.8-12.1,3c-1,0-3.3-0.6-5.4-1.1c-0.4-0.1-4.5,4.3-4.5,4.3h71.5
		L167.1,105.9z"/>
	<path class="st7" d="M167.1,105.9c0,0-6.5,1.9-11.9-0.6c-4-1.9-7.4-2.8-13.2-2.2c-2.9,0.3-5.3,2.2-6.2,2.7
		c-0.1,0.1-2.6-1.4-5.8-2.3c-3-0.8-7.2-0.7-9.3,0c-2.8,0.9-4.6,2.8-12.1,3c-1,0-3.3-0.6-5.4-1.1c-0.4-0.1-4.5,4.3-4.5,4.3h71.5
		L167.1,105.9z"/>
	<path class="st8" d="M153.7,59.1c0,0-11.7-4.5-18.1,2.6v44.5c0.1,0,8.6-6.3,18.9-0.4c0,0,7.4,3,12.5,0.2V59.1
		C167,59.2,163.1,61.8,153.7,59.1z M117.6,59.1c0.1,0,11.8-4.5,18.1,2.6v44.5c0,0-8.6-6.3-18.9-0.4c0.1,0-8.9,2.4-14.1-0.4l0-47.4
		C102.7,58,108.2,61.8,117.6,59.1z"/>
	<polyline class="st2" points="98.7,109.2 98.7,61.5 102.7,58 102.7,105.4 98.7,109.3 98.7,109.2 	"/>
	<polygon class="st9" points="98.7,109.2 98.7,61.5 102.7,58 102.7,105.4 98.7,109.3 	"/>
	<polyline class="st2" points="167,59.1 170.2,62.5 170.2,109.3 167,106 167,59.1 	"/>
	<polygon class="st9" points="167,59.1 170.2,62.5 170.2,109.3 167,106 	"/>
	<path class="st2" d="M120.9,95.2c5.9-2.2,8.3-7.9,8.3-14.6c0-5.3-1.8-8.8-4.9-8.8c-3.1,0-5.2,3.4-5.2,7.7c0,3.7,1.5,6.6,4.3,6.6
		c0.6,0,1.5-0.3,2-0.8l1.6-1.9c-0.1,5.7-3,9.8-6.9,11.1v0.3L120.9,95.2 M124.2,84.1c-2.2,0-3.2-2.9-3.2-5.6c0-2.7,0.7-5.5,3.1-5.6
		c2.3-0.1,3,3.6,3,6.3C127.2,81.8,126.1,84.1,124.2,84.1z"/>
	<path class="st10" d="M120.9,95.2c5.9-2.2,8.3-7.9,8.3-14.6c0-5.3-1.8-8.8-4.9-8.8c-3.1,0-5.2,3.4-5.2,7.7c0,3.7,1.5,6.6,4.3,6.6
		c0.6,0,1.5-0.3,2-0.8l1.6-1.9c-0.1,5.7-3,9.8-6.9,11.1v0.3L120.9,95.2z M124.2,84.1c-2.2,0-3.2-2.9-3.2-5.6c0-2.7,0.7-5.5,3.1-5.6
		c2.3-0.1,3,3.6,3,6.3C127.2,81.8,126.1,84.1,124.2,84.1z"/>
	<path class="st2" d="M146.2,81.4h-4.7l4.7-7.7h0V81.4 M146.2,82.8v1.7c0,1.5-0.4,1.6-1.3,1.7l-1.4,0.1v0.7c1.1,0,2.3-0.1,3.4-0.1
		c1.2,0,2.3,0,3.5,0.1v-0.7l-1.1-0.1c-0.9-0.1-1.3-0.2-1.3-1.7v-1.7c0.9,0,1.7,0,2.4,0.1v-1.6c-0.8,0.1-1.6,0.1-2.4,0.1v-3.1
		c0-3.3,0-6,0.1-6.7l-0.3-0.1l-1.6,0.6L140,82.3l0.2,0.5L146.2,82.8L146.2,82.8L146.2,82.8z"/>
	<path class="st10" d="M146.2,81.4h-4.7l4.7-7.7h0V81.4z M146.2,82.8v1.7c0,1.5-0.4,1.6-1.3,1.7l-1.4,0.1v0.7c1.1,0,2.3-0.1,3.4-0.1
		c1.2,0,2.3,0,3.5,0.1v-0.7l-1.1-0.1c-0.9-0.1-1.3-0.2-1.3-1.7v-1.7c0.9,0,1.7,0,2.4,0.1v-1.6c-0.8,0.1-1.6,0.1-2.4,0.1v-3.1
		c0-3.3,0-6,0.1-6.7l-0.3-0.1l-1.6,0.6L140,82.3l0.2,0.5L146.2,82.8L146.2,82.8L146.2,82.8z"/>
	<path class="st2" d="M158.3,80.7c0.8-1.9,1.6-3.9,2.4-6.5h-5.9c-1.1,0.2-1.2,0.6-1.3,2.4l-0.1,1.8h-0.7c0-1.1,0.1-2.2,0.1-3.3
		c0-1.1,0-2.1-0.1-3.2l0.2-0.2c1.6,0.1,3.2,0.2,4.9,0.2c1.6,0,3.3-0.1,4.9-0.2v0.9l-4,10.3c-1.4,3.5-2.6,7.1-3.4,10.5
		c-0.3,0-0.7-0.1-1-0.1c-0.3,0-0.7,0.1-1,0.1L153,93L158.3,80.7"/>
	<path class="st11" d="M158.3,80.7c0.8-1.9,1.6-3.9,2.4-6.5h-5.9c-1.1,0.2-1.2,0.6-1.3,2.4l-0.1,1.8h-0.7c0-1.1,0.1-2.2,0.1-3.3
		c0-1.1,0-2.1-0.1-3.2l0.2-0.2c1.6,0.1,3.2,0.2,4.9,0.2c1.6,0,3.3-0.1,4.9-0.2v0.9l-4,10.3c-1.4,3.5-2.6,7.1-3.4,10.5
		c-0.3,0-0.7-0.1-1-0.1c-0.3,0-0.7,0.1-1,0.1L153,93L158.3,80.7z"/>
	<path class="st2" d="M109.2,73.6c1.9-0.6,3.8-1.4,5.3-2.1l0.3,0.1v13.1c0,0.5,0,0.9,0.3,1.2c0.3,0.2,0.7,0.3,1.2,0.3l1.2,0.1v0.7
		c-1.7,0-2.7-0.1-3.7-0.1c-1,0-1.9,0-3.8,0.1v-0.7l1.3-0.1c0.5,0,0.9-0.1,1.2-0.3c0.3-0.2,0.3-0.6,0.3-1.2V74c0-0.4,0-0.8-0.3-0.7
		l-3,1.3h-0.2L109.2,73.6"/>
	<path class="st11" d="M109.2,73.6c1.9-0.6,3.8-1.4,5.3-2.1l0.3,0.1v13.1c0,0.5,0,0.9,0.3,1.2c0.3,0.2,0.7,0.3,1.2,0.3l1.2,0.1v0.7
		c-1.7,0-2.7-0.1-3.7-0.1c-1,0-1.9,0-3.8,0.1v-0.7l1.3-0.1c0.5,0,0.9-0.1,1.2-0.3c0.3-0.2,0.3-0.6,0.3-1.2V74c0-0.4,0-0.8-0.3-0.7
		l-3,1.3h-0.2L109.2,73.6z"/>
</g>
</svg>
