<?xml version="1.0" encoding="utf-8"?>
<!-- Generator: Adobe Illustrator 22.0.1, SVG Export Plug-In . SVG Version: 6.00 Build 0)  -->
<svg version="1.1" id="Layer_1" xmlns="http://www.w3.org/2000/svg" xmlns:xlink="http://www.w3.org/1999/xlink" x="0px" y="0px"
	 width="250.1px" height="250.1px" viewBox="0 0 250.1 250.1" enable-background="new 0 0 250.1 250.1" xml:space="preserve">
<path fill="none" stroke="#231F20" stroke-width="6.0961" d="M3.1,124.95C3.18,57.76,57.8,3.05,125.15,3.1
	C192.31,3.05,247.02,57.76,247,124.95c0.02,67.38-54.69,122.01-121.85,122.05C57.8,246.96,3.18,192.32,3.1,124.95z"/>
<path fill="#FFCE00" stroke="#231F20" stroke-width="3.0716" stroke-miterlimit="3.864" d="M36.34,124.68
	c-0.05-48.87,39.79-88.8,88.82-88.83c48.86,0.03,88.78,39.96,88.84,88.83c-0.07,49.07-39.98,88.92-88.84,88.84
	C76.13,213.6,36.29,173.75,36.34,124.68z"/>
<g>
	<path fill="#231F20" d="M33.67,156.7c1.58,1.13,2.63,2.8,3.38,4.58c2.14,5.05,0.89,9.97-4.41,12.21c-5.09,2.16-9.39-0.9-11.4-5.61
		c-0.77-1.82-1.24-3.36-1.26-5.87l0.18-0.24c0.89-0.11,2.61-0.63,3.61-0.93l0.37,0.86l-1.86,0.92c-0.67,1.56-0.47,3.13,0.16,4.63
		c1.56,3.67,5,4.51,8.5,3.03c4.05-1.72,5.98-5.31,4.2-9.49c-0.56-1.31-1.78-2.9-2.92-3.75l0.15-0.38L33.67,156.7"/>
	<path fill="none" stroke="#231F20" stroke-width="0.2628" stroke-miterlimit="3.864" d="M33.67,156.7c1.58,1.13,2.63,2.8,3.38,4.58
		c2.14,5.05,0.89,9.97-4.41,12.21c-5.09,2.16-9.39-0.9-11.4-5.61c-0.77-1.82-1.24-3.36-1.26-5.87l0.18-0.24
		c0.89-0.11,2.61-0.63,3.61-0.93l0.37,0.86l-1.86,0.92c-0.67,1.56-0.47,3.13,0.16,4.63c1.56,3.67,5,4.51,8.5,3.03
		c4.05-1.72,5.98-5.31,4.2-9.49c-0.56-1.31-1.78-2.9-2.92-3.75l0.15-0.38L33.67,156.7z"/>
	<path fill="#231F20" d="M26.74,145.89l2.43-1.67c0.68-0.48,1.26-0.34,1.37,0.03l0.36,1.22l0.87-0.2c-0.38-1.55-0.7-2.71-0.91-3.62
		c-0.21-0.91-0.43-2.07-0.77-3.65l-0.87,0.2l0.06,0.58c0.07,0.75-0.21,1.13-0.73,1.53l-12.78,9.34l0.38,1.67l1.04,0.13l1.05,0.15
		l1.76,0.24l11.24,1.87c0.75,0.12,1.5,0.4,1.71,0.99l0.23,0.69l0.87-0.2c-0.28-1.12-0.53-1.95-0.68-2.63
		c-0.16-0.68-0.3-1.54-0.54-2.67l-0.87,0.2l0.2,1.19c0.07,0.43-0.24,0.99-1.2,0.87l-2.85-0.38L26.74,145.89 M20.17,150.55l5.39-3.81
		l1.11,4.78L20.17,150.55z"/>
	<path fill="none" stroke="#231F20" stroke-width="0.2628" stroke-miterlimit="3.864" d="M26.74,145.89l2.43-1.67
		c0.68-0.48,1.26-0.34,1.37,0.03l0.36,1.22l0.87-0.2c-0.38-1.55-0.7-2.71-0.91-3.62c-0.21-0.91-0.43-2.07-0.77-3.65l-0.87,0.2
		l0.06,0.58c0.07,0.75-0.21,1.13-0.73,1.53l-12.78,9.34l0.38,1.67l1.04,0.13l1.05,0.15l1.76,0.24l11.24,1.87
		c0.75,0.12,1.5,0.4,1.71,0.99l0.23,0.69l0.87-0.2c-0.28-1.12-0.53-1.95-0.68-2.63c-0.16-0.68-0.3-1.54-0.54-2.67l-0.87,0.2
		l0.2,1.19c0.07,0.43-0.24,0.99-1.2,0.87l-2.85-0.38L26.74,145.89z M20.17,150.55l5.39-3.81l1.11,4.78L20.17,150.55z"/>
	<path fill="#231F20" d="M28.33,131.83c-0.01-1.01-0.04-2.05-0.09-3.08c-0.06-1.11-0.37-2.87-0.56-2.91l-2.48-0.42l-0.05-0.94
		l4,0.05l0.2,0.11c0.2,1.55,0.35,4.34,0.38,5.9c0.03,0.99,0.03,1.97,0.08,2.96c0.05,1.01,0.15,1.99,0.22,2.88l-0.55,0.03l-0.47-0.75
		c-0.24-0.37-0.65-0.45-1.4-0.41l-10.76,0.56c-1.01,0.05-1.66,0.11-1.93,0.27c-0.19,0.11-0.27,0.38-0.29,1l-0.02,0.89l-0.96,0.05
		c-0.03-0.98-0.05-2.31-0.12-3.75c-0.07-1.42-0.19-2.73-0.27-3.72l0.96-0.05l0.12,0.88c0.08,0.62,0.19,0.88,0.39,0.97
		c0.3,0.13,0.95,0.12,1.95,0.07L28.33,131.83"/>
	<path fill="none" stroke="#231F20" stroke-width="0.2628" stroke-miterlimit="3.864" d="M28.33,131.83
		c-0.01-1.01-0.04-2.05-0.09-3.08c-0.06-1.11-0.37-2.87-0.56-2.91l-2.48-0.42l-0.05-0.94l4,0.05l0.2,0.11
		c0.2,1.55,0.35,4.34,0.38,5.9c0.03,0.99,0.03,1.97,0.08,2.96c0.05,1.01,0.15,1.99,0.22,2.88l-0.55,0.03l-0.47-0.75
		c-0.24-0.37-0.65-0.45-1.4-0.41l-10.76,0.56c-1.01,0.05-1.66,0.11-1.93,0.27c-0.19,0.11-0.27,0.38-0.29,1l-0.02,0.89l-0.96,0.05
		c-0.03-0.98-0.05-2.31-0.12-3.75c-0.07-1.42-0.19-2.73-0.27-3.72l0.96-0.05l0.12,0.88c0.08,0.62,0.19,0.88,0.39,0.97
		c0.3,0.13,0.95,0.12,1.95,0.07L28.33,131.83z"/>
	<path fill="#231F20" d="M26.45,117.34c1.01,0.07,1.66,0.09,1.96-0.03c0.2-0.08,0.31-0.34,0.4-0.96l0.13-0.88l0.96,0.07
		c-0.09,0.98-0.24,2.3-0.33,3.71c-0.1,1.44-0.15,2.76-0.19,3.75l-0.96-0.07l-0.01-0.89c-0.01-0.63-0.08-0.9-0.27-1.01
		c-0.27-0.16-0.92-0.24-1.93-0.31l-9.79-0.68c-1.01-0.07-1.66-0.09-1.96,0.03c-0.2,0.08-0.31,0.34-0.4,0.96l-0.13,0.88l-0.96-0.07
		c0.09-0.98,0.23-2.3,0.33-3.74c0.1-1.42,0.14-2.74,0.18-3.73l0.96,0.07l0.01,0.89c0,0.63,0.08,0.9,0.27,1.01
		c0.28,0.16,0.92,0.24,1.93,0.31L26.45,117.34"/>
	<path fill="none" stroke="#231F20" stroke-width="0.2628" stroke-miterlimit="3.864" d="M26.45,117.34
		c1.01,0.07,1.66,0.09,1.96-0.03c0.2-0.08,0.31-0.34,0.4-0.96l0.13-0.88l0.96,0.07c-0.09,0.98-0.24,2.3-0.33,3.71
		c-0.1,1.44-0.15,2.76-0.19,3.75l-0.96-0.07l-0.01-0.89c-0.01-0.63-0.08-0.9-0.27-1.01c-0.27-0.16-0.92-0.24-1.93-0.31l-9.79-0.68
		c-1.01-0.07-1.66-0.09-1.96,0.03c-0.2,0.08-0.31,0.34-0.4,0.96l-0.13,0.88l-0.96-0.07c0.09-0.98,0.23-2.3,0.33-3.74
		c0.1-1.42,0.14-2.74,0.18-3.73l0.96,0.07l0.01,0.89c0,0.63,0.08,0.9,0.27,1.01c0.28,0.16,0.92,0.24,1.93,0.31L26.45,117.34z"/>
	<path fill="#231F20" d="M21.78,106.74c0.14-0.53,0.24-1.05,0.33-1.58l0.21-1.21c0.15-0.83,0.18-1.31-0.26-1.44l-1.23-0.36
		l0.16-0.95c0.75,0.16,1.57,0.35,2.43,0.5c0.85,0.15,1.71,0.25,2.57,0.38l-0.17,0.95l-1.21-0.07c-0.67-0.04-0.97,0.37-1.11,1.2
		l-0.21,1.21c-0.09,0.52-0.16,1.05-0.21,1.6l4.43,0.78c1,0.18,1.64,0.27,1.95,0.17c0.2-0.06,0.35-0.31,0.5-0.91l0.27-1.1l0.95,0.17
		c-0.24,1.2-0.51,2.5-0.76,3.89c-0.25,1.42-0.43,2.73-0.58,3.71l-0.95-0.17l0.08-0.89c0.06-0.62,0.01-0.9-0.16-1.03
		c-0.26-0.19-0.89-0.33-1.89-0.51l-9.66-1.71c-1-0.17-1.64-0.26-1.95-0.17c-0.26,0.08-0.42,0.29-0.57,0.9l-0.22,0.86l-0.88-0.15
		c0.3-1.56,0.56-2.76,0.72-3.68c0.33-1.85,0.57-3.47,0.78-4.82c0.21-1.33,0.39-2.37,0.68-3.45L16,98.77l3.3,0.93l-0.15,0.85
		l-1.81-0.13c-0.37-0.01-0.74,1.56-0.93,2.65c-0.11,0.64-0.27,1.66-0.4,2.67L21.78,106.74"/>
	<path fill="none" stroke="#231F20" stroke-width="0.2628" stroke-miterlimit="3.864" d="M21.78,106.74
		c0.14-0.53,0.24-1.05,0.33-1.58l0.21-1.21c0.15-0.83,0.18-1.31-0.26-1.44l-1.23-0.36l0.16-0.95c0.75,0.16,1.57,0.35,2.43,0.5
		c0.85,0.15,1.71,0.25,2.57,0.38l-0.17,0.95l-1.21-0.07c-0.67-0.04-0.97,0.37-1.11,1.2l-0.21,1.21c-0.09,0.52-0.16,1.05-0.21,1.6
		l4.43,0.78c1,0.18,1.64,0.27,1.95,0.17c0.2-0.06,0.35-0.31,0.5-0.91l0.27-1.1l0.95,0.17c-0.24,1.2-0.51,2.5-0.76,3.89
		c-0.25,1.42-0.43,2.73-0.58,3.71l-0.95-0.17l0.08-0.89c0.06-0.62,0.01-0.9-0.16-1.03c-0.26-0.19-0.89-0.33-1.89-0.51l-9.66-1.71
		c-1-0.17-1.64-0.26-1.95-0.17c-0.26,0.08-0.42,0.29-0.57,0.9l-0.22,0.86l-0.88-0.15c0.3-1.56,0.56-2.76,0.72-3.68
		c0.33-1.85,0.57-3.47,0.78-4.82c0.21-1.33,0.39-2.37,0.68-3.45L16,98.77l3.3,0.93l-0.15,0.85l-1.81-0.13
		c-0.37-0.01-0.74,1.56-0.93,2.65c-0.11,0.64-0.27,1.66-0.4,2.67L21.78,106.74z"/>
	<path fill="#231F20" d="M19.01,86.85c-1.79,5.21-0.11,9.63,5.26,11.48c5.18,1.79,9.02-0.35,10.78-5.44
		c1.79-5.21,0.11-9.63-5.25-11.48C24.61,79.62,20.77,81.75,19.01,86.85 M20.28,87.29c1.11-3.2,4.99-3.62,8.74-2.33
		c3.41,1.17,6.2,3.25,4.75,7.49c-1.11,3.21-4.96,3.63-8.72,2.34C21.65,93.61,18.83,91.52,20.28,87.29z"/>
	<path fill="none" stroke="#231F20" stroke-width="0.2628" stroke-miterlimit="3.864" d="M19.01,86.85
		c-1.79,5.21-0.11,9.63,5.26,11.48c5.18,1.79,9.02-0.35,10.78-5.44c1.79-5.21,0.11-9.63-5.25-11.48
		C24.61,79.62,20.77,81.75,19.01,86.85z M20.28,87.29c1.11-3.2,4.99-3.62,8.74-2.33c3.41,1.17,6.2,3.25,4.75,7.49
		c-1.11,3.21-4.96,3.63-8.72,2.34C21.65,93.61,18.83,91.52,20.28,87.29z"/>
	<path fill="#231F20" d="M28.14,75.08c-0.88-0.51-1.45-0.81-1.77-0.83c-0.27-0.02-0.49,0.13-0.85,0.65l-0.51,0.73l-0.77-0.44
		c0.82-1.36,1.47-2.4,2.08-3.47c0.82-1.42,1.58-2.84,2.38-4.26c1.19-2.15,2.96-3.73,5.44-2.3c1.83,1.06,2.27,3.14,1.9,5.23
		l7.88-0.47c0.31-0.01,0.67-0.11,1-0.23c0.25-0.1,0.47-0.34,0.78-0.69l0.83,0.48c-0.4,0.65-0.84,1.32-1.23,1.98
		c-0.36,0.63-0.68,1.27-1.02,1.91l-9.92,0.49l-0.29-0.36c1.27-1.82,0.9-3.93-1.06-5.05c-1.71-0.99-3.31-0.33-4.25,1.3
		c-0.25,0.44-0.55,1.01-0.58,1.44l10.14,5.86c0.88,0.51,1.45,0.81,1.77,0.83c0.22,0.01,0.43-0.17,0.78-0.69l0.51-0.73l0.83,0.48
		c-0.51,0.84-1.22,1.96-1.93,3.19c-0.72,1.25-1.34,2.42-1.81,3.29l-0.83-0.48l0.38-0.81c0.27-0.56,0.32-0.84,0.2-1.02
		c-0.18-0.27-0.73-0.61-1.6-1.12L28.14,75.08"/>
	<path fill="none" stroke="#231F20" stroke-width="0.2628" stroke-miterlimit="3.864" d="M28.14,75.08
		c-0.88-0.51-1.45-0.81-1.77-0.83c-0.27-0.02-0.49,0.13-0.85,0.65l-0.51,0.73l-0.77-0.44c0.82-1.36,1.47-2.4,2.08-3.47
		c0.82-1.42,1.58-2.84,2.38-4.26c1.19-2.15,2.96-3.73,5.44-2.3c1.83,1.06,2.27,3.14,1.9,5.23l7.88-0.47c0.31-0.01,0.67-0.11,1-0.23
		c0.25-0.1,0.47-0.34,0.78-0.69l0.83,0.48c-0.4,0.65-0.84,1.32-1.23,1.98c-0.36,0.63-0.68,1.27-1.02,1.91l-9.92,0.49l-0.29-0.36
		c1.27-1.82,0.9-3.93-1.06-5.05c-1.71-0.99-3.31-0.33-4.25,1.3c-0.25,0.44-0.55,1.01-0.58,1.44l10.14,5.86
		c0.88,0.51,1.45,0.81,1.77,0.83c0.22,0.01,0.43-0.17,0.78-0.69l0.51-0.73l0.83,0.48c-0.51,0.84-1.22,1.96-1.93,3.19
		c-0.72,1.25-1.34,2.42-1.81,3.29l-0.83-0.48l0.38-0.81c0.27-0.56,0.32-0.84,0.2-1.02c-0.18-0.27-0.73-0.61-1.6-1.12L28.14,75.08z"
		/>
	<path fill="#231F20" d="M38.32,58.64c-0.77-0.66-1.27-1.07-1.58-1.15c-0.26-0.07-0.51,0.04-0.96,0.47l-0.64,0.62L34.47,58
		c0.65-0.71,1.31-1.4,1.95-2.13c0.44-0.51,0.85-1.05,1.27-1.57c1.33,0.08,2.71,0.22,4.04,0.23l11.53,0.08l-6.51-5.67
		c-0.77-0.66-1.27-1.07-1.58-1.15c-0.26-0.07-0.51,0.04-0.96,0.47l-0.64,0.62L42.9,48.3c0.62-0.67,1.27-1.35,1.87-2.04
		c0.6-0.69,1.16-1.41,1.74-2.12l0.67,0.58l-0.53,0.72c-0.38,0.5-0.44,0.76-0.34,1.01c0.12,0.3,0.6,0.74,1.36,1.4l8.24,7.16
		c0.64,0.55,1.32,1.09,1.88,1.54l-0.04,0.19l-1.53,1.28c-1.48,0.02-3,0.04-4.45,0.02L39.59,57.8l-0.04,0.04l7.1,6.17
		c0.76,0.66,1.27,1.07,1.58,1.15c0.26,0.07,0.51-0.04,0.95-0.48l0.64-0.62l0.67,0.58c-0.62,0.67-1.25,1.33-1.85,2.02
		c-0.6,0.69-1.18,1.43-1.76,2.13l-0.67-0.58l0.53-0.72c0.38-0.5,0.44-0.76,0.34-1.01c-0.12-0.3-0.6-0.75-1.36-1.41L38.32,58.64"/>
	<path fill="none" stroke="#231F20" stroke-width="0.2628" stroke-miterlimit="3.864" d="M38.32,58.64
		c-0.77-0.66-1.27-1.07-1.58-1.15c-0.26-0.07-0.51,0.04-0.96,0.47l-0.64,0.62L34.47,58c0.65-0.71,1.31-1.4,1.95-2.13
		c0.44-0.51,0.85-1.05,1.27-1.57c1.33,0.08,2.71,0.22,4.04,0.23l11.53,0.08l-6.51-5.67c-0.77-0.66-1.27-1.07-1.58-1.15
		c-0.26-0.07-0.51,0.04-0.96,0.47l-0.64,0.62L42.9,48.3c0.62-0.67,1.27-1.35,1.87-2.04c0.6-0.69,1.16-1.41,1.74-2.12l0.67,0.58
		l-0.53,0.72c-0.38,0.5-0.44,0.76-0.34,1.01c0.12,0.3,0.6,0.74,1.36,1.4l8.24,7.16c0.64,0.55,1.32,1.09,1.88,1.54l-0.04,0.19
		l-1.53,1.28c-1.48,0.02-3,0.04-4.45,0.02L39.59,57.8l-0.04,0.04l7.1,6.17c0.76,0.66,1.27,1.07,1.58,1.15
		c0.26,0.07,0.51-0.04,0.95-0.48l0.64-0.62l0.67,0.58c-0.62,0.67-1.25,1.33-1.85,2.02c-0.6,0.69-1.18,1.43-1.76,2.13l-0.67-0.58
		l0.53-0.72c0.38-0.5,0.44-0.76,0.34-1.01c-0.12-0.3-0.6-0.75-1.36-1.41L38.32,58.64z"/>
	<path fill="#231F20" d="M61.93,48.36c0.66,0.76,1.11,1.24,1.4,1.36c0.2,0.08,0.46-0.02,0.96-0.39l0.72-0.53l0.63,0.73
		c-0.76,0.63-1.79,1.46-2.86,2.39c-1.09,0.95-2.05,1.85-2.78,2.52l-0.63-0.73l0.62-0.64c0.44-0.45,0.58-0.69,0.53-0.9
		c-0.08-0.31-0.49-0.82-1.15-1.58l-6.44-7.41c-0.66-0.76-1.11-1.24-1.4-1.36c-0.2-0.08-0.46,0.02-0.97,0.39l-0.72,0.53l-0.63-0.73
		c0.76-0.63,1.79-1.46,2.88-2.41c1.07-0.93,2.04-1.84,2.77-2.5l0.63,0.73l-0.62,0.64c-0.44,0.45-0.58,0.69-0.52,0.9
		c0.08,0.31,0.49,0.82,1.15,1.58L61.93,48.36"/>
	<path fill="none" stroke="#231F20" stroke-width="0.2628" stroke-miterlimit="3.864" d="M61.93,48.36c0.66,0.76,1.11,1.24,1.4,1.36
		c0.2,0.08,0.46-0.02,0.96-0.39l0.72-0.53l0.63,0.73c-0.76,0.63-1.79,1.46-2.86,2.39c-1.09,0.95-2.05,1.85-2.78,2.52l-0.63-0.73
		l0.62-0.64c0.44-0.45,0.58-0.69,0.53-0.9c-0.08-0.31-0.49-0.82-1.15-1.58l-6.44-7.41c-0.66-0.76-1.11-1.24-1.4-1.36
		c-0.2-0.08-0.46,0.02-0.97,0.39l-0.72,0.53l-0.63-0.73c0.76-0.63,1.79-1.46,2.88-2.41c1.07-0.93,2.04-1.84,2.77-2.5l0.63,0.73
		l-0.62,0.64c-0.44,0.45-0.58,0.69-0.52,0.9c0.08,0.31,0.49,0.82,1.15,1.58L61.93,48.36z"/>
	<path fill="#231F20" d="M72.3,38.61l2.4,1.71c0.68,0.47,0.75,1.06,0.44,1.29l-1.03,0.75l0.48,0.75c1.32-0.89,2.3-1.58,3.09-2.09
		c0.78-0.51,1.8-1.11,3.17-1.97l-0.49-0.75l-0.52,0.25c-0.68,0.33-1.14,0.2-1.69-0.16L65,29.58l-1.43,0.93l0.24,1.02l0.22,1.04
		l0.38,1.73l2.09,11.21c0.14,0.74,0.14,1.54-0.34,1.94l-0.57,0.45l0.49,0.75c0.95-0.65,1.66-1.16,2.24-1.54
		c0.58-0.38,1.33-0.81,2.32-1.42l-0.48-0.75l-1.05,0.6c-0.38,0.22-1.02,0.11-1.23-0.84l-0.62-2.81L72.3,38.61 M65.68,34.02
		l5.42,3.76l-4.11,2.67L65.68,34.02z"/>
	<path fill="none" stroke="#231F20" stroke-width="0.2628" stroke-miterlimit="3.864" d="M72.3,38.61l2.4,1.71
		c0.68,0.47,0.75,1.06,0.44,1.29l-1.03,0.75l0.48,0.75c1.32-0.89,2.3-1.58,3.09-2.09c0.78-0.51,1.8-1.11,3.17-1.97l-0.49-0.75
		l-0.52,0.25c-0.68,0.33-1.14,0.2-1.69-0.16L65,29.58l-1.43,0.93l0.24,1.02l0.22,1.04l0.38,1.73l2.09,11.21
		c0.14,0.74,0.14,1.54-0.34,1.94l-0.57,0.45l0.49,0.75c0.95-0.65,1.66-1.16,2.24-1.54c0.58-0.38,1.33-0.81,2.32-1.42l-0.48-0.75
		l-1.05,0.6c-0.38,0.22-1.02,0.11-1.23-0.84l-0.62-2.81L72.3,38.61z M65.68,34.02l5.42,3.76l-4.11,2.67L65.68,34.02z"/>
	<path fill="#231F20" d="M92.54,29.09l0.75,1.99c0.93,0.89,2.94,1.09,4.14,0.74c1.96-0.56,3.33-2.08,2.75-4.09
		c-0.29-1-1.11-1.58-2.54-1.6l-3.52-0.04c-2.11-0.02-3.93-0.98-4.5-2.96c-1.06-3.7,1.28-5.9,4.63-6.86
		c1.44-0.41,3.03-0.59,4.53-0.45l0.19,0.25c-0.02,0.8,0.27,2.17,0.62,3.38l-0.95,0.27l-0.68-1.85c-0.92-0.59-2.35-0.7-3.44-0.39
		c-2.15,0.62-2.81,2.16-2.37,3.71c0.3,1.04,1.26,1.59,3.1,1.54l2.83-0.06c2.28-0.05,4.03,0.9,4.63,2.98
		c1.13,3.93-1.66,6.51-5.18,7.51c-1.66,0.48-3.45,0.62-5.14,0.32c-0.11-1.44-0.42-2.78-0.8-4.1L92.54,29.09"/>
	<path fill="none" stroke="#231F20" stroke-width="0.2628" stroke-miterlimit="3.864" d="M92.54,29.09l0.75,1.99
		c0.93,0.89,2.94,1.09,4.14,0.74c1.96-0.56,3.33-2.08,2.75-4.09c-0.29-1-1.11-1.58-2.54-1.6l-3.52-0.04
		c-2.11-0.02-3.93-0.98-4.5-2.96c-1.06-3.7,1.28-5.9,4.63-6.86c1.44-0.41,3.03-0.59,4.53-0.45l0.19,0.25
		c-0.02,0.8,0.27,2.17,0.62,3.38l-0.95,0.27l-0.68-1.85c-0.92-0.59-2.35-0.7-3.44-0.39c-2.15,0.62-2.81,2.16-2.37,3.71
		c0.3,1.04,1.26,1.59,3.1,1.54l2.83-0.06c2.28-0.05,4.03,0.9,4.63,2.98c1.13,3.93-1.66,6.51-5.18,7.51
		c-1.66,0.48-3.45,0.62-5.14,0.32c-0.11-1.44-0.42-2.78-0.8-4.1L92.54,29.09z"/>
	<path fill="#231F20" d="M114.12,26.05c0.13,1,0.23,1.64,0.41,1.91c0.12,0.18,0.39,0.24,1.02,0.22l0.89-0.04l0.11,0.96
		c-0.98,0.09-2.3,0.21-3.7,0.38c-1.43,0.18-2.74,0.39-3.72,0.53l-0.12-0.95l0.88-0.18c0.62-0.13,0.87-0.25,0.94-0.45
		c0.11-0.31,0.05-0.95-0.07-1.96l-1.42-11.56l-2.79,0.34c-0.64,0.08-1.31,0.16-1.45,0.4c-0.08,0.13-0.15,0.34-0.15,0.6l0.08,1.66
		l-0.95,0.12c-0.24-1.55-0.44-2.64-0.78-3.76l0.13-0.14c2.51-0.29,5-0.54,7.41-0.84c2.44-0.3,4.91-0.65,7.41-0.98l0.16,0.1
		c-0.05,1.17,0.01,2.28,0.15,3.83l-0.95,0.12l-0.32-1.63c-0.05-0.26-0.17-0.44-0.28-0.55c-0.2-0.19-0.86-0.11-1.51-0.03l-2.79,0.34
		L114.12,26.05"/>
	<path fill="none" stroke="#231F20" stroke-width="0.2628" stroke-miterlimit="3.864" d="M114.12,26.05c0.13,1,0.23,1.64,0.41,1.91
		c0.12,0.18,0.39,0.24,1.02,0.22l0.89-0.04l0.11,0.96c-0.98,0.09-2.3,0.21-3.7,0.38c-1.43,0.18-2.74,0.39-3.72,0.53l-0.12-0.95
		l0.88-0.18c0.62-0.13,0.87-0.25,0.94-0.45c0.11-0.31,0.05-0.95-0.07-1.96l-1.42-11.56l-2.79,0.34c-0.64,0.08-1.31,0.16-1.45,0.4
		c-0.08,0.13-0.15,0.34-0.15,0.6l0.08,1.66l-0.95,0.12c-0.24-1.55-0.44-2.64-0.78-3.76l0.13-0.14c2.51-0.29,5-0.54,7.41-0.84
		c2.44-0.3,4.91-0.65,7.41-0.98l0.16,0.1c-0.05,1.17,0.01,2.28,0.15,3.83l-0.95,0.12l-0.32-1.63c-0.05-0.26-0.17-0.44-0.28-0.55
		c-0.2-0.19-0.86-0.11-1.51-0.03l-2.79,0.34L114.12,26.05z"/>
	<path fill="#231F20" d="M129.46,23.78l1.06,2.75c0.31,0.77,0.04,1.3-0.35,1.32l-1.28,0.07v0.89c1.59-0.02,2.79-0.05,3.73-0.05
		s2.12,0.06,3.72,0.09l0.01-0.89l-0.58-0.07c-0.75-0.1-1.06-0.46-1.31-1.07l-6.13-14.6l-1.71-0.01l-0.37,0.98l-0.39,0.98l-0.64,1.66
		l-4.42,10.51c-0.29,0.7-0.73,1.37-1.35,1.44l-0.72,0.07l-0.01,0.89c1.15-0.02,2.02-0.06,2.72-0.05c0.69,0,1.56,0.05,2.72,0.09
		l0.01-0.89l-1.2-0.08c-0.43-0.03-0.91-0.46-0.57-1.37l1.03-2.69L129.46,23.78 M126.45,16.3l2.46,6.13L124,22.4L126.45,16.3z"/>
	<path fill="none" stroke="#231F20" stroke-width="0.2628" stroke-miterlimit="3.864" d="M129.46,23.78l1.06,2.75
		c0.31,0.77,0.04,1.3-0.35,1.32l-1.28,0.07v0.89c1.59-0.02,2.79-0.05,3.73-0.05s2.12,0.06,3.72,0.09l0.01-0.89l-0.58-0.07
		c-0.75-0.1-1.06-0.46-1.31-1.07l-6.13-14.6l-1.71-0.01l-0.37,0.98l-0.39,0.98l-0.64,1.66l-4.42,10.51
		c-0.29,0.7-0.73,1.37-1.35,1.44l-0.72,0.07l-0.01,0.89c1.15-0.02,2.02-0.06,2.72-0.05c0.69,0,1.56,0.05,2.72,0.09l0.01-0.89
		l-1.2-0.08c-0.43-0.03-0.91-0.46-0.57-1.37l1.03-2.69L129.46,23.78z M126.45,16.3l2.46,6.13L124,22.4L126.45,16.3z"/>
	<path fill="#231F20" d="M144.01,27.11c-0.18,1-0.27,1.64-0.17,1.95c0.06,0.2,0.31,0.35,0.91,0.5l0.86,0.23l-0.16,0.95
		c-0.97-0.19-2.26-0.47-3.66-0.72c-1.42-0.25-2.73-0.43-3.71-0.58l0.17-0.95l0.89,0.09c0.62,0.06,0.9,0.01,1.03-0.16
		c0.19-0.26,0.33-0.89,0.51-1.89l2.02-11.47l-2.77-0.49c-0.64-0.11-1.3-0.23-1.51-0.04c-0.11,0.1-0.24,0.27-0.31,0.53l-0.41,1.62
		l-0.95-0.17c0.23-1.55,0.35-2.65,0.36-3.82l0.16-0.09c2.48,0.46,4.94,0.94,7.33,1.36c2.42,0.43,4.89,0.81,7.38,1.23l0.12,0.15
		c-0.39,1.1-0.65,2.18-0.97,3.71l-0.95-0.16l0.17-1.65c0.02-0.27-0.04-0.47-0.11-0.61c-0.13-0.24-0.79-0.36-1.43-0.47l-2.77-0.49
		L144.01,27.11"/>
	<path fill="none" stroke="#231F20" stroke-width="0.2628" stroke-miterlimit="3.864" d="M144.01,27.11c-0.18,1-0.27,1.64-0.17,1.95
		c0.06,0.2,0.31,0.35,0.91,0.5l0.86,0.23l-0.16,0.95c-0.97-0.19-2.26-0.47-3.66-0.72c-1.42-0.25-2.73-0.43-3.71-0.58l0.17-0.95
		l0.89,0.09c0.62,0.06,0.9,0.01,1.03-0.16c0.19-0.26,0.33-0.89,0.51-1.89l2.02-11.47l-2.77-0.49c-0.64-0.11-1.3-0.23-1.51-0.04
		c-0.11,0.1-0.24,0.27-0.31,0.53l-0.41,1.62l-0.95-0.17c0.23-1.55,0.35-2.65,0.36-3.82l0.16-0.09c2.48,0.46,4.94,0.94,7.33,1.36
		c2.42,0.43,4.89,0.81,7.38,1.23l0.12,0.15c-0.39,1.1-0.65,2.18-0.97,3.71l-0.95-0.16l0.17-1.65c0.02-0.27-0.04-0.47-0.11-0.61
		c-0.13-0.24-0.79-0.36-1.43-0.47l-2.77-0.49L144.01,27.11z"/>
	<path fill="#231F20" d="M157.97,24.54c0.51,0.22,1.01,0.38,1.51,0.55l1.51,0.49c0.8,0.26,1.28,0.36,1.46-0.06l0.56-1.26l0.91,0.3
		c-0.29,0.82-0.6,1.6-0.86,2.43c-0.27,0.82-0.49,1.66-0.73,2.49l-0.91-0.3l0.23-1.19c0.14-0.66-0.23-1.01-1.03-1.27l-1.51-0.49
		c-0.51-0.16-1.02-0.31-1.56-0.43l-1.98,6.11c0.95,0.36,1.92,0.7,2.9,1.02c1.05,0.35,2.81,0.69,2.92,0.52l1.23-1.98l0.89,0.29
		l-1.43,3.53l-0.17,0.15c-1.52-0.37-4.18-1.23-5.65-1.76c-0.93-0.33-1.86-0.68-2.79-0.98c-0.96-0.31-1.91-0.57-2.77-0.82l0.17-0.53
		l0.86-0.17c0.43-0.09,0.65-0.45,0.88-1.16l3.33-10.25c0.31-0.96,0.49-1.59,0.44-1.91c-0.04-0.27-0.23-0.45-0.81-0.69l-0.82-0.35
		l0.27-0.85c1.5,0.51,2.66,0.94,3.55,1.23c2.15,0.7,3.72,1.16,5.03,1.56c1.29,0.39,2.3,0.72,3.32,1.15l0.08,0.21l-1.37,3.14
		l-0.82-0.27l0.37-1.77c0.07-0.36-1.44-0.95-2.49-1.29c-0.98-0.32-1.97-0.62-2.95-0.88L157.97,24.54"/>
	<path fill="none" stroke="#231F20" stroke-width="0.2628" stroke-miterlimit="3.864" d="M157.97,24.54
		c0.51,0.22,1.01,0.38,1.51,0.55l1.51,0.49c0.8,0.26,1.28,0.36,1.46-0.06l0.56-1.26l0.91,0.3c-0.29,0.82-0.6,1.6-0.86,2.43
		c-0.27,0.82-0.49,1.66-0.73,2.49l-0.91-0.3l0.23-1.19c0.14-0.66-0.23-1.01-1.03-1.27l-1.51-0.49c-0.51-0.16-1.02-0.31-1.56-0.43
		l-1.98,6.11c0.95,0.36,1.92,0.7,2.9,1.02c1.05,0.35,2.81,0.69,2.92,0.52l1.23-1.98l0.89,0.29l-1.43,3.53l-0.17,0.15
		c-1.52-0.37-4.18-1.23-5.65-1.76c-0.93-0.33-1.86-0.68-2.79-0.98c-0.96-0.31-1.91-0.57-2.77-0.82l0.17-0.53l0.86-0.17
		c0.43-0.09,0.65-0.45,0.88-1.16l3.33-10.25c0.31-0.96,0.49-1.59,0.44-1.91c-0.04-0.27-0.23-0.45-0.81-0.69l-0.82-0.35l0.27-0.85
		c1.5,0.51,2.66,0.94,3.55,1.23c2.15,0.7,3.72,1.16,5.03,1.56c1.29,0.39,2.3,0.72,3.32,1.15l0.08,0.21l-1.37,3.14l-0.82-0.27
		l0.37-1.77c0.07-0.36-1.44-0.95-2.49-1.29c-0.98-0.32-1.97-0.62-2.95-0.88L157.97,24.54z"/>
	<path fill="#231F20" d="M182.89,31.63c0.58-0.83,0.93-1.37,0.98-1.69c0.04-0.27-0.09-0.5-0.57-0.9l-0.69-0.57l0.51-0.73
		c0.79,0.59,1.85,1.38,3.03,2.21c1.16,0.82,2.28,1.54,3.1,2.08l-0.51,0.73l-0.77-0.45c-0.54-0.32-0.81-0.36-1.04-0.23
		c-0.28,0.15-0.67,0.67-1.26,1.5l-3.42,4.89c-1.95,2.78-2.99,4.66,0.33,6.99c3.29,2.3,4.94,0.75,6.93-2.11l3.33-4.75
		c0.58-0.83,0.93-1.37,0.98-1.69c0.04-0.26-0.09-0.5-0.58-0.9l-0.69-0.57l0.51-0.73c0.74,0.55,1.48,1.13,2.23,1.65
		c0.75,0.53,1.53,1.01,2.29,1.51l-0.51,0.73l-0.77-0.45c-0.54-0.32-0.81-0.36-1.04-0.23c-0.28,0.15-0.68,0.67-1.26,1.5l-4.03,5.75
		c-2.52,3.61-5.61,3.94-9.18,1.45c-3.72-2.61-4.52-5.54-2.96-7.77L182.89,31.63"/>
	<path fill="none" stroke="#231F20" stroke-width="0.2628" stroke-miterlimit="3.864" d="M182.89,31.63
		c0.58-0.83,0.93-1.37,0.98-1.69c0.04-0.27-0.09-0.5-0.57-0.9l-0.69-0.57l0.51-0.73c0.79,0.59,1.85,1.38,3.03,2.21
		c1.16,0.82,2.28,1.54,3.1,2.08l-0.51,0.73l-0.77-0.45c-0.54-0.32-0.81-0.36-1.04-0.23c-0.28,0.15-0.67,0.67-1.26,1.5l-3.42,4.89
		c-1.95,2.78-2.99,4.66,0.33,6.99c3.29,2.3,4.94,0.75,6.93-2.11l3.33-4.75c0.58-0.83,0.93-1.37,0.98-1.69
		c0.04-0.26-0.09-0.5-0.58-0.9l-0.69-0.57l0.51-0.73c0.74,0.55,1.48,1.13,2.23,1.65c0.75,0.53,1.53,1.01,2.29,1.51l-0.51,0.73
		l-0.77-0.45c-0.54-0.32-0.81-0.36-1.04-0.23c-0.28,0.15-0.68,0.67-1.26,1.5l-4.03,5.75c-2.52,3.61-5.61,3.94-9.18,1.45
		c-3.72-2.61-4.52-5.54-2.96-7.77L182.89,31.63z"/>
	<path fill="#231F20" d="M199.74,44.15c0.74-0.69,1.2-1.15,1.31-1.45c0.09-0.25,0.02-0.51-0.38-1l-0.55-0.7l0.65-0.61
		c0.64,0.72,1.26,1.45,1.92,2.16c0.46,0.49,0.95,0.95,1.43,1.43c-0.22,1.32-0.5,2.67-0.65,3.99l-1.29,11.46l6.32-5.89
		c0.74-0.69,1.2-1.15,1.31-1.45c0.09-0.25,0.02-0.51-0.37-1l-0.55-0.7l0.65-0.6c0.6,0.68,1.21,1.4,1.83,2.07s1.28,1.3,1.92,1.96
		l-0.65,0.61l-0.66-0.6c-0.46-0.42-0.71-0.52-0.97-0.44c-0.31,0.09-0.8,0.52-1.54,1.21l-7.99,7.45c-0.62,0.57-1.22,1.2-1.73,1.71
		l-0.18-0.06l-1.12-1.65c0.14-1.47,0.27-2.98,0.45-4.43l1.55-12.1l-0.03-0.04l-6.88,6.42c-0.74,0.69-1.2,1.15-1.31,1.45
		c-0.09,0.25-0.02,0.51,0.37,1l0.55,0.7l-0.65,0.61c-0.6-0.69-1.19-1.38-1.82-2.05c-0.62-0.67-1.3-1.32-1.94-1.97l0.65-0.61
		l0.66,0.6c0.46,0.42,0.71,0.52,0.97,0.44c0.31-0.09,0.8-0.52,1.54-1.2L199.74,44.15"/>
	<path fill="none" stroke="#231F20" stroke-width="0.2628" stroke-miterlimit="3.864" d="M199.74,44.15
		c0.74-0.69,1.2-1.15,1.31-1.45c0.09-0.25,0.02-0.51-0.38-1l-0.55-0.7l0.65-0.61c0.64,0.72,1.26,1.45,1.92,2.16
		c0.46,0.49,0.95,0.95,1.43,1.43c-0.22,1.32-0.5,2.67-0.65,3.99l-1.29,11.46l6.32-5.89c0.74-0.69,1.2-1.15,1.31-1.45
		c0.09-0.25,0.02-0.51-0.37-1l-0.55-0.7l0.65-0.6c0.6,0.68,1.21,1.4,1.83,2.07s1.28,1.3,1.92,1.96l-0.65,0.61l-0.66-0.6
		c-0.46-0.42-0.71-0.52-0.97-0.44c-0.31,0.09-0.8,0.52-1.54,1.21l-7.99,7.45c-0.62,0.57-1.22,1.2-1.73,1.71l-0.18-0.06l-1.12-1.65
		c0.14-1.47,0.27-2.98,0.45-4.43l1.55-12.1l-0.03-0.04l-6.88,6.42c-0.74,0.69-1.2,1.15-1.31,1.45c-0.09,0.25-0.02,0.51,0.37,1
		l0.55,0.7l-0.65,0.61c-0.6-0.69-1.19-1.38-1.82-2.05c-0.62-0.67-1.3-1.32-1.94-1.97l0.65-0.61l0.66,0.6
		c0.46,0.42,0.71,0.52,0.97,0.44c0.31-0.09,0.8-0.52,1.54-1.2L199.74,44.15z"/>
	<path fill="#231F20" d="M207.51,68.69c-0.82,0.58-1.35,0.97-1.5,1.26c-0.1,0.19-0.03,0.46,0.29,1l0.45,0.77l-0.79,0.55
		c-0.55-0.82-1.26-1.93-2.08-3.09c-0.83-1.18-1.62-2.24-2.21-3.04l0.79-0.55l0.57,0.69c0.4,0.49,0.63,0.65,0.84,0.62
		c0.32-0.05,0.87-0.4,1.7-0.98l8.04-5.63c0.83-0.58,1.35-0.97,1.5-1.25c0.1-0.19,0.03-0.46-0.29-1l-0.46-0.77l0.79-0.55
		c0.55,0.82,1.27,1.93,2.1,3.12c0.81,1.16,1.61,2.22,2.19,3.01l-0.78,0.55l-0.57-0.69c-0.4-0.48-0.63-0.64-0.84-0.61
		c-0.32,0.05-0.86,0.4-1.69,0.98L207.51,68.69"/>
	<path fill="none" stroke="#231F20" stroke-width="0.2628" stroke-miterlimit="3.864" d="M207.51,68.69
		c-0.82,0.58-1.35,0.97-1.5,1.26c-0.1,0.19-0.03,0.46,0.29,1l0.45,0.77l-0.79,0.55c-0.55-0.82-1.26-1.93-2.08-3.09
		c-0.83-1.18-1.62-2.24-2.21-3.04l0.79-0.55l0.57,0.69c0.4,0.49,0.63,0.65,0.84,0.62c0.32-0.05,0.87-0.4,1.7-0.98l8.04-5.63
		c0.83-0.58,1.35-0.97,1.5-1.25c0.1-0.19,0.03-0.46-0.29-1l-0.46-0.77l0.79-0.55c0.55,0.82,1.27,1.93,2.1,3.12
		c0.81,1.16,1.61,2.22,2.19,3.01l-0.78,0.55l-0.57-0.69c-0.4-0.48-0.63-0.64-0.84-0.61c-0.32,0.05-0.86,0.4-1.69,0.98L207.51,68.69z
		"/>
	<path fill="#231F20" d="M214.99,80.12l9.12-0.81c1.09-0.09,2.05-0.21,2.44-0.4c0.39-0.2,0.37-0.65,0.18-1.09l-0.44-1.02l0.79-0.4
		c0.51,1.06,0.89,1.9,1.2,2.52c0.32,0.62,0.76,1.39,1.32,2.43l-0.79,0.4l-0.41-0.65c-0.29-0.45-0.77-0.56-1.52-0.49l-12.94,0.98
		c-0.86,0.06-1.69,0.18-2.54,0.27l-0.83-1.63l9.65-11.37c0.47-0.56,1.17-1.35,0.87-2.11l-0.38-0.91l0.79-0.4
		c0.7,1.42,1.21,2.54,1.64,3.37c0.42,0.84,1.01,1.89,1.85,3.48l-0.79,0.41l-0.61-1.04c-0.18-0.31-0.5-0.45-0.69-0.35
		c-0.43,0.22-0.94,0.8-1.31,1.24L214.99,80.12"/>
	<path fill="none" stroke="#231F20" stroke-width="0.2628" stroke-miterlimit="3.864" d="M214.99,80.12l9.12-0.81
		c1.09-0.09,2.05-0.21,2.44-0.4c0.39-0.2,0.37-0.65,0.18-1.09l-0.44-1.02l0.79-0.4c0.51,1.06,0.89,1.9,1.2,2.52
		c0.32,0.62,0.76,1.39,1.32,2.43l-0.79,0.4l-0.41-0.65c-0.29-0.45-0.77-0.56-1.52-0.49l-12.94,0.98c-0.86,0.06-1.69,0.18-2.54,0.27
		l-0.83-1.63l9.65-11.37c0.47-0.56,1.17-1.35,0.87-2.11l-0.38-0.91l0.79-0.4c0.7,1.42,1.21,2.54,1.64,3.37
		c0.42,0.84,1.01,1.89,1.85,3.48l-0.79,0.41l-0.61-1.04c-0.18-0.31-0.5-0.45-0.69-0.35c-0.43,0.22-0.94,0.8-1.31,1.24L214.99,80.12z
		"/>
	<path fill="#231F20" d="M225.45,91.89c0.13,0.54,0.29,1.04,0.46,1.55l0.49,1.51c0.26,0.8,0.46,1.24,0.9,1.15l1.35-0.29l0.3,0.92
		c-0.83,0.24-1.65,0.46-2.47,0.73c-0.82,0.27-1.63,0.58-2.45,0.87l-0.3-0.91l1.1-0.51c0.62-0.28,0.69-0.78,0.42-1.58l-0.49-1.51
		c-0.16-0.5-0.35-1-0.57-1.51l-6.11,1.98c0.27,0.98,0.56,1.97,0.88,2.95c0.34,1.05,1.1,2.68,1.3,2.66l2.32-0.17l0.29,0.89l-3.7,0.92
		l-0.22-0.05c-0.6-1.45-1.46-4.1-1.9-5.6c-0.28-0.95-0.54-1.9-0.84-2.84c-0.31-0.96-0.66-1.89-0.96-2.73l0.53-0.17l0.65,0.6
		c0.33,0.3,0.75,0.27,1.46,0.04l10.25-3.33c0.96-0.31,1.57-0.53,1.8-0.76c0.19-0.19,0.23-0.45,0.08-1.06l-0.2-0.87l0.84-0.27
		c0.47,1.52,0.8,2.7,1.09,3.59c0.7,2.15,1.25,3.69,1.7,4.99c0.44,1.27,0.77,2.28,1.02,3.36l-0.12,0.19L231,97.37l-0.27-0.82
		l1.66-0.74c0.33-0.16-0.08-1.72-0.42-2.77c-0.32-0.98-0.66-1.96-1.02-2.91L225.45,91.89"/>
	<path fill="none" stroke="#231F20" stroke-width="0.2628" stroke-miterlimit="3.864" d="M225.45,91.89
		c0.13,0.54,0.29,1.04,0.46,1.55l0.49,1.51c0.26,0.8,0.46,1.24,0.9,1.15l1.35-0.29l0.3,0.92c-0.83,0.24-1.65,0.46-2.47,0.73
		c-0.82,0.27-1.63,0.58-2.45,0.87l-0.3-0.91l1.1-0.51c0.62-0.28,0.69-0.78,0.42-1.58l-0.49-1.51c-0.16-0.5-0.35-1-0.57-1.51
		l-6.11,1.98c0.27,0.98,0.56,1.97,0.88,2.95c0.34,1.05,1.1,2.68,1.3,2.66l2.32-0.17l0.29,0.89l-3.7,0.92l-0.22-0.05
		c-0.6-1.45-1.46-4.1-1.9-5.6c-0.28-0.95-0.54-1.9-0.84-2.84c-0.31-0.96-0.66-1.89-0.96-2.73l0.53-0.17l0.65,0.6
		c0.33,0.3,0.75,0.27,1.46,0.04l10.25-3.33c0.96-0.31,1.57-0.53,1.8-0.76c0.19-0.19,0.23-0.45,0.08-1.06l-0.2-0.87l0.84-0.27
		c0.47,1.52,0.8,2.7,1.09,3.59c0.7,2.15,1.25,3.69,1.7,4.99c0.44,1.27,0.77,2.28,1.02,3.36l-0.12,0.19L231,97.37l-0.27-0.82
		l1.66-0.74c0.33-0.16-0.08-1.72-0.42-2.77c-0.32-0.98-0.66-1.96-1.02-2.91L225.45,91.89z"/>
	<path fill="#231F20" d="M232.77,103.4c1-0.12,1.65-0.22,1.92-0.4c0.22-0.15,0.31-0.4,0.29-1.03l-0.04-0.89l0.88-0.11
		c0.17,1.58,0.27,2.8,0.42,4.02c0.2,1.62,0.44,3.22,0.67,4.83c0.35,2.43-0.12,4.76-2.96,5.11c-2.1,0.25-3.7-1.15-4.67-3.04
		l-6.01,5.12c-0.24,0.2-0.47,0.49-0.66,0.78c-0.14,0.24-0.17,0.55-0.21,1.02l-0.96,0.12c-0.07-0.77-0.12-1.56-0.21-2.33
		c-0.09-0.71-0.22-1.43-0.33-2.14l7.63-6.36l0.45,0.11c0.08,2.22,1.64,3.67,3.88,3.4c1.96-0.24,2.84-1.73,2.61-3.59
		c-0.06-0.5-0.16-1.14-0.4-1.5l-11.63,1.43c-1,0.13-1.64,0.23-1.91,0.4c-0.18,0.12-0.24,0.4-0.22,1.02l0.04,0.89l-0.95,0.12
		c-0.09-0.98-0.21-2.3-0.38-3.71c-0.18-1.43-0.39-2.74-0.53-3.71l0.95-0.12l0.18,0.87c0.13,0.62,0.25,0.87,0.46,0.94
		c0.3,0.11,0.95,0.05,1.95-0.07L232.77,103.4"/>
	<path fill="none" stroke="#231F20" stroke-width="0.2628" stroke-miterlimit="3.864" d="M232.77,103.4c1-0.12,1.65-0.22,1.92-0.4
		c0.22-0.15,0.31-0.4,0.29-1.03l-0.04-0.89l0.88-0.11c0.17,1.58,0.27,2.8,0.42,4.02c0.2,1.62,0.44,3.22,0.67,4.83
		c0.35,2.43-0.12,4.76-2.96,5.11c-2.1,0.25-3.7-1.15-4.67-3.04l-6.01,5.12c-0.24,0.2-0.47,0.49-0.66,0.78
		c-0.14,0.24-0.17,0.55-0.21,1.02l-0.96,0.12c-0.07-0.77-0.12-1.56-0.21-2.33c-0.09-0.71-0.22-1.43-0.33-2.14l7.63-6.36l0.45,0.11
		c0.08,2.22,1.64,3.67,3.88,3.4c1.96-0.24,2.84-1.73,2.61-3.59c-0.06-0.5-0.16-1.14-0.4-1.5l-11.63,1.43c-1,0.13-1.64,0.23-1.91,0.4
		c-0.18,0.12-0.24,0.4-0.22,1.02l0.04,0.89l-0.95,0.12c-0.09-0.98-0.21-2.3-0.38-3.71c-0.18-1.43-0.39-2.74-0.53-3.71l0.95-0.12
		l0.18,0.87c0.13,0.62,0.25,0.87,0.46,0.94c0.3,0.11,0.95,0.05,1.95-0.07L232.77,103.4z"/>
	<path fill="#231F20" d="M226.33,121.36l-2.12,0.17c-1.11,0.65-1.85,2.53-1.85,3.78c0,2.04,1.08,3.78,3.17,3.78
		c1.04,0,1.83-0.62,2.24-2l1.01-3.37c0.6-2.02,2.02-3.51,4.09-3.51c3.85,0,5.32,2.86,5.32,6.35c0,1.49-0.27,3.08-0.82,4.47
		l-0.29,0.12c-0.77-0.24-2.17-0.33-3.42-0.33v-0.99l1.97-0.15c0.82-0.72,1.32-2.07,1.32-3.2c0-2.24-1.3-3.29-2.91-3.29
		c-1.08,0-1.88,0.77-2.33,2.55l-0.72,2.74c-0.58,2.21-1.97,3.63-4.14,3.63c-4.09,0-5.8-3.39-5.8-7.05c0-1.73,0.36-3.49,1.11-5.03
		c1.42,0.29,2.79,0.36,4.16,0.36L226.33,121.36"/>
	<path fill="none" stroke="#231F20" stroke-width="0.2628" stroke-miterlimit="3.864" d="M226.33,121.36l-2.12,0.17
		c-1.11,0.65-1.85,2.53-1.85,3.78c0,2.04,1.08,3.78,3.17,3.78c1.04,0,1.83-0.62,2.24-2l1.01-3.37c0.6-2.02,2.02-3.51,4.09-3.51
		c3.85,0,5.32,2.86,5.32,6.35c0,1.49-0.27,3.08-0.82,4.47l-0.29,0.12c-0.77-0.24-2.17-0.33-3.42-0.33v-0.99l1.97-0.15
		c0.82-0.72,1.32-2.07,1.32-3.2c0-2.24-1.3-3.29-2.91-3.29c-1.08,0-1.88,0.77-2.33,2.55l-0.72,2.74c-0.58,2.21-1.97,3.63-4.14,3.63
		c-4.09,0-5.8-3.39-5.8-7.05c0-1.73,0.36-3.49,1.11-5.03c1.42,0.29,2.79,0.36,4.16,0.36L226.33,121.36L226.33,121.36z"/>
	<path fill="#231F20" d="M223.71,139.37c-1-0.13-1.65-0.18-1.95-0.07c-0.2,0.07-0.33,0.32-0.46,0.94l-0.18,0.87l-0.95-0.12
		c0.14-0.98,0.35-2.28,0.53-3.69c0.18-1.43,0.29-2.75,0.38-3.73l0.95,0.12l-0.04,0.89c-0.03,0.62,0.04,0.9,0.22,1.02
		c0.27,0.18,0.91,0.28,1.91,0.4l9.74,1.19c1,0.13,1.65,0.18,1.95,0.07c0.2-0.07,0.33-0.32,0.46-0.94l0.18-0.87l0.95,0.12
		c-0.15,0.98-0.35,2.28-0.53,3.72c-0.17,1.41-0.29,2.73-0.38,3.71l-0.96-0.12l0.04-0.89c0.03-0.63-0.04-0.9-0.22-1.02
		c-0.27-0.18-0.91-0.28-1.91-0.4L223.71,139.37"/>
	<path fill="none" stroke="#231F20" stroke-width="0.2628" stroke-miterlimit="3.864" d="M223.71,139.37
		c-1-0.13-1.65-0.18-1.95-0.07c-0.2,0.07-0.33,0.32-0.46,0.94l-0.18,0.87l-0.95-0.12c0.14-0.98,0.35-2.28,0.53-3.69
		c0.18-1.43,0.29-2.75,0.38-3.73l0.95,0.12l-0.04,0.89c-0.03,0.62,0.04,0.9,0.22,1.02c0.27,0.18,0.91,0.28,1.91,0.4l9.74,1.19
		c1,0.13,1.65,0.18,1.95,0.07c0.2-0.07,0.33-0.32,0.46-0.94l0.18-0.87l0.95,0.12c-0.15,0.98-0.35,2.28-0.53,3.72
		c-0.17,1.41-0.29,2.73-0.38,3.71l-0.96-0.12l0.04-0.89c0.03-0.63-0.04-0.9-0.22-1.02c-0.27-0.18-0.91-0.28-1.91-0.4L223.71,139.37z
		"/>
	<path fill="#231F20" d="M221.08,151.59c-0.98-0.26-1.61-0.4-1.93-0.34c-0.21,0.04-0.37,0.27-0.58,0.87l-0.3,0.84l-0.93-0.25
		c0.28-0.95,0.67-2.21,1.04-3.58c0.37-1.39,0.67-2.68,0.9-3.64l0.93,0.25l-0.16,0.88c-0.11,0.62-0.09,0.9,0.07,1.04
		c0.24,0.22,0.86,0.4,1.84,0.67l11.25,3.01l0.73-2.72c0.17-0.63,0.35-1.27,0.18-1.49c-0.09-0.13-0.26-0.27-0.5-0.36l-1.57-0.54
		l0.25-0.93c1.52,0.36,2.61,0.58,3.78,0.69l0.08,0.17c-0.68,2.44-1.37,4.84-2,7.18c-0.64,2.37-1.24,4.8-1.86,7.24l-0.15,0.11
		c-1.07-0.49-2.12-0.84-3.61-1.29l0.25-0.93l1.64,0.31c0.26,0.05,0.47,0,0.61-0.06c0.25-0.11,0.43-0.76,0.6-1.38l0.73-2.72
		L221.08,151.59"/>
	<path fill="none" stroke="#231F20" stroke-width="0.2628" stroke-miterlimit="3.864" d="M221.08,151.59
		c-0.98-0.26-1.61-0.4-1.93-0.34c-0.21,0.04-0.37,0.27-0.58,0.87l-0.3,0.84l-0.93-0.25c0.28-0.95,0.67-2.21,1.04-3.58
		c0.37-1.39,0.67-2.68,0.9-3.64l0.93,0.25l-0.16,0.88c-0.11,0.62-0.09,0.9,0.07,1.04c0.24,0.22,0.86,0.4,1.84,0.67l11.25,3.01
		l0.73-2.72c0.17-0.63,0.35-1.27,0.18-1.49c-0.09-0.13-0.26-0.27-0.5-0.36l-1.57-0.54l0.25-0.93c1.52,0.36,2.61,0.58,3.78,0.69
		l0.08,0.17c-0.68,2.44-1.37,4.84-2,7.18c-0.64,2.37-1.24,4.8-1.86,7.24l-0.15,0.11c-1.07-0.49-2.12-0.84-3.61-1.29l0.25-0.93
		l1.64,0.31c0.26,0.05,0.47,0,0.61-0.06c0.25-0.11,0.43-0.76,0.6-1.38l0.73-2.72L221.08,151.59z"/>
	<path fill="#231F20" d="M225.93,175.65l-0.73,1.71l-0.42-0.18l-4.12-6.35c-0.49-0.76-1.1-1.46-1.72-2.11l-3.61-1.53
		c-0.93-0.4-1.54-0.63-1.86-0.6c-0.21,0.01-0.4,0.22-0.69,0.77l-0.41,0.79l-0.89-0.38c0.41-0.9,0.97-2.1,1.52-3.4
		c0.57-1.33,1.04-2.56,1.4-3.48l0.88,0.38l-0.28,0.85c-0.2,0.6-0.22,0.88-0.07,1.04c0.21,0.25,0.8,0.52,1.73,0.92l3.08,1.31
		c1.13-0.02,1.71-0.09,2.3-0.18l4.56-0.7c0.62-0.1,1.39-0.33,1.97-0.52c0.77-0.27,1.14-0.66,1.46-1.42l0.82,0.35l-0.69,3.85
		c-1.2,0.93-2.65,1.13-4.08,1.25l-5.5,0.46L225.93,175.65"/>
	<path fill="none" stroke="#231F20" stroke-width="0.2628" stroke-miterlimit="3.864" d="M225.93,175.65l-0.73,1.71l-0.42-0.18
		l-4.12-6.35c-0.49-0.76-1.1-1.46-1.72-2.11l-3.61-1.53c-0.93-0.4-1.54-0.63-1.86-0.6c-0.21,0.01-0.4,0.22-0.69,0.77l-0.41,0.79
		l-0.89-0.38c0.41-0.9,0.97-2.1,1.52-3.4c0.57-1.33,1.04-2.56,1.4-3.48l0.88,0.38l-0.28,0.85c-0.2,0.6-0.22,0.88-0.07,1.04
		c0.21,0.25,0.8,0.52,1.73,0.92l3.08,1.31c1.13-0.02,1.71-0.09,2.3-0.18l4.56-0.7c0.62-0.1,1.39-0.33,1.97-0.52
		c0.77-0.27,1.14-0.66,1.46-1.42l0.82,0.35l-0.69,3.85c-1.2,0.93-2.65,1.13-4.08,1.25l-5.5,0.46L225.93,175.65z"/>
</g>
<g>
	<path fill="#231F20" d="M49.92,206.44c0.72,0.71,1.47,1.42,2.24,2.11c0.82,0.74,2.29,1.77,2.46,1.66l2.05-1.45l0.69,0.63
		l-2.87,2.79l-0.22,0.06c-1.24-0.96-3.32-2.82-4.45-3.91c-0.71-0.68-1.42-1.37-2.15-2.03c-0.75-0.68-1.51-1.3-2.19-1.88l0.37-0.41
		l0.86,0.19c0.43,0.1,0.77-0.14,1.27-0.69l7.21-8.01c0.67-0.75,1.09-1.25,1.18-1.56c0.06-0.21-0.07-0.46-0.51-0.91l-0.61-0.65
		l0.64-0.71c0.71,0.68,1.67,1.6,2.74,2.56c1.05,0.95,2.07,1.8,2.82,2.44l-0.64,0.72l-0.71-0.54c-0.49-0.38-0.76-0.49-0.96-0.41
		c-0.3,0.12-0.75,0.58-1.43,1.34L49.92,206.44"/>
	<path fill="none" stroke="#231F20" stroke-width="0.2628" stroke-miterlimit="3.864" d="M49.92,206.44
		c0.72,0.71,1.47,1.42,2.24,2.11c0.82,0.74,2.29,1.77,2.46,1.66l2.05-1.45l0.69,0.63l-2.87,2.79l-0.22,0.06
		c-1.24-0.96-3.32-2.82-4.45-3.91c-0.71-0.68-1.42-1.37-2.15-2.03c-0.75-0.68-1.51-1.3-2.19-1.88l0.37-0.41l0.86,0.19
		c0.43,0.1,0.77-0.14,1.27-0.69l7.21-8.01c0.67-0.75,1.09-1.25,1.18-1.56c0.06-0.21-0.07-0.46-0.51-0.91l-0.61-0.65l0.64-0.71
		c0.71,0.68,1.67,1.6,2.74,2.56c1.05,0.95,2.07,1.8,2.82,2.44l-0.64,0.72l-0.71-0.54c-0.49-0.38-0.76-0.49-0.96-0.41
		c-0.3,0.12-0.75,0.58-1.43,1.34L49.92,206.44z"/>
	<path fill="#231F20" d="M73.68,205.45c-4.57-3.08-9.27-2.6-12.45,2.11c-3.07,4.55-2,8.81,2.47,11.82c4.57,3.08,9.27,2.6,12.45-2.11
		C79.21,212.72,78.14,208.46,73.68,205.45 M72.92,206.56c2.81,1.9,2.21,5.76-0.01,9.05c-2.02,2.99-4.75,5.15-8.46,2.65
		c-2.81-1.9-2.23-5.74-0.01-9.03C66.47,206.24,69.21,204.06,72.92,206.56z"/>
	<path fill="none" stroke="#231F20" stroke-width="0.2628" stroke-miterlimit="3.864" d="M73.68,205.45
		c-4.57-3.08-9.27-2.6-12.45,2.11c-3.07,4.55-2,8.81,2.47,11.82c4.57,3.08,9.27,2.6,12.45-2.11
		C79.21,212.72,78.14,208.46,73.68,205.45z M72.92,206.56c2.81,1.9,2.21,5.76-0.01,9.05c-2.02,2.99-4.75,5.15-8.46,2.65
		c-2.81-1.9-2.23-5.74-0.01-9.03C66.47,206.24,69.21,204.06,72.92,206.56z"/>
	<path fill="#231F20" d="M77.88,221.57l-0.71,2c0.15,1.27,1.55,2.72,2.7,3.23c1.87,0.83,3.89,0.55,4.74-1.36
		c0.42-0.95,0.18-1.93-0.91-2.86l-2.67-2.29c-1.6-1.37-2.39-3.27-1.54-5.16c1.57-3.52,4.78-3.69,7.96-2.27
		c1.36,0.61,2.7,1.49,3.76,2.57l-0.01,0.31c-0.53,0.61-1.19,1.84-1.7,2.98l-0.9-0.4l0.67-1.86c-0.33-1.04-1.35-2.05-2.39-2.51
		c-2.04-0.91-3.54-0.15-4.2,1.32c-0.44,0.99-0.06,2.03,1.38,3.17l2.21,1.78c1.79,1.43,2.52,3.28,1.63,5.26
		c-1.66,3.74-5.45,3.92-8.79,2.43c-1.59-0.7-3.04-1.74-4.14-3.05c0.84-1.18,1.46-2.4,2.02-3.65L77.88,221.57"/>
	<path fill="none" stroke="#231F20" stroke-width="0.2628" stroke-miterlimit="3.864" d="M77.88,221.57l-0.71,2
		c0.15,1.27,1.55,2.72,2.7,3.23c1.87,0.83,3.89,0.55,4.74-1.36c0.42-0.95,0.18-1.93-0.91-2.86l-2.67-2.29
		c-1.6-1.37-2.39-3.27-1.54-5.16c1.57-3.52,4.78-3.69,7.96-2.27c1.36,0.61,2.7,1.49,3.76,2.57l-0.01,0.31
		c-0.53,0.61-1.19,1.84-1.7,2.98l-0.9-0.4l0.67-1.86c-0.33-1.04-1.35-2.05-2.39-2.51c-2.04-0.91-3.54-0.15-4.2,1.32
		c-0.44,0.99-0.06,2.03,1.38,3.17l2.21,1.78c1.79,1.43,2.52,3.28,1.63,5.26c-1.66,3.74-5.45,3.92-8.79,2.43
		c-1.59-0.7-3.04-1.74-4.14-3.05c0.84-1.18,1.46-2.4,2.02-3.65L77.88,221.57z"/>
	<path fill="#231F20" d="M105.95,230.72l0.54,2.9c0.16,0.82-0.2,1.29-0.58,1.24l-1.26-0.17l-0.17,0.87
		c1.56,0.28,2.75,0.46,3.67,0.64s2.07,0.45,3.65,0.78l0.17-0.87l-0.55-0.18c-0.71-0.24-0.95-0.65-1.09-1.29l-3.34-15.47l-1.68-0.33
		l-0.55,0.9l-0.57,0.89l-0.93,1.51l-6.28,9.51c-0.42,0.63-0.97,1.21-1.6,1.16l-0.72-0.07l-0.17,0.87c1.14,0.2,2,0.31,2.68,0.45
		c0.68,0.13,1.52,0.35,2.65,0.59l0.17-0.87l-1.17-0.3c-0.42-0.11-0.81-0.62-0.31-1.45l1.51-2.45L105.95,230.72 M104.37,222.82
		l1.29,6.47l-4.82-0.94L104.37,222.82z"/>
	<path fill="none" stroke="#231F20" stroke-width="0.2628" stroke-miterlimit="3.864" d="M105.95,230.72l0.54,2.9
		c0.16,0.82-0.2,1.29-0.58,1.24l-1.26-0.17l-0.17,0.87c1.56,0.28,2.75,0.46,3.67,0.64s2.07,0.45,3.65,0.78l0.17-0.87l-0.55-0.18
		c-0.71-0.24-0.95-0.65-1.09-1.29l-3.34-15.47l-1.68-0.33l-0.55,0.9l-0.57,0.89l-0.93,1.51l-6.28,9.51
		c-0.42,0.63-0.97,1.21-1.6,1.16l-0.72-0.07l-0.17,0.87c1.14,0.2,2,0.31,2.68,0.45c0.68,0.13,1.52,0.35,2.65,0.59l0.17-0.87
		l-1.17-0.3c-0.42-0.11-0.81-0.62-0.31-1.45l1.51-2.45L105.95,230.72z M104.37,222.82l1.29,6.47l-4.82-0.94L104.37,222.82z"/>
	<path fill="#231F20" d="M116.31,224.27c0.02-1.01,0-1.66-0.13-1.95c-0.12-0.24-0.35-0.37-0.98-0.42l-0.89-0.09l0.02-0.89
		c0.96,0.04,1.92,0.1,2.88,0.12c0.67,0.01,1.35-0.03,2.02-0.04c0.8,1.07,1.57,2.22,2.42,3.24l7.35,8.88l0.15-8.63
		c0.02-1.01,0.01-1.66-0.13-1.95c-0.11-0.24-0.35-0.36-0.98-0.42l-0.89-0.09l0.02-0.89c0.91,0.04,1.85,0.11,2.77,0.12
		c0.91,0.02,1.82-0.02,2.74-0.02l-0.02,0.89l-0.89,0.05c-0.62,0.04-0.87,0.15-0.99,0.39c-0.15,0.29-0.18,0.93-0.2,1.94l-0.19,10.92
		c-0.01,0.84,0.02,1.71,0.03,2.43l-0.17,0.09l-1.97-0.35c-0.97-1.13-1.96-2.27-2.88-3.4l-7.63-9.51h-0.05l-0.16,9.4
		c-0.02,1.01,0,1.66,0.13,1.95c0.12,0.24,0.35,0.37,0.98,0.43l0.89,0.09l-0.02,0.89c-0.91-0.04-1.82-0.1-2.74-0.12
		c-0.91-0.02-1.85,0.02-2.77,0.02l0.02-0.89l0.89-0.06c0.62-0.04,0.87-0.15,0.99-0.39c0.15-0.29,0.18-0.94,0.2-1.94L116.31,224.27"
		/>
	<path fill="none" stroke="#231F20" stroke-width="0.2628" stroke-miterlimit="3.864" d="M116.31,224.27c0.02-1.01,0-1.66-0.13-1.95
		c-0.12-0.24-0.35-0.37-0.98-0.42l-0.89-0.09l0.02-0.89c0.96,0.04,1.92,0.1,2.88,0.12c0.67,0.01,1.35-0.03,2.02-0.04
		c0.8,1.07,1.57,2.22,2.42,3.24l7.35,8.88l0.15-8.63c0.02-1.01,0.01-1.66-0.13-1.95c-0.11-0.24-0.35-0.36-0.98-0.42l-0.89-0.09
		l0.02-0.89c0.91,0.04,1.85,0.11,2.77,0.12c0.91,0.02,1.82-0.02,2.74-0.02l-0.02,0.89l-0.89,0.05c-0.62,0.04-0.87,0.15-0.99,0.39
		c-0.15,0.29-0.18,0.93-0.2,1.94l-0.19,10.92c-0.01,0.84,0.02,1.71,0.03,2.43l-0.17,0.09l-1.97-0.35c-0.97-1.13-1.96-2.27-2.88-3.4
		l-7.63-9.51h-0.05l-0.16,9.4c-0.02,1.01,0,1.66,0.13,1.95c0.12,0.24,0.35,0.37,0.98,0.43l0.89,0.09l-0.02,0.89
		c-0.91-0.04-1.82-0.1-2.74-0.12c-0.91-0.02-1.85,0.02-2.77,0.02l0.02-0.89l0.89-0.06c0.62-0.04,0.87-0.15,0.99-0.39
		c0.15-0.29,0.18-0.94,0.2-1.94L116.31,224.27z"/>
	<path fill="#231F20" d="M151.38,233.7c-2.05,1.2-4.27,2.13-6.71,2.52c-5.42,0.86-9.89-1.55-10.79-7.23
		c-0.86-5.46,3.14-8.9,8.21-9.7c2.16-0.34,4.31-0.49,6.71,0.08l0.18,0.24c-0.1,0.89-0.01,2.68,0.03,3.72l-0.93,0.15l-0.44-2.02
		c-1.1-0.95-3.3-1.16-5.25-0.85c-3.94,0.63-5.59,3.76-5,7.52c0.65,4.11,3.34,7.36,7.61,6.69c1.05-0.16,1.99-0.53,2.92-1.07
		l-0.5-3.14c-0.12-0.74-0.73-0.76-1.49-0.67l-1.27,0.15l-0.15-0.97c1.17-0.16,2.34-0.3,3.5-0.48c1.17-0.19,2.3-0.42,3.46-0.62
		l0.13,0.81c-0.78,0.29-0.93,0.42-0.84,1.01L151.38,233.7"/>
	<path fill="none" stroke="#231F20" stroke-width="0.2628" stroke-miterlimit="3.864" d="M151.38,233.7
		c-2.05,1.2-4.27,2.13-6.71,2.52c-5.42,0.86-9.89-1.55-10.79-7.23c-0.86-5.46,3.14-8.9,8.21-9.7c2.16-0.34,4.31-0.49,6.71,0.08
		l0.18,0.24c-0.1,0.89-0.01,2.68,0.03,3.72l-0.93,0.15l-0.44-2.02c-1.1-0.95-3.3-1.16-5.25-0.85c-3.94,0.63-5.59,3.76-5,7.52
		c0.65,4.11,3.34,7.36,7.61,6.69c1.05-0.16,1.99-0.53,2.92-1.07l-0.5-3.14c-0.12-0.74-0.73-0.76-1.49-0.67l-1.27,0.15l-0.15-0.97
		c1.17-0.16,2.34-0.3,3.5-0.48c1.17-0.19,2.3-0.42,3.46-0.62l0.13,0.81c-0.78,0.29-0.93,0.42-0.84,1.01L151.38,233.7z"/>
	<path fill="#231F20" d="M157.8,223.17c0.54-0.13,1.04-0.29,1.55-0.45l1.51-0.49c0.8-0.26,1.24-0.45,1.15-0.91l-0.29-1.35l0.91-0.3
		c0.25,0.83,0.46,1.65,0.73,2.47c0.27,0.82,0.58,1.64,0.87,2.45l-0.91,0.3l-0.51-1.1c-0.28-0.62-0.78-0.69-1.58-0.43l-1.51,0.49
		c-0.5,0.16-1,0.35-1.51,0.56l1.98,6.11c0.98-0.27,1.97-0.56,2.95-0.88c1.05-0.34,2.68-1.1,2.66-1.29l-0.17-2.32l0.89-0.29l0.93,3.7
		l-0.05,0.22c-1.45,0.6-4.1,1.46-5.61,1.89c-0.95,0.28-1.9,0.54-2.83,0.85c-0.96,0.31-1.88,0.66-2.72,0.96l-0.17-0.53l0.6-0.65
		c0.3-0.33,0.26-0.74,0.03-1.45l-3.33-10.25c-0.31-0.96-0.54-1.57-0.76-1.8c-0.19-0.19-0.46-0.23-1.07-0.09l-0.87,0.21l-0.27-0.85
		c1.52-0.47,2.7-0.8,3.59-1.09c2.15-0.7,3.69-1.25,4.99-1.7c1.27-0.44,2.28-0.76,3.36-1.02l0.18,0.11l0.74,3.36l-0.82,0.27
		l-0.74-1.66c-0.16-0.33-1.72,0.08-2.77,0.42c-0.99,0.32-1.96,0.66-2.9,1.02L157.8,223.17"/>
	<path fill="none" stroke="#231F20" stroke-width="0.2628" stroke-miterlimit="3.864" d="M157.8,223.17
		c0.54-0.13,1.04-0.29,1.55-0.45l1.51-0.49c0.8-0.26,1.24-0.45,1.15-0.91l-0.29-1.35l0.91-0.3c0.25,0.83,0.46,1.65,0.73,2.47
		c0.27,0.82,0.58,1.64,0.87,2.45l-0.91,0.3l-0.51-1.1c-0.28-0.62-0.78-0.69-1.58-0.43l-1.51,0.49c-0.5,0.16-1,0.35-1.51,0.56
		l1.98,6.11c0.98-0.27,1.97-0.56,2.95-0.88c1.05-0.34,2.68-1.1,2.66-1.29l-0.17-2.32l0.89-0.29l0.93,3.7l-0.05,0.22
		c-1.45,0.6-4.1,1.46-5.61,1.89c-0.95,0.28-1.9,0.54-2.83,0.85c-0.96,0.31-1.88,0.66-2.72,0.96l-0.17-0.53l0.6-0.65
		c0.3-0.33,0.26-0.74,0.03-1.45l-3.33-10.25c-0.31-0.96-0.54-1.57-0.76-1.8c-0.19-0.19-0.46-0.23-1.07-0.09l-0.87,0.21l-0.27-0.85
		c1.52-0.47,2.7-0.8,3.59-1.09c2.15-0.7,3.69-1.25,4.99-1.7c1.27-0.44,2.28-0.76,3.36-1.02l0.18,0.11l0.74,3.36l-0.82,0.27
		l-0.74-1.66c-0.16-0.33-1.72,0.08-2.77,0.42c-0.99,0.32-1.96,0.66-2.9,1.02L157.8,223.17z"/>
	<path fill="#231F20" d="M175.51,224.4c0.92-0.42,1.86-0.87,2.77-1.33c0.99-0.5,2.48-1.51,2.43-1.7l-0.62-2.44l0.84-0.42l1.58,3.68
		l-0.02,0.22c-1.34,0.82-3.83,2.09-5.24,2.75c-0.89,0.43-1.79,0.83-2.67,1.28c-0.9,0.46-1.76,0.95-2.54,1.37l-0.25-0.49l0.49-0.74
		c0.25-0.36,0.15-0.77-0.19-1.44l-4.89-9.6c-0.46-0.9-0.77-1.47-1.03-1.66c-0.17-0.13-0.45-0.09-1.03,0.15l-0.83,0.34l-0.44-0.85
		c0.89-0.43,2.09-0.98,3.37-1.64c1.27-0.64,2.42-1.29,3.29-1.76l0.44,0.85l-0.76,0.47c-0.53,0.33-0.73,0.53-0.73,0.75
		c0,0.33,0.28,0.91,0.73,1.82L175.51,224.4"/>
	<path fill="none" stroke="#231F20" stroke-width="0.2628" stroke-miterlimit="3.864" d="M175.51,224.4
		c0.92-0.42,1.86-0.87,2.77-1.33c0.99-0.5,2.48-1.51,2.43-1.7l-0.62-2.44l0.84-0.42l1.58,3.68l-0.02,0.22
		c-1.34,0.82-3.83,2.09-5.24,2.75c-0.89,0.43-1.79,0.83-2.67,1.28c-0.9,0.46-1.76,0.95-2.54,1.37l-0.25-0.49l0.49-0.74
		c0.25-0.36,0.15-0.77-0.19-1.44l-4.89-9.6c-0.46-0.9-0.77-1.47-1.03-1.66c-0.17-0.13-0.45-0.09-1.03,0.15l-0.83,0.34l-0.44-0.85
		c0.89-0.43,2.09-0.98,3.37-1.64c1.27-0.64,2.42-1.29,3.29-1.76l0.44,0.85l-0.76,0.47c-0.53,0.33-0.73,0.53-0.73,0.75
		c0,0.33,0.28,0.91,0.73,1.82L175.51,224.4z"/>
	<path fill="#231F20" d="M183.13,210.93c0.48-0.28,0.91-0.58,1.35-0.89l1.3-0.91c0.69-0.48,1.06-0.8,0.83-1.2l-0.67-1.21l0.79-0.55
		c0.47,0.73,0.92,1.44,1.42,2.15c0.49,0.71,1.03,1.39,1.55,2.09l-0.79,0.55l-0.81-0.9c-0.45-0.51-0.95-0.43-1.63,0.05l-1.3,0.91
		c-0.43,0.31-0.85,0.63-1.28,0.98l3.68,5.26c0.86-0.54,1.72-1.11,2.56-1.71c0.91-0.64,2.24-1.84,2.17-2.02l-0.84-2.17l0.77-0.54
		l1.96,3.27l0.01,0.23c-1.21,1-3.5,2.6-4.81,3.45c-0.82,0.55-1.66,1.07-2.46,1.64c-0.83,0.58-1.61,1.19-2.32,1.72l-0.31-0.45
		l0.38-0.8c0.19-0.4,0.04-0.79-0.39-1.4l-6.18-8.83c-0.58-0.83-0.97-1.35-1.26-1.5c-0.24-0.13-0.5-0.09-1.04,0.23l-0.77,0.45
		l-0.51-0.73c1.31-0.89,2.35-1.55,3.12-2.09c1.85-1.3,3.16-2.27,4.27-3.08c1.09-0.79,1.96-1.4,2.92-1.96l0.21,0.05l1.68,2.99
		l-0.71,0.5l-1.19-1.37c-0.25-0.27-1.62,0.58-2.53,1.21c-0.84,0.6-1.68,1.21-2.48,1.83L183.13,210.93"/>
	<path fill="none" stroke="#231F20" stroke-width="0.2628" stroke-miterlimit="3.864" d="M183.13,210.93
		c0.48-0.28,0.91-0.58,1.35-0.89l1.3-0.91c0.69-0.48,1.06-0.8,0.83-1.2l-0.67-1.21l0.79-0.55c0.47,0.73,0.92,1.44,1.42,2.15
		c0.49,0.71,1.03,1.39,1.55,2.09l-0.79,0.55l-0.81-0.9c-0.45-0.51-0.95-0.43-1.63,0.05l-1.3,0.91c-0.43,0.31-0.85,0.63-1.28,0.98
		l3.68,5.26c0.86-0.54,1.72-1.11,2.56-1.71c0.91-0.64,2.24-1.84,2.17-2.02l-0.84-2.17l0.77-0.54l1.96,3.27l0.01,0.23
		c-1.21,1-3.5,2.6-4.81,3.45c-0.82,0.55-1.66,1.07-2.46,1.64c-0.83,0.58-1.61,1.19-2.32,1.72l-0.31-0.45l0.38-0.8
		c0.19-0.4,0.04-0.79-0.39-1.4l-6.18-8.83c-0.58-0.83-0.97-1.35-1.26-1.5c-0.24-0.13-0.5-0.09-1.04,0.23l-0.77,0.45l-0.51-0.73
		c1.31-0.89,2.35-1.55,3.12-2.09c1.85-1.3,3.16-2.27,4.27-3.08c1.09-0.79,1.96-1.4,2.92-1.96l0.21,0.05l1.68,2.99l-0.71,0.5
		l-1.19-1.37c-0.25-0.27-1.62,0.58-2.53,1.21c-0.84,0.6-1.68,1.21-2.48,1.83L183.13,210.93z"/>
	<path fill="#231F20" d="M194.47,207.74l1.54,1.46c1.22,0.39,3.12-0.31,4.05-1.15c1.52-1.37,2.08-3.33,0.68-4.89
		c-0.69-0.77-1.69-0.94-2.98-0.33l-3.18,1.5c-1.9,0.91-3.96,0.85-5.35-0.69c-2.57-2.86-1.43-5.87,1.16-8.2
		c1.11-1,2.46-1.86,3.87-2.38l0.28,0.13c0.34,0.73,1.2,1.84,2.04,2.76l-0.73,0.66l-1.43-1.37c-1.08-0.13-2.42,0.4-3.26,1.16
		c-1.66,1.5-1.58,3.17-0.5,4.37c0.73,0.81,1.83,0.88,3.46,0.03l2.52-1.3c2.03-1.05,4.02-0.96,5.47,0.65
		c2.74,3.04,1.36,6.58-1.35,9.02c-1.29,1.16-2.84,2.07-4.48,2.54c-0.73-1.25-1.6-2.31-2.52-3.33L194.47,207.74"/>
	<path fill="none" stroke="#231F20" stroke-width="0.2628" stroke-miterlimit="3.864" d="M194.47,207.74l1.54,1.46
		c1.22,0.39,3.12-0.31,4.05-1.15c1.52-1.37,2.08-3.33,0.68-4.89c-0.69-0.77-1.69-0.94-2.98-0.33l-3.18,1.5
		c-1.9,0.91-3.96,0.85-5.35-0.69c-2.57-2.86-1.43-5.87,1.16-8.2c1.11-1,2.46-1.86,3.87-2.38l0.28,0.13c0.34,0.73,1.2,1.84,2.04,2.76
		l-0.73,0.66l-1.43-1.37c-1.08-0.13-2.42,0.4-3.26,1.16c-1.66,1.5-1.58,3.17-0.5,4.37c0.73,0.81,1.83,0.88,3.46,0.03l2.52-1.3
		c2.03-1.05,4.02-0.96,5.47,0.65c2.74,3.04,1.36,6.58-1.35,9.02c-1.29,1.16-2.84,2.07-4.48,2.54c-0.73-1.25-1.6-2.31-2.52-3.33
		L194.47,207.74z"/>
</g>
<polyline fill="none" stroke="#231F20" stroke-width="2.0987" stroke-linecap="round" stroke-linejoin="round" points="
	114.49,165.93 112.09,163.75 95.75,148.79 95.98,140.73 93.3,137.67 93.84,133.83 92.14,132.3 90.38,133.44 86.78,130.77 
	85.32,127.85 85.09,126.01 84.63,125.16 85.01,124.39 89.08,127.7 90.61,125.93 89.46,123.63 89.62,121.17 88.31,121.17 
	88.09,116.96 86.01,117.72 85.25,119.64 84.25,121.56 81.95,119.41 80.03,118.87 79.26,116.96 78.11,113.5 76.8,110.82 
	74.89,107.13 74.66,98.7 73.35,96.78 72.75,93.55 71.05,90.87 71.05,86.42 71.97,82.05 72.97,78.98 71.44,76.83 71.44,73.77 
	70.67,70.16 98.73,70.11 98.73,102.46 99.05,109.21 120.07,109.11 174.75,157.61 174.98,160.83 178.2,164.13 177.28,171.58 
	177.43,175.64 175.9,178.33 175.51,181.78 162.48,185 152.74,187.3 132.96,175 "/>
<g>
	<path fill="#231F20" d="M115.82,166.72l-21.43-11.6l19.92,13.54 M113.88,169.53l-24.74-2.61l24.41,4.94 M113.5,173.76l-23.7,4.97
		l24.44-2.65 M114.46,176.64L95.7,190.53l19.95-11.92 M116.71,179.75l-13.15,19.96l15.1-18.57 M119.42,181.51l-2.75,23.44
		l4.99-22.82 M123.56,182.33l5.56,23.28l-3.3-23.76 M127.67,181.07l15.88,19.29l-13.92-20.51 M130.68,178.65l21.39,11.88
		l-20.1-13.83 M132.45,175.33l24.87,2.74l-24.42-4.94 M132.83,172.33l23.83-6.06l-24.21,3.89 M131.8,168.47l19.61-14.65
		l-20.87,12.69 M129.41,165.41l12.18-20.77l-14.08,19.47 M126.15,163.65l4.29-23.6l-6.56,23.12 M122.17,163.15l-6.15-23.76
		l3.93,24.15 M118.32,164.6l-14.76-19.3l12.89,20.74 M116.45,166.03c-0.22,0.22-0.44,0.45-0.63,0.69"/>
	<path fill="none" stroke="#231F20" stroke-width="0.7885" d="M115.82,166.72l-21.43-11.6l19.92,13.54 M113.88,169.53l-24.74-2.61
		l24.41,4.94 M113.5,173.76l-23.7,4.97l24.44-2.65 M114.46,176.64L95.7,190.53l19.95-11.92 M116.71,179.75l-13.15,19.96l15.1-18.57
		 M119.42,181.51l-2.75,23.44l4.99-22.82 M123.56,182.33l5.56,23.28l-3.3-23.76 M127.67,181.07l15.88,19.29l-13.92-20.51
		 M130.68,178.65l21.39,11.88l-20.1-13.83 M132.45,175.33l24.87,2.74l-24.42-4.94 M132.83,172.33l23.83-6.06l-24.21,3.89
		 M131.8,168.47l19.61-14.65l-20.87,12.69 M129.41,165.41l12.18-20.77l-14.08,19.47 M126.15,163.65l4.29-23.6l-6.56,23.12
		 M122.17,163.15l-6.15-23.76l3.93,24.15 M118.32,164.6l-14.76-19.3l12.89,20.74 M116.45,166.03c-0.22,0.22-0.44,0.45-0.63,0.69"/>
	<path fill="#231F20" d="M125.09,57.98l0.35-14.43h-5.56l0.75,15l4.58-0.17 M167.63,78.12l8.69-16.83l-4.49-3.64l-4.2,10.24V78.12z
		 M127.42,163.81l26.99-55.54l-2.63-1.48l-25.18,56.75 M123.96,163.05l0.97-57.13l-3.36,1.84l0.99,55.23 M119.25,163.73l-40.21-105
		l-4.28,3.21l43.8,102.04 M115.96,166l-66.2-69.21l-1.28,5.13l67.16,64.57 M114.2,168.98l-67.59-32.21l0.8,5.78l66.5,26.96
		 M113.5,172.68l-54.12-2.78l3.85,5.13l50.32-1.67 M114.26,176l-37.35,11.87l5.35,4.07l32.14-15.06 M116.06,178.95l-23.12,19.18
		l4.92,2.14l18.77-20.54 M118.62,180.97l-12.2,22.07l5.77,1.07l7.32-22.53 M122.16,182.23l-1.54,23.19h3.83l-1.21-23.15
		 M126.46,181.68l8.39,23.08l4.71-0.85l-11.54-22.89 M129.77,179.66l20.26,21.88l5.35-1.93l-24.89-20.68 M131.99,176.6l35.99,16.83
		l4.49-3.21c0,0-25.62-9.09-40.14-14.31 M132.89,173.43l55.99,2.08l3.91-5.39l-59.85,2.51 M132.45,169.6l72.54-27.85l0.77-6.14
		c0,0-51.84,23.26-73.57,33.12 M130.32,165.95l71.71-67.71l-1.98-5.52l-70.37,72.86"/>
	<path fill="none" stroke="#231F20" stroke-width="0.9572" d="M132.62,172.48c0,5.21-4.22,9.43-9.42,9.43
		c-5.21,0-9.43-4.22-9.43-9.43s4.22-9.43,9.43-9.43C128.4,163.05,132.62,167.27,132.62,172.48z"/>
	<path fill="#231F20" d="M130.48,172.55c0,3.98-3.23,7.21-7.21,7.21c-3.98,0-7.21-3.23-7.21-7.21c0-3.98,3.23-7.21,7.21-7.21
		C127.25,165.34,130.48,168.57,130.48,172.55"/>
</g>
<g>
	<path fill="#231F20" d="M167.1,105.89c0,0-6.52,1.95-11.89-0.56c-3.98-1.87-7.45-2.8-13.21-2.23c-2.94,0.3-5.29,2.24-6.2,2.69
		c-0.09,0.05-2.63-1.45-5.75-2.28c-2.96-0.78-7.18-0.65-9.31,0c-2.85,0.89-4.55,2.8-12.11,3c-1,0.02-3.33-0.55-5.38-1.13
		c-0.36-0.11-4.51,4.34-4.51,4.34h71.47L167.1,105.89z"/>
	<path fill="none" stroke="#231F20" stroke-width="0.8277" stroke-linecap="round" stroke-linejoin="round" d="M167.1,105.89
		c0,0-6.52,1.95-11.89-0.56c-3.98-1.87-7.45-2.8-13.21-2.23c-2.94,0.3-5.29,2.24-6.2,2.69c-0.09,0.05-2.63-1.45-5.75-2.28
		c-2.96-0.78-7.18-0.65-9.31,0c-2.85,0.89-4.55,2.8-12.11,3c-1,0.02-3.33-0.55-5.38-1.13c-0.36-0.11-4.51,4.34-4.51,4.34h71.47
		L167.1,105.89z"/>
	<path fill="#FFFFFF" stroke="#231F20" stroke-width="1.6554" stroke-linecap="round" stroke-linejoin="round" d="M153.72,59.13
		c-0.02-0.05-11.73-4.45-18.08,2.59v44.52c0.08,0,8.63-6.29,18.88-0.42c-0.03,0.02,7.35,3.01,12.51,0.22V59.13
		C166.98,59.16,163.14,61.83,153.72,59.13z M117.55,59.13c0.08-0.05,11.79-4.45,18.09,2.59v44.52c-0.01,0-8.56-6.29-18.89-0.42
		c0.11,0.02-8.93,2.38-14.1-0.38l0.02-47.43C102.73,58.01,108.2,61.83,117.55,59.13z"/>
	<polyline fill="#231F20" points="98.68,109.25 98.68,61.51 102.67,58.01 102.66,105.44 98.68,109.3 98.68,109.25 	"/>
	<polygon fill="none" stroke="#231F20" stroke-width="1.6554" stroke-linecap="round" stroke-linejoin="round" points="
		98.68,109.25 98.68,61.51 102.67,58.01 102.66,105.44 98.68,109.3 	"/>
	<polyline fill="#231F20" points="167.03,59.13 170.22,62.51 170.22,109.3 167.03,106.04 167.03,59.13 	"/>
	<polygon fill="none" stroke="#231F20" stroke-width="1.6554" stroke-linecap="round" stroke-linejoin="round" points="
		167.03,59.13 170.22,62.51 170.22,109.3 167.03,106.04 	"/>
	<path fill="#231F20" d="M120.86,95.22c5.86-2.25,8.33-7.93,8.33-14.56c0-5.32-1.82-8.85-4.9-8.85c-3.05,0-5.19,3.4-5.19,7.66
		c0,3.66,1.53,6.63,4.27,6.63c0.58,0,1.5-0.32,1.96-0.85l1.62-1.92c-0.14,5.74-3.01,9.78-6.89,11.05v0.27L120.86,95.22
		 M124.22,84.09c-2.17,0-3.15-2.9-3.15-5.6c0-2.74,0.72-5.51,3.13-5.58c2.31-0.07,2.98,3.56,2.98,6.27
		C127.18,81.75,126.07,84.09,124.22,84.09z"/>
	<path fill="none" stroke="#231F20" stroke-width="0.6198" stroke-miterlimit="3.864" d="M120.86,95.22
		c5.86-2.25,8.33-7.93,8.33-14.56c0-5.32-1.82-8.85-4.9-8.85c-3.05,0-5.19,3.4-5.19,7.66c0,3.66,1.53,6.63,4.27,6.63
		c0.58,0,1.5-0.32,1.96-0.85l1.62-1.92c-0.14,5.74-3.01,9.78-6.89,11.05v0.27L120.86,95.22z M124.22,84.09
		c-2.17,0-3.15-2.9-3.15-5.6c0-2.74,0.72-5.51,3.13-5.58c2.31-0.07,2.98,3.56,2.98,6.27C127.18,81.75,126.07,84.09,124.22,84.09z"/>
	<path fill="#231F20" d="M146.17,81.37h-4.73l4.69-7.67h0.04V81.37 M146.17,82.77v1.66c0,1.49-0.39,1.62-1.32,1.67l-1.37,0.07v0.66
		c1.12-0.03,2.27-0.07,3.43-0.07c1.17,0,2.31,0.04,3.47,0.07v-0.66l-1.05-0.07c-0.92-0.07-1.32-0.18-1.32-1.67v-1.66
		c0.86,0,1.69,0,2.37,0.09V81.3c-0.78,0.07-1.58,0.09-2.37,0.07V78.3c0-3.34,0.04-6.02,0.15-6.7l-0.26-0.11l-1.63,0.6l-6.22,10.19
		l0.24,0.5h5.88V82.77z"/>
	<path fill="none" stroke="#231F20" stroke-width="0.6198" stroke-miterlimit="3.864" d="M146.17,81.37h-4.73l4.69-7.67h0.04V81.37z
		 M146.17,82.77v1.66c0,1.49-0.39,1.62-1.32,1.67l-1.37,0.07v0.66c1.12-0.03,2.27-0.07,3.43-0.07c1.17,0,2.31,0.04,3.47,0.07v-0.66
		l-1.05-0.07c-0.92-0.07-1.32-0.18-1.32-1.67v-1.66c0.86,0,1.69,0,2.37,0.09V81.3c-0.78,0.07-1.58,0.09-2.37,0.07V78.3
		c0-3.34,0.04-6.02,0.15-6.7l-0.26-0.11l-1.63,0.6l-6.22,10.19l0.24,0.5h5.88V82.77z"/>
	<path fill="#231F20" d="M158.33,80.72c0.81-1.88,1.59-3.9,2.4-6.53h-5.87c-1.06,0.22-1.19,0.57-1.34,2.42l-0.15,1.75h-0.66
		c0.02-1.07,0.07-2.16,0.07-3.27c0-1.07-0.04-2.14-0.07-3.24l0.22-0.15c1.61,0.08,3.23,0.15,4.86,0.15c1.65,0,3.27-0.07,4.88-0.15
		v0.94l-4.03,10.34c-1.36,3.52-2.57,7.13-3.45,10.46c-0.33-0.04-0.68-0.09-1.02-0.09c-0.33,0-0.67,0.05-1.01,0.09l-0.2-0.41
		L158.33,80.72"/>
	<path fill="none" stroke="#231F20" stroke-width="0.6041" stroke-miterlimit="3.864" d="M158.33,80.72c0.81-1.88,1.59-3.9,2.4-6.53
		h-5.87c-1.06,0.22-1.19,0.57-1.34,2.42l-0.15,1.75h-0.66c0.02-1.07,0.07-2.16,0.07-3.27c0-1.07-0.04-2.14-0.07-3.24l0.22-0.15
		c1.61,0.08,3.23,0.15,4.86,0.15c1.65,0,3.27-0.07,4.88-0.15v0.94l-4.03,10.34c-1.36,3.52-2.57,7.13-3.45,10.46
		c-0.33-0.04-0.68-0.09-1.02-0.09c-0.33,0-0.67,0.05-1.01,0.09l-0.2-0.41L158.33,80.72z"/>
	<path fill="#231F20" d="M109.24,73.61c1.88-0.62,3.79-1.37,5.27-2.12l0.33,0.11v13.1c0,0.51,0.04,0.95,0.3,1.15
		c0.3,0.24,0.72,0.29,1.21,0.31l1.21,0.07v0.66c-1.74-0.02-2.72-0.07-3.69-0.07c-0.98,0-1.95,0.04-3.79,0.07v-0.66l1.3-0.07
		c0.49-0.02,0.9-0.07,1.2-0.31c0.26-0.2,0.3-0.64,0.3-1.15V73.99c0-0.37,0-0.82-0.26-0.71l-2.99,1.28h-0.24L109.24,73.61"/>
	<path fill="none" stroke="#231F20" stroke-width="0.6041" stroke-miterlimit="3.864" d="M109.24,73.61
		c1.88-0.62,3.79-1.37,5.27-2.12l0.33,0.11v13.1c0,0.51,0.04,0.95,0.3,1.15c0.3,0.24,0.72,0.29,1.21,0.31l1.21,0.07v0.66
		c-1.74-0.02-2.72-0.07-3.69-0.07c-0.98,0-1.95,0.04-3.79,0.07v-0.66l1.3-0.07c0.49-0.02,0.9-0.07,1.2-0.31
		c0.26-0.2,0.3-0.64,0.3-1.15V73.99c0-0.37,0-0.82-0.26-0.71l-2.99,1.28h-0.24L109.24,73.61z"/>
</g>
</svg>
