<?xml version="1.0" encoding="utf-8"?>
<!-- Generator: Adobe Illustrator 22.1.0, SVG Export Plug-In . SVG Version: 6.00 Build 0)  -->
<svg version="1.1" id="Layer_1" xmlns="http://www.w3.org/2000/svg" xmlns:xlink="http://www.w3.org/1999/xlink" x="0px" y="0px"
	 viewBox="0 0 2798.4 1114" style="enable-background:new 0 0 2798.4 1114;" xml:space="preserve">
<style type="text/css">
	.st0{fill:#5F8474;}
	.st1{fill:#7EB09B;}
	.st2{fill:#808080;}
	.st3{fill:#CB132A;}
	.st4{fill:#DB9800;}
	.st5{fill:#383838;}
</style>
<title>CSPFinalNoCap</title>
<g id="Layer_4">
	<path class="st0" d="M2481,494.9c16.3,5.7,35,8.9,54.8,2.8c20.7-6.4,28.9-19.1,24.7-32.6c-10.2-32.8-92.3-1-106.6-47.1
		c-7.7-24.9,9.2-47.2,39.6-56.7c23.3-7.2,39.8-2.7,55.3,5.2l-7.6,16.6c-14.9-5.8-26.1-8.4-43.6-3c-17.7,5.5-26.2,17.4-22.1,30.7
		c9,29.1,91.2-2.4,106.2,46c7.9,25.4-9.6,49.7-42.9,60c-21.7,6.7-46.4,3.9-63.4-3.3L2481,494.9z M2474,329.6l15.9-4.9l13.2,42.6
		l-15.9,4.9L2474,329.6z M2546,506.1l14.2,45.8l-15.9,4.9l-14.2-45.8L2546,506.1z"/>
	<path class="st0" d="M2219.8,129.5l13.6-9.6l25.7,36.5l-13.6,9.6L2219.8,129.5z M2277.3,284.6c17.2,0.4,36-2.3,53-14.3
		c17.7-12.4,21.6-27.1,13.5-38.6c-19.8-28.1-88.1,27.4-115.9-12c-15-21.3-5.8-47.8,20.3-66.1c20-14,37-14.9,54.2-12.1l-2.2,18.1
		c-15.9-1-27.5,0-42.4,10.5c-15.2,10.7-19.6,24.6-11.6,36c17.5,24.9,86.1-30.4,115.3,11.1c15.3,21.8,6.2,50.2-22.4,70.3
		c-18.6,13.1-42.9,18-61.3,16.4L2277.3,284.6z M2342.6,275.2l27.6,39.2l-13.6,9.6l-27.6-39.2L2342.6,275.2z"/>
	<g>
		<path class="st1" d="M2717.8,552.1l-34.9-109.8l-55.6-174.7l-12.6-39.7c-2.8-8.8-12.2-15.2-21.6-12.3l-28.5,9.1l-77.1,24.7
			l-114.4,36.6l-139,44.5l-152.2,48.7l-153.7,49.2l-143.8,46l-121.1,38.8l-87.3,28c-13.7,4.4-27.5,8.6-41.2,13.2
			c-0.6,0.2-1.2,0.4-1.8,0.6c-9,2.9-14.8,12.2-12.3,21.6c2.4,8.9,12.5,15.2,21.6,12.3l28.5-9.1l77.1-24.7l114.4-36.6l139-44.5
			l152.2-48.7l153.7-49.2l143.8-46l121.1-38.8l87.3-28c13.7-4.4,27.6-8.4,41.2-13.2c0.6-0.2,1.2-0.4,1.8-0.6l-21.6-12.3l34.9,109.8
			l55.6,174.7l12.6,39.7c2.9,9,12.2,14.8,21.6,12.3C2714.5,571.2,2720.7,561.1,2717.8,552.1L2717.8,552.1z"/>
		<path class="st1" d="M2490.7,251.7l-60.1-81.9l-96.2-131.1l-22-30c-5.5-7.4-15.3-11.8-24-6.3l-23.7,15l-64.3,40.6l-95.4,60.3
			l-116,73.3L1862,272l-128.2,81l-120,75.8l-101,63.8l-72.9,46.1c-11.4,7.2-23,14.4-34.3,21.7c-0.5,0.3-1,0.6-1.5,0.9
			c-7.8,4.9-11.6,15.9-6.3,24c5,7.8,15.7,11.5,24,6.3l23.7-15l64.3-40.6l95.4-60.3l116-73.3l127-80.3l128.2-81l120-75.8l101-63.8
			l72.9-46.1c11.4-7.2,23.1-14.2,34.3-21.7c0.5-0.3,1-0.6,1.5-0.9l-24-6.3l60.1,81.9l96.2,131.1l22,30c5.4,7.4,15.5,11.8,24,6.3
			C2491.8,271,2496.6,259.7,2490.7,251.7z"/>
	</g>
	<path class="st2" d="M1050.2,597.1l46.4-0.6l126.3-1.6l186-2.3l227.7-2.9l249.4-3.1l250.9-3.2l234.7-3l198.3-2.5l142.1-1.8
		c22.4-0.3,45.1,0.3,67.5-0.9c1-0.1,1.9,0,2.9,0l-16-16l1.9,161.3l0.3,23.2c0.2,20.6,32.3,20.7,32,0l-1.9-161.3l-0.3-23.2
		c-0.1-8.6-7.3-16.1-16-16l-46.4,0.6l-126.3,1.6l-186,2.3l-227.7,2.9l-249.4,3.1l-250.9,3.2l-234.7,3l-198.3,2.5l-142.1,1.8
		c-22.5,0.3-45,0.2-67.5,0.9c-1,0-1.9,0-2.9,0C1029.6,565.4,1029.6,597.4,1050.2,597.1z"/>
	<path class="st3" d="M28.3,144.9h1260.4c5.6,0,11.7,0.6,17.3,0c0.4,0,1,0.2,1.3,0c0.1,0,0.2,0,0.2,0h0c1.4,0,0.1-0.5-3.9-1.6
		c-3.9-1.6-8.7-2.6-7.1-9.5c0,0.4,0,0.7,0,1.1c-1.2,12.7,0,26.1,0,38.8v21.1c0,2-0.2,4,0,5.9c0,0.4-0.1,0.8,0,1.2
		c-0.8-4.6,5.5-12.1,11-11c-0.9-0.1-1.8-0.1-2.7,0H36c-2,0-4.1-0.1-6.2,0c-0.4,0-0.9,0-1.3,0c-0.1,0-0.1,0-0.2,0
		c7-1.4,7.8,3.3,9.4,7.2c14.2,34.6,1.3,4.5,1.6,3.8c0.2-0.3,0-1,0-1.4c0.6-4.9,0-10.3,0-15.2V142c0-2,0.1-4.1,0-6.2
		c0-0.6,0-1.1,0-1.7C40.3,139.6,33.8,144.4,28.3,144.9c10.2-1,20.2-8.3,19.6-19.6c-0.4-9.8-8.7-20.7-19.6-19.6
		C11.8,107.3,0.6,118,0.1,135c-0.2,5,0,10,0,15.1v45.6c0,6.8,0,13.4,3.4,19.7c5.1,9.4,14.6,14.6,25.1,14.9c1.3,0,2.5,0,3.8,0h1216.4
		c18.9,0,37.7,0.2,56.6,0c2.2,0,4.5-0.2,6.7-0.5c14.8-2,23.6-15,23.9-29.2c0.1-5.3,0-10.5,0-15.8v-45.3c0-7.1-0.2-14-4.2-20.4
		c-5.3-8.5-14.4-13.1-24.3-13.5c-14.8-0.5-29.6,0-44.4,0H28.3c-10.3,0-20.1,9-19.6,19.6C9.2,135.9,17.3,144.9,28.3,144.9z"/>
	<path class="st4" d="M83.9,99.9v378.3c0,17.4-0.5,34.9,0,52.3c0,0.2,0,0.5,0,0.7c0,9.1,8,17.8,17.4,17.4
		c9.4-0.4,17.4-7.7,17.4-17.4V152.9c0-17.4,0.5-34.9,0-52.3c0-0.2,0-0.5,0-0.7c0-9.1-8-17.8-17.4-17.4
		C91.9,82.9,83.9,90.1,83.9,99.9z"/>
	<path class="st3" d="M335.9,210.6v342.2c0,15.8-0.4,31.6,0,47.4c0,0.2,0,0.4,0,0.7c0,14.8,16.7,24.6,29.6,17
		c5.7-3.3,11.6-6.2,17.6-8.9c1.5-0.7,3-1.4,4.5-2c0.7-0.3,1.4-0.6,2.1-0.9c3.1-1.4-5.2,2.1-1.2,0.5c3.8-1.5,7.5-3,11.3-4.4
		c8.8-3.3,17.8-6.2,26.8-8.7c10.5-2.9,21.2-5.3,32-7.1c1.5-0.2,2.9-0.5,4.4-0.7c0.9-0.1,5.3-0.7,1.8-0.3c-3.8,0.5,1.7-0.2,2.4-0.3
		c1.7-0.2,3.4-0.4,5.1-0.6c6-0.6,12.1-1,18.2-1.2c13-0.4,26.1,0.2,39,1.7c3.5,0.4-1.1,0-1.4-0.2c0.8,0.2,1.7,0.3,2.6,0.4
		c1.7,0.3,3.4,0.5,5.1,0.8c3.5,0.6,6.9,1.3,10.4,2c7.1,1.5,14,3.4,20.9,5.6c3.8,1.2,7.5,2.5,11.2,3.9c2,0.8,4,1.5,5.9,2.3
		c1,0.4,3.4,1-0.7-0.3c1.1,0.4,2.2,0.9,3.3,1.5c7.9,3.6,15.6,7.6,23.1,12c8.1,4.8,16,10.1,23.6,15.9c0.6,0.5,2.9,2.3-0.1-0.1
		c0.9,0.7,1.7,1.4,2.6,2.1c2,1.6,3.9,3.2,5.8,4.8c4.2,3.6,8.2,7.3,12.2,11.1c7.4,7,20.5,8.1,27.8,0c4-4.4,8.4-8.4,12.9-12.3
		c2.4-2.1,4.9-4.1,7.3-6.1c0.6-0.5,1.3-1,2-1.5c0.3-0.2-4.6,3.5-2.5,1.9c0.4-0.3,0.7-0.5,1-0.8c1.5-1.1,2.9-2.2,4.4-3.2
		c7-5,14.2-9.7,21.6-14.1c8.9-5.1,18.1-9.7,27.6-13.9c2.2-1-4.2,1.7-2,0.8c0.6-0.2,1.2-0.5,1.8-0.8c1.1-0.4,2.2-0.9,3.3-1.3
		c2.9-1.1,5.8-2.2,8.7-3.2c5.6-1.9,11.2-3.7,16.9-5.2c6-1.6,12-3,18.1-4.1c3.1-0.6,6.1-1.1,9.2-1.5c0.8-0.1,1.6-0.2,2.3-0.3
		c-0.3,0.1-5,0.6-1.7,0.2c1.8-0.2,3.6-0.4,5.4-0.6c14-1.4,28.1-1.5,42.1-0.5c4.3,0.3,8.7,1.3,12.9,1.3c-0.5,0-4.6-0.7-1.1-0.1
		c1.2,0.2,2.3,0.3,3.5,0.5c2.1,0.3,4.2,0.7,6.3,1.1c9,1.7,18,3.8,26.8,6.3c9.5,2.7,18.9,6,28.1,9.6c1,0.4,2.1,0.8,3.1,1.2
		c3.5,1.4-1.4-0.6,0.8,0.3c2.4,1,4.7,2.1,7.1,3.1c5.4,2.5,10.7,5.1,16,7.8c13,6.7,29.6-1.5,29.6-17V291.6c0-10.3-9-20.1-19.6-19.6
		c-10.6,0.5-19.6,8.6-19.6,19.6v302.8l29.6-17c-61.2-31.5-130-45.9-198-31.1c-42,9.1-81.2,29.3-114.4,56.4
		c-6.2,4.9-12.1,10.3-17.5,16.1h27.8c-26.5-25.3-56.9-45.3-91.1-58.6c-27.9-10.8-58.2-16.1-88.1-16.5c-46-0.6-91.4,10.3-133.4,28.4
		c-8.1,3.3-16,7.2-23.6,11.5l29.6,17V258.7c0-15.8,0.4-31.6,0-47.4c0-0.2,0-0.4,0-0.7c0-10.3-9-20.1-19.6-19.6
		C344.9,191.4,335.9,199.6,335.9,210.6L335.9,210.6z"/>
	<path class="st4" d="M124.9,571.4c0,1.6-0.8,6,0.1,2.1c-0.4,1.7-0.7,3.5-1.2,5.2c-0.3,0.8-0.6,1.7-0.9,2.5c0.2-0.6,1.7-3.3,0.2-0.6
		c-0.9,1.7-2.1,3.3-3,5c-1.1,2,2.1-2,0.4-0.5c-0.6,0.6-1.1,1.3-1.7,1.9c-0.6,0.6-1.2,1.2-1.8,1.8c-0.4,0.4-2.6,2.2-0.7,0.7
		c1.7-1.3-1.8,1.1-2.5,1.5c-0.7,0.4-1.5,0.8-2.3,1.2c-3.6,2,3.3-0.9-0.6,0.3c-1.7,0.5-3.4,0.9-5.1,1.4c-1,0.3-3.1,0.1,0.6,0
		c-0.9,0-1.8,0.2-2.7,0.2c-1.6,0.1-3.2-0.1-4.8-0.1c-2.5,0,2.9,0.9,0.6,0.1c-1-0.4-2.2-0.5-3.2-0.7c-1.4-0.4-5.4-2.2-2-0.5
		c-1.5-0.8-3.1-1.5-4.6-2.5c-0.7-0.5-1.4-1-2.1-1.4c0.5,0.3,2.7,2.4,0.5,0.3c-1.4-1.3-2.6-2.9-4-4.1c-1.7-1.5,1.4,2.5,0.4,0.5
		c-0.4-0.8-1-1.4-1.4-2.2c-0.4-0.7-0.8-1.5-1.3-2.3c-0.3-0.5-1.4-3.1-0.5-0.9c0.9,2.2-0.7-2.2-0.9-2.9c-0.2-0.9-0.4-1.7-0.6-2.6
		c-1-4.1,0,3.5-0.1-0.7c0-1.8-0.1-3.7,0-5.5c0-1.1,0.7-2.9-0.1,0.6c0.2-0.9,0.3-1.8,0.5-2.6c0.4-1.5,1-2.9,1.3-4.4
		c0.5-2.3-1.5,2.5-0.2,0.6c0.6-0.9,1-1.9,1.5-2.9c0.7-1.3,3.5-4.6,1-1.8c1.1-1.3,2.3-2.6,3.5-3.7c0.6-0.6,1.3-1.1,1.9-1.7
		c-0.5,0.4-3,2-0.4,0.4c1.6-1,3.5-1.8,5-2.9c1.9-1.3-2.8,0.7-0.6,0.2c0.8-0.2,1.7-0.6,2.5-0.8c0.8-0.2,1.7-0.5,2.6-0.7
		c0.6-0.1,3.5-0.6,1-0.3c-2.4,0.4,2.4-0.1,3.1-0.1c0.9,0,1.8,0.1,2.7,0.1c4.2,0.1-3.3-0.9,0.7,0.1c1.9,0.5,3.8,1.2,5.7,1.6
		c2.3,0.5-2.5-1.5-0.6-0.2c0.9,0.6,1.9,1,2.9,1.5c0.7,0.4,1.4,0.9,2.2,1.4c2.7,1.6-1.2-1.4,0.1,0c1.3,1.4,2.8,2.7,4.1,4
		c2.1,2.2,0,0-0.3-0.5c0.7,1.1,1.5,2.1,2.1,3.2c0.4,0.7,0.8,1.5,1.2,2.3c1.6,2.7-0.2-1.8,0,0c0.4,1.9,1,3.8,1.6,5.7
		c0.3,1,0.1,3.1,0-0.6C124.7,568.7,124.9,570.1,124.9,571.4c0.2,9.1,7.9,17.8,17.4,17.4c9.3-0.4,17.6-7.7,17.4-17.4
		c-0.3-24.3-15.6-46-38.5-54.3c-21.5-8-47.6-1-62.4,16.4c-15.8,18.7-18.9,45.6-6.4,66.9c12.7,21.6,37.5,31.7,61.8,27.2
		c26.6-5,45.1-29.9,45.5-56.3c0.2-9.1-8.1-17.8-17.4-17.4C132.7,554.4,125,561.7,124.9,571.4z"/>
	<path class="st4" d="M120,1096.5l0.1-46.9l0.2-112.6l0.2-135.7l0.2-117.3c0-19.1,0.6-38.2,0.1-57.3c0-0.3,0-0.5,0-0.8
		c0-9.1-8-17.8-17.4-17.4c-9.5,0.4-17.4,7.7-17.4,17.4l-0.1,46.9l-0.2,112.6l-0.2,135.7l-0.2,117.3c0,19.1-0.6,38.2-0.1,57.3
		c0,0.3,0,0.5,0,0.8c0,9.1,8,17.8,17.4,17.4C112,1113.5,120,1106.3,120,1096.5l0.1-46.9l0.2-112.6l0.2-135.7l0.2-117.3
		c0-19.1,0.6-38.2,0.1-57.3c0-0.3,0-0.5,0-0.8c0-9.1-8-17.8-17.4-17.4c-9.5,0.4-17.4,7.7-17.4,17.4l-0.1,46.9l-0.2,112.6l-0.2,135.7
		l-0.2,117.3c0,19.1-0.6,38.2-0.1,57.3c0,0.3,0,0.5,0,0.8c0,9.1,8,17.8,17.4,17.4C112,1113.5,120,1106.3,120,1096.5z"/>
	<path class="st4" d="M67.3,609.5c-14.6,7.4-27.4,20.4-36.2,34c-11.3,17.4-13.8,36.7-13.7,56.9c0.2,29.5,0.1,59,0.2,88.5
		c0,42.8,0,85.5,0,128.3c0,39.6-0.1,79.1-0.1,118.7c0,19.9-0.6,39.9-0.1,59.8c0,0.3,0,0.6,0,0.9c0,9.1,8,17.8,17.4,17.4
		c9.4-0.4,17.4-7.7,17.4-17.4c0-16,0-31.9,0.1-47.9c0-37.3,0.1-74.7,0.1-112c0-42.8,0.1-85.7,0.1-128.5c0-32.5,0-65-0.1-97.5
		c0-4.6,0-9.2-0.1-13.8c0-1.6,0-3.3,0-4.9c0-2.2,0-4.3,0.2-6.5c0.1-0.9,0.2-1.8,0.2-2.8c-0.2,3.8-0.3,1.6-0.1,0.6
		c0.3-1.7,0.6-3.4,1.1-5.1c0.4-1.6,0.9-3.3,1.4-4.9c0.3-0.8,1.6-4.9,0.8-2.5c-0.7,2.4,1-2.1,1.4-2.8c0.7-1.4,1.4-2.7,2.2-4
		c0.9-1.5,4.5-5.3,4.6-6.9c0,0.2-2.7,3.3-0.8,1c0.4-0.5,0.9-1.1,1.3-1.6c0.9-1,1.8-2,2.7-3c3.2-3.3,6.5-6.3,10.1-9.2
		c0.6-0.5-3.7,2.7-0.9,0.7c0.7-0.5,1.4-1,2.1-1.5c1.1-0.8,2.3-1.5,3.5-2.3c1-0.6,1.9-1.2,2.9-1.7c8.1-4.1,11.1-16.2,6.2-23.8
		C85.8,607.4,76,605,67.3,609.5L67.3,609.5z"/>
	<path class="st4" d="M118.5,636.5c1.1,0.5,2.1,1.2,3.1,1.8c1.1,0.7,2.2,1.4,3.3,2.2c0.6,0.4,1.2,0.9,1.8,1.3
		c0.4,0.3,0.7,0.6,1.1,0.8c1.4,1-3.8-3.1-1.5-1.1c3.4,2.8,6.7,5.8,9.8,9c0.9,1,1.8,2,2.7,3c0.5,0.6,3.1,3.5,1.3,1.5
		c-1.9-2.2,0.8,1.1,1.2,1.7c0.9,1.4,1.8,2.8,2.7,4.2c1.3,2.2,3.5,5.3,4,7.8c-0.1-0.3-1.4-3.8-0.4-0.8c0.2,0.6,0.4,1.2,0.6,1.7
		c0.6,1.8,1.2,3.6,1.6,5.4c0.4,1.5,0.7,3,1,4.5c0.8,4.4-0.1-2.5,0.2,2.1c0.2,2.4,0.2,4.9,0.2,7.3c0,3.7-0.1,7.5-0.1,11.2
		c-0.1,30.1-0.1,60.3-0.1,90.4c0,42.4,0,84.8,0,127.3c0,38.9,0.1,77.7,0.1,116.6c0,19.4-0.5,38.9,0.1,58.3c0,0.3,0,0.5,0,0.8
		c0,9.1,8,17.8,17.4,17.4c9.4-0.4,17.4-7.7,17.4-17.4c0-16.3,0-32.7-0.1-49c0-38-0.1-76-0.1-114.1c0-43.3,0-86.5-0.1-129.8
		c0-32.1,0-64.1,0.1-96.2c0.1-15.3,0.7-30.7-4.6-45.3c-7.7-21.3-22.9-39.1-42.2-51c-1-0.6-2-1.2-3.1-1.8c-8.1-4.1-19.3-2.4-23.8,6.2
		C108.1,620.6,109.9,632.1,118.5,636.5L118.5,636.5z"/>
	<path class="st5" d="M286.3,837.3c0-91,53.5-146.7,125.5-146.7c29.7-0.1,58,12.7,77.7,34.9l-19.4,23.3
		c-15.1-16-33.7-26.7-57.8-26.7c-53.5,0-88.9,44-88.9,114.3c0,71.2,34.1,116.1,87.6,116.1c27.2,0,47.5-12.1,65.6-31.9l19.8,22.4
		c-22.4,25.9-50,41-86.7,41C339,983.9,286.3,929.6,286.3,837.3z"/>
	<path class="st5" d="M594.4,755.3h40.6l80.2,223.5h-38l-20.7-63h-85l-20.7,63h-36.2L594.4,755.3z M580.5,889h67.3l-10.4-31.9
		c-8.2-24.6-14.7-48.3-22.4-72.9h-1.7c-7.8,25-14.2,48.3-22.4,72.9L580.5,889z"/>
	<path class="st5" d="M754.8,755.3h35.8V949h102.2v29.8H754.8V755.3z"/>
	<path class="st5" d="M922.7,942.1l21.6-25c20.3,21.1,48.8,35.4,78.1,35.4c37.1,0,59.1-18.6,59.1-46.2c0-28.9-20.3-38-47-50
		l-40.6-17.7c-26.7-11.2-57.4-31.5-57.4-72.9c0-43.1,37.5-75.1,88.9-75.1c31.5,0,61.6,12.6,83.7,34.9l-19.4,23.3
		c-17.3-16.4-38-26.7-64.3-26.7c-31.5,0-52.6,16-52.6,41.4c0,27.2,24.6,37.5,47,47l40.1,17.3c32.8,14.2,58.2,33.7,58.2,75.5
		c0,44.9-36.7,80.7-96.2,80.7C984.5,984.1,948.6,969,922.7,942.1z"/>
	<path class="st5" d="M1219,785.1h-70.8v-29.8h177.3v29.8h-70.8v193.7H1219V785.1z"/>
	<path class="st5" d="M1405.8,755.3h40.6l80.2,223.5h-38l-20.7-63h-85l-20.7,63H1326L1405.8,755.3z M1392,889h67.3l-10.4-31.9
		c-8.2-24.6-14.7-48.3-22.4-72.9h-1.7c-7.8,25-14.2,48.3-22.4,72.9L1392,889z"/>
	<path class="st5" d="M1597.4,785.1h-70.8v-29.8h177.3v29.8h-70.8v193.7h-35.8V785.1z"/>
	<path class="st5" d="M1754.8,755.3h140.6v28.5h-104.8v64.7h88.9v27.2h-88.9v74.6h109.1v28.5h-145V755.3z"/>
	<path class="st4" d="M1959.8,695.7h80.7c63.4,0,106.1,21.1,106.1,83.3c0,59.5-42.3,87.6-104.4,87.6h-46.6v112.2h-35.8V695.7z
		 M2037.8,837.3c49.2,0,72.9-18.1,72.9-58.2c0-41-25-54.4-74.6-54.4h-40.6v112.6H2037.8z"/>
	<path class="st4" d="M2226.4,755.3h40.6l80.2,223.5h-38l-20.7-63h-85l-20.7,63h-36.2L2226.4,755.3z M2212.6,889h67.3l-10.4-31.9
		c-8.2-24.6-14.7-48.3-22.4-72.9h-1.7c-7.8,25-14.2,48.3-22.4,72.9L2212.6,889z"/>
	<path class="st4" d="M2415.3,894.2l-72-138.9h38l28.5,59.1c7.3,16.4,15.1,31.9,23.3,48.8h1.7c7.8-16.8,15.1-32.4,22.9-48.8
		l28.5-59.1h37.1l-72,138.9v84.6h-35.8V894.2z"/>
	<path class="st4" d="M2534.8,951.6l19-24.6c19,17.3,42.7,28.5,69,28.5c29.3,0,45.7-13.8,45.7-34.1c0-21.6-16-28.9-36.7-37.5
		l-28-11.2c-30.6-11.6-56.1-28.5-56.1-60.8c0-37.1,32.4-61.7,77.7-61.7c32.8,0,57.8,12.9,74.2,27.2l-18.6,23.3
		c-15.1-12.9-34.1-22-56.1-22c-25.5,0-41.4,11.6-41.4,31.5c0,17.7,13.8,25.9,36.7,34.9l28.5,11.2c32.8,12.5,56.1,25,56.1,62.6
		c0,37.1-31.9,65.1-83.3,65.1C2585.7,983.9,2556,970.6,2534.8,951.6z"/>
</g>
</svg>
