<?xml version="1.0" encoding="utf-8"?>
<!-- Generator: Adobe Illustrator 22.1.0, SVG Export Plug-In . SVG Version: 6.00 Build 0)  -->
<svg version="1.1" id="Layer_1" xmlns="http://www.w3.org/2000/svg" xmlns:xlink="http://www.w3.org/1999/xlink" x="0px" y="0px"
	 viewBox="0 0 993.4 395.2" style="enable-background:new 0 0 993.4 395.2;" xml:space="preserve">
<style type="text/css">
	.st0{fill:#5F8474;}
	.st1{fill:#7EB09B;}
	.st2{fill:#808080;}
	.st3{fill:#CB132A;}
	.st4{fill:#DB9800;}
	.st5{fill:#383838;}
	.st6{fill:#D00D2D;}
</style>
<title>cspLogoRedNoCap</title>
<path class="st0" d="M880.8,175.7c5.8,2,12.4,3.2,19.5,1c7.3-2.3,10.3-6.8,8.8-11.6c-3.6-11.7-32.8-0.4-37.8-16.7
	c-2.7-8.8,3.3-16.8,14.1-20.1c8.3-2.6,14.1-1,19.6,1.9l-2.7,5.9c-5.3-2.1-9.3-3-15.5-1.1c-6.3,2-9.3,6.2-7.9,10.9
	c3.2,10.3,32.4-0.9,37.7,16.3c2.8,9-3.4,17.6-15.2,21.3c-7.4,2.1-15.3,1.7-22.5-1.2L880.8,175.7z M878.2,117l5.6-1.7l4.7,15.1
	l-5.6,1.7L878.2,117z M903.8,179.6l5,16.3l-5.6,1.7l-5-16.3L903.8,179.6z"/>
<path class="st0" d="M788,46l4.8-3.4l9.1,13l-4.8,3.4L788,46z M808.5,101c6.1,0.1,12.8-0.8,18.8-5.1c6.3-4.4,7.7-9.6,4.8-13.7
	c-7-10-31.3,9.7-41.1-4.3c-5.3-7.6-2.1-17,7.2-23.5c7.1-5,13.1-5.3,19.2-4.3l-0.8,6.4c-5.7-0.3-9.7,0-15.1,3.7
	c-5.4,3.8-7,8.7-4.1,12.8c6.2,8.9,30.6-10.8,40.9,3.9c5.4,7.7,2.2,17.8-7.9,25c-6.4,4.3-14.1,6.4-21.8,5.8L808.5,101z M831.6,97.7
	l9.8,13.9l-4.8,3.4l-9.8-13.9L831.6,97.7z"/>
<g>
	<path class="st1" d="M964.8,196L932.7,95.1l-4.5-14.2c-1-3.1-4.3-5.4-7.7-4.4l-37.6,12l-89.7,28.7L684.8,152l-94.2,30.2
		c-15.2,4.9-30.6,9.3-45.7,14.6c-0.2,0.1-0.4,0.1-0.7,0.2c-7.6,2.4-4.4,14.5,3.3,12l37.6-12l89.7-28.7l108.5-34.7l94.2-30.2l31-9.9
		c4.7-1.5,10.2-2.5,14.6-4.7c0.2-0.1,0.4-0.2,0.7-0.2l-7.7-4.4l32.1,100.9l4.5,14.2C955.2,206.9,967.3,203.7,964.8,196L964.8,196z"
		/>
	<path class="st1" d="M884.2,89.4l-55.4-75.5l-7.9-10.7c-1.9-2.6-5.4-4.2-8.5-2.2l-31.3,19.8l-75.1,47.4l-90.4,57.1l-78.5,49.6
		c-12.7,8-25.8,15.7-38.2,24.1c-0.2,0.1-0.4,0.2-0.5,0.3c-6.8,4.3-0.5,15.1,6.3,10.8l31.3-19.8l75.1-47.4l90.4-57.1l78.5-49.6
		l25.9-16.4c3.9-2.5,8.8-4.7,12.3-7.8c0.2-0.1,0.4-0.2,0.5-0.3l-8.5-2.2l55.4,75.5l7.9,10.7C878.1,102.1,889,95.8,884.2,89.4
		L884.2,89.4z"/>
</g>
<path class="st2" d="M372.8,212l61.4-0.8l147.3-1.9l177.5-2.2l153.3-1.9l50.5-0.6c7.8-0.1,16.2,0.7,23.9-0.3c0.3,0,0.7,0,1,0
	l-5.7-5.7l0.8,65.5c0.1,7.3,11.5,7.3,11.4,0l-0.8-65.5c0-3.1-2.6-5.6-5.7-5.7l-61.4,0.8l-147.3,1.9l-177.5,2.2l-153.3,1.9
	c-24.8,0.3-49.7-0.1-74.4,0.9c-0.3,0-0.7,0-1,0C365.5,200.7,365.5,212.1,372.8,212L372.8,212z"/>
<path class="st3" d="M10,51.5h446.8c1.8,0,4.9,0.6,6.6,0c2.8-1-4.4-2.4-3.1-3.7c-0.5,0.5,0,4,0,4.5v15.9c-0.1,0.8-0.1,1.6,0,2.4
	c0.8,3.6,3-4,3.9-2.7c-0.1-0.1-0.8,0-1,0c-2-0.5-4.9,0-7,0H13.1c-0.8-0.1-1.6-0.1-2.4,0c-2.7,0.6,2.8,4.6,3.2,3.5
	c0.4-1.2,0-3.4,0-4.7V51.1c0.1-0.8,0.1-1.6,0-2.4c-0.5-3,2.5,1.6-2.1,2.5C20.7,49.5,17,36,8.2,37.8C1.3,39.1,0,45.2,0,51.1v16.3
	c0,5.7,0.5,11.7,7,13.9c1.2,0.3,2.5,0.5,3.8,0.5c6.7,0.3,13.5,0,20.2,0h369.2c21,0,42.2,0.8,63.1,0c0.9,0,1.8-0.1,2.7-0.2
	c6.9-1.4,8.2-7.4,8.2-13.4V51.9c0-5.7-0.4-11.8-7-13.9c-4.9-1.5-11.4-0.5-16.4-0.5H10C1.1,37.5,1,51.5,10,51.5z"/>
<path class="st4" d="M29.8,35.5v153.1c0,8,12.4,8,12.4,0V35.5C42.1,27.5,29.8,27.5,29.8,35.5z"/>
<path class="st3" d="M119.2,74.8v138.5c0.1,3.9,3.3,7,7.1,6.9c1.2,0,2.3-0.3,3.3-0.9c0.8-0.5,1.7-0.9,2.5-1.4c1-0.5,2-1,3-1.5
	c1.4-0.6,2.7-1.2,3-1.3c8-3.3,16.4-5.7,25-7.1c25.5-4.1,50.2,3.8,68.9,21.5c2.6,2.5,7.3,2.9,9.9,0c7.1-7.9,16-13.4,26.5-17.8
	c24.3-10.1,50.7-6.5,73.7,5.2c4.6,2.4,10.5-0.5,10.5-6V103.5c0-9-13.9-9-13.9,0V211l10.5-6c-26.1-13.3-56.1-17.9-83.9-6.9
	c-12,4.8-24.4,11.9-33.2,21.6h9.9c-21.4-20.2-49.2-29.5-78.4-25.7c-14,1.9-28.7,6-40.9,13.2l10.5,6V74.8
	C133.2,65.8,119.2,65.8,119.2,74.8z"/>
<path class="st4" d="M44.3,202.9c-0.5,10.3-16.1,10.5-16.1,0C28.2,192.4,43.8,192.5,44.3,202.9c0.4,7.9,12.7,8,12.4,0
	c-0.5-11.1-8.9-20.4-20.4-20.4c-11.3,0-20.4,9.2-20.4,20.5c0,11.3,9.1,20.4,20.4,20.4c11.5,0,19.9-9.4,20.4-20.4
	C57.1,194.9,44.7,194.9,44.3,202.9z"/>
<path class="st4" d="M42.6,389.3l0.3-146.5l0-20.6c0-8-12.4-8-12.4,0l-0.3,146.5l0,20.6C30.2,397.2,42.6,397.2,42.6,389.3l0.3-146.5
	l0-20.6c0-8-12.4-8-12.4,0l-0.3,146.5l0,20.6C30.2,397.2,42.6,397.2,42.6,389.3z"/>
<path class="st4" d="M23.9,216.4C12,222.5,6.1,235,6.1,247.9c0.1,10.3,0.1,20.5,0.1,30.8c0,29.6,0,59.2-0.1,88.8
	c0,7.3,0,14.5,0,21.8c0,8,12.4,8,12.4,0c0.1-45.2,0.2-90.4,0-135.5c0-4.4-0.6-9.3,0.6-13.5c1.7-5.7,5.7-10.5,11-13.2
	C37.2,223.4,30.9,212.7,23.9,216.4L23.9,216.4z"/>
<path class="st4" d="M42,226c4.3,2.2,7.7,5.8,9.9,10.1c2,4.3,1.7,8.8,1.7,13.4c0,10.8,0,21.6,0,32.4c0,28.4,0,56.9,0.1,85.3
	c0,7,0,14,0,21c0,8,12.4,8,12.4,0c-0.1-46.4-0.2-92.8,0-139.2c0-6.9-0.3-13.4-3.7-19.7c-3.2-5.9-8.1-10.8-14-14.1
	C41.2,211.6,35,222.3,42,226L42,226z"/>
<path class="st5" d="M101.6,297.2c0-32.3,19-52.1,44.6-52.1c10.5,0,20.6,4.5,27.6,12.4l-6.9,8.3c-5.4-5.7-11.9-9.5-20.5-9.5
	c-19,0-31.6,15.6-31.6,40.6c0,25.3,12.1,41.2,31.1,41.2c9.6,0,16.8-4.3,23.3-11.3l7,8c-8,9.2-17.8,14.6-30.8,14.6
	C120.3,349.3,101.6,330,101.6,297.2z"/>
<path class="st5" d="M211,268.1h14.4l28.5,79.3h-13.5l-7.4-22.4h-30.2l-7.4,22.4h-12.9L211,268.1z M206.1,315.6H230l-3.7-11.3
	c-2.9-8.7-5.2-17.2-8-25.9h-0.6c-2.8,8.9-5.1,17.2-8,25.9L206.1,315.6z"/>
<path class="st5" d="M267.9,268.1h12.7v68.8H317v10.6h-49V268.1z"/>
<path class="st5" d="M327.5,334.5l7.7-8.9c7.2,7.5,17.3,12.6,27.7,12.6c13.2,0,21-6.6,21-16.4c0-10.3-7.2-13.5-16.7-17.8l-14.4-6.3
	c-9.5-4-20.4-11.2-20.4-25.9c0-15.3,13.3-26.6,31.6-26.6c11.2,0,21.9,4.5,29.7,12.4l-6.9,8.3c-6.1-5.8-13.5-9.5-22.8-9.5
	c-11.2,0-18.7,5.7-18.7,14.7c0,9.6,8.7,13.3,16.7,16.7l14.2,6.1c11.6,5.1,20.7,11.9,20.7,26.8c0,15.9-13,28.6-34.2,28.6
	C349.5,349.4,336.8,344,327.5,334.5z"/>
<path class="st5" d="M432.7,278.7h-25.1v-10.6h62.9v10.6h-25.1v68.8h-12.7V278.7z"/>
<path class="st5" d="M499.1,268.1h14.4l28.5,79.3h-13.5l-7.4-22.4h-30.2l-7.4,22.4h-12.9L499.1,268.1z M494.2,315.6H518l-3.7-11.3
	c-2.9-8.7-5.2-17.2-8-25.9h-0.6c-2.8,8.9-5.1,17.2-8,25.9L494.2,315.6z"/>
<path class="st5" d="M567.1,278.7h-25.1v-10.6h62.9v10.6h-25.1v68.8h-12.7V278.7z"/>
<path class="st5" d="M623,268.1h49.9v10.1h-37.2v23h31.6v9.6h-31.6v26.5h38.7v10.1H623V268.1z"/>
<path class="st6" d="M695.7,247h28.6c22.5,0,37.7,7.5,37.7,29.6c0,21.1-15,31.1-37.1,31.1h-16.5v39.8h-12.7V247z M723.4,297.2
	c17.5,0,25.9-6.4,25.9-20.7c0-14.6-8.9-19.3-26.5-19.3h-14.4v40H723.4z"/>
<path class="st6" d="M790.4,268.1h14.4l28.5,79.3h-13.5l-7.4-22.4h-30.2l-7.4,22.4H762L790.4,268.1z M785.5,315.6h23.9l-3.7-11.3
	c-2.9-8.7-5.2-17.2-8-25.9h-0.6c-2.8,8.9-5.1,17.2-8,25.9L785.5,315.6z"/>
<path class="st6" d="M857.4,317.4l-25.6-49.3h13.5l10.1,21c2.6,5.8,5.4,11.3,8.3,17.3h0.6c2.8-6,5.4-11.5,8.1-17.3l10.1-21h13.2
	l-25.6,49.3v30h-12.7V317.4z"/>
<path class="st6" d="M899.9,337.8l6.7-8.7c6.7,6.1,15.2,10.1,24.5,10.1c10.4,0,16.2-4.9,16.2-12.1c0-7.7-5.7-10.3-13-13.3l-10-4
	c-10.9-4.1-19.9-10.1-19.9-21.6c0-13.2,11.5-21.9,27.6-21.9c9.7-0.1,19,3.3,26.3,9.6l-6.6,8.3c-5.5-4.9-12.5-7.7-19.9-7.8
	c-9,0-14.7,4.1-14.7,11.2c0,6.3,4.9,9.2,13,12.4l10.1,4c11.6,4.4,19.9,8.9,19.9,22.2c0,13.2-11.3,23.1-29.6,23.1
	C919.3,349.4,908.3,345.3,899.9,337.8z"/>
</svg>
