<svg xmlns="http://www.w3.org/2000/svg" viewBox="0 0 1466.96541 583.54978"><defs><style>.cls-1{fill:#5f8474;}.cls-2{fill:#7eb09b;}.cls-3{fill:gray;}.cls-4{fill:#cb132a;}.cls-5{fill:#383838;}</style></defs><title>Asset 1</title><g id="Layer_2" data-name="Layer 2"><g id="Layer_1-2" data-name="Layer 1"><path class="cls-1" d="M1275.39471,254.14723c8.522,2.9834,18.3125,4.66211,28.71289,1.44141,10.8164-3.35059,15.13769-10.00781,12.94726-17.08008-5.32568-17.19531-48.34033-.5293-55.81347-24.6582-4.03809-13.03516,4.7998-24.74024,20.74707-29.67969,12.20214-3.7793,20.83105-1.43555,28.96142,2.7334l-3.99707,8.68457c-7.78662-3.06055-13.68017-4.42481-22.83252-1.59082-9.292,2.87793-13.74121,9.11914-11.59375,16.05273,4.72461,15.25391,47.78174-1.27343,55.6416,24.10352,4.123,13.3125-5.01074,26.02148-22.4834,31.43262a51.01131,51.01131,0,0,1-33.207-1.72168Zm-3.70508-86.543,8.32031-2.57714,6.91553,22.32714-8.3208,2.57715Zm37.74219,92.415,7.43017,23.98926-8.3208,2.57715-7.43066-23.98926Z"/><path class="cls-1" d="M1160.0158,58.82106l7.124-5.01269L1180.59,72.9236l-7.124,5.0127Zm30.15625,81.2041c9.02734.21582,18.85889-1.20117,27.76367-7.46679,9.26074-6.51563,11.32324-14.17969,7.063-20.23438-10.35889-14.72168-46.15772,14.37207-60.69336-6.28613-7.853-11.16016-3.04639-25.0166,10.60742-34.624,10.44776-7.35058,19.37891-7.77636,28.39746-6.31152l-1.13037,9.49316c-8.35058-.51464-14.3789,0-22.21484,5.51368-7.95508,5.59668-10.26807,12.90429-6.09082,18.84082,9.189,13.05957,45.07129-15.915,60.35888,5.8125,8.02,11.39746,3.23975,26.2998-11.72021,36.82519a51.01452,51.01452,0,0,1-32.126,8.58106Zm34.19238-4.88867,14.45215,20.54-7.124,5.01269-14.45215-20.54Z"/><path class="cls-2" d="M1388.16106,287.66286l-18.24023-57.33045-29.09216-91.4386-6.70362-21.06982c-1.43127-4.49878-6.45312-8.10022-11.30456-6.41858l-51.47657,17.844-122.60986,42.5017-148.68872,51.54175-128.52441,44.552c-20.78009,7.20325-41.70581,14.08594-62.36921,21.61976-.30151.10986-.60675.21032-.91.31543-11.1073,3.85021-6.33209,21.61181,4.886,17.72314l51.4765-17.844,122.60986-42.50171,148.68872-51.54175,128.52442-44.552,42.443-14.71253c6.562-2.27466,13.56507-4.10339,19.92615-6.90722.29053-.12806.60937-.21119.91-.31543L1316.40191,122.71l18.24023,57.33044,29.09217,91.4386,6.70361,21.06982c3.57275,11.22962,21.32373,6.43079,17.72314-4.8861Z"/><path class="cls-2" d="M1297.86224,122.819,1221.9865,19.43825,1211.07976,4.57777c-2.88061-3.9248-7.98852-6.12915-12.57348-3.29687l-47.3086,29.22351L1038.05,100.39809l-137.232,84.771L782.61773,258.18373c-19.1109,11.80518-38.60919,23.15528-57.405,35.46021-.26227.17175-.53424.32995-.801.49475-10.04467,6.20483-.8247,22.11011,9.27661,15.87036l47.3086-29.22351,113.1477-69.89368,137.23206-84.771L1149.577,53.10609,1188.33257,29.166c6.14014-3.79285,12.8357-7.23169,18.64942-11.52014.24975-.1842.53637-.3313.801-.49475l-12.57348-3.29688L1271.08526,117.235l10.90674,14.86047c2.93225,3.99524,7.973,5.9878,12.57348,3.29688,3.942-2.30566,6.25-8.5498,3.29688-12.57349Z"/><path class="cls-3" d="M549.75988,312.90944l24.27-.30554,66.05011-.83142,97.69012-1.22974,119.19007-1.50037,130.55-1.64343L1119.28,305.74013l122.84961-1.54651L1345.919,302.8871l74.37573-.93628c11.74548-.14783,23.68933.31946,35.41553-.4458.50525-.033,1.01916-.01282,1.52588-.01916l-8.57849-8.57837,1.00683,84.59179.14331,12.042c.13135,11.03234,17.28858,11.062,17.15686,0l-1.00683-84.5918-.14331-12.042a8.69976,8.69976,0,0,0-8.5785-8.57837l-24.27.30554-66.05.83142-97.69007,1.22974-119.19006,1.50036-130.55005,1.64344-131.76984,1.65881-122.84967,1.54651-103.78943,1.30652-74.37573.93628c-11.79754.14856-23.62231.07568-35.41559.4458-.50811.016-1.01745.01281-1.52581.01916-11.03186.13892-11.06214,17.29614,0,17.15686Z"/><path class="cls-4" d="M14.85532,75.89967H674.34643c2.94458,0,6.561.57349,9.463,0,4.174-.82483-5.69952-3.43945-4.74066-5.50317-.75446,1.62378,0,5.45837,0,7.2345v23.67431a26.73417,26.73417,0,0,0,0,3.28455c.60644,4.75708-4.9491-7.30689,5.77539-4.59631a8.868,8.868,0,0,0-1.3714,0c-3.36792-.27344-6.87488,0-10.25147,0H19.29434a29.50876,29.50876,0,0,0-3.4899,0c-4.12877.50525,4.57183,6.69128,4.82823,5.26269,1.05175-5.86,0-12.84875,0-18.79663V75.29421c0-1.24317.109-2.54322,0-3.78064-.40383-4.58362,3.17067,3.19567-5.77735,4.3861C20.36241,75.167,25.1444,71.69521,25.1444,65.61061c0-4.98974-4.74115-11.02722-10.28907-10.28906C6.56349,56.4247.56759,61.37672.05454,70.11415c-.12272,2.09,0,4.22205,0,6.31445v24.17054c0,1.7279-.10389,3.49109,0,5.21643A15.24213,15.24213,0,0,0,14.8603,120.57179c.50612.03064,1.01938-.01074,1.52623,0,10.25486.21765,20.53851,0,30.795,0H653.4356c10.03235,0,20.10828.2732,30.138,0,.862-.02343,1.60089-.07788,2.472-.15954,7.87586-.73865,13.16187-6.98743,13.60138-14.74012.12378-2.18334,0-4.41113,0-6.59716V74.94118a36.67071,36.67071,0,0,0-.36755-7.59851c-1.49329-7.08472-7.28412-11.58338-14.44122-12.021-7.12274-.43555-14.40943,0-21.54077,0H14.85532C1.61427,55.32155,1.59235,75.89967,14.85532,75.89967Z"/><path class="cls-4" d="M43.45693,52.29713V278.22328c0,12.37891,19.23819,12.39942,19.23819,0V52.29713C62.69512,39.91823,43.45693,39.89772,43.45693,52.29713Z"/><path class="cls-4" d="M175.95052,110.28261V314.657a10.3831,10.3831,0,0,0,15.48215,8.88428,97.9945,97.9945,0,0,1,8.964-4.54432c.74039-.33984,1.4859-.66735,2.22891-1.00122.397-.17834.79892-.34546,1.19721-.52087,1.25564-.55274-1.8733.76965-.56144.23535,1.99082-.81079,3.98392-1.611,5.99921-2.35962q6.69708-2.48821,13.584-4.4187c23.76594-6.65662,48.73786-7.93664,73.09806-.41138,17.64966,5.45227,33.29938,15.4878,46.63263,28.16382,3.86972,3.679,10.74917,4.22144,14.55093,0a73.81524,73.81524,0,0,1,6.55826-6.24389c1.18494-1.02771,2.3995-2.0177,3.61389-3.01.31635-.25855.64166-.50574.96005-.76172,1.03357-.83069-1.65579,1.249-.56469.43469.8153-.60852,1.62494-1.22376,2.44824-1.82153q5.3595-3.89191,11.08252-7.24768a117.99381,117.99381,0,0,1,68.80792-16.21656c19.19879,1.349,37.8371,7.655,54.88605,16.37317,6.832,3.49365,15.48218-.75256,15.48218-8.88428V152.72109c0-13.241-20.57813-13.26294-20.57813,0V311.30666l15.48218-8.88428c-31.92853-16.327-67.5401-23.9353-103.0127-16.418-22.13531,4.69092-42.74188,15.21069-60.23852,29.43506a83.51282,83.51282,0,0,0-9.47812,8.69433h14.55093c-25.43554-24.182-57.79577-38.59692-93.04086-39.28186-24.217-.47058-48.18549,5.21033-70.34265,14.7229a111.18813,111.18813,0,0,0-12.6962,6.19812l15.48215,8.88428V110.28261c0-13.24109-20.57816-13.26294-20.57816,0Z"/><path class="cls-4" d="M64.92185,299.25588c-.47571,14.70471-22.79034,14.788-22.82692,0-.0366-14.79456,22.35071-14.72059,22.82692,0,.39949,12.34863,19.63947,12.40368,19.23819,0-.53862-16.64954-13.61542-30.65162-30.65166-30.65162a30.65168,30.65168,0,0,0,0,61.30335c17.03794,0,30.113-14.00256,30.65165-30.65161C84.56066,286.8727,65.322,286.88673,64.92185,299.25588Z"/><path class="cls-4" d="M63.34368,574.25783,63.49,490.8401,63.723,358.043l.0531-30.26611c.02171-12.37976-19.21645-12.39844-19.23821,0l-.14633,83.41773-.233,132.797-.05308,30.26612c-.02172,12.37976,19.21644,12.39843,19.23818,0L63.49,490.84l.233-132.797.0531-30.26611c.02172-12.37976-19.21644-12.39844-19.2382,0l-.14633,83.41773-.233,132.797-.05308,30.26612C44.08375,586.63759,63.32192,586.65627,63.34368,574.25783Z"/><path class="cls-4" d="M35.01595,318.75185c-7.4649,3.83361-13.90321,10.32739-18.60365,17.17126-6.21794,9.05335-7.84862,19.35547-7.785,30.0813.09046,15.24207.07684,30.485.08261,45.7273Q8.73457,476.814,8.63534,541.896q-.01824,16.181-.04,32.36194c-.01732,12.37964,19.22084,12.39856,19.23818,0q.05806-41.51588.08877-83.03186c.03083-39.4364.10318-78.8739-.02691-118.31018-.02338-7.08826-.867-14.72522,1.82988-21.42151,2.04037-5.06628,5.013-8.52966,9.31094-12.26123.41274-.35828.83617-.70312,1.25566-1.05334.97391-.81287-1.36169.93505.09435-.06287.72783-.49878,1.43919-1.01465,2.185-1.48755.70258-.44543,1.414-.88562,2.15464-1.266C55.74259,329.70583,46.021,313.10024,35.01595,318.75185Z"/><path class="cls-4" d="M61.83567,333.77834c.53331.27392,1.04881.58288,1.561.89392.50666.30761,1.00281.63257,1.49471.96313.56421.37915,2.70708,2.02161,1.0712.71057a35.96632,35.96632,0,0,1,9.34964,10.53272c3.573,6.29,3.40165,13.18811,3.36946,20.3645-.07121,15.872-.0658,31.74451-.06977,47.6167q-.01582,63.50775.07784,127.015.0175,15.399.03822,30.79786c.01732,12.37805,19.25554,12.40014,19.23821,0q-.06027-43.08343-.09119-86.167c-.02981-39.43359-.12266-78.86889.04079-118.30237.04353-10.501-.37377-20.446-5.4408-30.03039a51.64476,51.64476,0,0,0-20.9294-21.00635c-10.99432-5.64612-20.73855,10.94788-9.70988,16.61157Z"/><path class="cls-5" d="M149.9743,438.47731c0-47.67285,28.01611-76.81836,65.748-76.81836a54.082,54.082,0,0,1,40.66846,18.30078l-10.167,12.2002c-7.90821-8.35938-17.623-14.00781-30.27588-14.00781-28.01612,0-46.543,23.04589-46.543,59.873,0,37.28028,17.84912,60.77735,45.86523,60.77735,14.23389,0,24.853-6.32618,34.34229-16.71973l10.39306,11.749c-11.74853,13.55664-26.20849,21.46387-45.41308,21.46387C177.53875,515.29567,149.9743,486.8279,149.9743,438.47731Z"/><path class="cls-5" d="M311.29314,395.54958h21.23828l42.02393,117.03515H354.673L343.8283,479.5984H299.31853l-10.84472,32.98633h-18.979Zm-7.23,70.04h35.2461l-5.42237-16.71875c-4.293-12.87891-7.68164-25.30567-11.74853-38.1836h-.90381c-4.0669,13.10449-7.45606,25.30469-11.749,38.1836Z"/><path class="cls-5" d="M395.34051,395.54958h18.75244V496.99489h53.54736v15.58984h-72.2998Z"/><path class="cls-5" d="M483.23064,493.37965l11.29688-13.10351c10.61914,11.07031,25.53076,18.52637,40.89453,18.52637,19.43066,0,30.95361-9.71485,30.95361-24.17481,0-15.13769-10.61914-19.88281-24.62744-26.209l-21.23779-9.26367c-14.0083-5.874-30.04981-16.49317-30.04981-38.1836,0-22.59277,19.65674-39.3125,46.543-39.3125a61.50021,61.50021,0,0,1,43.832,18.30078l-10.16748,12.2002c-9.03711-8.585-19.88232-14.00781-33.66455-14.00781-16.49316,0-27.564,8.35937-27.564,21.69043,0,14.23339,12.87841,19.65625,24.627,24.62695l21.01221,9.03711c17.1709,7.45605,30.50146,17.623,30.50146,39.53906,0,23.49707-19.20459,42.25-50.38379,42.25A71.87265,71.87265,0,0,1,483.23064,493.37965Z"/><path class="cls-5" d="M638.44891,411.13942H601.39519V395.54958h92.86036v15.58984H657.20183V512.58473H638.44891Z"/><path class="cls-5" d="M736.28,395.54958h21.23828l42.02393,117.03515H779.65984L768.81512,479.5984H724.30535l-10.84473,32.98633h-18.979Zm-7.23,70.04h35.24609l-5.42236-16.71875c-4.293-12.87891-7.68164-25.30567-11.74854-38.1836h-.9038c-4.0669,13.10449-7.45606,25.30469-11.749,38.1836Z"/><path class="cls-5" d="M836.5949,411.13942H799.54119V395.54958h92.86035v15.58984H855.34783V512.58473H836.5949Z"/><path class="cls-5" d="M919.06267,395.54958H992.718v14.91211H937.81512v33.88964h46.543v14.23438h-46.543v39.08691h57.16211v14.91211H919.06267Z"/><path class="cls-4" d="M1026.3825,364.36989h42.25c33.21289,0,55.58057,11.07129,55.58057,43.60644,0,31.17872-22.14209,45.86524-54.67676,45.86524h-24.40137v58.74316H1026.3825Zm40.89453,74.10742c25.75684,0,38.18311-9.48926,38.18311-30.501,0-21.46484-13.104-28.46875-39.08692-28.46875h-21.23828v58.96973Z"/><path class="cls-4" d="M1166.01433,395.54958h21.23829l42.02392,117.03515h-19.88232l-10.84473-32.98633h-44.50976L1143.195,512.58473h-18.979Zm-7.23,70.04h35.2461l-5.42237-16.71875c-4.293-12.87891-7.68164-25.30567-11.74853-38.1836h-.90381c-4.06689,13.10449-7.45605,25.30469-11.749,38.1836Z"/><path class="cls-4" d="M1264.97478,468.30153l-37.73144-72.752h19.88281l14.91162,30.95312c3.84082,8.58594,7.90772,16.71973,12.20069,25.53125h.9038c4.0669-8.81152,7.90772-16.94531,11.97461-25.53125l14.91162-30.95312h19.43067l-37.73145,72.752v44.2832h-18.75293Z"/><path class="cls-4" d="M1327.56121,498.35036l9.94141-12.87793c9.94091,9.03711,22.36767,14.91211,36.1499,14.91211,15.36377,0,23.94922-7.23047,23.94922-17.84961,0-11.29688-8.35987-15.1377-19.20459-19.65625l-14.686-5.874c-16.0415-6.10058-29.37158-14.9121-29.37158-31.85742,0-19.43066,16.94531-32.30859,40.66846-32.30859a58.69089,58.69089,0,0,1,38.86133,14.2334l-9.71583,12.20117c-7.90722-6.77832-17.84863-11.52344-29.37158-11.52344-13.33008,0-21.68994,6.10059-21.68994,16.49317,0,9.26367,7.23,13.55664,19.20508,18.30175l14.91162,5.874c17.17139,6.55175,29.37158,13.10449,29.37158,32.76074,0,19.43066-16.71875,34.11621-43.60547,34.11621A67.31457,67.31457,0,0,1,1327.56121,498.35036Z"/></g></g></svg>