<svg xmlns="http://www.w3.org/2000/svg" viewBox="0 0 60 61.2"><style type="text/css">  
	.st0{fill:#5F8474;}
	.st1{fill:#7EB09B;}
	.st2{fill:#C52429;}
	.st3{fill:#DB9800;}
	.st4{fill:#383838;}
</style><title>  cspLogoRedNoCap</title><path class="st0" d="M46.4 18.8c0.6 0.2 1.3 0.3 2.1 0.1 0.8-0.2 1.1-0.7 0.9-1.2 -0.4-1.2-3.5 0-4-1.8 -0.3-0.9 0.3-1.8 1.5-2.2 0.9-0.3 1.5-0.1 2.1 0.2l-0.3 0.6c-0.6-0.2-1-0.3-1.7-0.1s-1 0.7-0.8 1.2c0.3 1.1 3.5-0.1 4 1.7 0.3 1-0.4 1.9-1.6 2.3 -0.8 0.2-1.6 0.2-2.4-0.1L46.4 18.8zM46.1 12.5l0.6-0.2 0.5 1.6 -0.6 0.2L46.1 12.5zM48.9 19.2l0.5 1.7 -0.6 0.2 -0.5-1.7L48.9 19.2z"/><path class="st0" d="M36.5 4.9L37 4.6l1 1.4 -0.5 0.4L36.5 4.9zM38.7 10.8c0.7 0 1.4-0.1 2-0.5 0.7-0.5 0.8-1 0.5-1.5 -0.7-1.1-3.3 1-4.4-0.5 -0.6-0.8-0.2-1.8 0.8-2.5 0.8-0.5 1.4-0.6 2-0.5l-0.1 0.7c-0.6 0-1 0-1.6 0.4 -0.6 0.4-0.7 0.9-0.4 1.4 0.7 0.9 3.3-1.2 4.4 0.4 0.6 0.8 0.2 1.9-0.8 2.7 -0.7 0.5-1.5 0.7-2.3 0.6L38.7 10.8zM41.1 10.5l1.1 1.5 -0.5 0.4 -1.1-1.5L41.1 10.5z"/><path class="st1" d="M55.4 20.9L52 10.2l-0.5-1.5c-0.1-0.3-0.5-0.6-0.8-0.5l-4 1.3 -9.6 3.1 -11.6 3.7 -10.1 3.2c-1.6 0.5-3.3 1-4.9 1.6 0 0-0.1 0-0.1 0 -0.8 0.3-0.5 1.5 0.4 1.3l4-1.3 9.6-3.1L36 14.3 46.1 11l3.3-1.1c0.5-0.2 1.1-0.3 1.6-0.5 0 0 0.1 0 0.1 0L50.2 9l3.4 10.8 0.5 1.5C54.4 22.1 55.6 21.8 55.4 20.9L55.4 20.9z"/><path class="st1" d="M46.8 9.6l-5.9-8.1L40 0.3c-0.2-0.3-0.6-0.4-0.9-0.2l-3.3 2.1 -8 5.1 -9.7 6.1 -8.4 5.3c-1.4 0.9-2.7 1.7-4.1 2.6 0 0 0 0-0.1 0 -0.7 0.5-0.1 1.6 0.7 1.2l3.3-2.1 8-5.1 9.7-6.1 8.4-5.3 2.8-1.7c0.4-0.3 0.9-0.5 1.3-0.8 0 0 0 0 0.1 0L38.9 1l5.9 8.1 0.8 1.2C46.1 10.9 47.3 10.3 46.8 9.6L46.8 9.6z"/><path class="st2" d="M1.3 22.7h56.5c0.2 0 0.6 0.1 0.8 0 0.4-0.1-0.6-0.3-0.4-0.5 -0.1 0.1 0 0.5 0 0.6v2c0 0.1 0 0.2 0 0.3 0.1 0.5 0.4-0.5 0.5-0.3 0 0-0.1 0-0.1 0 -0.3-0.1-0.6 0-0.9 0H1.7c-0.1 0-0.2 0-0.3 0 -0.3 0.1 0.4 0.6 0.4 0.4 0.1-0.2 0-0.4 0-0.6v-2c0-0.1 0-0.2 0-0.3 -0.1-0.4 0.3 0.2-0.3 0.3C2.6 22.5 2.2 20.8 1 21c-0.9 0.2-1 0.9-1 1.7v2.1c0 0.7 0.1 1.5 0.9 1.8 0.2 0 0.3 0.1 0.5 0.1 0.8 0 1.7 0 2.6 0h46.7c2.7 0 5.3 0.1 8 0 0.1 0 0.2 0 0.3 0 0.9-0.2 1-0.9 1-1.7v-2.1c0-0.7-0.1-1.5-0.9-1.8C58.5 20.9 57.7 21 57 21H1.3C0.1 21 0.1 22.7 1.3 22.7z"/><path class="st3" d="M3.8 20.5v14.1c0 0.7 1.6 0.7 1.6 0V20.5C5.3 19.8 3.8 19.8 3.8 20.5z"/><path class="st2" d="M15.1 25.7v17.5c0 0.5 0.4 0.9 0.9 0.9 0.2 0 0.3 0 0.4-0.1 0.1-0.1 0.2-0.1 0.3-0.2 0.1-0.1 0.3-0.1 0.4-0.2 0.2-0.1 0.3-0.2 0.4-0.2 1-0.4 2.1-0.7 3.2-0.9 3.2-0.5 6.4 0.5 8.7 2.7 0.3 0.3 0.9 0.4 1.3 0 0.9-1 2-1.7 3.4-2.3 3.1-1.3 6.4-0.8 9.3 0.7 0.6 0.3 1.3-0.1 1.3-0.8V29.3c0-1.1-1.8-1.1-1.8 0v13.6l1.3-0.8c-3.3-1.7-7.1-2.3-10.6-0.9 -1.5 0.6-3.1 1.5-4.2 2.7h1.3c-2.7-2.6-6.2-3.7-9.9-3.3 -1.8 0.2-3.6 0.8-5.2 1.7l1.3 0.8V25.7C16.9 24.6 15.1 24.6 15.1 25.7z"/><path class="st3" d="M5.6 36.6c-0.1 1.3-2 1.3-2 0C3.6 35.3 5.6 35.3 5.6 36.6c0.1 1 1.6 1 1.6 0 -0.1-1.4-1.1-2.6-2.6-2.6 -1.4 0-2.6 1.2-2.6 2.6s1.2 2.6 2.6 2.6c1.5 0 2.5-1.2 2.6-2.6C7.2 35.6 5.7 35.6 5.6 36.6z"/><path class="st3" d="M5.4 60.3l0-18.6v-2.6c0-1-1.6-1-1.6 0l0 18.6v2.6C3.8 61.3 5.4 61.3 5.4 60.3l0-18.6v-2.6c0-1-1.6-1-1.6 0l0 18.6v2.6C3.8 61.3 5.4 61.3 5.4 60.3z"/><path class="st3" d="M3 38.3c-1.5 0.8-2.3 2.4-2.2 4 0 1.3 0 2.6 0 3.9 0 3.8 0 7.5 0 11.3 0 0.9 0 1.8 0 2.8 0 1 1.6 1 1.6 0 0-5.7 0-11.5 0-17.2 0-0.6-0.1-1.2 0.1-1.7 0.2-0.7 0.7-1.3 1.4-1.7C4.7 39.2 3.9 37.9 3 38.3L3 38.3z"/><path class="st3" d="M5.3 39.6c0.5 0.3 1 0.7 1.3 1.3 0.3 0.5 0.2 1.1 0.2 1.7 0 1.4 0 2.8 0 4.1 0 3.6 0 7.3 0 10.9 0 0.9 0 1.8 0 2.7 0 1 1.6 1 1.6 0 0-5.9 0-11.8 0-17.8 0-0.9 0-1.7-0.5-2.5 -0.4-0.8-1-1.4-1.8-1.8C5.2 37.7 4.4 39.1 5.3 39.6L5.3 39.6z"/><path class="st4" d="M19.9 48.4c-1.5 0-2.7 0.5-3.6 1.5 -0.9 1-1.3 2.4-1.3 4.1 0 1.8 0.4 3.2 1.3 4.1 0.8 1 2 1.5 3.6 1.5 0.9 0 2-0.2 3.3-0.5v1.4C22.1 60.9 21 61 19.6 61c-2 0-3.6-0.6-4.7-1.8 -1.1-1.2-1.6-2.9-1.6-5.2 0-1.4 0.3-2.6 0.8-3.7 0.5-1.1 1.3-1.9 2.3-2.4 1-0.6 2.2-0.9 3.5-0.9 1.4 0 2.7 0.3 3.8 0.8l-0.7 1.4C21.9 48.7 20.9 48.4 19.9 48.4z"/><path class="st4" d="M34.6 57.3c0 1.2-0.4 2.1-1.3 2.8 -0.9 0.7-2 1-3.5 1 -1.6 0-2.9-0.2-3.7-0.6V59c0.6 0.2 1.2 0.4 1.8 0.6 0.7 0.1 1.3 0.2 2 0.2 1.1 0 1.9-0.2 2.4-0.6 0.5-0.4 0.8-1 0.8-1.7 0-0.5-0.1-0.9-0.3-1.2 -0.2-0.3-0.5-0.6-0.9-0.8 -0.4-0.3-1.1-0.5-2-0.9 -1.3-0.5-2.2-1-2.7-1.6 -0.5-0.6-0.8-1.4-0.8-2.4 0-1.1 0.4-1.9 1.2-2.5 0.8-0.6 1.8-0.9 3.1-0.9 1.4 0 2.6 0.3 3.7 0.7l-0.5 1.4c-1.1-0.5-2.2-0.7-3.3-0.7 -0.8 0-1.5 0.2-2 0.5 -0.5 0.4-0.7 0.9-0.7 1.5 0 0.5 0.1 0.9 0.3 1.2 0.2 0.3 0.5 0.6 0.9 0.8 0.4 0.3 1.1 0.5 1.9 0.8 1.4 0.5 2.4 1.1 3 1.6C34.4 55.6 34.6 56.4 34.6 57.3z"/><path class="st2" d="M46.5 51.3c0 1.4-0.5 2.4-1.4 3.2s-2.3 1.1-4 1.1h-1.6V61h-1.6V47.3h3.5C44.8 47.3 46.5 48.7 46.5 51.3zM39.4 54.2h1.4c1.4 0 2.4-0.2 3-0.7 0.6-0.5 0.9-1.2 0.9-2.2 0-0.9-0.3-1.6-0.9-2 -0.6-0.4-1.5-0.7-2.8-0.7h-1.8L39.4 54.2 39.4 54.2z"/></svg>