<svg id="Layer_1" data-name="Layer 1" xmlns="http://www.w3.org/2000/svg" viewBox="0 0 544.77 546.25"><defs><style>.cls-1{fill:#fff;}.cls-2{fill:#cf202f;}</style></defs><title>metalab-logo</title><polygon points="547.51 547.19 -0.83 547.2 -0.83 -1.16 547.51 -1.16 547.51 547.19"/><polygon class="cls-1" points="164.37 252.54 164.37 199.6 147.05 234.04 135.06 234.04 117.59 199.6 117.59 252.54 99.85 252.54 99.85 161.74 117.34 161.74 141.05 210.82 164.65 161.74 182.11 161.74 182.11 252.54 164.37 252.54"/><polygon class="cls-1" points="217.68 252.54 217.68 161.74 277.48 161.74 277.48 177.54 235.4 177.54 235.4 198.85 271.24 198.85 271.24 214.67 235.4 214.67 235.4 236.72 277.48 236.72 277.48 252.54 217.68 252.54"/><polygon class="cls-1" points="346.54 177.54 346.54 252.53 328.81 252.53 328.81 177.54 305.09 177.54 305.09 161.74 370.27 161.74 370.27 177.54 346.54 177.54"/><path class="cls-1" d="M423.2,188.51l-11.49,33h22.56Zm21.16,64L439,236.45H406.74l-5.49,16.08H382.76l33-90.79h13.89l33.16,90.79Z"/><polygon class="cls-1" points="218.78 386.64 218.78 295.84 236.5 295.84 236.5 370.81 277.69 370.81 277.69 386.64 218.78 386.64"/><path class="cls-1" d="M336.85,322.61l-11.47,33h22.55Zm21.16,64-5.36-16.09H320.4l-5.48,16.09h-18.5l33-90.8h13.91l33.14,90.8Z"/><path class="cls-1" d="M435.79,348.5H417.31v22.31h18.48c8,0,11.87-5.09,11.87-11.22s-3.82-11.09-11.87-11.09m-1.16-36.85H417.31v20.91h17.32c7.55,0,11.75-4.21,11.75-10.46s-4.2-10.45-11.75-10.45m2.95,75h-38v-90.8h36.47c17.72,0,28.06,9.94,28.06,25.52a21,21,0,0,1-11.21,18.71c5.46,2.58,12.47,8.31,12.47,20.41,0,17-11.6,26.16-27.79,26.16"/><polygon class="cls-2" points="146.94 345.14 146.94 382.51 137.24 382.51 137.24 345.14 99.85 345.14 99.85 335.43 137.24 335.43 137.24 298.28 146.94 298.28 146.94 335.43 184.1 335.43 184.1 345.14 146.94 345.14"/></svg>